<svg width="20" height="50" viewBox="0 0 20 50" fill="none" xmlns="http://www.w3.org/2000/svg">
<g clip-path="url(#clip0)">
<g filter="url(#filter0_d)">
<path d="M6.35802e-09 38.4668C7.18453e-08 32.9752 12 27.2326 12 24.4943C12 21.756 2.77489e-07 15.7303 3.396e-07 10.5217C4.04349e-07 5.09198 -5.91293e-08 43.9585 6.35802e-09 38.4668Z" fill="black"/>
</g>
<path d="M6.35802e-09 38.4668C7.18453e-08 32.9752 12 27.2326 12 24.4943C12 21.756 2.77489e-07 15.7303 3.396e-07 10.5217C4.04349e-07 5.09198 -5.91293e-08 43.9585 6.35802e-09 38.4668Z" fill="white"/>
<path fill-rule="evenodd" clip-rule="evenodd" d="M0.5 38.4668C0.5 38.895 0.5 38.895 0.5 38.9983C0.5 38.9991 0.5 38.9991 0.5 38.9996C0.5 38.9998 0.5 38.9998 0.5 38.9999L-0.5 39C-0.5 38.9997 -0.5 38.9997 -0.5 38.9981C-0.5 38.9934 -0.5 38.9934 -0.5 38.984C-0.5 38.9584 -0.5 38.9584 -0.5 38.9148C-0.5 38.8013 -0.5 38.8013 -0.5 38.6201C-0.5 37.5702 -0.5 37.5702 -0.5 35.6536C-0.5 30.7801 -0.5 30.7801 -0.5 24.5175C-0.5 18.2529 -0.5 18.2529 -0.5 13.3697C-0.5 11.4469 -0.5 11.4469 -0.5 10.3888C-0.5 10.2054 -0.5 10.2054 -0.5 10.0895C-0.5 10.0448 -0.5 10.0448 -0.5 10.018C-0.5 10.008 -0.5 10.008 -0.5 10.0026C-0.5 10.0007 -0.5 10.0007 -0.5 10.0001L0.5 10C0.5 10 0.5 10 0.5 10.0002C0.5 10.0005 0.5 10.0005 0.5 10.0011C0.5 10.0992 0.5 10.0992 0.5 10.5217C0.5 11.3847 0.887151 12.344 1.64483 13.4074C2.61541 14.7696 4.06016 16.1671 6.32008 18.0502C6.82554 18.4714 8.5919 19.9156 8.52075 19.8571C9.36645 20.5527 9.95369 21.0529 10.4629 21.5198C11.8258 22.7692 12.5 23.6671 12.5 24.4943C12.5 25.3234 11.8263 26.2059 10.4589 27.4326C9.95262 27.8868 9.3747 28.3685 8.5169 29.0599C8.28276 29.2486 7.43933 29.925 7.43225 29.9306C6.98896 30.2867 6.64855 30.5624 6.31738 30.8344C3.04738 33.5206 1.26219 35.4647 0.680575 37.3417C0.560504 37.7292 0.5 38.1037 0.5 38.4668Z" stroke="black" stroke-opacity="0.12"/>
</g>
<defs>
<filter id="filter0_d" x="-12" y="2" width="36" height="53" filterUnits="userSpaceOnUse" color-interpolation-filters="sRGB">
<feFlood flood-opacity="0" result="BackgroundImageFix"/>
<feColorMatrix in="SourceAlpha" type="matrix" values="0 0 0 0 0 0 0 0 0 0 0 0 0 0 0 0 0 0 127 0"/>
<feOffset dy="4"/>
<feGaussianBlur stdDeviation="6"/>
<feColorMatrix type="matrix" values="0 0 0 0 0 0 0 0 0 0 0 0 0 0 0 0 0 0 0.16 0"/>
<feBlend mode="normal" in2="BackgroundImageFix" result="effect1_dropShadow"/>
<feBlend mode="normal" in="SourceGraphic" in2="effect1_dropShadow" result="shape"/>
</filter>
<clipPath id="clip0">
<rect width="50" height="20" fill="white" transform="translate(0 50) rotate(-90)"/>
</clipPath>
</defs>
</svg>
