
<svg width="50px" height="20px" viewBox="0 0 50 20" version="1.1" xmlns="http://www.w3.org/2000/svg" xmlns:xlink="http://www.w3.org/1999/xlink">
    <defs>
        <path d="M11.5331722,0 C17.0248234,0 22.7674462,12 25.5057182,12 C28.2439902,12 34.2697482,0 39.4782642,0 C44.9080252,0 6.04152114,2.78289639e-16 11.5331722,0 Z" id="path-1"></path>
        <filter x="-72.4%" y="-141.7%" width="244.8%" height="450.0%" filterUnits="objectBoundingBox" id="filter-2">
            <feMorphology radius="1" operator="dilate" in="SourceAlpha" result="shadowSpreadOuter1"></feMorphology>
            <feOffset dx="0" dy="4" in="shadowSpreadOuter1" result="shadowOffsetOuter1"></feOffset>
            <feGaussianBlur stdDeviation="6" in="shadowOffsetOuter1" result="shadowBlurOuter1"></feGaussianBlur>
            <feComposite in="shadowBlurOuter1" in2="SourceAlpha" operator="out" result="shadowBlurOuter1"></feComposite>
            <feColorMatrix values="0 0 0 0 0   0 0 0 0 0   0 0 0 0 0  0 0 0 0.16 0" type="matrix" in="shadowBlurOuter1"></feColorMatrix>
        </filter>
    </defs>
    <g id="Symbols" stroke="none" stroke-width="1" fill="none" fill-rule="evenodd">
        <g id="tri">
            <g>
                <use fill="black" fill-opacity="1" filter="url(#filter-2)" xlink:href="#path-1"></use>
                <use fill="#1C1C1C" fill-rule="evenodd" xlink:href="#path-1"></use>
                <path stroke-opacity="0.12" stroke="#000000" stroke-width="1" d="M11.5331722,0.5 C11.104967,0.5 11.104967,0.5 11.0016657,0.5 C11.0008807,0.5 11.0008807,0.5 11.0003913,0.5 C11.0002019,0.5 11.0002019,0.5 11.0000861,0.5 L11.0000015,-0.5 C11.0003461,-0.5 11.0003461,-0.5 11.0018594,-0.5 C11.0066313,-0.5 11.0066313,-0.5 11.0160149,-0.5 C11.0416359,-0.5 11.0416359,-0.5 11.0851962,-0.5 C11.1987181,-0.5 11.1987181,-0.5 11.3799384,-0.5 C12.4297841,-0.5 12.4297841,-0.5 14.3463627,-0.5 C19.2198893,-0.5 19.2198893,-0.5 25.4825094,-0.5 C31.7470636,-0.5 31.7470636,-0.5 36.6302605,-0.5 C38.5531248,-0.5 38.5531248,-0.5 39.6111903,-0.5 C39.7946167,-0.5 39.7946167,-0.5 39.9104655,-0.5 C39.9552119,-0.5 39.9552119,-0.5 39.9820493,-0.5 C39.9920467,-0.5 39.9920467,-0.5 39.99744,-0.5 C39.9992654,-0.5 39.9992654,-0.5 39.999924,-0.5 L39.9999969,0.5 C39.9999599,0.5 39.9999599,0.5 39.9998494,0.5 C39.999518,0.5 39.999518,0.5 39.9988917,0.5 C39.9007881,0.5 39.9007881,0.5 39.4782642,0.5 C38.6152952,0.5 37.6560182,0.887150424 36.5925994,1.64483401 C35.2303883,2.61540641 33.832878,4.06015938 31.9497737,6.32007618 C31.5285877,6.82554225 30.0843534,8.59189985 30.142879,8.52074565 C29.447273,9.36644951 28.9470622,9.95368863 28.4802474,10.4628832 C27.2307619,11.8258032 26.3328583,12.5 25.5057182,12.5 C24.6765727,12.5 23.7941166,11.8263195 22.5673812,10.4588874 C22.1132088,9.95262513 21.6314713,9.37470337 20.9400769,8.51689491 C20.7513624,8.2827581 20.0750454,7.43932907 20.0693608,7.4322518 C19.7132988,6.98895583 19.4376506,6.64854781 19.1656062,6.3173782 C16.4794154,3.04737933 14.5353295,1.26218999 12.6583163,0.680575059 C12.2708167,0.560503692 11.8962827,0.5 11.5331722,0.5 Z"></path>
            </g>
        </g>
    </g>
</svg>