<svg width="20" height="50" viewBox="0 0 20 50" fill="none" xmlns="http://www.w3.org/2000/svg">
<g clip-path="url(#clip0)">
<g filter="url(#filter0_d)">
<path d="M20 11.5332C20 17.0248 8 22.7674 8 25.5057C8 28.244 20 34.2697 20 39.4783C20 44.908 20 6.04152 20 11.5332Z" fill="black"/>
</g>
<path d="M20 11.5332C20 17.0248 8 22.7674 8 25.5057C8 28.244 20 34.2697 20 39.4783C20 44.908 20 6.04152 20 11.5332Z" fill="#1C1C1C"/>
<path fill-rule="evenodd" clip-rule="evenodd" d="M19.5 11.5332C19.5 11.105 19.5 11.105 19.5 11.0017C19.5 11.0009 19.5 11.0009 19.5 11.0004C19.5 11.0002 19.5 11.0002 19.5 11.0001L20.5 11C20.5 11.0003 20.5 11.0003 20.5 11.0019C20.5 11.0066 20.5 11.0066 20.5 11.016C20.5 11.0416 20.5 11.0416 20.5 11.0852C20.5 11.1987 20.5 11.1987 20.5 11.3799C20.5 12.4298 20.5 12.4298 20.5 14.3464C20.5 19.2199 20.5 19.2199 20.5 25.4825C20.5 31.7471 20.5 31.7471 20.5 36.6303C20.5 38.5531 20.5 38.5531 20.5 39.6112C20.5 39.7946 20.5 39.7946 20.5 39.9105C20.5 39.9552 20.5 39.9552 20.5 39.982C20.5 39.992 20.5 39.992 20.5 39.9974C20.5 39.9993 20.5 39.9993 20.5 39.9999L19.5 40C19.5 40 19.5 40 19.5 39.9998C19.5 39.9995 19.5 39.9995 19.5 39.9989C19.5 39.9008 19.5 39.9008 19.5 39.4783C19.5 38.6153 19.1128 37.656 18.3552 36.5926C17.3846 35.2304 15.9398 33.8329 13.6799 31.9498C13.1745 31.5286 11.4081 30.0844 11.4793 30.1429C10.6336 29.4473 10.0463 28.9471 9.53712 28.4802C8.1742 27.2308 7.5 26.3329 7.5 25.5057C7.5 24.6766 8.17368 23.7941 9.54111 22.5674C10.0474 22.1132 10.6253 21.6315 11.4831 20.9401C11.7172 20.7514 12.5607 20.075 12.5677 20.0694C13.011 19.7133 13.3515 19.4376 13.6826 19.1656C16.9526 16.4794 18.7378 14.5353 19.3194 12.6583C19.4395 12.2708 19.5 11.8963 19.5 11.5332Z" stroke="black" stroke-opacity="0.12"/>
</g>
<defs>
<filter id="filter0_d" x="-4" y="3" width="36" height="53" filterUnits="userSpaceOnUse" color-interpolation-filters="sRGB">
<feFlood flood-opacity="0" result="BackgroundImageFix"/>
<feColorMatrix in="SourceAlpha" type="matrix" values="0 0 0 0 0 0 0 0 0 0 0 0 0 0 0 0 0 0 127 0"/>
<feOffset dy="4"/>
<feGaussianBlur stdDeviation="6"/>
<feColorMatrix type="matrix" values="0 0 0 0 0 0 0 0 0 0 0 0 0 0 0 0 0 0 0.16 0"/>
<feBlend mode="normal" in2="BackgroundImageFix" result="effect1_dropShadow"/>
<feBlend mode="normal" in="SourceGraphic" in2="effect1_dropShadow" result="shape"/>
</filter>
<clipPath id="clip0">
<rect width="50" height="20" fill="#1C1C1C" transform="translate(20) rotate(90)"/>
</clipPath>
</defs>
</svg>
