<svg width="50" height="20" viewBox="0 0 50 20" fill="none" xmlns="http://www.w3.org/2000/svg">
<g clip-path="url(#clip0)">
<g filter="url(#filter0_d)">
<path d="M38.4668 20C32.9752 20 27.2326 8 24.4943 8C21.756 8 15.7303 20 10.5217 20C5.09198 20 43.9585 20 38.4668 20Z" fill="black"/>
</g>
<path d="M38.4668 20C32.9752 20 27.2326 8 24.4943 8C21.756 8 15.7303 20 10.5217 20C5.09198 20 43.9585 20 38.4668 20Z" fill="#1C1C1C"/>
<path fill-rule="evenodd" clip-rule="evenodd" d="M38.4668 19.5C38.895 19.5 38.895 19.5 38.9983 19.5C38.9991 19.5 38.9991 19.5 38.9996 19.5C38.9998 19.5 38.9998 19.5 38.9999 19.5L39 20.5C38.9997 20.5 38.9997 20.5 38.9981 20.5C38.9934 20.5 38.9934 20.5 38.984 20.5C38.9584 20.5 38.9584 20.5 38.9148 20.5C38.8013 20.5 38.8013 20.5 38.6201 20.5C37.5702 20.5 37.5702 20.5 35.6536 20.5C30.7801 20.5 30.7801 20.5 24.5175 20.5C18.2529 20.5 18.2529 20.5 13.3697 20.5C11.4469 20.5 11.4469 20.5 10.3888 20.5C10.2054 20.5 10.2054 20.5 10.0895 20.5C10.0448 20.5 10.0448 20.5 10.018 20.5C10.008 20.5 10.008 20.5 10.0026 20.5C10.0007 20.5 10.0007 20.5 10.0001 20.5L10 19.5C10 19.5 10 19.5 10.0002 19.5C10.0005 19.5 10.0005 19.5 10.0011 19.5C10.0992 19.5 10.0992 19.5 10.5217 19.5C11.3847 19.5 12.344 19.1129 13.4074 18.3552C14.7696 17.3846 16.1671 15.9398 18.0502 13.6799C18.4714 13.1745 19.9156 11.4081 19.8571 11.4793C20.5527 10.6336 21.0529 10.0463 21.5198 9.53712C22.7692 8.1742 23.6671 7.5 24.4943 7.5C25.3234 7.5 26.2059 8.17368 27.4326 9.54111C27.8868 10.0474 28.3685 10.6253 29.0599 11.4831C29.2486 11.7172 29.925 12.5607 29.9306 12.5677C30.2867 13.011 30.5624 13.3515 30.8344 13.6826C33.5206 16.9526 35.4647 18.7378 37.3417 19.3194C37.7292 19.4395 38.1037 19.5 38.4668 19.5Z" stroke="black" stroke-opacity="0.12"/>
</g>
<defs>
<filter id="filter0_d" x="-2" y="0" width="53" height="36" filterUnits="userSpaceOnUse" color-interpolation-filters="sRGB">
<feFlood flood-opacity="0" result="BackgroundImageFix"/>
<feColorMatrix in="SourceAlpha" type="matrix" values="0 0 0 0 0 0 0 0 0 0 0 0 0 0 0 0 0 0 127 0"/>
<feOffset dy="4"/>
<feGaussianBlur stdDeviation="6"/>
<feColorMatrix type="matrix" values="0 0 0 0 0 0 0 0 0 0 0 0 0 0 0 0 0 0 0.16 0"/>
<feBlend mode="normal" in2="BackgroundImageFix" result="effect1_dropShadow"/>
<feBlend mode="normal" in="SourceGraphic" in2="effect1_dropShadow" result="shape"/>
</filter>
<clipPath id="clip0">
<rect width="50" height="20" fill="#1C1C1C" transform="translate(50 20) rotate(180)"/>
</clipPath>
</defs>
</svg>
