<svg width="16" height="12" viewBox="0 0 16 12" fill="none" xmlns="http://www.w3.org/2000/svg">
<path d="M4.96435 11.6522C2.00175 11.6522 0.993429 7.98789 0.767491 7.27504C0.200102 5.485 0.0276173 3.87257 0.00935804 3.70334C-0.096001 2.72692 0.70471 2.04747 1.5835 2.04747C2.24891 2.04747 3.02116 2.43704 3.12345 3.38219C3.14121 3.54116 3.27648 4.91224 3.75504 6.40618C4.25446 7.96533 4.78427 8.56494 5.1658 8.56494C5.78193 8.56494 6.15787 7.0172 6.49021 5.54348C6.73504 4.45773 6.99972 3.36364 7.52224 2.3918C8.43134 0.701049 9.80505 0.307617 10.9918 0.307617C13.594 0.307617 14.8964 3.25631 14.8964 4.02028C14.8964 5.29698 13.8317 5.62264 13.3703 5.62264C12.3609 5.62264 12.0188 4.96121 11.7308 4.38148C11.4718 3.85992 11.2012 3.42625 10.8514 3.42625C10.7365 3.42625 10.63 3.4832 10.5315 3.58113C9.66213 4.44533 9.37059 8.96636 7.63232 10.6943C6.66862 11.6522 5.6201 11.6522 4.96435 11.6522Z" fill="url(#paint0_linear)"/>
<path d="M4.96435 11.6522C2.00175 11.6522 0.993429 7.98789 0.767491 7.27504C0.200102 5.485 0.0276173 3.87257 0.00935804 3.70334C-0.096001 2.72692 0.70471 2.04747 1.5835 2.04747C2.24891 2.04747 3.02116 2.43704 3.12345 3.38219C3.14121 3.54116 3.27648 4.91224 3.75504 6.40618C4.25446 7.96533 4.78427 8.56494 5.1658 8.56494C5.78193 8.56494 6.15787 7.0172 6.49021 5.54348C6.73504 4.45773 6.99972 3.36364 7.52224 2.3918C8.43134 0.701049 9.80505 0.307617 10.9918 0.307617C13.594 0.307617 14.8964 3.25631 14.8964 4.02028C14.8964 5.29698 13.8317 5.62264 13.3703 5.62264C12.3609 5.62264 12.0188 4.96121 11.7308 4.38148C11.4718 3.85992 11.2012 3.42625 10.8514 3.42625C10.7365 3.42625 10.63 3.4832 10.5315 3.58113C9.66213 4.44533 9.37059 8.96636 7.63232 10.6943C6.66862 11.6522 5.6201 11.6522 4.96435 11.6522Z" fill="url(#paint1_radial)"/>
<path d="M4.96435 11.6522C2.00175 11.6522 0.993429 7.98789 0.767491 7.27504C0.200102 5.485 0.0276173 3.87257 0.00935804 3.70334C-0.096001 2.72692 0.70471 2.04747 1.5835 2.04747C2.24891 2.04747 3.02116 2.43704 3.12345 3.38219C3.14121 3.54116 3.27648 4.91224 3.75504 6.40618C4.25446 7.96533 4.78427 8.56494 5.1658 8.56494C5.78193 8.56494 6.15787 7.0172 6.49021 5.54348C6.73504 4.45773 6.99972 3.36364 7.52224 2.3918C8.43134 0.701049 9.80505 0.307617 10.9918 0.307617C13.594 0.307617 14.8964 3.25631 14.8964 4.02028C14.8964 5.29698 13.8317 5.62264 13.3703 5.62264C12.3609 5.62264 12.0188 4.96121 11.7308 4.38148C11.4718 3.85992 11.2012 3.42625 10.8514 3.42625C10.7365 3.42625 10.63 3.4832 10.5315 3.58113C9.66213 4.44533 9.37059 8.96636 7.63232 10.6943C6.66862 11.6522 5.6201 11.6522 4.96435 11.6522Z" fill="url(#paint2_radial)"/>
<path d="M4.96435 11.6522C2.00175 11.6522 0.993429 7.98789 0.767491 7.27504C0.200102 5.485 0.0276173 3.87257 0.00935804 3.70334C-0.096001 2.72692 0.70471 2.04747 1.5835 2.04747C2.24891 2.04747 3.02116 2.43704 3.12345 3.38219C3.14121 3.54116 3.27648 4.91224 3.75504 6.40618C4.25446 7.96533 4.78427 8.56494 5.1658 8.56494C5.78193 8.56494 6.15787 7.0172 6.49021 5.54348C6.73504 4.45773 6.99972 3.36364 7.52224 2.3918C8.43134 0.701049 9.80505 0.307617 10.9918 0.307617C13.594 0.307617 14.8964 3.25631 14.8964 4.02028C14.8964 5.29698 13.8317 5.62264 13.3703 5.62264C12.3609 5.62264 12.0188 4.96121 11.7308 4.38148C11.4718 3.85992 11.2012 3.42625 10.8514 3.42625C10.7365 3.42625 10.63 3.4832 10.5315 3.58113C9.66213 4.44533 9.37059 8.96636 7.63232 10.6943C6.66862 11.6522 5.6201 11.6522 4.96435 11.6522Z" fill="url(#paint3_radial)"/>
<path d="M4.96435 11.6522C2.00175 11.6522 0.993429 7.98789 0.767491 7.27504C0.200102 5.485 0.0276173 3.87257 0.00935804 3.70334C-0.096001 2.72692 0.70471 2.04747 1.5835 2.04747C2.24891 2.04747 3.02116 2.43704 3.12345 3.38219C3.14121 3.54116 3.27648 4.91224 3.75504 6.40618C4.25446 7.96533 4.78427 8.56494 5.1658 8.56494C5.78193 8.56494 6.15787 7.0172 6.49021 5.54348C6.73504 4.45773 6.99972 3.36364 7.52224 2.3918C8.43134 0.701049 9.80505 0.307617 10.9918 0.307617C13.594 0.307617 14.8964 3.25631 14.8964 4.02028C14.8964 5.29698 13.8317 5.62264 13.3703 5.62264C12.3609 5.62264 12.0188 4.96121 11.7308 4.38148C11.4718 3.85992 11.2012 3.42625 10.8514 3.42625C10.7365 3.42625 10.63 3.4832 10.5315 3.58113C9.66213 4.44533 9.37059 8.96636 7.63232 10.6943C6.66862 11.6522 5.6201 11.6522 4.96435 11.6522Z" fill="url(#paint4_radial)"/>
<path d="M4.96435 11.6522C2.00175 11.6522 0.993429 7.98789 0.767491 7.27504C0.200102 5.485 0.0276173 3.87257 0.00935804 3.70334C-0.096001 2.72692 0.70471 2.04747 1.5835 2.04747C2.24891 2.04747 3.02116 2.43704 3.12345 3.38219C3.14121 3.54116 3.27648 4.91224 3.75504 6.40618C4.25446 7.96533 4.78427 8.56494 5.1658 8.56494C5.78193 8.56494 6.15787 7.0172 6.49021 5.54348C6.73504 4.45773 6.99972 3.36364 7.52224 2.3918C8.43134 0.701049 9.80505 0.307617 10.9918 0.307617C13.594 0.307617 14.8964 3.25631 14.8964 4.02028C14.8964 5.29698 13.8317 5.62264 13.3703 5.62264C12.3609 5.62264 12.0188 4.96121 11.7308 4.38148C11.4718 3.85992 11.2012 3.42625 10.8514 3.42625C10.7365 3.42625 10.63 3.4832 10.5315 3.58113C9.66213 4.44533 9.37059 8.96636 7.63232 10.6943C6.66862 11.6522 5.6201 11.6522 4.96435 11.6522Z" fill="url(#paint5_radial)"/>
<path d="M4.96435 11.6522C2.00175 11.6522 0.993429 7.98789 0.767491 7.27504C0.200102 5.485 0.0276173 3.87257 0.00935804 3.70334C-0.096001 2.72692 0.70471 2.04747 1.5835 2.04747C2.24891 2.04747 3.02116 2.43704 3.12345 3.38219C3.14121 3.54116 3.27648 4.91224 3.75504 6.40618C4.25446 7.96533 4.78427 8.56494 5.1658 8.56494C5.78193 8.56494 6.15787 7.0172 6.49021 5.54348C6.73504 4.45773 6.99972 3.36364 7.52224 2.3918C8.43134 0.701049 9.80505 0.307617 10.9918 0.307617C13.594 0.307617 14.8964 3.25631 14.8964 4.02028C14.8964 5.29698 13.8317 5.62264 13.3703 5.62264C12.3609 5.62264 12.0188 4.96121 11.7308 4.38148C11.4718 3.85992 11.2012 3.42625 10.8514 3.42625C10.7365 3.42625 10.63 3.4832 10.5315 3.58113C9.66213 4.44533 9.37059 8.96636 7.63232 10.6943C6.66862 11.6522 5.6201 11.6522 4.96435 11.6522Z" fill="url(#paint6_radial)"/>
<path d="M4.96435 11.6522C2.00175 11.6522 0.993429 7.98789 0.767491 7.27504C0.200102 5.485 0.0276173 3.87257 0.00935804 3.70334C-0.096001 2.72692 0.70471 2.04747 1.5835 2.04747C2.24891 2.04747 3.02116 2.43704 3.12345 3.38219C3.14121 3.54116 3.27648 4.91224 3.75504 6.40618C4.25446 7.96533 4.78427 8.56494 5.1658 8.56494C5.78193 8.56494 6.15787 7.0172 6.49021 5.54348C6.73504 4.45773 6.99972 3.36364 7.52224 2.3918C8.43134 0.701049 9.80505 0.307617 10.9918 0.307617C13.594 0.307617 14.8964 3.25631 14.8964 4.02028C14.8964 5.29698 13.8317 5.62264 13.3703 5.62264C12.3609 5.62264 12.0188 4.96121 11.7308 4.38148C11.4718 3.85992 11.2012 3.42625 10.8514 3.42625C10.7365 3.42625 10.63 3.4832 10.5315 3.58113C9.66213 4.44533 9.37059 8.96636 7.63232 10.6943C6.66862 11.6522 5.6201 11.6522 4.96435 11.6522Z" fill="url(#paint7_linear)"/>
<path d="M4.96435 11.6522C2.00175 11.6522 0.993429 7.98789 0.767491 7.27504C0.200102 5.485 0.0276173 3.87257 0.00935804 3.70334C-0.096001 2.72692 0.70471 2.04747 1.5835 2.04747C2.24891 2.04747 3.02116 2.43704 3.12345 3.38219C3.14121 3.54116 3.27648 4.91224 3.75504 6.40618C4.25446 7.96533 4.78427 8.56494 5.1658 8.56494C5.78193 8.56494 6.15787 7.0172 6.49021 5.54348C6.73504 4.45773 6.99972 3.36364 7.52224 2.3918C8.43134 0.701049 9.80505 0.307617 10.9918 0.307617C13.594 0.307617 14.8964 3.25631 14.8964 4.02028C14.8964 5.29698 13.8317 5.62264 13.3703 5.62264C12.3609 5.62264 12.0188 4.96121 11.7308 4.38148C11.4718 3.85992 11.2012 3.42625 10.8514 3.42625C10.7365 3.42625 10.63 3.4832 10.5315 3.58113C9.66213 4.44533 9.37059 8.96636 7.63232 10.6943C6.66862 11.6522 5.6201 11.6522 4.96435 11.6522Z" fill="url(#paint8_radial)"/>
<path d="M10.9919 0.307617C9.80513 0.307617 8.43142 0.701051 7.52231 2.3918C6.99978 3.36364 6.73511 4.45773 6.49028 5.54348C6.40967 5.90078 6.3265 6.26237 6.23805 6.60527V11.5177C6.68711 11.3934 7.16954 11.1544 7.6324 10.6943C9.37067 8.96636 9.66221 4.44533 10.5316 3.58113C10.6301 3.4832 10.7366 3.42625 10.8515 3.42625C11.2013 3.42625 11.4719 3.85992 11.7309 4.38148C12.0189 4.96121 12.361 5.62264 13.3703 5.62264C13.8318 5.62264 14.8965 5.29698 14.8965 4.02028C14.8965 3.25631 13.5941 0.307617 10.9919 0.307617Z" fill="url(#paint9_radial)"/>
<path d="M4.96435 11.6522C2.00175 11.6522 0.993429 7.98789 0.767491 7.27504C0.200102 5.485 0.0276173 3.87257 0.00935804 3.70334C-0.096001 2.72692 0.70471 2.04747 1.5835 2.04747C2.24891 2.04747 3.02116 2.43704 3.12345 3.38219C3.14121 3.54116 3.27648 4.91224 3.75504 6.40618C4.25446 7.96533 4.78427 8.56494 5.1658 8.56494C5.78193 8.56494 6.15787 7.0172 6.49021 5.54348C6.73504 4.45773 6.99972 3.36364 7.52224 2.3918C8.43134 0.701049 9.80505 0.307617 10.9918 0.307617C13.594 0.307617 14.8964 3.25631 14.8964 4.02028C14.8964 5.29698 13.8317 5.62264 13.3703 5.62264C12.3609 5.62264 12.0188 4.96121 11.7308 4.38148C11.4718 3.85992 11.2012 3.42625 10.8514 3.42625C10.7365 3.42625 10.63 3.4832 10.5315 3.58113C9.66213 4.44533 9.37059 8.96636 7.63232 10.6943C6.66862 11.6522 5.6201 11.6522 4.96435 11.6522Z" fill="url(#paint10_radial)"/>
<path d="M4.96435 11.6522C2.00175 11.6522 0.993429 7.98789 0.767491 7.27504C0.200102 5.485 0.0276173 3.87257 0.00935804 3.70334C-0.096001 2.72692 0.70471 2.04747 1.5835 2.04747C2.24891 2.04747 3.02116 2.43704 3.12345 3.38219C3.14121 3.54116 3.27648 4.91224 3.75504 6.40618C4.25446 7.96533 4.78427 8.56494 5.1658 8.56494C5.78193 8.56494 6.15787 7.0172 6.49021 5.54348C6.73504 4.45773 6.99972 3.36364 7.52224 2.3918C8.43134 0.701049 9.80505 0.307617 10.9918 0.307617C13.594 0.307617 14.8964 3.25631 14.8964 4.02028C14.8964 5.29698 13.8317 5.62264 13.3703 5.62264C12.3609 5.62264 12.0188 4.96121 11.7308 4.38148C11.4718 3.85992 11.2012 3.42625 10.8514 3.42625C10.7365 3.42625 10.63 3.4832 10.5315 3.58113C9.66213 4.44533 9.37059 8.96636 7.63232 10.6943C6.66862 11.6522 5.6201 11.6522 4.96435 11.6522Z" fill="url(#paint11_radial)"/>
<path d="M4.96435 11.6522C2.00175 11.6522 0.993429 7.98789 0.767491 7.27504C0.200102 5.485 0.0276173 3.87257 0.00935804 3.70334C-0.096001 2.72692 0.70471 2.04747 1.5835 2.04747C2.24891 2.04747 3.02116 2.43704 3.12345 3.38219C3.14121 3.54116 3.27648 4.91224 3.75504 6.40618C4.25446 7.96533 4.78427 8.56494 5.1658 8.56494C5.78193 8.56494 6.15787 7.0172 6.49021 5.54348C6.73504 4.45773 6.99972 3.36364 7.52224 2.3918C8.43134 0.701049 9.80505 0.307617 10.9918 0.307617C13.594 0.307617 14.8964 3.25631 14.8964 4.02028C14.8964 5.29698 13.8317 5.62264 13.3703 5.62264C12.3609 5.62264 12.0188 4.96121 11.7308 4.38148C11.4718 3.85992 11.2012 3.42625 10.8514 3.42625C10.7365 3.42625 10.63 3.4832 10.5315 3.58113C9.66213 4.44533 9.37059 8.96636 7.63232 10.6943C6.66862 11.6522 5.6201 11.6522 4.96435 11.6522Z" fill="url(#paint12_radial)"/>
<path d="M4.96435 11.6522C2.00175 11.6522 0.993429 7.98789 0.767491 7.27504C0.200102 5.485 0.0276173 3.87257 0.00935804 3.70334C-0.096001 2.72692 0.70471 2.04747 1.5835 2.04747C2.24891 2.04747 3.02116 2.43704 3.12345 3.38219C3.14121 3.54116 3.27648 4.91224 3.75504 6.40618C4.25446 7.96533 4.78427 8.56494 5.1658 8.56494C5.78193 8.56494 6.15787 7.0172 6.49021 5.54348C6.73504 4.45773 6.99972 3.36364 7.52224 2.3918C8.43134 0.701049 9.80505 0.307617 10.9918 0.307617C13.594 0.307617 14.8964 3.25631 14.8964 4.02028C14.8964 5.29698 13.8317 5.62264 13.3703 5.62264C12.3609 5.62264 12.0188 4.96121 11.7308 4.38148C11.4718 3.85992 11.2012 3.42625 10.8514 3.42625C10.7365 3.42625 10.63 3.4832 10.5315 3.58113C9.66213 4.44533 9.37059 8.96636 7.63232 10.6943C6.66862 11.6522 5.6201 11.6522 4.96435 11.6522Z" fill="url(#paint13_radial)"/>
<path d="M4.96435 11.6522C2.00175 11.6522 0.993429 7.98789 0.767491 7.27504C0.200102 5.485 0.0276173 3.87257 0.00935804 3.70334C-0.096001 2.72692 0.70471 2.04747 1.5835 2.04747C2.24891 2.04747 3.02116 2.43704 3.12345 3.38219C3.14121 3.54116 3.27648 4.91224 3.75504 6.40618C4.25446 7.96533 4.78427 8.56494 5.1658 8.56494C5.78193 8.56494 6.15787 7.0172 6.49021 5.54348C6.73504 4.45773 6.99972 3.36364 7.52224 2.3918C8.43134 0.701049 9.80505 0.307617 10.9918 0.307617C13.594 0.307617 14.8964 3.25631 14.8964 4.02028C14.8964 5.29698 13.8317 5.62264 13.3703 5.62264C12.3609 5.62264 12.0188 4.96121 11.7308 4.38148C11.4718 3.85992 11.2012 3.42625 10.8514 3.42625C10.7365 3.42625 10.63 3.4832 10.5315 3.58113C9.66213 4.44533 9.37059 8.96636 7.63232 10.6943C6.66862 11.6522 5.6201 11.6522 4.96435 11.6522Z" fill="url(#paint14_radial)"/>
<path d="M14.4169 2.04747C14.2996 2.04747 14.1816 2.0583 14.0659 2.08058C14.616 2.85636 14.8912 3.66905 14.8912 4.02019C14.8912 5.29691 13.8265 5.62257 13.3651 5.62257C13.0049 5.62257 12.7298 5.53832 12.5117 5.40367C12.5097 5.41164 12.5077 5.41958 12.5056 5.42757C12.4408 5.68096 12.3896 5.95828 12.301 6.22815C12.1306 6.74705 11.9008 7.33978 11.6554 7.79843C11.3909 8.29289 11.129 8.58219 10.8168 8.56701C10.4618 8.54977 10.174 8.10225 9.8163 6.83744C9.70092 6.42964 9.59411 5.98252 9.49511 5.54348C9.24955 4.45451 8.94814 3.35946 8.43277 2.3918C7.59099 0.811351 6.15502 0.307617 5.00863 0.307617C3.94548 0.307617 3.15117 0.799914 2.5272 1.42016C2.35477 1.59158 2.16641 1.82251 1.97723 2.0939C2.52146 2.22213 3.03606 2.62278 3.11824 3.3821C3.13442 3.52687 3.24804 4.67676 3.62959 6.00927C3.73908 5.67517 3.89871 5.18043 4.26958 4.38148C4.45134 4.01558 4.61535 3.77431 4.76335 3.62721C4.89907 3.49229 5.02131 3.43657 5.13134 3.43657C5.25003 3.43657 5.65527 3.54282 6.04979 4.89683C6.53907 6.5758 6.90319 9.24788 8.29046 10.6666C8.90234 11.2925 9.75861 11.6974 10.9453 11.6974C11.9866 11.6974 12.8548 11.2488 13.4737 10.6249C14.4914 9.59896 15.0491 7.90272 15.248 7.27504C15.8141 5.48929 15.9726 3.87422 15.9911 3.70334C16.0964 2.72692 15.2554 2.04747 14.4169 2.04747Z" fill="#316AFF"/>
<path d="M14.4169 2.04747C14.2996 2.04747 14.1816 2.0583 14.0659 2.08058C14.616 2.85636 14.8912 3.66905 14.8912 4.02019C14.8912 5.29691 13.8265 5.62257 13.3651 5.62257C13.0049 5.62257 12.7298 5.53832 12.5117 5.40367C12.5097 5.41164 12.5077 5.41958 12.5056 5.42757C12.4408 5.68096 12.3896 5.95828 12.301 6.22815C12.1306 6.74705 11.9008 7.33978 11.6554 7.79843C11.3909 8.29289 11.129 8.58219 10.8168 8.56701C10.4618 8.54977 10.174 8.10225 9.8163 6.83744C9.70092 6.42964 9.59411 5.98252 9.49511 5.54348C9.24955 4.45451 8.94814 3.35946 8.43277 2.3918C7.59099 0.811351 6.15502 0.307617 5.00863 0.307617C3.94548 0.307617 3.15117 0.799914 2.5272 1.42016C2.35477 1.59158 2.16641 1.82251 1.97723 2.0939C2.52146 2.22213 3.03606 2.62278 3.11824 3.3821C3.13442 3.52687 3.24804 4.67676 3.62959 6.00927C3.73908 5.67517 3.89871 5.18043 4.26958 4.38148C4.45134 4.01558 4.61535 3.77431 4.76335 3.62721C4.89907 3.49229 5.02131 3.43657 5.13134 3.43657C5.25003 3.43657 5.65527 3.54282 6.04979 4.89683C6.53907 6.5758 6.90319 9.24788 8.29046 10.6666C8.90234 11.2925 9.75861 11.6974 10.9453 11.6974C11.9866 11.6974 12.8548 11.2488 13.4737 10.6249C14.4914 9.59896 15.0491 7.90272 15.248 7.27504C15.8141 5.48929 15.9726 3.87422 15.9911 3.70334C16.0964 2.72692 15.2554 2.04747 14.4169 2.04747Z" fill="url(#paint15_radial)"/>
<path d="M14.4169 2.04747C14.2996 2.04747 14.1816 2.0583 14.0659 2.08058C14.616 2.85636 14.8912 3.66905 14.8912 4.02019C14.8912 5.29691 13.8265 5.62257 13.3651 5.62257C13.0049 5.62257 12.7298 5.53832 12.5117 5.40367C12.5097 5.41164 12.5077 5.41958 12.5056 5.42757C12.4408 5.68096 12.3896 5.95828 12.301 6.22815C12.1306 6.74705 11.9008 7.33978 11.6554 7.79843C11.3909 8.29289 11.129 8.58219 10.8168 8.56701C10.4618 8.54977 10.174 8.10225 9.8163 6.83744C9.70092 6.42964 9.59411 5.98252 9.49511 5.54348C9.24955 4.45451 8.94814 3.35946 8.43277 2.3918C7.59099 0.811351 6.15502 0.307617 5.00863 0.307617C3.94548 0.307617 3.15117 0.799914 2.5272 1.42016C2.35477 1.59158 2.16641 1.82251 1.97723 2.0939C2.52146 2.22213 3.03606 2.62278 3.11824 3.3821C3.13442 3.52687 3.24804 4.67676 3.62959 6.00927C3.73908 5.67517 3.89871 5.18043 4.26958 4.38148C4.45134 4.01558 4.61535 3.77431 4.76335 3.62721C4.89907 3.49229 5.02131 3.43657 5.13134 3.43657C5.25003 3.43657 5.65527 3.54282 6.04979 4.89683C6.53907 6.5758 6.90319 9.24788 8.29046 10.6666C8.90234 11.2925 9.75861 11.6974 10.9453 11.6974C11.9866 11.6974 12.8548 11.2488 13.4737 10.6249C14.4914 9.59896 15.0491 7.90272 15.248 7.27504C15.8141 5.48929 15.9726 3.87422 15.9911 3.70334C16.0964 2.72692 15.2554 2.04747 14.4169 2.04747Z" fill="url(#paint16_radial)"/>
<path d="M14.4169 2.04747C14.2996 2.04747 14.1816 2.0583 14.0659 2.08058C14.616 2.85636 14.8912 3.66905 14.8912 4.02019C14.8912 5.29691 13.8265 5.62257 13.3651 5.62257C13.0049 5.62257 12.7298 5.53832 12.5117 5.40367C12.5097 5.41164 12.5077 5.41958 12.5056 5.42757C12.4408 5.68096 12.3896 5.95828 12.301 6.22815C12.1306 6.74705 11.9008 7.33978 11.6554 7.79843C11.3909 8.29289 11.129 8.58219 10.8168 8.56701C10.4618 8.54977 10.174 8.10225 9.8163 6.83744C9.70092 6.42964 9.59411 5.98252 9.49511 5.54348C9.24955 4.45451 8.94814 3.35946 8.43277 2.3918C7.59099 0.811351 6.15502 0.307617 5.00863 0.307617C3.94548 0.307617 3.15117 0.799914 2.5272 1.42016C2.35477 1.59158 2.16641 1.82251 1.97723 2.0939C2.52146 2.22213 3.03606 2.62278 3.11824 3.3821C3.13442 3.52687 3.24804 4.67676 3.62959 6.00927C3.73908 5.67517 3.89871 5.18043 4.26958 4.38148C4.45134 4.01558 4.61535 3.77431 4.76335 3.62721C4.89907 3.49229 5.02131 3.43657 5.13134 3.43657C5.25003 3.43657 5.65527 3.54282 6.04979 4.89683C6.53907 6.5758 6.90319 9.24788 8.29046 10.6666C8.90234 11.2925 9.75861 11.6974 10.9453 11.6974C11.9866 11.6974 12.8548 11.2488 13.4737 10.6249C14.4914 9.59896 15.0491 7.90272 15.248 7.27504C15.8141 5.48929 15.9726 3.87422 15.9911 3.70334C16.0964 2.72692 15.2554 2.04747 14.4169 2.04747Z" fill="url(#paint17_radial)"/>
<path d="M14.4169 2.04747C14.2996 2.04747 14.1816 2.0583 14.0659 2.08058C14.616 2.85636 14.8912 3.66905 14.8912 4.02019C14.8912 5.29691 13.8265 5.62257 13.3651 5.62257C13.0049 5.62257 12.7298 5.53832 12.5117 5.40367C12.5097 5.41164 12.5077 5.41958 12.5056 5.42757C12.4408 5.68096 12.3896 5.95828 12.301 6.22815C12.1306 6.74705 11.9008 7.33978 11.6554 7.79843C11.3909 8.29289 11.129 8.58219 10.8168 8.56701C10.4618 8.54977 10.174 8.10225 9.8163 6.83744C9.70092 6.42964 9.59411 5.98252 9.49511 5.54348C9.24955 4.45451 8.94814 3.35946 8.43277 2.3918C7.59099 0.811351 6.15502 0.307617 5.00863 0.307617C3.94548 0.307617 3.15117 0.799914 2.5272 1.42016C2.35477 1.59158 2.16641 1.82251 1.97723 2.0939C2.52146 2.22213 3.03606 2.62278 3.11824 3.3821C3.13442 3.52687 3.24804 4.67676 3.62959 6.00927C3.73908 5.67517 3.89871 5.18043 4.26958 4.38148C4.45134 4.01558 4.61535 3.77431 4.76335 3.62721C4.89907 3.49229 5.02131 3.43657 5.13134 3.43657C5.25003 3.43657 5.65527 3.54282 6.04979 4.89683C6.53907 6.5758 6.90319 9.24788 8.29046 10.6666C8.90234 11.2925 9.75861 11.6974 10.9453 11.6974C11.9866 11.6974 12.8548 11.2488 13.4737 10.6249C14.4914 9.59896 15.0491 7.90272 15.248 7.27504C15.8141 5.48929 15.9726 3.87422 15.9911 3.70334C16.0964 2.72692 15.2554 2.04747 14.4169 2.04747Z" fill="url(#paint18_radial)"/>
<path d="M14.4169 2.04747C14.2996 2.04747 14.1816 2.0583 14.0659 2.08058C14.616 2.85636 14.8912 3.66905 14.8912 4.02019C14.8912 5.29691 13.8265 5.62257 13.3651 5.62257C13.0049 5.62257 12.7298 5.53832 12.5117 5.40367C12.5097 5.41164 12.5077 5.41958 12.5056 5.42757C12.4408 5.68096 12.3896 5.95828 12.301 6.22815C12.1306 6.74705 11.9008 7.33978 11.6554 7.79843C11.3909 8.29289 11.129 8.58219 10.8168 8.56701C10.4618 8.54977 10.174 8.10225 9.8163 6.83744C9.70092 6.42964 9.59411 5.98252 9.49511 5.54348C9.24955 4.45451 8.94814 3.35946 8.43277 2.3918C7.59099 0.811351 6.15502 0.307617 5.00863 0.307617C3.94548 0.307617 3.15117 0.799914 2.5272 1.42016C2.35477 1.59158 2.16641 1.82251 1.97723 2.0939C2.52146 2.22213 3.03606 2.62278 3.11824 3.3821C3.13442 3.52687 3.24804 4.67676 3.62959 6.00927C3.73908 5.67517 3.89871 5.18043 4.26958 4.38148C4.45134 4.01558 4.61535 3.77431 4.76335 3.62721C4.89907 3.49229 5.02131 3.43657 5.13134 3.43657C5.25003 3.43657 5.65527 3.54282 6.04979 4.89683C6.53907 6.5758 6.90319 9.24788 8.29046 10.6666C8.90234 11.2925 9.75861 11.6974 10.9453 11.6974C11.9866 11.6974 12.8548 11.2488 13.4737 10.6249C14.4914 9.59896 15.0491 7.90272 15.248 7.27504C15.8141 5.48929 15.9726 3.87422 15.9911 3.70334C16.0964 2.72692 15.2554 2.04747 14.4169 2.04747Z" fill="url(#paint19_radial)"/>
<path d="M14.4169 2.04747C14.2996 2.04747 14.1816 2.0583 14.0659 2.08058C14.616 2.85636 14.8912 3.66905 14.8912 4.02019C14.8912 5.29691 13.8265 5.62257 13.3651 5.62257C13.0049 5.62257 12.7298 5.53832 12.5117 5.40367C12.5097 5.41164 12.5077 5.41958 12.5056 5.42757C12.4408 5.68096 12.3896 5.95828 12.301 6.22815C12.1306 6.74705 11.9008 7.33978 11.6554 7.79843C11.3909 8.29289 11.129 8.58219 10.8168 8.56701C10.4618 8.54977 10.174 8.10225 9.8163 6.83744C9.70092 6.42964 9.59411 5.98252 9.49511 5.54348C9.24955 4.45451 8.94814 3.35946 8.43277 2.3918C7.59099 0.811351 6.15502 0.307617 5.00863 0.307617C3.94548 0.307617 3.15117 0.799914 2.5272 1.42016C2.35477 1.59158 2.16641 1.82251 1.97723 2.0939C2.52146 2.22213 3.03606 2.62278 3.11824 3.3821C3.13442 3.52687 3.24804 4.67676 3.62959 6.00927C3.73908 5.67517 3.89871 5.18043 4.26958 4.38148C4.45134 4.01558 4.61535 3.77431 4.76335 3.62721C4.89907 3.49229 5.02131 3.43657 5.13134 3.43657C5.25003 3.43657 5.65527 3.54282 6.04979 4.89683C6.53907 6.5758 6.90319 9.24788 8.29046 10.6666C8.90234 11.2925 9.75861 11.6974 10.9453 11.6974C11.9866 11.6974 12.8548 11.2488 13.4737 10.6249C14.4914 9.59896 15.0491 7.90272 15.248 7.27504C15.8141 5.48929 15.9726 3.87422 15.9911 3.70334C16.0964 2.72692 15.2554 2.04747 14.4169 2.04747Z" fill="url(#paint20_radial)"/>
<path d="M14.4169 2.04747C14.2996 2.04747 14.1816 2.0583 14.0659 2.08058C14.616 2.85636 14.8912 3.66905 14.8912 4.02019C14.8912 5.29691 13.8265 5.62257 13.3651 5.62257C13.0049 5.62257 12.7298 5.53832 12.5117 5.40367C12.5097 5.41164 12.5077 5.41958 12.5056 5.42757C12.4408 5.68096 12.3896 5.95828 12.301 6.22815C12.1306 6.74705 11.9008 7.33978 11.6554 7.79843C11.3909 8.29289 11.129 8.58219 10.8168 8.56701C10.4618 8.54977 10.174 8.10225 9.8163 6.83744C9.70092 6.42964 9.59411 5.98252 9.49511 5.54348C9.24955 4.45451 8.94814 3.35946 8.43277 2.3918C7.59099 0.811351 6.15502 0.307617 5.00863 0.307617C3.94548 0.307617 3.15117 0.799914 2.5272 1.42016C2.35477 1.59158 2.16641 1.82251 1.97723 2.0939C2.52146 2.22213 3.03606 2.62278 3.11824 3.3821C3.13442 3.52687 3.24804 4.67676 3.62959 6.00927C3.73908 5.67517 3.89871 5.18043 4.26958 4.38148C4.45134 4.01558 4.61535 3.77431 4.76335 3.62721C4.89907 3.49229 5.02131 3.43657 5.13134 3.43657C5.25003 3.43657 5.65527 3.54282 6.04979 4.89683C6.53907 6.5758 6.90319 9.24788 8.29046 10.6666C8.90234 11.2925 9.75861 11.6974 10.9453 11.6974C11.9866 11.6974 12.8548 11.2488 13.4737 10.6249C14.4914 9.59896 15.0491 7.90272 15.248 7.27504C15.8141 5.48929 15.9726 3.87422 15.9911 3.70334C16.0964 2.72692 15.2554 2.04747 14.4169 2.04747Z" fill="url(#paint21_radial)"/>
<path d="M14.4169 2.04747C14.2996 2.04747 14.1816 2.0583 14.0659 2.08058C14.616 2.85636 14.8912 3.66905 14.8912 4.02019C14.8912 5.29691 13.8265 5.62257 13.3651 5.62257C13.0049 5.62257 12.7298 5.53832 12.5117 5.40367C12.5097 5.41164 12.5077 5.41958 12.5056 5.42757C12.4408 5.68096 12.3896 5.95828 12.301 6.22815C12.1306 6.74705 11.9008 7.33978 11.6554 7.79843C11.3909 8.29289 11.129 8.58219 10.8168 8.56701C10.4618 8.54977 10.174 8.10225 9.8163 6.83744C9.70092 6.42964 9.59411 5.98252 9.49511 5.54348C9.24955 4.45451 8.94814 3.35946 8.43277 2.3918C7.59099 0.811351 6.15502 0.307617 5.00863 0.307617C3.94548 0.307617 3.15117 0.799914 2.5272 1.42016C2.35477 1.59158 2.16641 1.82251 1.97723 2.0939C2.52146 2.22213 3.03606 2.62278 3.11824 3.3821C3.13442 3.52687 3.24804 4.67676 3.62959 6.00927C3.73908 5.67517 3.89871 5.18043 4.26958 4.38148C4.45134 4.01558 4.61535 3.77431 4.76335 3.62721C4.89907 3.49229 5.02131 3.43657 5.13134 3.43657C5.25003 3.43657 5.65527 3.54282 6.04979 4.89683C6.53907 6.5758 6.90319 9.24788 8.29046 10.6666C8.90234 11.2925 9.75861 11.6974 10.9453 11.6974C11.9866 11.6974 12.8548 11.2488 13.4737 10.6249C14.4914 9.59896 15.0491 7.90272 15.248 7.27504C15.8141 5.48929 15.9726 3.87422 15.9911 3.70334C16.0964 2.72692 15.2554 2.04747 14.4169 2.04747Z" fill="url(#paint22_radial)"/>
<path d="M14.4169 2.04747C14.2996 2.04747 14.1816 2.0583 14.0659 2.08058C14.616 2.85636 14.8912 3.66905 14.8912 4.02019C14.8912 5.29691 13.8265 5.62257 13.3651 5.62257C13.0049 5.62257 12.7298 5.53832 12.5117 5.40367C12.5097 5.41164 12.5077 5.41958 12.5056 5.42757C12.4408 5.68096 12.3896 5.95828 12.301 6.22815C12.1306 6.74705 11.9008 7.33978 11.6554 7.79843C11.3909 8.29289 11.129 8.58219 10.8168 8.56701C10.4618 8.54977 10.174 8.10225 9.8163 6.83744C9.70092 6.42964 9.59411 5.98252 9.49511 5.54348C9.24955 4.45451 8.94814 3.35946 8.43277 2.3918C7.59099 0.811351 6.15502 0.307617 5.00863 0.307617C3.94548 0.307617 3.15117 0.799914 2.5272 1.42016C2.35477 1.59158 2.16641 1.82251 1.97723 2.0939C2.52146 2.22213 3.03606 2.62278 3.11824 3.3821C3.13442 3.52687 3.24804 4.67676 3.62959 6.00927C3.73908 5.67517 3.89871 5.18043 4.26958 4.38148C4.45134 4.01558 4.61535 3.77431 4.76335 3.62721C4.89907 3.49229 5.02131 3.43657 5.13134 3.43657C5.25003 3.43657 5.65527 3.54282 6.04979 4.89683C6.53907 6.5758 6.90319 9.24788 8.29046 10.6666C8.90234 11.2925 9.75861 11.6974 10.9453 11.6974C11.9866 11.6974 12.8548 11.2488 13.4737 10.6249C14.4914 9.59896 15.0491 7.90272 15.248 7.27504C15.8141 5.48929 15.9726 3.87422 15.9911 3.70334C16.0964 2.72692 15.2554 2.04747 14.4169 2.04747Z" fill="url(#paint23_radial)"/>
<path d="M14.4169 2.04747C14.2996 2.04747 14.1816 2.0583 14.0659 2.08058C14.616 2.85636 14.8912 3.66905 14.8912 4.02019C14.8912 5.29691 13.8265 5.62257 13.3651 5.62257C13.0049 5.62257 12.7298 5.53832 12.5117 5.40367C12.5097 5.41164 12.5077 5.41958 12.5056 5.42757C12.4408 5.68096 12.3896 5.95828 12.301 6.22815C12.1306 6.74705 11.9008 7.33978 11.6554 7.79843C11.3909 8.29289 11.129 8.58219 10.8168 8.56701C10.4618 8.54977 10.174 8.10225 9.8163 6.83744C9.70092 6.42964 9.59411 5.98252 9.49511 5.54348C9.24955 4.45451 8.94814 3.35946 8.43277 2.3918C7.59099 0.811351 6.15502 0.307617 5.00863 0.307617C3.94548 0.307617 3.15117 0.799914 2.5272 1.42016C2.35477 1.59158 2.16641 1.82251 1.97723 2.0939C2.52146 2.22213 3.03606 2.62278 3.11824 3.3821C3.13442 3.52687 3.24804 4.67676 3.62959 6.00927C3.73908 5.67517 3.89871 5.18043 4.26958 4.38148C4.45134 4.01558 4.61535 3.77431 4.76335 3.62721C4.89907 3.49229 5.02131 3.43657 5.13134 3.43657C5.25003 3.43657 5.65527 3.54282 6.04979 4.89683C6.53907 6.5758 6.90319 9.24788 8.29046 10.6666C8.90234 11.2925 9.75861 11.6974 10.9453 11.6974C11.9866 11.6974 12.8548 11.2488 13.4737 10.6249C14.4914 9.59896 15.0491 7.90272 15.248 7.27504C15.8141 5.48929 15.9726 3.87422 15.9911 3.70334C16.0964 2.72692 15.2554 2.04747 14.4169 2.04747Z" fill="url(#paint24_radial)"/>
<path d="M4.96435 11.6522C2.00175 11.6522 0.993429 7.98789 0.767491 7.27504C0.200102 5.485 0.0276173 3.87257 0.00935804 3.70334C-0.096001 2.72692 0.70471 2.04747 1.5835 2.04747C2.24891 2.04747 3.02116 2.43704 3.12345 3.38219C3.14123 3.54116 3.27648 4.91224 3.75504 6.40618C4.25446 7.96533 4.78427 8.56494 5.1658 8.56494C5.78193 8.56494 6.15787 7.0172 6.49021 5.54348C6.73504 4.45773 6.99972 3.36364 7.52224 2.3918C8.43134 0.701049 9.80505 0.307617 10.9918 0.307617C13.594 0.307617 14.8964 3.25631 14.8964 4.02028C14.8964 5.29698 13.8317 5.62264 13.3703 5.62264C12.3609 5.62264 12.0188 4.96121 11.7308 4.38148C11.4718 3.85992 11.2012 3.42625 10.8514 3.42625C10.7365 3.42625 10.63 3.4832 10.5315 3.58113C9.66213 4.44533 9.37059 8.96636 7.63232 10.6943C6.66862 11.6522 5.6201 11.6522 4.96435 11.6522Z" fill="url(#paint25_linear)"/>
<path d="M4.96435 11.6522C2.00175 11.6522 0.993429 7.98789 0.767491 7.27504C0.200102 5.485 0.0276173 3.87257 0.00935804 3.70334C-0.096001 2.72692 0.70471 2.04747 1.5835 2.04747C2.24891 2.04747 3.02116 2.43704 3.12345 3.38219C3.14123 3.54116 3.27648 4.91224 3.75504 6.40618C4.25446 7.96533 4.78427 8.56494 5.1658 8.56494C5.78193 8.56494 6.15787 7.0172 6.49021 5.54348C6.73504 4.45773 6.99972 3.36364 7.52224 2.3918C8.43134 0.701049 9.80505 0.307617 10.9918 0.307617C13.594 0.307617 14.8964 3.25631 14.8964 4.02028C14.8964 5.29698 13.8317 5.62264 13.3703 5.62264C12.3609 5.62264 12.0188 4.96121 11.7308 4.38148C11.4718 3.85992 11.2012 3.42625 10.8514 3.42625C10.7365 3.42625 10.63 3.4832 10.5315 3.58113C9.66213 4.44533 9.37059 8.96636 7.63232 10.6943C6.66862 11.6522 5.6201 11.6522 4.96435 11.6522Z" fill="url(#paint26_radial)"/>
<path d="M4.96435 11.6522C2.00175 11.6522 0.993429 7.98789 0.767491 7.27504C0.200102 5.485 0.0276173 3.87257 0.00935804 3.70334C-0.096001 2.72692 0.70471 2.04747 1.5835 2.04747C2.24891 2.04747 3.02116 2.43704 3.12345 3.38219C3.14123 3.54116 3.27648 4.91224 3.75504 6.40618C4.25446 7.96533 4.78427 8.56494 5.1658 8.56494C5.78193 8.56494 6.15787 7.0172 6.49021 5.54348C6.73504 4.45773 6.99972 3.36364 7.52224 2.3918C8.43134 0.701049 9.80505 0.307617 10.9918 0.307617C13.594 0.307617 14.8964 3.25631 14.8964 4.02028C14.8964 5.29698 13.8317 5.62264 13.3703 5.62264C12.3609 5.62264 12.0188 4.96121 11.7308 4.38148C11.4718 3.85992 11.2012 3.42625 10.8514 3.42625C10.7365 3.42625 10.63 3.4832 10.5315 3.58113C9.66213 4.44533 9.37059 8.96636 7.63232 10.6943C6.66862 11.6522 5.6201 11.6522 4.96435 11.6522Z" fill="url(#paint27_linear)"/>
<path d="M4.96435 11.6522C2.00175 11.6522 0.993429 7.98789 0.767491 7.27504C0.200102 5.485 0.0276173 3.87257 0.00935804 3.70334C-0.096001 2.72692 0.70471 2.04747 1.5835 2.04747C2.24891 2.04747 3.02116 2.43704 3.12345 3.38219C3.14123 3.54116 3.27648 4.91224 3.75504 6.40618C4.25446 7.96533 4.78427 8.56494 5.1658 8.56494C5.78193 8.56494 6.15787 7.0172 6.49021 5.54348C6.73504 4.45773 6.99972 3.36364 7.52224 2.3918C8.43134 0.701049 9.80505 0.307617 10.9918 0.307617C13.594 0.307617 14.8964 3.25631 14.8964 4.02028C14.8964 5.29698 13.8317 5.62264 13.3703 5.62264C12.3609 5.62264 12.0188 4.96121 11.7308 4.38148C11.4718 3.85992 11.2012 3.42625 10.8514 3.42625C10.7365 3.42625 10.63 3.4832 10.5315 3.58113C9.66213 4.44533 9.37059 8.96636 7.63232 10.6943C6.66862 11.6522 5.6201 11.6522 4.96435 11.6522Z" fill="url(#paint28_linear)"/>
<path d="M4.96435 11.6522C2.00175 11.6522 0.993429 7.98789 0.767491 7.27504C0.200102 5.485 0.0276173 3.87257 0.00935804 3.70334C-0.096001 2.72692 0.70471 2.04747 1.5835 2.04747C2.24891 2.04747 3.02116 2.43704 3.12345 3.38219C3.14123 3.54116 3.27648 4.91224 3.75504 6.40618C4.25446 7.96533 4.78427 8.56494 5.1658 8.56494C5.78193 8.56494 6.15787 7.0172 6.49021 5.54348C6.73504 4.45773 6.99972 3.36364 7.52224 2.3918C8.43134 0.701049 9.80505 0.307617 10.9918 0.307617C13.594 0.307617 14.8964 3.25631 14.8964 4.02028C14.8964 5.29698 13.8317 5.62264 13.3703 5.62264C12.3609 5.62264 12.0188 4.96121 11.7308 4.38148C11.4718 3.85992 11.2012 3.42625 10.8514 3.42625C10.7365 3.42625 10.63 3.4832 10.5315 3.58113C9.66213 4.44533 9.37059 8.96636 7.63232 10.6943C6.66862 11.6522 5.6201 11.6522 4.96435 11.6522Z" fill="url(#paint29_radial)"/>
<defs>
<linearGradient id="paint0_linear" x1="13.2754" y1="3.63613" x2="2.85579" y2="7.13007" gradientUnits="userSpaceOnUse">
<stop stop-color="#5CEE64"/>
<stop offset="1" stop-color="#00BBFF"/>
</linearGradient>
<radialGradient id="paint1_radial" cx="0" cy="0" r="1" gradientUnits="userSpaceOnUse" gradientTransform="translate(6.08987 6.35747) rotate(-121.424) scale(6.74533 5.72149)">
<stop stop-color="#007383"/>
<stop offset="0.407867" stop-color="#00717E" stop-opacity="0.75"/>
<stop offset="0.874482" stop-color="#007281" stop-opacity="0"/>
</radialGradient>
<radialGradient id="paint2_radial" cx="0" cy="0" r="1" gradientUnits="userSpaceOnUse" gradientTransform="translate(10.5945 5.1098) rotate(-127.347) scale(5.51276 3.64433)">
<stop stop-color="#218970"/>
<stop offset="0.459527" stop-color="#267E6A"/>
<stop offset="1" stop-color="#026C51" stop-opacity="0"/>
</radialGradient>
<radialGradient id="paint3_radial" cx="0" cy="0" r="1" gradientUnits="userSpaceOnUse" gradientTransform="translate(5.69506 6.67427) rotate(-107.836) scale(4.46288 2.3676)">
<stop stop-color="#178697"/>
<stop offset="0.407867" stop-color="#17838F" stop-opacity="0.79"/>
<stop offset="0.874482" stop-color="#007281" stop-opacity="0"/>
</radialGradient>
<radialGradient id="paint4_radial" cx="0" cy="0" r="1" gradientUnits="userSpaceOnUse" gradientTransform="translate(7.71969 6.65053) rotate(-121.424) scale(11.3777 3.54609)">
<stop stop-color="#25342F" stop-opacity="0.3"/>
<stop offset="1" stop-color="#25342F" stop-opacity="0"/>
</radialGradient>
<radialGradient id="paint5_radial" cx="0" cy="0" r="1" gradientUnits="userSpaceOnUse" gradientTransform="translate(9.78254 5.23382) rotate(84.9882) scale(4.26046 2.46998)">
<stop stop-color="#056D4F"/>
<stop offset="0.232593" stop-color="#056C4E" stop-opacity="0.75"/>
<stop offset="0.598902" stop-color="#056C4E" stop-opacity="0.300824"/>
<stop offset="0.874482" stop-color="#056C4F" stop-opacity="0"/>
</radialGradient>
<radialGradient id="paint6_radial" cx="0" cy="0" r="1" gradientUnits="userSpaceOnUse" gradientTransform="translate(9.97521 -1.65533) rotate(56.4937) scale(5.04094 2.66758)">
<stop stop-color="#22B67B"/>
<stop offset="0.407867" stop-color="#24BE82"/>
<stop offset="1" stop-color="#24BE82" stop-opacity="0.07"/>
</radialGradient>
<linearGradient id="paint7_linear" x1="-3.9366" y1="5.88095" x2="3.48011" y2="5.94331" gradientUnits="userSpaceOnUse">
<stop stop-color="#09F8FF"/>
<stop offset="1" stop-color="#0BF7F9" stop-opacity="0"/>
</linearGradient>
<radialGradient id="paint8_radial" cx="0" cy="0" r="1" gradientUnits="userSpaceOnUse" gradientTransform="translate(-2.34325 -0.652477) rotate(49.021) scale(6.60199 6.60761)">
<stop stop-color="#09F8FF"/>
<stop offset="1" stop-color="#0BF7F9" stop-opacity="0"/>
</radialGradient>
<radialGradient id="paint9_radial" cx="0" cy="0" r="1" gradientUnits="userSpaceOnUse" gradientTransform="translate(3.01328 -3.94517) rotate(47.3777) scale(13.3986 13.4055)">
<stop stop-color="#00B8FF"/>
<stop offset="0.745423" stop-color="#00B9FC" stop-opacity="0"/>
</radialGradient>
<radialGradient id="paint10_radial" cx="0" cy="0" r="1" gradientUnits="userSpaceOnUse" gradientTransform="translate(3.73131 6.00368) rotate(-107.836) scale(6.40666 4.52038)">
<stop stop-color="#00BCFF" stop-opacity="0.76"/>
<stop offset="0.57273" stop-color="#00BAFC" stop-opacity="0"/>
</radialGradient>
<radialGradient id="paint11_radial" cx="0" cy="0" r="1" gradientUnits="userSpaceOnUse" gradientTransform="translate(13.6698 3.57539) rotate(-130.177) scale(4.56264 3.20699)">
<stop stop-color="#5FEC50"/>
<stop offset="1" stop-color="#3CC08E" stop-opacity="0"/>
</radialGradient>
<radialGradient id="paint12_radial" cx="0" cy="0" r="1" gradientUnits="userSpaceOnUse" gradientTransform="translate(13.0081 6.48744) rotate(-78.8553) scale(1.36988 0.967199)">
<stop stop-color="#28855B"/>
<stop offset="1" stop-color="#14795C" stop-opacity="0"/>
</radialGradient>
<radialGradient id="paint13_radial" cx="0" cy="0" r="1" gradientUnits="userSpaceOnUse" gradientTransform="translate(12.9406 6.38668) rotate(-77.6157) scale(1.12952 1.6108)">
<stop stop-color="#28855B"/>
<stop offset="1" stop-color="#14795C" stop-opacity="0"/>
</radialGradient>
<radialGradient id="paint14_radial" cx="0" cy="0" r="1" gradientUnits="userSpaceOnUse" gradientTransform="translate(14.3151 4.35384) rotate(-133.426) scale(3.78221 2.66094)">
<stop stop-color="#5FF05B"/>
<stop offset="0.813285" stop-color="#5DE955" stop-opacity="0"/>
</radialGradient>
<radialGradient id="paint15_radial" cx="0" cy="0" r="1" gradientUnits="userSpaceOnUse" gradientTransform="translate(13.1185 5.42899) rotate(36.8427) scale(3.37625 4.66476)">
<stop stop-color="#123AA8"/>
<stop offset="0.966119" stop-color="#123AA8" stop-opacity="0"/>
</radialGradient>
<radialGradient id="paint16_radial" cx="0" cy="0" r="1" gradientUnits="userSpaceOnUse" gradientTransform="translate(12.2717 5.80422) rotate(8.30215) scale(4.01418 5.86557)">
<stop stop-color="#123AA8"/>
<stop offset="0.592487" stop-color="#123AA8" stop-opacity="0"/>
</radialGradient>
<radialGradient id="paint17_radial" cx="0" cy="0" r="1" gradientUnits="userSpaceOnUse" gradientTransform="translate(12.5976 6.29143) rotate(24.1836) scale(3.41758 6.00133)">
<stop stop-color="#123AA8"/>
<stop offset="0.756788" stop-color="#123AA8" stop-opacity="0"/>
</radialGradient>
<radialGradient id="paint18_radial" cx="0" cy="0" r="1" gradientUnits="userSpaceOnUse" gradientTransform="translate(12.1947 6.49023) rotate(95.9323) scale(6.03293 3.37885)">
<stop stop-color="#123AA8"/>
<stop offset="0.592487" stop-color="#123AA8" stop-opacity="0"/>
<stop offset="1" stop-color="#123AA8" stop-opacity="0"/>
</radialGradient>
<radialGradient id="paint19_radial" cx="0" cy="0" r="1" gradientUnits="userSpaceOnUse" gradientTransform="translate(13.1185 3.82735) rotate(93.7494) scale(7.2594 2.64846)">
<stop stop-color="#123AA8"/>
<stop offset="0.884611" stop-color="#123AA8" stop-opacity="0"/>
</radialGradient>
<radialGradient id="paint20_radial" cx="0" cy="0" r="1" gradientUnits="userSpaceOnUse" gradientTransform="translate(4.70735 5.3366) rotate(84.714) scale(3.85252 2.08614)">
<stop stop-color="#123AA8"/>
<stop offset="0.884611" stop-color="#123AA8" stop-opacity="0"/>
</radialGradient>
<radialGradient id="paint21_radial" cx="0" cy="0" r="1" gradientUnits="userSpaceOnUse" gradientTransform="translate(4.70453 5.44021) rotate(87.1887) scale(4.02017 3.39327)">
<stop stop-color="#123AA8"/>
<stop offset="0.884611" stop-color="#123AA8" stop-opacity="0"/>
</radialGradient>
<radialGradient id="paint22_radial" cx="0" cy="0" r="1" gradientUnits="userSpaceOnUse" gradientTransform="translate(5.63971 9.21752) rotate(-22.7152) scale(4.56831 8.79234)">
<stop stop-color="#123AA8"/>
<stop offset="0.708977" stop-color="#123AA8" stop-opacity="0"/>
</radialGradient>
<radialGradient id="paint23_radial" cx="0" cy="0" r="1" gradientUnits="userSpaceOnUse" gradientTransform="translate(4.00877 4.45736) rotate(-159.94) scale(3.02873 5.09912)">
<stop stop-color="#1A3DA0"/>
<stop offset="0.708977" stop-color="#123AA8" stop-opacity="0"/>
</radialGradient>
<radialGradient id="paint24_radial" cx="0" cy="0" r="1" gradientUnits="userSpaceOnUse" gradientTransform="translate(1.3356 5.4682) rotate(16.4007) scale(5.78159 5.72884)">
<stop stop-color="#1E3882"/>
<stop offset="0.761404" stop-color="#123AA8" stop-opacity="0"/>
</radialGradient>
<linearGradient id="paint25_linear" x1="-0.481677" y1="2.33497" x2="5.15171" y2="6.01134" gradientUnits="userSpaceOnUse">
<stop offset="0.229329" stop-color="#1DC4FF"/>
<stop offset="1" stop-color="#1CC1FF" stop-opacity="0"/>
</linearGradient>
<radialGradient id="paint26_radial" cx="0" cy="0" r="1" gradientUnits="userSpaceOnUse" gradientTransform="translate(-2.3436 -0.652741) rotate(49.021) scale(6.60199 6.60761)">
<stop stop-color="#09F8FF"/>
<stop offset="1" stop-color="#0BF7F9" stop-opacity="0"/>
</radialGradient>
<linearGradient id="paint27_linear" x1="-0.166193" y1="2.51698" x2="1.4026" y2="3.97114" gradientUnits="userSpaceOnUse">
<stop stop-color="#26FBFF"/>
<stop offset="0.637346" stop-color="#0BF7F9" stop-opacity="0"/>
</linearGradient>
<linearGradient id="paint28_linear" x1="-0.591535" y1="3.60342" x2="1.62236" y2="3.76492" gradientUnits="userSpaceOnUse">
<stop stop-color="#26FBFF"/>
<stop offset="0.637346" stop-color="#0BF7F9" stop-opacity="0"/>
</linearGradient>
<radialGradient id="paint29_radial" cx="0" cy="0" r="1" gradientUnits="userSpaceOnUse" gradientTransform="translate(3.73111 6.00375) rotate(-107.836) scale(6.40666 4.52038)">
<stop stop-color="#00BCFF" stop-opacity="0.76"/>
<stop offset="0.57273" stop-color="#00BAFC" stop-opacity="0"/>
</radialGradient>
</defs>
</svg>
