<?xml version="1.0" encoding="UTF-8" standalone="no"?>
<!-- Created with Keyshape -->
<svg xmlns="http://www.w3.org/2000/svg" id="Template-resizing-animation" shape-rendering="geometricPrecision" text-rendering="geometricPrecision" viewBox="0 0 280 280" style="white-space: pre;">
    <defs>
        <radialGradient id="Gradient-0" cx="45.364" cy="-26.448" r="88.0356" fx="45.364" fy="-26.448" gradientUnits="userSpaceOnUse">
            <stop offset="0.232" stop-color="#a67e6b"/>
            <stop offset="0.437" stop-color="#bf8f71"/>
            <stop offset="0.643" stop-color="#d8a078"/>
            <stop offset="0.693" stop-color="#dea479"/>
            <stop offset="0.744" stop-color="#e3a87a"/>
            <stop offset="0.785" stop-color="#e6ac7a"/>
            <stop offset="0.827" stop-color="#e9b07b"/>
        </radialGradient>
        <linearGradient id="Gradient-1" x1="-2.577" y1="3.698" x2="12.946" y2="-7.201" gradientUnits="userSpaceOnUse">
            <stop offset="0" stop-color="#e9b07b"/>
            <stop offset="0.5" stop-color="#e0a879"/>
            <stop offset="1" stop-color="#d89f76"/>
        </linearGradient>
        <linearGradient id="Gradient-2" x1="-25.532" y1="-12.38" x2="17.404" y2="12.06" gradientUnits="userSpaceOnUse">
            <stop offset="0" stop-color="#f9c787"/>
            <stop offset="0.199" stop-color="#eeb881"/>
            <stop offset="0.398" stop-color="#e3a87b"/>
            <stop offset="0.699" stop-color="#cd9877"/>
            <stop offset="1" stop-color="#b78872"/>
        </linearGradient>
        <linearGradient id="Gradient-3" x1="-28.409" y1="-11.36" x2="26.857" y2="13.961" gradientUnits="userSpaceOnUse">
            <stop offset="0" stop-color="#f9c787"/>
            <stop offset="0.179" stop-color="#eeb881"/>
            <stop offset="0.357" stop-color="#e3a87b"/>
            <stop offset="0.624" stop-color="#cd9877"/>
            <stop offset="0.89" stop-color="#b78872"/>
        </linearGradient>
        <linearGradient id="Gradient-4" x1="-16.535" y1="-10.622" x2="21.997" y2="16.901" gradientUnits="userSpaceOnUse">
            <stop offset="0" stop-color="#f9c787"/>
            <stop offset="0.179" stop-color="#eeb881"/>
            <stop offset="0.357" stop-color="#e3a87b"/>
            <stop offset="0.624" stop-color="#cd9877"/>
            <stop offset="0.89" stop-color="#b78872"/>
        </linearGradient>
        <linearGradient id="Gradient-5" x1="-30.987" y1="3.111" x2="27.802" y2="-0.412" gradientUnits="userSpaceOnUse">
            <stop offset="0" stop-color="#f9c787"/>
            <stop offset="0.25" stop-color="#eeb881"/>
            <stop offset="0.5" stop-color="#e3a87b"/>
            <stop offset="0.75" stop-color="#d59c77"/>
            <stop offset="1" stop-color="#c78f72"/>
        </linearGradient>
        <linearGradient id="Gradient-6" x1="10.927" y1="5.961" x2="-32.046" y2="-20.897" gradientUnits="userSpaceOnUse">
            <stop offset="0" stop-color="#e8ae7b"/>
            <stop offset="0.444" stop-color="#e9b988"/>
            <stop offset="0.887" stop-color="#eac496"/>
        </linearGradient>
    </defs>
    <g id="Loop-4s" transform="translate(139.658,139.134) translate(-139.658,-139.134)">
        <g opacity="1" transform="translate(139.751,139.005) scale(1.15,1.15) translate(-80,-80)">
            <g id="Library" opacity="1" transform="translate(80,80) translate(-80,-80)">
                <g id="thumbdown-skintone2" opacity="1" transform="translate(80,80) translate(-80,-80)">
                    <g id="Null-2" transform="translate(78.6356,80.4482) translate(-78.6356,-80.4482)">
                        <g transform="translate(79.765,79.935) translate(-50,-50)">
                            <g id="Layer-21" opacity="1" transform="translate(48.8706,50.5132) translate(0.000420289,-0.000196236)">
                                <g id="Group-Layer-21" opacity="1" transform="translate(-0.000420289,0.000196236) translate(0.000420289,-0.000196236)">
                                    <path id="Path-Layer-21" fill="url(#Gradient-0)" d="M21.76,19.882C21.76,19.882,21.759,19.879,21.759,19.879C21.759,19.879,21.759,19.88,21.759,19.88C21.759,19.88,11.269,19.698,11.269,19.698C11.269,19.698,33.356,32.397,33.356,57.544C33.356,82.692,14.499,79.412,14.499,79.412C14.499,79.412,9.591,80.14,6.037,65.562C2.483,50.984,-5.825,43.452,-19.532,31.789C-33.239,20.126,-55.915,12.109,-56.423,-31.444C-56.931,-74.997,-29.008,-79.552,-18.347,-79.552C-7.686,-79.552,21.759,-72.445,21.759,-72.445C21.759,-63.955,31.063,-33.66,31.063,-10.052C31.67,-10.056,50.88,-3.446,50.88,-3.446C50.88,-3.446,56.429,6.073,56.429,6.073C52.333,13.166,42.703,19.882,21.76,19.882Z" fill-opacity="1" fill-rule="nonzero" transform="translate(-0.000420289,0.000196236) translate(0.000420289,-0.000196236)"/>
                                </g>
                            </g>
                        </g>
                    </g>
                    <g id="Null-2-2" transform="translate(91.528,128.81) translate(-91.528,-128.81)">
                        <g transform="translate(79.765,79.935) translate(-50,-50)">
                            <g id="Layer-13" opacity="1" transform="translate(61.763,98.8745) translate(-0.951,-3.5075)">
                                <g id="Group-Layer-13" opacity="1" transform="translate(0.951,3.5075) translate(-0.951,-3.5075)">
                                    <path id="Path-Layer-13" fill="url(#Gradient-1)" d="M22.366,12.475C22.366,17.81,21.515,21.862,20.178,24.941C18.866,27.438,16.951,30.935,13.782,32.386C4.74,10.597,-20.464,-25.187,-20.464,-25.187C-20.464,-25.187,0.279,-25.371,0.279,-25.371C3.064,-23.29,22.366,-11.421,22.366,12.475Z" fill-opacity="1" fill-rule="nonzero" transform="translate(0.951,3.5075) translate(-0.951,-3.5075)"/>
                                </g>
                            </g>
                        </g>
                    </g>
                    <g id="Null-2-3" transform="translate(97.3709,13.6046) translate(-97.3709,-13.6046)">
                        <g transform="translate(79.765,79.935) translate(-50,-50)">
                            <g id="Layer-12" opacity="1" transform="translate(67.6059,-16.3304) translate(0.161138,-0.223593)">
                                <g id="Group-Layer-12" opacity="1" transform="translate(-0.161138,0.223593) translate(0.161138,-0.223593)">
                                    <path id="Path-Layer-12" fill="url(#Gradient-2)" d="M19.886,13.604C24.14,8.131,23.207,4.713,22.978,1.929C21.098,-20.881,-25.092,-15.745,-23.507,3.487C-22.685,13.463,-7.08,11.349,-7.08,11.349C-7.08,11.349,19.886,13.604,19.886,13.604Z" fill-opacity="1" fill-rule="nonzero" transform="translate(-0.161138,0.223593) translate(0.161138,-0.223593)"/>
                                </g>
                            </g>
                        </g>
                    </g>
                    <g id="Null-2-4" transform="translate(103.409,31.3609) translate(-103.409,-31.3609)">
                        <g transform="translate(79.765,79.935) translate(-50,-50)">
                            <g id="Layer-10" opacity="1" transform="translate(73.6439,1.42587) translate(8.68973e-05,0.000130712)">
                                <g id="Group-Layer-10" opacity="1" transform="translate(-8.68973e-05,-0.000130712) translate(8.68973e-05,0.000130712)">
                                    <path id="Path-Layer-10" fill="url(#Gradient-3)" d="M23.527,15.703C28.519,9.28,27.424,5.268,27.155,2.001C24.949,-24.768,-29.258,-18.741,-27.398,3.83C-26.433,15.538,-8.12,13.056,-8.12,13.056C-8.12,13.056,23.527,15.703,23.527,15.703Z" fill-opacity="1" fill-rule="nonzero" transform="translate(-8.68973e-05,-0.000130712) translate(8.68973e-05,0.000130712)"/>
                                </g>
                            </g>
                        </g>
                    </g>
                    <g id="Null-2-5" transform="translate(108.535,50.6223) translate(-108.535,-50.6223)">
                        <g transform="translate(79.765,79.935) translate(-50,-50)">
                            <g id="Layer-9" opacity="1" transform="translate(78.7699,20.6873) translate(6.39873e-05,-0.000263299)">
                                <g id="Group-Layer-9" opacity="1" transform="translate(-6.39873e-05,0.000263299) translate(6.39873e-05,-0.000263299)">
                                    <path id="Path-Layer-9" fill="url(#Gradient-4)" d="M22.489,16.788C27.989,10.866,27.227,6.765,27.227,3.485C27.227,-23.389,-27.263,-22.545,-27.263,0.114C-27.263,11.868,-8.818,11.139,-8.818,11.139C-8.818,11.139,22.489,16.788,22.489,16.788Z" fill-opacity="1" fill-rule="nonzero" transform="translate(-6.39873e-05,0.000263299) translate(6.39873e-05,-0.000263299)"/>
                                </g>
                            </g>
                        </g>
                    </g>
                    <g id="Null-2-6" transform="translate(111.826,72.1126) translate(-111.826,-72.1126)">
                        <g transform="translate(79.765,79.935) translate(-50,-50)">
                            <g id="Layer-6" opacity="1" transform="translate(82.061,42.1776) translate(0.161,-0.222566)">
                                <g id="Group-Layer-6" opacity="1" transform="translate(-0.161,0.222566) translate(0.161,-0.222566)">
                                    <path id="Path-Layer-6" fill="url(#Gradient-5)" d="M25.645,4.671C25.645,-8.256,11.008,-14.464,0.091,-14.464C-15.814,-14.464,-25.967,-8.446,-25.967,3.943C-25.967,14.388,-15.154,14.978,-11.753,14.904C-11.115,14.892,-10.738,14.855,-10.738,14.855C-10.738,14.855,23.326,14.661,23.326,14.661C25.393,11.094,25.645,7.621,25.645,4.671Z" fill-opacity="1" fill-rule="nonzero" transform="translate(-0.161,0.222566) translate(0.161,-0.222566)"/>
                                </g>
                            </g>
                        </g>
                    </g>
                    <g id="Null-2-7" transform="translate(41.073,63.0392) translate(-41.073,-63.0392)">
                        <g transform="translate(79.765,79.935) translate(-50,-50)">
                            <g id="1-13" opacity="1" transform="translate(11.308,33.1042) translate(3.44103e-05,-0.000152492)">
                                <g id="Path-8" opacity="1" transform="translate(-3.44103e-05,0.000152492) translate(3.44103e-05,-0.000152492)">
                                    <path id="Path-1" fill="url(#Gradient-6)" d="M-12.462,16.599C-4.905,29.211,9.492,34.389,13.5,21.521C24.618,-14.171,11.859,-29.571,-0.545,-28.963C-12.949,-28.355,-24.998,-11.74,-12.462,16.599Z" fill-opacity="1" fill-rule="nonzero" transform="translate(-3.44103e-05,0.000152492) translate(3.44103e-05,-0.000152492)"/>
                                </g>
                            </g>
                        </g>
                    </g>
                    <g id="Null-2-8" transform="translate(106.253,39.775) translate(-106.253,-39.775)">
                        <g transform="translate(79.765,79.935) translate(-50,-50)">
                            <g id="Layer-1" opacity="1" transform="translate(76.488,9.84)">
                                <g id="Group-1" opacity="1">
                                    <path id="Path-1-2" fill="#b77e58" d="M23.505,21.091C18.585,17.991,11.975,16.042,5.825,16.042C-2.995,16.042,-9.925,17.982,-14.635,21.432C-13.925,21.592,-13.225,21.721,-12.555,21.821C-8.065,19.021,-1.775,17.651,5.825,17.651C12.835,17.651,21.375,20.212,26.595,25.462C26.905,25.012,27.185,24.581,27.435,24.161C26.295,23.051,24.985,22.031,23.505,21.091ZM1.078,-7.292C-9.522,-7.292,-19.978,-3.762,-24.488,3.458C-23.918,3.728,-23.572,3.749,-22.972,3.939C-15.162,-7.911,11.948,-9.282,23.778,1.698C24.018,0.978,24.119,0.618,24.229,-0.032C18.329,-5.012,9.548,-7.292,1.078,-7.292ZM14.503,-20.332C2.673,-26.652,-16.797,-24.192,-25.707,-15.712C-26.397,-15.922,-26.805,-16.056,-27.435,-16.366C-21.875,-22.156,-12.107,-25.462,-1.407,-25.462C4.733,-25.462,10.161,-24.25,14.511,-22.13C14.561,-21.43,14.563,-21.132,14.503,-20.332Z" fill-opacity="1" fill-rule="nonzero"/>
                                </g>
                            </g>
                        </g>
                    </g>
                    <g id="Null-2-9" transform="translate(29.765,29.935) translate(-29.765,-29.935)">
                        <g transform="translate(79.765,79.935) translate(-50,-50)"/>
                    </g>
                </g>
            </g>
            <g id="Library-3" opacity="0" transform="translate(80,80) translate(-80,-80)">
                <g id="thumbdown-skintone2-3" opacity="0" transform="translate(80,80) translate(-80,-80)">
                    <g id="Null-2-10" transform="translate(78.6356,80.4482) translate(-78.6356,-80.4482)">
                        <g transform="translate(79.765,79.935) translate(-50,-50)">
                            <g id="Layer-21-2" opacity="0" transform="translate(48.8706,50.5132) translate(0.000420289,-0.000196236)">
                                <g id="Group-Layer-21-2" opacity="1" transform="translate(-0.000420289,0.000196236) translate(0.000420289,-0.000196236)">
                                    <path id="Path-Layer-21-2" fill="url(#Gradient-0)" d="M21.76,19.882C21.76,19.882,21.759,19.879,21.759,19.879C21.759,19.879,21.759,19.88,21.759,19.88C21.759,19.88,11.269,19.698,11.269,19.698C11.269,19.698,33.356,32.397,33.356,57.544C33.356,82.692,14.499,79.412,14.499,79.412C14.499,79.412,9.591,80.14,6.037,65.562C2.483,50.984,-5.825,43.452,-19.532,31.789C-33.239,20.126,-55.915,12.109,-56.423,-31.444C-56.931,-74.997,-29.008,-79.552,-18.347,-79.552C-7.686,-79.552,21.759,-72.445,21.759,-72.445C21.759,-63.955,31.063,-33.66,31.063,-10.052C31.67,-10.056,50.88,-3.446,50.88,-3.446C50.88,-3.446,56.429,6.073,56.429,6.073C52.333,13.166,42.703,19.882,21.76,19.882Z" fill-opacity="1" fill-rule="nonzero" transform="translate(-0.000420289,0.000196236) translate(0.000420289,-0.000196236)"/>
                                </g>
                            </g>
                        </g>
                    </g>
                    <g id="Null-2-11" transform="translate(91.528,128.81) translate(-91.528,-128.81)">
                        <g transform="translate(79.765,79.935) translate(-50,-50)">
                            <g id="Layer-13-2" opacity="0" transform="translate(61.763,98.8745) translate(-0.951,-3.5075)">
                                <g id="Group-Layer-13-2" opacity="1" transform="translate(0.951,3.5075) translate(-0.951,-3.5075)">
                                    <path id="Path-Layer-13-2" fill="url(#Gradient-1)" d="M22.366,12.475C22.366,17.81,21.515,21.862,20.178,24.941C18.866,27.438,16.951,30.935,13.782,32.386C4.74,10.597,-20.464,-25.187,-20.464,-25.187C-20.464,-25.187,0.279,-25.371,0.279,-25.371C3.064,-23.29,22.366,-11.421,22.366,12.475Z" fill-opacity="1" fill-rule="nonzero" transform="translate(0.951,3.5075) translate(-0.951,-3.5075)"/>
                                </g>
                            </g>
                        </g>
                    </g>
                    <g id="Null-2-12" transform="translate(97.3709,13.6046) translate(-97.3709,-13.6046)">
                        <g transform="translate(79.765,79.935) translate(-50,-50)">
                            <g id="Layer-12-2" opacity="0" transform="translate(67.6059,-16.3304) translate(0.161138,-0.223593)">
                                <g id="Group-Layer-12-2" opacity="1" transform="translate(-0.161138,0.223593) translate(0.161138,-0.223593)">
                                    <path id="Path-Layer-12-2" fill="url(#Gradient-2)" d="M19.886,13.604C24.14,8.131,23.207,4.713,22.978,1.929C21.098,-20.881,-25.092,-15.745,-23.507,3.487C-22.685,13.463,-7.08,11.349,-7.08,11.349C-7.08,11.349,19.886,13.604,19.886,13.604Z" fill-opacity="1" fill-rule="nonzero" transform="translate(-0.161138,0.223593) translate(0.161138,-0.223593)"/>
                                </g>
                            </g>
                        </g>
                    </g>
                    <g id="Null-2-13" transform="translate(103.409,31.3609) translate(-103.409,-31.3609)">
                        <g transform="translate(79.765,79.935) translate(-50,-50)">
                            <g id="Layer-10-2" opacity="0" transform="translate(73.6439,1.42587) translate(8.68973e-05,0.000130712)">
                                <g id="Group-Layer-10-2" opacity="1" transform="translate(-8.68973e-05,-0.000130712) translate(8.68973e-05,0.000130712)">
                                    <path id="Path-Layer-10-2" fill="url(#Gradient-3)" d="M23.527,15.703C28.519,9.28,27.424,5.268,27.155,2.001C24.949,-24.768,-29.258,-18.741,-27.398,3.83C-26.433,15.538,-8.12,13.056,-8.12,13.056C-8.12,13.056,23.527,15.703,23.527,15.703Z" fill-opacity="1" fill-rule="nonzero" transform="translate(-8.68973e-05,-0.000130712) translate(8.68973e-05,0.000130712)"/>
                                </g>
                            </g>
                        </g>
                    </g>
                    <g id="Null-2-14" transform="translate(108.535,50.6223) translate(-108.535,-50.6223)">
                        <g transform="translate(79.765,79.935) translate(-50,-50)">
                            <g id="Layer-9-2" opacity="0" transform="translate(78.7699,20.6873) translate(6.39873e-05,-0.000263299)">
                                <g id="Group-Layer-9-2" opacity="1" transform="translate(-6.39873e-05,0.000263299) translate(6.39873e-05,-0.000263299)">
                                    <path id="Path-Layer-9-2" fill="url(#Gradient-4)" d="M22.489,16.788C27.989,10.866,27.227,6.765,27.227,3.485C27.227,-23.389,-27.263,-22.545,-27.263,0.114C-27.263,11.868,-8.818,11.139,-8.818,11.139C-8.818,11.139,22.489,16.788,22.489,16.788Z" fill-opacity="1" fill-rule="nonzero" transform="translate(-6.39873e-05,0.000263299) translate(6.39873e-05,-0.000263299)"/>
                                </g>
                            </g>
                        </g>
                    </g>
                    <g id="Null-2-15" transform="translate(111.826,72.1126) translate(-111.826,-72.1126)">
                        <g transform="translate(79.765,79.935) translate(-50,-50)">
                            <g id="Layer-6-2" opacity="0" transform="translate(82.061,42.1776) translate(0.161,-0.222566)">
                                <g id="Group-Layer-6-2" opacity="1" transform="translate(-0.161,0.222566) translate(0.161,-0.222566)">
                                    <path id="Path-Layer-6-2" fill="url(#Gradient-5)" d="M25.645,4.671C25.645,-8.256,11.008,-14.464,0.091,-14.464C-15.814,-14.464,-25.967,-8.446,-25.967,3.943C-25.967,14.388,-15.154,14.978,-11.753,14.904C-11.115,14.892,-10.738,14.855,-10.738,14.855C-10.738,14.855,23.326,14.661,23.326,14.661C25.393,11.094,25.645,7.621,25.645,4.671Z" fill-opacity="1" fill-rule="nonzero" transform="translate(-0.161,0.222566) translate(0.161,-0.222566)"/>
                                </g>
                            </g>
                        </g>
                    </g>
                    <g id="Null-2-16" transform="translate(41.073,63.0392) translate(-41.073,-63.0392)">
                        <g transform="translate(79.765,79.935) translate(-50,-50)">
                            <g id="1-13-2" opacity="0" transform="translate(11.308,33.1042) translate(3.44103e-05,-0.000152492)">
                                <g id="Path-8-2" opacity="1" transform="translate(-3.44103e-05,0.000152492) translate(3.44103e-05,-0.000152492)">
                                    <path id="Path-1-3" fill="url(#Gradient-6)" d="M-12.462,16.599C-4.905,29.211,9.492,34.389,13.5,21.521C24.618,-14.171,11.859,-29.571,-0.545,-28.963C-12.949,-28.355,-24.998,-11.74,-12.462,16.599Z" fill-opacity="1" fill-rule="nonzero" transform="translate(-3.44103e-05,0.000152492) translate(3.44103e-05,-0.000152492)"/>
                                </g>
                            </g>
                        </g>
                    </g>
                    <g id="Null-2-17" transform="translate(106.253,39.775) translate(-106.253,-39.775)">
                        <g transform="translate(79.765,79.935) translate(-50,-50)">
                            <g id="Layer-1-2" opacity="0" transform="translate(76.488,9.84)">
                                <g id="Group-1-2" opacity="1">
                                    <path id="Path-1-4" fill="#b77e58" d="M23.505,21.091C18.585,17.991,11.975,16.042,5.825,16.042C-2.995,16.042,-9.925,17.982,-14.635,21.432C-13.925,21.592,-13.225,21.721,-12.555,21.821C-8.065,19.021,-1.775,17.651,5.825,17.651C12.835,17.651,21.375,20.212,26.595,25.462C26.905,25.012,27.185,24.581,27.435,24.161C26.295,23.051,24.985,22.031,23.505,21.091ZM1.078,-7.292C-9.522,-7.292,-19.978,-3.762,-24.488,3.458C-23.918,3.728,-23.572,3.749,-22.972,3.939C-15.162,-7.911,11.948,-9.282,23.778,1.698C24.018,0.978,24.119,0.618,24.229,-0.032C18.329,-5.012,9.548,-7.292,1.078,-7.292ZM14.503,-20.332C2.673,-26.652,-16.797,-24.192,-25.707,-15.712C-26.397,-15.922,-26.805,-16.056,-27.435,-16.366C-21.875,-22.156,-12.107,-25.462,-1.407,-25.462C4.733,-25.462,10.161,-24.25,14.511,-22.13C14.561,-21.43,14.563,-21.132,14.503,-20.332Z" fill-opacity="1" fill-rule="nonzero"/>
                                </g>
                            </g>
                        </g>
                    </g>
                    <g id="Null-2-18" transform="translate(29.765,29.935) translate(-29.765,-29.935)">
                        <g transform="translate(79.765,79.935) translate(-50,-50)"/>
                    </g>
                </g>
            </g>
            <g id="Library-2" opacity="0" transform="translate(80,80) translate(-80,-80)">
                <g id="thumbdown-skintone2-2" opacity="0" transform="translate(80,80) translate(-80,-80)">
                    <g id="Null-2-19" transform="translate(79.765,79.935) translate(-50,-50)">
                        <g id="Layer-21-3" opacity="0" transform="translate(48.8706,50.5132) translate(0.000420289,-0.000196236)">
                            <g id="Group-Layer-21-3" opacity="1" transform="translate(-0.000420289,0.000196236) translate(0.000420289,-0.000196236)">
                                <path id="Path-Layer-21-3" fill="url(#Gradient-0)" d="M21.76,19.882C21.76,19.882,21.759,19.879,21.759,19.879C21.759,19.879,21.759,19.88,21.759,19.88C21.759,19.88,11.269,19.698,11.269,19.698C11.269,19.698,33.356,32.397,33.356,57.544C33.356,82.692,14.499,79.412,14.499,79.412C14.499,79.412,9.591,80.14,6.037,65.562C2.483,50.984,-5.825,43.452,-19.532,31.789C-33.239,20.126,-55.915,12.109,-56.423,-31.444C-56.931,-74.997,-29.008,-79.552,-18.347,-79.552C-7.686,-79.552,21.759,-72.445,21.759,-72.445C21.759,-63.955,31.063,-33.66,31.063,-10.052C31.67,-10.056,50.88,-3.446,50.88,-3.446C50.88,-3.446,56.429,6.073,56.429,6.073C52.333,13.166,42.703,19.882,21.76,19.882Z" fill-opacity="1" fill-rule="nonzero" transform="translate(-0.000420289,0.000196236) translate(0.000420289,-0.000196236)"/>
                            </g>
                        </g>
                    </g>
                    <g id="Null-2-20" transform="translate(79.765,79.935) translate(-50,-50)">
                        <g id="Layer-13-3" opacity="0" transform="translate(61.763,98.8745) translate(-0.951,-3.5075)">
                            <g id="Group-Layer-13-3" opacity="1" transform="translate(0.951,3.5075) translate(-0.951,-3.5075)">
                                <path id="Path-Layer-13-3" fill="url(#Gradient-1)" d="M22.366,12.475C22.366,17.81,21.515,21.862,20.178,24.941C18.866,27.438,16.951,30.935,13.782,32.386C4.74,10.597,-20.464,-25.187,-20.464,-25.187C-20.464,-25.187,0.279,-25.371,0.279,-25.371C3.064,-23.29,22.366,-11.421,22.366,12.475Z" fill-opacity="1" fill-rule="nonzero" transform="translate(0.951,3.5075) translate(-0.951,-3.5075)"/>
                            </g>
                        </g>
                    </g>
                    <g id="Null-2-21" transform="translate(79.765,79.935) translate(-50,-50)">
                        <g id="Layer-12-3" opacity="0" transform="translate(67.6059,-16.3304) translate(0.161138,-0.223593)">
                            <g id="Group-Layer-12-3" opacity="1" transform="translate(-0.161138,0.223593) translate(0.161138,-0.223593)">
                                <path id="Path-Layer-12-3" fill="url(#Gradient-2)" d="M19.886,13.604C24.14,8.131,23.207,4.713,22.978,1.929C21.098,-20.881,-25.092,-15.745,-23.507,3.487C-22.685,13.463,-7.08,11.349,-7.08,11.349C-7.08,11.349,19.886,13.604,19.886,13.604Z" fill-opacity="1" fill-rule="nonzero" transform="translate(-0.161138,0.223593) translate(0.161138,-0.223593)"/>
                            </g>
                        </g>
                    </g>
                    <g id="Null-2-22" transform="translate(79.765,79.935) translate(-50,-50)">
                        <g id="Layer-10-3" opacity="0" transform="translate(73.6439,1.42587) translate(8.68973e-05,0.000130712)">
                            <g id="Group-Layer-10-3" opacity="1" transform="translate(-8.68973e-05,-0.000130712) translate(8.68973e-05,0.000130712)">
                                <path id="Path-Layer-10-3" fill="url(#Gradient-3)" d="M23.527,15.703C28.519,9.28,27.424,5.268,27.155,2.001C24.949,-24.768,-29.258,-18.741,-27.398,3.83C-26.433,15.538,-8.12,13.056,-8.12,13.056C-8.12,13.056,23.527,15.703,23.527,15.703Z" fill-opacity="1" fill-rule="nonzero" transform="translate(-8.68973e-05,-0.000130712) translate(8.68973e-05,0.000130712)"/>
                            </g>
                        </g>
                    </g>
                    <g id="Null-2-23" transform="translate(79.765,79.935) translate(-50,-50)">
                        <g id="Layer-9-3" opacity="0" transform="translate(78.7699,20.6873) translate(6.39873e-05,-0.000263299)">
                            <g id="Group-Layer-9-3" opacity="1" transform="translate(-6.39873e-05,0.000263299) translate(6.39873e-05,-0.000263299)">
                                <path id="Path-Layer-9-3" fill="url(#Gradient-4)" d="M22.489,16.788C27.989,10.866,27.227,6.765,27.227,3.485C27.227,-23.389,-27.263,-22.545,-27.263,0.114C-27.263,11.868,-8.818,11.139,-8.818,11.139C-8.818,11.139,22.489,16.788,22.489,16.788Z" fill-opacity="1" fill-rule="nonzero" transform="translate(-6.39873e-05,0.000263299) translate(6.39873e-05,-0.000263299)"/>
                            </g>
                        </g>
                    </g>
                    <g id="Null-2-24" transform="translate(79.765,79.935) translate(-50,-50)">
                        <g id="Layer-6-3" opacity="0" transform="translate(82.061,42.1776) translate(0.161,-0.222566)">
                            <g id="Group-Layer-6-3" opacity="1" transform="translate(-0.161,0.222566) translate(0.161,-0.222566)">
                                <path id="Path-Layer-6-3" fill="url(#Gradient-5)" d="M25.645,4.671C25.645,-8.256,11.008,-14.464,0.091,-14.464C-15.814,-14.464,-25.967,-8.446,-25.967,3.943C-25.967,14.388,-15.154,14.978,-11.753,14.904C-11.115,14.892,-10.738,14.855,-10.738,14.855C-10.738,14.855,23.326,14.661,23.326,14.661C25.393,11.094,25.645,7.621,25.645,4.671Z" fill-opacity="1" fill-rule="nonzero" transform="translate(-0.161,0.222566) translate(0.161,-0.222566)"/>
                            </g>
                        </g>
                    </g>
                    <g id="Null-2-25" transform="translate(79.765,79.935) translate(-50,-50)">
                        <g id="1-13-3" opacity="0" transform="translate(11.308,33.1042) translate(3.44103e-05,-0.000152492)">
                            <g id="Path-8-3" opacity="1" transform="translate(-3.44103e-05,0.000152492) translate(3.44103e-05,-0.000152492)">
                                <path id="Path-1-5" fill="url(#Gradient-6)" d="M-12.462,16.599C-4.905,29.211,9.492,34.389,13.5,21.521C24.618,-14.171,11.859,-29.571,-0.545,-28.963C-12.949,-28.355,-24.998,-11.74,-12.462,16.599Z" fill-opacity="1" fill-rule="nonzero" transform="translate(-3.44103e-05,0.000152492) translate(3.44103e-05,-0.000152492)"/>
                            </g>
                        </g>
                    </g>
                    <g id="Null-2-26" transform="translate(79.765,79.935) translate(-50,-50)">
                        <g id="Layer-1-3" opacity="0" transform="translate(76.488,9.84)">
                            <g id="Group-1-3" opacity="1">
                                <path id="Path-1-6" fill="#b77e58" d="M23.505,21.091C18.585,17.991,11.975,16.042,5.825,16.042C-2.995,16.042,-9.925,17.982,-14.635,21.432C-13.925,21.592,-13.225,21.721,-12.555,21.821C-8.065,19.021,-1.775,17.651,5.825,17.651C12.835,17.651,21.375,20.212,26.595,25.462C26.905,25.012,27.185,24.581,27.435,24.161C26.295,23.051,24.985,22.031,23.505,21.091ZM1.078,-7.292C-9.522,-7.292,-19.978,-3.762,-24.488,3.458C-23.918,3.728,-23.572,3.749,-22.972,3.939C-15.162,-7.911,11.948,-9.282,23.778,1.698C24.018,0.978,24.119,0.618,24.229,-0.032C18.329,-5.012,9.548,-7.292,1.078,-7.292ZM14.503,-20.332C2.673,-26.652,-16.797,-24.192,-25.707,-15.712C-26.397,-15.922,-26.805,-16.056,-27.435,-16.366C-21.875,-22.156,-12.107,-25.462,-1.407,-25.462C4.733,-25.462,10.161,-24.25,14.511,-22.13C14.561,-21.43,14.563,-21.132,14.503,-20.332Z" fill-opacity="1" fill-rule="nonzero"/>
                            </g>
                        </g>
                    </g>
                    <g id="Null-2-27" transform="translate(79.765,79.935) translate(-50,-50)"/>
                </g>
            </g>
        </g>
    </g>
</svg>
