<svg width="498" height="214" viewBox="0 0 498 214" fill="none" xmlns="http://www.w3.org/2000/svg">
<g filter="url(#filter0_dd_10225_365294)">
<rect x="49" y="25" width="400" height="116" fill="black"/>
<path d="M429.708 41L434 45.292L433.292 46L429 41.708L424.708 46L424 45.292L428.292 41L424 36.708L424.708 36L429 40.292L433.292 36L434 36.708L429.708 41Z" fill="white" fill-opacity="0.95"/>
<path d="M394 36V46H384V36H394ZM392.999 37.001H385.001V44.999H392.999V37.001Z" fill="white" fill-opacity="0.4"/>
<path d="M354 39.999V41H344V39.999H354Z" fill="white" fill-opacity="0.95"/>
<path d="M72.4609 37.5977L70.1582 46H68.582L66.9824 40.123C66.916 39.873 66.875 39.5996 66.8594 39.3027H66.8359C66.8164 39.5801 66.7695 39.8496 66.6953 40.1113L65.0898 46H63.4785L61.1289 37.5977H62.6582L64.1816 43.75C64.2441 44.0078 64.2832 44.2773 64.2988 44.5586H64.3281C64.3438 44.3594 64.3984 44.0898 64.4922 43.75L66.2148 37.5977H67.6504L69.2441 43.7969C69.2988 44.0078 69.3398 44.2578 69.3672 44.5469H69.3906C69.4023 44.3516 69.4473 44.0938 69.5254 43.7734L71.0195 37.5977H72.4609ZM78.25 43.3691H74.1602C74.1758 43.9238 74.3457 44.3516 74.6699 44.6523C74.998 44.9531 75.4473 45.1035 76.0176 45.1035C76.6582 45.1035 77.2461 44.9121 77.7812 44.5293V45.625C77.2344 45.9688 76.5117 46.1406 75.6133 46.1406C74.7305 46.1406 74.0371 45.8691 73.5332 45.3262C73.0332 44.7793 72.7832 44.0117 72.7832 43.0234C72.7832 42.0898 73.0586 41.3301 73.6094 40.7441C74.1641 40.1543 74.8516 39.8594 75.6719 39.8594C76.4922 39.8594 77.127 40.123 77.5762 40.6504C78.0254 41.1777 78.25 41.9102 78.25 42.8477V43.3691ZM76.9375 42.4082C76.9336 41.9199 76.8184 41.541 76.5918 41.2715C76.3652 40.998 76.0527 40.8613 75.6543 40.8613C75.2637 40.8613 74.9316 41.0039 74.6582 41.2891C74.3887 41.5742 74.2227 41.9473 74.1602 42.4082H76.9375ZM80.9277 45.1328H80.9043V46H79.5449V37.1172H80.9043V41.0547H80.9277C81.3926 40.2578 82.0723 39.8594 82.9668 39.8594C83.7246 39.8594 84.3164 40.1289 84.7422 40.668C85.1719 41.2031 85.3867 41.9219 85.3867 42.8242C85.3867 43.8281 85.1465 44.6328 84.666 45.2383C84.1855 45.8398 83.5293 46.1406 82.6973 46.1406C81.916 46.1406 81.3262 45.8047 80.9277 45.1328ZM80.8926 42.748V43.4922C80.8926 43.9297 81.0312 44.3008 81.3086 44.6055C81.5898 44.9102 81.9453 45.0625 82.375 45.0625C82.8789 45.0625 83.2734 44.8672 83.5586 44.4766C83.8477 44.082 83.9922 43.5332 83.9922 42.8301C83.9922 42.2402 83.8574 41.7793 83.5879 41.4473C83.3223 41.1113 82.9609 40.9434 82.5039 40.9434C82.0195 40.9434 81.6289 41.1152 81.332 41.459C81.0391 41.8027 80.8926 42.2324 80.8926 42.748ZM91.8555 43.3691H87.7656C87.7812 43.9238 87.9512 44.3516 88.2754 44.6523C88.6035 44.9531 89.0527 45.1035 89.623 45.1035C90.2637 45.1035 90.8516 44.9121 91.3867 44.5293V45.625C90.8398 45.9688 90.1172 46.1406 89.2188 46.1406C88.3359 46.1406 87.6426 45.8691 87.1387 45.3262C86.6387 44.7793 86.3887 44.0117 86.3887 43.0234C86.3887 42.0898 86.6641 41.3301 87.2148 40.7441C87.7695 40.1543 88.457 39.8594 89.2773 39.8594C90.0977 39.8594 90.7324 40.123 91.1816 40.6504C91.6309 41.1777 91.8555 41.9102 91.8555 42.8477V43.3691ZM90.543 42.4082C90.5391 41.9199 90.4238 41.541 90.1973 41.2715C89.9707 40.998 89.6582 40.8613 89.2598 40.8613C88.8691 40.8613 88.5371 41.0039 88.2637 41.2891C87.9941 41.5742 87.8281 41.9473 87.7656 42.4082H90.543ZM98.166 40L96.168 43.0352L98.1426 46H96.5664L95.5117 44.1426C95.4453 44.0293 95.3672 43.8848 95.2773 43.709H95.2539C95.2383 43.7441 95.1562 43.8887 95.0078 44.1426L93.9355 46H92.3652L94.4043 43.0586L92.4707 40H94.0527L95.0898 41.9512C95.168 42.0957 95.2441 42.2441 95.3184 42.3965H95.3359L96.6777 40H98.166ZM103.152 38.7402C102.93 38.7402 102.738 38.668 102.578 38.5234C102.422 38.3789 102.344 38.1953 102.344 37.9727C102.344 37.75 102.422 37.5645 102.578 37.416C102.738 37.2676 102.93 37.1934 103.152 37.1934C103.383 37.1934 103.578 37.2676 103.738 37.416C103.898 37.5645 103.979 37.75 103.979 37.9727C103.979 38.1836 103.898 38.3652 103.738 38.5176C103.578 38.666 103.383 38.7402 103.152 38.7402ZM103.826 46H102.467V40H103.826V46ZM110.951 46H109.592V42.6191C109.592 41.498 109.195 40.9375 108.402 40.9375C107.988 40.9375 107.646 41.0938 107.377 41.4062C107.107 41.7148 106.973 42.1055 106.973 42.5781V46H105.607V40H106.973V40.9961H106.996C107.445 40.2383 108.094 39.8594 108.941 39.8594C109.594 39.8594 110.092 40.0723 110.436 40.498C110.779 40.9199 110.951 41.5312 110.951 42.332V46ZM112.24 45.8125V44.5527C112.748 44.9395 113.309 45.1328 113.922 45.1328C114.742 45.1328 115.152 44.8906 115.152 44.4062C115.152 44.2695 115.117 44.1543 115.047 44.0605C114.977 43.9629 114.881 43.877 114.76 43.8027C114.643 43.7285 114.502 43.6621 114.338 43.6035C114.178 43.5449 113.998 43.4785 113.799 43.4043C113.553 43.3066 113.33 43.2031 113.131 43.0938C112.936 42.9844 112.771 42.8613 112.639 42.7246C112.51 42.584 112.412 42.4258 112.346 42.25C112.279 42.0742 112.246 41.8691 112.246 41.6348C112.246 41.3457 112.314 41.0918 112.451 40.873C112.588 40.6504 112.771 40.4648 113.002 40.3164C113.232 40.1641 113.494 40.0508 113.787 39.9766C114.08 39.8984 114.383 39.8594 114.695 39.8594C115.25 39.8594 115.746 39.9434 116.184 40.1113V41.3008C115.762 41.0117 115.277 40.8672 114.73 40.8672C114.559 40.8672 114.402 40.8848 114.262 40.9199C114.125 40.9551 114.008 41.0039 113.91 41.0664C113.812 41.1289 113.736 41.2051 113.682 41.2949C113.627 41.3809 113.6 41.4766 113.6 41.582C113.6 41.7109 113.627 41.8203 113.682 41.9102C113.736 42 113.816 42.0801 113.922 42.1504C114.031 42.2168 114.16 42.2793 114.309 42.3379C114.461 42.3926 114.635 42.4531 114.83 42.5195C115.088 42.625 115.318 42.7324 115.521 42.8418C115.729 42.9512 115.904 43.0762 116.049 43.2168C116.193 43.3535 116.305 43.5137 116.383 43.6973C116.461 43.877 116.5 44.0918 116.5 44.3418C116.5 44.6465 116.43 44.9121 116.289 45.1387C116.148 45.3652 115.961 45.5527 115.727 45.7012C115.492 45.8496 115.221 45.959 114.912 46.0293C114.607 46.1035 114.285 46.1406 113.945 46.1406C113.289 46.1406 112.721 46.0312 112.24 45.8125ZM120.959 45.9355C120.693 46.0684 120.344 46.1348 119.91 46.1348C118.746 46.1348 118.164 45.5762 118.164 44.459V41.0664H117.162V40H118.164V38.6113L119.523 38.2246V40H120.959V41.0664H119.523V44.0664C119.523 44.4219 119.588 44.6758 119.717 44.8281C119.846 44.9805 120.061 45.0566 120.361 45.0566C120.592 45.0566 120.791 44.9902 120.959 44.8574V45.9355ZM126.736 46H125.418V45.0625H125.395C124.98 45.7812 124.373 46.1406 123.572 46.1406C122.982 46.1406 122.52 45.9805 122.184 45.6602C121.852 45.3398 121.686 44.916 121.686 44.3887C121.686 43.2559 122.338 42.5957 123.643 42.4082L125.424 42.1562C125.424 41.3008 125.018 40.873 124.205 40.873C123.49 40.873 122.846 41.1191 122.271 41.6113V40.4219C122.904 40.0469 123.635 39.8594 124.463 39.8594C125.979 39.8594 126.736 40.6055 126.736 42.0977V46ZM125.424 43.0527L124.164 43.2285C123.773 43.2793 123.479 43.375 123.279 43.5156C123.084 43.6523 122.986 43.8945 122.986 44.2422C122.986 44.4961 123.076 44.7051 123.256 44.8691C123.439 45.0293 123.684 45.1094 123.988 45.1094C124.402 45.1094 124.744 44.9648 125.014 44.6758C125.287 44.3828 125.424 44.0156 125.424 43.5742V43.0527ZM129.766 46H128.4V37.1172H129.766V46ZM132.906 46H131.541V37.1172H132.906V46ZM139.762 43.3691H135.672C135.688 43.9238 135.857 44.3516 136.182 44.6523C136.51 44.9531 136.959 45.1035 137.529 45.1035C138.17 45.1035 138.758 44.9121 139.293 44.5293V45.625C138.746 45.9688 138.023 46.1406 137.125 46.1406C136.242 46.1406 135.549 45.8691 135.045 45.3262C134.545 44.7793 134.295 44.0117 134.295 43.0234C134.295 42.0898 134.57 41.3301 135.121 40.7441C135.676 40.1543 136.363 39.8594 137.184 39.8594C138.004 39.8594 138.639 40.123 139.088 40.6504C139.537 41.1777 139.762 41.9102 139.762 42.8477V43.3691ZM138.449 42.4082C138.445 41.9199 138.33 41.541 138.104 41.2715C137.877 40.998 137.564 40.8613 137.166 40.8613C136.775 40.8613 136.443 41.0039 136.17 41.2891C135.9 41.5742 135.734 41.9473 135.672 42.4082H138.449ZM144.537 41.2949C144.373 41.166 144.137 41.1016 143.828 41.1016C143.426 41.1016 143.09 41.2832 142.82 41.6465C142.551 42.0098 142.416 42.5039 142.416 43.1289V46H141.057V40H142.416V41.2363H142.439C142.572 40.8145 142.775 40.4863 143.049 40.252C143.326 40.0137 143.635 39.8945 143.975 39.8945C144.221 39.8945 144.408 39.9316 144.537 40.0059V41.2949Z" fill="white" fill-opacity="0.95"/>
<rect x="48.5" y="24.5" width="401" height="117" stroke="white" stroke-opacity="0.2"/>
</g>
<defs>
<filter id="filter0_dd_10225_365294" x="0" y="0" width="498" height="214" filterUnits="userSpaceOnUse" color-interpolation-filters="sRGB">
<feFlood flood-opacity="0" result="BackgroundImageFix"/>
<feColorMatrix in="SourceAlpha" type="matrix" values="0 0 0 0 0 0 0 0 0 0 0 0 0 0 0 0 0 0 127 0" result="hardAlpha"/>
<feOffset/>
<feGaussianBlur stdDeviation="0.5"/>
<feColorMatrix type="matrix" values="0 0 0 0 0 0 0 0 0 0 0 0 0 0 0 0 0 0 0.12 0"/>
<feBlend mode="normal" in2="BackgroundImageFix" result="effect1_dropShadow_10225_365294"/>
<feColorMatrix in="SourceAlpha" type="matrix" values="0 0 0 0 0 0 0 0 0 0 0 0 0 0 0 0 0 0 127 0" result="hardAlpha"/>
<feOffset dy="24"/>
<feGaussianBlur stdDeviation="24"/>
<feColorMatrix type="matrix" values="0 0 0 0 0 0 0 0 0 0 0 0 0 0 0 0 0 0 0.2 0"/>
<feBlend mode="normal" in2="effect1_dropShadow_10225_365294" result="effect2_dropShadow_10225_365294"/>
<feBlend mode="normal" in="SourceGraphic" in2="effect2_dropShadow_10225_365294" result="shape"/>
</filter>
</defs>
</svg>
