<svg width="460" height="203" viewBox="0 0 460 203" fill="none" xmlns="http://www.w3.org/2000/svg">
<g filter="url(#filter0_dd_10225_365705)">
<g clip-path="url(#clip0_10225_365705)">
<rect x="30" y="20" width="400" height="128" rx="11" fill="#1B1B1B"/>
<g filter="url(#filter1_d_10225_365705)">
<path d="M30 36C30 30.3995 30 27.5992 31.0899 25.4601C32.0487 23.5785 33.5785 22.0487 35.4601 21.0899C37.5992 20 40.3995 20 46 20H414C419.601 20 422.401 20 424.54 21.0899C426.422 22.0487 427.951 23.5785 428.91 25.4601C430 27.5992 430 30.3995 430 36V48H30V36Z" fill="#323232"/>
<path fill-rule="evenodd" clip-rule="evenodd" d="M44 40C47.3137 40 50 37.3137 50 34C50 30.6863 47.3137 28 44 28C40.6863 28 38 30.6863 38 34C38 37.3137 40.6863 40 44 40Z" fill="#FF453A"/>
<path d="M49.75 34C49.75 37.1756 47.1756 39.75 44 39.75C40.8244 39.75 38.25 37.1756 38.25 34C38.25 30.8244 40.8244 28.25 44 28.25C47.1756 28.25 49.75 30.8244 49.75 34Z" stroke="black" stroke-opacity="0.12" stroke-width="0.5"/>
<path fill-rule="evenodd" clip-rule="evenodd" d="M64 40C67.3137 40 70 37.3137 70 34C70 30.6863 67.3137 28 64 28C60.6863 28 58 30.6863 58 34C58 37.3137 60.6863 40 64 40Z" fill="#FFD60A"/>
<path d="M69.75 34C69.75 37.1756 67.1756 39.75 64 39.75C60.8244 39.75 58.25 37.1756 58.25 34C58.25 30.8244 60.8244 28.25 64 28.25C67.1756 28.25 69.75 30.8244 69.75 34Z" stroke="black" stroke-opacity="0.12" stroke-width="0.5"/>
<path fill-rule="evenodd" clip-rule="evenodd" d="M84 40C87.3137 40 90 37.3137 90 34C90 30.6863 87.3137 28 84 28C80.6863 28 78 30.6863 78 34C78 37.3137 80.6863 40 84 40Z" fill="#636366"/>
<path d="M89.75 34C89.75 37.1756 87.1756 39.75 84 39.75C80.8244 39.75 78.25 37.1756 78.25 34C78.25 30.8244 80.8244 28.25 84 28.25C87.1756 28.25 89.75 30.8244 89.75 34Z" stroke="black" stroke-opacity="0.12" stroke-width="0.5"/>
<path d="M186.919 32.8301H187.021L188.754 39H190.55L192.981 29.8403H191.001L189.585 36.3848H189.484L187.782 29.8403H186.164L184.494 36.3848H184.393L182.965 29.8403H180.971L183.396 39H185.205L186.919 32.8301ZM198.179 37.0259C197.982 37.502 197.48 37.7686 196.75 37.7686C195.786 37.7686 195.176 37.1021 195.151 36.0356V35.9404H199.956V35.3882C199.956 33.1792 198.737 31.8589 196.674 31.8589C194.592 31.8589 193.31 33.2681 193.31 35.5405C193.31 37.8003 194.567 39.146 196.7 39.146C198.414 39.146 199.626 38.3271 199.899 37.0259H198.179ZM196.681 33.2363C197.544 33.2363 198.103 33.833 198.141 34.7915H195.157C195.221 33.8521 195.824 33.2363 196.681 33.2363ZM205.547 39.1079C207.305 39.1079 208.385 37.7432 208.385 35.5024C208.385 33.249 207.318 31.897 205.547 31.897C204.589 31.897 203.802 32.3604 203.446 33.1284H203.332V29.3389H201.485V39H203.275V37.9019H203.389C203.763 38.6636 204.557 39.1079 205.547 39.1079ZM204.906 33.395C205.884 33.395 206.487 34.2012 206.487 35.5024C206.487 36.8164 205.89 37.6162 204.906 37.6162C203.928 37.6162 203.319 36.8101 203.313 35.5088C203.319 34.2075 203.935 33.395 204.906 33.395ZM214.363 37.0259C214.166 37.502 213.665 37.7686 212.935 37.7686C211.97 37.7686 211.36 37.1021 211.335 36.0356V35.9404H216.14V35.3882C216.14 33.1792 214.921 31.8589 212.858 31.8589C210.776 31.8589 209.494 33.2681 209.494 35.5405C209.494 37.8003 210.751 39.146 212.884 39.146C214.598 39.146 215.81 38.3271 216.083 37.0259H214.363ZM212.865 33.2363C213.728 33.2363 214.287 33.833 214.325 34.7915H211.341C211.405 33.8521 212.008 33.2363 212.865 33.2363ZM220.176 36.6958L221.484 39.0063H223.534L221.319 35.4771L223.521 32.0176H221.503L220.265 34.3408H220.151L218.913 32.0176H216.786L218.995 35.5532L216.805 39.0063H218.76L220.062 36.6958H220.176ZM230.216 39V29.8403H228.299V39H230.216ZM232.201 39H234.048V34.9565C234.048 34.0107 234.575 33.4014 235.432 33.4014C236.308 33.4014 236.721 33.9155 236.721 34.8994V39H238.568V34.4805C238.568 32.811 237.73 31.8589 236.175 31.8589C235.14 31.8589 234.429 32.3477 234.105 33.1348H233.991V32.0112H232.201V39ZM240.154 34.0488C240.154 35.1216 240.814 35.7627 242.172 36.061L243.442 36.3467C244.057 36.4863 244.324 36.7021 244.324 37.0576C244.324 37.521 243.829 37.8384 243.112 37.8384C242.375 37.8384 241.925 37.5527 241.785 37.0703H239.982C240.109 38.3906 241.226 39.146 243.073 39.146C244.908 39.146 246.158 38.2446 246.158 36.8608C246.158 35.8198 245.549 35.2485 244.191 34.9502L242.877 34.6646C242.229 34.5186 241.931 34.2964 241.931 33.9409C241.931 33.4839 242.42 33.1729 243.08 33.1729C243.765 33.1729 244.191 33.4585 244.286 33.9219H245.993C245.892 32.6016 244.844 31.8589 243.067 31.8589C241.322 31.8589 240.154 32.7412 240.154 34.0488ZM248.112 30.3418V32.0747H247.021V33.4775H248.112V37.1147C248.112 38.4731 248.785 39.0254 250.486 39.0254C250.842 39.0254 251.185 38.9873 251.413 38.9429V37.5781C251.235 37.5972 251.108 37.6099 250.867 37.6099C250.239 37.6099 249.959 37.3179 249.959 36.6895V33.4775H251.413V32.0747H249.959V30.3418H248.112ZM254.821 39.1079C255.728 39.1079 256.49 38.7207 256.852 38.0732H256.966V39H258.756V34.2266C258.756 32.7349 257.709 31.8589 255.855 31.8589C254.097 31.8589 252.91 32.665 252.789 33.9473H254.49C254.643 33.5093 255.087 33.2744 255.754 33.2744C256.515 33.2744 256.934 33.6235 256.934 34.2266V34.8042L255.24 34.9058C253.5 35.0073 252.529 35.7437 252.529 37.0068C252.529 38.2827 253.475 39.1079 254.821 39.1079ZM255.43 37.7559C254.789 37.7559 254.338 37.4321 254.338 36.8926C254.338 36.3784 254.725 36.0801 255.519 36.0293L256.934 35.9341V36.4546C256.934 37.1909 256.287 37.7559 255.43 37.7559ZM260.583 39H262.43V29.3389H260.583V39ZM264.365 39H266.212V29.3389H264.365V39ZM272.609 37.0259C272.413 37.502 271.911 37.7686 271.181 37.7686C270.216 37.7686 269.607 37.1021 269.582 36.0356V35.9404H274.387V35.3882C274.387 33.1792 273.168 31.8589 271.105 31.8589C269.023 31.8589 267.741 33.2681 267.741 35.5405C267.741 37.8003 268.998 39.146 271.13 39.146C272.844 39.146 274.057 38.3271 274.33 37.0259H272.609ZM271.111 33.2363C271.975 33.2363 272.533 33.833 272.571 34.7915H269.588C269.651 33.8521 270.254 33.2363 271.111 33.2363ZM275.852 39H277.699V35.0898C277.699 34.106 278.391 33.5029 279.4 33.5029C279.699 33.5029 280.13 33.5537 280.276 33.6045V31.9795C280.117 31.9287 279.806 31.897 279.553 31.897C278.664 31.897 277.94 32.4238 277.756 33.1221H277.642V32.0112H275.852V39Z" fill="#EBEBF5" fill-opacity="0.6"/>
</g>
</g>
<rect x="30.5" y="20.5" width="399" height="127" rx="10.5" stroke="white" stroke-opacity="0.15"/>
</g>
<defs>
<filter id="filter0_dd_10225_365705" x="0" y="0" width="460" height="203" filterUnits="userSpaceOnUse" color-interpolation-filters="sRGB">
<feFlood flood-opacity="0" result="BackgroundImageFix"/>
<feColorMatrix in="SourceAlpha" type="matrix" values="0 0 0 0 0 0 0 0 0 0 0 0 0 0 0 0 0 0 127 0" result="hardAlpha"/>
<feOffset dy="25"/>
<feGaussianBlur stdDeviation="15"/>
<feColorMatrix type="matrix" values="0 0 0 0 0 0 0 0 0 0 0 0 0 0 0 0 0 0 0.35 0"/>
<feBlend mode="normal" in2="BackgroundImageFix" result="effect1_dropShadow_10225_365705"/>
<feColorMatrix in="SourceAlpha" type="matrix" values="0 0 0 0 0 0 0 0 0 0 0 0 0 0 0 0 0 0 127 0" result="hardAlpha"/>
<feOffset/>
<feGaussianBlur stdDeviation="10"/>
<feColorMatrix type="matrix" values="0 0 0 0 0 0 0 0 0 0 0 0 0 0 0 0 0 0 0.15 0"/>
<feBlend mode="normal" in2="effect1_dropShadow_10225_365705" result="effect2_dropShadow_10225_365705"/>
<feBlend mode="normal" in="SourceGraphic" in2="effect2_dropShadow_10225_365705" result="shape"/>
</filter>
<filter id="filter1_d_10225_365705" x="30" y="20" width="400" height="29" filterUnits="userSpaceOnUse" color-interpolation-filters="sRGB">
<feFlood flood-opacity="0" result="BackgroundImageFix"/>
<feColorMatrix in="SourceAlpha" type="matrix" values="0 0 0 0 0 0 0 0 0 0 0 0 0 0 0 0 0 0 127 0" result="hardAlpha"/>
<feOffset dy="1"/>
<feColorMatrix type="matrix" values="0 0 0 0 0 0 0 0 0 0 0 0 0 0 0 0 0 0 0.6 0"/>
<feBlend mode="normal" in2="BackgroundImageFix" result="effect1_dropShadow_10225_365705"/>
<feBlend mode="normal" in="SourceGraphic" in2="effect1_dropShadow_10225_365705" result="shape"/>
</filter>
<clipPath id="clip0_10225_365705">
<rect x="30" y="20" width="400" height="128" rx="11" fill="white"/>
</clipPath>
</defs>
</svg>
