<svg width="1364" height="161" viewBox="0 0 1364 161" fill="none" xmlns="http://www.w3.org/2000/svg">
<g filter="url(#filter0_d_4758_482989)">
<path fill-rule="evenodd" clip-rule="evenodd" d="M118.632 70C114.845 70 110.885 78 108.996 78C107.108 78 102.952 70 99.3599 70C95.6152 70 122.42 70 118.632 70Z" fill="#08599C"/>
</g>
<g filter="url(#filter1_d_4758_482989)">
<rect x="16" y="8" width="186" height="62" rx="5" fill="#08599C"/>
<path d="M66.0801 45H64.8496V34.4971H66.0801V45ZM74.9131 45H73.7119V40.7227C73.7119 39.1309 73.1309 38.335 71.9688 38.335C71.3682 38.335 70.8701 38.562 70.4746 39.0161C70.084 39.4653 69.8887 40.0342 69.8887 40.7227V45H68.6875V37.5H69.8887V38.7451H69.918C70.4844 37.7979 71.3047 37.3242 72.3789 37.3242C73.1992 37.3242 73.8267 37.5903 74.2612 38.1226C74.6958 38.6499 74.9131 39.4141 74.9131 40.415V45ZM76.7295 44.729V43.4399C77.3154 43.9233 77.9648 44.165 78.6777 44.165C79.6299 44.165 80.106 43.8135 80.106 43.1104C80.106 42.8174 80.001 42.5757 79.791 42.3853C79.5811 42.1948 79.1709 41.9678 78.5605 41.7041C77.8428 41.3867 77.3594 41.062 77.1104 40.73C76.8662 40.3931 76.7441 39.9805 76.7441 39.4922C76.7441 38.8672 76.9907 38.3496 77.4839 37.9395C77.9771 37.5293 78.6118 37.3242 79.3882 37.3242C79.9839 37.3242 80.5186 37.4365 80.9922 37.6611V38.877C80.499 38.5156 79.9326 38.335 79.293 38.335C78.8926 38.335 78.5728 38.4326 78.3335 38.6279C78.0942 38.8232 77.9746 39.0771 77.9746 39.3896C77.9746 39.6924 78.0601 39.9365 78.231 40.1221C78.4067 40.3076 78.7974 40.5273 79.4028 40.7812C80.1401 41.0938 80.6455 41.4209 80.9189 41.7627C81.1973 42.1045 81.3364 42.5146 81.3364 42.9932C81.3364 43.6328 81.0898 44.1577 80.5967 44.5679C80.1035 44.9731 79.4346 45.1758 78.5898 45.1758C77.877 45.1758 77.2568 45.0269 76.7295 44.729ZM86.6392 44.9268C86.356 45.083 85.9824 45.1611 85.5186 45.1611C84.2051 45.1611 83.5483 44.4287 83.5483 42.9639V38.5254H82.2593V37.5H83.5483V35.6689L84.7495 35.2808V37.5H86.6392V38.5254H84.7495V42.7515C84.7495 43.2544 84.835 43.6133 85.0059 43.8281C85.1768 44.043 85.46 44.1504 85.8555 44.1504C86.1582 44.1504 86.4194 44.0674 86.6392 43.9014V44.9268ZM93.6118 45H92.4106V43.8281H92.3813C91.8589 44.7266 91.0898 45.1758 90.0742 45.1758C89.3271 45.1758 88.7412 44.978 88.3164 44.5825C87.8965 44.187 87.6865 43.6621 87.6865 43.0078C87.6865 41.6064 88.5117 40.791 90.1621 40.5615L92.4106 40.2466C92.4106 38.9722 91.8955 38.335 90.8652 38.335C89.9619 38.335 89.1465 38.6426 88.4189 39.2578V38.0273C89.1562 37.5586 90.0059 37.3242 90.9678 37.3242C92.7305 37.3242 93.6118 38.2568 93.6118 40.1221V45ZM92.4106 41.2061L90.6016 41.4551C90.0449 41.5332 89.625 41.6724 89.3418 41.8726C89.0586 42.0679 88.917 42.417 88.917 42.9199C88.917 43.2861 89.0464 43.5864 89.3052 43.8208C89.5688 44.0503 89.918 44.165 90.3525 44.165C90.9482 44.165 91.439 43.9575 91.8247 43.5425C92.2153 43.1226 92.4106 42.5928 92.4106 41.9531V41.2061ZM97.0762 45H95.875V33.8965H97.0762V45ZM100.709 45H99.5078V33.8965H100.709V45ZM120.982 34.4971L118.207 45H115.584L113.841 38.2617C113.749 37.9102 113.692 37.5171 113.673 37.0825H113.644C113.6 37.561 113.536 37.9541 113.453 38.2617L111.666 45H108.934L106.173 34.4971H108.758L110.238 41.4917C110.301 41.7896 110.348 42.1899 110.377 42.6929H110.421C110.44 42.3169 110.511 41.9067 110.633 41.4624L112.538 34.4971H115.072L116.793 41.5503C116.856 41.8091 116.913 42.1851 116.961 42.6782H116.991C117.01 42.2925 117.062 41.9019 117.145 41.5063L118.595 34.4971H120.982ZM128.417 41.9092H123.524C123.602 42.998 124.288 43.5425 125.582 43.5425C126.407 43.5425 127.132 43.3472 127.757 42.9565V44.6265C127.064 44.9976 126.163 45.1831 125.055 45.1831C123.844 45.1831 122.904 44.8486 122.235 44.1797C121.566 43.5059 121.231 42.5684 121.231 41.3672C121.231 40.1221 121.593 39.1357 122.315 38.4082C123.038 37.6807 123.927 37.3169 124.981 37.3169C126.075 37.3169 126.92 37.6416 127.516 38.291C128.116 38.9404 128.417 39.8218 128.417 40.9351V41.9092ZM126.271 40.4883C126.271 39.4141 125.836 38.877 124.967 38.877C124.596 38.877 124.273 39.0308 124 39.3384C123.731 39.646 123.568 40.0293 123.509 40.4883H126.271ZM132.137 44.1284H132.108V45H129.793V33.8965H132.108V38.6279H132.137C132.708 37.7539 133.521 37.3169 134.576 37.3169C135.543 37.3169 136.288 37.6489 136.81 38.313C137.333 38.9771 137.594 39.8853 137.594 41.0376C137.594 42.2876 137.289 43.291 136.678 44.0479C136.068 44.8047 135.252 45.1831 134.232 45.1831C133.309 45.1831 132.611 44.8315 132.137 44.1284ZM132.071 40.9644V41.7334C132.071 42.2168 132.21 42.6172 132.489 42.9346C132.767 43.252 133.124 43.4106 133.558 43.4106C134.085 43.4106 134.493 43.208 134.781 42.8027C135.074 42.3926 135.221 41.814 135.221 41.0669C135.221 40.4468 135.086 39.9634 134.818 39.6167C134.554 39.2651 134.176 39.0894 133.683 39.0894C133.219 39.0894 132.833 39.2627 132.525 39.6094C132.223 39.9561 132.071 40.4077 132.071 40.9644ZM145.833 41.9092H140.941C141.019 42.998 141.705 43.5425 142.999 43.5425C143.824 43.5425 144.549 43.3472 145.174 42.9565V44.6265C144.481 44.9976 143.58 45.1831 142.472 45.1831C141.261 45.1831 140.321 44.8486 139.652 44.1797C138.983 43.5059 138.648 42.5684 138.648 41.3672C138.648 40.1221 139.01 39.1357 139.732 38.4082C140.455 37.6807 141.344 37.3169 142.398 37.3169C143.492 37.3169 144.337 37.6416 144.933 38.291C145.533 38.9404 145.833 39.8218 145.833 40.9351V41.9092ZM143.688 40.4883C143.688 39.4141 143.253 38.877 142.384 38.877C142.013 38.877 141.69 39.0308 141.417 39.3384C141.148 39.646 140.985 40.0293 140.926 40.4883H143.688ZM154.454 37.5L151.979 41.1328L154.439 45H151.773L150.689 42.9785C150.602 42.8174 150.497 42.5903 150.375 42.2974H150.345C150.272 42.5024 150.172 42.7222 150.045 42.9565L148.954 45H146.295L148.829 41.2646L146.449 37.5H149.129L150.199 39.6021C150.34 39.8804 150.44 40.1147 150.499 40.3052H150.528C150.606 40.0757 150.711 39.8364 150.843 39.5874L151.935 37.5H154.454Z" fill="white"/>
</g>
<rect y="97" width="1364" height="64" fill="#353535"/>
<path d="M1339.2 129L1343.61 124.853C1343.66 124.807 1343.7 124.752 1343.73 124.691C1343.76 124.63 1343.77 124.565 1343.77 124.5C1343.77 124.434 1343.76 124.369 1343.73 124.308C1343.7 124.248 1343.66 124.193 1343.61 124.146C1343.56 124.1 1343.51 124.063 1343.44 124.038C1343.38 124.013 1343.31 124 1343.24 124C1343.17 124 1343.1 124.013 1343.03 124.038C1342.97 124.063 1342.91 124.1 1342.86 124.146L1338.45 128.293L1334.03 124.146C1333.98 124.099 1333.92 124.062 1333.86 124.037C1333.79 124.011 1333.72 123.998 1333.65 123.998C1333.58 123.998 1333.51 124.01 1333.45 124.036C1333.38 124.061 1333.32 124.098 1333.28 124.144C1333.23 124.191 1333.19 124.246 1333.16 124.307C1333.13 124.368 1333.12 124.433 1333.12 124.499C1333.12 124.565 1333.13 124.63 1333.16 124.691C1333.19 124.752 1333.23 124.807 1333.28 124.853L1337.69 129L1333.28 133.146C1333.23 133.193 1333.19 133.248 1333.16 133.308C1333.14 133.369 1333.12 133.434 1333.12 133.5C1333.12 133.565 1333.14 133.63 1333.16 133.691C1333.19 133.752 1333.23 133.807 1333.28 133.853C1333.33 133.9 1333.39 133.937 1333.45 133.962C1333.51 133.987 1333.58 134 1333.65 134C1333.72 134 1333.79 133.987 1333.86 133.962C1333.92 133.937 1333.98 133.9 1334.03 133.853L1338.45 129.707L1342.86 133.853C1342.96 133.947 1343.1 134 1343.24 134C1343.38 134 1343.51 133.947 1343.61 133.853C1343.71 133.76 1343.77 133.632 1343.77 133.5C1343.77 133.367 1343.71 133.24 1343.61 133.146L1339.2 129Z" fill="white"/>
<path d="M17.0366 123.385C17.0366 120.963 18.9994 119 21.4207 119H32.6243C35.0456 119 37.0084 120.963 37.0084 123.385V134.591C37.0084 137.012 35.0456 138.976 32.6243 138.976H21.4207C18.9994 138.976 17.0366 137.012 17.0366 134.591V123.385Z" fill="url(#paint0_linear_4758_482989)"/>
<path d="M19.6384 124.593C18.7974 124.656 18.1043 125.531 18.2289 126.428C18.2678 126.756 18.3535 127.264 18.4625 127.818C18.5093 128.068 18.5638 128.334 18.6183 128.591C18.7542 129.214 18.9232 129.829 19.1245 130.434C19.3406 131.105 19.6034 131.76 19.911 132.394C21.0869 134.69 22.6755 135.174 23.8047 135.174C24.335 135.179 24.8602 135.069 25.345 134.854C25.8299 134.638 26.2632 134.322 26.616 133.925C26.419 133.672 26.2444 133.403 26.0942 133.12C25.5958 132.199 25.2766 131.137 25.004 130.028C24.879 130.47 24.7121 130.899 24.5056 131.309C24.1785 131.918 23.9527 131.918 23.8047 131.918C23.4854 131.918 23.1506 131.574 22.8079 130.911C22.6314 130.547 22.4754 130.175 22.3407 129.794C22.2472 129.521 22.1538 129.24 22.0759 128.966C21.998 128.693 21.8579 128.209 21.7956 127.904C21.632 127.162 21.4373 125.944 21.4296 125.905C21.3595 125.554 20.9467 124.484 19.6384 124.593Z" fill="white"/>
<path d="M33.2899 127.873C34.1231 127.553 34.4736 126.538 34.0998 125.718L34.0686 125.64C33.9179 125.306 33.7408 124.985 33.5391 124.679V124.679C33.4427 124.519 33.3333 124.368 33.212 124.226C32.1451 122.915 30.8913 122.68 30.1282 122.68C29.5979 122.676 29.0729 122.786 28.5882 123.001C28.1034 123.216 27.67 123.533 27.3169 123.93C27.5017 124.165 27.6659 124.416 27.8075 124.679C28.3293 125.624 28.6563 126.92 28.9289 128.021C29.0769 127.522 29.2482 126.881 29.4429 126.522C29.7622 125.936 29.9802 125.936 30.1282 125.936C30.5721 125.936 30.9303 126.592 31.1016 126.975C31.1016 126.975 31.7168 128.49 33.2899 127.873Z" fill="white"/>
<path d="M34.3098 124.593L34.1619 124.578H34.1229C34.2853 124.85 34.431 125.131 34.559 125.421L34.598 125.499C34.8326 126.024 34.8505 126.621 34.6477 127.16C34.4449 127.698 34.0379 128.134 33.5155 128.373C33.2336 128.499 32.9287 128.566 32.6199 128.568C32.4091 128.564 32.1996 128.533 31.9969 128.474C31.7789 129.294 31.4362 130.301 31.1247 130.91C30.8132 131.52 30.4472 131.918 30.1202 131.918C29.98 131.918 29.7542 131.918 29.4271 131.309C29.2205 130.899 29.0537 130.47 28.9287 130.028C28.8274 129.685 28.734 129.318 28.6405 128.935C28.6016 128.794 28.5705 128.654 28.5393 128.513C28.2434 127.28 27.9085 125.983 27.3323 124.945C27.222 124.745 27.0997 124.552 26.9662 124.367C26.8571 124.215 26.7402 124.069 26.6158 123.93C26.2618 123.532 25.8272 123.215 25.341 122.999C24.8548 122.784 24.3283 122.675 23.7967 122.68C23.0414 122.68 21.7876 122.915 20.7207 124.226C21.0572 124.378 21.3495 124.613 21.5703 124.91C21.791 125.206 21.9328 125.554 21.9823 125.921C22.0368 126.311 22.1692 127.069 22.3249 127.787C22.3405 127.865 22.3561 127.943 22.3794 128.029C22.4962 127.725 22.6131 127.467 22.7377 127.178L22.8311 126.975C23.0024 126.592 23.3607 125.936 23.7967 125.936C23.9525 125.936 24.1705 125.936 24.4898 126.522C24.705 126.941 24.8772 127.38 25.0038 127.834C25.105 128.185 25.2063 128.56 25.2919 128.935C25.3231 129.044 25.3465 129.154 25.3698 129.263C25.6813 130.567 26.0084 131.824 26.5691 132.863C26.6852 133.083 26.8179 133.295 26.9662 133.495C27.0753 133.644 27.1923 133.788 27.3167 133.925C28.2434 134.932 29.3103 135.174 30.1202 135.174C31.2493 135.174 32.8458 134.69 34.0217 132.394C34.6213 131.215 35.1275 129.474 35.3144 128.591C35.5013 127.709 35.6415 126.913 35.7038 126.428C35.7333 126.216 35.7207 126 35.6665 125.792C35.6123 125.585 35.5177 125.39 35.3881 125.22C35.2585 125.049 35.0965 124.906 34.9114 124.798C34.7264 124.691 34.5219 124.621 34.3098 124.593V124.593Z" fill="white"/>
<path d="M57.9429 125.197L55.1743 135H53.8276L51.811 127.836C51.7244 127.531 51.672 127.198 51.6538 126.838H51.6265C51.5991 127.175 51.5399 127.503 51.4487 127.822L49.4185 135H48.0854L45.2144 125.197H46.479L48.564 132.717C48.6506 133.031 48.7052 133.359 48.728 133.701H48.7622C48.785 133.46 48.8556 133.132 48.9741 132.717L51.1411 125.197H52.2417L54.3198 132.771C54.3927 133.031 54.4474 133.337 54.4839 133.688H54.5112C54.5295 133.451 54.591 133.136 54.6958 132.744L56.6987 125.197H57.9429ZM64.5396 131.78H59.5972C59.6154 132.56 59.825 133.161 60.2261 133.585C60.6271 134.009 61.1785 134.221 61.8804 134.221C62.6688 134.221 63.3934 133.961 64.0542 133.441V134.494C63.439 134.941 62.6255 135.164 61.6138 135.164C60.6248 135.164 59.8478 134.847 59.2827 134.214C58.7176 133.576 58.4351 132.68 58.4351 131.527C58.4351 130.438 58.7427 129.552 59.3579 128.868C59.9777 128.18 60.7456 127.836 61.6616 127.836C62.5776 127.836 63.2863 128.132 63.7876 128.725C64.2889 129.317 64.5396 130.14 64.5396 131.192V131.78ZM63.3911 130.83C63.3866 130.183 63.2293 129.679 62.9194 129.319C62.6141 128.959 62.188 128.779 61.6411 128.779C61.1125 128.779 60.6636 128.968 60.2944 129.347C59.9253 129.725 59.6974 130.219 59.6108 130.83H63.3911ZM67.3901 133.988H67.3628V135H66.2417V124.637H67.3628V129.23H67.3901C67.9416 128.301 68.7482 127.836 69.8101 127.836C70.7078 127.836 71.4097 128.15 71.9155 128.779C72.4259 129.404 72.6812 130.242 72.6812 131.295C72.6812 132.466 72.3963 133.405 71.8267 134.111C71.257 134.813 70.4777 135.164 69.4888 135.164C68.5636 135.164 67.8641 134.772 67.3901 133.988ZM67.3628 131.165V132.143C67.3628 132.721 67.5496 133.214 67.9233 133.619C68.3016 134.02 68.7801 134.221 69.3589 134.221C70.0379 134.221 70.5688 133.961 70.9517 133.441C71.339 132.922 71.5327 132.2 71.5327 131.274C71.5327 130.495 71.3527 129.884 70.9927 129.442C70.6326 129 70.145 128.779 69.5298 128.779C68.8781 128.779 68.354 129.007 67.9575 129.463C67.561 129.914 67.3628 130.481 67.3628 131.165ZM80.0981 131.78H75.1558C75.174 132.56 75.3836 133.161 75.7847 133.585C76.1857 134.009 76.7371 134.221 77.439 134.221C78.2274 134.221 78.952 133.961 79.6128 133.441V134.494C78.9976 134.941 78.1841 135.164 77.1724 135.164C76.1834 135.164 75.4064 134.847 74.8413 134.214C74.2762 133.576 73.9937 132.68 73.9937 131.527C73.9937 130.438 74.3013 129.552 74.9165 128.868C75.5363 128.18 76.3042 127.836 77.2202 127.836C78.1362 127.836 78.8449 128.132 79.3462 128.725C79.8475 129.317 80.0981 130.14 80.0981 131.192V131.78ZM78.9497 130.83C78.9451 130.183 78.7879 129.679 78.478 129.319C78.1727 128.959 77.7466 128.779 77.1997 128.779C76.6711 128.779 76.2222 128.968 75.853 129.347C75.4839 129.725 75.256 130.219 75.1694 130.83H78.9497ZM86.9136 128L84.562 131.541L86.8726 135H85.5669L84.1929 132.73C84.1063 132.589 84.0037 132.411 83.8853 132.197H83.8579C83.8351 132.238 83.728 132.416 83.5366 132.73L82.1353 135H80.8433L83.229 131.568L80.9458 128H82.2515L83.605 130.393C83.7052 130.57 83.8032 130.753 83.8989 130.939H83.9263L85.6763 128H86.9136ZM92.6421 126.223C92.4416 126.223 92.2707 126.154 92.1294 126.018C91.9881 125.881 91.9175 125.708 91.9175 125.498C91.9175 125.288 91.9881 125.115 92.1294 124.979C92.2707 124.837 92.4416 124.767 92.6421 124.767C92.8472 124.767 93.0203 124.837 93.1616 124.979C93.3075 125.115 93.3804 125.288 93.3804 125.498C93.3804 125.699 93.3075 125.869 93.1616 126.011C93.0203 126.152 92.8472 126.223 92.6421 126.223ZM93.189 135H92.0679V128H93.189V135ZM101.269 135H100.148V131.008C100.148 129.522 99.6056 128.779 98.521 128.779C97.9604 128.779 97.4956 128.991 97.1265 129.415C96.7619 129.834 96.5796 130.365 96.5796 131.008V135H95.4585V128H96.5796V129.162H96.6069C97.1356 128.278 97.9012 127.836 98.9038 127.836C99.6694 127.836 100.255 128.084 100.661 128.581C101.066 129.073 101.269 129.786 101.269 130.721V135ZM102.964 134.747V133.544C103.511 133.995 104.117 134.221 104.783 134.221C105.671 134.221 106.116 133.893 106.116 133.236C106.116 132.963 106.018 132.737 105.822 132.56C105.626 132.382 105.243 132.17 104.673 131.924C104.003 131.628 103.552 131.325 103.32 131.015C103.092 130.7 102.978 130.315 102.978 129.859C102.978 129.276 103.208 128.793 103.668 128.41C104.129 128.027 104.721 127.836 105.446 127.836C106.002 127.836 106.501 127.941 106.943 128.15V129.285C106.483 128.948 105.954 128.779 105.357 128.779C104.983 128.779 104.685 128.87 104.461 129.053C104.238 129.235 104.126 129.472 104.126 129.764C104.126 130.046 104.206 130.274 104.366 130.447C104.53 130.62 104.894 130.826 105.459 131.062C106.148 131.354 106.619 131.66 106.875 131.979C107.134 132.298 107.264 132.68 107.264 133.127C107.264 133.724 107.034 134.214 106.574 134.597C106.113 134.975 105.489 135.164 104.701 135.164C104.035 135.164 103.457 135.025 102.964 134.747ZM112.213 134.932C111.949 135.077 111.6 135.15 111.167 135.15C109.942 135.15 109.329 134.467 109.329 133.1V128.957H108.125V128H109.329V126.291L110.45 125.929V128H112.213V128.957H110.45V132.901C110.45 133.371 110.529 133.706 110.689 133.906C110.848 134.107 111.113 134.207 111.482 134.207C111.764 134.207 112.008 134.13 112.213 133.975V134.932ZM118.721 135H117.6V133.906H117.573C117.085 134.745 116.367 135.164 115.419 135.164C114.722 135.164 114.175 134.979 113.779 134.61C113.387 134.241 113.191 133.751 113.191 133.141C113.191 131.833 113.961 131.072 115.501 130.857L117.6 130.563C117.6 129.374 117.119 128.779 116.158 128.779C115.315 128.779 114.554 129.066 113.875 129.641V128.492C114.563 128.055 115.356 127.836 116.253 127.836C117.899 127.836 118.721 128.706 118.721 130.447V135ZM117.6 131.459L115.912 131.691C115.392 131.764 115 131.894 114.736 132.081C114.472 132.263 114.339 132.589 114.339 133.059C114.339 133.4 114.46 133.681 114.702 133.899C114.948 134.114 115.274 134.221 115.679 134.221C116.235 134.221 116.693 134.027 117.053 133.64C117.418 133.248 117.6 132.753 117.6 132.156V131.459ZM121.955 135H120.833V124.637H121.955V135ZM125.345 135H124.224V124.637H125.345V135ZM133.241 131.78H128.298C128.317 132.56 128.526 133.161 128.927 133.585C129.328 134.009 129.88 134.221 130.582 134.221C131.37 134.221 132.095 133.961 132.755 133.441V134.494C132.14 134.941 131.327 135.164 130.315 135.164C129.326 135.164 128.549 134.847 127.984 134.214C127.419 133.576 127.136 132.68 127.136 131.527C127.136 130.438 127.444 129.552 128.059 128.868C128.679 128.18 129.447 127.836 130.363 127.836C131.279 127.836 131.987 128.132 132.489 128.725C132.99 129.317 133.241 130.14 133.241 131.192V131.78ZM132.092 130.83C132.088 130.183 131.931 129.679 131.621 129.319C131.315 128.959 130.889 128.779 130.342 128.779C129.814 128.779 129.365 128.968 128.996 129.347C128.626 129.725 128.399 130.219 128.312 130.83H132.092ZM138.593 129.135C138.397 128.984 138.115 128.909 137.746 128.909C137.267 128.909 136.866 129.135 136.542 129.586C136.223 130.037 136.064 130.652 136.064 131.432V135H134.943V128H136.064V129.442H136.091C136.251 128.95 136.495 128.567 136.823 128.294C137.151 128.016 137.518 127.877 137.923 127.877C138.215 127.877 138.438 127.909 138.593 127.973V129.135Z" fill="white"/>
<path fill-rule="evenodd" clip-rule="evenodd" d="M191.781 131.206C191.598 131.39 191.301 131.39 191.118 131.206L187.699 127.788L184.281 131.206C184.098 131.39 183.801 131.39 183.618 131.206C183.435 131.023 183.435 130.727 183.618 130.544L187.313 126.849C187.526 126.635 187.872 126.635 188.086 126.849L191.781 130.544C191.964 130.727 191.964 131.023 191.781 131.206Z" fill="white" fill-opacity="0.95"/>
<line x1="209.199" y1="109" x2="209.199" y2="149" stroke="#727272"/>
<defs>
<filter id="filter0_d_4758_482989" x="83" y="62" width="52" height="40" filterUnits="userSpaceOnUse" color-interpolation-filters="sRGB">
<feFlood flood-opacity="0" result="BackgroundImageFix"/>
<feColorMatrix in="SourceAlpha" type="matrix" values="0 0 0 0 0 0 0 0 0 0 0 0 0 0 0 0 0 0 127 0" result="hardAlpha"/>
<feOffset dy="8"/>
<feGaussianBlur stdDeviation="8"/>
<feColorMatrix type="matrix" values="0 0 0 0 0 0 0 0 0 0 0 0 0 0 0 0 0 0 0.08 0"/>
<feBlend mode="normal" in2="BackgroundImageFix" result="effect1_dropShadow_4758_482989"/>
<feBlend mode="normal" in="SourceGraphic" in2="effect1_dropShadow_4758_482989" result="shape"/>
</filter>
<filter id="filter1_d_4758_482989" x="0" y="0" width="218" height="94" filterUnits="userSpaceOnUse" color-interpolation-filters="sRGB">
<feFlood flood-opacity="0" result="BackgroundImageFix"/>
<feColorMatrix in="SourceAlpha" type="matrix" values="0 0 0 0 0 0 0 0 0 0 0 0 0 0 0 0 0 0 127 0" result="hardAlpha"/>
<feOffset dy="8"/>
<feGaussianBlur stdDeviation="8"/>
<feColorMatrix type="matrix" values="0 0 0 0 0 0 0 0 0 0 0 0 0 0 0 0 0 0 0.08 0"/>
<feBlend mode="normal" in2="BackgroundImageFix" result="effect1_dropShadow_4758_482989"/>
<feBlend mode="normal" in="SourceGraphic" in2="effect1_dropShadow_4758_482989" result="shape"/>
</filter>
<linearGradient id="paint0_linear_4758_482989" x1="27.0225" y1="119" x2="27.0225" y2="138.976" gradientUnits="userSpaceOnUse">
<stop stop-color="#313131"/>
<stop offset="1" stop-color="#070707"/>
<stop offset="1" stop-color="#020202"/>
</linearGradient>
</defs>
</svg>
