<svg width="32" height="32" viewBox="0 0 32 32" fill="none" xmlns="http://www.w3.org/2000/svg">
<path d="M24.1905 12.3781C25.1178 12.3781 25.8696 13.0609 25.8696 13.9033C25.8696 14.7457 25.1178 15.4285 24.1905 15.4285C23.2631 15.4285 22.5113 14.7457 22.5113 13.9033C22.5113 13.0609 23.2631 12.3781 24.1905 12.3781Z" fill="url(#paint0_linear)"/>
<path d="M7.82992 12.3781C8.7573 12.3781 9.50909 13.0609 9.50909 13.9033C9.50909 14.7457 8.7573 15.4285 7.82992 15.4285C6.90254 15.4285 6.15076 14.7457 6.15076 13.9033C6.15076 13.0609 6.90254 12.3781 7.82992 12.3781Z" fill="url(#paint1_linear)"/>
<path d="M14.5391 0.164062C14.5335 0.29548 14.5057 0.395637 14.4867 0.504432C14.4678 0.613226 14.4575 0.730658 14.487 0.896627C14.5786 1.70673 14.5331 2.34633 14.3895 2.9119C14.2459 3.47747 14.0044 3.96879 13.7043 4.48295C9.85222 10.4303 -1.06095 12.3495 1.49558 22.8896C1.75165 23.9457 1.8608 24.5349 2.69559 25.7175C8.00379 35.1534 31.2282 34.0646 30.6088 20.1132C28.666 17.4013 26.2873 11.6214 28.5218 7.97919C25.8365 7.81322 23.7335 11.066 21.4261 11.2698C21.4787 5.25377 18.6511 2.07609 14.5391 0.164062Z" fill="url(#paint2_linear)"/>
<path d="M19.3013 10.0491C17.2465 10.9908 15.3684 12.0924 13.6733 13.3606C11.9782 14.6287 10.4662 16.0631 9.14448 17.6704C8.27806 17.4213 7.69846 16.9117 7.15596 16.3682C6.61345 15.8247 6.10826 15.2472 5.39088 14.8626C1.75033 18.678 7.16943 22.0424 5.17008 27.2973C9.91022 34.4429 25.9741 31.9397 28.5749 24.8906C27.7224 19.247 21.1533 18.7962 19.0805 14.2609C18.5285 13.0074 19.0886 11.9996 19.3013 10.0491Z" fill="url(#paint3_linear)"/>
<path d="M15.8435 22.7119C12.2875 25.6591 11.6835 27.9955 11.6835 28.8756C11.6835 30.4288 13.5461 31.688 15.8435 31.688C18.1412 31.688 20.0035 30.4288 20.0035 28.8756C20.0035 27.9602 19.419 25.5754 15.8435 22.7119Z" fill="#FFFFAB"/>
<defs>
<linearGradient id="paint0_linear" x1="24.1905" y1="13.9033" x2="62.3577" y2="13.9033" gradientUnits="userSpaceOnUse">
<stop offset="0.777" stop-color="#DC4C23"/>
<stop offset="0.913" stop-color="#CE3F31"/>
<stop offset="1" stop-color="#BF3240"/>
</linearGradient>
<linearGradient id="paint1_linear" x1="7.82992" y1="13.9033" x2="45.9972" y2="13.9033" gradientUnits="userSpaceOnUse">
<stop offset="0.777" stop-color="#FF6900"/>
<stop offset="0.913" stop-color="#DF4E20"/>
<stop offset="1" stop-color="#BF3240"/>
</linearGradient>
<linearGradient id="paint2_linear" x1="16.6449" y1="34.3552" x2="15.6846" y2="1.9134" gradientUnits="userSpaceOnUse">
<stop offset="0.054" stop-color="#FFFFB5"/>
<stop offset="0.317" stop-color="#FFB45B"/>
<stop offset="0.777" stop-color="#FF6900"/>
<stop offset="0.913" stop-color="#DF4E20"/>
<stop offset="1" stop-color="#BF3240"/>
</linearGradient>
<linearGradient id="paint3_linear" x1="16.0061" y1="34.3289" x2="16.0061" y2="-14.7521" gradientUnits="userSpaceOnUse">
<stop offset="0.054" stop-color="#FFFFB5"/>
<stop offset="0.317" stop-color="#FFB45B"/>
<stop offset="0.777" stop-color="#FF6900"/>
<stop offset="0.913" stop-color="#DF4E20"/>
<stop offset="1" stop-color="#BF3240"/>
</linearGradient>
</defs>
</svg>
