<svg width="32" height="32" viewBox="0 0 32 32" fill="none" xmlns="http://www.w3.org/2000/svg">
<g clip-path="url(#clip0)">
<path d="M27.3134 27.3134C21.065 33.5618 10.9342 33.5618 4.68581 27.3134C-1.56259 21.065 -1.56259 10.9342 4.68581 4.68581C10.9342 -1.56259 21.065 -1.56259 27.3134 4.68581C33.5618 10.9342 33.5618 21.065 27.3134 27.3134Z" fill="url(#paint0_radial)"/>
<path d="M25.9888 18.1752C23.7662 18.0848 7.97704 18.0848 5.75444 18.1752C5.23524 18.1964 4.84924 18.5914 4.89664 19.041C5.34124 23.244 8.96424 29.8934 15.8716 29.8934C22.779 29.8934 26.402 23.244 26.8466 19.041C26.894 18.5914 26.508 18.1964 25.9888 18.1752Z" fill="url(#paint1_linear)"/>
<path d="M25.9888 17.1966C23.7662 17.1062 7.97704 17.1062 5.75444 17.1966C5.23524 17.2178 4.84924 17.6128 4.89664 18.0624C5.34124 22.2654 8.96424 28.9148 15.8716 28.9148C22.779 28.9148 26.402 22.2654 26.8466 18.0624C26.894 17.6128 26.508 17.2178 25.9888 17.1966Z" fill="url(#paint2_linear)"/>
<path d="M16.0188 17.1473H6.55743C6.63163 17.3955 6.72323 17.5851 6.83203 17.6713C8.80323 19.2057 12.407 19.9731 16.0188 19.9789C19.6306 19.9731 23.2344 19.2057 25.2056 17.6713C25.3144 17.5851 25.406 17.3955 25.4802 17.1473H16.0188Z" fill="url(#paint3_linear)"/>
<path d="M6.64804 14.9766C6.46144 14.9766 6.27485 14.906 6.13185 14.7644C5.84385 14.4792 5.84125 14.0146 6.12644 13.7264C7.54704 12.291 9.53904 11.725 10.9536 11.5026C9.96324 10.8082 8.55864 10.1664 7.34085 10.2478C6.93605 10.2756 6.58685 9.96821 6.56025 9.56381C6.53365 9.15941 6.84004 8.80981 7.24444 8.78321C9.76324 8.61661 12.4596 10.543 13.2618 11.6678C13.4228 11.8934 13.443 12.1904 13.314 12.4356C13.185 12.681 12.9292 12.8334 12.6518 12.8278C12.6178 12.824 9.10864 12.7996 7.16965 14.759C7.02605 14.904 6.83704 14.9766 6.64804 14.9766Z" fill="url(#paint4_linear)"/>
<path d="M6.64804 14.4218C6.46144 14.4218 6.27485 14.3512 6.13185 14.2096C5.84385 13.9244 5.84125 13.4598 6.12644 13.1716C7.54704 11.7362 9.53904 11.1702 10.9536 10.9478C9.96324 10.2534 8.55864 9.6116 7.34085 9.693C6.93605 9.7208 6.58685 9.4134 6.56025 9.009C6.53365 8.6046 6.84004 8.255 7.24444 8.2284C9.76324 8.0618 12.4596 9.9882 13.2618 11.113C13.4228 11.3386 13.443 11.6356 13.314 11.8808C13.185 12.1262 12.9292 12.2786 12.6518 12.273C12.6178 12.2692 9.10864 12.2448 7.16965 14.2042C7.02605 14.3492 6.83704 14.4218 6.64804 14.4218Z" fill="url(#paint5_linear)"/>
<path d="M25.0954 14.9766C25.282 14.9766 25.4686 14.906 25.6116 14.7644C25.8996 14.4792 25.9022 14.0146 25.617 13.7264C24.1964 12.291 22.2044 11.725 20.7898 11.5026C21.7802 10.8082 23.1848 10.1664 24.4026 10.2478C24.8074 10.2756 25.1566 9.96821 25.1832 9.56381C25.2098 9.15941 24.9034 8.80981 24.499 8.78321C21.9802 8.61661 19.2838 10.543 18.4816 11.6678C18.3206 11.8934 18.3004 12.1904 18.4294 12.4356C18.5584 12.681 18.8142 12.8334 19.0916 12.8278C19.1256 12.824 22.6348 12.7996 24.5738 14.759C24.7174 14.904 24.9064 14.9766 25.0954 14.9766Z" fill="url(#paint6_linear)"/>
<path d="M25.0954 14.4218C25.282 14.4218 25.4686 14.3512 25.6116 14.2096C25.8996 13.9244 25.9022 13.4598 25.617 13.1716C24.1964 11.7362 22.2044 11.1702 20.7898 10.9478C21.7802 10.2534 23.1848 9.6116 24.4026 9.693C24.8074 9.7208 25.1566 9.4134 25.1832 9.009C25.2098 8.6046 24.9034 8.255 24.499 8.2284C21.9802 8.0618 19.2838 9.9882 18.4816 11.113C18.3206 11.3386 18.3004 11.6356 18.4294 11.8808C18.5584 12.1262 18.8142 12.2786 19.0916 12.273C19.1256 12.2692 22.6348 12.2448 24.5738 14.2042C24.7174 14.3492 24.9064 14.4218 25.0954 14.4218Z" fill="url(#paint7_linear)"/>
</g>
<defs>
<radialGradient id="paint0_radial" cx="0" cy="0" r="1" gradientUnits="userSpaceOnUse" gradientTransform="translate(12.1996 13.5996) scale(23.3632)">
<stop stop-color="#FFEF70"/>
<stop offset="0.558" stop-color="#F8C340"/>
<stop offset="0.854" stop-color="#F19710"/>
<stop offset="0.92" stop-color="#EC9411"/>
<stop offset="0.985" stop-color="#E69212"/>
</radialGradient>
<linearGradient id="paint1_linear" x1="15.8" y1="22.4" x2="15.8" y2="37.9214" gradientUnits="userSpaceOnUse">
<stop stop-color="#F7C234"/>
<stop offset="0.5" stop-color="#F5BD36"/>
<stop offset="1" stop-color="#F3B938"/>
</linearGradient>
<linearGradient id="paint2_linear" x1="15.8" y1="29.4" x2="15.8" y2="21.4358" gradientUnits="userSpaceOnUse">
<stop stop-color="#E08713"/>
<stop offset="0.5" stop-color="#AC6B13"/>
<stop offset="1" stop-color="#784F12"/>
</linearGradient>
<linearGradient id="paint3_linear" x1="16" y1="16.5999" x2="16" y2="20.7001" gradientUnits="userSpaceOnUse">
<stop stop-color="#7A5011"/>
<stop offset="0.162" stop-color="#BCA888"/>
<stop offset="1" stop-color="white"/>
</linearGradient>
<linearGradient id="paint4_linear" x1="9.60004" y1="9.20001" x2="9.60004" y2="13.12" gradientUnits="userSpaceOnUse">
<stop stop-color="#FBCF37"/>
<stop offset="0.5" stop-color="#FCDD52"/>
<stop offset="1" stop-color="#FEEB6C"/>
</linearGradient>
<linearGradient id="paint5_linear" x1="9.40004" y1="11.6976" x2="9.91425" y2="13.636" gradientUnits="userSpaceOnUse">
<stop stop-color="#784F12"/>
<stop offset="0.5" stop-color="#AB6A11"/>
<stop offset="1" stop-color="#DE8510"/>
</linearGradient>
<linearGradient id="paint6_linear" x1="22" y1="9.80001" x2="21.868" y2="14.1156" gradientUnits="userSpaceOnUse">
<stop stop-color="#F7BE2B"/>
<stop offset="0.5" stop-color="#FAD44B"/>
<stop offset="1" stop-color="#FEEB6C"/>
</linearGradient>
<linearGradient id="paint7_linear" x1="22.2" y1="11.4976" x2="21.5836" y2="13.6114" gradientUnits="userSpaceOnUse">
<stop stop-color="#784F12"/>
<stop offset="0.5" stop-color="#AB6A11"/>
<stop offset="1" stop-color="#DE8510"/>
</linearGradient>
<clipPath id="clip0">
<rect width="32" height="32" fill="white"/>
</clipPath>
</defs>
</svg>
