<svg width="32" height="32" viewBox="0 0 32 32" fill="none" xmlns="http://www.w3.org/2000/svg">
<g clip-path="url(#clip0)">
<path d="M27.3134 27.3134C21.065 33.5618 10.9342 33.5618 4.68581 27.3134C-1.56259 21.065 -1.56259 10.9342 4.68581 4.68581C10.9342 -1.56259 21.065 -1.56259 27.3134 4.68581C33.5618 10.9342 33.5618 21.065 27.3134 27.3134Z" fill="url(#paint0_radial)"/>
<path d="M13.0184 12.36C13.0184 11.047 11.9542 9.98279 10.6412 9.98279C9.32824 9.98279 8.26404 11.047 8.26404 12.36C8.26404 13.673 9.32824 14.7372 10.6412 14.7372C11.9542 14.7372 13.0184 13.673 13.0184 12.36Z" fill="url(#paint1_linear)"/>
<path d="M23.3808 12.36C23.3808 11.047 22.3166 9.98279 21.0036 9.98279C19.6906 9.98279 18.6264 11.047 18.6264 12.36C18.6264 13.673 19.6906 14.7372 21.0036 14.7372C22.3166 14.7372 23.3808 13.673 23.3808 12.36Z" fill="url(#paint2_linear)"/>
<path d="M15.8948 26.5218C12.9708 26.5218 10.2514 25.2062 8.43359 22.912C7.56439 21.8154 7.66179 21.728 7.33219 21.0352C7.11859 20.5862 7.40039 20.0514 7.86699 19.8802C8.33399 19.709 8.85379 19.9472 9.02199 20.4148C9.19539 20.8974 9.35019 21.2536 9.84419 21.794C11.446 23.546 13.524 24.7218 15.8948 24.7218C18.2578 24.7218 20.459 23.6604 21.9334 21.8096C22.6444 20.917 22.2694 21.4106 22.7632 20.4868C22.9974 20.0486 23.475 19.805 23.936 19.992C24.3964 20.1794 24.661 20.724 24.4308 21.1646C23.789 22.3932 23.8032 22.3472 23.3412 22.931C21.5306 25.2188 18.809 26.5218 15.8948 26.5218Z" fill="url(#paint3_linear)"/>
<path d="M15.8948 25.8218C12.9708 25.8218 10.2514 24.5062 8.43359 22.212C7.56439 21.1154 7.66179 21.028 7.33219 20.3352C7.11859 19.8862 7.40039 19.3514 7.86699 19.1802C8.33399 19.009 8.85379 19.2472 9.02199 19.7148C9.19539 20.1974 9.35019 20.5536 9.84419 21.094C11.446 22.846 13.524 24.0218 15.8948 24.0218C18.2578 24.0218 20.459 22.9604 21.9334 21.1096C22.6444 20.217 22.2694 20.7106 22.7632 19.7868C22.9974 19.3486 23.475 19.105 23.936 19.292C24.3964 19.4794 24.661 20.024 24.4308 20.4646C23.789 21.6932 23.8032 21.6472 23.3412 22.231C21.5306 24.5188 18.809 25.8218 15.8948 25.8218Z" fill="url(#paint4_linear)"/>
</g>
<defs>
<radialGradient id="paint0_radial" cx="0" cy="0" r="1" gradientUnits="userSpaceOnUse" gradientTransform="translate(12.1996 13.5996) scale(23.3632)">
<stop stop-color="#FFEF70"/>
<stop offset="0.558" stop-color="#F8C340"/>
<stop offset="0.854" stop-color="#F19710"/>
<stop offset="0.92" stop-color="#EC9411"/>
<stop offset="0.985" stop-color="#E69212"/>
</radialGradient>
<linearGradient id="paint1_linear" x1="9.00024" y1="10.387" x2="12.1782" y2="14.1036" gradientUnits="userSpaceOnUse">
<stop offset="0.047" stop-color="#B78C2E"/>
<stop offset="0.335" stop-color="#A9771F"/>
<stop offset="0.437" stop-color="#9B6210"/>
<stop offset="0.719" stop-color="#865610"/>
<stop offset="1" stop-color="#704B10"/>
</linearGradient>
<linearGradient id="paint2_linear" x1="19.2" y1="10.387" x2="22.378" y2="14.1036" gradientUnits="userSpaceOnUse">
<stop offset="0.047" stop-color="#B78C2E"/>
<stop offset="0.335" stop-color="#A9771F"/>
<stop offset="0.437" stop-color="#9B6210"/>
<stop offset="0.719" stop-color="#865610"/>
<stop offset="1" stop-color="#704B10"/>
</linearGradient>
<linearGradient id="paint3_linear" x1="16" y1="16.95" x2="36" y2="16.95" gradientUnits="userSpaceOnUse">
<stop stop-color="#FBD85A"/>
<stop offset="0.487" stop-color="#F9CA49"/>
<stop offset="0.975" stop-color="#F7BC38"/>
</linearGradient>
<linearGradient id="paint4_linear" x1="15.8558" y1="25.7804" x2="15.8558" y2="17.366" gradientUnits="userSpaceOnUse">
<stop stop-color="#C26A10"/>
<stop offset="0.487" stop-color="#AD6510"/>
<stop offset="0.975" stop-color="#986010"/>
</linearGradient>
<clipPath id="clip0">
<rect width="32" height="32" fill="white"/>
</clipPath>
</defs>
</svg>
