<svg width="32" height="32" viewBox="0 0 32 32" fill="none" xmlns="http://www.w3.org/2000/svg">
<g clip-path="url(#clip0)">
<path d="M30.2175 14.2329L19.1527 2.92087C18.2102 1.79136 16.5304 1.63961 15.4008 2.58212C14.0917 3.67445 14.8474 5.58094 16.1983 6.62114L30.1281 15.6992L30.2175 14.2329Z" fill="url(#paint0_linear)"/>
<path d="M19.4056 17.422L7.6828 16.336C6.794 16.2536 6.0068 16.9074 5.9244 17.7962C5.829 18.8262 6.7122 19.6796 7.7382 19.5486L19.9946 18.091L19.4056 17.422Z" fill="#FED134"/>
<path d="M16.075 17.6C16.0667 17.6 16.0583 17.6 16.05 17.6C16.0417 17.6 16.0333 17.6 16.025 17.6C15.733 17.6232 15.4286 17.6566 15.1307 17.705C14.8327 17.7534 14.5412 17.8168 14.275 17.9C13.8423 17.9884 13.4346 18.1107 13.042 18.2497C12.6494 18.3887 12.272 18.5444 11.9 18.7C11.5297 18.8547 11.1702 19.0234 10.8205 19.2034C10.4708 19.3834 10.1309 19.5747 9.79998 19.775C9.57926 19.9042 9.36618 20.0412 9.15546 20.1804C8.94473 20.3197 8.73633 20.4613 8.52498 20.6C8.43381 20.6838 8.33186 20.7568 8.22868 20.8287C8.12551 20.9005 8.02108 20.9711 7.92498 21.05C7.87886 21.0913 7.83346 21.1334 7.78478 21.1723C7.73611 21.2111 7.68418 21.2467 7.62498 21.275C7.57641 21.3181 7.53278 21.3661 7.48561 21.4106C7.43843 21.4551 7.38771 21.496 7.32498 21.525C7.14328 21.6933 6.95261 21.8526 6.76521 22.0152C6.57781 22.1778 6.39363 22.3436 6.22498 22.525C6.12343 22.5984 6.03326 22.6832 5.94481 22.7698C5.85636 22.8563 5.76963 22.9446 5.67498 23.025C5.59866 23.1278 5.51156 23.2199 5.43086 23.3183C5.35016 23.4168 5.27581 23.5216 5.22498 23.65C5.09896 23.9117 5.04443 24.2006 5.04866 24.4796C5.05288 24.7586 5.11591 25.0277 5.22498 25.25C5.30966 25.4225 5.42811 25.5782 5.55991 25.7097C5.69171 25.8413 5.83688 25.9488 5.97498 26.025C6.16543 26.1782 6.48131 26.2574 6.80726 26.2681C7.13321 26.2788 7.46923 26.2209 7.69998 26.1C7.91711 25.9921 8.09326 25.8432 8.25831 25.6833C8.42336 25.5233 8.57728 25.3523 8.74998 25.2C8.92151 25.0423 9.09413 24.8858 9.26883 24.7313C9.44353 24.5768 9.62026 24.4244 9.79998 24.275C10.1605 23.9813 10.535 23.7016 10.9227 23.4351C11.3104 23.1687 11.7113 22.9155 12.125 22.675C12.2092 22.642 12.2874 22.5994 12.3648 22.555C12.4421 22.5106 12.5188 22.4646 12.6 22.425C12.6643 22.3936 12.7306 22.3623 12.7946 22.3326C12.8586 22.3029 12.9202 22.2749 12.975 22.25C12.9982 22.2394 13.023 22.2325 13.0483 22.2255C13.0736 22.2184 13.0995 22.2112 13.125 22.2C13.1651 22.1822 13.1995 22.1603 13.2348 22.1381C13.2701 22.1159 13.3063 22.0935 13.35 22.075C13.3922 22.057 13.4393 22.041 13.4867 22.025C13.5341 22.0089 13.5817 21.9929 13.625 21.975C13.7137 21.9382 13.7999 21.8982 13.8865 21.8593C13.973 21.8204 14.0599 21.7825 14.15 21.75C14.3339 21.6834 14.5256 21.6296 14.7223 21.5819C14.919 21.5341 15.1208 21.4924 15.325 21.45C15.527 21.408 15.7345 21.375 15.9472 21.3502C16.1599 21.3255 16.3776 21.3089 16.6 21.3C16.7214 21.3116 16.8637 21.3204 17.0077 21.3282C17.1516 21.336 17.2972 21.3427 17.425 21.35C17.5755 21.3662 17.7121 21.3962 17.8521 21.4228C17.9922 21.4494 18.1357 21.4726 18.3 21.475C18.8189 21.6102 19.3345 21.7487 19.8377 21.8998C20.3408 22.0508 20.8314 22.2144 21.3 22.4C21.7875 22.5708 22.25 22.7666 22.7 22.975C23.15 23.1833 23.5875 23.4042 24.025 23.625C24.4467 23.8574 24.8674 24.0908 25.2848 24.3276C25.7022 24.5644 26.1163 24.8044 26.525 25.05C26.7326 25.1715 26.937 25.2963 27.1404 25.422C27.3438 25.5478 27.5463 25.6745 27.75 25.8C27.9558 25.9233 28.1425 26.0658 28.3375 26.1999C28.5325 26.3341 28.7358 26.4599 28.975 26.55C29.2056 26.6455 29.484 26.6737 29.7531 26.6514C30.0222 26.6291 30.2819 26.5564 30.475 26.45C30.5683 26.385 30.6601 26.3184 30.7483 26.2483C30.8365 26.1781 30.9211 26.1044 31 26.025C31.1007 25.8757 31.2002 25.7252 31.2779 25.5529C31.3556 25.3806 31.4115 25.1865 31.425 24.95C31.4374 24.8126 31.4291 24.6959 31.4125 24.5875C31.3959 24.4791 31.371 24.379 31.35 24.275C31.322 24.1738 31.2783 24.0883 31.2322 24.0053C31.186 23.9222 31.1376 23.8416 31.1 23.75C30.9987 23.6304 30.8895 23.5188 30.7695 23.4179C30.6496 23.317 30.519 23.2268 30.375 23.15C30.3214 23.091 30.2529 23.0471 30.182 23.0055C30.1111 22.9638 30.0379 22.9246 29.975 22.875C29.9189 22.8186 29.8465 22.7785 29.7743 22.7381C29.7021 22.6978 29.6302 22.6573 29.575 22.6C29.4322 22.522 29.2943 22.439 29.158 22.3545C29.0216 22.27 28.8868 22.184 28.75 22.1C28.6074 22.0175 28.4637 21.9362 28.3213 21.8537C28.1788 21.7711 28.0376 21.6874 27.9 21.6C27.7603 21.5188 27.6215 21.4368 27.4807 21.3567C27.34 21.2766 27.1973 21.1985 27.05 21.125C26.9249 21.0251 26.7743 20.9506 26.6241 20.8759C26.4739 20.8011 26.3239 20.726 26.2 20.625C25.8877 20.4955 25.6174 20.3242 25.325 20.175C25.0051 20.0449 24.7472 19.8527 24.4 19.75C24.1342 19.5741 23.7948 19.4719 23.5 19.325C23.1794 19.1955 22.8522 19.0727 22.525 18.95C21.8541 18.7291 21.1838 18.5078 20.475 18.325C19.7851 18.1232 19.0813 17.9353 18.325 17.8C17.56 17.6165 16.8134 17.5904 16.1 17.575C16.0847 17.5764 16.0704 17.5787 16.075 17.6Z" fill="#D66D01"/>
<path d="M25.6012 10.561L11.8504 3.76535C10.5534 3.07115 8.93902 3.55975 8.24482 4.85675H8.24462C7.44002 6.35995 8.85502 7.84455 10.4972 8.30295L26.0676 11.9541L25.6012 10.561Z" fill="url(#paint1_linear)"/>
<path d="M32 17.2C31.9298 16.7619 31.8274 16.3559 31.7 15.975C31.5726 15.5941 31.4202 15.2382 31.25 14.9C31.1677 14.7282 31.0808 14.5609 30.9892 14.3983C30.8976 14.2357 30.8013 14.0779 30.7 13.925C30.6568 13.8391 30.601 13.7657 30.5464 13.6911C30.4919 13.6165 30.4385 13.5407 30.4 13.45C30.3591 13.4285 30.3326 13.3924 30.3077 13.3548C30.2829 13.3172 30.2596 13.278 30.225 13.25C30.2081 13.2045 30.1764 13.1736 30.1461 13.1414C30.1158 13.1093 30.0868 13.0758 30.075 13.025C29.9509 12.895 29.8288 12.7629 29.7082 12.6293C29.5876 12.4958 29.4684 12.3608 29.35 12.225C29.2607 12.1852 29.1984 12.1183 29.1365 12.0511C29.0745 11.9839 29.013 11.9163 28.925 11.875C28.8707 11.8043 28.8002 11.7498 28.7285 11.6965C28.6569 11.6432 28.584 11.591 28.525 11.525C28.2276 11.3183 27.9191 11.1226 27.5892 10.9483C27.2593 10.7741 26.908 10.6212 26.525 10.5C26.1658 10.384 25.7034 10.296 25.2245 10.2622C24.7456 10.2284 24.2502 10.2489 23.825 10.35C23.4028 10.432 23.0316 10.5649 22.6953 10.7328C22.359 10.9007 22.0576 11.1034 21.775 11.325C21.4164 11.6473 21.0867 12.0187 20.8178 12.455C20.5488 12.8914 20.3407 13.3928 20.225 13.975C20.1754 14.2249 20.138 14.4974 20.1255 14.7868C20.113 15.0762 20.1253 15.3825 20.175 15.7C19.0507 15.7174 17.9637 15.772 16.9199 15.87C15.8762 15.9679 14.8759 16.1092 13.925 16.3C13.4477 16.3935 12.9745 16.4912 12.5135 16.6011C12.0526 16.7109 11.6038 16.8329 11.175 16.975C10.7195 17.0862 10.2934 17.2267 9.87543 17.3755C9.4575 17.5242 9.04778 17.6812 8.625 17.825C8.43188 17.9194 8.2314 18.0064 8.02943 18.092C7.82745 18.1775 7.62403 18.2616 7.425 18.35C7.23208 18.4404 7.04268 18.5344 6.85248 18.6275C6.66228 18.7206 6.47123 18.8129 6.275 18.9C6.19203 18.9587 6.10278 19.0112 6.01015 19.0602C5.91753 19.1092 5.8215 19.1549 5.725 19.2C5.64425 19.261 5.55047 19.3088 5.45815 19.3582C5.36582 19.4075 5.27495 19.4583 5.2 19.525C5.00265 19.611 4.82923 19.7209 4.65748 19.8325C4.48573 19.9441 4.31563 20.0573 4.125 20.15C3.9659 20.2784 3.7924 20.3924 3.62042 20.508C3.44845 20.6235 3.278 20.7405 3.125 20.875C3.03023 20.9219 2.9496 20.983 2.87047 21.0455C2.79135 21.1081 2.71373 21.1721 2.625 21.225C2.54785 21.2896 2.47177 21.3551 2.39365 21.4187C2.31552 21.4822 2.23535 21.5437 2.15 21.6C1.85433 21.871 1.5461 22.1295 1.24405 22.3941C0.942001 22.6587 0.646075 22.9295 0.375 23.225C0.286625 23.3366 0.213575 23.4636 0.152275 23.6023C0.0909751 23.741 0.041425 23.8915 0 24.05C0 24.15 0 24.25 0 24.35C0 24.45 0 24.55 0 24.65C0.058425 24.8916 0.136875 25.1132 0.2459 25.3041C0.354925 25.4951 0.494475 25.6556 0.675 25.775C0.830125 25.9241 1.02383 26.0345 1.26003 26.1025C1.49623 26.1705 1.77493 26.196 2.1 26.175C2.1873 26.154 2.27157 26.1299 2.35437 26.1044C2.43717 26.0789 2.51853 26.0519 2.6 26.025C2.82225 25.914 2.99858 25.7569 3.16868 25.5937C3.33878 25.4305 3.50265 25.261 3.7 25.125C3.87683 24.9644 4.06677 24.8168 4.26752 24.6801C4.46827 24.5433 4.67988 24.4174 4.9 24.3C5.32558 24.0548 5.78552 23.8439 6.28412 23.6717C6.78272 23.4994 7.31993 23.3658 7.9 23.275C8.46468 23.1723 9.11143 23.1276 9.75925 23.1309C10.4071 23.1342 11.056 23.1856 11.625 23.275C11.77 23.2938 11.912 23.3163 12.053 23.3416C12.1941 23.3669 12.3341 23.395 12.475 23.425C12.6113 23.454 12.7511 23.48 12.89 23.5076C13.0289 23.5352 13.167 23.5644 13.3 23.6C13.3297 23.608 13.3601 23.623 13.3897 23.6379C13.4193 23.6527 13.4482 23.6675 13.475 23.675C13.5114 23.6853 13.5445 23.6931 13.5769 23.7007C13.6093 23.7083 13.6411 23.7156 13.675 23.725C13.8847 23.7831 14.0837 23.8356 14.2745 23.8942C14.4654 23.9528 14.648 24.0175 14.825 24.1C15.3348 24.261 15.8089 24.4579 16.2684 24.6691C16.728 24.8804 17.1731 25.1062 17.625 25.325C17.6563 25.3771 17.7156 25.4011 17.775 25.425C17.8344 25.449 17.8938 25.473 17.925 25.525C17.9902 25.5432 18.0456 25.5711 18.0976 25.6024C18.1496 25.6338 18.1983 25.6685 18.25 25.7C18.3585 25.7583 18.4643 25.8191 18.5682 25.8818C18.6722 25.9445 18.7742 26.0092 18.875 26.075C18.9755 26.1412 19.0808 26.2026 19.1833 26.2667C19.2859 26.3308 19.3857 26.3977 19.475 26.475C19.5883 26.5325 19.6875 26.6042 19.7869 26.6757C19.8862 26.7471 19.9858 26.8184 20.1 26.875C20.1332 26.9252 20.1811 26.9606 20.2311 26.9939C20.2812 27.0272 20.3333 27.0584 20.375 27.1C20.4305 27.1279 20.4746 27.1671 20.5203 27.2047C20.566 27.2423 20.6133 27.2784 20.675 27.3C20.756 27.3858 20.8479 27.4605 20.9424 27.5327C21.0369 27.6048 21.1339 27.6745 21.225 27.75C21.3168 27.8249 21.4064 27.9019 21.4971 27.9779C21.5877 28.054 21.6794 28.129 21.775 28.2C21.8646 28.2812 21.9515 28.3652 22.0412 28.4463C22.131 28.5274 22.2237 28.6055 22.325 28.675C22.4876 28.8458 22.6598 29.0068 22.8304 29.1697C23.0009 29.3325 23.1696 29.4971 23.325 29.675C23.4991 29.8384 23.6661 30.0089 23.8436 30.169C24.0211 30.329 24.209 30.4785 24.425 30.6C24.4709 30.6041 24.5055 30.6195 24.5395 30.6356C24.5734 30.6517 24.6067 30.6684 24.65 30.675C25.0277 30.7776 25.3979 30.7519 25.723 30.6384C26.0481 30.5248 26.328 30.3235 26.525 30.075C26.689 29.8681 26.8156 29.6177 26.8817 29.3348C26.9477 29.0519 26.9532 28.7367 26.875 28.4C26.7673 28.1244 26.626 27.8824 26.4728 27.6522C26.3197 27.4221 26.1547 27.2036 26 26.975C25.8322 26.7554 25.6612 26.5389 25.4864 26.3261C25.3116 26.1134 25.1331 25.9045 24.95 25.7C24.7573 25.5053 24.57 25.3051 24.3777 25.1099C24.1854 24.9147 23.988 24.7245 23.775 24.55C23.6869 24.4465 23.5835 24.3581 23.4789 24.2711C23.3743 24.1841 23.2684 24.0984 23.175 24C23.1154 23.9639 23.0617 23.9217 23.0091 23.8785C22.9565 23.8352 22.9051 23.7908 22.85 23.75C22.8171 23.7329 22.7934 23.7066 22.7679 23.6821C22.7424 23.6576 22.7151 23.6349 22.675 23.625C22.6726 23.5856 22.6297 23.5678 22.5964 23.55C22.563 23.5323 22.5392 23.5145 22.575 23.475C22.743 23.1305 22.9239 22.7989 23.1193 22.4818C23.3146 22.1646 23.5244 21.8619 23.75 21.575C23.9851 21.2977 24.234 21.034 24.509 20.7965C24.784 20.559 25.0852 20.3477 25.425 20.175C26.0459 19.8277 26.9503 19.65 27.975 19.65C28.9856 19.65 30.0652 19.7381 30.8 19.4C31.0631 19.2714 31.2967 19.1134 31.475 18.9C31.6519 18.6769 31.8473 18.4723 31.925 18.15C31.9445 18.1445 31.9541 18.1291 31.95 18.1C32.0039 18.0789 31.9406 17.9407 32 17.925C32 17.6834 32 17.4417 32 17.2Z" fill="url(#paint2_linear)"/>
<path d="M27.4423 14.1362C27.4423 13.5088 26.9339 13.0004 26.3065 13.0004C25.6791 13.0004 25.1707 13.5088 25.1707 14.1362C25.1707 14.7636 25.6791 15.272 26.3065 15.272C26.9339 15.272 27.4423 14.7636 27.4423 14.1362Z" fill="url(#paint3_linear)"/>
</g>
<defs>
<linearGradient id="paint0_linear" x1="8.15639" y1="-1.26633" x2="26.3244" y2="6.56625" gradientUnits="userSpaceOnUse">
<stop stop-color="#FED134"/>
<stop offset="0.28" stop-color="#EFAD1C"/>
<stop offset="0.56" stop-color="#E08A04"/>
<stop offset="0.78" stop-color="#DB7B03"/>
<stop offset="1" stop-color="#D66D01"/>
</linearGradient>
<linearGradient id="paint1_linear" x1="2.69722" y1="6.81615" x2="22.4764" y2="7.27255" gradientUnits="userSpaceOnUse">
<stop stop-color="#FED134"/>
<stop offset="0.499" stop-color="#EFB020"/>
<stop offset="0.997" stop-color="#E0900D"/>
</linearGradient>
<linearGradient id="paint2_linear" x1="0.36915" y1="16" x2="47.9595" y2="16" gradientUnits="userSpaceOnUse">
<stop stop-color="#FED134"/>
<stop offset="0.28" stop-color="#EFAD1C"/>
<stop offset="0.56" stop-color="#E08A04"/>
<stop offset="0.78" stop-color="#DB7B03"/>
<stop offset="1" stop-color="#D66D01"/>
</linearGradient>
<linearGradient id="paint3_linear" x1="25.6475" y1="13.1278" x2="27.1659" y2="14.9036" gradientUnits="userSpaceOnUse">
<stop offset="0.047" stop-color="#B78C2E"/>
<stop offset="0.335" stop-color="#A9771F"/>
<stop offset="0.437" stop-color="#9B6210"/>
<stop offset="0.719" stop-color="#865610"/>
<stop offset="1" stop-color="#704B10"/>
</linearGradient>
<clipPath id="clip0">
<rect width="32" height="32" fill="white"/>
</clipPath>
</defs>
</svg>
