<svg width="32" height="32" viewBox="0 0 32 32" fill="none" xmlns="http://www.w3.org/2000/svg">
<g clip-path="url(#clip0)">
<path d="M12.5736 20.1274L12.46 14.4018C12.3582 11.4866 12.448 8.74422 10.3844 8.82642C9.48859 8.86202 9.19479 9.51722 9.12719 10.4962C9.07959 8.42902 8.88839 6.80842 7.31339 6.87102C6.36459 6.90882 5.81959 8.11322 5.78199 9.75602C5.70039 8.88242 5.41739 8.32802 4.57319 8.36162C3.08278 8.42102 2.77998 10.5746 2.79638 13.0686C2.73718 11.9696 2.53359 11.3102 1.48919 11.422C0.224185 11.5574 -0.0978147 14.7582 0.0331852 18.511C0.272385 25.3588 1.26959 28.9602 3.08899 30.6726C6.14139 33.5452 13.0522 31.624 13.8832 26.1812L13.8836 26.181L13.8838 26.1812C14.2172 24.1894 12.9492 20.1274 12.5736 20.1274Z" fill="url(#paint0_linear)"/>
<path d="M12.5586 20.3558L12.46 14.402C12.3582 11.4868 12.448 8.74419 10.3844 8.82639C8.61661 8.89679 9.19201 11.3794 9.22721 14.0054L9.37581 20.137" fill="url(#paint1_linear)"/>
<path d="M6.29494 20.0002L5.84855 12.5762C5.74675 9.66098 5.50255 6.94278 7.31354 6.87078C9.37714 6.78858 9.06514 9.59618 9.16694 12.5114L9.37574 20.137" fill="url(#paint2_linear)"/>
<path d="M3.27802 20.6683L2.81982 14.1387C2.71802 11.2235 2.87282 8.42927 4.57342 8.36167C6.34122 8.29127 5.75222 10.8133 5.90022 13.4349L6.29482 20.0003" fill="url(#paint3_linear)"/>
<path d="M0.24359 21.9793C-0.17681 17.2127 -0.24241 11.4027 1.62579 11.4027C3.34639 11.2963 2.59179 14.0689 3.03139 16.5381L3.27799 20.6681" fill="url(#paint4_linear)"/>
<path d="M3.27802 20.6683L2.81982 14.1387C2.71802 11.2235 2.87282 8.42927 4.57342 8.36167C6.34122 8.29127 5.75222 10.8133 5.90022 13.4349L6.29482 20.0003" fill="url(#paint5_linear)"/>
<path d="M15.4738 18.2327C15.1806 17.8313 14.3048 17.4215 13.6764 17.5767C13.1792 17.6995 12.9046 17.9021 12.612 18.1075C12.2906 18.3331 12.0364 18.6051 11.8618 18.8887H11.8616C11.8616 18.8887 11.1322 20.0455 10.6826 21.4755C10.5404 21.5049 10.3948 21.5379 10.2452 21.5749C8.83179 21.9241 7.60139 22.8109 7.01239 24.8635C6.25599 27.4999 7.24839 30.2049 9.22899 30.9055C11.2096 31.6061 14.0792 27.9779 14.084 25.1873C14.0862 23.8779 14.0734 23.0409 14.4384 22.1485C14.626 21.5261 14.8244 20.8217 15.0626 20.4399C15.4626 19.7115 15.9086 18.8279 15.4738 18.2327Z" fill="url(#paint6_linear)"/>
<path d="M5.96861 10.9711C5.88001 9.37594 5.89741 8.83994 5.89961 8.43994C5.59521 9.84494 5.80321 11.8619 6.27081 20.1159H6.49001C6.49001 20.1159 6.12781 13.8353 5.96861 10.9711ZM9.26721 12.2997C9.17861 10.7045 9.25482 10.1019 9.25002 9.74054C9.09342 10.3341 9.02982 11.4351 9.04622 12.3235L9.34081 20.1159L9.56001 20.1149C9.56001 20.1149 9.42641 15.1639 9.26721 12.2997ZM3.45321 20.5803L3.23381 20.6299C2.76061 13.7087 2.69141 12.9657 2.89401 10.9387C2.91021 11.8751 3.24701 17.4015 3.45321 20.5803Z" fill="url(#paint7_linear)"/>
<path d="M19.4264 20.1274L19.54 14.4018C19.6418 11.4866 19.552 8.74422 21.6156 8.82642C22.5114 8.86202 22.8052 9.51722 22.8728 10.4962C22.9204 8.42902 23.1116 6.80842 24.6866 6.87102C25.6354 6.90882 26.1804 8.11322 26.218 9.75602C26.2996 8.88242 26.5826 8.32802 27.4268 8.36162C28.9172 8.42102 29.22 10.5746 29.2036 13.0686C29.2628 11.9696 29.4664 11.3102 30.5108 11.422C31.7758 11.5574 32.0978 14.7582 31.9668 18.511C31.7276 25.3588 30.7304 28.9602 28.911 30.6726C25.8586 33.5452 18.9478 31.624 18.1168 26.1812L18.1164 26.181L18.1162 26.1812C17.7828 24.1894 19.0508 20.1274 19.4264 20.1274Z" fill="url(#paint8_linear)"/>
<path d="M19.4414 20.3558L19.54 14.402C19.6418 11.4868 19.552 8.74419 21.6156 8.82639C23.3834 8.89679 22.808 11.3794 22.7728 14.0054L22.6242 20.137" fill="url(#paint9_linear)"/>
<path d="M25.7049 20.0002L26.1513 12.5762C26.2531 9.66098 26.4973 6.94278 24.6863 6.87078C22.6227 6.78858 22.9347 9.59618 22.8329 12.5114L22.6241 20.137" fill="url(#paint10_linear)"/>
<path d="M28.722 20.6683L29.1802 14.1387C29.282 11.2235 29.1272 8.42927 27.4266 8.36167C25.6588 8.29127 26.2478 10.8133 26.0998 13.4349L25.7052 20.0003" fill="url(#paint11_linear)"/>
<path d="M31.7563 21.9793C32.1767 17.2127 32.2423 11.4027 30.3742 11.4027C28.6536 11.2963 29.4082 14.0689 28.9686 16.5381L28.722 20.6681" fill="url(#paint12_linear)"/>
<path d="M28.722 20.6683L29.1802 14.1387C29.282 11.2235 29.1272 8.42927 27.4266 8.36167C25.6588 8.29127 26.2478 10.8133 26.0998 13.4349L25.7052 20.0003" fill="url(#paint13_linear)"/>
<path d="M16.5261 18.2327C16.8193 17.8313 17.6951 17.4215 18.3235 17.5767C18.8207 17.6995 19.0953 17.9021 19.3879 18.1075C19.7093 18.3331 19.9635 18.6051 20.1381 18.8887H20.1383C20.1383 18.8887 20.8677 20.0455 21.3173 21.4755C21.4595 21.5049 21.6051 21.5379 21.7547 21.5749C23.1681 21.9241 24.3985 22.8109 24.9875 24.8635C25.7439 27.4999 24.7515 30.2049 22.7709 30.9055C20.7903 31.6061 17.9207 27.9779 17.9159 25.1873C17.9137 23.8779 17.9265 23.0409 17.5615 22.1485C17.3739 21.5261 17.1755 20.8217 16.9373 20.4399C16.5373 19.7115 16.0913 18.8279 16.5261 18.2327Z" fill="url(#paint14_linear)"/>
<path d="M26.0313 10.9711C26.1199 9.37594 26.1025 8.83994 26.1003 8.43994C26.4047 9.84494 26.1967 11.8619 25.7291 20.1159H25.5099C25.5099 20.1159 25.8721 13.8353 26.0313 10.9711ZM22.7327 12.2997C22.8213 10.7045 22.7451 10.1019 22.7499 9.74054C22.9065 10.3341 22.9701 11.4351 22.9537 12.3235L22.6591 20.1159L22.4399 20.1149C22.4399 20.1149 22.5735 15.1639 22.7327 12.2997ZM28.5467 20.5803L28.7661 20.6299C29.2393 13.7087 29.3085 12.9657 29.1059 10.9387C29.0897 11.8751 28.7529 17.4015 28.5467 20.5803Z" fill="url(#paint15_linear)"/>
<path d="M13.5466 6.9056L11.1956 1.9104L8.57263 4.5474L13.5466 6.9056Z" fill="url(#paint16_linear)"/>
<path d="M16.0386 5.20136L17.894 -0.000244141H14.1832L16.0386 5.20136Z" fill="url(#paint17_linear)"/>
<path d="M18.449 6.9056L20.8 1.9104L23.423 4.5474L18.449 6.9056Z" fill="url(#paint18_linear)"/>
</g>
<defs>
<linearGradient id="paint0_linear" x1="7.39978" y1="10" x2="5.55038" y2="43.4238" gradientUnits="userSpaceOnUse">
<stop stop-color="#FFD437"/>
<stop offset="0.25" stop-color="#F8C12A"/>
<stop offset="0.5" stop-color="#F0AD1C"/>
<stop offset="0.75" stop-color="#E99A0E"/>
<stop offset="1" stop-color="#E18700"/>
</linearGradient>
<linearGradient id="paint1_linear" x1="12.1998" y1="14.8" x2="8.39081" y2="14.4918" gradientUnits="userSpaceOnUse">
<stop offset="0.466" stop-color="#F6BC26"/>
<stop offset="0.742" stop-color="#ECA113"/>
<stop offset="0.893" stop-color="#E18700"/>
</linearGradient>
<linearGradient id="paint2_linear" x1="8.99994" y1="14" x2="5.59675" y2="13.3888" gradientUnits="userSpaceOnUse">
<stop stop-color="#F6BC26"/>
<stop offset="0.419" stop-color="#F3B624"/>
<stop offset="0.649" stop-color="#EFB022"/>
<stop offset="0.835" stop-color="#E89C11"/>
<stop offset="1" stop-color="#E18700"/>
</linearGradient>
<linearGradient id="paint3_linear" x1="6.00002" y1="15.0001" x2="2.78522" y2="14.5377" gradientUnits="userSpaceOnUse">
<stop offset="0.297" stop-color="#F6BB26"/>
<stop offset="0.524" stop-color="#F3B624"/>
<stop offset="0.649" stop-color="#EFB022"/>
<stop offset="0.797" stop-color="#E89C11"/>
<stop offset="0.927" stop-color="#E18700"/>
</linearGradient>
<linearGradient id="paint4_linear" x1="2.79999" y1="16.9999" x2="-0.17261" y2="16.5375" gradientUnits="userSpaceOnUse">
<stop offset="0.466" stop-color="#F4B925"/>
<stop offset="0.742" stop-color="#EBA013"/>
<stop offset="0.893" stop-color="#E18700"/>
<stop offset="0.947" stop-color="#DF8500"/>
<stop offset="1" stop-color="#DD8300"/>
</linearGradient>
<linearGradient id="paint5_linear" x1="6.00002" y1="15.0001" x2="2.78522" y2="14.5377" gradientUnits="userSpaceOnUse">
<stop offset="0.297" stop-color="#F6BB26"/>
<stop offset="0.524" stop-color="#F3B624"/>
<stop offset="0.649" stop-color="#EFB022"/>
<stop offset="0.797" stop-color="#E89C11"/>
<stop offset="0.927" stop-color="#E18700"/>
</linearGradient>
<linearGradient id="paint6_linear" x1="13" y1="25.7999" x2="8.04979" y2="20.4851" gradientUnits="userSpaceOnUse">
<stop stop-color="#EDA517"/>
<stop offset="0.68" stop-color="#E89E13"/>
<stop offset="1" stop-color="#E3960E"/>
</linearGradient>
<linearGradient id="paint7_linear" x1="2.59981" y1="14.5999" x2="9.37321" y2="14.5999" gradientUnits="userSpaceOnUse">
<stop stop-color="#DF8501"/>
<stop offset="0.354" stop-color="#DF8601"/>
<stop offset="1" stop-color="#E08600"/>
</linearGradient>
<linearGradient id="paint8_linear" x1="24.6002" y1="10" x2="26.4496" y2="43.4238" gradientUnits="userSpaceOnUse">
<stop stop-color="#FFD437"/>
<stop offset="0.25" stop-color="#F8C12A"/>
<stop offset="0.5" stop-color="#F0AD1C"/>
<stop offset="0.75" stop-color="#E99A0E"/>
<stop offset="1" stop-color="#E18700"/>
</linearGradient>
<linearGradient id="paint9_linear" x1="19.8002" y1="14.8" x2="23.6092" y2="14.4918" gradientUnits="userSpaceOnUse">
<stop offset="0.466" stop-color="#F6BC26"/>
<stop offset="0.742" stop-color="#ECA113"/>
<stop offset="0.893" stop-color="#E18700"/>
</linearGradient>
<linearGradient id="paint10_linear" x1="22.9999" y1="14" x2="26.4031" y2="13.3888" gradientUnits="userSpaceOnUse">
<stop stop-color="#F6BC26"/>
<stop offset="0.419" stop-color="#F3B624"/>
<stop offset="0.649" stop-color="#EFB022"/>
<stop offset="0.835" stop-color="#E89C11"/>
<stop offset="1" stop-color="#E18700"/>
</linearGradient>
<linearGradient id="paint11_linear" x1="26" y1="15.0001" x2="29.2148" y2="14.5377" gradientUnits="userSpaceOnUse">
<stop offset="0.297" stop-color="#F6BB26"/>
<stop offset="0.524" stop-color="#F3B624"/>
<stop offset="0.649" stop-color="#EFB022"/>
<stop offset="0.797" stop-color="#E89C11"/>
<stop offset="0.927" stop-color="#E18700"/>
</linearGradient>
<linearGradient id="paint12_linear" x1="29.2" y1="16.9999" x2="32.1725" y2="16.5375" gradientUnits="userSpaceOnUse">
<stop offset="0.466" stop-color="#F4B925"/>
<stop offset="0.742" stop-color="#EBA013"/>
<stop offset="0.893" stop-color="#E18700"/>
<stop offset="0.947" stop-color="#DF8500"/>
<stop offset="1" stop-color="#DD8300"/>
</linearGradient>
<linearGradient id="paint13_linear" x1="26" y1="15.0001" x2="29.2148" y2="14.5377" gradientUnits="userSpaceOnUse">
<stop offset="0.297" stop-color="#F6BB26"/>
<stop offset="0.524" stop-color="#F3B624"/>
<stop offset="0.649" stop-color="#EFB022"/>
<stop offset="0.797" stop-color="#E89C11"/>
<stop offset="0.927" stop-color="#E18700"/>
</linearGradient>
<linearGradient id="paint14_linear" x1="18.9999" y1="25.7999" x2="23.9501" y2="20.4851" gradientUnits="userSpaceOnUse">
<stop stop-color="#EDA517"/>
<stop offset="0.68" stop-color="#E89E13"/>
<stop offset="1" stop-color="#E3960E"/>
</linearGradient>
<linearGradient id="paint15_linear" x1="29.4001" y1="14.5999" x2="22.6267" y2="14.5999" gradientUnits="userSpaceOnUse">
<stop stop-color="#DF8501"/>
<stop offset="0.354" stop-color="#DF8601"/>
<stop offset="1" stop-color="#E08600"/>
</linearGradient>
<linearGradient id="paint16_linear" x1="9.60003" y1="3" x2="13.1588" y2="7.1618" gradientUnits="userSpaceOnUse">
<stop stop-color="#9CDEFE"/>
<stop offset="0.526" stop-color="#4EAEEA"/>
<stop offset="1" stop-color="#007FD6"/>
</linearGradient>
<linearGradient id="paint17_linear" x1="14.4" y1="-0.200244" x2="17.8484" y2="3.83256" gradientUnits="userSpaceOnUse">
<stop stop-color="#9CDEFE"/>
<stop offset="0.526" stop-color="#4EAEEA"/>
<stop offset="1" stop-color="#007FD6"/>
</linearGradient>
<linearGradient id="paint18_linear" x1="18.8" y1="3.2" x2="21.279" y2="6.0992" gradientUnits="userSpaceOnUse">
<stop stop-color="#9CDEFE"/>
<stop offset="0.526" stop-color="#4EAEEA"/>
<stop offset="1" stop-color="#007FD6"/>
</linearGradient>
<clipPath id="clip0">
<rect width="32" height="32" fill="white"/>
</clipPath>
</defs>
</svg>
