<svg width="230" height="40" viewBox="0 0 230 40" fill="none" xmlns="http://www.w3.org/2000/svg">
<path d="M226 0H4C1.79086 0 0 1.79086 0 4V36C0 38.2091 1.79086 40 4 40H226C228.209 40 230 38.2091 230 36V4C230 1.79086 228.209 0 226 0Z" fill="#292929"/>
<path fill-rule="evenodd" clip-rule="evenodd" d="M0 32H230V36C230 38.2091 228.209 40 226 40H4C1.79086 40 0 38.2091 0 36V32Z" fill="#3B3B3B"/>
<path d="M96 4H72C70.8954 4 70 4.89543 70 6V26C70 27.1046 70.8954 28 72 28H96C97.1046 28 98 27.1046 98 26V6C98 4.89543 97.1046 4 96 4Z" fill="#545454"/>
<path fill-rule="evenodd" clip-rule="evenodd" d="M95.9999 25.6507V23.3497C95.9999 23.0397 95.6239 22.8827 95.4029 23.1027L93.1029 25.4037C92.8829 25.6247 93.0389 26.0007 93.3499 26.0007H95.6499C95.8439 26.0007 95.9999 25.8437 95.9999 25.6507Z" fill="white"/>
<path d="M88.1639 12L80 20.1639" stroke="white" stroke-linecap="round"/>
<path fill-rule="evenodd" clip-rule="evenodd" d="M19 11C17.387 11 15.927 11.765 15 13.013V11.5C15 11.224 14.776 11 14.5 11C14.224 11 14 11.224 14 11.5V14.5C14 14.776 14.224 15 14.5 15H17.5C17.776 15 18 14.776 18 14.5C18 14.224 17.776 14 17.5 14H15.536C16.243 12.77 17.547 12 19 12C21.206 12 23 13.794 23 16C23 18.206 21.206 20 19 20C18.724 20 18.5 20.224 18.5 20.5C18.5 20.776 18.724 21 19 21C21.757 21 24 18.757 24 16C24 13.243 21.757 11 19 11Z" fill="white"/>
<path d="M220 16C220 11.5817 216.418 8 212 8C207.582 8 204 11.5817 204 16C204 20.4183 207.582 24 212 24C216.418 24 220 20.4183 220 16Z" fill="#FC9D03" stroke="white" stroke-width="2"/>
<path fill-rule="evenodd" clip-rule="evenodd" d="M56.8544 13.2317L50.2498 19.8379L48.1636 17.7528L54.7682 11.1465C54.9631 10.9516 55.28 10.9516 55.4749 11.1465L56.8544 12.5249C56.9494 12.6199 57.0004 12.7449 57.0004 12.8778C57.0004 13.0117 56.9494 13.1367 56.8544 13.2317ZM47.6337 20.9284L47.0719 20.3657L47.6467 18.6494L49.3521 20.3547L47.6337 20.9284ZM57.5612 11.8182L56.1817 10.4398C55.8988 10.1559 55.5229 10 55.123 10H55.122C54.7212 10.001 54.3443 10.1569 54.0614 10.4398L47.048 17.4549C46.994 17.5089 46.953 17.5758 46.928 17.6488L46.0263 20.3417C45.9653 20.5216 46.0123 20.7195 46.1463 20.8535L47.1459 21.8531C47.2419 21.949 47.3688 22 47.4998 22C47.5518 22 47.6058 21.992 47.6577 21.974L50.3528 21.0744C50.4267 21.0494 50.4937 21.0084 50.5477 20.9534L57.5612 13.9394C57.8441 13.6555 58 13.2786 58 12.8778C58 12.478 57.8441 12.1011 57.5612 11.8182Z" fill="white"/>
<path fill-rule="evenodd" clip-rule="evenodd" d="M179.605 17.304C179.591 17.3063 179.58 17.316 179.567 17.319C179.546 17.3243 179.525 17.3243 179.504 17.3333C179.493 17.3385 179.486 17.3483 179.475 17.3543C179.466 17.3595 179.457 17.3595 179.448 17.3648L177.032 19.0163L177.339 11.9588L182.558 16.866L179.605 17.304ZM183.636 16.851L177.257 10.8518C177.15 10.752 176.994 10.722 176.859 10.7783C176.723 10.833 176.631 10.9628 176.625 11.109L176.25 19.7325C176.244 19.8743 176.319 20.007 176.442 20.076C176.499 20.1083 176.562 20.124 176.625 20.124C176.699 20.124 176.773 20.1015 176.837 20.0588L179.505 18.2348L180.784 21.03C180.847 21.1673 180.983 21.249 181.125 21.249C181.177 21.249 181.23 21.2378 181.281 21.2153C181.469 21.129 181.552 20.9063 181.466 20.718L180.209 17.9723L183.434 17.4945C183.576 17.4743 183.694 17.373 183.737 17.2358C183.78 17.0993 183.741 16.9485 183.636 16.851Z" fill="white"/>
<path fill-rule="evenodd" clip-rule="evenodd" d="M128 25.6504V23.3494C128 23.0394 127.624 22.8824 127.403 23.1024L125.103 25.4034C124.883 25.6244 125.039 26.0004 125.35 26.0004H127.65C127.844 26.0004 128 25.8434 128 25.6504Z" fill="white"/>
<path fill-rule="evenodd" clip-rule="evenodd" d="M112 10H120C121.105 10 122 10.8954 122 12V20C122 21.1046 121.105 22 120 22H112C110.895 22 110 21.1046 110 20V12C110 10.8954 110.895 10 112 10ZM112 11C111.448 11 111 11.4477 111 12V20C111 20.5523 111.448 21 112 21H120C120.552 21 121 20.5523 121 20V12C121 11.4477 120.552 11 120 11H112Z" fill="white"/>
<path fill-rule="evenodd" clip-rule="evenodd" d="M160 25.6504V23.3494C160 23.0394 159.624 22.8824 159.403 23.1024L157.103 25.4034C156.883 25.6244 157.039 26.0004 157.35 26.0004H159.65C159.844 26.0004 160 25.8434 160 25.6504Z" fill="white"/>
<path fill-rule="evenodd" clip-rule="evenodd" d="M145.045 15.859L143.5 15.5H151.293L148.146 12.354C147.951 12.158 147.951 11.842 148.146 11.646C148.342 11.451 148.658 11.451 148.854 11.646L152.854 15.646C153.049 15.842 153.049 16.158 152.854 16.354L148.854 20.354C148.756 20.451 148.628 20.5 148.5 20.5C148.372 20.5 148.244 20.451 148.146 20.354C147.951 20.158 147.951 19.842 148.146 19.646L151.293 16.5H143.5C143.224 16.5 143 16.276 143 16C143 15.724 143.224 15.5 143.5 15.5" fill="white"/>
<path d="M36 8V24" stroke="#545454" stroke-linecap="square"/>
<path d="M196 8V24" stroke="#545454" stroke-linecap="square"/>
<path fill-rule="evenodd" clip-rule="evenodd" d="M115 37.9999C115.11 37.9999 115.221 37.9629 115.312 37.8909L117.813 35.8909C118.028 35.7179 118.063 35.4029 117.891 35.1869C117.717 34.9729 117.403 34.9369 117.188 35.1089L115 36.8599L112.812 35.1089C112.597 34.9369 112.282 34.9729 112.109 35.1869C111.937 35.4029 111.972 35.7179 112.187 35.8909L114.688 37.8909C114.779 37.9629 114.89 37.9999 115 37.9999Z" fill="white"/>
</svg>
