<svg width="52" height="303" viewBox="0 0 52 303" fill="none" xmlns="http://www.w3.org/2000/svg">
<g filter="url(#filter0_dd_3665_9430)">
<rect x="44" y="4" width="287" height="36" rx="18" transform="rotate(90 44 4)" fill="#1A1A1A"/>
<path d="M29 19C29 19.0657 29.0129 19.1307 29.038 19.1914C29.0631 19.2521 29.0999 19.3072 29.1464 19.3536C29.1928 19.4001 29.2479 19.4369 29.3086 19.462C29.3693 19.4871 29.4343 19.5 29.5 19.5H32C32.1326 19.5 32.2598 19.4473 32.3536 19.3536C32.4473 19.2598 32.5 19.1326 32.5 19C32.5 18.8674 32.4473 18.7402 32.3536 18.6464C32.2598 18.5527 32.1326 18.5 32 18.5H29.5C29.4343 18.5 29.3693 18.5129 29.3086 18.538C29.2479 18.5631 29.1928 18.5999 29.1463 18.6463C29.0999 18.6928 29.0631 18.7479 29.038 18.8086C29.0129 18.8693 29 18.9343 29 19Z" fill="white" fill-opacity="0.7"/>
<path d="M29 13C29 13.0657 29.0129 13.1307 29.038 13.1914C29.0631 13.2521 29.0999 13.3072 29.1464 13.3536C29.1928 13.4001 29.2479 13.4369 29.3086 13.462C29.3693 13.4871 29.4343 13.5 29.5 13.5H32C32.1326 13.5 32.2598 13.4473 32.3536 13.3536C32.4473 13.2598 32.5 13.1326 32.5 13C32.5 12.8674 32.4473 12.7402 32.3536 12.6464C32.2598 12.5527 32.1326 12.5 32 12.5H29.5C29.4343 12.5 29.3693 12.5129 29.3086 12.538C29.2479 12.5631 29.1928 12.5999 29.1463 12.6463C29.0999 12.6928 29.0631 12.7479 29.038 12.8086C29.0129 12.8693 29 12.9343 29 13Z" fill="white" fill-opacity="0.7"/>
<path d="M24.5 19C24.5 19.0657 24.5129 19.1307 24.538 19.1914C24.5631 19.2521 24.5999 19.3072 24.6464 19.3536C24.6928 19.4001 24.7479 19.4369 24.8086 19.462C24.8693 19.4871 24.9343 19.5 25 19.5H27C27.1326 19.5 27.2598 19.4473 27.3536 19.3536C27.4473 19.2598 27.5 19.1326 27.5 19C27.5 18.8674 27.4473 18.7402 27.3536 18.6464C27.2598 18.5527 27.1326 18.5 27 18.5H25C24.9343 18.5 24.8693 18.5129 24.8086 18.538C24.7479 18.5631 24.6928 18.5999 24.6463 18.6463C24.5999 18.6928 24.5631 18.7479 24.538 18.8086C24.5129 18.8693 24.5 18.9343 24.5 19Z" fill="white" fill-opacity="0.7"/>
<path d="M24.5 13C24.5 13.0657 24.5129 13.1307 24.538 13.1914C24.5631 13.2521 24.5999 13.3072 24.6464 13.3536C24.6928 13.4001 24.7479 13.4369 24.8086 13.462C24.8693 13.4871 24.9343 13.5 25 13.5H27C27.1326 13.5 27.2598 13.4473 27.3536 13.3536C27.4473 13.2598 27.5 13.1326 27.5 13C27.5 12.8674 27.4473 12.7402 27.3536 12.6464C27.2598 12.5527 27.1326 12.5 27 12.5H25C24.9343 12.5 24.8693 12.5129 24.8086 12.538C24.7479 12.5631 24.6928 12.5999 24.6463 12.6463C24.5999 12.6928 24.5631 12.7479 24.538 12.8086C24.5129 12.8693 24.5 12.9343 24.5 13Z" fill="white" fill-opacity="0.7"/>
<path d="M19.5 19C19.5 19.0657 19.5129 19.1307 19.538 19.1914C19.5631 19.2521 19.5999 19.3072 19.6464 19.3536C19.6928 19.4001 19.7479 19.4369 19.8086 19.462C19.8693 19.4871 19.9343 19.5 20 19.5H22.5C22.6326 19.5 22.7598 19.4473 22.8536 19.3536C22.9473 19.2598 23 19.1326 23 19C23 18.8674 22.9473 18.7402 22.8536 18.6464C22.7598 18.5527 22.6326 18.5 22.5 18.5H20C19.9343 18.5 19.8693 18.5129 19.8086 18.538C19.7479 18.5631 19.6928 18.5999 19.6463 18.6463C19.5999 18.6928 19.5631 18.7479 19.538 18.8086C19.5129 18.8693 19.5 18.9343 19.5 19Z" fill="white" fill-opacity="0.7"/>
<path d="M19.5 13C19.5 13.0657 19.5129 13.1307 19.538 13.1914C19.5631 13.2521 19.5999 13.3072 19.6464 13.3536C19.6928 13.4001 19.7479 13.4369 19.8086 13.462C19.8693 13.4871 19.9343 13.5 20 13.5H22.5C22.6326 13.5 22.7598 13.4473 22.8536 13.3536C22.9473 13.2598 23 13.1326 23 13C23 12.8674 22.9473 12.7402 22.8536 12.6464C22.7598 12.5527 22.6326 12.5 22.5 12.5H20C19.9343 12.5 19.8693 12.5129 19.8086 12.538C19.7479 12.5631 19.6928 12.5999 19.6463 12.6463C19.5999 12.6928 19.5631 12.7479 19.538 12.8086C19.5129 12.8693 19.5 12.9343 19.5 13Z" fill="white" fill-opacity="0.7"/>
<path d="M31.1993 40.5218L21.5365 36.555C21.3989 36.4996 21.248 36.4861 21.1028 36.516C20.9576 36.5459 20.8243 36.618 20.7198 36.7231C20.6153 36.8283 20.5441 36.962 20.5151 37.1074C20.4861 37.2528 20.5005 37.4036 20.5567 37.5408L24.5379 47.1907C24.5745 47.2793 24.6359 47.3555 24.7146 47.4102C24.7934 47.465 24.8862 47.4959 24.982 47.4993C24.9881 47.4998 24.9942 47.4998 25.0001 47.4998C25.0929 47.4998 25.184 47.474 25.263 47.4252C25.342 47.3764 25.4058 47.3065 25.4473 47.2234L27.1346 43.8489L30.1483 46.8563C30.2423 46.9495 30.3694 47.0016 30.5017 47.0012C30.6341 47.0009 30.7609 46.9481 30.8544 46.8544C30.9479 46.7607 31.0005 46.6338 31.0005 46.5014C31.0006 46.3691 30.9482 46.2421 30.8548 46.1483L27.8383 43.1381L31.234 41.431C31.3197 41.3879 31.3912 41.3211 31.44 41.2385C31.4888 41.156 31.5128 41.0611 31.5091 40.9652C31.5055 40.8694 31.4743 40.7766 31.4194 40.698C31.3644 40.6194 31.288 40.5582 31.1993 40.5218ZM26.7755 42.553C26.6792 42.6016 26.6012 42.6798 26.5528 42.7761L25.0438 45.7947L21.7066 37.7058L29.8048 41.0301L26.7755 42.553Z" fill="white" fill-opacity="0.95"/>
<rect x="12.75" y="60.75" width="26.5" height="26.5" rx="13.25" fill="white" fill-opacity="0.2"/>
<path d="M31.7676 68.9038L31.0934 68.2298C30.8622 67.9973 30.5873 67.8129 30.2845 67.6873C29.9817 67.5617 29.657 67.4974 29.3292 67.4981H29.3278C29.0001 67.4972 28.6755 67.5613 28.3727 67.6868C28.07 67.8122 27.7951 67.9964 27.564 68.2288L20.7916 75.0012C20.6987 75.0938 20.6251 75.2038 20.5751 75.325C20.525 75.4462 20.4995 75.5761 20.5 75.7073V76.793C20.5 76.7995 20.5017 76.8057 20.5018 76.8122L19.8018 77.4946C19.7065 77.588 19.6308 77.6995 19.5789 77.8224C19.5271 77.9454 19.5003 78.0775 19.5 78.211V79.5001C19.5004 79.7652 19.6058 80.0193 19.7933 80.2068C19.9807 80.3942 20.2349 80.4997 20.5 80.5001H21.785C21.9206 80.4997 22.0547 80.472 22.1793 80.4186C22.3039 80.3651 22.4164 80.287 22.51 80.189L23.1685 79.4963C23.1814 79.4968 23.1938 79.5001 23.2068 79.5001H24.2927C24.5579 79.4994 24.8121 79.3941 25 79.207L31.7676 72.4395C31.9999 72.2073 32.1841 71.9317 32.3097 71.6284C32.4354 71.3251 32.5001 71 32.5001 70.6716C32.5001 70.3433 32.4354 70.0182 32.3097 69.7149C32.1841 69.4115 31.9999 69.1359 31.7676 68.9038ZM21.7852 79.5001L20.5 79.5007V78.2107L21.0083 77.7151L22.2765 78.9832L21.7852 79.5001ZM31.0606 71.7324L24.293 78.5001H23.2071L21.5 76.793L21.4985 75.7083L28.2711 68.9358C28.4095 68.7966 28.5742 68.6863 28.7556 68.6111C28.937 68.536 29.1314 68.4976 29.3278 68.4981H29.3287C29.5252 68.4977 29.7199 68.5363 29.9014 68.6116C30.083 68.6869 30.2478 68.7974 30.3863 68.9368L31.0606 69.6109C31.3416 69.8924 31.4994 70.2739 31.4994 70.6716C31.4994 71.0694 31.3416 71.4509 31.0606 71.7324Z" fill="white" fill-opacity="0.95"/>
<rect x="12.75" y="60.75" width="26.5" height="26.5" rx="13.25" stroke="#64B4FA" stroke-width="1.5"/>
<path d="M31.7324 100.268C31.489 100.024 31.2 99.8313 30.882 99.6995C30.5639 99.5678 30.2231 99.5 29.8789 99.5C29.5346 99.5 29.1938 99.5678 28.8757 99.6995C28.5577 99.8313 28.2687 100.024 28.0254 100.268L19.7929 108.5C19.6997 108.593 19.6259 108.703 19.5756 108.824C19.5253 108.946 19.4996 109.076 19.5 109.207V111.5C19.5003 111.765 19.6058 112.019 19.7933 112.207C19.9807 112.394 20.2349 112.5 20.5 112.5H22.7929C22.9243 112.5 23.0544 112.475 23.1758 112.424C23.2972 112.374 23.4074 112.3 23.5 112.207L31.7324 103.975C32.223 103.483 32.4986 102.816 32.4986 102.121C32.4986 101.426 32.223 100.76 31.7324 100.268ZM31.0254 103.268L22.7929 111.5H20.5V109.207L28.7324 100.975C29.037 100.673 29.4485 100.505 29.8771 100.506C30.3057 100.507 30.7164 100.678 31.0194 100.981C31.3224 101.284 31.4932 101.695 31.4943 102.123C31.4954 102.552 31.3268 102.963 31.0254 103.268Z" fill="white" fill-opacity="0.95"/>
<path d="M31.7672 134.355L29.6459 132.234C29.1767 131.766 28.541 131.503 27.8782 131.503C27.2154 131.503 26.5797 131.766 26.1105 132.234L20.232 138.112C19.764 138.582 19.5011 139.217 19.5011 139.88C19.5011 140.543 19.764 141.179 20.232 141.648L22.3534 143.769C22.8226 144.237 23.4583 144.5 24.1211 144.5C24.7839 144.5 25.4196 144.237 25.8888 143.769L31.7672 137.891C31.9994 137.659 32.1836 137.383 32.3093 137.08C32.435 136.776 32.4997 136.451 32.4997 136.123C32.4997 135.795 32.435 135.47 32.3093 135.166C32.1836 134.863 31.9994 134.587 31.7672 134.355ZM25.1817 143.062C24.9001 143.343 24.5187 143.5 24.1211 143.5C23.7235 143.5 23.3421 143.343 23.0604 143.062L20.9391 140.941C20.6582 140.659 20.5005 140.278 20.5005 139.88C20.5005 139.482 20.6582 139.101 20.9391 138.819L22.0249 137.733L26.2677 141.976L25.1817 143.062ZM31.0602 137.184L26.9749 141.269L22.732 137.026L26.8175 132.941C27.0991 132.66 27.4805 132.502 27.8782 132.502C28.2758 132.502 28.6573 132.66 28.9388 132.941L31.0602 135.062C31.1995 135.202 31.31 135.367 31.3854 135.549C31.4608 135.731 31.4996 135.926 31.4996 136.123C31.4996 136.32 31.4608 136.515 31.3854 136.697C31.31 136.879 31.1995 137.044 31.0602 137.184Z" fill="white" fill-opacity="0.95"/>
<rect width="28" height="1" transform="translate(40 157) rotate(-180)" fill="white" fill-opacity="0.2"/>
<path d="M26 168C24.6083 167.998 23.2475 168.411 22.0921 169.187C20.9367 169.962 20.0393 171.066 19.5149 172.355C18.9904 173.644 18.8629 175.06 19.1486 176.422C19.4342 177.784 20.1201 179.03 21.1183 180H19.5C19.3674 180 19.2402 180.053 19.1464 180.146C19.0527 180.24 19 180.367 19 180.5C19 180.633 19.0527 180.76 19.1464 180.854C19.2402 180.947 19.3674 181 19.5 181H22.5C22.6326 181 22.7598 180.947 22.8535 180.854C22.9473 180.76 23 180.633 23 180.5V177.5C23 177.367 22.9473 177.24 22.8535 177.146C22.7598 177.053 22.6326 177 22.5 177C22.3674 177 22.2402 177.053 22.1464 177.146C22.0527 177.24 22 177.367 22 177.5V179.463C21.0656 178.623 20.4186 177.511 20.1504 176.284C19.8823 175.056 20.0066 173.776 20.5057 172.623C21.0048 171.47 21.8536 170.503 22.932 169.859C24.0105 169.215 25.2641 168.925 26.5159 169.032C27.7676 169.139 28.9541 169.637 29.9077 170.454C30.8614 171.272 31.534 172.369 31.8305 173.59C32.127 174.81 32.0324 176.093 31.5601 177.258C31.0879 178.422 30.2617 179.408 29.1985 180.077C29.0863 180.148 29.0069 180.26 28.9777 180.39C28.9485 180.519 28.9719 180.655 29.0427 180.767C29.1136 180.879 29.2261 180.959 29.3555 180.988C29.4849 181.017 29.6205 180.994 29.7327 180.923C31.0165 180.113 32.0025 178.909 32.5421 177.49C33.0818 176.072 33.1458 174.516 32.7247 173.058C32.3035 171.6 31.4199 170.318 30.2071 169.406C28.9942 168.494 27.5177 168 26 168Z" fill="white" fill-opacity="0.95"/>
<path d="M32.5 212H30.8815C31.9189 210.984 32.614 209.67 32.8703 208.24C33.1266 206.811 32.9313 205.337 32.3115 204.024C31.6917 202.71 30.6783 201.622 29.412 200.912C28.1457 200.201 26.6894 199.902 25.2454 200.056C23.8015 200.211 22.4415 200.812 21.3545 201.775C20.2676 202.738 19.5075 204.015 19.1801 205.43C18.8526 206.845 18.9739 208.327 19.5271 209.67C20.0804 211.012 21.0381 212.149 22.2672 212.923C22.3227 212.958 22.3846 212.982 22.4494 212.993C22.5141 213.004 22.5804 213.002 22.6444 212.988C22.7085 212.973 22.7691 212.946 22.8228 212.908C22.8764 212.871 22.9221 212.823 22.9571 212.767C22.9922 212.711 23.016 212.65 23.0272 212.585C23.0383 212.52 23.0366 212.454 23.0221 212.39C23.0077 212.326 22.9807 212.265 22.9429 212.211C22.905 212.158 22.8569 212.112 22.8014 212.077C21.7337 211.408 20.9035 210.42 20.4283 209.253C19.953 208.086 19.8567 206.799 20.153 205.574C20.4494 204.349 21.1233 203.249 22.0795 202.428C23.0356 201.607 24.2257 201.108 25.4812 201.001C26.7367 200.894 27.9942 201.184 29.0756 201.831C30.1571 202.477 31.0079 203.448 31.5075 204.605C32.0072 205.761 32.1305 207.046 31.86 208.277C31.5894 209.507 30.9388 210.622 30 211.462V209.5C30 209.367 29.9473 209.24 29.8536 209.146C29.7598 209.053 29.6326 209 29.5 209C29.3674 209 29.2402 209.053 29.1465 209.146C29.0527 209.24 29 209.367 29 209.5V212.5C29 212.633 29.0527 212.76 29.1465 212.853C29.2402 212.947 29.3674 213 29.5 213H32.5C32.6326 213 32.7598 212.947 32.8536 212.853C32.9473 212.76 33 212.633 33 212.5C33 212.367 32.9473 212.24 32.8536 212.146C32.7598 212.053 32.6326 212 32.5 212Z" fill="white" fill-opacity="0.95"/>
<path d="M29.9997 236H21.9992C21.8586 236 21.7196 236.03 21.5912 236.087C21.4628 236.145 21.348 236.228 21.2542 236.333C21.1604 236.438 21.0898 236.561 21.0469 236.695C21.004 236.829 20.9899 236.971 21.0053 237.11L21.7461 243.776C21.8135 244.388 22.1044 244.953 22.5629 245.364C23.0214 245.774 23.6153 246.001 24.2307 246H27.7683C28.3836 246.001 28.9775 245.774 29.4361 245.364C29.8946 244.953 30.1855 244.388 30.2529 243.776L30.9934 237.11C31.009 236.971 30.9949 236.829 30.9521 236.695C30.9093 236.561 30.8386 236.438 30.7449 236.333C30.6511 236.228 30.5362 236.144 30.4078 236.087C30.2794 236.03 30.1404 236 29.9997 236ZM29.2592 243.666C29.2186 244.033 29.044 244.372 28.7689 244.618C28.4938 244.864 28.1375 245 27.7683 245H24.2307C23.8615 245 23.5052 244.864 23.23 244.618C22.9549 244.372 22.7803 244.033 22.7397 243.666L21.9992 237H29.9997L29.2592 243.666Z" fill="white" fill-opacity="0.95"/>
<path d="M21.5 235H30.5C30.6326 235 30.7598 234.947 30.8535 234.854C30.9473 234.76 31 234.633 31 234.5C31 234.367 30.9473 234.24 30.8535 234.146C30.7598 234.053 30.6326 234 30.5 234H28.5V233.5C28.4995 233.102 28.3414 232.721 28.0602 232.44C27.7789 232.159 27.3977 232 27 232H25C24.6023 232 24.221 232.159 23.9398 232.44C23.6586 232.721 23.5004 233.102 23.5 233.5V234H21.5C21.3674 234 21.2402 234.053 21.1464 234.146C21.0527 234.24 21 234.367 21 234.5C21 234.633 21.0527 234.76 21.1464 234.854C21.2402 234.947 21.3674 235 21.5 235ZM24.5 233.5C24.5001 233.367 24.5528 233.24 24.6466 233.147C24.7403 233.053 24.8674 233 25 233H27C27.1325 233 27.2596 233.053 27.3534 233.147C27.4471 233.24 27.4998 233.367 27.5 233.5V234H24.5V233.5Z" fill="white" fill-opacity="0.95"/>
<rect x="43.5" y="4.5" width="286" height="35" rx="17.5" transform="rotate(90 43.5 4.5)" stroke="white" stroke-opacity="0.2"/>
</g>
<defs>
<filter id="filter0_dd_3665_9430" x="0" y="0" width="52" height="303" filterUnits="userSpaceOnUse" color-interpolation-filters="sRGB">
<feFlood flood-opacity="0" result="BackgroundImageFix"/>
<feColorMatrix in="SourceAlpha" type="matrix" values="0 0 0 0 0 0 0 0 0 0 0 0 0 0 0 0 0 0 127 0" result="hardAlpha"/>
<feOffset/>
<feGaussianBlur stdDeviation="0.5"/>
<feColorMatrix type="matrix" values="0 0 0 0 0 0 0 0 0 0 0 0 0 0 0 0 0 0 0.16 0"/>
<feBlend mode="normal" in2="BackgroundImageFix" result="effect1_dropShadow_3665_9430"/>
<feColorMatrix in="SourceAlpha" type="matrix" values="0 0 0 0 0 0 0 0 0 0 0 0 0 0 0 0 0 0 127 0" result="hardAlpha"/>
<feOffset dy="4"/>
<feGaussianBlur stdDeviation="4"/>
<feColorMatrix type="matrix" values="0 0 0 0 0 0 0 0 0 0 0 0 0 0 0 0 0 0 0.16 0"/>
<feBlend mode="normal" in2="effect1_dropShadow_3665_9430" result="effect2_dropShadow_3665_9430"/>
<feBlend mode="normal" in="SourceGraphic" in2="effect2_dropShadow_3665_9430" result="shape"/>
</filter>
</defs>
</svg>
