<?xml version="1.0" encoding="UTF-8"?>
<svg width="246px" height="56px" viewBox="0 0 246 56" version="1.1" xmlns="http://www.w3.org/2000/svg" xmlns:xlink="http://www.w3.org/1999/xlink">
    <!-- Generator: Sketch 61.2 (89653) - https://sketch.com -->
    <title>Annotation tool Copy</title>
    <desc>Created with Sketch.</desc>
    <defs>
        <rect id="path-1" x="0" y="0" width="230" height="40" rx="4"></rect>
        <filter x="-5.7%" y="-27.5%" width="111.3%" height="165.0%" filterUnits="objectBoundingBox" id="filter-2">
            <feOffset dx="0" dy="2" in="SourceAlpha" result="shadowOffsetOuter1"></feOffset>
            <feGaussianBlur stdDeviation="4" in="shadowOffsetOuter1" result="shadowBlurOuter1"></feGaussianBlur>
            <feColorMatrix values="0 0 0 0 0   0 0 0 0 0   0 0 0 0 0  0 0 0 0.05 0" type="matrix" in="shadowBlurOuter1"></feColorMatrix>
        </filter>
    </defs>
    <g id="Page-2" stroke="none" stroke-width="1" fill="none" fill-rule="evenodd">
        <g id="Annotation-tool-Copy" transform="translate(8.000000, 6.000000)">
            <g id="Rectangle">
                <use fill="black" fill-opacity="1" filter="url(#filter-2)" xlink:href="#path-1"></use>
                <use fill="#FFFFFF" fill-rule="evenodd" xlink:href="#path-1"></use>
            </g>
            <path d="M0,32 L230,32 L230,36 C230,38.209139 228.209139,40 226,40 L4,40 C1.790861,40 2.705415e-16,38.209139 0,36 L0,32 L0,32 Z" id="Rectangle" fill="#F2F4F5"></path>
            <g id="navigation/arrow-down_6" transform="translate(112.000000, 33.000000)" fill="#171B1F">
                <g id="arrow-down_6" transform="translate(3.000000, 3.500000) scale(1, -1) translate(-3.000000, -3.500000) translate(0.000000, 2.000000)">
                    <path d="M3.00020784,2.99989444 C2.89020784,2.99989444 2.77920784,2.96289444 2.68820784,2.89089444 L0.187207843,0.890894439 C-0.0277921574,0.717894439 -0.0627921574,0.402894439 0.109207843,0.186894439 C0.283207843,-0.0271055605 0.597207843,-0.0631055605 0.812207843,0.108894439 L3.00020784,1.85989444 L5.18820784,0.108894439 C5.40320784,-0.0631055605 5.71820784,-0.0271055605 5.89120784,0.186894439 C6.06320784,0.402894439 6.02820784,0.717894439 5.81320784,0.890894439 L3.31220784,2.89089444 C3.22120784,2.96289444 3.11020784,2.99989444 3.00020784,2.99989444" id="fill" transform="translate(3.000208, 1.499947) rotate(180.000000) translate(-3.000208, -1.499947) "></path>
                </g>
            </g>
            <g id="tool" transform="translate(69.500000, 4.000000)">
                <rect id="Rectangle" fill="#E6E8E8" x="0.5" y="0" width="28" height="24" rx="2"></rect>
                <path d="M26.4999443,21.6507324 L26.4999443,19.3497324 C26.4999443,19.0397324 26.1239443,18.8827324 25.9029443,19.1027324 L23.6029443,21.4037324 C23.3829443,21.6247324 23.5389443,22.0007324 23.8499443,22.0007324 L26.1499443,22.0007324 C26.3439443,22.0007324 26.4999443,21.8437324 26.4999443,21.6507324" id="Fill-1" fill="#000000"></path>
                <line x1="18.6638779" y1="8" x2="10.5" y2="16.1638779" id="Path-2" stroke="#000000" stroke-linecap="round"></line>
            </g>
            <g id="button" transform="translate(4.000000, 4.000000)">
                <rect id="Rectangle" x="0" y="0" width="30" height="24" rx="2"></rect>
                <g id="content/undo_12_w" transform="translate(9.000000, 6.000000)" fill="#000000">
                    <g id="undo_12_w" transform="translate(1.000000, 1.000000)">
                        <g id="icon">
                            <path d="M5,0 C3.387,0 1.927,0.765 1,2.013 L1,0.5 C1,0.224 0.776,0 0.5,0 C0.224,0 0,0.224 0,0.5 L0,3.5 C0,3.776 0.224,4 0.5,4 L3.5,4 C3.776,4 4,3.776 4,3.5 C4,3.224 3.776,3 3.5,3 L1.536,3 C2.243,1.77 3.547,1 5,1 C7.206,1 9,2.794 9,5 C9,7.206 7.206,9 5,9 C4.724,9 4.5,9.224 4.5,9.5 C4.5,9.776 4.724,10 5,10 C7.757,10 10,7.757 10,5 C10,2.243 7.757,0 5,0" id="fill"></path>
                        </g>
                    </g>
                </g>
            </g>
            <g id="tool" transform="translate(198.000000, 4.000000)">
                <rect id="Rectangle" x="0" y="0" width="28" height="24" rx="2"></rect>
                <rect id="bg" stroke="#FFFFFF" stroke-width="2" fill="#F2A62C" x="6" y="4" width="16" height="16" rx="8"></rect>
            </g>
            <g id="tool" transform="translate(38.000000, 4.000000)">
                <rect id="Rectangle" x="0" y="0" width="28" height="24" rx="2"></rect>
                <g id="content/marker_12" transform="translate(8.000000, 6.000000)" fill="#000000">
                    <g id="marker_12">
                        <g id="icon">
                            <path d="M10.8544137,3.23165348 L4.24979904,9.83790087 L2.1635525,7.75276968 L8.7681672,1.14652228 C8.9630968,0.951603499 9.27998235,0.951603499 9.47491195,1.14652228 L10.8544137,2.52494794 C10.9493794,2.61990837 11.000361,2.74485631 11.000361,2.87780092 C11.000361,3.01174511 10.9493794,3.13669304 10.8544137,3.23165348 L10.8544137,3.23165348 Z M1.63374385,10.9284465 L1.07194674,10.365681 L1.64673915,8.64939608 L3.35212324,10.3546855 L1.63374385,10.9284465 Z M11.5611585,1.8182424 L10.1816567,0.439816743 C9.89875888,0.155935027 9.52289462,0 9.12303904,0 L9.1220394,0 C8.72118417,0.000999583507 8.34432027,0.156934611 8.06142245,0.439816743 L1.04795541,7.45489379 C0.993974905,7.5088713 0.952989707,7.5758434 0.927998733,7.64881299 L0.0263243788,10.341691 C-0.0346535986,10.521616 0.0123294332,10.7195335 0.146281056,10.8534777 L1.14592003,11.8530612 C1.24188537,11.9490212 1.36883952,12 1.49979223,12 C1.55177345,12 1.60575396,11.9920033 1.65773518,11.9740108 L4.35276185,11.0743857 C4.42673514,11.0493961 4.49371095,11.0084132 4.54769145,10.9534361 L11.5611585,3.9393586 C11.8440563,3.65547688 12,3.2786339 12,2.87780092 C12,2.47796751 11.8440563,2.10112453 11.5611585,1.8182424 L11.5611585,1.8182424 Z" id="fill"></path>
                        </g>
                    </g>
                </g>
            </g>
            <g id="tool" transform="translate(166.000000, 4.000000)">
                <rect id="Rectangle" x="0" y="0" width="28" height="24" rx="2"></rect>
                <g id="format/mouse-cursor_16" transform="translate(8.000000, 6.000000)" fill="#000000">
                    <g id="mouse-cursor_16" transform="translate(2.250000, 0.750000)">
                        <path d="M3.3552,6.554025 C3.34095,6.556275 3.33045,6.566025 3.31695,6.569025 C3.29595,6.574275 3.27495,6.574275 3.25395,6.583275 C3.2427,6.588525 3.23595,6.598275 3.2247,6.604275 C3.21645,6.609525 3.2067,6.609525 3.19845,6.614775 L0.78195,8.266275 L1.08945,1.208775 L6.30795,6.116025 L3.3552,6.554025 Z M7.38645,6.101025 L1.00695,0.101775 C0.90045,0.002025 0.74445,-0.027975 0.6087,0.028275 C0.47295,0.083025 0.38145,0.212775 0.37545,0.359025 L0.00045,8.982525 C-0.00555,9.124275 0.0687,9.257025 0.19245,9.326025 C0.24945,9.358275 0.31245,9.374025 0.3747,9.374025 C0.44895,9.374025 0.5232,9.351525 0.58695,9.308775 L3.2547,7.484775 L4.5342,10.280025 C4.5972,10.417275 4.73295,10.499025 4.87545,10.499025 C4.9272,10.499025 4.98045,10.487775 5.0307,10.465275 C5.21895,10.379025 5.3022,10.156275 5.21595,9.968025 L3.95895,7.222275 L7.18395,6.744525 C7.32645,6.724275 7.4442,6.623025 7.48695,6.485775 C7.53045,6.349275 7.4907,6.198525 7.38645,6.101025 L7.38645,6.101025 Z" id="fill"></path>
                    </g>
                </g>
            </g>
            <g id="tool" transform="translate(80.000000, 12.000000)"></g>
            <g id="tool" transform="translate(102.000000, 4.000000)">
                <rect id="Rectangle" x="0" y="0" width="28" height="24" rx="2"></rect>
                <path d="M26,21.6504 L26,19.3494 C26,19.0394 25.624,18.8824 25.403,19.1024 L23.103,21.4034 C22.883,21.6244 23.039,22.0004 23.35,22.0004 L25.65,22.0004 C25.844,22.0004 26,21.8434 26,21.6504" id="Fill-1" fill="#000000"></path>
                <g id="content/placeholder_12" transform="translate(8.000000, 6.000000)" fill="#000000">
                    <path d="M2,0 L10,0 C11.1045695,0 12,0.8954305 12,2 L12,10 C12,11.1045695 11.1045695,12 10,12 L2,12 C0.8954305,12 0,11.1045695 0,10 L0,2 C0,0.8954305 0.8954305,0 2,0 Z M2,1 C1.44771525,1 1,1.44771525 1,2 L1,10 C1,10.5522847 1.44771525,11 2,11 L10,11 C10.5522847,11 11,10.5522847 11,10 L11,2 C11,1.44771525 10.5522847,1 10,1 L2,1 Z" id="fill"></path>
                </g>
            </g>
            <g id="tool" transform="translate(134.000000, 4.000000)">
                <rect id="Rectangle" x="0" y="0" width="28" height="24" rx="2"></rect>
                <path d="M26,21.6504 L26,19.3494 C26,19.0394 25.624,18.8824 25.403,19.1024 L23.103,21.4034 C22.883,21.6244 23.039,22.0004 23.35,22.0004 L25.65,22.0004 C25.844,22.0004 26,21.8434 26,21.6504" id="Fill-1" fill="#000000"></path>
                <g id="navigation/next_12" transform="translate(8.000000, 6.000000)" fill="#000000">
                    <g id="next_12" transform="translate(1.000000, 1.500000)">
                        <path d="M7.95497051,4.35898988 L9.50025,4 L1.70725,4 L4.85425,0.854 C5.04925,0.658 5.04925,0.342 4.85425,0.146 C4.65825,-0.049 4.34225,-0.049 4.14625,0.146 L0.14625,4.146 C-0.04875,4.342 -0.04875,4.658 0.14625,4.854 L4.14625,8.854 C4.24425,8.951 4.37225,9 4.50025,9 C4.62825,9 4.75625,8.951 4.85425,8.854 C5.04925,8.658 5.04925,8.342 4.85425,8.146 L1.70725,5 L9.50025,5 C9.77625,5 10.00025,4.776 10.00025,4.5 C10.00025,4.224 9.77625,4 9.50025,4" id="fill" transform="translate(5.000125, 4.499875) scale(-1, 1) translate(-5.000125, -4.499875) "></path>
                    </g>
                </g>
            </g>
            <line x1="36" y1="8" x2="36" y2="24" id="Line-4" stroke="#E6E8E8" stroke-linecap="square"></line>
            <line x1="196" y1="8" x2="196" y2="24" id="Line-4" stroke="#E6E8E8" stroke-linecap="square"></line>
        </g>
    </g>
</svg>