<?xml version="1.0" encoding="UTF-8"?>
<svg width="82px" height="61px" viewBox="0 0 82 61" version="1.1" xmlns="http://www.w3.org/2000/svg" xmlns:xlink="http://www.w3.org/1999/xlink">
    <!-- Generator: Sketch 62 (91390) - https://sketch.com -->
    <title>phone/incoming-call-legacy_36</title>
    <desc>Created with Sketch.</desc>
    <g id="Page-1" stroke="none" stroke-width="1" fill="none" fill-rule="evenodd">
        <g id="phone/incoming-call-legacy_36">
            <path d="M58.6812093,54.44 C58.6812093,55.7618182 58.0830275,56.9836364 57.0393911,57.7963636 C56.0139366,58.5927273 54.7103002,58.8745455 53.4521184,58.5527273 C43.5030275,56.0236364 32.0793911,48.8581818 22.1121184,38.8872727 C12.1412093,28.9181818 4.97393657,17.4945455 2.44666384,7.54545455 C2.12848202,6.29454545 2.40484566,4.98727273 3.20302748,3.96 C4.01575475,2.91636364 5.23757293,2.31818182 6.55939111,2.31818182 L13.2721184,2.31818182 C15.6466638,2.31818182 17.7866638,3.72727273 18.7230275,5.90909091 L21.2593911,11.8054545 C22.1521184,13.8781818 22.0848457,16.2254545 21.0739366,18.2436364 L19.3648457,21.6636364 C18.6193911,23.1527273 18.8066638,24.9727273 19.8393911,26.3018182 C23.5757548,31.1072727 29.0048457,36.4981818 34.7303002,41.0927273 C36.0557548,42.1563636 37.8848457,42.3581818 39.3993911,41.6036364 L42.7557548,39.9254545 C44.7739366,38.9181818 47.1175729,38.8490909 49.1957548,39.74 L55.0903002,42.2763636 C57.2721184,43.2127273 58.6812093,45.3527273 58.6812093,47.7272727 L58.6812093,54.44 Z M49.9139366,38.0709091 C47.3503002,36.9672727 44.4430275,37.0509091 41.9430275,38.2981818 L38.5848457,39.9781818 C37.7103002,40.4127273 36.6412093,40.2963636 35.8666638,39.6763636 C30.248482,35.1654545 24.928482,29.8836364 21.2739366,25.1854545 C20.6593911,24.3945455 20.5503002,23.3563636 20.9921184,22.4781818 L22.7012093,19.0581818 C23.9503002,16.56 24.0339366,13.6545455 22.9303002,11.0872727 L20.3939366,5.18909091 C19.1703002,2.34 16.3739366,0.5 13.2721184,0.5 L6.55939111,0.5 C4.67393657,0.5 2.92666384,1.35454545 1.76848202,2.84363636 C0.623027478,4.31636364 0.228482023,6.19454545 0.686663841,7.99454545 C3.29030021,18.2509091 10.6303002,29.98 20.8266638,40.1727273 C31.0193911,50.3672727 42.7466638,57.7090909 53.0048457,60.3127273 C53.4957548,60.4381818 53.9921184,60.5 54.4848457,60.5 C55.7993911,60.5 57.0848457,60.0636364 58.1557548,59.2309091 C59.6448457,58.0727273 60.4993911,56.3254545 60.4993911,54.44 L60.4993911,47.7272727 C60.4993911,44.6254545 58.6575729,41.8290909 55.808482,40.6072727 L49.9139366,38.0709091 Z" id="fill" fill="#1DC4F2"></path>
            <g id="Group-5" transform="translate(37.500000, 6.000000)">
                <circle id="Oval" fill="#1DC4F2" cx="21.8181818" cy="21.8181818" r="21.8181818"></circle>
                <path d="M28.8903142,15.1096858 C28.7440665,14.9634381 28.5063202,14.9634381 28.3600725,15.1096858 L17.7499883,25.71902 L17.7499883,16.9824065 C17.7499883,16.7746598 17.5827409,16.6074124 17.3749941,16.6074124 C17.1679974,16.6074124 17,16.7746598 17,16.9824065 L17,26.6250059 C17,26.8320026 17.1679974,27 17.3749941,27 L27.0183435,27 C27.2253402,27 27.3933376,26.8320026 27.3933376,26.6250059 C27.3933376,26.4172591 27.2253402,26.2500117 27.0183435,26.2500117 L18.28098,26.2500117 L28.8903142,15.6399275 C29.0365619,15.4936798 29.0365619,15.2559335 28.8903142,15.1096858" id="Fill-1" stroke="#FFFFFF" stroke-width="0.8" fill="#FFFFFF" transform="translate(23.000000, 21.000000) scale(-1, -1) translate(-23.000000, -21.000000) "></path>
                <path d="M4.44302748,32.2981818 C6.94302748,31.0509091 9.85030021,30.9672727 12.4139366,32.0709091 L12.4139366,32.0709091 L18.308482,34.6072727 C21.1575729,35.8290909 22.9993911,38.6254545 22.9993911,41.7272727 L22.9993911,41.7272727 L22.9992971,43.6049385 C22.6082368,43.6257998 22.214443,43.6363636 21.8181818,43.6363636 C21.6050438,43.6363636 21.3926196,43.6333075 21.1809507,43.6272365 L21.1812093,41.7272727 C21.1812093,39.3527273 19.7721184,37.2127273 17.5903002,36.2763636 L17.5903002,36.2763636 L11.6957548,33.74 C9.61757293,32.8490909 7.27393657,32.9181818 5.25575475,33.9254545 L5.25575475,33.9254545 L4.07413538,34.5167943 C3.71903813,34.0214903 3.384165,33.5107043 3.07072363,32.9856439 Z" id="Combined-Shape" fill="#FFFFFF"></path>
            </g>
        </g>
    </g>
</svg>