<?xml version="1.0" encoding="UTF-8"?>
<svg width="76px" height="62px" viewBox="0 0 76 62" version="1.1" xmlns="http://www.w3.org/2000/svg" xmlns:xlink="http://www.w3.org/1999/xlink">
    <!-- Generator: Sketch 62 (91390) - https://sketch.com -->
    <title>Group 8</title>
    <desc>Created with Sketch.</desc>
    <defs>
        <circle id="path-1" cx="21.8181818" cy="21.8181818" r="21.8181818"></circle>
    </defs>
    <g id="Page-1" stroke="none" stroke-width="1" fill="none" fill-rule="evenodd">
        <g id="Group-8" transform="translate(1.000000, 1.000000)">
            <path d="M33.2008276,58.3084578 L15.2466891,40.2534578 C15.0900735,40.0951245 14.8768098,40.0084578 14.6552155,40.0084578 L6.29961003,40.0084578 C3.70045858,40.0084578 1.66612273,38.0117912 1.66612273,35.4667912 L1.66612273,24.5284578 C1.66612273,21.9934578 3.6804651,20.0067912 6.25629084,20.0067912 L14.6118963,19.9734578 C14.8334906,19.9717912 15.0434221,19.8834578 15.1983715,19.7284578 L33.1991615,1.68845783 L33.3324513,1.55179116 L33.2008276,58.3084578 Z M33.9239248,0.13345783 C33.2674725,-0.13654217 32.5243817,0.0101244971 32.0212127,0.510124497 L32.0212127,0.511791164 L14.2620105,18.3084578 L6.25295859,18.3401245 C2.74743638,18.3401245 -4.97379915e-14,21.0584578 -4.97379915e-14,24.5284578 L-4.97379915e-14,35.4667912 C-4.97379915e-14,38.9484578 2.76742985,41.6751245 6.29961003,41.6751245 L14.308662,41.6751245 L32.0212127,59.4851245 C32.3561034,59.8201245 32.8009581,59.9984578 33.2524774,59.9984578 C33.4774039,59.9984578 33.7056628,59.9534578 33.9222587,59.8651245 C34.5753788,59.5934578 34.998574,58.9601245 34.998574,58.2517912 L34.998574,1.7451245 C34.998574,1.03679116 34.5753788,0.40345783 33.9239248,0.13345783 L33.9239248,0.13345783 Z" id="fill" stroke="#FF5C4A" stroke-width="0.2" fill="#FF5C4A"></path>
            <g id="Group-6" transform="translate(30.625000, 8.125000)">
                <mask id="mask-2" fill="white">
                    <use xlink:href="#path-1"></use>
                </mask>
                <use id="Oval" fill="#FF5C4A" xlink:href="#path-1"></use>
                <path d="M3.61749424,49.1417912 L-14.3366443,31.0867912 C-14.4932598,30.9284578 -14.7065235,30.8417912 -14.9281178,30.8417912 L-23.2837233,30.8417912 C-25.8828748,30.8417912 -27.9172106,28.8451245 -27.9172106,26.3001245 L-27.9172106,15.3617912 C-27.9172106,12.8267912 -25.9028682,10.8401245 -23.3270425,10.8401245 L-14.971437,10.8067912 C-14.7498427,10.8051245 -14.5399112,10.7167912 -14.3849618,10.5617912 L3.61582812,-7.47820884 L3.74911794,-7.6148755 L3.61749424,49.1417912 Z M4.3405915,-9.03320884 C3.68413915,-9.30320884 2.94104841,-9.15654217 2.43787935,-8.65654217 L2.43787935,-8.6548755 L-15.3213228,9.14179116 L-23.3303747,9.17345783 C-26.835897,9.17345783 -29.5833333,11.8917912 -29.5833333,15.3617912 L-29.5833333,26.3001245 C-29.5833333,29.7817912 -26.8159035,32.5084578 -23.2837233,32.5084578 L-15.2746714,32.5084578 L2.43787935,50.3184578 C2.77277002,50.6534578 3.21762479,50.8317912 3.66914404,50.8317912 C3.89407061,50.8317912 4.12232943,50.7867912 4.33892538,50.6984578 C4.99204549,50.4267912 5.41524066,49.7934578 5.41524066,49.0851245 L5.41524066,-7.42154217 C5.41524066,-8.1298755 4.99204549,-8.76320884 4.3405915,-9.03320884 L4.3405915,-9.03320884 Z" id="fill" stroke="#292929" stroke-width="0.2" fill="#292929" mask="url(#mask-2)"></path>
                <path d="M22.7830676,21.8211466 L28.4370338,16.1653346 C28.7043221,15.8979591 28.7043221,15.4668841 28.4370338,15.1995086 C28.1711092,14.9334971 27.7401749,14.9334971 27.4728866,15.1995086 L21.8189205,20.8566847 L16.1635906,15.1995086 C15.897666,14.9334971 15.4667318,14.9334971 15.1994435,15.1995086 C14.9335188,15.4668841 14.9335188,15.8979591 15.1994435,16.1653346 L20.8547733,21.8211466 L15.1994435,27.4769586 C14.9335188,27.7443342 14.9335188,28.1754091 15.1994435,28.4427847 C15.3330876,28.5751083 15.5076432,28.6419522 15.6821989,28.6419522 C15.8567545,28.6419522 16.0313102,28.5751083 16.1635906,28.4427847 L21.8189205,22.7856086 L27.4728866,28.4427847 C27.6065308,28.5751083 27.7810864,28.6419522 27.955642,28.6419522 C28.1301977,28.6419522 28.3047533,28.5751083 28.4370338,28.4427847 C28.7043221,28.1754091 28.7043221,27.7443342 28.4370338,27.4769586 L22.7830676,21.8211466 Z" id="Fill-4" stroke="#292929" stroke-width="0.2" fill="#292929" mask="url(#mask-2)"></path>
            </g>
        </g>
    </g>
</svg>