<svg class="img" width="100px" height="65px" viewBox="0 0 100 65" version="1.1" xmlns="http://www.w3.org/2000/svg" xmlns:xlink="http://www.w3.org/1999/xlink">
            <defs>
                <rect id="path-1" x="0" y="0" width="458" height="451" rx="4"></rect>
                <filter x="-1.2%" y="-1.2%" width="103.7%" height="103.8%" filterUnits="objectBoundingBox" id="filter-2">
                    <feMorphology radius="1" operator="dilate" in="SourceAlpha" result="shadowSpreadOuter1"></feMorphology>
                    <feOffset dx="3" dy="3" in="shadowSpreadOuter1" result="shadowOffsetOuter1"></feOffset>
                    <feGaussianBlur stdDeviation="2" in="shadowOffsetOuter1" result="shadowBlurOuter1"></feGaussianBlur>
                    <feComposite in="shadowBlurOuter1" in2="SourceAlpha" operator="out" result="shadowBlurOuter1"></feComposite>
                    <feColorMatrix values="0 0 0 0 0   0 0 0 0 0   0 0 0 0 0  0 0 0 0.06 0" type="matrix" in="shadowBlurOuter1"></feColorMatrix>
                </filter>
            </defs>
            <g id="Page-1" stroke="none" stroke-width="1" fill="none" fill-rule="evenodd">
                <g id="Dialog-Copy-2" transform="translate(-179.000000, -90.000000)">
                    <g id="Group-4" transform="translate(179.000000, 90.000000)">
                        <rect id="frame" x="0" y="0" width="100" height="65"></rect>
                        <path d="M88.6972973,42.3279279 C89.0198198,40.8720721 89.2036036,39.372973 89.2036036,37.8432432 L89.2036036,22.5657658 C94.227027,22.9585586 98.1981982,27.2288288 98.1981982,32.4324324 C98.1981982,37.790991 93.9423423,42.2 88.6972973,42.3279279 L88.6972973,42.3279279 Z M67.581982,63.0630631 C65.0990991,63.0630631 63.0774775,61.0432432 63.0774775,58.5585586 C63.0774775,56.0738739 65.0990991,54.0540541 67.581982,54.0540541 C70.0666667,54.0540541 72.0864865,56.0738739 72.0864865,58.5585586 C72.0864865,61.0432432 70.0666667,63.0630631 67.581982,63.0630631 L67.581982,63.0630631 Z M45.9459459,42.3009009 C40.9027027,41.845045 36.9369369,37.5927928 36.9369369,32.4324324 C36.9369369,27.2720721 40.9027027,23.0198198 45.9459459,22.5621622 L45.9459459,42.3009009 Z M89.1765766,20.7621622 C88.8810811,9.26666667 79.3207207,0 67.581982,0 C55.8594595,0 46.2702703,9.28468468 45.9855856,20.763964 C39.9315315,21.209009 35.1351351,26.2648649 35.1351351,32.4324324 C35.1351351,38.8900901 40.3891892,44.1441441 46.8468468,44.1441441 C47.3459459,44.1441441 47.7477477,43.7405405 47.7477477,43.2432432 L47.7477477,21.6216216 C47.7477477,21.6198198 47.7477477,21.618018 47.7477477,21.618018 C47.754955,21.5045045 47.7585586,21.3783784 47.763964,21.2162162 C47.8108108,10.5099099 56.7009009,1.8018018 67.581982,1.8018018 C78.5117117,1.8018018 87.4018018,10.5495495 87.4018018,21.3045045 L87.4018018,37.8432432 C87.4018018,46.3531532 81.7063063,53.9225225 73.4972973,56.445045 C72.6234234,54.009009 70.3153153,52.2522523 67.581982,52.2522523 C64.1063063,52.2522523 61.2756757,55.0810811 61.2756757,58.5585586 C61.2756757,62.036036 64.1063063,64.8648649 67.581982,64.8648649 C71.0594595,64.8648649 73.8882883,62.036036 73.8882883,58.5585586 C73.8882883,58.4414414 73.8612613,58.3351351 73.8558559,58.2198198 C80.8576577,56.1315315 86.1963964,50.6810811 88.2612613,43.9855856 L88.2900901,44.1477477 L88.5837838,44.1387387 C94.8792793,44.0684685 100,38.8162162 100,32.4324324 C100,26.2234234 95.2054054,21.1441441 89.1765766,20.7621622 L89.1765766,20.7621622 Z" id="Fill-1" fill="#1DC4F2"></path>
                        <path d="M10.4054054,14.8648649 L51.7567568,14.8648649 C54.5181805,14.8648649 56.7567568,17.1034411 56.7567568,19.8648649 L56.7567568,50 L56.7567568,50 L5.40540541,50 L5.40540541,19.8648649 C5.40540541,17.1034411 7.64398166,14.8648649 10.4054054,14.8648649 Z" id="Rectangle" fill="#1DC4F2"></path>
                        <path d="M88.6972973,42.3279279 C89.0198198,40.8720721 89.2036036,39.372973 89.2036036,37.8432432 M72.0864865,58.5585586 C72.0864865,61.0432432 70.0666667,63.0630631 67.581982,63.0630631 M45.9459459,42.3009009 C40.9027027,41.845045 36.9369369,37.5927928 36.9369369,32.4324324 C36.9369369,27.2720721 40.9027027,23.0198198 45.9459459,22.5621622 L45.9459459,42.3009009 Z M46.9834193,14.8768878 C46.3824453,16.7428309 46.0363114,18.7185594 45.9855856,20.763964 C39.9315315,21.209009 35.1351351,26.2648649 35.1351351,32.4324324 C35.1351351,38.8900901 40.3891892,44.1441441 46.8468468,44.1441441 C47.3459459,44.1441441 47.7477477,43.7405405 47.7477477,43.2432432 L47.7477477,21.6216216 C47.754955,21.5045045 47.7585586,21.3783784 47.763964,21.2162162 C47.773649,19.0028169 48.1612992,16.8748216 48.8663674,14.8915199 M73.8882883,58.5585586 C73.8882883,58.4414414 73.8612613,58.3351351 73.8558559,58.2198198 M88.2612613,43.9855856 L88.2900901,44.1477477 L88.5837838,44.1387387" id="Fill-1" fill="#FFFFFF"></path>
                        <path d="M0,48.6486486 L62.1621622,48.6486486 L62.1621622,50.7027027 C62.1621622,51.8072722 61.2667317,52.7027027 60.1621622,52.7027027 L2,52.7027027 C0.8954305,52.7027027 1.3527075e-16,51.8072722 0,50.7027027 L0,48.6486486 L0,48.6486486 Z" id="Rectangle" fill="#00A0D1"></path>
                    </g>
                </g>
            </g>
        </svg>