<svg width="226" height="86" viewBox="0 0 226 86" fill="none" xmlns="http://www.w3.org/2000/svg">
<g filter="url(#filter0_d)">
<mask id="mask0" mask-type="alpha" maskUnits="userSpaceOnUse" x="12" y="8" width="202" height="62">
<path d="M214 8H12V70H214V8Z" fill="white"/>
<path fill-rule="evenodd" clip-rule="evenodd" d="M37 9C23.7452 9 13 19.7452 13 33C13 46.2548 23.7452 57 37 57H99C102.164 57 105.327 60.9702 108.015 64.3433C110 66.8345 111.726 69 113 69C114.274 69 116 66.8345 117.985 64.3433C120.673 60.9702 123.836 57 127 57H189C202.255 57 213 46.2548 213 33C213 19.7452 202.255 9 189 9H37Z" fill="black"/>
</mask>
<g mask="url(#mask0)">
<path d="M117.594 64.0317L117.985 64.3433L117.594 64.0317C116.596 65.2843 115.686 66.4251 114.869 67.2552C114.462 67.6695 114.094 67.9897 113.765 68.2036C113.431 68.4207 113.181 68.5 113 68.5C112.819 68.5 112.569 68.4207 112.235 68.2036C111.906 67.9897 111.538 67.6695 111.131 67.2552C110.314 66.4251 109.404 65.2843 108.406 64.0317L108.015 64.3433L108.406 64.0317L108.391 64.0124C107.056 62.3379 105.575 60.4794 104.026 59.0404C102.486 57.6093 100.782 56.5 99 56.5H37C24.0213 56.5 13.5 45.9787 13.5 33C13.5 20.0213 24.0213 9.5 37 9.5H189C201.979 9.5 212.5 20.0213 212.5 33C212.5 45.9787 201.979 56.5 189 56.5H127C125.218 56.5 123.514 57.6093 121.974 59.0404C120.425 60.4794 118.944 62.3379 117.609 64.0124L117.594 64.0317Z" fill="#292929" stroke="#3B3B3B"/>
<path d="M108.015 64.3433L107.233 64.9664L108.015 64.3433ZM117.985 64.3433L118.767 64.9664L117.985 64.3433ZM14 33C14 20.2975 24.2975 10 37 10V8C23.1929 8 12 19.1929 12 33H14ZM37 56C24.2975 56 14 45.7025 14 33H12C12 46.8071 23.1929 58 37 58V56ZM99 56H37V58H99V56ZM108.797 63.7201C107.464 62.0475 105.954 60.1488 104.366 58.6741C102.808 57.226 100.982 56 99 56V58C100.181 58 101.519 58.7591 103.005 60.1394C104.462 61.493 105.878 63.2659 107.233 64.9664L108.797 63.7201ZM113 68C112.957 68 112.804 67.9767 112.508 67.7844C112.222 67.5985 111.883 67.3068 111.487 66.9046C110.693 66.0972 109.801 64.9797 108.797 63.7201L107.233 64.9664C108.214 66.198 109.178 67.4089 110.061 68.3071C110.504 68.7576 110.959 69.163 111.417 69.461C111.866 69.7526 112.406 70 113 70V68ZM117.203 63.7201C116.199 64.9797 115.307 66.0972 114.513 66.9046C114.117 67.3068 113.778 67.5985 113.492 67.7844C113.196 67.9767 113.043 68 113 68V70C113.594 70 114.134 69.7526 114.583 69.461C115.041 69.163 115.496 68.7576 115.939 68.3071C116.822 67.4089 117.786 66.198 118.767 64.9664L117.203 63.7201ZM127 56C125.018 56 123.192 57.226 121.634 58.6741C120.046 60.1488 118.536 62.0475 117.203 63.7201L118.767 64.9664C120.122 63.2659 121.538 61.493 122.995 60.1394C124.481 58.7591 125.819 58 127 58V56ZM189 56H127V58H189V56ZM212 33C212 45.7025 201.703 56 189 56V58C202.807 58 214 46.8071 214 33H212ZM189 10C201.703 10 212 20.2975 212 33H214C214 19.1929 202.807 8 189 8V10ZM37 10H189V8H37V10Z" fill="black" fill-opacity="0.08"/>
</g>
</g>
<path d="M196 32H30C29.4477 32 29 32.4477 29 33C29 33.5523 29.4477 34 30 34H196C196.552 34 197 33.5523 197 33C197 32.4477 196.552 32 196 32Z" fill="#B2B2B2"/>
<path d="M112 32H30C29.4477 32 29 32.4477 29 33C29 33.5523 29.4477 34 30 34H112C112.552 34 113 33.5523 113 33C113 32.4477 112.552 32 112 32Z" fill="#07C1F5"/>
<g filter="url(#filter1_dd)">
<path fill-rule="evenodd" clip-rule="evenodd" d="M113 43C118.523 43 123 38.5228 123 33C123 27.4772 118.523 23 113 23C107.477 23 103 27.4772 103 33C103 38.5228 107.477 43 113 43Z" fill="white"/>
</g>
<defs>
<filter id="filter0_d" x="0" y="0" width="226" height="86" filterUnits="userSpaceOnUse" color-interpolation-filters="sRGB">
<feFlood flood-opacity="0" result="BackgroundImageFix"/>
<feColorMatrix in="SourceAlpha" type="matrix" values="0 0 0 0 0 0 0 0 0 0 0 0 0 0 0 0 0 0 127 0"/>
<feOffset dy="4"/>
<feGaussianBlur stdDeviation="6"/>
<feColorMatrix type="matrix" values="0 0 0 0 0 0 0 0 0 0 0 0 0 0 0 0 0 0 0.16 0"/>
<feBlend mode="normal" in2="BackgroundImageFix" result="effect1_dropShadow"/>
<feBlend mode="normal" in="SourceGraphic" in2="effect1_dropShadow" result="shape"/>
</filter>
<filter id="filter1_dd" x="99" y="21" width="28" height="28" filterUnits="userSpaceOnUse" color-interpolation-filters="sRGB">
<feFlood flood-opacity="0" result="BackgroundImageFix"/>
<feColorMatrix in="SourceAlpha" type="matrix" values="0 0 0 0 0 0 0 0 0 0 0 0 0 0 0 0 0 0 127 0"/>
<feOffset dy="2"/>
<feGaussianBlur stdDeviation="2"/>
<feColorMatrix type="matrix" values="0 0 0 0 0 0 0 0 0 0 0 0 0 0 0 0 0 0 0.2 0"/>
<feBlend mode="normal" in2="BackgroundImageFix" result="effect1_dropShadow"/>
<feColorMatrix in="SourceAlpha" type="matrix" values="0 0 0 0 0 0 0 0 0 0 0 0 0 0 0 0 0 0 127 0"/>
<feOffset dy="1"/>
<feGaussianBlur stdDeviation="1"/>
<feColorMatrix type="matrix" values="0 0 0 0 0 0 0 0 0 0 0 0 0 0 0 0 0 0 0.2 0"/>
<feBlend mode="normal" in2="effect1_dropShadow" result="effect2_dropShadow"/>
<feBlend mode="normal" in="SourceGraphic" in2="effect2_dropShadow" result="shape"/>
</filter>
</defs>
</svg>
