<svg width="453" height="40" viewBox="0 0 453 40" fill="none" xmlns="http://www.w3.org/2000/svg">
<path fill-rule="evenodd" clip-rule="evenodd" d="M48 0V40H392V0H48Z" fill="white" fill-opacity="0.08"/>
<path d="M76.5 20C76.5 25.2467 72.2467 29.5 67 29.5C61.7533 29.5 57.5 25.2467 57.5 20C57.5 14.7533 61.7533 10.5 67 10.5C72.2467 10.5 76.5 14.7533 76.5 20Z" stroke="white" stroke-width="3"/>
<path d="M76.5 20C76.5 25.2467 72.2467 29.5 67 29.5C61.7533 29.5 57.5 25.2467 57.5 20C57.5 14.7533 61.7533 10.5 67 10.5C72.2467 10.5 76.5 14.7533 76.5 20Z" stroke="#AFAFAF" stroke-width="3"/>
<path opacity="0.64" d="M93.5879 14.6104H90.5557V24H89.3252V14.6104H86.3003V13.4971H93.5879V14.6104ZM100.216 16.5L96.7666 25.2012C96.1514 26.7539 95.2871 27.5303 94.1738 27.5303C93.8613 27.5303 93.6001 27.4985 93.3901 27.4351V26.3584C93.6489 26.4463 93.8857 26.4902 94.1006 26.4902C94.7061 26.4902 95.1602 26.1289 95.4629 25.4062L96.0635 23.9854L93.1338 16.5H94.4668L96.4956 22.2715C96.52 22.3447 96.5713 22.5352 96.6494 22.8428H96.6934C96.7178 22.7256 96.7666 22.54 96.8398 22.2861L98.9712 16.5H100.216ZM102.743 22.916H102.714V27.4497H101.513V16.5H102.714V17.8184H102.743C103.334 16.8223 104.198 16.3242 105.336 16.3242C106.303 16.3242 107.057 16.6611 107.599 17.335C108.141 18.0039 108.412 18.9023 108.412 20.0303C108.412 21.2852 108.107 22.291 107.497 23.0479C106.886 23.7998 106.051 24.1758 104.992 24.1758C104.02 24.1758 103.271 23.7559 102.743 22.916ZM102.714 19.8911V20.9385C102.714 21.5586 102.914 22.0859 103.314 22.5205C103.72 22.9502 104.232 23.165 104.853 23.165C105.58 23.165 106.149 22.8867 106.559 22.3301C106.974 21.7734 107.182 20.9995 107.182 20.0083C107.182 19.1733 106.989 18.519 106.603 18.0454C106.217 17.5718 105.695 17.335 105.036 17.335C104.337 17.335 103.776 17.5791 103.351 18.0674C102.926 18.5508 102.714 19.1587 102.714 19.8911ZM116.359 20.5503H111.063C111.083 21.3853 111.308 22.0298 111.737 22.4839C112.167 22.938 112.758 23.165 113.51 23.165C114.354 23.165 115.131 22.8867 115.839 22.3301V23.458C115.18 23.9365 114.308 24.1758 113.224 24.1758C112.165 24.1758 111.332 23.8364 110.727 23.1577C110.121 22.4741 109.818 21.5146 109.818 20.2793C109.818 19.1123 110.148 18.1626 110.807 17.4302C111.471 16.6929 112.294 16.3242 113.275 16.3242C114.257 16.3242 115.016 16.6416 115.553 17.2764C116.09 17.9111 116.359 18.7925 116.359 19.9204V20.5503ZM115.128 19.5322C115.124 18.8389 114.955 18.2993 114.623 17.9136C114.296 17.5278 113.839 17.335 113.253 17.335C112.687 17.335 112.206 17.5376 111.811 17.9429C111.415 18.3481 111.171 18.8779 111.078 19.5322H115.128ZM128.524 24H127.323V19.6787C127.323 18.1162 126.742 17.335 125.58 17.335C124.994 17.335 124.501 17.562 124.101 18.0161C123.7 18.4653 123.5 19.0439 123.5 19.752V24H122.299V12.8965H123.5V17.7451H123.529C124.105 16.7979 124.926 16.3242 125.99 16.3242C127.68 16.3242 128.524 17.3423 128.524 19.3784V24ZM136.823 20.5503H131.527C131.547 21.3853 131.771 22.0298 132.201 22.4839C132.631 22.938 133.222 23.165 133.974 23.165C134.818 23.165 135.595 22.8867 136.303 22.3301V23.458C135.644 23.9365 134.772 24.1758 133.688 24.1758C132.628 24.1758 131.796 23.8364 131.19 23.1577C130.585 22.4741 130.282 21.5146 130.282 20.2793C130.282 19.1123 130.612 18.1626 131.271 17.4302C131.935 16.6929 132.758 16.3242 133.739 16.3242C134.721 16.3242 135.48 16.6416 136.017 17.2764C136.554 17.9111 136.823 18.7925 136.823 19.9204V20.5503ZM135.592 19.5322C135.587 18.8389 135.419 18.2993 135.087 17.9136C134.76 17.5278 134.303 17.335 133.717 17.335C133.151 17.335 132.67 17.5376 132.274 17.9429C131.879 18.3481 131.635 18.8779 131.542 19.5322H135.592ZM142.558 17.7158C142.348 17.5547 142.045 17.4741 141.649 17.4741C141.137 17.4741 140.707 17.7158 140.36 18.1992C140.019 18.6826 139.848 19.3418 139.848 20.1768V24H138.646V16.5H139.848V18.0454H139.877C140.048 17.5181 140.309 17.1079 140.661 16.8149C141.012 16.5171 141.405 16.3682 141.84 16.3682C142.152 16.3682 142.392 16.4023 142.558 16.4707V17.7158ZM149.684 20.5503H144.389C144.408 21.3853 144.633 22.0298 145.062 22.4839C145.492 22.938 146.083 23.165 146.835 23.165C147.68 23.165 148.456 22.8867 149.164 22.3301V23.458C148.505 23.9365 147.633 24.1758 146.549 24.1758C145.49 24.1758 144.657 23.8364 144.052 23.1577C143.446 22.4741 143.144 21.5146 143.144 20.2793C143.144 19.1123 143.473 18.1626 144.132 17.4302C144.796 16.6929 145.619 16.3242 146.601 16.3242C147.582 16.3242 148.341 16.6416 148.878 17.2764C149.416 17.9111 149.684 18.7925 149.684 19.9204V20.5503ZM148.454 19.5322C148.449 18.8389 148.28 18.2993 147.948 17.9136C147.621 17.5278 147.165 17.335 146.579 17.335C146.012 17.335 145.531 17.5376 145.136 17.9429C144.74 18.3481 144.496 18.8779 144.403 19.5322H148.454ZM159.103 23.9268C158.82 24.083 158.446 24.1611 157.982 24.1611C156.669 24.1611 156.012 23.4287 156.012 21.9639V17.5254H154.723V16.5H156.012V14.6689L157.213 14.2808V16.5H159.103V17.5254H157.213V21.7515C157.213 22.2544 157.299 22.6133 157.47 22.8281C157.641 23.043 157.924 23.1504 158.319 23.1504C158.622 23.1504 158.883 23.0674 159.103 22.9014V23.9268ZM163.725 24.1758C162.616 24.1758 161.73 23.8267 161.066 23.1284C160.407 22.4253 160.077 21.4951 160.077 20.3379C160.077 19.0781 160.421 18.0942 161.11 17.3862C161.798 16.6782 162.729 16.3242 163.9 16.3242C165.019 16.3242 165.89 16.6685 166.515 17.3569C167.145 18.0454 167.46 19 167.46 20.2207C167.46 21.417 167.121 22.3765 166.442 23.0991C165.768 23.8169 164.862 24.1758 163.725 24.1758ZM163.812 17.335C163.041 17.335 162.431 17.5986 161.981 18.126C161.532 18.6484 161.308 19.3711 161.308 20.2939C161.308 21.1826 161.535 21.8833 161.989 22.396C162.443 22.9087 163.051 23.165 163.812 23.165C164.589 23.165 165.185 22.9136 165.6 22.4106C166.02 21.9077 166.229 21.1924 166.229 20.2646C166.229 19.3271 166.02 18.6045 165.6 18.0967C165.185 17.5889 164.589 17.335 163.812 17.335ZM173.041 23.729V22.4399C173.627 22.9233 174.276 23.165 174.989 23.165C175.941 23.165 176.417 22.8135 176.417 22.1104C176.417 21.8174 176.312 21.5757 176.103 21.3853C175.893 21.1948 175.482 20.9678 174.872 20.7041C174.154 20.3867 173.671 20.062 173.422 19.73C173.178 19.3931 173.056 18.9805 173.056 18.4922C173.056 17.8672 173.302 17.3496 173.795 16.9395C174.289 16.5293 174.923 16.3242 175.7 16.3242C176.295 16.3242 176.83 16.4365 177.304 16.6611V17.877C176.811 17.5156 176.244 17.335 175.604 17.335C175.204 17.335 174.884 17.4326 174.645 17.6279C174.406 17.8232 174.286 18.0771 174.286 18.3896C174.286 18.6924 174.372 18.9365 174.542 19.1221C174.718 19.3076 175.109 19.5273 175.714 19.7812C176.452 20.0938 176.957 20.4209 177.23 20.7627C177.509 21.1045 177.648 21.5146 177.648 21.9932C177.648 22.6328 177.401 23.1577 176.908 23.5679C176.415 23.9731 175.746 24.1758 174.901 24.1758C174.188 24.1758 173.568 24.0269 173.041 23.729ZM185.5 20.5503H180.204C180.224 21.3853 180.448 22.0298 180.878 22.4839C181.308 22.938 181.898 23.165 182.65 23.165C183.495 23.165 184.271 22.8867 184.979 22.3301V23.458C184.32 23.9365 183.449 24.1758 182.365 24.1758C181.305 24.1758 180.473 23.8364 179.867 23.1577C179.262 22.4741 178.959 21.5146 178.959 20.2793C178.959 19.1123 179.289 18.1626 179.948 17.4302C180.612 16.6929 181.435 16.3242 182.416 16.3242C183.397 16.3242 184.157 16.6416 184.694 17.2764C185.231 17.9111 185.5 18.7925 185.5 19.9204V20.5503ZM184.269 19.5322C184.264 18.8389 184.096 18.2993 183.764 17.9136C183.437 17.5278 182.98 17.335 182.394 17.335C181.828 17.335 181.347 17.5376 180.951 17.9429C180.556 18.3481 180.312 18.8779 180.219 19.5322H184.269ZM192.692 24H191.491V22.8281H191.461C190.939 23.7266 190.17 24.1758 189.154 24.1758C188.407 24.1758 187.821 23.978 187.396 23.5825C186.977 23.187 186.767 22.6621 186.767 22.0078C186.767 20.6064 187.592 19.791 189.242 19.5615L191.491 19.2466C191.491 17.9722 190.976 17.335 189.945 17.335C189.042 17.335 188.227 17.6426 187.499 18.2578V17.0273C188.236 16.5586 189.086 16.3242 190.048 16.3242C191.811 16.3242 192.692 17.2568 192.692 19.1221V24ZM191.491 20.2061L189.682 20.4551C189.125 20.5332 188.705 20.6724 188.422 20.8726C188.139 21.0679 187.997 21.417 187.997 21.9199C187.997 22.2861 188.126 22.5864 188.385 22.8208C188.649 23.0503 188.998 23.165 189.433 23.165C190.028 23.165 190.519 22.9575 190.905 22.5425C191.295 22.1226 191.491 21.5928 191.491 20.9531V20.2061ZM198.866 17.7158C198.656 17.5547 198.354 17.4741 197.958 17.4741C197.445 17.4741 197.016 17.7158 196.669 18.1992C196.327 18.6826 196.156 19.3418 196.156 20.1768V24H194.955V16.5H196.156V18.0454H196.186C196.356 17.5181 196.618 17.1079 196.969 16.8149C197.321 16.5171 197.714 16.3682 198.148 16.3682C198.461 16.3682 198.7 16.4023 198.866 16.4707V17.7158ZM205.077 23.6558C204.501 24.0024 203.817 24.1758 203.026 24.1758C201.957 24.1758 201.093 23.8291 200.434 23.1357C199.779 22.4375 199.452 21.5342 199.452 20.4258C199.452 19.1904 199.806 18.1992 200.514 17.4521C201.222 16.7002 202.167 16.3242 203.349 16.3242C204.008 16.3242 204.589 16.4463 205.092 16.6904V17.9209C204.535 17.5303 203.939 17.335 203.305 17.335C202.538 17.335 201.908 17.6108 201.415 18.1626C200.927 18.7095 200.683 19.4297 200.683 20.3232C200.683 21.2021 200.912 21.8955 201.371 22.4033C201.835 22.9111 202.455 23.165 203.231 23.165C203.886 23.165 204.501 22.9478 205.077 22.5132V23.6558ZM213.119 24H211.918V19.6787C211.918 18.1162 211.337 17.335 210.175 17.335C209.589 17.335 209.096 17.562 208.695 18.0161C208.295 18.4653 208.095 19.0439 208.095 19.752V24H206.894V12.8965H208.095V17.7451H208.124C208.7 16.7979 209.521 16.3242 210.585 16.3242C212.274 16.3242 213.119 17.3423 213.119 19.3784V24Z" fill="white"/>
<path fill-rule="evenodd" clip-rule="evenodd" d="M371 13C370.449 13 370 13.449 370 14V22C370 22.552 370.449 23 371 23H374C374.551 23 375 22.552 375 22V14C375 13.449 374.551 13 374 13H371ZM374 24H371C369.896 24 369 23.104 369 22V14C369 12.896 369.896 12 371 12H374C375.104 12 376 12.896 376 14V22C376 23.104 375.104 24 374 24ZM377 23V20H378V23C378 24.657 376.657 26 375 26H373V27H375V28H373H372H370V27H372V26H370C368.343 26 367 24.657 367 23V20H368V23C368 24.103 368.897 25 370 25H372H373H375C376.103 25 377 24.103 377 23Z" fill="white" fill-opacity="0.64"/>
<path fill-rule="evenodd" clip-rule="evenodd" d="M422 13H410V27H422V13ZM421 14H411V26H421V14ZM423 15V16H425V24H423V25H426V15H423ZM409 16V15H406V25H409V24H407V16H409Z" fill="white"/>
<g opacity="0.88">
<g filter="url(#filter0_d)">
<path fill-rule="evenodd" clip-rule="evenodd" d="M16.0833 20.3667V25.6721L22.5617 26.5704V20.3933L16.0833 20.3667" fill="white"/>
</g>
<g filter="url(#filter1_d)">
<path fill-rule="evenodd" clip-rule="evenodd" d="M22.5617 13.5009L16.0833 14.4485V19.6937L22.5617 19.667V13.5009" fill="white"/>
</g>
<g filter="url(#filter2_d)">
<path fill-rule="evenodd" clip-rule="evenodd" d="M31.9237 19.6284V12.1315L23.3193 13.39V19.6638L31.9237 19.6284" fill="white"/>
</g>
<g filter="url(#filter3_d)">
<path fill-rule="evenodd" clip-rule="evenodd" d="M23.3193 26.6755L31.9237 27.8685V20.4318L23.3193 20.3964V26.6755" fill="white"/>
</g>
</g>
<defs>
<filter id="filter0_d" x="16.0833" y="20.3667" width="6.47833" height="6.20371" filterUnits="userSpaceOnUse" color-interpolation-filters="sRGB">
<feFlood flood-opacity="0" result="BackgroundImageFix"/>
<feColorMatrix in="SourceAlpha" type="matrix" values="0 0 0 0 0 0 0 0 0 0 0 0 0 0 0 0 0 0 127 0"/>
<feOffset/>
<feColorMatrix type="matrix" values="0 0 0 0 0 0 0 0 0 0 0 0 0 0 0 0 0 0 0.2 0"/>
<feBlend mode="normal" in2="BackgroundImageFix" result="effect1_dropShadow"/>
<feBlend mode="normal" in="SourceGraphic" in2="effect1_dropShadow" result="shape"/>
</filter>
<filter id="filter1_d" x="16.0833" y="13.5009" width="6.47833" height="6.19282" filterUnits="userSpaceOnUse" color-interpolation-filters="sRGB">
<feFlood flood-opacity="0" result="BackgroundImageFix"/>
<feColorMatrix in="SourceAlpha" type="matrix" values="0 0 0 0 0 0 0 0 0 0 0 0 0 0 0 0 0 0 127 0"/>
<feOffset/>
<feColorMatrix type="matrix" values="0 0 0 0 0 0 0 0 0 0 0 0 0 0 0 0 0 0 0.2 0"/>
<feBlend mode="normal" in2="BackgroundImageFix" result="effect1_dropShadow"/>
<feBlend mode="normal" in="SourceGraphic" in2="effect1_dropShadow" result="shape"/>
</filter>
<filter id="filter2_d" x="23.3193" y="12.1315" width="8.60433" height="7.53237" filterUnits="userSpaceOnUse" color-interpolation-filters="sRGB">
<feFlood flood-opacity="0" result="BackgroundImageFix"/>
<feColorMatrix in="SourceAlpha" type="matrix" values="0 0 0 0 0 0 0 0 0 0 0 0 0 0 0 0 0 0 127 0"/>
<feOffset/>
<feColorMatrix type="matrix" values="0 0 0 0 0 0 0 0 0 0 0 0 0 0 0 0 0 0 0.2 0"/>
<feBlend mode="normal" in2="BackgroundImageFix" result="effect1_dropShadow"/>
<feBlend mode="normal" in="SourceGraphic" in2="effect1_dropShadow" result="shape"/>
</filter>
<filter id="filter3_d" x="23.3193" y="20.3964" width="8.60433" height="7.47217" filterUnits="userSpaceOnUse" color-interpolation-filters="sRGB">
<feFlood flood-opacity="0" result="BackgroundImageFix"/>
<feColorMatrix in="SourceAlpha" type="matrix" values="0 0 0 0 0 0 0 0 0 0 0 0 0 0 0 0 0 0 127 0"/>
<feOffset/>
<feColorMatrix type="matrix" values="0 0 0 0 0 0 0 0 0 0 0 0 0 0 0 0 0 0 0.2 0"/>
<feBlend mode="normal" in2="BackgroundImageFix" result="effect1_dropShadow"/>
<feBlend mode="normal" in="SourceGraphic" in2="effect1_dropShadow" result="shape"/>
</filter>
</defs>
</svg>
