<svg width="58" height="40" viewBox="0 0 58 40" fill="none" xmlns="http://www.w3.org/2000/svg">
<rect width="58" height="40" fill="white" fill-opacity="0.2"/>
<rect y="38" width="58" height="2" fill="#07C1F5"/>
<rect x="16.1826" y="7.1875" width="25.625" height="25.625" rx="5.625" fill="url(#paint0_linear)"/>
<g clip-path="url(#clip0)">
<path d="M24.7915 28.0296C20.6735 28.0296 19.272 22.8217 18.9579 21.8086C18.1693 19.2645 17.9295 16.9729 17.9041 16.7324C17.7577 15.3447 18.8707 14.379 20.0922 14.379C21.0171 14.379 22.0905 14.9327 22.2327 16.2759C22.2574 16.5019 22.4454 18.4505 23.1106 20.5737C23.8048 22.7897 24.5412 23.6419 25.0715 23.6419C25.9279 23.6419 26.4505 21.4422 26.9124 19.3476C27.2527 17.8045 27.6206 16.2496 28.3469 14.8684C29.6106 12.4654 31.52 11.9062 33.1696 11.9062C36.7866 11.9062 38.5969 16.097 38.5969 17.1828C38.5969 18.9973 37.117 19.4601 36.4756 19.4601C35.0727 19.4601 34.5971 18.5201 34.1968 17.6962C33.8367 16.9549 33.4607 16.3386 32.9745 16.3386C32.8147 16.3386 32.6667 16.4195 32.5298 16.5587C31.3213 17.7869 30.9161 24.2124 28.4999 26.6682C27.1604 28.0296 25.703 28.0296 24.7915 28.0296Z" fill="url(#paint1_linear)"/>
<path d="M24.7915 28.0296C20.6735 28.0296 19.272 22.8217 18.9579 21.8086C18.1693 19.2645 17.9295 16.9729 17.9041 16.7324C17.7577 15.3447 18.8707 14.379 20.0922 14.379C21.0171 14.379 22.0905 14.9327 22.2327 16.2759C22.2574 16.5019 22.4454 18.4505 23.1106 20.5737C23.8048 22.7897 24.5412 23.6419 25.0715 23.6419C25.9279 23.6419 26.4505 21.4422 26.9124 19.3476C27.2527 17.8045 27.6206 16.2496 28.3469 14.8684C29.6106 12.4654 31.52 11.9062 33.1696 11.9062C36.7866 11.9062 38.5969 16.097 38.5969 17.1828C38.5969 18.9973 37.117 19.4601 36.4756 19.4601C35.0727 19.4601 34.5971 18.5201 34.1968 17.6962C33.8367 16.9549 33.4607 16.3386 32.9745 16.3386C32.8147 16.3386 32.6667 16.4195 32.5298 16.5587C31.3213 17.7869 30.9161 24.2124 28.4999 26.6682C27.1604 28.0296 25.703 28.0296 24.7915 28.0296Z" fill="url(#paint2_radial)"/>
<path d="M24.7915 28.0296C20.6735 28.0296 19.272 22.8217 18.9579 21.8086C18.1693 19.2645 17.9295 16.9729 17.9041 16.7324C17.7577 15.3447 18.8707 14.379 20.0922 14.379C21.0171 14.379 22.0905 14.9327 22.2327 16.2759C22.2574 16.5019 22.4454 18.4505 23.1106 20.5737C23.8048 22.7897 24.5412 23.6419 25.0715 23.6419C25.9279 23.6419 26.4505 21.4422 26.9124 19.3476C27.2527 17.8045 27.6206 16.2496 28.3469 14.8684C29.6106 12.4654 31.52 11.9062 33.1696 11.9062C36.7866 11.9062 38.5969 16.097 38.5969 17.1828C38.5969 18.9973 37.117 19.4601 36.4756 19.4601C35.0727 19.4601 34.5971 18.5201 34.1968 17.6962C33.8367 16.9549 33.4607 16.3386 32.9745 16.3386C32.8147 16.3386 32.6667 16.4195 32.5298 16.5587C31.3213 17.7869 30.9161 24.2124 28.4999 26.6682C27.1604 28.0296 25.703 28.0296 24.7915 28.0296Z" fill="url(#paint3_radial)"/>
<path d="M24.7915 28.0296C20.6735 28.0296 19.272 22.8217 18.9579 21.8086C18.1693 19.2645 17.9295 16.9729 17.9041 16.7324C17.7577 15.3447 18.8707 14.379 20.0922 14.379C21.0171 14.379 22.0905 14.9327 22.2327 16.2759C22.2574 16.5019 22.4454 18.4505 23.1106 20.5737C23.8048 22.7897 24.5412 23.6419 25.0715 23.6419C25.9279 23.6419 26.4505 21.4422 26.9124 19.3476C27.2527 17.8045 27.6206 16.2496 28.3469 14.8684C29.6106 12.4654 31.52 11.9062 33.1696 11.9062C36.7866 11.9062 38.5969 16.097 38.5969 17.1828C38.5969 18.9973 37.117 19.4601 36.4756 19.4601C35.0727 19.4601 34.5971 18.5201 34.1968 17.6962C33.8367 16.9549 33.4607 16.3386 32.9745 16.3386C32.8147 16.3386 32.6667 16.4195 32.5298 16.5587C31.3213 17.7869 30.9161 24.2124 28.4999 26.6682C27.1604 28.0296 25.703 28.0296 24.7915 28.0296Z" fill="url(#paint4_radial)"/>
<path d="M24.7915 28.0296C20.6735 28.0296 19.272 22.8217 18.9579 21.8086C18.1693 19.2645 17.9295 16.9729 17.9041 16.7324C17.7577 15.3447 18.8707 14.379 20.0922 14.379C21.0171 14.379 22.0905 14.9327 22.2327 16.2759C22.2574 16.5019 22.4454 18.4505 23.1106 20.5737C23.8048 22.7897 24.5412 23.6419 25.0715 23.6419C25.9279 23.6419 26.4505 21.4422 26.9124 19.3476C27.2527 17.8045 27.6206 16.2496 28.3469 14.8684C29.6106 12.4654 31.52 11.9062 33.1696 11.9062C36.7866 11.9062 38.5969 16.097 38.5969 17.1828C38.5969 18.9973 37.117 19.4601 36.4756 19.4601C35.0727 19.4601 34.5971 18.5201 34.1968 17.6962C33.8367 16.9549 33.4607 16.3386 32.9745 16.3386C32.8147 16.3386 32.6667 16.4195 32.5298 16.5587C31.3213 17.7869 30.9161 24.2124 28.4999 26.6682C27.1604 28.0296 25.703 28.0296 24.7915 28.0296Z" fill="url(#paint5_radial)"/>
<path d="M24.7915 28.0296C20.6735 28.0296 19.272 22.8217 18.9579 21.8086C18.1693 19.2645 17.9295 16.9729 17.9041 16.7324C17.7577 15.3447 18.8707 14.379 20.0922 14.379C21.0171 14.379 22.0905 14.9327 22.2327 16.2759C22.2574 16.5019 22.4454 18.4505 23.1106 20.5737C23.8048 22.7897 24.5412 23.6419 25.0715 23.6419C25.9279 23.6419 26.4505 21.4422 26.9124 19.3476C27.2527 17.8045 27.6206 16.2496 28.3469 14.8684C29.6106 12.4654 31.52 11.9062 33.1696 11.9062C36.7866 11.9062 38.5969 16.097 38.5969 17.1828C38.5969 18.9973 37.117 19.4601 36.4756 19.4601C35.0727 19.4601 34.5971 18.5201 34.1968 17.6962C33.8367 16.9549 33.4607 16.3386 32.9745 16.3386C32.8147 16.3386 32.6667 16.4195 32.5298 16.5587C31.3213 17.7869 30.9161 24.2124 28.4999 26.6682C27.1604 28.0296 25.703 28.0296 24.7915 28.0296Z" fill="url(#paint6_radial)"/>
<path d="M24.7915 28.0296C20.6735 28.0296 19.272 22.8217 18.9579 21.8086C18.1693 19.2645 17.9295 16.9729 17.9041 16.7324C17.7577 15.3447 18.8707 14.379 20.0922 14.379C21.0171 14.379 22.0905 14.9327 22.2327 16.2759C22.2574 16.5019 22.4454 18.4505 23.1106 20.5737C23.8048 22.7897 24.5412 23.6419 25.0715 23.6419C25.9279 23.6419 26.4505 21.4422 26.9124 19.3476C27.2527 17.8045 27.6206 16.2496 28.3469 14.8684C29.6106 12.4654 31.52 11.9062 33.1696 11.9062C36.7866 11.9062 38.5969 16.097 38.5969 17.1828C38.5969 18.9973 37.117 19.4601 36.4756 19.4601C35.0727 19.4601 34.5971 18.5201 34.1968 17.6962C33.8367 16.9549 33.4607 16.3386 32.9745 16.3386C32.8147 16.3386 32.6667 16.4195 32.5298 16.5587C31.3213 17.7869 30.9161 24.2124 28.4999 26.6682C27.1604 28.0296 25.703 28.0296 24.7915 28.0296Z" fill="url(#paint7_radial)"/>
<path d="M24.7915 28.0296C20.6735 28.0296 19.272 22.8217 18.9579 21.8086C18.1693 19.2645 17.9295 16.9729 17.9041 16.7324C17.7577 15.3447 18.8707 14.379 20.0922 14.379C21.0171 14.379 22.0905 14.9327 22.2327 16.2759C22.2574 16.5019 22.4454 18.4505 23.1106 20.5737C23.8048 22.7897 24.5412 23.6419 25.0715 23.6419C25.9279 23.6419 26.4505 21.4422 26.9124 19.3476C27.2527 17.8045 27.6206 16.2496 28.3469 14.8684C29.6106 12.4654 31.52 11.9062 33.1696 11.9062C36.7866 11.9062 38.5969 16.097 38.5969 17.1828C38.5969 18.9973 37.117 19.4601 36.4756 19.4601C35.0727 19.4601 34.5971 18.5201 34.1968 17.6962C33.8367 16.9549 33.4607 16.3386 32.9745 16.3386C32.8147 16.3386 32.6667 16.4195 32.5298 16.5587C31.3213 17.7869 30.9161 24.2124 28.4999 26.6682C27.1604 28.0296 25.703 28.0296 24.7915 28.0296Z" fill="url(#paint8_linear)"/>
<path d="M24.7915 28.0296C20.6735 28.0296 19.272 22.8217 18.9579 21.8086C18.1693 19.2645 17.9295 16.9729 17.9041 16.7324C17.7577 15.3447 18.8707 14.379 20.0922 14.379C21.0171 14.379 22.0905 14.9327 22.2327 16.2759C22.2574 16.5019 22.4454 18.4505 23.1106 20.5737C23.8048 22.7897 24.5412 23.6419 25.0715 23.6419C25.9279 23.6419 26.4505 21.4422 26.9124 19.3476C27.2527 17.8045 27.6206 16.2496 28.3469 14.8684C29.6106 12.4654 31.52 11.9062 33.1696 11.9062C36.7866 11.9062 38.5969 16.097 38.5969 17.1828C38.5969 18.9973 37.117 19.4601 36.4756 19.4601C35.0727 19.4601 34.5971 18.5201 34.1968 17.6962C33.8367 16.9549 33.4607 16.3386 32.9745 16.3386C32.8147 16.3386 32.6667 16.4195 32.5298 16.5587C31.3213 17.7869 30.9161 24.2124 28.4999 26.6682C27.1604 28.0296 25.703 28.0296 24.7915 28.0296Z" fill="url(#paint9_radial)"/>
<path d="M33.1697 11.9062C31.5202 11.9062 29.6108 12.4654 28.3471 14.8684C27.6208 16.2496 27.2529 17.8045 26.9126 19.3476C26.8006 19.8555 26.685 20.3694 26.562 20.8567V27.8384C27.1862 27.6618 27.8568 27.322 28.5001 26.6682C30.9163 24.2124 31.3215 17.7869 32.53 16.5587C32.6669 16.4195 32.8149 16.3386 32.9747 16.3386C33.4609 16.3386 33.8369 16.9549 34.197 17.6962C34.5973 18.5201 35.0728 19.4601 36.4758 19.4601C37.1172 19.4601 38.5971 18.9973 38.5971 17.1828C38.5971 16.097 36.7868 11.9062 33.1697 11.9062Z" fill="url(#paint10_radial)"/>
<path d="M24.7915 28.0296C20.6735 28.0296 19.272 22.8217 18.9579 21.8086C18.1693 19.2645 17.9295 16.9729 17.9041 16.7324C17.7577 15.3447 18.8707 14.379 20.0922 14.379C21.0171 14.379 22.0905 14.9327 22.2327 16.2759C22.2574 16.5019 22.4454 18.4505 23.1106 20.5737C23.8048 22.7897 24.5412 23.6419 25.0715 23.6419C25.9279 23.6419 26.4505 21.4422 26.9124 19.3476C27.2527 17.8045 27.6206 16.2496 28.3469 14.8684C29.6106 12.4654 31.52 11.9062 33.1696 11.9062C36.7866 11.9062 38.5969 16.097 38.5969 17.1828C38.5969 18.9973 37.117 19.4601 36.4756 19.4601C35.0727 19.4601 34.5971 18.5201 34.1968 17.6962C33.8367 16.9549 33.4607 16.3386 32.9745 16.3386C32.8147 16.3386 32.6667 16.4195 32.5298 16.5587C31.3213 17.7869 30.9161 24.2124 28.4999 26.6682C27.1604 28.0296 25.703 28.0296 24.7915 28.0296Z" fill="url(#paint11_radial)"/>
<path d="M24.7915 28.0296C20.6735 28.0296 19.272 22.8217 18.9579 21.8086C18.1693 19.2645 17.9295 16.9729 17.9041 16.7324C17.7577 15.3447 18.8707 14.379 20.0922 14.379C21.0171 14.379 22.0905 14.9327 22.2327 16.2759C22.2574 16.5019 22.4454 18.4505 23.1106 20.5737C23.8048 22.7897 24.5412 23.6419 25.0715 23.6419C25.9279 23.6419 26.4505 21.4422 26.9124 19.3476C27.2527 17.8045 27.6206 16.2496 28.3469 14.8684C29.6106 12.4654 31.52 11.9062 33.1696 11.9062C36.7866 11.9062 38.5969 16.097 38.5969 17.1828C38.5969 18.9973 37.117 19.4601 36.4756 19.4601C35.0727 19.4601 34.5971 18.5201 34.1968 17.6962C33.8367 16.9549 33.4607 16.3386 32.9745 16.3386C32.8147 16.3386 32.6667 16.4195 32.5298 16.5587C31.3213 17.7869 30.9161 24.2124 28.4999 26.6682C27.1604 28.0296 25.703 28.0296 24.7915 28.0296Z" fill="url(#paint12_radial)"/>
<path d="M24.7915 28.0296C20.6735 28.0296 19.272 22.8217 18.9579 21.8086C18.1693 19.2645 17.9295 16.9729 17.9041 16.7324C17.7577 15.3447 18.8707 14.379 20.0922 14.379C21.0171 14.379 22.0905 14.9327 22.2327 16.2759C22.2574 16.5019 22.4454 18.4505 23.1106 20.5737C23.8048 22.7897 24.5412 23.6419 25.0715 23.6419C25.9279 23.6419 26.4505 21.4422 26.9124 19.3476C27.2527 17.8045 27.6206 16.2496 28.3469 14.8684C29.6106 12.4654 31.52 11.9062 33.1696 11.9062C36.7866 11.9062 38.5969 16.097 38.5969 17.1828C38.5969 18.9973 37.117 19.4601 36.4756 19.4601C35.0727 19.4601 34.5971 18.5201 34.1968 17.6962C33.8367 16.9549 33.4607 16.3386 32.9745 16.3386C32.8147 16.3386 32.6667 16.4195 32.5298 16.5587C31.3213 17.7869 30.9161 24.2124 28.4999 26.6682C27.1604 28.0296 25.703 28.0296 24.7915 28.0296Z" fill="url(#paint13_radial)"/>
<path d="M24.7915 28.0296C20.6735 28.0296 19.272 22.8217 18.9579 21.8086C18.1693 19.2645 17.9295 16.9729 17.9041 16.7324C17.7577 15.3447 18.8707 14.379 20.0922 14.379C21.0171 14.379 22.0905 14.9327 22.2327 16.2759C22.2574 16.5019 22.4454 18.4505 23.1106 20.5737C23.8048 22.7897 24.5412 23.6419 25.0715 23.6419C25.9279 23.6419 26.4505 21.4422 26.9124 19.3476C27.2527 17.8045 27.6206 16.2496 28.3469 14.8684C29.6106 12.4654 31.52 11.9062 33.1696 11.9062C36.7866 11.9062 38.5969 16.097 38.5969 17.1828C38.5969 18.9973 37.117 19.4601 36.4756 19.4601C35.0727 19.4601 34.5971 18.5201 34.1968 17.6962C33.8367 16.9549 33.4607 16.3386 32.9745 16.3386C32.8147 16.3386 32.6667 16.4195 32.5298 16.5587C31.3213 17.7869 30.9161 24.2124 28.4999 26.6682C27.1604 28.0296 25.703 28.0296 24.7915 28.0296Z" fill="url(#paint14_radial)"/>
<path d="M24.7915 28.0296C20.6735 28.0296 19.272 22.8217 18.9579 21.8086C18.1693 19.2645 17.9295 16.9729 17.9041 16.7324C17.7577 15.3447 18.8707 14.379 20.0922 14.379C21.0171 14.379 22.0905 14.9327 22.2327 16.2759C22.2574 16.5019 22.4454 18.4505 23.1106 20.5737C23.8048 22.7897 24.5412 23.6419 25.0715 23.6419C25.9279 23.6419 26.4505 21.4422 26.9124 19.3476C27.2527 17.8045 27.6206 16.2496 28.3469 14.8684C29.6106 12.4654 31.52 11.9062 33.1696 11.9062C36.7866 11.9062 38.5969 16.097 38.5969 17.1828C38.5969 18.9973 37.117 19.4601 36.4756 19.4601C35.0727 19.4601 34.5971 18.5201 34.1968 17.6962C33.8367 16.9549 33.4607 16.3386 32.9745 16.3386C32.8147 16.3386 32.6667 16.4195 32.5298 16.5587C31.3213 17.7869 30.9161 24.2124 28.4999 26.6682C27.1604 28.0296 25.703 28.0296 24.7915 28.0296Z" fill="url(#paint15_radial)"/>
<path d="M37.9299 14.379C37.7669 14.379 37.6029 14.3944 37.442 14.426C38.2066 15.5286 38.5892 16.6836 38.5892 17.1827C38.5892 18.9972 37.1092 19.46 36.4678 19.46C35.9673 19.46 35.5848 19.3403 35.2817 19.1489C35.2789 19.1603 35.2761 19.1716 35.2733 19.1829C35.1831 19.543 35.1119 19.9372 34.9888 20.3207C34.752 21.0582 34.4326 21.9006 34.0914 22.5525C33.7238 23.2552 33.3597 23.6664 32.9258 23.6448C32.4324 23.6203 32.0324 22.9843 31.5351 21.1867C31.3747 20.6071 31.2263 19.9716 31.0887 19.3476C30.7473 17.8 30.3284 16.2436 29.612 14.8684C28.442 12.6222 26.446 11.9062 24.8525 11.9062C23.3747 11.9062 22.2707 12.6059 21.4034 13.4874C21.1637 13.7311 20.9019 14.0593 20.6389 14.445C21.3954 14.6272 22.1107 15.1966 22.2249 16.2758C22.2474 16.4816 22.4053 18.1158 22.9357 20.0096C23.0879 19.5348 23.3097 18.8317 23.8252 17.6962C24.0779 17.1761 24.3059 16.8332 24.5116 16.6242C24.7002 16.4324 24.8701 16.3532 25.0231 16.3532C25.1881 16.3532 25.7513 16.5042 26.2997 18.4286C26.9798 20.8148 27.4859 24.6125 29.4142 26.6289C30.2647 27.5183 31.4549 28.0938 33.1044 28.0938C34.5518 28.0938 35.7585 27.4563 36.6189 26.5696C38.0335 25.1114 38.8087 22.7007 39.0852 21.8086C39.8719 19.2706 40.0923 16.9752 40.118 16.7324C40.2644 15.3447 39.0953 14.379 37.9299 14.379Z" fill="#316AFF"/>
<path d="M37.9299 14.379C37.7669 14.379 37.6029 14.3944 37.442 14.426C38.2066 15.5286 38.5892 16.6836 38.5892 17.1827C38.5892 18.9972 37.1092 19.46 36.4678 19.46C35.9673 19.46 35.5848 19.3403 35.2817 19.1489C35.2789 19.1603 35.2761 19.1716 35.2733 19.1829C35.1831 19.543 35.1119 19.9372 34.9888 20.3207C34.752 21.0582 34.4326 21.9006 34.0914 22.5525C33.7238 23.2552 33.3597 23.6664 32.9258 23.6448C32.4324 23.6203 32.0324 22.9843 31.5351 21.1867C31.3747 20.6071 31.2263 19.9716 31.0887 19.3476C30.7473 17.8 30.3284 16.2436 29.612 14.8684C28.442 12.6222 26.446 11.9062 24.8525 11.9062C23.3747 11.9062 22.2707 12.6059 21.4034 13.4874C21.1637 13.7311 20.9019 14.0593 20.6389 14.445C21.3954 14.6272 22.1107 15.1966 22.2249 16.2758C22.2474 16.4816 22.4053 18.1158 22.9357 20.0096C23.0879 19.5348 23.3097 18.8317 23.8252 17.6962C24.0779 17.1761 24.3059 16.8332 24.5116 16.6242C24.7002 16.4324 24.8701 16.3532 25.0231 16.3532C25.1881 16.3532 25.7513 16.5042 26.2997 18.4286C26.9798 20.8148 27.4859 24.6125 29.4142 26.6289C30.2647 27.5183 31.4549 28.0938 33.1044 28.0938C34.5518 28.0938 35.7585 27.4563 36.6189 26.5696C38.0335 25.1114 38.8087 22.7007 39.0852 21.8086C39.8719 19.2706 40.0923 16.9752 40.118 16.7324C40.2644 15.3447 39.0953 14.379 37.9299 14.379Z" fill="url(#paint16_radial)"/>
<path d="M37.9299 14.379C37.7669 14.379 37.6029 14.3944 37.442 14.426C38.2066 15.5286 38.5892 16.6836 38.5892 17.1827C38.5892 18.9972 37.1092 19.46 36.4678 19.46C35.9673 19.46 35.5848 19.3403 35.2817 19.1489C35.2789 19.1603 35.2761 19.1716 35.2733 19.1829C35.1831 19.543 35.1119 19.9372 34.9888 20.3207C34.752 21.0582 34.4326 21.9006 34.0914 22.5525C33.7238 23.2552 33.3597 23.6664 32.9258 23.6448C32.4324 23.6203 32.0324 22.9843 31.5351 21.1867C31.3747 20.6071 31.2263 19.9716 31.0887 19.3476C30.7473 17.8 30.3284 16.2436 29.612 14.8684C28.442 12.6222 26.446 11.9062 24.8525 11.9062C23.3747 11.9062 22.2707 12.6059 21.4034 13.4874C21.1637 13.7311 20.9019 14.0593 20.6389 14.445C21.3954 14.6272 22.1107 15.1966 22.2249 16.2758C22.2474 16.4816 22.4053 18.1158 22.9357 20.0096C23.0879 19.5348 23.3097 18.8317 23.8252 17.6962C24.0779 17.1761 24.3059 16.8332 24.5116 16.6242C24.7002 16.4324 24.8701 16.3532 25.0231 16.3532C25.1881 16.3532 25.7513 16.5042 26.2997 18.4286C26.9798 20.8148 27.4859 24.6125 29.4142 26.6289C30.2647 27.5183 31.4549 28.0938 33.1044 28.0938C34.5518 28.0938 35.7585 27.4563 36.6189 26.5696C38.0335 25.1114 38.8087 22.7007 39.0852 21.8086C39.8719 19.2706 40.0923 16.9752 40.118 16.7324C40.2644 15.3447 39.0953 14.379 37.9299 14.379Z" fill="url(#paint17_radial)"/>
<path d="M37.9299 14.379C37.7669 14.379 37.6029 14.3944 37.442 14.426C38.2066 15.5286 38.5892 16.6836 38.5892 17.1827C38.5892 18.9972 37.1092 19.46 36.4678 19.46C35.9673 19.46 35.5848 19.3403 35.2817 19.1489C35.2789 19.1603 35.2761 19.1716 35.2733 19.1829C35.1831 19.543 35.1119 19.9372 34.9888 20.3207C34.752 21.0582 34.4326 21.9006 34.0914 22.5525C33.7238 23.2552 33.3597 23.6664 32.9258 23.6448C32.4324 23.6203 32.0324 22.9843 31.5351 21.1867C31.3747 20.6071 31.2263 19.9716 31.0887 19.3476C30.7473 17.8 30.3284 16.2436 29.612 14.8684C28.442 12.6222 26.446 11.9062 24.8525 11.9062C23.3747 11.9062 22.2707 12.6059 21.4034 13.4874C21.1637 13.7311 20.9019 14.0593 20.6389 14.445C21.3954 14.6272 22.1107 15.1966 22.2249 16.2758C22.2474 16.4816 22.4053 18.1158 22.9357 20.0096C23.0879 19.5348 23.3097 18.8317 23.8252 17.6962C24.0779 17.1761 24.3059 16.8332 24.5116 16.6242C24.7002 16.4324 24.8701 16.3532 25.0231 16.3532C25.1881 16.3532 25.7513 16.5042 26.2997 18.4286C26.9798 20.8148 27.4859 24.6125 29.4142 26.6289C30.2647 27.5183 31.4549 28.0938 33.1044 28.0938C34.5518 28.0938 35.7585 27.4563 36.6189 26.5696C38.0335 25.1114 38.8087 22.7007 39.0852 21.8086C39.8719 19.2706 40.0923 16.9752 40.118 16.7324C40.2644 15.3447 39.0953 14.379 37.9299 14.379Z" fill="url(#paint18_radial)"/>
<path d="M37.9299 14.379C37.7669 14.379 37.6029 14.3944 37.442 14.426C38.2066 15.5286 38.5892 16.6836 38.5892 17.1827C38.5892 18.9972 37.1092 19.46 36.4678 19.46C35.9673 19.46 35.5848 19.3403 35.2817 19.1489C35.2789 19.1603 35.2761 19.1716 35.2733 19.1829C35.1831 19.543 35.1119 19.9372 34.9888 20.3207C34.752 21.0582 34.4326 21.9006 34.0914 22.5525C33.7238 23.2552 33.3597 23.6664 32.9258 23.6448C32.4324 23.6203 32.0324 22.9843 31.5351 21.1867C31.3747 20.6071 31.2263 19.9716 31.0887 19.3476C30.7473 17.8 30.3284 16.2436 29.612 14.8684C28.442 12.6222 26.446 11.9062 24.8525 11.9062C23.3747 11.9062 22.2707 12.6059 21.4034 13.4874C21.1637 13.7311 20.9019 14.0593 20.6389 14.445C21.3954 14.6272 22.1107 15.1966 22.2249 16.2758C22.2474 16.4816 22.4053 18.1158 22.9357 20.0096C23.0879 19.5348 23.3097 18.8317 23.8252 17.6962C24.0779 17.1761 24.3059 16.8332 24.5116 16.6242C24.7002 16.4324 24.8701 16.3532 25.0231 16.3532C25.1881 16.3532 25.7513 16.5042 26.2997 18.4286C26.9798 20.8148 27.4859 24.6125 29.4142 26.6289C30.2647 27.5183 31.4549 28.0938 33.1044 28.0938C34.5518 28.0938 35.7585 27.4563 36.6189 26.5696C38.0335 25.1114 38.8087 22.7007 39.0852 21.8086C39.8719 19.2706 40.0923 16.9752 40.118 16.7324C40.2644 15.3447 39.0953 14.379 37.9299 14.379Z" fill="url(#paint19_radial)"/>
<path d="M37.9299 14.379C37.7669 14.379 37.6029 14.3944 37.442 14.426C38.2066 15.5286 38.5892 16.6836 38.5892 17.1827C38.5892 18.9972 37.1092 19.46 36.4678 19.46C35.9673 19.46 35.5848 19.3403 35.2817 19.1489C35.2789 19.1603 35.2761 19.1716 35.2733 19.1829C35.1831 19.543 35.1119 19.9372 34.9888 20.3207C34.752 21.0582 34.4326 21.9006 34.0914 22.5525C33.7238 23.2552 33.3597 23.6664 32.9258 23.6448C32.4324 23.6203 32.0324 22.9843 31.5351 21.1867C31.3747 20.6071 31.2263 19.9716 31.0887 19.3476C30.7473 17.8 30.3284 16.2436 29.612 14.8684C28.442 12.6222 26.446 11.9062 24.8525 11.9062C23.3747 11.9062 22.2707 12.6059 21.4034 13.4874C21.1637 13.7311 20.9019 14.0593 20.6389 14.445C21.3954 14.6272 22.1107 15.1966 22.2249 16.2758C22.2474 16.4816 22.4053 18.1158 22.9357 20.0096C23.0879 19.5348 23.3097 18.8317 23.8252 17.6962C24.0779 17.1761 24.3059 16.8332 24.5116 16.6242C24.7002 16.4324 24.8701 16.3532 25.0231 16.3532C25.1881 16.3532 25.7513 16.5042 26.2997 18.4286C26.9798 20.8148 27.4859 24.6125 29.4142 26.6289C30.2647 27.5183 31.4549 28.0938 33.1044 28.0938C34.5518 28.0938 35.7585 27.4563 36.6189 26.5696C38.0335 25.1114 38.8087 22.7007 39.0852 21.8086C39.8719 19.2706 40.0923 16.9752 40.118 16.7324C40.2644 15.3447 39.0953 14.379 37.9299 14.379Z" fill="url(#paint20_radial)"/>
<path d="M37.9299 14.379C37.7669 14.379 37.6029 14.3944 37.442 14.426C38.2066 15.5286 38.5892 16.6836 38.5892 17.1827C38.5892 18.9972 37.1092 19.46 36.4678 19.46C35.9673 19.46 35.5848 19.3403 35.2817 19.1489C35.2789 19.1603 35.2761 19.1716 35.2733 19.1829C35.1831 19.543 35.1119 19.9372 34.9888 20.3207C34.752 21.0582 34.4326 21.9006 34.0914 22.5525C33.7238 23.2552 33.3597 23.6664 32.9258 23.6448C32.4324 23.6203 32.0324 22.9843 31.5351 21.1867C31.3747 20.6071 31.2263 19.9716 31.0887 19.3476C30.7473 17.8 30.3284 16.2436 29.612 14.8684C28.442 12.6222 26.446 11.9062 24.8525 11.9062C23.3747 11.9062 22.2707 12.6059 21.4034 13.4874C21.1637 13.7311 20.9019 14.0593 20.6389 14.445C21.3954 14.6272 22.1107 15.1966 22.2249 16.2758C22.2474 16.4816 22.4053 18.1158 22.9357 20.0096C23.0879 19.5348 23.3097 18.8317 23.8252 17.6962C24.0779 17.1761 24.3059 16.8332 24.5116 16.6242C24.7002 16.4324 24.8701 16.3532 25.0231 16.3532C25.1881 16.3532 25.7513 16.5042 26.2997 18.4286C26.9798 20.8148 27.4859 24.6125 29.4142 26.6289C30.2647 27.5183 31.4549 28.0938 33.1044 28.0938C34.5518 28.0938 35.7585 27.4563 36.6189 26.5696C38.0335 25.1114 38.8087 22.7007 39.0852 21.8086C39.8719 19.2706 40.0923 16.9752 40.118 16.7324C40.2644 15.3447 39.0953 14.379 37.9299 14.379Z" fill="url(#paint21_radial)"/>
<path d="M37.9299 14.379C37.7669 14.379 37.6029 14.3944 37.442 14.426C38.2066 15.5286 38.5892 16.6836 38.5892 17.1827C38.5892 18.9972 37.1092 19.46 36.4678 19.46C35.9673 19.46 35.5848 19.3403 35.2817 19.1489C35.2789 19.1603 35.2761 19.1716 35.2733 19.1829C35.1831 19.543 35.1119 19.9372 34.9888 20.3207C34.752 21.0582 34.4326 21.9006 34.0914 22.5525C33.7238 23.2552 33.3597 23.6664 32.9258 23.6448C32.4324 23.6203 32.0324 22.9843 31.5351 21.1867C31.3747 20.6071 31.2263 19.9716 31.0887 19.3476C30.7473 17.8 30.3284 16.2436 29.612 14.8684C28.442 12.6222 26.446 11.9062 24.8525 11.9062C23.3747 11.9062 22.2707 12.6059 21.4034 13.4874C21.1637 13.7311 20.9019 14.0593 20.6389 14.445C21.3954 14.6272 22.1107 15.1966 22.2249 16.2758C22.2474 16.4816 22.4053 18.1158 22.9357 20.0096C23.0879 19.5348 23.3097 18.8317 23.8252 17.6962C24.0779 17.1761 24.3059 16.8332 24.5116 16.6242C24.7002 16.4324 24.8701 16.3532 25.0231 16.3532C25.1881 16.3532 25.7513 16.5042 26.2997 18.4286C26.9798 20.8148 27.4859 24.6125 29.4142 26.6289C30.2647 27.5183 31.4549 28.0938 33.1044 28.0938C34.5518 28.0938 35.7585 27.4563 36.6189 26.5696C38.0335 25.1114 38.8087 22.7007 39.0852 21.8086C39.8719 19.2706 40.0923 16.9752 40.118 16.7324C40.2644 15.3447 39.0953 14.379 37.9299 14.379Z" fill="url(#paint22_radial)"/>
<path d="M37.9299 14.379C37.7669 14.379 37.6029 14.3944 37.442 14.426C38.2066 15.5286 38.5892 16.6836 38.5892 17.1827C38.5892 18.9972 37.1092 19.46 36.4678 19.46C35.9673 19.46 35.5848 19.3403 35.2817 19.1489C35.2789 19.1603 35.2761 19.1716 35.2733 19.1829C35.1831 19.543 35.1119 19.9372 34.9888 20.3207C34.752 21.0582 34.4326 21.9006 34.0914 22.5525C33.7238 23.2552 33.3597 23.6664 32.9258 23.6448C32.4324 23.6203 32.0324 22.9843 31.5351 21.1867C31.3747 20.6071 31.2263 19.9716 31.0887 19.3476C30.7473 17.8 30.3284 16.2436 29.612 14.8684C28.442 12.6222 26.446 11.9062 24.8525 11.9062C23.3747 11.9062 22.2707 12.6059 21.4034 13.4874C21.1637 13.7311 20.9019 14.0593 20.6389 14.445C21.3954 14.6272 22.1107 15.1966 22.2249 16.2758C22.2474 16.4816 22.4053 18.1158 22.9357 20.0096C23.0879 19.5348 23.3097 18.8317 23.8252 17.6962C24.0779 17.1761 24.3059 16.8332 24.5116 16.6242C24.7002 16.4324 24.8701 16.3532 25.0231 16.3532C25.1881 16.3532 25.7513 16.5042 26.2997 18.4286C26.9798 20.8148 27.4859 24.6125 29.4142 26.6289C30.2647 27.5183 31.4549 28.0938 33.1044 28.0938C34.5518 28.0938 35.7585 27.4563 36.6189 26.5696C38.0335 25.1114 38.8087 22.7007 39.0852 21.8086C39.8719 19.2706 40.0923 16.9752 40.118 16.7324C40.2644 15.3447 39.0953 14.379 37.9299 14.379Z" fill="url(#paint23_radial)"/>
<path d="M37.9299 14.379C37.7669 14.379 37.6029 14.3944 37.442 14.426C38.2066 15.5286 38.5892 16.6836 38.5892 17.1827C38.5892 18.9972 37.1092 19.46 36.4678 19.46C35.9673 19.46 35.5848 19.3403 35.2817 19.1489C35.2789 19.1603 35.2761 19.1716 35.2733 19.1829C35.1831 19.543 35.1119 19.9372 34.9888 20.3207C34.752 21.0582 34.4326 21.9006 34.0914 22.5525C33.7238 23.2552 33.3597 23.6664 32.9258 23.6448C32.4324 23.6203 32.0324 22.9843 31.5351 21.1867C31.3747 20.6071 31.2263 19.9716 31.0887 19.3476C30.7473 17.8 30.3284 16.2436 29.612 14.8684C28.442 12.6222 26.446 11.9062 24.8525 11.9062C23.3747 11.9062 22.2707 12.6059 21.4034 13.4874C21.1637 13.7311 20.9019 14.0593 20.6389 14.445C21.3954 14.6272 22.1107 15.1966 22.2249 16.2758C22.2474 16.4816 22.4053 18.1158 22.9357 20.0096C23.0879 19.5348 23.3097 18.8317 23.8252 17.6962C24.0779 17.1761 24.3059 16.8332 24.5116 16.6242C24.7002 16.4324 24.8701 16.3532 25.0231 16.3532C25.1881 16.3532 25.7513 16.5042 26.2997 18.4286C26.9798 20.8148 27.4859 24.6125 29.4142 26.6289C30.2647 27.5183 31.4549 28.0938 33.1044 28.0938C34.5518 28.0938 35.7585 27.4563 36.6189 26.5696C38.0335 25.1114 38.8087 22.7007 39.0852 21.8086C39.8719 19.2706 40.0923 16.9752 40.118 16.7324C40.2644 15.3447 39.0953 14.379 37.9299 14.379Z" fill="url(#paint24_radial)"/>
<path d="M37.9299 14.379C37.7669 14.379 37.6029 14.3944 37.442 14.426C38.2066 15.5286 38.5892 16.6836 38.5892 17.1827C38.5892 18.9972 37.1092 19.46 36.4678 19.46C35.9673 19.46 35.5848 19.3403 35.2817 19.1489C35.2789 19.1603 35.2761 19.1716 35.2733 19.1829C35.1831 19.543 35.1119 19.9372 34.9888 20.3207C34.752 21.0582 34.4326 21.9006 34.0914 22.5525C33.7238 23.2552 33.3597 23.6664 32.9258 23.6448C32.4324 23.6203 32.0324 22.9843 31.5351 21.1867C31.3747 20.6071 31.2263 19.9716 31.0887 19.3476C30.7473 17.8 30.3284 16.2436 29.612 14.8684C28.442 12.6222 26.446 11.9062 24.8525 11.9062C23.3747 11.9062 22.2707 12.6059 21.4034 13.4874C21.1637 13.7311 20.9019 14.0593 20.6389 14.445C21.3954 14.6272 22.1107 15.1966 22.2249 16.2758C22.2474 16.4816 22.4053 18.1158 22.9357 20.0096C23.0879 19.5348 23.3097 18.8317 23.8252 17.6962C24.0779 17.1761 24.3059 16.8332 24.5116 16.6242C24.7002 16.4324 24.8701 16.3532 25.0231 16.3532C25.1881 16.3532 25.7513 16.5042 26.2997 18.4286C26.9798 20.8148 27.4859 24.6125 29.4142 26.6289C30.2647 27.5183 31.4549 28.0938 33.1044 28.0938C34.5518 28.0938 35.7585 27.4563 36.6189 26.5696C38.0335 25.1114 38.8087 22.7007 39.0852 21.8086C39.8719 19.2706 40.0923 16.9752 40.118 16.7324C40.2644 15.3447 39.0953 14.379 37.9299 14.379Z" fill="url(#paint25_radial)"/>
<path d="M24.7915 28.0296C20.6735 28.0296 19.272 22.8217 18.9579 21.8086C18.1693 19.2645 17.9295 16.9729 17.9041 16.7324C17.7577 15.3447 18.8707 14.379 20.0922 14.379C21.0171 14.379 22.0905 14.9327 22.2327 16.2759C22.2574 16.5019 22.4454 18.4505 23.1106 20.5737C23.8048 22.7897 24.5412 23.6419 25.0715 23.6419C25.9279 23.6419 26.4505 21.4422 26.9124 19.3476C27.2527 17.8045 27.6206 16.2496 28.3469 14.8684C29.6106 12.4654 31.52 11.9062 33.1696 11.9062C36.7866 11.9062 38.5969 16.097 38.5969 17.1828C38.5969 18.9973 37.117 19.4601 36.4756 19.4601C35.0727 19.4601 34.5971 18.5201 34.1968 17.6962C33.8367 16.9549 33.4607 16.3386 32.9745 16.3386C32.8147 16.3386 32.6667 16.4195 32.5298 16.5587C31.3213 17.7869 30.9161 24.2124 28.4999 26.6682C27.1604 28.0296 25.703 28.0296 24.7915 28.0296Z" fill="url(#paint26_linear)"/>
<path d="M24.7915 28.0296C20.6735 28.0296 19.272 22.8217 18.9579 21.8086C18.1693 19.2645 17.9295 16.9729 17.9041 16.7324C17.7577 15.3447 18.8707 14.379 20.0922 14.379C21.0171 14.379 22.0905 14.9327 22.2327 16.2759C22.2574 16.5019 22.4454 18.4505 23.1106 20.5737C23.8048 22.7897 24.5412 23.6419 25.0715 23.6419C25.9279 23.6419 26.4505 21.4422 26.9124 19.3476C27.2527 17.8045 27.6206 16.2496 28.3469 14.8684C29.6106 12.4654 31.52 11.9062 33.1696 11.9062C36.7866 11.9062 38.5969 16.097 38.5969 17.1828C38.5969 18.9973 37.117 19.4601 36.4756 19.4601C35.0727 19.4601 34.5971 18.5201 34.1968 17.6962C33.8367 16.9549 33.4607 16.3386 32.9745 16.3386C32.8147 16.3386 32.6667 16.4195 32.5298 16.5587C31.3213 17.7869 30.9161 24.2124 28.4999 26.6682C27.1604 28.0296 25.703 28.0296 24.7915 28.0296Z" fill="url(#paint27_radial)"/>
<path d="M24.7915 28.0296C20.6735 28.0296 19.272 22.8217 18.9579 21.8086C18.1693 19.2645 17.9295 16.9729 17.9041 16.7324C17.7577 15.3447 18.8707 14.379 20.0922 14.379C21.0171 14.379 22.0905 14.9327 22.2327 16.2759C22.2574 16.5019 22.4454 18.4505 23.1106 20.5737C23.8048 22.7897 24.5412 23.6419 25.0715 23.6419C25.9279 23.6419 26.4505 21.4422 26.9124 19.3476C27.2527 17.8045 27.6206 16.2496 28.3469 14.8684C29.6106 12.4654 31.52 11.9062 33.1696 11.9062C36.7866 11.9062 38.5969 16.097 38.5969 17.1828C38.5969 18.9973 37.117 19.4601 36.4756 19.4601C35.0727 19.4601 34.5971 18.5201 34.1968 17.6962C33.8367 16.9549 33.4607 16.3386 32.9745 16.3386C32.8147 16.3386 32.6667 16.4195 32.5298 16.5587C31.3213 17.7869 30.9161 24.2124 28.4999 26.6682C27.1604 28.0296 25.703 28.0296 24.7915 28.0296Z" fill="url(#paint28_linear)"/>
<path d="M24.7915 28.0296C20.6735 28.0296 19.272 22.8217 18.9579 21.8086C18.1693 19.2645 17.9295 16.9729 17.9041 16.7324C17.7577 15.3447 18.8707 14.379 20.0922 14.379C21.0171 14.379 22.0905 14.9327 22.2327 16.2759C22.2574 16.5019 22.4454 18.4505 23.1106 20.5737C23.8048 22.7897 24.5412 23.6419 25.0715 23.6419C25.9279 23.6419 26.4505 21.4422 26.9124 19.3476C27.2527 17.8045 27.6206 16.2496 28.3469 14.8684C29.6106 12.4654 31.52 11.9062 33.1696 11.9062C36.7866 11.9062 38.5969 16.097 38.5969 17.1828C38.5969 18.9973 37.117 19.4601 36.4756 19.4601C35.0727 19.4601 34.5971 18.5201 34.1968 17.6962C33.8367 16.9549 33.4607 16.3386 32.9745 16.3386C32.8147 16.3386 32.6667 16.4195 32.5298 16.5587C31.3213 17.7869 30.9161 24.2124 28.4999 26.6682C27.1604 28.0296 25.703 28.0296 24.7915 28.0296Z" fill="url(#paint29_linear)"/>
<path d="M24.7915 28.0296C20.6735 28.0296 19.272 22.8217 18.9579 21.8086C18.1693 19.2645 17.9295 16.9729 17.9041 16.7324C17.7577 15.3447 18.8707 14.379 20.0922 14.379C21.0171 14.379 22.0905 14.9327 22.2327 16.2759C22.2574 16.5019 22.4454 18.4505 23.1106 20.5737C23.8048 22.7897 24.5412 23.6419 25.0715 23.6419C25.9279 23.6419 26.4505 21.4422 26.9124 19.3476C27.2527 17.8045 27.6206 16.2496 28.3469 14.8684C29.6106 12.4654 31.52 11.9062 33.1696 11.9062C36.7866 11.9062 38.5969 16.097 38.5969 17.1828C38.5969 18.9973 37.117 19.4601 36.4756 19.4601C35.0727 19.4601 34.5971 18.5201 34.1968 17.6962C33.8367 16.9549 33.4607 16.3386 32.9745 16.3386C32.8147 16.3386 32.6667 16.4195 32.5298 16.5587C31.3213 17.7869 30.9161 24.2124 28.4999 26.6682C27.1604 28.0296 25.703 28.0296 24.7915 28.0296Z" fill="url(#paint30_radial)"/>
</g>
<defs>
<linearGradient id="paint0_linear" x1="28.9951" y1="7.1875" x2="28.9951" y2="32.8125" gradientUnits="userSpaceOnUse">
<stop stop-color="#313131"/>
<stop offset="1" stop-color="#070707"/>
<stop offset="1" stop-color="#020202"/>
</linearGradient>
<linearGradient id="paint1_linear" x1="36.3437" y1="16.6368" x2="21.7967" y2="21.4076" gradientUnits="userSpaceOnUse">
<stop stop-color="#5CEE64"/>
<stop offset="1" stop-color="#00BBFF"/>
</linearGradient>
<radialGradient id="paint2_radial" cx="0" cy="0" r="1" gradientUnits="userSpaceOnUse" gradientTransform="translate(26.356 20.5045) rotate(-120.86) scale(9.52986 8.00023)">
<stop stop-color="#007383"/>
<stop offset="0.407867" stop-color="#00717E" stop-opacity="0.75"/>
<stop offset="0.874482" stop-color="#007281" stop-opacity="0"/>
</radialGradient>
<radialGradient id="paint3_radial" cx="0" cy="0" r="1" gradientUnits="userSpaceOnUse" gradientTransform="translate(32.6174 18.7313) rotate(-126.734) scale(7.77198 5.10659)">
<stop stop-color="#218970"/>
<stop offset="0.459527" stop-color="#267E6A"/>
<stop offset="1" stop-color="#026C51" stop-opacity="0"/>
</radialGradient>
<radialGradient id="paint4_radial" cx="0" cy="0" r="1" gradientUnits="userSpaceOnUse" gradientTransform="translate(25.8072 20.9548) rotate(-107.468) scale(6.32985 3.29767)">
<stop stop-color="#178697"/>
<stop offset="0.407867" stop-color="#17838F" stop-opacity="0.79"/>
<stop offset="0.874482" stop-color="#007281" stop-opacity="0"/>
</radialGradient>
<radialGradient id="paint5_radial" cx="0" cy="0" r="1" gradientUnits="userSpaceOnUse" gradientTransform="translate(28.6214 20.921) rotate(-120.86) scale(16.0745 4.95842)">
<stop stop-color="#25342F" stop-opacity="0.3"/>
<stop offset="1" stop-color="#25342F" stop-opacity="0"/>
</radialGradient>
<radialGradient id="paint6_radial" cx="0" cy="0" r="1" gradientUnits="userSpaceOnUse" gradientTransform="translate(31.4887 18.9075) rotate(85.0979) scale(6.05411 3.43381)">
<stop stop-color="#056D4F"/>
<stop offset="0.232593" stop-color="#056C4E" stop-opacity="0.75"/>
<stop offset="0.598902" stop-color="#056C4E" stop-opacity="0.300824"/>
<stop offset="0.874482" stop-color="#056C4F" stop-opacity="0"/>
</radialGradient>
<radialGradient id="paint7_radial" cx="0" cy="0" r="1" gradientUnits="userSpaceOnUse" gradientTransform="translate(31.7565 9.11644) rotate(57.0774) scale(7.11672 3.73272)">
<stop stop-color="#22B67B"/>
<stop offset="0.407867" stop-color="#24BE82"/>
<stop offset="1" stop-color="#24BE82" stop-opacity="0.07"/>
</radialGradient>
<linearGradient id="paint8_linear" x1="12.4193" y1="19.8273" x2="22.7285" y2="19.912" gradientUnits="userSpaceOnUse">
<stop stop-color="#09F8FF"/>
<stop offset="1" stop-color="#0BF7F9" stop-opacity="0"/>
</linearGradient>
<radialGradient id="paint9_radial" cx="0" cy="0" r="1" gradientUnits="userSpaceOnUse" gradientTransform="translate(14.634 10.5417) rotate(49.6506) scale(9.29482 9.2716)">
<stop stop-color="#09F8FF"/>
<stop offset="1" stop-color="#0BF7F9" stop-opacity="0"/>
</radialGradient>
<radialGradient id="paint10_radial" cx="0" cy="0" r="1" gradientUnits="userSpaceOnUse" gradientTransform="translate(22.0796 5.86204) rotate(48.0118) scale(18.8518 18.8221)">
<stop stop-color="#00B8FF"/>
<stop offset="0.745423" stop-color="#00B9FC" stop-opacity="0"/>
</radialGradient>
<radialGradient id="paint11_radial" cx="0" cy="0" r="1" gradientUnits="userSpaceOnUse" gradientTransform="translate(23.0776 20.0017) rotate(-107.468) scale(9.08678 6.29613)">
<stop stop-color="#00BCFF" stop-opacity="0.76"/>
<stop offset="0.57273" stop-color="#00BAFC" stop-opacity="0"/>
</radialGradient>
<radialGradient id="paint12_radial" cx="0" cy="0" r="1" gradientUnits="userSpaceOnUse" gradientTransform="translate(36.892 16.5505) rotate(-129.551) scale(6.42563 4.49858)">
<stop stop-color="#5FEC50"/>
<stop offset="1" stop-color="#3CC08E" stop-opacity="0"/>
</radialGradient>
<radialGradient id="paint13_radial" cx="0" cy="0" r="1" gradientUnits="userSpaceOnUse" gradientTransform="translate(35.9722 20.6892) rotate(-79.0944) scale(1.94534 1.34549)">
<stop stop-color="#28855B"/>
<stop offset="1" stop-color="#14795C" stop-opacity="0"/>
</radialGradient>
<radialGradient id="paint14_radial" cx="0" cy="0" r="1" gradientUnits="userSpaceOnUse" gradientTransform="translate(35.8784 20.546) rotate(-77.8798) scale(1.60371 2.24124)">
<stop stop-color="#28855B"/>
<stop offset="1" stop-color="#14795C" stop-opacity="0"/>
</radialGradient>
<radialGradient id="paint15_radial" cx="0" cy="0" r="1" gradientUnits="userSpaceOnUse" gradientTransform="translate(37.7889 17.6569) rotate(-132.79) scale(5.31989 3.73728)">
<stop stop-color="#5FF05B"/>
<stop offset="0.813285" stop-color="#5DE955" stop-opacity="0"/>
</radialGradient>
<radialGradient id="paint16_radial" cx="0" cy="0" r="1" gradientUnits="userSpaceOnUse" gradientTransform="translate(36.1251 19.1849) rotate(37.4559) scale(4.73114 6.57619)">
<stop stop-color="#123AA8"/>
<stop offset="0.966119" stop-color="#123AA8" stop-opacity="0"/>
</radialGradient>
<radialGradient id="paint17_radial" cx="0" cy="0" r="1" gradientUnits="userSpaceOnUse" gradientTransform="translate(34.9481 19.7182) rotate(8.48611) scale(5.5823 8.33241)">
<stop stop-color="#123AA8"/>
<stop offset="0.592487" stop-color="#123AA8" stop-opacity="0"/>
</radialGradient>
<radialGradient id="paint18_radial" cx="0" cy="0" r="1" gradientUnits="userSpaceOnUse" gradientTransform="translate(35.401 20.4107) rotate(24.6631) scale(4.76848 8.49695)">
<stop stop-color="#123AA8"/>
<stop offset="0.756788" stop-color="#123AA8" stop-opacity="0"/>
</radialGradient>
<radialGradient id="paint19_radial" cx="0" cy="0" r="1" gradientUnits="userSpaceOnUse" gradientTransform="translate(34.8411 20.6932) rotate(95.8028) scale(8.57222 4.69765)">
<stop stop-color="#123AA8"/>
<stop offset="0.592487" stop-color="#123AA8" stop-opacity="0"/>
<stop offset="1" stop-color="#123AA8" stop-opacity="0"/>
</radialGradient>
<radialGradient id="paint20_radial" cx="0" cy="0" r="1" gradientUnits="userSpaceOnUse" gradientTransform="translate(36.1251 16.9086) rotate(93.6671) scale(10.3164 3.68167)">
<stop stop-color="#123AA8"/>
<stop offset="0.884611" stop-color="#123AA8" stop-opacity="0"/>
</radialGradient>
<radialGradient id="paint21_radial" cx="0" cy="0" r="1" gradientUnits="userSpaceOnUse" gradientTransform="translate(24.4337 19.0536) rotate(84.8296) scale(5.47432 2.90024)">
<stop stop-color="#123AA8"/>
<stop offset="0.884611" stop-color="#123AA8" stop-opacity="0"/>
</radialGradient>
<radialGradient id="paint22_radial" cx="0" cy="0" r="1" gradientUnits="userSpaceOnUse" gradientTransform="translate(24.4298 19.2009) rotate(87.2504) scale(5.71332 4.71685)">
<stop stop-color="#123AA8"/>
<stop offset="0.884611" stop-color="#123AA8" stop-opacity="0"/>
</radialGradient>
<radialGradient id="paint23_radial" cx="0" cy="0" r="1" gradientUnits="userSpaceOnUse" gradientTransform="translate(25.7297 24.5693) rotate(-23.1725) scale(6.37138 12.4538)">
<stop stop-color="#123AA8"/>
<stop offset="0.708977" stop-color="#123AA8" stop-opacity="0"/>
</radialGradient>
<radialGradient id="paint24_radial" cx="0" cy="0" r="1" gradientUnits="userSpaceOnUse" gradientTransform="translate(23.4627 17.804) rotate(-159.526) scale(4.22114 7.22774)">
<stop stop-color="#1A3DA0"/>
<stop offset="0.708977" stop-color="#123AA8" stop-opacity="0"/>
</radialGradient>
<radialGradient id="paint25_radial" cx="0" cy="0" r="1" gradientUnits="userSpaceOnUse" gradientTransform="translate(19.7471 19.2407) rotate(16.749) scale(8.05089 8.12731)">
<stop stop-color="#1E3882"/>
<stop offset="0.761404" stop-color="#123AA8" stop-opacity="0"/>
</radialGradient>
<linearGradient id="paint26_linear" x1="17.2216" y1="14.7876" x2="25.155" y2="19.8511" gradientUnits="userSpaceOnUse">
<stop offset="0.229329" stop-color="#1DC4FF"/>
<stop offset="1" stop-color="#1CC1FF" stop-opacity="0"/>
</linearGradient>
<radialGradient id="paint27_radial" cx="0" cy="0" r="1" gradientUnits="userSpaceOnUse" gradientTransform="translate(14.6335 10.5414) rotate(49.6506) scale(9.29482 9.2716)">
<stop stop-color="#09F8FF"/>
<stop offset="1" stop-color="#0BF7F9" stop-opacity="0"/>
</radialGradient>
<linearGradient id="paint28_linear" x1="17.6601" y1="15.0463" x2="19.8854" y2="17.0636" gradientUnits="userSpaceOnUse">
<stop stop-color="#26FBFF"/>
<stop offset="0.637346" stop-color="#0BF7F9" stop-opacity="0"/>
</linearGradient>
<linearGradient id="paint29_linear" x1="17.0689" y1="16.5904" x2="20.1469" y2="16.81" gradientUnits="userSpaceOnUse">
<stop stop-color="#26FBFF"/>
<stop offset="0.637346" stop-color="#0BF7F9" stop-opacity="0"/>
</linearGradient>
<radialGradient id="paint30_radial" cx="0" cy="0" r="1" gradientUnits="userSpaceOnUse" gradientTransform="translate(23.0773 20.0018) rotate(-107.468) scale(9.08678 6.29613)">
<stop stop-color="#00BCFF" stop-opacity="0.76"/>
<stop offset="0.57273" stop-color="#00BAFC" stop-opacity="0"/>
</radialGradient>
<clipPath id="clip0">
<rect width="22.2393" height="16.1875" fill="white" transform="translate(17.8911 11.9062)"/>
</clipPath>
</defs>
</svg>
