<svg width="621" height="271" viewBox="0 0 621 271" fill="none" xmlns="http://www.w3.org/2000/svg">
<rect x="129.907" y="22.6447" width="361.186" height="228.534" rx="0.724091" fill="#222222"/>
<rect x="129.907" y="22.6447" width="361.186" height="228.534" rx="0.724091" stroke="#DDDDDD" stroke-opacity="0.12" stroke-width="0.122727"/>
<rect x="129.907" y="22.6447" width="361.186" height="228.534" rx="0.724091" stroke="black" stroke-width="0.122727"/>
<rect x="129.907" y="22.6447" width="361.186" height="228.534" rx="0.724091" stroke="#979797" stroke-width="0.122727"/>
<rect x="139.354" y="41.6381" width="342.293" height="190.547" rx="0.0981818" fill="#222222"/>
<rect x="139.354" y="41.6381" width="342.293" height="190.547" rx="0.0981818" fill="url(#paint0_linear_1671_22732)"/>
<rect x="129.845" y="22.5834" width="361.309" height="228.656" rx="0.785455" fill="url(#paint1_linear_1671_22732)" fill-opacity="0.8"/>
<path fill-rule="evenodd" clip-rule="evenodd" d="M448.243 239.393C448.325 239.352 448.416 239.33 448.507 239.33H480.262C480.37 239.33 480.458 239.418 480.458 239.527V243.898C480.458 244.006 480.37 244.094 480.262 244.094H448.507C448.416 244.094 448.325 244.073 448.243 244.032L443.701 241.756C443.665 241.738 443.665 241.686 443.701 241.668L448.243 239.393Z" fill="white" fill-opacity="0.24"/>
<g filter="url(#filter0_i_1671_22732)">
<rect x="303.369" y="29.252" width="13.0737" height="7.62188" rx="0.196364" fill="#535353"/>
<rect x="303.369" y="29.252" width="13.0737" height="7.62188" rx="0.196364" fill="url(#paint2_angular_1671_22732)"/>
<rect x="303.369" y="29.252" width="13.0737" height="7.62188" rx="0.196364" fill="url(#paint3_radial_1671_22732)"/>
<rect x="303.369" y="29.252" width="13.0737" height="7.62188" rx="0.196364" fill="url(#paint4_radial_1671_22732)"/>
<rect x="303.369" y="29.252" width="13.0737" height="7.62188" rx="0.196364" fill="white" fill-opacity="0.12"/>
</g>
<g filter="url(#filter1_i_1671_22732)">
<ellipse cx="309.906" cy="32.7062" rx="2.9713" ry="2.97729" fill="#242424"/>
<ellipse cx="309.906" cy="32.7062" rx="2.9713" ry="2.97729" fill="url(#paint5_radial_1671_22732)"/>
</g>
<path d="M312.816 32.7062C312.816 34.3167 311.513 35.6221 309.906 35.6221C308.299 35.6221 306.996 34.3167 306.996 32.7062C306.996 31.0956 308.299 29.7902 309.906 29.7902C311.513 29.7902 312.816 31.0956 312.816 32.7062Z" stroke="black" stroke-opacity="0.4" stroke-width="0.122727"/>
<ellipse cx="309.906" cy="32.7062" rx="2.9713" ry="2.97729" fill="white" fill-opacity="0.08"/>
<g opacity="0.8">
<ellipse cx="310.5" cy="241.474" rx="3.32785" ry="3.33457" fill="white" fill-opacity="0.24"/>
<path d="M313.803 241.474C313.803 243.302 312.324 244.784 310.5 244.784C308.676 244.784 307.197 243.302 307.197 241.474C307.197 239.646 308.676 238.164 310.5 238.164C312.324 238.164 313.803 239.646 313.803 241.474Z" stroke="white" stroke-opacity="0.8" stroke-width="0.0490909"/>
</g>
<path fill-rule="evenodd" clip-rule="evenodd" d="M310.501 239.956C310.326 239.956 310.184 240.109 310.184 240.298C310.184 240.487 310.326 240.64 310.501 240.64C310.676 240.64 310.818 240.487 310.818 240.298C310.818 240.109 310.676 239.956 310.501 239.956ZM309.336 239.957C309.161 239.957 309.019 240.11 309.019 240.299C309.019 240.487 309.161 240.64 309.336 240.64C309.511 240.64 309.653 240.487 309.653 240.299C309.653 240.11 309.511 239.957 309.336 239.957ZM311.347 240.298C311.347 240.109 311.489 239.956 311.664 239.956C311.839 239.956 311.981 240.109 311.981 240.298C311.981 240.487 311.839 240.64 311.664 240.64C311.489 240.64 311.347 240.487 311.347 240.298ZM309.336 241.099C309.161 241.099 309.019 241.252 309.019 241.441C309.019 241.63 309.161 241.783 309.336 241.783C309.511 241.783 309.653 241.63 309.653 241.441C309.653 241.252 309.511 241.099 309.336 241.099ZM310.184 241.441C310.184 241.252 310.326 241.099 310.501 241.099C310.676 241.099 310.818 241.252 310.818 241.441C310.818 241.63 310.676 241.783 310.501 241.783C310.326 241.783 310.184 241.63 310.184 241.441ZM311.664 241.099C311.489 241.099 311.347 241.252 311.347 241.441C311.347 241.63 311.489 241.783 311.664 241.783C311.839 241.783 311.981 241.63 311.981 241.441C311.981 241.252 311.839 241.099 311.664 241.099ZM309.019 242.583C309.019 242.395 309.161 242.241 309.336 242.241C309.511 242.241 309.653 242.395 309.653 242.583C309.653 242.772 309.511 242.925 309.336 242.925C309.161 242.925 309.019 242.772 309.019 242.583ZM310.501 242.242C310.326 242.242 310.184 242.395 310.184 242.583C310.184 242.772 310.326 242.925 310.501 242.925C310.676 242.925 310.818 242.772 310.818 242.583C310.818 242.395 310.676 242.242 310.501 242.242ZM311.347 242.583C311.347 242.395 311.489 242.242 311.664 242.242C311.839 242.242 311.981 242.395 311.981 242.583C311.981 242.772 311.839 242.925 311.664 242.925C311.489 242.925 311.347 242.772 311.347 242.583Z" fill="white"/>
<defs>
<filter id="filter0_i_1671_22732" x="303.369" y="29.252" width="13.0737" height="7.62189" filterUnits="userSpaceOnUse" color-interpolation-filters="sRGB">
<feFlood flood-opacity="0" result="BackgroundImageFix"/>
<feBlend mode="normal" in="SourceGraphic" in2="BackgroundImageFix" result="shape"/>
<feColorMatrix in="SourceAlpha" type="matrix" values="0 0 0 0 0 0 0 0 0 0 0 0 0 0 0 0 0 0 127 0" result="hardAlpha"/>
<feOffset/>
<feGaussianBlur stdDeviation="0.122727"/>
<feComposite in2="hardAlpha" operator="arithmetic" k2="-1" k3="1"/>
<feColorMatrix type="matrix" values="0 0 0 0 0 0 0 0 0 0 0 0 0 0 0 0 0 0 0.5 0"/>
<feBlend mode="normal" in2="shape" result="effect1_innerShadow_1671_22732"/>
</filter>
<filter id="filter1_i_1671_22732" x="306.934" y="29.7289" width="5.94263" height="5.95459" filterUnits="userSpaceOnUse" color-interpolation-filters="sRGB">
<feFlood flood-opacity="0" result="BackgroundImageFix"/>
<feBlend mode="normal" in="SourceGraphic" in2="BackgroundImageFix" result="shape"/>
<feColorMatrix in="SourceAlpha" type="matrix" values="0 0 0 0 0 0 0 0 0 0 0 0 0 0 0 0 0 0 127 0" result="hardAlpha"/>
<feOffset/>
<feGaussianBlur stdDeviation="0.122727"/>
<feComposite in2="hardAlpha" operator="arithmetic" k2="-1" k3="1"/>
<feColorMatrix type="matrix" values="0 0 0 0 1 0 0 0 0 1 0 0 0 0 1 0 0 0 0.128114 0"/>
<feBlend mode="normal" in2="shape" result="effect1_innerShadow_1671_22732"/>
</filter>
<linearGradient id="paint0_linear_1671_22732" x1="-31.7928" y1="136.912" x2="130.165" y2="427.847" gradientUnits="userSpaceOnUse">
<stop stop-color="white" stop-opacity="0.06"/>
<stop offset="1" stop-opacity="0.5"/>
</linearGradient>
<linearGradient id="paint1_linear_1671_22732" x1="-50.8091" y1="136.911" x2="155.84" y2="463.445" gradientUnits="userSpaceOnUse">
<stop stop-color="white" stop-opacity="0.2"/>
<stop offset="1" stop-opacity="0.5"/>
</linearGradient>
<radialGradient id="paint2_angular_1671_22732" cx="0" cy="0" r="1" gradientUnits="userSpaceOnUse" gradientTransform="translate(309.906 33.0629) scale(6.53685 3.81094)">
<stop offset="0.0933668" stop-color="white" stop-opacity="0.24281"/>
<stop offset="0.430152" stop-color="#FDFDFD" stop-opacity="0.380774"/>
<stop offset="0.492251" stop-color="#181818" stop-opacity="0.280318"/>
<stop offset="0.640658" stop-opacity="0.133633"/>
<stop offset="1" stop-color="#080808" stop-opacity="0.175215"/>
</radialGradient>
<radialGradient id="paint3_radial_1671_22732" cx="0" cy="0" r="1" gradientUnits="userSpaceOnUse" gradientTransform="translate(309.906 32.2015) rotate(90) scale(4.67238 8.49372)">
<stop stop-color="white" stop-opacity="0.24448"/>
<stop offset="1" stop-opacity="0.0713032"/>
</radialGradient>
<radialGradient id="paint4_radial_1671_22732" cx="0" cy="0" r="1" gradientUnits="userSpaceOnUse" gradientTransform="translate(309.906 36.8738) rotate(90) scale(3.17937 11.8229)">
<stop stop-opacity="0.747424"/>
<stop offset="1" stop-opacity="0.0713032"/>
</radialGradient>
<radialGradient id="paint5_radial_1671_22732" cx="0" cy="0" r="1" gradientUnits="userSpaceOnUse" gradientTransform="translate(309.906 31.9453) rotate(180) scale(2.57725 1.53624)">
<stop offset="0.0383174" stop-color="white" stop-opacity="0.248896"/>
<stop offset="1" stop-color="white" stop-opacity="0.01"/>
</radialGradient>
</defs>
</svg>
