<svg width="694" height="303" viewBox="0 0 694 303" fill="none" xmlns="http://www.w3.org/2000/svg">
<g clip-path="url(#clip0_1671_22671)">
<path fill-rule="evenodd" clip-rule="evenodd" d="M231.373 303H200.784C196.168 303 192.429 299.229 192.429 294.583V231.458H250.916L239.598 296.048C238.896 300.071 235.425 303 231.373 303Z" fill="url(#paint0_linear_1671_22671)"/>
<path fill-rule="evenodd" clip-rule="evenodd" d="M462.628 303.001H493.216C497.833 303.001 501.572 299.23 501.572 294.584V231.459H443.085L454.402 296.048C455.104 300.072 458.575 303.001 462.628 303.001Z" fill="url(#paint1_linear_1671_22671)"/>
<path fill-rule="evenodd" clip-rule="evenodd" d="M501.573 210.417H192.427V21.0417C192.427 16.3957 196.17 12.625 200.783 12.625H493.218C497.83 12.625 501.573 16.3957 501.573 21.0417V210.417Z" fill="#1C1C1C"/>
<path fill-rule="evenodd" clip-rule="evenodd" d="M493.218 277.75H200.783C196.17 277.75 192.427 273.979 192.427 269.333V210.417H501.573V269.333C501.573 273.979 497.83 277.75 493.218 277.75Z" fill="#E0E0E0"/>
<path fill-rule="evenodd" clip-rule="evenodd" d="M346.854 260.863H347.478V258.087H346.854V260.863ZM352.524 258.885C352.501 258.876 352.298 258.733 351.998 258.733C351.592 258.733 351.313 259.053 351.313 259.482C351.313 259.895 351.584 260.223 351.998 260.223C352.291 260.223 352.501 260.088 352.524 260.071V260.812C352.449 260.845 352.231 260.913 351.952 260.913C351.253 260.913 350.637 260.366 350.637 259.482C350.637 258.649 351.193 258.043 351.952 258.043C352.246 258.043 352.464 258.119 352.524 258.144V258.885ZM345.994 258.885C345.972 258.876 345.769 258.733 345.468 258.733C345.062 258.733 344.784 259.053 344.784 259.482C344.784 259.895 345.054 260.223 345.468 260.223C345.761 260.223 345.972 260.088 345.994 260.071V260.812C345.919 260.845 345.708 260.913 345.43 260.913C344.724 260.913 344.107 260.366 344.107 259.482C344.107 258.649 344.663 258.043 345.43 258.043C345.723 258.043 345.941 258.119 345.994 258.144V258.885ZM354.492 258.745C354.123 258.745 353.845 259.081 353.845 259.477C353.845 259.881 354.123 260.209 354.492 260.209C354.868 260.209 355.138 259.881 355.138 259.477C355.138 259.081 354.868 258.745 354.492 258.745M355.807 259.477C355.807 260.268 355.259 260.916 354.492 260.916C353.733 260.916 353.184 260.268 353.184 259.477C353.184 258.686 353.733 258.047 354.492 258.047C355.259 258.047 355.807 258.686 355.807 259.477M349.856 258.72C349.848 258.72 349.585 258.636 349.367 258.636C349.112 258.636 348.976 258.729 348.976 258.863C348.976 259.032 349.164 259.091 349.269 259.124L349.435 259.192C349.848 259.335 350.029 259.646 350.029 259.983C350.029 260.681 349.487 260.916 349.006 260.916C348.668 260.916 348.36 260.841 348.322 260.832V260.201C348.382 260.218 348.645 260.302 348.916 260.302C349.232 260.302 349.375 260.201 349.375 260.041C349.375 259.907 349.247 259.823 349.089 259.772C349.059 259.755 348.999 259.739 348.961 259.722C348.608 259.595 348.315 259.368 348.315 258.906C348.315 258.392 348.668 258.039 349.247 258.039C349.548 258.039 349.833 258.123 349.856 258.131V258.72ZM343.446 255.109C343.446 254.916 343.296 254.764 343.131 254.764C342.958 254.764 342.822 254.916 342.822 255.109V255.833C342.822 256.026 342.958 256.186 343.131 256.186C343.296 256.186 343.446 256.026 343.446 255.833V255.109ZM345.15 254.152C345.15 253.967 345.007 253.807 344.834 253.807C344.669 253.807 344.526 253.967 344.526 254.152V255.835C344.526 256.028 344.669 256.188 344.834 256.188C345.007 256.188 345.15 256.028 345.15 255.835V254.152ZM346.856 252.845C346.856 252.651 346.713 252.5 346.541 252.5C346.375 252.5 346.232 252.651 346.232 252.845V256.53C346.232 256.715 346.375 256.875 346.541 256.875C346.713 256.875 346.856 256.715 346.856 256.53V252.845ZM348.56 254.152C348.56 253.967 348.417 253.807 348.252 253.807C348.079 253.807 347.936 253.967 347.936 254.152V255.835C347.936 256.028 348.079 256.188 348.252 256.188C348.417 256.188 348.56 256.028 348.56 255.835V254.152ZM350.266 255.109C350.266 254.915 350.123 254.764 349.95 254.764C349.785 254.764 349.642 254.915 349.642 255.109V255.833C349.642 256.026 349.785 256.186 349.95 256.186C350.123 256.186 350.266 256.026 350.266 255.833V255.109ZM351.97 254.152C351.97 253.967 351.827 253.807 351.654 253.807C351.489 253.807 351.346 253.967 351.346 254.152V255.835C351.346 256.028 351.489 256.188 351.654 256.188C351.827 256.188 351.97 256.028 351.97 255.835V254.152ZM353.677 252.845C353.677 252.651 353.542 252.5 353.369 252.5C353.196 252.5 353.053 252.651 353.053 252.845V256.53C353.053 256.715 353.196 256.875 353.369 256.875C353.542 256.875 353.677 256.715 353.677 256.53V252.845ZM355.387 254.152C355.387 253.967 355.244 253.807 355.071 253.807C354.898 253.807 354.763 253.967 354.763 254.152V255.835C354.763 256.028 354.898 256.188 355.071 256.188C355.244 256.188 355.387 256.028 355.387 255.835V254.152ZM357.091 255.109C357.091 254.915 356.948 254.764 356.782 254.764C356.609 254.764 356.467 254.915 356.467 255.109V255.833C356.467 256.026 356.609 256.186 356.782 256.186C356.948 256.186 357.091 256.026 357.091 255.833V255.109Z" fill="#908E8E"/>
<path fill-rule="evenodd" clip-rule="evenodd" d="M484.862 256.708C484.862 259.036 482.991 260.917 480.685 260.917C478.379 260.917 476.507 259.036 476.507 256.708C476.507 254.381 478.379 252.5 480.685 252.5C482.991 252.5 484.862 254.381 484.862 256.708Z" fill="white" fill-opacity="0.6"/>
<path fill-rule="evenodd" clip-rule="evenodd" d="M359.533 12.625C359.533 5.65179 353.922 0 347 0C340.078 0 334.467 5.65179 334.467 12.625C334.467 19.5982 340.078 25.25 347 25.25C353.922 25.25 359.533 19.5982 359.533 12.625" fill="url(#paint2_linear_1671_22671)"/>
<path fill-rule="evenodd" clip-rule="evenodd" d="M355.355 12.6255C355.355 7.97953 351.612 4.20886 347 4.20886C342.388 4.20886 338.645 7.97953 338.645 12.6255C338.645 17.2715 342.388 21.0422 347 21.0422C351.612 21.0422 355.355 17.2715 355.355 12.6255" fill="#232323"/>
<path fill-rule="evenodd" clip-rule="evenodd" d="M482.773 189.375H211.227C210.074 189.375 209.138 188.432 209.138 187.271V39.9792C209.138 38.8177 210.074 37.875 211.227 37.875H482.773C483.926 37.875 484.862 38.8177 484.862 39.9792V187.271C484.862 188.432 483.926 189.375 482.773 189.375" fill="#222222"/>
<path fill-rule="evenodd" clip-rule="evenodd" d="M482.773 189.375H211.227C210.074 189.375 209.138 188.432 209.138 187.271V39.9792C209.138 38.8177 210.074 37.875 211.227 37.875H482.773C483.926 37.875 484.862 38.8177 484.862 39.9792V187.271C484.862 188.432 483.926 189.375 482.773 189.375" fill="url(#paint3_linear_1671_22671)"/>
<path fill-rule="evenodd" clip-rule="evenodd" d="M351.178 12.6245C351.178 10.2973 349.306 8.41614 347 8.41614C344.694 8.41614 342.822 10.2973 342.822 12.6245C342.822 14.9517 344.694 16.8328 347 16.8328C349.306 16.8328 351.178 14.9517 351.178 12.6245" fill="#494E5C"/>
</g>
<defs>
<linearGradient id="paint0_linear_1671_22671" x1="457.928" y1="267.23" x2="457.928" y2="302.458" gradientUnits="userSpaceOnUse">
<stop stop-color="#CFCFCF"/>
<stop offset="1" stop-color="#E6E6E6"/>
</linearGradient>
<linearGradient id="paint1_linear_1671_22671" x1="457.928" y1="267.23" x2="457.928" y2="302.458" gradientUnits="userSpaceOnUse">
<stop stop-color="#CFCFCF"/>
<stop offset="1" stop-color="#E6E6E6"/>
</linearGradient>
<linearGradient id="paint2_linear_1671_22671" x1="335.381" y1="0.913847" x2="335.381" y2="24.3224" gradientUnits="userSpaceOnUse">
<stop stop-color="#424242"/>
<stop offset="1" stop-color="#656565"/>
</linearGradient>
<linearGradient id="paint3_linear_1671_22671" x1="71.2757" y1="113.625" x2="199.155" y2="346.36" gradientUnits="userSpaceOnUse">
<stop stop-color="white" stop-opacity="0.24"/>
<stop offset="1" stop-opacity="0.5"/>
</linearGradient>
<clipPath id="clip0_1671_22671">
<rect width="694" height="303" fill="white"/>
</clipPath>
</defs>
</svg>
