<svg width="632" height="276" viewBox="0 0 632 276" fill="none" xmlns="http://www.w3.org/2000/svg">
<g filter="url(#filter0_iii_1671_22755)">
<path fill-rule="evenodd" clip-rule="evenodd" d="M539.252 172.5H92.748C89.1169 172.5 86.1818 169.544 86.1818 165.887V112.987C86.1818 109.33 89.1169 106.375 92.748 106.375H539.252C542.883 106.375 545.818 109.33 545.818 112.987V165.887C545.818 169.544 542.883 172.5 539.252 172.5" fill="url(#paint0_linear_1671_22755)"/>
</g>
<path fill-rule="evenodd" clip-rule="evenodd" d="M99.0847 164.495H100.065V160.111H99.0847V164.495ZM107.996 161.37C107.961 161.357 107.642 161.131 107.169 161.131C106.531 161.131 106.094 161.636 106.094 162.313C106.094 162.964 106.519 163.482 107.169 163.482C107.63 163.482 107.961 163.27 107.996 163.243V164.412C107.878 164.465 107.535 164.572 107.098 164.572C105.999 164.572 105.03 163.708 105.03 162.313C105.03 160.998 105.905 160.042 107.098 160.042C107.559 160.042 107.902 160.161 107.996 160.201V161.37ZM97.733 161.37C97.6975 161.357 97.3785 161.131 96.9059 161.131C96.2678 161.131 95.8306 161.636 95.8306 162.313C95.8306 162.964 96.256 163.482 96.9059 163.482C97.3667 163.482 97.6975 163.27 97.733 163.243V164.412C97.6148 164.465 97.284 164.572 96.8468 164.572C95.7361 164.572 94.7672 163.708 94.7672 162.313C94.7672 160.998 95.6416 160.042 96.8468 160.042C97.3076 160.042 97.6503 160.161 97.733 160.201V161.37ZM111.089 161.15C110.51 161.15 110.073 161.681 110.073 162.305C110.073 162.943 110.51 163.461 111.089 163.461C111.68 163.461 112.106 162.943 112.106 162.305C112.106 161.681 111.68 161.15 111.089 161.15M113.157 162.305C113.157 163.554 112.295 164.577 111.089 164.577C109.896 164.577 109.033 163.554 109.033 162.305C109.033 161.056 109.896 160.047 111.089 160.047C112.295 160.047 113.157 161.056 113.157 162.305M103.803 161.111C103.791 161.111 103.377 160.978 103.035 160.978C102.633 160.978 102.42 161.124 102.42 161.337C102.42 161.603 102.716 161.696 102.881 161.749L103.141 161.855C103.791 162.081 104.074 162.572 104.074 163.104C104.074 164.206 103.224 164.578 102.468 164.578C101.936 164.578 101.451 164.459 101.392 164.446V163.449C101.487 163.476 101.9 163.609 102.326 163.609C102.822 163.609 103.046 163.449 103.046 163.197C103.046 162.984 102.846 162.851 102.597 162.772C102.55 162.745 102.456 162.719 102.397 162.692C101.841 162.493 101.38 162.134 101.38 161.403C101.38 160.593 101.936 160.035 102.846 160.035C103.318 160.035 103.767 160.168 103.803 160.181V161.111ZM93.7287 155.409C93.7287 155.104 93.4923 154.865 93.2324 154.865C92.9606 154.865 92.748 155.104 92.748 155.409V156.552C92.748 156.857 92.9606 157.11 93.2324 157.11C93.4923 157.11 93.7287 156.857 93.7287 156.552V155.409ZM96.4061 153.898C96.4061 153.605 96.1816 153.353 95.9098 153.353C95.6499 153.353 95.4254 153.605 95.4254 153.898V156.555C95.4254 156.86 95.6499 157.112 95.9098 157.112C96.1816 157.112 96.4061 156.86 96.4061 156.555V153.898ZM99.0882 151.834C99.0882 151.529 98.8637 151.29 98.5919 151.29C98.332 151.29 98.1075 151.529 98.1075 151.834V157.653C98.1075 157.945 98.332 158.198 98.5919 158.198C98.8637 158.198 99.0882 157.945 99.0882 157.653V151.834ZM101.766 153.898C101.766 153.605 101.541 153.353 101.281 153.353C101.009 153.353 100.785 153.605 100.785 153.898V156.555C100.785 156.86 101.009 157.112 101.281 157.112C101.541 157.112 101.766 156.86 101.766 156.555V153.898ZM104.448 155.409C104.448 155.104 104.223 154.865 103.951 154.865C103.692 154.865 103.467 155.104 103.467 155.409V156.552C103.467 156.857 103.692 157.11 103.951 157.11C104.223 157.11 104.448 156.857 104.448 156.552V155.409ZM107.125 153.898C107.125 153.605 106.901 153.353 106.629 153.353C106.369 153.353 106.144 153.605 106.144 153.898V156.555C106.144 156.86 106.369 157.112 106.629 157.112C106.901 157.112 107.125 156.86 107.125 156.555V153.898ZM109.809 151.834C109.809 151.529 109.596 151.29 109.324 151.29C109.052 151.29 108.828 151.529 108.828 151.834V157.653C108.828 157.945 109.052 158.198 109.324 158.198C109.596 158.198 109.809 157.945 109.809 157.653V151.834ZM112.497 153.898C112.497 153.605 112.272 153.353 112 153.353C111.729 153.353 111.516 153.605 111.516 153.898V156.555C111.516 156.86 111.729 157.112 112 157.112C112.272 157.112 112.497 156.86 112.497 156.555V153.898ZM115.174 155.409C115.174 155.104 114.95 154.865 114.69 154.865C114.418 154.865 114.193 155.104 114.193 155.409V156.552C114.193 156.857 114.418 157.11 114.69 157.11C114.95 157.11 115.174 156.857 115.174 156.552V155.409Z" fill="white"/>
<path fill-rule="evenodd" clip-rule="evenodd" d="M316 149.5C309.664 149.5 304.509 144.341 304.509 138C304.509 131.658 309.664 126.5 316 126.5C322.336 126.5 327.491 131.658 327.491 138C327.491 144.341 322.336 149.5 316 149.5" fill="#666666"/>
<g filter="url(#filter1_i_1671_22755)">
<path fill-rule="evenodd" clip-rule="evenodd" d="M316 121.468C306.889 121.468 299.482 128.881 299.482 138C299.482 147.118 306.889 154.531 316 154.531C325.111 154.531 332.518 147.118 332.518 138C332.518 128.881 325.111 121.468 316 121.468M316 131.387C319.654 131.387 322.607 134.343 322.607 138C322.607 141.657 319.654 144.612 316 144.612C312.346 144.612 309.393 141.657 309.393 138C309.393 134.343 312.346 131.387 316 131.387" fill="url(#paint1_linear_1671_22755)"/>
</g>
<ellipse cx="316" cy="138" rx="7.6606" ry="7.66666" fill="black" fill-opacity="0.4" stroke="white" stroke-opacity="0.08" stroke-width="0.245455"/>
<ellipse cx="316" cy="138" rx="17.2364" ry="17.25" stroke="white" stroke-opacity="0.4" stroke-width="0.245455"/>
<defs>
<filter id="filter0_iii_1671_22755" x="86.1818" y="106.375" width="459.636" height="66.125" filterUnits="userSpaceOnUse" color-interpolation-filters="sRGB">
<feFlood flood-opacity="0" result="BackgroundImageFix"/>
<feBlend mode="normal" in="SourceGraphic" in2="BackgroundImageFix" result="shape"/>
<feColorMatrix in="SourceAlpha" type="matrix" values="0 0 0 0 0 0 0 0 0 0 0 0 0 0 0 0 0 0 127 0" result="hardAlpha"/>
<feOffset dy="-0.245455"/>
<feComposite in2="hardAlpha" operator="arithmetic" k2="-1" k3="1"/>
<feColorMatrix type="matrix" values="0 0 0 0 0 0 0 0 0 0 0 0 0 0 0 0 0 0 0.24 0"/>
<feBlend mode="normal" in2="shape" result="effect1_innerShadow_1671_22755"/>
<feColorMatrix in="SourceAlpha" type="matrix" values="0 0 0 0 0 0 0 0 0 0 0 0 0 0 0 0 0 0 127 0" result="hardAlpha"/>
<feOffset dy="0.245455"/>
<feComposite in2="hardAlpha" operator="arithmetic" k2="-1" k3="1"/>
<feColorMatrix type="matrix" values="0 0 0 0 1 0 0 0 0 1 0 0 0 0 1 0 0 0 0.500906 0"/>
<feBlend mode="normal" in2="effect1_innerShadow_1671_22755" result="effect2_innerShadow_1671_22755"/>
<feColorMatrix in="SourceAlpha" type="matrix" values="0 0 0 0 0 0 0 0 0 0 0 0 0 0 0 0 0 0 127 0" result="hardAlpha"/>
<feOffset dy="0.245455"/>
<feComposite in2="hardAlpha" operator="arithmetic" k2="-1" k3="1"/>
<feColorMatrix type="matrix" values="0 0 0 0 0 0 0 0 0 0 0 0 0 0 0 0 0 0 0.08 0"/>
<feBlend mode="normal" in2="effect2_innerShadow_1671_22755" result="effect3_innerShadow_1671_22755"/>
</filter>
<filter id="filter1_i_1671_22755" x="299.482" y="120.732" width="33.0363" height="33.7989" filterUnits="userSpaceOnUse" color-interpolation-filters="sRGB">
<feFlood flood-opacity="0" result="BackgroundImageFix"/>
<feBlend mode="normal" in="SourceGraphic" in2="BackgroundImageFix" result="shape"/>
<feColorMatrix in="SourceAlpha" type="matrix" values="0 0 0 0 0 0 0 0 0 0 0 0 0 0 0 0 0 0 127 0" result="hardAlpha"/>
<feOffset dy="-0.736364"/>
<feGaussianBlur stdDeviation="0.613636"/>
<feComposite in2="hardAlpha" operator="arithmetic" k2="-1" k3="1"/>
<feColorMatrix type="matrix" values="0 0 0 0 0 0 0 0 0 0 0 0 0 0 0 0 0 0 0.5 0"/>
<feBlend mode="normal" in2="shape" result="effect1_innerShadow_1671_22755"/>
</filter>
<linearGradient id="paint0_linear_1671_22755" x1="86.1818" y1="106.375" x2="86.1818" y2="172.5" gradientUnits="userSpaceOnUse">
<stop stop-color="#DFDFDF"/>
<stop offset="1" stop-color="#7E7E7E"/>
</linearGradient>
<linearGradient id="paint1_linear_1671_22755" x1="299.482" y1="154.531" x2="332.518" y2="154.531" gradientUnits="userSpaceOnUse">
<stop stop-color="#2B2B2B"/>
<stop offset="0.563674" stop-color="#4F4F4F"/>
<stop offset="0.675635" stop-color="#535353"/>
<stop offset="0.761335" stop-color="#4A4A4A"/>
<stop offset="1" stop-color="#1C1C1C"/>
</linearGradient>
</defs>
</svg>
