<svg width="568" height="248" viewBox="0 0 568 248" fill="none" xmlns="http://www.w3.org/2000/svg">
<path d="M173.743 237.667H154.387C151.466 237.667 149.1 234.796 149.1 231.259V183.201H186.109L178.948 232.374C178.503 235.437 176.307 237.667 173.743 237.667Z" fill="url(#paint0_linear_1671_22699)"/>
<g filter="url(#filter0_i_1671_22699)">
<path d="M173.743 237.667H154.387C151.466 237.667 149.1 234.796 149.1 231.259V183.201H186.109L178.948 232.374C178.503 235.437 176.307 237.667 173.743 237.667Z" fill="black"/>
</g>
<path d="M395.766 237.667H415.122C418.043 237.667 420.409 234.796 420.409 231.259V183.201H383.4L390.561 232.374C391.005 235.437 393.202 237.667 395.766 237.667Z" fill="url(#paint1_linear_1671_22699)"/>
<g filter="url(#filter1_i_1671_22699)">
<path d="M395.766 237.667H415.122C418.043 237.667 420.409 234.796 420.409 231.259V183.201H383.4L390.561 232.374C391.005 235.437 393.202 237.667 395.766 237.667Z" fill="black"/>
</g>
<path d="M142 191.167H426V227.764C426 231.806 422.821 235.083 418.9 235.083H149.1C145.179 235.083 142 231.806 142 227.764V191.167Z" fill="#C5C5C5"/>
<g filter="url(#filter2_iiii_1671_22699)">
<path d="M142 191.167H426V227.764C426 231.806 422.821 235.083 418.9 235.083H149.1C145.179 235.083 142 231.806 142 227.764V191.167Z" fill="black"/>
</g>
<path d="M142 191.167H426V229.221C426 232.459 423.351 235.083 420.083 235.083H147.917C144.649 235.083 142 232.459 142 229.221V191.167Z" fill="url(#paint2_linear_1671_22699)"/>
<path d="M142 191.167H426V229.221C426 232.459 423.351 235.083 420.083 235.083H147.917C144.649 235.083 142 232.459 142 229.221V191.167Z" fill="url(#paint3_linear_1671_22699)"/>
<path fill-rule="evenodd" clip-rule="evenodd" d="M426 191.167V229.754C426 231.226 425.414 232.558 424.467 233.522C423.52 234.487 422.212 235.083 420.767 235.083H147.233C145.788 235.083 144.48 234.487 143.533 233.522C142.586 232.558 142 231.226 142 229.754V191.167H426Z" fill="url(#paint4_linear_1671_22699)"/>
<path fill-rule="evenodd" clip-rule="evenodd" d="M424.451 229.754V192.717H143.549V229.754C143.549 230.807 143.967 231.753 144.638 232.436C145.308 233.119 146.224 233.533 147.233 233.533H420.767C421.776 233.533 422.692 233.119 423.362 232.436C424.033 231.753 424.451 230.807 424.451 229.754ZM426 191.167H142V229.754C142 231.226 142.586 232.558 143.533 233.522C144.48 234.487 145.788 235.083 147.233 235.083H420.767C422.212 235.083 423.52 234.487 424.467 233.522C425.414 232.558 426 231.226 426 229.754V191.167Z" fill="url(#paint5_linear_1671_22699)"/>
<path fill-rule="evenodd" clip-rule="evenodd" d="M424.709 229.754V192.458H143.291V229.754C143.291 230.877 143.736 231.887 144.454 232.617C145.17 233.347 146.152 233.792 147.233 233.792H420.767C421.848 233.792 422.83 233.347 423.546 232.617C424.264 231.887 424.709 230.877 424.709 229.754ZM426 191.167H142V229.754C142 231.226 142.586 232.558 143.533 233.522C144.48 234.487 145.788 235.083 147.233 235.083H420.767C422.212 235.083 423.52 234.487 424.467 233.522C425.414 232.558 426 231.226 426 229.754V191.167Z" fill="#999999" fill-opacity="0.48"/>
<path fill-rule="evenodd" clip-rule="evenodd" d="M424.967 229.754V192.2H143.033V229.754C143.033 230.946 143.506 232.021 144.269 232.798C145.032 233.575 146.079 234.05 147.233 234.05H420.767C421.921 234.05 422.968 233.575 423.731 232.798C424.494 232.021 424.967 230.946 424.967 229.754ZM426 191.167H142V229.754C142 231.226 142.586 232.558 143.533 233.522C144.48 234.487 145.788 235.083 147.233 235.083H420.767C422.212 235.083 423.52 234.487 424.467 233.522C425.414 232.558 426 231.226 426 229.754V191.167Z" fill="#151B1E" fill-opacity="0.12"/>
<path d="M426 192.674H142V18.0925C142 13.8094 145.439 10.3333 149.676 10.3333H418.324C422.561 10.3333 426 13.8094 426 18.0925V192.674Z" fill="#1A1A1A"/>
<g filter="url(#filter3_i_1671_22699)">
<path d="M426 192.674H142V18.0925C142 13.8094 145.439 10.3333 149.676 10.3333H418.324C422.561 10.3333 426 13.8094 426 18.0925V192.674Z" fill="black"/>
</g>
<path fill-rule="evenodd" clip-rule="evenodd" d="M419.64 185.462C419.64 187.208 418.228 188.619 416.489 188.619C414.75 188.619 413.338 187.208 413.338 185.462C413.338 183.716 414.75 182.304 416.489 182.304C418.228 182.304 419.64 183.716 419.64 185.462Z" stroke="#474747" stroke-width="0.0736364"/>
<path fill-rule="evenodd" clip-rule="evenodd" d="M391.284 188.619H403.886C405.626 188.619 407.037 187.208 407.037 185.462C407.037 183.716 405.626 182.304 403.886 182.304H391.284C389.545 182.304 388.133 183.716 388.133 185.462C388.133 187.208 389.545 188.619 391.284 188.619Z" stroke="#474747" stroke-width="0.0736364"/>
<path d="M284 20.9896C285.961 20.9896 287.55 19.3993 287.55 17.4375C287.55 15.4757 285.961 13.8854 284 13.8854C282.039 13.8854 280.45 15.4757 280.45 17.4375C280.45 19.3993 282.039 20.9896 284 20.9896Z" fill="#232323"/>
<path d="M284 19.8055C285.307 19.8055 286.367 18.7453 286.367 17.4375C286.367 16.1296 285.307 15.0694 284 15.0694C282.693 15.0694 281.633 16.1296 281.633 17.4375C281.633 18.7453 282.693 19.8055 284 19.8055Z" fill="#555B6C"/>
<path fill-rule="evenodd" clip-rule="evenodd" d="M288.127 216.3C288.864 216.3 289.392 216.84 289.392 217.507C289.392 218.175 288.864 218.722 288.127 218.722C287.396 218.722 286.868 218.175 286.868 217.507C286.868 216.84 287.396 216.3 288.127 216.3ZM283.081 216.293C283.37 216.293 283.645 216.364 283.666 216.371V216.869C283.659 216.869 283.406 216.798 283.196 216.798C282.95 216.798 282.82 216.876 282.82 216.989C282.82 217.131 283.001 217.181 283.102 217.21L283.261 217.266C283.659 217.387 283.833 217.65 283.833 217.934C283.833 218.523 283.312 218.722 282.849 218.722C282.524 218.722 282.227 218.658 282.191 218.651V218.119C282.249 218.133 282.502 218.204 282.762 218.204C283.066 218.204 283.204 218.119 283.204 217.984C283.204 217.87 283.081 217.799 282.929 217.756C282.9 217.742 282.842 217.728 282.806 217.714C282.466 217.607 282.184 217.415 282.184 217.025C282.184 216.592 282.524 216.293 283.081 216.293ZM285.683 216.297C285.966 216.297 286.175 216.361 286.233 216.382V217.007C286.211 217 286.016 216.879 285.727 216.879C285.336 216.879 285.069 217.149 285.069 217.511C285.069 217.859 285.329 218.136 285.727 218.136C286.009 218.136 286.211 218.023 286.233 218.009V218.633C286.161 218.662 285.951 218.719 285.683 218.719C285.011 218.719 284.418 218.257 284.418 217.511C284.418 216.808 284.953 216.297 285.683 216.297ZM279.409 216.297C279.691 216.297 279.901 216.361 279.951 216.382V217.007C279.93 217 279.734 216.879 279.445 216.879C279.054 216.879 278.787 217.149 278.787 217.511C278.787 217.859 279.047 218.136 279.445 218.136C279.727 218.136 279.93 218.023 279.951 218.009V218.633C279.879 218.662 279.676 218.719 279.409 218.719C278.729 218.719 278.136 218.257 278.136 217.511C278.136 216.808 278.671 216.297 279.409 216.297ZM281.379 216.334V218.678H280.779V216.334H281.379ZM288.127 216.889C287.772 216.889 287.505 217.173 287.505 217.507C287.505 217.848 287.772 218.125 288.127 218.125C288.488 218.125 288.749 217.848 288.749 217.507C288.749 217.173 288.488 216.889 288.127 216.889ZM280.477 211.618C280.643 211.618 280.781 211.746 280.781 211.909V215.02C280.781 215.176 280.643 215.311 280.477 215.311C280.318 215.311 280.181 215.176 280.181 215.02V211.909C280.181 211.746 280.318 211.618 280.477 211.618ZM287.046 211.618C287.212 211.618 287.343 211.746 287.343 211.909V215.02C287.343 215.176 287.212 215.311 287.046 215.311C286.88 215.311 286.742 215.176 286.742 215.02V211.909C286.742 211.746 286.88 211.618 287.046 211.618ZM278.835 212.721C279.002 212.721 279.139 212.856 279.139 213.012V214.433C279.139 214.596 279.002 214.731 278.835 214.731C278.676 214.731 278.539 214.596 278.539 214.433V213.012C278.539 212.856 278.676 212.721 278.835 212.721ZM282.123 212.721C282.282 212.721 282.42 212.856 282.42 213.012V214.433C282.42 214.596 282.282 214.731 282.123 214.731C281.957 214.731 281.819 214.596 281.819 214.433V213.012C281.819 212.856 281.957 212.721 282.123 212.721ZM285.396 212.721C285.563 212.721 285.7 212.856 285.7 213.012V214.433C285.7 214.596 285.563 214.731 285.396 214.731C285.237 214.731 285.1 214.596 285.1 214.433V213.012C285.1 212.856 285.237 212.721 285.396 212.721ZM288.684 212.721C288.85 212.721 288.988 212.856 288.988 213.012V214.433C288.988 214.596 288.85 214.731 288.684 214.731C288.518 214.731 288.388 214.596 288.388 214.433V213.012C288.388 212.856 288.518 212.721 288.684 212.721ZM277.197 213.529C277.356 213.529 277.5 213.657 277.5 213.82V214.431C277.5 214.595 277.356 214.729 277.197 214.729C277.03 214.729 276.9 214.595 276.9 214.431V213.82C276.9 213.657 277.03 213.529 277.197 213.529ZM283.758 213.529C283.924 213.529 284.061 213.657 284.061 213.82V214.431C284.061 214.595 283.924 214.729 283.758 214.729C283.598 214.729 283.461 214.595 283.461 214.431V213.82C283.461 213.657 283.598 213.529 283.758 213.529ZM290.33 213.529C290.489 213.529 290.627 213.657 290.627 213.82V214.431C290.627 214.595 290.489 214.729 290.33 214.729C290.164 214.729 290.026 214.595 290.026 214.431V213.82C290.026 213.657 290.164 213.529 290.33 213.529Z" fill="white"/>
<path d="M284 189.122C285.961 189.122 287.55 187.531 287.55 185.569C287.55 183.608 285.961 182.017 284 182.017C282.039 182.017 280.45 183.608 280.45 185.569C280.45 187.531 282.039 189.122 284 189.122Z" stroke="white" stroke-opacity="0.6" stroke-width="0.0736364"/>
<path d="M419.187 178.465H148.813C147.665 178.465 146.733 177.508 146.733 176.327V26.6795C146.733 25.4994 147.665 24.5417 148.813 24.5417H419.187C420.335 24.5417 421.267 25.4994 421.267 26.6795V176.327C421.267 177.508 420.335 178.465 419.187 178.465Z" fill="#222222"/>
<path d="M419.187 178.465H148.813C147.665 178.465 146.733 177.508 146.733 176.327V26.6795C146.733 25.4994 147.665 24.5417 148.813 24.5417H419.187C420.335 24.5417 421.267 25.4994 421.267 26.6795V176.327C421.267 177.508 420.335 178.465 419.187 178.465Z" fill="url(#paint6_linear_1671_22699)"/>
<defs>
<filter id="filter0_i_1671_22699" x="149.1" y="183.201" width="37.0087" height="54.4653" filterUnits="userSpaceOnUse" color-interpolation-filters="sRGB">
<feFlood flood-opacity="0" result="BackgroundImageFix"/>
<feBlend mode="normal" in="SourceGraphic" in2="BackgroundImageFix" result="shape"/>
<feColorMatrix in="SourceAlpha" type="matrix" values="0 0 0 0 0 0 0 0 0 0 0 0 0 0 0 0 0 0 127 0" result="hardAlpha"/>
<feOffset/>
<feGaussianBlur stdDeviation="0.490909"/>
<feComposite in2="hardAlpha" operator="arithmetic" k2="-1" k3="1"/>
<feColorMatrix type="matrix" values="0 0 0 0 0 0 0 0 0 0 0 0 0 0 0 0 0 0 0.08 0"/>
<feBlend mode="normal" in2="shape" result="effect1_innerShadow_1671_22699"/>
</filter>
<filter id="filter1_i_1671_22699" x="383.4" y="183.201" width="37.0087" height="54.4653" filterUnits="userSpaceOnUse" color-interpolation-filters="sRGB">
<feFlood flood-opacity="0" result="BackgroundImageFix"/>
<feBlend mode="normal" in="SourceGraphic" in2="BackgroundImageFix" result="shape"/>
<feColorMatrix in="SourceAlpha" type="matrix" values="0 0 0 0 0 0 0 0 0 0 0 0 0 0 0 0 0 0 127 0" result="hardAlpha"/>
<feOffset/>
<feGaussianBlur stdDeviation="0.490909"/>
<feComposite in2="hardAlpha" operator="arithmetic" k2="-1" k3="1"/>
<feColorMatrix type="matrix" values="0 0 0 0 0 0 0 0 0 0 0 0 0 0 0 0 0 0 0.08 0"/>
<feBlend mode="normal" in2="shape" result="effect1_innerShadow_1671_22699"/>
</filter>
<filter id="filter2_iiii_1671_22699" x="142" y="191.167" width="284" height="43.9167" filterUnits="userSpaceOnUse" color-interpolation-filters="sRGB">
<feFlood flood-opacity="0" result="BackgroundImageFix"/>
<feBlend mode="normal" in="SourceGraphic" in2="BackgroundImageFix" result="shape"/>
<feColorMatrix in="SourceAlpha" type="matrix" values="0 0 0 0 0 0 0 0 0 0 0 0 0 0 0 0 0 0 127 0" result="hardAlpha"/>
<feOffset/>
<feGaussianBlur stdDeviation="0.490909"/>
<feComposite in2="hardAlpha" operator="arithmetic" k2="-1" k3="1"/>
<feColorMatrix type="matrix" values="0 0 0 0 0 0 0 0 0 0 0 0 0 0 0 0 0 0 0.08 0"/>
<feBlend mode="normal" in2="shape" result="effect1_innerShadow_1671_22699"/>
<feColorMatrix in="SourceAlpha" type="matrix" values="0 0 0 0 0 0 0 0 0 0 0 0 0 0 0 0 0 0 127 0" result="hardAlpha"/>
<feOffset/>
<feGaussianBlur stdDeviation="0.490909"/>
<feComposite in2="hardAlpha" operator="arithmetic" k2="-1" k3="1"/>
<feColorMatrix type="matrix" values="0 0 0 0 0 0 0 0 0 0 0 0 0 0 0 0 0 0 0.04 0"/>
<feBlend mode="normal" in2="effect1_innerShadow_1671_22699" result="effect2_innerShadow_1671_22699"/>
<feColorMatrix in="SourceAlpha" type="matrix" values="0 0 0 0 0 0 0 0 0 0 0 0 0 0 0 0 0 0 127 0" result="hardAlpha"/>
<feOffset/>
<feGaussianBlur stdDeviation="0.490909"/>
<feComposite in2="hardAlpha" operator="arithmetic" k2="-1" k3="1"/>
<feColorMatrix type="matrix" values="0 0 0 0 0 0 0 0 0 0 0 0 0 0 0 0 0 0 0.08 0"/>
<feBlend mode="normal" in2="effect2_innerShadow_1671_22699" result="effect3_innerShadow_1671_22699"/>
<feColorMatrix in="SourceAlpha" type="matrix" values="0 0 0 0 0 0 0 0 0 0 0 0 0 0 0 0 0 0 127 0" result="hardAlpha"/>
<feOffset/>
<feGaussianBlur stdDeviation="0.490909"/>
<feComposite in2="hardAlpha" operator="arithmetic" k2="-1" k3="1"/>
<feColorMatrix type="matrix" values="0 0 0 0 0 0 0 0 0 0 0 0 0 0 0 0 0 0 0.04 0"/>
<feBlend mode="normal" in2="effect3_innerShadow_1671_22699" result="effect4_innerShadow_1671_22699"/>
</filter>
<filter id="filter3_i_1671_22699" x="142" y="10.3333" width="284" height="182.34" filterUnits="userSpaceOnUse" color-interpolation-filters="sRGB">
<feFlood flood-opacity="0" result="BackgroundImageFix"/>
<feBlend mode="normal" in="SourceGraphic" in2="BackgroundImageFix" result="shape"/>
<feColorMatrix in="SourceAlpha" type="matrix" values="0 0 0 0 0 0 0 0 0 0 0 0 0 0 0 0 0 0 127 0" result="hardAlpha"/>
<feOffset/>
<feGaussianBlur stdDeviation="0.490909"/>
<feComposite in2="hardAlpha" operator="arithmetic" k2="-1" k3="1"/>
<feColorMatrix type="matrix" values="0 0 0 0 1 0 0 0 0 1 0 0 0 0 1 0 0 0 0.6 0"/>
<feBlend mode="normal" in2="shape" result="effect1_innerShadow_1671_22699"/>
</filter>
<linearGradient id="paint0_linear_1671_22699" x1="167.604" y1="210.434" x2="167.604" y2="237.253" gradientUnits="userSpaceOnUse">
<stop stop-color="#CACACA"/>
<stop offset="1" stop-color="#989898"/>
</linearGradient>
<linearGradient id="paint1_linear_1671_22699" x1="401.904" y1="210.434" x2="401.904" y2="237.253" gradientUnits="userSpaceOnUse">
<stop stop-color="#CACACA"/>
<stop offset="1" stop-color="#989898"/>
</linearGradient>
<linearGradient id="paint2_linear_1671_22699" x1="142" y1="216.532" x2="426" y2="216.532" gradientUnits="userSpaceOnUse">
<stop stop-color="#E4E4E4"/>
<stop offset="1" stop-color="#A8A8A8"/>
</linearGradient>
<linearGradient id="paint3_linear_1671_22699" x1="284" y1="226.863" x2="284" y2="235.083" gradientUnits="userSpaceOnUse">
<stop stop-opacity="0"/>
<stop offset="1" stop-opacity="0.08"/>
</linearGradient>
<linearGradient id="paint4_linear_1671_22699" x1="284" y1="203.078" x2="284" y2="235.083" gradientUnits="userSpaceOnUse">
<stop stop-opacity="0"/>
<stop offset="1" stop-opacity="0.08"/>
</linearGradient>
<linearGradient id="paint5_linear_1671_22699" x1="284" y1="191.167" x2="284" y2="235.083" gradientUnits="userSpaceOnUse">
<stop stop-color="#E9E9E8"/>
<stop offset="1" stop-color="#E0E2E5"/>
</linearGradient>
<linearGradient id="paint6_linear_1671_22699" x1="146.733" y1="77.3385" x2="376.327" y2="205.915" gradientUnits="userSpaceOnUse">
<stop stop-color="white" stop-opacity="0.24"/>
<stop offset="1" stop-opacity="0.5"/>
</linearGradient>
</defs>
</svg>
