<svg width="1280" height="623" viewBox="0 0 1280 623" fill="none" xmlns="http://www.w3.org/2000/svg">
<rect width="1280" height="623" fill="#1e1e1e"/>
<path fill-rule="evenodd" clip-rule="evenodd" d="M163.65 133.052L176.4 166.504H174.712L170.785 156.158H154.573L150.647 166.504H149L161.75 133.052H163.65ZM162.679 134.867L155.206 154.461H170.131L162.679 134.867ZM204.691 133.052V166.504H203.276L182.61 136.135L182.589 166.504H181.026V133.052H182.441L203.107 163.422V133.052H204.691ZM223.988 133.052L236.738 166.504H235.049L231.123 156.158H214.91L210.984 166.504H209.337L222.088 133.052H223.988ZM223.017 134.867L215.544 154.461H230.468L223.017 134.867ZM261.017 164.808V166.504H241.364V133.052H242.926V164.808H261.017ZM282.975 133.052L271.048 151.714V166.504H269.486V151.714L257.516 133.052H259.416L270.267 150.017L281.138 133.052H282.975ZM306.325 136.517L305.523 137.95C303.306 136.11 300.119 134.486 295.812 134.486C290.704 134.486 286.862 137.233 286.862 141.941C286.862 145.501 288.994 147.962 294.588 148.631L298.366 149.085C303.855 149.754 307.233 152.119 307.233 157.352C307.233 163.732 302.082 166.767 295.707 166.767C291.105 166.767 286.904 164.783 284.476 162.705L285.342 161.295C287.453 163.087 291.295 165.07 295.707 165.07C301.237 165.07 305.607 162.657 305.607 157.496C305.607 153.386 302.947 151.403 297.754 150.781L293.891 150.327C288.002 149.611 285.236 146.696 285.236 142.036C285.236 136.134 289.88 132.789 295.833 132.789C300.541 132.789 303.982 134.533 306.325 136.517ZM315.257 133.052V166.504H313.695V133.052H315.257ZM343.59 136.517L342.787 137.95C340.571 136.11 337.383 134.486 333.077 134.486C327.968 134.486 324.126 137.233 324.126 141.941C324.126 145.501 326.258 147.962 331.853 148.631L335.631 149.085C341.12 149.754 344.497 152.119 344.497 157.352C344.497 163.732 339.346 166.767 332.971 166.767C328.369 166.767 324.169 164.783 321.741 162.705L322.606 161.295C324.717 163.087 328.559 165.07 332.971 165.07C338.502 165.07 342.872 162.657 342.872 157.496C342.872 153.386 340.212 151.403 335.019 150.781L331.156 150.327C325.266 149.611 322.501 146.696 322.501 142.036C322.501 136.134 327.145 132.789 333.098 132.789C337.805 132.789 341.246 134.533 343.59 136.517Z" fill="#979797"/>
<path fill-rule="evenodd" clip-rule="evenodd" d="M150.862 186.863L149.855 185.96C151.09 183.659 153.332 181.035 157.531 181.035C162.775 181.035 165.586 185.014 165.586 189.895C165.586 193.572 163.839 196.325 161.996 198.497L152.344 209.916H166.688V211.378H150.311V210.174L160.951 197.594C162.756 195.465 164.181 193.035 164.181 189.895C164.181 185.852 161.863 182.519 157.493 182.519C153.997 182.519 152.097 184.626 150.862 186.863ZM181.225 181.035C187.096 181.035 191.922 186.755 191.922 196.304C191.922 205.873 187.096 211.615 181.225 211.615C175.355 211.615 170.548 205.873 170.548 196.304C170.548 186.755 175.355 181.035 181.225 181.035ZM181.225 182.519C176.152 182.519 171.973 187.595 171.973 196.304C171.973 205.035 176.152 210.132 181.225 210.132C186.317 210.132 190.496 205.035 190.496 196.304C190.496 187.595 186.317 182.519 181.225 182.519ZM198.477 187.218L197.47 186.315C198.705 184.014 200.946 181.39 205.145 181.39C210.389 181.39 213.201 185.368 213.201 190.25C213.201 193.927 211.453 196.68 209.61 198.852L199.959 210.271H214.303V211.733H197.926V210.529L208.565 197.949C210.37 195.82 211.795 193.39 211.795 190.25C211.795 186.207 209.477 182.874 205.107 182.874C201.611 182.874 199.712 184.981 198.477 187.218Z" fill="#979797"/>
<path fill-rule="evenodd" clip-rule="evenodd" d="M221.71 187.117L220.703 186.214C221.938 183.913 224.18 181.289 228.379 181.289C233.622 181.289 236.434 185.267 236.434 190.149C236.434 193.826 234.686 196.579 232.843 198.751L223.192 210.17H237.536V211.632H221.159V210.428L231.798 197.848C233.603 195.719 235.028 193.289 235.028 190.149C235.028 186.106 232.71 182.773 228.341 182.773C224.845 182.773 222.945 184.88 221.71 187.117Z" fill="#979797"/>
<path d="M248.923 525.842C248.923 525.842 259.094 504.815 266.176 496.522C273.258 488.229 284.018 475.776 285.321 471.803C286.625 467.831 287.665 460.266 296.928 464.048C306.19 467.831 314.737 471.351 323.15 459.745C331.562 448.139 343.075 389.374 350.522 389.374C355.812 389.374 364.966 431.328 380.565 457.96C387.037 469.011 401.179 475.353 414.76 475.353C461.634 475.353 509.06 443.113 514.775 436.816C520.49 430.52 530.451 418.459 533.821 418.459C537.191 418.459 552.096 436.905 556.913 441.49C561.731 446.076 585.137 469.551 614.652 465.952C644.168 462.354 674.474 445.687 683.662 417.065C692.849 388.443 694.137 385.076 696.201 385.076C698.265 385.076 702.239 393.238 709.772 415.619C717.304 437.999 731.644 444.161 740.567 445.15C749.491 446.138 762.737 445.461 770.871 433.541C779.004 421.622 785.581 424.19 793.313 429.342C801.046 434.495 813.067 439.724 822.631 434.533C832.194 429.342 843.337 420.809 855.711 385.076C868.086 349.343 868.549 362.497 886.916 404.744C905.283 446.991 920.47 431.139 926.522 425.813C932.574 420.488 951.23 382.027 959.86 409.422C968.491 436.816 968.536 454.247 975.895 449.859C983.254 445.47 991.878 398.251 998.522 393.053C1005.17 387.856 1010.28 397.988 1013.45 411.447C1016.63 424.907 1019.55 525.512 1019.55 525.512L248.923 525.842Z" fill="#A9A9A9" fill-opacity="0.8"/>
<path d="M247.238 525.862C237.111 525.862 227.085 521.97 225.218 515.128C223.35 508.286 221.692 503.581 237.266 495.312C252.84 487.044 259.518 484.734 266.539 477.518C273.559 470.302 283.298 477.022 290.635 482.563C297.972 488.104 306.663 493.23 321.106 482.563C335.549 471.895 352.026 463.262 365.866 470.39C379.706 477.518 393.016 483.178 407.99 471.18C422.964 459.181 432.55 441.067 442.967 446.932C453.383 452.798 466.144 458.49 482.091 450.829C497.186 442.164 505.986 430.45 508.544 419.697C511.102 408.944 513.823 382.639 529.55 398.076C545.277 413.513 558.491 421.412 567.708 417.462C576.924 413.513 592.634 407.875 596.471 383.636C600.308 359.397 602.8 347.199 606.589 347.199C610.378 347.199 619.349 361.995 625.005 383.636C630.661 405.278 645.696 431.694 657.548 431.694C669.4 431.694 682.162 413.88 700.01 431.694C717.857 449.507 717.701 463.815 738.504 466.349C759.307 468.883 790.036 487.837 801.303 492.758C812.571 497.678 828.49 506.666 846.533 499.339C864.575 492.013 895.021 499.818 904.691 502.501C914.362 505.184 925.557 492.815 937.579 483.386C949.602 473.958 963.914 478.621 976.881 480.592C989.848 482.563 997.425 483.016 1005.03 471.18C1012.63 459.344 1027.63 430.199 1036.84 430.199C1046.06 430.199 1091.37 505.723 1084.7 515.128C1078.03 524.534 1040.52 525.862 1040.52 525.862C1040.52 525.862 257.365 525.862 247.238 525.862Z" fill="#DCDBDA" fill-opacity="0.8"/>
<path d="M248.39 525.692C244.022 525.692 228.635 524.709 230.225 518.904C231.815 513.099 237.97 507.037 248.39 505.841C258.81 504.645 276.575 505.599 287.51 503.855C298.446 502.111 310.046 501.415 324.874 487.003C339.701 472.592 347.334 463.973 357.639 472.35C367.943 480.726 382.101 495.948 391.134 498.002C400.167 500.056 423.148 498.687 439.189 500.07C455.23 501.453 465.4 505.486 474.452 504.67C483.503 503.855 496.199 500.901 509.342 495.758C522.484 490.616 536.323 489.72 543.932 493.861C551.54 498.002 562.796 500.52 570.354 496.495C577.911 492.469 589.97 485.868 602.585 487.833C615.2 489.798 621.911 495.093 636.203 487.833C650.495 480.573 680.138 451.841 687.149 446.554C694.16 441.268 699.796 440.206 712.424 451.642C725.052 463.078 741.083 473.669 755.18 467.54C769.276 461.412 771.603 444.841 784.325 450.644C797.048 456.447 803.623 474.878 815.877 481.355C828.13 487.833 842.454 485.646 859.776 492.272C877.098 498.898 893.57 505.841 912.756 505.841C931.943 505.841 993.671 509.271 1002.74 504.67C1011.82 500.07 1029.69 493.861 1037.83 493.861C1045.97 493.861 1072.11 492.565 1074.72 506.534C1077.34 520.502 1060.15 525.692 1037.83 525.692C1015.51 525.692 252.758 525.692 248.39 525.692Z" fill="#909091" fill-opacity="0.8"/>
<path d="M350.121 376.176L259.63 452.834L259.204 452.416L350.083 375.43L436.761 436.343L522.742 407.71L609.503 368.896L692.991 318.18L780.007 382.556L867.119 388.754L951.123 414.701L1036.06 322.269L1036.54 322.635L951.327 415.366L951.125 415.303L866.994 389.308L779.862 383.117L779.689 383.054L692.954 318.887L609.814 369.389L522.986 408.233L436.653 436.986L350.121 376.176Z" fill="#5C5C5E"/>
<path fill-rule="evenodd" clip-rule="evenodd" d="M685.602 318.675C685.602 322.37 688.889 325.362 692.94 325.362C696.991 325.362 700.278 322.37 700.278 318.675C700.278 314.98 696.991 311.988 692.94 311.988C688.889 311.988 685.602 314.98 685.602 318.675ZM601.736 369.243C601.736 372.938 605.024 375.93 609.075 375.93C613.125 375.93 616.413 372.938 616.413 369.243C616.413 365.548 613.125 362.556 609.075 362.556C605.024 362.556 601.736 365.548 601.736 369.243ZM342.277 375.922C342.277 379.617 345.564 382.609 349.615 382.609C353.666 382.609 356.953 379.617 356.953 375.922C356.953 372.227 353.666 369.235 349.615 369.235C345.564 369.235 342.277 372.227 342.277 375.922ZM259.459 458.939C255.409 458.939 252.121 455.947 252.121 452.252C252.121 448.557 255.409 445.565 259.459 445.565C263.51 445.565 266.798 448.557 266.798 452.252C266.798 455.947 263.51 458.939 259.459 458.939ZM259.46 452.726C259.75 452.726 259.984 452.513 259.984 452.251C259.984 451.99 259.75 451.777 259.46 451.777C259.17 451.777 258.936 451.99 258.936 452.251C258.936 452.513 259.17 452.726 259.46 452.726ZM349.616 376.396C349.906 376.396 350.14 376.183 350.14 375.921C350.14 375.66 349.906 375.447 349.616 375.447C349.326 375.447 349.091 375.66 349.091 375.921C349.091 376.183 349.326 376.396 349.616 376.396ZM429.811 436.508C429.811 440.203 433.099 443.195 437.15 443.195C441.2 443.195 444.488 440.203 444.488 436.508C444.488 432.813 441.2 429.821 437.15 429.821C433.099 429.821 429.811 432.813 429.811 436.508ZM437.15 436.982C437.44 436.982 437.674 436.769 437.674 436.508C437.674 436.246 437.44 436.033 437.15 436.033C436.86 436.033 436.626 436.246 436.626 436.508C436.626 436.769 436.86 436.982 437.15 436.982ZM515.773 407.885C515.773 411.58 519.061 414.572 523.112 414.572C527.162 414.572 530.45 411.58 530.45 407.885C530.45 404.19 527.162 401.198 523.112 401.198C519.061 401.198 515.773 404.19 515.773 407.885ZM523.113 408.359C523.403 408.359 523.637 408.146 523.637 407.884C523.637 407.623 523.403 407.41 523.113 407.41C522.823 407.41 522.589 407.623 522.589 407.884C522.589 408.146 522.823 408.359 523.113 408.359ZM609.075 369.718C609.365 369.718 609.599 369.505 609.599 369.244C609.599 368.982 609.365 368.769 609.075 368.769C608.785 368.769 608.551 368.982 608.551 369.244C608.551 369.505 608.785 369.718 609.075 369.718ZM692.941 319.149C693.231 319.149 693.465 318.936 693.465 318.675C693.465 318.413 693.231 318.2 692.941 318.2C692.651 318.2 692.417 318.413 692.417 318.675C692.417 318.936 692.651 319.149 692.941 319.149ZM772.089 382.124C772.089 385.819 775.376 388.811 779.427 388.811C783.478 388.811 786.765 385.819 786.765 382.124C786.765 378.429 783.478 375.437 779.427 375.437C775.376 375.437 772.089 378.429 772.089 382.124ZM779.427 382.598C779.717 382.598 779.951 382.385 779.951 382.123C779.951 381.862 779.717 381.649 779.427 381.649C779.137 381.649 778.903 381.862 778.903 382.123C778.903 382.385 779.137 382.598 779.427 382.598ZM859.623 389.28C859.623 392.975 862.911 395.967 866.962 395.967C871.012 395.967 874.3 392.975 874.3 389.28C874.3 385.585 871.012 382.593 866.962 382.593C862.911 382.593 859.623 385.585 859.623 389.28ZM866.962 389.753C867.252 389.753 867.486 389.54 867.486 389.279C867.486 389.017 867.252 388.804 866.962 388.804C866.671 388.804 866.437 389.017 866.437 389.279C866.437 389.54 866.671 389.753 866.962 389.753ZM944.537 414.564C944.537 418.259 947.824 421.251 951.875 421.251C955.926 421.251 959.213 418.259 959.213 414.564C959.213 410.869 955.926 407.877 951.875 407.877C947.824 407.877 944.537 410.869 944.537 414.564ZM951.876 415.038C952.166 415.038 952.4 414.825 952.4 414.563C952.4 414.302 952.166 414.089 951.876 414.089C951.586 414.089 951.352 414.302 951.352 414.563C951.352 414.825 951.586 415.038 951.876 415.038ZM1029.45 322.492C1029.45 326.187 1032.74 329.179 1036.79 329.179C1040.84 329.179 1044.13 326.187 1044.13 322.492C1044.13 318.797 1040.84 315.805 1036.79 315.805C1032.74 315.805 1029.45 318.797 1029.45 322.492ZM1036.79 322.966C1037.08 322.966 1037.31 322.753 1037.31 322.492C1037.31 322.23 1037.08 322.017 1036.79 322.017C1036.5 322.017 1036.27 322.23 1036.27 322.492C1036.27 322.753 1036.5 322.966 1036.79 322.966Z" fill="#5C5C5E"/>
<path fill-rule="evenodd" clip-rule="evenodd" d="M1061.28 178.689V179.893L1048.59 208.796H1047.01L1059.65 180.151H1043.53V178.689H1061.28ZM1073.54 178.689L1066.77 191.162C1068.14 190.366 1069.7 189.936 1071.35 189.936C1076.63 189.936 1080.49 194.043 1080.49 199.484C1080.49 204.946 1076.63 209.032 1071.35 209.032C1066.05 209.032 1062.19 204.925 1062.19 199.484C1062.19 197.549 1062.69 195.807 1063.62 194.065L1071.86 178.689H1073.54ZM1071.35 191.377C1066.85 191.377 1063.6 194.818 1063.6 199.485C1063.6 204.151 1066.87 207.592 1071.35 207.592C1075.84 207.592 1079.08 204.151 1079.08 199.485C1079.08 194.818 1075.84 191.377 1071.35 191.377ZM1099.68 178.689V180.151H1087.14L1086.74 191.205H1091.21C1097.53 191.205 1100.73 194.882 1100.73 199.828C1100.73 205.527 1097.02 209.032 1091.93 209.032C1088.32 209.032 1085.41 207.527 1083.25 204.495L1084.18 203.506C1086.1 206.172 1088.81 207.548 1091.93 207.548C1096.47 207.548 1099.32 204.409 1099.32 199.957C1099.32 195.742 1096.64 192.667 1090.83 192.667H1085.43L1085.89 178.689H1099.68ZM1114.26 178.453C1119.1 178.453 1123.13 181.249 1123.13 186.302C1123.13 190.13 1120.98 192.496 1118.13 193.55C1121.32 194.582 1123.77 196.969 1123.77 200.883C1123.77 206.194 1119.48 209.033 1114.26 209.033C1109.03 209.033 1104.72 206.194 1104.72 200.883C1104.72 196.969 1107.17 194.582 1110.36 193.55C1107.51 192.496 1105.37 190.13 1105.37 186.302C1105.37 181.249 1109.39 178.453 1114.26 178.453ZM1114.26 194.259C1109.79 194.259 1106.16 196.582 1106.16 200.883C1106.16 205.313 1109.79 207.592 1114.26 207.592C1118.68 207.592 1122.33 205.313 1122.33 200.883C1122.33 196.582 1118.7 194.259 1114.26 194.259ZM1114.26 179.915C1110.17 179.915 1106.79 182.13 1106.79 186.324C1106.79 190.668 1110.17 192.904 1114.26 192.904C1118.32 192.904 1121.7 190.668 1121.7 186.324C1121.7 182.13 1118.32 179.915 1114.26 179.915Z" fill="#979797"/>
<path fill-rule="evenodd" clip-rule="evenodd" d="M1020.76 294.589V295.125L1013.76 307.97H1012.89L1019.86 295.239H1010.97V294.589H1020.76ZM1027.52 294.59L1023.79 300.134C1024.55 299.78 1025.41 299.589 1026.32 299.589C1029.23 299.589 1031.36 301.414 1031.36 303.832C1031.36 306.26 1029.23 308.076 1026.32 308.076C1023.39 308.076 1021.27 306.251 1021.27 303.832C1021.27 302.972 1021.54 302.198 1022.05 301.424L1026.6 294.59H1027.52ZM1026.32 300.229C1023.83 300.229 1022.04 301.758 1022.04 303.832C1022.04 305.906 1023.84 307.435 1026.32 307.435C1028.79 307.435 1030.59 305.906 1030.59 303.832C1030.59 301.758 1028.79 300.229 1026.32 300.229ZM1041.95 294.59V295.24H1035.03L1034.81 300.153H1037.28C1040.77 300.153 1042.53 301.787 1042.53 303.985C1042.53 306.518 1040.48 308.076 1037.67 308.076C1035.68 308.076 1034.08 307.407 1032.88 306.059L1033.4 305.62C1034.46 306.805 1035.95 307.417 1037.67 307.417C1040.18 307.417 1041.75 306.021 1041.75 304.043C1041.75 302.169 1040.27 300.803 1037.07 300.803H1034.09L1034.34 294.59H1041.95ZM1049.99 294.484C1052.67 294.484 1054.89 295.727 1054.89 297.973C1054.89 299.674 1053.7 300.726 1052.13 301.194C1053.89 301.653 1055.24 302.714 1055.24 304.453C1055.24 306.814 1052.88 308.075 1049.99 308.075C1047.11 308.075 1044.73 306.814 1044.73 304.453C1044.73 302.714 1046.08 301.653 1047.84 301.194C1046.27 300.726 1045.09 299.674 1045.09 297.973C1045.09 295.727 1047.31 294.484 1049.99 294.484ZM1049.99 301.509C1047.53 301.509 1045.53 302.542 1045.53 304.453C1045.53 306.422 1047.53 307.435 1049.99 307.435C1052.44 307.435 1054.45 306.422 1054.45 304.453C1054.45 302.542 1052.45 301.509 1049.99 301.509ZM1049.99 295.134C1047.74 295.134 1045.87 296.119 1045.87 297.982C1045.87 299.913 1047.74 300.907 1049.99 300.907C1052.24 300.907 1054.1 299.913 1054.1 297.982C1054.1 296.119 1052.24 295.134 1049.99 295.134Z" fill="#979797"/>
<path fill-rule="evenodd" clip-rule="evenodd" d="M929.64 376.062C932.408 376.062 934.295 377.534 934.295 379.551C934.295 381.224 933.289 382.304 931.789 382.782C933.446 383.25 934.62 384.387 934.62 386.003C934.62 388.478 932.24 389.654 929.766 389.654C927.89 389.654 926.443 389.061 925.384 388.096L925.877 387.627C926.852 388.488 928.162 389.004 929.745 389.004C931.873 389.004 933.834 388.057 933.834 386.003C933.834 384.206 932.02 383.116 929.798 383.116H927.659V382.447H929.798C931.894 382.447 933.519 381.463 933.519 379.551C933.519 377.898 931.884 376.712 929.588 376.712C928.005 376.712 926.768 377.41 926.003 378.337L925.458 377.917C926.317 376.856 927.722 376.062 929.64 376.062ZM940.282 389.548L944.014 384.005C943.27 384.359 942.4 384.55 941.488 384.55C938.563 384.55 936.445 382.724 936.445 380.306C936.445 377.888 938.563 376.062 941.488 376.062C944.413 376.062 946.541 377.888 946.541 380.306C946.541 381.166 946.268 381.94 945.754 382.705L941.194 389.548H940.282ZM941.488 383.91C943.972 383.91 945.754 382.381 945.765 380.307C945.765 378.242 943.972 376.703 941.488 376.703C939.003 376.703 937.221 378.242 937.221 380.307C937.221 382.371 939.003 383.91 941.488 383.91ZM955.453 381.912V385.811H958.294V386.461H955.453V389.548H954.699V386.461H947.434V385.926L952.916 376.177H953.766L948.335 385.811H954.699V381.912H955.453ZM968.506 376.168V376.818H961.587L961.367 381.731H963.831C967.321 381.731 969.083 383.365 969.083 385.564C969.083 388.096 967.038 389.654 964.229 389.654C962.237 389.654 960.633 388.985 959.438 387.638L959.952 387.198C961.011 388.383 962.51 388.995 964.229 388.995C966.734 388.995 968.307 387.599 968.307 385.621C968.307 383.748 966.829 382.381 963.621 382.381H960.644L960.895 376.168H968.506Z" fill="#979797"/>
<path fill-rule="evenodd" clip-rule="evenodd" d="M846.613 345.16V345.81H839.694L839.474 350.722H841.938C845.429 350.722 847.19 352.357 847.19 354.555C847.19 357.088 845.146 358.646 842.336 358.646C840.344 358.646 838.74 357.977 837.545 356.629L838.059 356.189C839.118 357.375 840.617 357.986 842.336 357.986C844.842 357.986 846.414 356.591 846.414 354.612C846.414 352.739 844.936 351.372 841.728 351.372H838.751L839.003 345.16H846.613ZM849.644 347.645L849.089 347.243C849.77 346.221 851.007 345.055 853.324 345.055C856.217 345.055 857.769 346.823 857.769 348.992C857.769 350.627 856.804 351.85 855.788 352.816L850.462 357.891H858.377V358.541H849.34V358.005L855.211 352.414C856.207 351.468 856.993 350.388 856.993 348.992C856.993 347.196 855.714 345.714 853.303 345.714C851.374 345.714 850.326 346.651 849.644 347.645ZM865.665 345.064V358.54H864.91V346.058L859.752 348.094V347.377L865.665 345.064ZM869.178 347.645L868.622 347.243C869.304 346.221 870.541 345.055 872.857 345.055C875.751 345.055 877.302 346.823 877.302 348.992C877.302 350.627 876.338 351.85 875.321 352.816L869.995 357.891H877.91V358.541H868.874V358.005L874.744 352.414C875.74 351.468 876.527 350.388 876.527 348.992C876.527 347.196 875.248 345.714 872.836 345.714C870.908 345.714 869.859 346.651 869.178 347.645Z" fill="#979797"/>
<path fill-rule="evenodd" clip-rule="evenodd" d="M770.087 349.929V350.579H763.168L762.947 355.492H765.411C768.902 355.492 770.663 357.126 770.663 359.325C770.663 361.857 768.619 363.415 765.809 363.415C763.818 363.415 762.214 362.746 761.019 361.399L761.532 360.959C762.591 362.144 764.09 362.756 765.809 362.756C768.315 362.756 769.887 361.36 769.887 359.382C769.887 357.509 768.409 356.142 765.201 356.142H762.224L762.476 349.929H770.087ZM778.747 349.93L775.015 355.474C775.77 355.12 776.629 354.929 777.541 354.929C780.456 354.929 782.584 356.754 782.584 359.172C782.584 361.6 780.456 363.416 777.541 363.416C774.617 363.416 772.488 361.59 772.488 359.172C772.488 358.312 772.761 357.538 773.275 356.764L777.824 349.93H778.747ZM777.541 355.569C775.057 355.569 773.264 357.098 773.264 359.172C773.264 361.246 775.067 362.775 777.541 362.775C780.015 362.775 781.808 361.246 781.808 359.172C781.808 357.098 780.015 355.569 777.541 355.569ZM792.24 355.673V359.573H795.081V360.223H792.24V363.31H791.485V360.223H784.221V359.688L789.703 349.939H790.552L785.122 359.573H791.485V355.673H792.24ZM796.782 352.414L796.226 352.013C796.907 350.99 798.144 349.824 800.461 349.824C803.355 349.824 804.906 351.592 804.906 353.762C804.906 355.396 803.942 356.62 802.925 357.585L797.599 362.66H805.514V363.31H796.478V362.775L802.348 357.184C803.344 356.237 804.13 355.157 804.13 353.762C804.13 351.965 802.851 350.484 800.44 350.484C798.511 350.484 797.463 351.42 796.782 352.414Z" fill="#979797"/>
<path fill-rule="evenodd" clip-rule="evenodd" d="M674.815 289.82V290.355L667.812 303.201H666.942L673.913 290.47H665.023V289.82H674.815ZM685.174 289.821V290.471H678.255L678.035 295.383H680.498C683.989 295.383 685.75 297.018 685.75 299.216C685.75 301.749 683.706 303.307 680.897 303.307C678.905 303.307 677.301 302.638 676.106 301.29L676.62 300.85C677.678 302.035 679.177 302.647 680.897 302.647C683.402 302.647 684.975 301.252 684.975 299.273C684.975 297.4 683.497 296.033 680.289 296.033H677.311L677.563 289.821H685.174ZM693.342 289.724V303.2H692.587V290.718L687.429 292.754V292.037L693.342 289.724ZM700.335 289.715C703.103 289.715 704.99 291.187 704.99 293.203C704.99 294.876 703.983 295.956 702.484 296.434C704.141 296.902 705.315 298.04 705.315 299.655C705.315 302.13 702.935 303.306 700.461 303.306C698.584 303.306 697.138 302.713 696.079 301.748L696.572 301.28C697.547 302.14 698.857 302.656 700.44 302.656C702.568 302.656 704.529 301.71 704.529 299.655C704.529 297.858 702.715 296.768 700.492 296.768H698.354V296.099H700.492C702.589 296.099 704.214 295.115 704.214 293.203C704.214 291.55 702.579 290.365 700.283 290.365C698.7 290.365 697.463 291.062 696.697 291.99L696.152 291.569C697.012 290.508 698.417 289.715 700.335 289.715Z" fill="#979797"/>
<path fill-rule="evenodd" clip-rule="evenodd" d="M588.989 329.894L585.257 335.438C586.012 335.084 586.871 334.893 587.783 334.893C590.698 334.893 592.826 336.718 592.826 339.136C592.826 341.564 590.698 343.38 587.783 343.38C584.859 343.38 582.73 341.555 582.73 339.136C582.73 338.276 583.003 337.502 583.517 336.728L588.066 329.894H588.989ZM587.784 335.534C585.299 335.534 583.506 337.063 583.506 339.137C583.506 341.211 585.309 342.74 587.784 342.74C590.258 342.74 592.05 341.211 592.05 339.137C592.05 337.063 590.258 335.534 587.784 335.534ZM598.384 329.789C601.151 329.789 603.038 331.261 603.038 333.278C603.038 334.95 602.032 336.03 600.533 336.508C602.189 336.976 603.363 338.114 603.363 339.729C603.363 342.204 600.983 343.38 598.509 343.38C596.633 343.38 595.186 342.787 594.128 341.822L594.62 341.354C595.595 342.214 596.906 342.73 598.489 342.73C600.617 342.73 602.577 341.784 602.577 339.729C602.577 337.932 600.763 336.843 598.541 336.843H596.402V336.174H598.541C600.638 336.174 602.262 335.189 602.262 333.278C602.262 331.624 600.627 330.439 598.331 330.439C596.748 330.439 595.511 331.137 594.746 332.064L594.201 331.643C595.061 330.582 596.465 329.789 598.384 329.789ZM611.615 329.789C614.854 329.789 617.517 332.331 617.517 336.575C617.517 340.828 614.854 343.38 611.615 343.38C608.376 343.38 605.723 340.828 605.723 336.575C605.723 332.331 608.376 329.789 611.615 329.789ZM611.615 330.448C608.816 330.448 606.51 332.704 606.51 336.575C606.51 340.455 608.816 342.72 611.615 342.72C614.424 342.72 616.731 340.455 616.731 336.575C616.731 332.704 614.424 330.448 611.615 330.448ZM625.192 329.798V343.275H624.437V330.792L619.279 332.828V332.111L625.192 329.798Z" fill="#979797"/>
<path fill-rule="evenodd" clip-rule="evenodd" d="M506.58 382.388V386.287H509.421V386.937H506.58V390.025H505.825V386.937H498.561V386.402L504.043 376.653H504.892L499.462 386.287H505.825V382.388H506.58ZM516.342 376.539C519.015 376.539 521.237 377.782 521.237 380.028C521.237 381.729 520.053 382.78 518.48 383.249C520.241 383.707 521.594 384.768 521.594 386.508C521.594 388.869 519.225 390.13 516.342 390.13C513.459 390.13 511.079 388.869 511.079 386.508C511.079 384.768 512.431 383.707 514.193 383.249C512.62 382.78 511.436 381.729 511.436 380.028C511.436 377.782 513.658 376.539 516.342 376.539ZM516.341 383.564C513.878 383.564 511.875 384.596 511.875 386.508C511.875 388.477 513.878 389.49 516.341 389.49C518.784 389.49 520.797 388.477 520.797 386.508C520.797 384.596 518.794 383.564 516.341 383.564ZM516.342 377.189C514.088 377.189 512.222 378.173 512.222 380.037C512.222 381.968 514.088 382.962 516.342 382.962C518.585 382.962 520.451 381.968 520.451 380.037C520.451 378.173 518.585 377.189 516.342 377.189ZM532.488 376.645V377.295H525.569L525.349 382.208H527.812C531.303 382.208 533.064 383.842 533.064 386.04C533.064 388.573 531.02 390.131 528.211 390.131C526.219 390.131 524.615 389.462 523.42 388.114L523.933 387.674C524.992 388.86 526.491 389.471 528.211 389.471C530.716 389.471 532.289 388.076 532.289 386.097C532.289 384.224 530.81 382.857 527.603 382.857H524.625L524.877 376.645H532.488ZM541.148 376.645L537.416 382.188C538.171 381.835 539.03 381.644 539.942 381.644C542.857 381.644 544.985 383.469 544.985 385.887C544.985 388.315 542.857 390.131 539.942 390.131C537.017 390.131 534.889 388.305 534.889 385.887C534.889 385.027 535.162 384.253 535.676 383.479L540.225 376.645H541.148ZM539.942 382.284C537.458 382.284 535.665 383.813 535.665 385.887C535.665 387.961 537.468 389.49 539.942 389.49C542.416 389.49 544.209 387.961 544.209 385.887C544.209 383.813 542.416 382.284 539.942 382.284Z" fill="#979797"/>
<path fill-rule="evenodd" clip-rule="evenodd" d="M428.208 412.524L427.652 412.122C428.334 411.1 429.571 409.934 431.888 409.934C434.781 409.934 436.332 411.702 436.332 413.871C436.332 415.506 435.368 416.729 434.351 417.694L429.026 422.77H436.94V423.42H427.904V422.884L433.775 417.293C434.77 416.347 435.557 415.267 435.557 413.871C435.557 412.075 434.278 410.593 431.867 410.593C429.938 410.593 428.889 411.53 428.208 412.524ZM442.372 423.42L446.104 417.876C445.36 418.23 444.49 418.421 443.578 418.421C440.653 418.421 438.535 416.595 438.535 414.177C438.535 411.759 440.653 409.934 443.578 409.934C446.503 409.934 448.631 411.759 448.631 414.177C448.631 415.037 448.358 415.812 447.844 416.576L443.284 423.42H442.372ZM443.578 417.781C446.062 417.781 447.844 416.252 447.855 414.178C447.855 412.113 446.062 410.574 443.578 410.574C441.093 410.574 439.311 412.113 439.311 414.178C439.311 416.242 441.093 417.781 443.578 417.781ZM459.147 410.04V410.689H452.228L452.008 415.602H454.471C457.962 415.602 459.723 417.236 459.723 419.435C459.723 421.968 457.679 423.525 454.87 423.525C452.878 423.525 451.274 422.856 450.079 421.509L450.592 421.069C451.651 422.254 453.15 422.866 454.87 422.866C457.375 422.866 458.948 421.471 458.948 419.492C458.948 417.619 457.469 416.252 454.262 416.252H451.284L451.536 410.04H459.147ZM467.808 410.04L464.076 415.583C464.831 415.229 465.69 415.038 466.602 415.038C469.517 415.038 471.645 416.864 471.645 419.282C471.645 421.709 469.517 423.525 466.602 423.525C463.678 423.525 461.55 421.7 461.55 419.282C461.55 418.422 461.822 417.647 462.336 416.873L466.885 410.04H467.808ZM466.602 415.678C464.118 415.678 462.325 417.207 462.325 419.281C462.325 421.356 464.128 422.885 466.602 422.885C469.076 422.885 470.869 421.356 470.869 419.281C470.869 417.207 469.076 415.678 466.602 415.678Z" fill="#979797"/>
<path fill-rule="evenodd" clip-rule="evenodd" d="M332.673 349.453L328.941 354.996C329.696 354.643 330.556 354.451 331.468 354.451C334.382 354.451 336.51 356.277 336.51 358.695C336.51 361.123 334.382 362.939 331.468 362.939C328.543 362.939 326.415 361.113 326.415 358.695C326.415 357.835 326.688 357.061 327.201 356.286L331.751 349.453H332.673ZM331.468 355.092C328.983 355.092 327.191 356.621 327.191 358.695C327.191 360.769 328.994 362.299 331.468 362.299C333.942 362.299 335.735 360.769 335.735 358.695C335.735 356.621 333.942 355.092 331.468 355.092ZM338.588 351.938L338.032 351.536C338.713 350.514 339.95 349.348 342.267 349.348C345.161 349.348 346.712 351.116 346.712 353.285C346.712 354.92 345.748 356.143 344.731 357.108L339.405 362.184H347.32V362.833H338.284V362.298L344.154 356.707C345.15 355.761 345.936 354.681 345.936 353.285C345.936 351.489 344.657 350.007 342.246 350.007C340.317 350.007 339.269 350.944 338.588 351.938ZM357.983 349.453V350.103H351.064L350.844 355.016H353.308C356.798 355.016 358.56 356.65 358.56 358.849C358.56 361.381 356.515 362.939 353.706 362.939C351.714 362.939 350.11 362.27 348.915 360.923L349.429 360.483C350.488 361.668 351.987 362.28 353.706 362.28C356.211 362.28 357.784 360.884 357.784 358.906C357.784 357.033 356.306 355.666 353.098 355.666H350.121L350.372 349.453H357.983ZM366.151 349.357V362.833H365.396V350.351L360.239 352.386V351.67L366.151 349.357Z" fill="#979797"/>
<path fill-rule="evenodd" clip-rule="evenodd" d="M199.674 448.305L199.118 447.904C199.8 446.881 201.037 445.715 203.353 445.715C206.247 445.715 207.798 447.483 207.798 449.653C207.798 451.287 206.834 452.51 205.817 453.476L200.491 458.551H208.406V459.201H199.37V458.666L205.24 453.074C206.236 452.128 207.023 451.048 207.023 449.653C207.023 447.856 205.744 446.374 203.332 446.374C201.404 446.374 200.355 447.311 199.674 448.305ZM217.644 451.564V455.464H220.485V456.114H217.644V459.201H216.889V456.114H209.624V455.579L215.107 445.83H215.956L210.526 455.464H216.889V451.564H217.644ZM225.067 459.201L228.799 453.657C228.055 454.011 227.185 454.202 226.273 454.202C223.348 454.202 221.231 452.377 221.231 449.958C221.231 447.54 223.348 445.715 226.273 445.715C229.198 445.715 231.326 447.54 231.326 449.958C231.326 450.819 231.053 451.593 230.54 452.357L225.98 459.201H225.067ZM226.273 453.562C228.758 453.562 230.54 452.033 230.55 449.959C230.55 447.894 228.758 446.356 226.273 446.356C223.789 446.356 222.006 447.894 222.006 449.959C222.006 452.023 223.789 453.562 226.273 453.562ZM236.81 445.715C239.577 445.715 241.464 447.187 241.464 449.203C241.464 450.876 240.458 451.956 238.959 452.434C240.615 452.902 241.789 454.04 241.789 455.655C241.789 458.13 239.409 459.306 236.935 459.306C235.059 459.306 233.612 458.713 232.553 457.748L233.046 457.28C234.021 458.14 235.331 458.656 236.914 458.656C239.042 458.656 241.003 457.71 241.003 455.655C241.003 453.858 239.189 452.768 236.967 452.768H234.828V452.099H236.967C239.063 452.099 240.688 451.115 240.688 449.203C240.688 447.55 239.053 446.365 236.757 446.365C235.174 446.365 233.937 447.062 233.172 447.99L232.627 447.569C233.486 446.508 234.891 445.715 236.81 445.715Z" fill="#979797"/>
<path fill-rule="evenodd" clip-rule="evenodd" d="M1044.67 138.484L1043.67 137.581C1044.9 135.28 1047.14 132.656 1051.34 132.656C1056.59 132.656 1059.4 136.635 1059.4 141.516C1059.4 145.194 1057.65 147.946 1055.81 150.118L1046.16 161.537H1060.5V163H1044.12V161.795L1054.76 149.215C1056.57 147.086 1057.99 144.656 1057.99 141.516C1057.99 137.473 1055.68 134.14 1051.31 134.14C1047.81 134.14 1045.91 136.248 1044.67 138.484ZM1077.24 145.817V154.591H1082.39V156.053H1077.24V162.999H1075.87V156.053H1062.71V154.849L1072.64 132.914H1074.18L1064.34 154.591H1075.87V145.817H1077.24ZM1090.7 163L1097.46 150.527C1096.11 151.322 1094.53 151.753 1092.88 151.753C1087.58 151.753 1083.74 147.645 1083.74 142.204C1083.74 136.764 1087.58 132.656 1092.88 132.656C1098.18 132.656 1102.04 136.764 1102.04 142.204C1102.04 144.14 1101.54 145.882 1100.61 147.602L1092.35 163H1090.7ZM1092.88 150.311C1097.38 150.311 1100.61 146.871 1100.63 142.204C1100.63 137.559 1097.38 134.097 1092.88 134.097C1088.38 134.097 1085.15 137.559 1085.15 142.204C1085.15 146.849 1088.38 150.311 1092.88 150.311ZM1111.98 132.656C1116.99 132.656 1120.41 135.968 1120.41 140.505C1120.41 144.269 1118.59 146.699 1115.87 147.774C1118.87 148.828 1121 151.387 1121 155.021C1121 160.591 1116.69 163.236 1112.2 163.236C1108.8 163.236 1106.18 161.903 1104.26 159.731L1105.16 158.677C1106.92 160.612 1109.3 161.774 1112.17 161.774C1116.02 161.774 1119.58 159.645 1119.58 155.021C1119.58 150.978 1116.29 148.527 1112.26 148.527H1108.39V147.021H1112.26C1116.06 147.021 1119.01 144.806 1119.01 140.505C1119.01 136.785 1116.04 134.119 1111.88 134.119C1109.01 134.119 1106.77 135.688 1105.38 137.774L1104.4 136.828C1105.95 134.441 1108.5 132.656 1111.98 132.656Z" fill="#979797"/>
</svg>
