<svg width="111" height="100" viewBox="0 0 111 100" fill="none" xmlns="http://www.w3.org/2000/svg">
<path d="M109.941 98.5163H45.8457C44.1541 98.5148 42.5323 97.8421 41.3362 96.646C40.1401 95.4499 39.4674 93.8281 39.4659 92.1365V74.3324C39.4659 73.8995 39.6378 73.4844 39.9439 73.1783C40.25 72.8723 40.6651 72.7003 41.0979 72.7003H42.2849C45.9429 72.6956 49.4498 71.2404 52.0365 68.6537C54.6231 66.0671 56.0784 62.5602 56.0831 58.9021V43.4718C56.0831 42.0159 55.5047 40.6196 54.4752 39.5901C53.4457 38.5606 52.0494 37.9822 50.5935 37.9822C49.1375 37.9822 47.7412 38.5606 46.7117 39.5901C45.6822 40.6196 45.1039 42.0159 45.1039 43.4718V58.9021C45.1039 59.6497 44.8069 60.3668 44.2782 60.8954C43.7495 61.4241 43.0325 61.7211 42.2849 61.7211H39.4659V28.635C39.4659 26.5495 38.6374 24.5494 37.1627 23.0747C35.688 21.6 33.6879 20.7715 31.6024 20.7715C29.5168 20.7715 27.5167 21.6 26.042 23.0747C24.5673 24.5494 23.7389 26.5495 23.7389 28.635V49.4066C23.7389 50.1542 23.4419 50.8712 22.9132 51.3999C22.3845 51.9285 21.6675 52.2255 20.9199 52.2255C20.1722 52.2255 19.4552 51.9285 18.9265 51.3999C18.3979 50.8712 18.1009 50.1542 18.1009 49.4066V43.4718C18.1009 42.0159 17.5225 40.6196 16.493 39.5901C15.4635 38.5606 14.0672 37.9822 12.6113 37.9822C11.1553 37.9822 9.75903 38.5606 8.72953 39.5901C7.70003 40.6196 7.12166 42.0159 7.12166 43.4718V49.4066C7.12637 53.0646 8.58162 56.5715 11.1683 59.1582C13.7549 61.7448 17.2618 63.2001 20.9199 63.2048H22.1068C22.5397 63.2048 22.9548 63.3767 23.2609 63.6828C23.5669 63.9889 23.7389 64.404 23.7389 64.8368V92.1365C23.7373 93.8281 23.0646 95.4499 21.8685 96.646C20.6724 97.8421 19.0506 98.5148 17.359 98.5163H0.74184C0.545092 98.5163 0.356402 98.5945 0.21728 98.7336C0.0781579 98.8727 0 99.0614 0 99.2582C0 99.4549 0.0781579 99.6436 0.21728 99.7827C0.356402 99.9219 0.545092 100 0.74184 100H17.359C19.4441 99.9984 21.4433 99.1695 22.9176 97.6951C24.392 96.2208 25.221 94.2216 25.2225 92.1365V64.8368C25.221 64.011 24.8922 63.2194 24.3082 62.6354C23.7243 62.0514 22.9327 61.7227 22.1068 61.7211H20.9199C17.6553 61.7164 14.5258 60.4174 12.2174 58.109C9.90898 55.8006 8.61005 52.6711 8.60534 49.4066V43.4718C8.60534 42.4094 9.02739 41.3905 9.77865 40.6392C10.5299 39.888 11.5488 39.4659 12.6113 39.4659C13.6737 39.4659 14.6926 39.888 15.4439 40.6392C16.1952 41.3905 16.6172 42.4094 16.6172 43.4718V49.4066C16.6172 50.5477 17.0705 51.6421 17.8774 52.449C18.6843 53.2559 19.7787 53.7092 20.9199 53.7092C22.061 53.7092 23.1554 53.2559 23.9623 52.449C24.7692 51.6421 25.2225 50.5477 25.2225 49.4066V28.635C25.2225 26.943 25.8947 25.3203 27.0912 24.1238C28.2876 22.9274 29.9103 22.2552 31.6024 22.2552C33.2944 22.2552 34.9171 22.9274 36.1136 24.1238C37.31 25.3203 37.9822 26.943 37.9822 28.635V61.7211H36.3501C35.7688 61.7198 35.1988 61.8815 34.7047 62.1878C34.2106 62.4941 33.8123 62.9328 33.5549 63.454C33.2895 64.0314 33.1926 64.6721 33.2756 65.3021C33.3585 65.9321 33.6179 66.5259 34.0237 67.0149C34.0599 67.0688 34.1063 67.1152 34.1602 67.1514C34.7852 67.6492 35.5572 67.9267 36.3561 67.9407C37.1798 67.9407 37.9699 67.6138 38.5529 67.0319C39.136 66.45 39.4643 65.6606 39.4659 64.8368V63.2048H42.2849C43.4255 63.2032 44.519 62.7494 45.3256 61.9428C46.1321 61.1362 46.586 60.0428 46.5875 58.9021V43.4718C46.5875 42.4094 47.0096 41.3905 47.7608 40.6392C48.5121 39.888 49.531 39.4659 50.5935 39.4659C51.6559 39.4659 52.6748 39.888 53.4261 40.6392C54.1773 41.3905 54.5994 42.4094 54.5994 43.4718V58.9021C54.5947 62.1667 53.2958 65.2962 50.9874 67.6046C48.6789 69.913 45.5494 71.2119 42.2849 71.2166H41.0979C40.2721 71.2182 39.4805 71.547 38.8965 72.1309C38.3125 72.7149 37.9838 73.5065 37.9822 74.3324V92.1365C37.9838 94.2216 38.8127 96.2208 40.2871 97.6951C41.7614 99.1695 43.7606 99.9984 45.8457 100H109.941C110.137 100 110.326 99.9219 110.465 99.7827C110.604 99.6436 110.682 99.4549 110.682 99.2582C110.682 99.0614 110.604 98.8727 110.465 98.7336C110.326 98.5945 110.137 98.5163 109.941 98.5163ZM37.9822 64.8368C37.9828 65.1416 37.8981 65.4404 37.7376 65.6995C37.5771 65.9585 37.3473 66.1675 37.0742 66.3027C36.7686 66.4798 36.413 66.551 36.0628 66.5053C35.7126 66.4595 35.3873 66.2992 35.1375 66.0495C34.8877 65.7997 34.7275 65.4744 34.6817 65.1242C34.6359 64.7739 34.7071 64.4184 34.8843 64.1128C35.0195 63.8397 35.2284 63.6099 35.4875 63.4494C35.7466 63.2889 36.0454 63.2042 36.3501 63.2048H37.9822V64.8368Z" fill="url(#paint0_linear)"/>
<path d="M53.4125 85.0148V91.2344L50.6647 93.9881C50.5262 94.1266 50.4484 94.3145 50.4484 94.5104C50.4484 94.7063 50.5262 94.8941 50.6647 95.0326C50.8032 95.1711 50.9911 95.249 51.1869 95.249C51.3828 95.249 51.5707 95.1711 51.7092 95.0326L54.6766 92.0653C54.7464 91.9975 54.8018 91.9162 54.8396 91.8265C54.8773 91.7368 54.8965 91.6404 54.8961 91.543V85.0148C54.8961 84.582 55.0681 84.1669 55.3742 83.8608C55.6802 83.5547 56.0953 83.3828 56.5282 83.3828H60.089C60.5219 83.3828 60.937 83.5547 61.243 83.8608C61.5491 84.1669 61.7211 84.582 61.7211 85.0148V91.543C61.7207 91.6404 61.7399 91.7368 61.7777 91.8265C61.8154 91.9162 61.8708 91.9975 61.9407 92.0653L64.6587 94.7893C65.0213 95.1503 65.5121 95.3529 66.0237 95.3529C66.5354 95.3529 67.0261 95.1503 67.3887 94.7893L74.8546 87.3175C74.9244 87.2497 74.9799 87.1685 75.0176 87.0787C75.0553 86.989 75.0746 86.8926 75.0742 86.7952V70.7715C75.0758 69.7095 75.4983 68.6915 76.2492 67.9406C77.0001 67.1897 78.0182 66.7671 79.0801 66.7656H86.2018C87.2637 66.7671 88.2817 67.1897 89.0327 67.9406C89.7836 68.6915 90.2061 69.7095 90.2077 70.7715V85.0148C90.2077 85.8412 90.536 86.6337 91.1203 87.218C91.7046 87.8023 92.4971 88.1306 93.3234 88.1306C94.1498 88.1306 94.9423 87.8023 95.5266 87.218C96.1109 86.6337 96.4392 85.8412 96.4392 85.0148V77.8932C96.4392 77.4603 96.6111 77.0452 96.9172 76.7391C97.2232 76.4331 97.6384 76.2611 98.0712 76.2611C98.5041 76.2611 98.9192 76.4331 99.2252 76.7391C99.5313 77.0452 99.7033 77.4603 99.7033 77.8932V90.3561C99.7029 90.4534 99.7221 90.5498 99.7598 90.6396C99.7976 90.7293 99.853 90.8105 99.9228 90.8783L104.077 95.0326C104.216 95.1711 104.404 95.249 104.599 95.249C104.795 95.249 104.983 95.1711 105.122 95.0326C105.26 94.8941 105.338 94.7063 105.338 94.5104C105.338 94.3145 105.26 94.1266 105.122 93.9881L101.187 90.0475V77.8932C101.187 77.0668 100.859 76.2743 100.274 75.69C99.69 75.1057 98.8976 74.7774 98.0712 74.7774C97.2449 74.7774 96.4524 75.1057 95.8681 75.69C95.2837 76.2743 94.9555 77.0668 94.9555 77.8932V85.0148C94.9555 85.4477 94.7835 85.8628 94.4775 86.1689C94.1714 86.4749 93.7563 86.6469 93.3234 86.6469C92.8906 86.6469 92.4755 86.4749 92.1694 86.1689C91.8633 85.8628 91.6914 85.4477 91.6914 85.0148V70.7715C91.6898 69.3161 91.1109 67.9207 90.0818 66.8915C89.0526 65.8623 87.6572 65.2835 86.2018 65.2819H79.0801C77.6247 65.2835 76.2293 65.8623 75.2001 66.8915C74.1709 67.9207 73.5921 69.3161 73.5905 70.7715V86.4866L66.3383 93.7389C66.2974 93.7808 66.2484 93.8142 66.1944 93.837C66.1404 93.8598 66.0824 93.8715 66.0237 93.8715C65.9651 93.8715 65.9071 93.8598 65.853 93.837C65.799 93.8142 65.7501 93.7808 65.7092 93.7389L63.2047 91.2344V85.0148C63.2032 84.189 62.8744 83.3974 62.2904 82.8134C61.7065 82.2294 60.9149 81.9007 60.089 81.8991H56.5282C55.7023 81.9007 54.9107 82.2294 54.3268 82.8134C53.7428 83.3974 53.414 84.189 53.4125 85.0148Z" fill="url(#paint1_linear)"/>
<path d="M88.5756 29.9703C91.5394 29.9703 94.4367 29.0915 96.901 27.4449C99.3653 25.7983 101.286 23.4579 102.42 20.7197C103.554 17.9816 103.851 14.9685 103.273 12.0617C102.695 9.15487 101.267 6.48477 99.1718 4.38906C97.076 2.29335 94.4059 0.866148 91.4991 0.287942C88.5923 -0.290263 85.5793 0.00649262 82.8411 1.14068C80.1029 2.27488 77.7625 4.19556 76.1159 6.65986C74.4693 9.12416 73.5905 12.0214 73.5905 14.9852C73.5952 18.958 75.1755 22.7668 77.9847 25.5761C80.794 28.3853 84.6028 29.9656 88.5756 29.9703ZM88.5756 1.48369C91.246 1.48369 93.8564 2.27553 96.0767 3.7591C98.297 5.24266 100.027 7.3513 101.049 9.81837C102.071 12.2854 102.339 15.0001 101.818 17.6192C101.297 20.2382 100.011 22.6439 98.1226 24.5322C96.2344 26.4204 93.8287 27.7063 91.2097 28.2272C88.5906 28.7482 85.8759 28.4808 83.4088 27.4589C80.9418 26.437 78.8331 24.7065 77.3496 22.4862C75.866 20.2659 75.0742 17.6555 75.0742 14.9852C75.0789 11.4058 76.5029 7.97438 79.0339 5.44338C81.5649 2.91238 84.9963 1.4884 88.5756 1.48369Z" fill="url(#paint2_linear)"/>
<defs>
<linearGradient id="paint0_linear" x1="55.3412" y1="20.7715" x2="55.3412" y2="100" gradientUnits="userSpaceOnUse">
<stop stop-color="#FBBD23"/>
<stop offset="1" stop-color="#FB6B22"/>
</linearGradient>
<linearGradient id="paint1_linear" x1="77.8932" y1="65.2819" x2="77.8932" y2="95.3529" gradientUnits="userSpaceOnUse">
<stop stop-color="#FBBD23"/>
<stop offset="1" stop-color="#FB6B22"/>
</linearGradient>
<linearGradient id="paint2_linear" x1="88.5756" y1="0" x2="88.5756" y2="29.9703" gradientUnits="userSpaceOnUse">
<stop stop-color="#FBBD23"/>
<stop offset="1" stop-color="#FB6B22"/>
</linearGradient>
</defs>
</svg>
