<svg width="121" height="121" viewBox="0 0 121 121" fill="none" xmlns="http://www.w3.org/2000/svg">
<path d="M96.1405 23.4121H72.1405C71.809 23.4121 71.4911 23.5438 71.2566 23.7782C71.0222 24.0126 70.8905 24.3306 70.8905 24.6621C70.8905 24.9936 71.0222 25.3116 71.2566 25.546C71.4911 25.7804 71.809 25.9121 72.1405 25.9121H93.1234L71.2567 47.7783C53.204 65.8306 56.5868 78.7866 58.0536 82.3276C58.6909 83.8824 59.5885 85.3172 60.7079 86.5703L59.9081 87.3706C58.9201 88.3565 57.6623 89.0277 56.2932 89.2994C54.9242 89.5711 53.5054 89.4313 52.2157 88.8975C47.3689 86.9105 42.996 83.9229 39.3828 80.1301C35.7696 76.3373 32.9976 71.8247 31.2479 66.8872C30.8078 65.6309 30.7301 64.2761 31.0239 62.9777C31.3177 61.6793 31.971 60.4899 32.9091 59.5454L37.1991 55.2554C39.4269 53.022 40.6781 49.9962 40.6781 46.8416C40.6781 43.687 39.4269 40.6612 37.1991 38.4278L29.6688 30.8975C27.4355 28.6692 24.4096 27.4178 21.2547 27.4178C18.0999 27.4178 15.074 28.6692 12.8407 30.8975L10.3837 33.3545C9.27419 34.4663 8.3947 35.7858 7.79549 37.2377C7.19628 38.6895 6.8891 40.2453 6.89153 41.8159C6.79721 60.6297 14.0961 78.7278 27.2162 92.2122C40.3363 105.697 58.2278 113.488 77.037 113.909C77.12 113.911 77.203 113.912 77.286 113.912C80.4006 113.887 83.3792 112.633 85.5731 110.422L88.9686 107.025C90.0736 105.921 90.9501 104.609 91.5482 103.165C92.1462 101.721 92.454 100.174 92.454 98.6116C92.454 97.049 92.1462 95.5016 91.5482 94.058C90.9501 92.6143 90.0736 91.3026 88.9686 90.1977C88.8526 90.0817 88.7148 89.9896 88.5631 89.9268C88.4115 89.864 88.249 89.8317 88.0848 89.8317C87.9207 89.8317 87.7582 89.864 87.6065 89.9268C87.4549 89.9896 87.3171 90.0817 87.2011 90.1978C87.085 90.3138 86.9929 90.4516 86.9301 90.6032C86.8673 90.7549 86.835 90.9174 86.835 91.0815C86.835 91.2457 86.8673 91.4082 86.9301 91.5598C86.9929 91.7115 87.085 91.8493 87.2011 91.9653C88.9637 93.728 89.954 96.1188 89.954 98.6116C89.954 101.104 88.9637 103.495 87.2011 105.258L83.8055 108.654C82.9305 109.543 81.8848 110.245 80.7313 110.718C79.5778 111.192 78.3404 111.427 77.0936 111.409C58.9393 111.004 41.6707 103.483 29.0075 90.4686C16.3443 77.4538 9.29984 59.9857 9.39153 41.8271C9.3884 40.583 9.63053 39.3504 10.1041 38.1999C10.5776 37.0494 11.2733 36.0036 12.1513 35.1221L14.6083 32.6651C16.3724 30.9049 18.7627 29.9163 21.2548 29.9163C23.7469 29.9163 26.1372 30.9049 27.9013 32.6651L35.4315 40.1953C37.1913 41.9595 38.1796 44.3497 38.1796 46.8415C38.1796 49.3334 37.1913 51.7236 35.4315 53.4878L31.1415 57.7778C29.8707 59.0565 28.9856 60.6672 28.5875 62.4256C28.1894 64.1839 28.2944 66.0188 28.8905 67.7202C30.7579 72.9899 33.7165 77.8062 37.5728 81.8542C41.4291 85.9022 46.0964 89.0908 51.2694 91.2114C53.0148 91.9323 54.9346 92.1202 56.7866 91.7512C58.6386 91.3822 60.3399 90.473 61.6757 89.1382L62.5331 88.2808C65.9021 90.7736 70.0154 92.0534 74.204 91.9121C77.9335 91.9121 81.081 90.1313 82.2216 87.3755C82.6273 86.4385 82.7361 85.3997 82.5334 84.3989C82.3306 83.3982 81.8261 82.4836 81.0878 81.7783C80.0164 80.8504 78.7726 80.1427 77.4276 79.6957C76.0826 79.2486 74.8512 79.1562 73.2489 79.1729C70.0319 79.2062 66.9465 80.4546 64.6112 82.6675L62.4872 84.7915C61.595 83.7766 60.8772 82.6208 60.3632 81.3711C56.2245 71.3799 64.1903 58.3804 73.0243 49.5459L94.8905 27.6802V48.6621C94.8905 48.9936 95.0222 49.3116 95.2566 49.546C95.4911 49.7804 95.809 49.9121 96.1405 49.9121C96.472 49.9121 96.79 49.7804 97.0244 49.546C97.2588 49.3116 97.3905 48.9936 97.3905 48.6621V24.6621C97.3905 24.498 97.3582 24.3354 97.2954 24.1837C97.2326 24.0321 97.1405 23.8943 97.0244 23.7782C96.9084 23.6621 96.7706 23.5701 96.6189 23.5072C96.4672 23.4444 96.3047 23.4121 96.1405 23.4121ZM66.3788 84.4351C68.2613 82.6728 70.7396 81.686 73.3183 81.6719C75.5874 81.5906 77.6406 82.1624 79.3203 83.5459C79.7081 83.902 79.974 84.3711 80.0802 84.8868C80.1865 85.4025 80.1276 85.9386 79.912 86.4189C79.2949 87.9087 77.291 89.4121 74.204 89.4121C70.6821 89.5315 67.2165 88.5046 64.3281 86.4858L66.3788 84.4351Z" fill="url(#paint0_linear_16439_187757)"/>
<defs>
<linearGradient id="paint0_linear_16439_187757" x1="52.1406" y1="23.4121" x2="52.1406" y2="113.912" gradientUnits="userSpaceOnUse">
<stop stop-color="#279BE8"/>
<stop offset="1" stop-color="#875AE0"/>
</linearGradient>
</defs>
</svg>
