<svg width="376" height="174" viewBox="0 0 376 174" fill="none" xmlns="http://www.w3.org/2000/svg">
<path d="M192.563 96.3644L190.271 91.7811H186.834L184.542 89.4894C184.542 89.4894 185.688 88.5728 186.089 87.0832C186.204 86.7394 186.605 86.5675 186.949 86.7967C187.292 87.0259 187.808 87.1977 188.495 87.1977C190.042 87.1977 191.417 86.2238 191.818 84.7342C192.449 82.4425 190.73 80.3227 188.495 80.3227C186.662 80.3227 185.516 81.4686 185.173 82.7863C185.058 83.1873 184.657 83.3592 184.313 83.13C183.855 82.8436 183.339 82.6144 182.766 82.6144C181.85 82.6144 180.99 83.0155 180.36 83.5884C180.188 83.7603 179.902 83.8175 179.73 83.703C178.469 83.0155 176.693 82.6144 174.745 82.6144C170.964 82.6144 167.87 84.1613 167.87 86.0519C167.87 87.1977 169.016 87.7707 169.016 87.7707M174.803 96.3644L177.094 91.7811H179.959C180.933 91.7811 181.678 91.0363 181.678 90.0623C181.678 89.0884 180.933 88.3436 179.959 88.3436H173.657L170.219 94.0727L165.636 96.3644M191.99 83.7602H195.428M190.959 81.354L193.365 78.9478M188.553 80.3227L179.386 71.1561M186.261 72.8748C186.261 66.5728 181.678 61.9894 170.219 61.9894C170.219 73.4477 174.803 78.0311 181.105 78.0311M183.969 35.0623H206.886M190.271 31.0519C193.709 27.6144 198.865 25.3228 204.594 25.3228C210.324 25.3228 216.053 28.1873 222.928 35.0623C216.053 41.9373 210.324 44.8019 202.876 44.8019C192.563 44.8019 195.714 33.0571 207.459 44.8019L219.49 56.8332M209.636 60.2707H233.756M195.428 68.7498L200.298 67.1457L202.704 69.5519H205.969C205.969 69.5519 205.798 68.0623 206.542 66.7446C206.714 66.4009 206.542 65.9998 206.141 65.9425C205.74 65.828 205.225 65.5988 204.709 65.1405C203.62 64.0519 203.334 62.3905 204.136 61.0728C205.339 59.0103 208.032 58.7238 209.579 60.328C210.896 61.6457 210.896 63.2498 210.152 64.453C209.923 64.7967 210.152 65.255 210.553 65.3123C211.068 65.4269 211.641 65.6561 211.985 66.0571C212.673 66.7446 212.959 67.604 213.016 68.4634C213.016 68.6925 213.188 68.9217 213.417 68.979C214.792 69.38 216.282 70.354 217.714 71.729C220.407 74.4217 221.495 77.6873 220.12 79.005C219.318 79.8071 218.115 79.4061 218.115 79.4061M207.975 81.2967L209.579 76.4269L207.574 74.4217C206.886 73.7342 206.886 72.6457 207.574 72.0155C208.261 71.328 209.35 71.328 209.98 72.0155L214.391 76.4269L212.787 82.9009L214.391 87.7707M204.709 60.2707L202.303 57.8071M207.173 59.2394V55.8019M222.298 60.2707L228.027 53.9686M226.365 63.7082L238.396 75.7394M137.506 27.6144L148.964 16.1561C151.256 13.8644 153.376 13.1769 154.235 12.8905M189.126 26.4686L178.813 16.1561C176.521 13.8644 174.402 13.1769 173.542 12.8905M169.646 43.5415L174.516 41.9373L176.923 44.3436H180.188C180.188 44.3436 180.016 42.854 180.761 41.5363C180.933 41.1925 180.761 40.7915 180.36 40.7342C179.959 40.6196 179.443 40.3905 178.928 39.9321C177.839 38.8436 177.553 37.1821 178.355 35.8644C179.558 33.8019 182.251 33.5155 183.798 35.1196C185.115 36.4373 185.115 38.0415 184.37 39.2446C184.141 39.5884 184.37 40.0467 184.771 40.104C185.287 40.2186 185.86 40.4478 186.204 40.8488C186.891 41.5363 187.178 42.3957 187.235 43.255C187.235 43.4842 187.407 43.7134 187.636 43.7707C189.011 44.1717 190.501 45.1457 191.933 46.5207C194.626 49.2134 195.714 52.479 194.339 53.7967C193.537 54.5988 192.334 54.1977 192.334 54.1977M182.193 56.0884L183.798 51.2186L181.792 49.2134C181.105 48.5259 181.105 47.4373 181.792 46.8071C182.48 46.1196 183.568 46.1196 184.199 46.8071L188.61 51.2186L187.006 57.6925L188.61 62.5623M178.928 35.0623L176.521 32.5988M181.391 34.0311V30.5936M177.667 16.1561C177.667 18.6874 171.511 20.7394 163.917 20.7394C156.323 20.7394 150.167 18.6874 150.167 16.1561C150.167 13.6248 156.323 11.5728 163.917 11.5728C171.511 11.5728 177.667 13.6248 177.667 16.1561Z" stroke="url(#paint0_linear_9075_177057)" stroke-width="2.5" stroke-miterlimit="10" stroke-linecap="round" stroke-linejoin="round"/>
<path d="M42.8125 132.797L39.6484 144H38.1094L35.8047 135.812C35.7057 135.464 35.6458 135.083 35.625 134.672H35.5938C35.5625 135.057 35.4948 135.432 35.3906 135.797L33.0703 144H31.5469L28.2656 132.797H29.7109L32.0938 141.391C32.1927 141.75 32.2552 142.125 32.2812 142.516H32.3203C32.3464 142.24 32.4271 141.865 32.5625 141.391L35.0391 132.797H36.2969L38.6719 141.453C38.7552 141.75 38.8177 142.099 38.8594 142.5H38.8906C38.9115 142.229 38.9818 141.87 39.1016 141.422L41.3906 132.797H42.8125ZM50.9531 144H49.6719V139.391C49.6719 137.724 49.0521 136.891 47.8125 136.891C47.1875 136.891 46.6615 137.133 46.2344 137.617C45.8073 138.096 45.5938 138.714 45.5938 139.469V144H44.3125V132.156H45.5938V137.328H45.625C46.2396 136.318 47.1146 135.812 48.25 135.812C50.0521 135.812 50.9531 136.898 50.9531 139.07V144ZM59.8047 140.32H54.1562C54.1771 141.211 54.4167 141.898 54.875 142.383C55.3333 142.867 55.9635 143.109 56.7656 143.109C57.6667 143.109 58.4948 142.812 59.25 142.219V143.422C58.5469 143.932 57.6172 144.188 56.4609 144.188C55.3307 144.188 54.4427 143.826 53.7969 143.102C53.151 142.372 52.8281 141.349 52.8281 140.031C52.8281 138.786 53.1797 137.773 53.8828 136.992C54.5911 136.206 55.4688 135.812 56.5156 135.812C57.5625 135.812 58.3724 136.151 58.9453 136.828C59.5182 137.505 59.8047 138.445 59.8047 139.648V140.32ZM58.4922 139.234C58.487 138.495 58.3073 137.919 57.9531 137.508C57.6042 137.096 57.1172 136.891 56.4922 136.891C55.888 136.891 55.375 137.107 54.9531 137.539C54.5312 137.971 54.2708 138.536 54.1719 139.234H58.4922ZM68.3906 144H67.1094V139.438C67.1094 137.74 66.4896 136.891 65.25 136.891C64.6094 136.891 64.0781 137.133 63.6562 137.617C63.2396 138.096 63.0312 138.703 63.0312 139.438V144H61.75V136H63.0312V137.328H63.0625C63.6667 136.318 64.5417 135.812 65.6875 135.812C66.5625 135.812 67.2318 136.096 67.6953 136.664C68.1589 137.227 68.3906 138.042 68.3906 139.109V144ZM81.5703 136L77.8906 145.281C77.2344 146.938 76.3125 147.766 75.125 147.766C74.7917 147.766 74.513 147.732 74.2891 147.664V146.516C74.5651 146.609 74.8177 146.656 75.0469 146.656C75.6927 146.656 76.1771 146.271 76.5 145.5L77.1406 143.984L74.0156 136H75.4375L77.6016 142.156C77.6276 142.234 77.6823 142.438 77.7656 142.766H77.8125C77.8385 142.641 77.8906 142.443 77.9688 142.172L80.2422 136H81.5703ZM86.2188 144.188C85.0365 144.188 84.0911 143.815 83.3828 143.07C82.6797 142.32 82.3281 141.328 82.3281 140.094C82.3281 138.75 82.6953 137.701 83.4297 136.945C84.1641 136.19 85.1562 135.812 86.4062 135.812C87.599 135.812 88.5286 136.18 89.1953 136.914C89.8672 137.648 90.2031 138.667 90.2031 139.969C90.2031 141.245 89.8411 142.268 89.1172 143.039C88.3984 143.805 87.4323 144.188 86.2188 144.188ZM86.3125 136.891C85.4896 136.891 84.8385 137.172 84.3594 137.734C83.8802 138.292 83.6406 139.062 83.6406 140.047C83.6406 140.995 83.8828 141.742 84.3672 142.289C84.8516 142.836 85.5 143.109 86.3125 143.109C87.1406 143.109 87.776 142.841 88.2188 142.305C88.6667 141.768 88.8906 141.005 88.8906 140.016C88.8906 139.016 88.6667 138.245 88.2188 137.703C87.776 137.161 87.1406 136.891 86.3125 136.891ZM98.7188 144H97.4375V142.734H97.4062C96.875 143.703 96.0521 144.188 94.9375 144.188C93.0312 144.188 92.0781 143.052 92.0781 140.781V136H93.3516V140.578C93.3516 142.266 93.9974 143.109 95.2891 143.109C95.9141 143.109 96.4271 142.88 96.8281 142.422C97.2344 141.958 97.4375 141.354 97.4375 140.609V136H98.7188V144ZM105.219 143.711V142.336C105.844 142.852 106.536 143.109 107.297 143.109C108.312 143.109 108.82 142.734 108.82 141.984C108.82 141.672 108.708 141.414 108.484 141.211C108.26 141.008 107.823 140.766 107.172 140.484C106.406 140.146 105.891 139.799 105.625 139.445C105.365 139.086 105.234 138.646 105.234 138.125C105.234 137.458 105.497 136.906 106.023 136.469C106.549 136.031 107.227 135.812 108.055 135.812C108.69 135.812 109.26 135.932 109.766 136.172V137.469C109.24 137.083 108.635 136.891 107.953 136.891C107.526 136.891 107.185 136.995 106.93 137.203C106.674 137.411 106.547 137.682 106.547 138.016C106.547 138.339 106.638 138.599 106.82 138.797C107.008 138.995 107.424 139.229 108.07 139.5C108.857 139.833 109.396 140.182 109.688 140.547C109.984 140.911 110.133 141.349 110.133 141.859C110.133 142.542 109.87 143.102 109.344 143.539C108.818 143.971 108.104 144.188 107.203 144.188C106.443 144.188 105.781 144.029 105.219 143.711ZM117.531 143.633C116.917 144.003 116.188 144.188 115.344 144.188C114.203 144.188 113.281 143.818 112.578 143.078C111.88 142.333 111.531 141.37 111.531 140.188C111.531 138.87 111.909 137.812 112.664 137.016C113.419 136.214 114.427 135.812 115.688 135.812C116.391 135.812 117.01 135.943 117.547 136.203V137.516C116.953 137.099 116.318 136.891 115.641 136.891C114.823 136.891 114.151 137.185 113.625 137.773C113.104 138.357 112.844 139.125 112.844 140.078C112.844 141.016 113.089 141.755 113.578 142.297C114.073 142.839 114.734 143.109 115.562 143.109C116.26 143.109 116.917 142.878 117.531 142.414V143.633ZM126.109 144H124.828V139.391C124.828 137.724 124.208 136.891 122.969 136.891C122.344 136.891 121.818 137.133 121.391 137.617C120.964 138.096 120.75 138.714 120.75 139.469V144H119.469V132.156H120.75V137.328H120.781C121.396 136.318 122.271 135.812 123.406 135.812C125.208 135.812 126.109 136.898 126.109 139.07V144ZM134.961 140.32H129.312C129.333 141.211 129.573 141.898 130.031 142.383C130.49 142.867 131.12 143.109 131.922 143.109C132.823 143.109 133.651 142.812 134.406 142.219V143.422C133.703 143.932 132.773 144.188 131.617 144.188C130.487 144.188 129.599 143.826 128.953 143.102C128.307 142.372 127.984 141.349 127.984 140.031C127.984 138.786 128.336 137.773 129.039 136.992C129.747 136.206 130.625 135.812 131.672 135.812C132.719 135.812 133.529 136.151 134.102 136.828C134.674 137.505 134.961 138.445 134.961 139.648V140.32ZM133.648 139.234C133.643 138.495 133.464 137.919 133.109 137.508C132.76 137.096 132.273 136.891 131.648 136.891C131.044 136.891 130.531 137.107 130.109 137.539C129.688 137.971 129.427 138.536 129.328 139.234H133.648ZM143.734 144H142.453V142.641H142.422C141.828 143.672 140.911 144.188 139.672 144.188C138.667 144.188 137.862 143.831 137.258 143.117C136.659 142.398 136.359 141.422 136.359 140.188C136.359 138.865 136.693 137.805 137.359 137.008C138.026 136.211 138.914 135.812 140.023 135.812C141.122 135.812 141.922 136.245 142.422 137.109H142.453V132.156H143.734V144ZM142.453 140.383V139.203C142.453 138.557 142.24 138.01 141.812 137.562C141.385 137.115 140.844 136.891 140.188 136.891C139.406 136.891 138.792 137.177 138.344 137.75C137.896 138.323 137.672 139.115 137.672 140.125C137.672 141.047 137.885 141.776 138.312 142.312C138.745 142.844 139.323 143.109 140.047 143.109C140.76 143.109 141.339 142.852 141.781 142.336C142.229 141.82 142.453 141.169 142.453 140.383ZM152.797 144H151.516V142.734H151.484C150.953 143.703 150.13 144.188 149.016 144.188C147.109 144.188 146.156 143.052 146.156 140.781V136H147.43V140.578C147.43 142.266 148.076 143.109 149.367 143.109C149.992 143.109 150.505 142.88 150.906 142.422C151.312 141.958 151.516 141.354 151.516 140.609V136H152.797V144ZM156.672 144H155.391V132.156H156.672V144ZM165.695 140.32H160.047C160.068 141.211 160.307 141.898 160.766 142.383C161.224 142.867 161.854 143.109 162.656 143.109C163.557 143.109 164.385 142.812 165.141 142.219V143.422C164.438 143.932 163.508 144.188 162.352 144.188C161.221 144.188 160.333 143.826 159.688 143.102C159.042 142.372 158.719 141.349 158.719 140.031C158.719 138.786 159.07 137.773 159.773 136.992C160.482 136.206 161.359 135.812 162.406 135.812C163.453 135.812 164.263 136.151 164.836 136.828C165.409 137.505 165.695 138.445 165.695 139.648V140.32ZM164.383 139.234C164.378 138.495 164.198 137.919 163.844 137.508C163.495 137.096 163.008 136.891 162.383 136.891C161.779 136.891 161.266 137.107 160.844 137.539C160.422 137.971 160.161 138.536 160.062 139.234H164.383ZM175.375 144.188C174.193 144.188 173.247 143.815 172.539 143.07C171.836 142.32 171.484 141.328 171.484 140.094C171.484 138.75 171.852 137.701 172.586 136.945C173.32 136.19 174.312 135.812 175.562 135.812C176.755 135.812 177.685 136.18 178.352 136.914C179.023 137.648 179.359 138.667 179.359 139.969C179.359 141.245 178.997 142.268 178.273 143.039C177.555 143.805 176.589 144.188 175.375 144.188ZM175.469 136.891C174.646 136.891 173.995 137.172 173.516 137.734C173.036 138.292 172.797 139.062 172.797 140.047C172.797 140.995 173.039 141.742 173.523 142.289C174.008 142.836 174.656 143.109 175.469 143.109C176.297 143.109 176.932 142.841 177.375 142.305C177.823 141.768 178.047 141.005 178.047 140.016C178.047 139.016 177.823 138.245 177.375 137.703C176.932 137.161 176.297 136.891 175.469 136.891ZM185.578 137.297C185.354 137.125 185.031 137.039 184.609 137.039C184.062 137.039 183.604 137.297 183.234 137.812C182.87 138.328 182.688 139.031 182.688 139.922V144H181.406V136H182.688V137.648H182.719C182.901 137.086 183.18 136.648 183.555 136.336C183.93 136.018 184.349 135.859 184.812 135.859C185.146 135.859 185.401 135.896 185.578 135.969V137.297ZM197.086 144H195.805V142.75H195.773C195.216 143.708 194.396 144.188 193.312 144.188C192.516 144.188 191.891 143.977 191.438 143.555C190.99 143.133 190.766 142.573 190.766 141.875C190.766 140.38 191.646 139.51 193.406 139.266L195.805 138.93C195.805 137.57 195.255 136.891 194.156 136.891C193.193 136.891 192.323 137.219 191.547 137.875V136.562C192.333 136.062 193.24 135.812 194.266 135.812C196.146 135.812 197.086 136.807 197.086 138.797V144ZM195.805 139.953L193.875 140.219C193.281 140.302 192.833 140.451 192.531 140.664C192.229 140.872 192.078 141.245 192.078 141.781C192.078 142.172 192.216 142.492 192.492 142.742C192.773 142.987 193.146 143.109 193.609 143.109C194.245 143.109 194.768 142.888 195.18 142.445C195.596 141.997 195.805 141.432 195.805 140.75V139.953ZM203.672 137.297C203.448 137.125 203.125 137.039 202.703 137.039C202.156 137.039 201.698 137.297 201.328 137.812C200.964 138.328 200.781 139.031 200.781 139.922V144H199.5V136H200.781V137.648H200.812C200.995 137.086 201.273 136.648 201.648 136.336C202.023 136.018 202.443 135.859 202.906 135.859C203.24 135.859 203.495 135.896 203.672 135.969V137.297ZM211.273 140.32H205.625C205.646 141.211 205.885 141.898 206.344 142.383C206.802 142.867 207.432 143.109 208.234 143.109C209.135 143.109 209.964 142.812 210.719 142.219V143.422C210.016 143.932 209.086 144.188 207.93 144.188C206.799 144.188 205.911 143.826 205.266 143.102C204.62 142.372 204.297 141.349 204.297 140.031C204.297 138.786 204.648 137.773 205.352 136.992C206.06 136.206 206.938 135.812 207.984 135.812C209.031 135.812 209.841 136.151 210.414 136.828C210.987 137.505 211.273 138.445 211.273 139.648V140.32ZM209.961 139.234C209.956 138.495 209.776 137.919 209.422 137.508C209.073 137.096 208.586 136.891 207.961 136.891C207.357 136.891 206.844 137.107 206.422 137.539C206 137.971 205.74 138.536 205.641 139.234H209.961ZM218.266 133.969C218.036 133.969 217.841 133.891 217.68 133.734C217.518 133.578 217.438 133.38 217.438 133.141C217.438 132.901 217.518 132.703 217.68 132.547C217.841 132.385 218.036 132.305 218.266 132.305C218.5 132.305 218.698 132.385 218.859 132.547C219.026 132.703 219.109 132.901 219.109 133.141C219.109 133.37 219.026 133.565 218.859 133.727C218.698 133.888 218.5 133.969 218.266 133.969ZM218.891 144H217.609V136H218.891V144ZM228.125 144H226.844V139.438C226.844 137.74 226.224 136.891 224.984 136.891C224.344 136.891 223.812 137.133 223.391 137.617C222.974 138.096 222.766 138.703 222.766 139.438V144H221.484V136H222.766V137.328H222.797C223.401 136.318 224.276 135.812 225.422 135.812C226.297 135.812 226.966 136.096 227.43 136.664C227.893 137.227 228.125 138.042 228.125 139.109V144ZM236.836 136L233.648 144H232.391L229.359 136H230.766L232.797 141.812C232.948 142.24 233.042 142.612 233.078 142.93H233.109C233.161 142.529 233.245 142.167 233.359 141.844L235.484 136H236.836ZM238.875 133.969C238.646 133.969 238.451 133.891 238.289 133.734C238.128 133.578 238.047 133.38 238.047 133.141C238.047 132.901 238.128 132.703 238.289 132.547C238.451 132.385 238.646 132.305 238.875 132.305C239.109 132.305 239.307 132.385 239.469 132.547C239.635 132.703 239.719 132.901 239.719 133.141C239.719 133.37 239.635 133.565 239.469 133.727C239.307 133.888 239.109 133.969 238.875 133.969ZM239.5 144H238.219V136H239.5V144ZM245.805 143.922C245.503 144.089 245.104 144.172 244.609 144.172C243.208 144.172 242.508 143.391 242.508 141.828V137.094H241.133V136H242.508V134.047L243.789 133.633V136H245.805V137.094H243.789V141.602C243.789 142.138 243.88 142.521 244.062 142.75C244.245 142.979 244.547 143.094 244.969 143.094C245.292 143.094 245.57 143.005 245.805 142.828V143.922ZM253.82 140.32H248.172C248.193 141.211 248.432 141.898 248.891 142.383C249.349 142.867 249.979 143.109 250.781 143.109C251.682 143.109 252.51 142.812 253.266 142.219V143.422C252.562 143.932 251.633 144.188 250.477 144.188C249.346 144.188 248.458 143.826 247.812 143.102C247.167 142.372 246.844 141.349 246.844 140.031C246.844 138.786 247.195 137.773 247.898 136.992C248.607 136.206 249.484 135.812 250.531 135.812C251.578 135.812 252.388 136.151 252.961 136.828C253.534 137.505 253.82 138.445 253.82 139.648V140.32ZM252.508 139.234C252.503 138.495 252.323 137.919 251.969 137.508C251.62 137.096 251.133 136.891 250.508 136.891C249.904 136.891 249.391 137.107 248.969 137.539C248.547 137.971 248.286 138.536 248.188 139.234H252.508ZM262.594 144H261.312V142.641H261.281C260.688 143.672 259.771 144.188 258.531 144.188C257.526 144.188 256.721 143.831 256.117 143.117C255.518 142.398 255.219 141.422 255.219 140.188C255.219 138.865 255.552 137.805 256.219 137.008C256.885 136.211 257.773 135.812 258.883 135.812C259.982 135.812 260.781 136.245 261.281 137.109H261.312V132.156H262.594V144ZM261.312 140.383V139.203C261.312 138.557 261.099 138.01 260.672 137.562C260.245 137.115 259.703 136.891 259.047 136.891C258.266 136.891 257.651 137.177 257.203 137.75C256.755 138.323 256.531 139.115 256.531 140.125C256.531 141.047 256.745 141.776 257.172 142.312C257.604 142.844 258.182 143.109 258.906 143.109C259.62 143.109 260.198 142.852 260.641 142.336C261.089 141.82 261.312 141.169 261.312 140.383ZM273.289 143.922C272.987 144.089 272.589 144.172 272.094 144.172C270.693 144.172 269.992 143.391 269.992 141.828V137.094H268.617V136H269.992V134.047L271.273 133.633V136H273.289V137.094H271.273V141.602C271.273 142.138 271.365 142.521 271.547 142.75C271.729 142.979 272.031 143.094 272.453 143.094C272.776 143.094 273.055 143.005 273.289 142.828V143.922ZM278.219 144.188C277.036 144.188 276.091 143.815 275.383 143.07C274.68 142.32 274.328 141.328 274.328 140.094C274.328 138.75 274.695 137.701 275.43 136.945C276.164 136.19 277.156 135.812 278.406 135.812C279.599 135.812 280.529 136.18 281.195 136.914C281.867 137.648 282.203 138.667 282.203 139.969C282.203 141.245 281.841 142.268 281.117 143.039C280.398 143.805 279.432 144.188 278.219 144.188ZM278.312 136.891C277.49 136.891 276.839 137.172 276.359 137.734C275.88 138.292 275.641 139.062 275.641 140.047C275.641 140.995 275.883 141.742 276.367 142.289C276.852 142.836 277.5 143.109 278.312 143.109C279.141 143.109 279.776 142.841 280.219 142.305C280.667 141.768 280.891 141.005 280.891 140.016C280.891 139.016 280.667 138.245 280.219 137.703C279.776 137.161 279.141 136.891 278.312 136.891ZM294.367 144H293.086V142.75H293.055C292.497 143.708 291.677 144.188 290.594 144.188C289.797 144.188 289.172 143.977 288.719 143.555C288.271 143.133 288.047 142.573 288.047 141.875C288.047 140.38 288.927 139.51 290.688 139.266L293.086 138.93C293.086 137.57 292.536 136.891 291.438 136.891C290.474 136.891 289.604 137.219 288.828 137.875V136.562C289.615 136.062 290.521 135.812 291.547 135.812C293.427 135.812 294.367 136.807 294.367 138.797V144ZM293.086 139.953L291.156 140.219C290.562 140.302 290.115 140.451 289.812 140.664C289.51 140.872 289.359 141.245 289.359 141.781C289.359 142.172 289.497 142.492 289.773 142.742C290.055 142.987 290.427 143.109 290.891 143.109C291.526 143.109 292.049 142.888 292.461 142.445C292.878 141.997 293.086 141.432 293.086 140.75V139.953ZM314.625 132.797L311.461 144H309.922L307.617 135.812C307.518 135.464 307.458 135.083 307.438 134.672H307.406C307.375 135.057 307.307 135.432 307.203 135.797L304.883 144H303.359L300.078 132.797H301.523L303.906 141.391C304.005 141.75 304.068 142.125 304.094 142.516H304.133C304.159 142.24 304.24 141.865 304.375 141.391L306.852 132.797H308.109L310.484 141.453C310.568 141.75 310.63 142.099 310.672 142.5H310.703C310.724 142.229 310.794 141.87 310.914 141.422L313.203 132.797H314.625ZM322.164 140.32H316.516C316.536 141.211 316.776 141.898 317.234 142.383C317.693 142.867 318.323 143.109 319.125 143.109C320.026 143.109 320.854 142.812 321.609 142.219V143.422C320.906 143.932 319.977 144.188 318.82 144.188C317.69 144.188 316.802 143.826 316.156 143.102C315.51 142.372 315.188 141.349 315.188 140.031C315.188 138.786 315.539 137.773 316.242 136.992C316.951 136.206 317.828 135.812 318.875 135.812C319.922 135.812 320.732 136.151 321.305 136.828C321.878 137.505 322.164 138.445 322.164 139.648V140.32ZM320.852 139.234C320.846 138.495 320.667 137.919 320.312 137.508C319.964 137.096 319.477 136.891 318.852 136.891C318.247 136.891 317.734 137.107 317.312 137.539C316.891 137.971 316.63 138.536 316.531 139.234H320.852ZM325.422 142.844H325.391V144H324.109V132.156H325.391V137.406H325.422C326.052 136.344 326.974 135.812 328.188 135.812C329.214 135.812 330.016 136.172 330.594 136.891C331.177 137.604 331.469 138.562 331.469 139.766C331.469 141.104 331.143 142.177 330.492 142.984C329.841 143.786 328.951 144.188 327.82 144.188C326.763 144.188 325.964 143.74 325.422 142.844ZM325.391 139.617V140.734C325.391 141.396 325.604 141.958 326.031 142.422C326.464 142.88 327.01 143.109 327.672 143.109C328.448 143.109 329.055 142.812 329.492 142.219C329.935 141.625 330.156 140.799 330.156 139.742C330.156 138.852 329.951 138.154 329.539 137.648C329.128 137.143 328.57 136.891 327.867 136.891C327.122 136.891 326.523 137.151 326.07 137.672C325.617 138.188 325.391 138.836 325.391 139.617ZM339.945 140.32H334.297C334.318 141.211 334.557 141.898 335.016 142.383C335.474 142.867 336.104 143.109 336.906 143.109C337.807 143.109 338.635 142.812 339.391 142.219V143.422C338.688 143.932 337.758 144.188 336.602 144.188C335.471 144.188 334.583 143.826 333.938 143.102C333.292 142.372 332.969 141.349 332.969 140.031C332.969 138.786 333.32 137.773 334.023 136.992C334.732 136.206 335.609 135.812 336.656 135.812C337.703 135.812 338.513 136.151 339.086 136.828C339.659 137.505 339.945 138.445 339.945 139.648V140.32ZM338.633 139.234C338.628 138.495 338.448 137.919 338.094 137.508C337.745 137.096 337.258 136.891 336.633 136.891C336.029 136.891 335.516 137.107 335.094 137.539C334.672 137.971 334.411 138.536 334.312 139.234H338.633ZM347.734 136L345.047 140.047L347.688 144H346.195L344.625 141.406C344.526 141.245 344.409 141.042 344.273 140.797H344.242C344.216 140.844 344.094 141.047 343.875 141.406L342.273 144H340.797L343.523 140.078L340.914 136H342.406L343.953 138.734C344.068 138.938 344.18 139.146 344.289 139.359H344.32L346.32 136H347.734ZM105.891 168H104.609V163.406C104.609 162.521 104.471 161.88 104.195 161.484C103.924 161.089 103.466 160.891 102.82 160.891C102.273 160.891 101.807 161.141 101.422 161.641C101.042 162.141 100.852 162.74 100.852 163.438V168H99.5703V163.25C99.5703 161.677 98.9635 160.891 97.75 160.891C97.1875 160.891 96.724 161.128 96.3594 161.602C95.9948 162.07 95.8125 162.682 95.8125 163.438V168H94.5312V160H95.8125V161.266H95.8438C96.4115 160.297 97.2396 159.812 98.3281 159.812C98.875 159.812 99.3516 159.966 99.7578 160.273C100.164 160.576 100.443 160.974 100.594 161.469C101.188 160.365 102.073 159.812 103.25 159.812C105.01 159.812 105.891 160.898 105.891 163.07V168ZM114.742 164.32H109.094C109.115 165.211 109.354 165.898 109.812 166.383C110.271 166.867 110.901 167.109 111.703 167.109C112.604 167.109 113.432 166.812 114.188 166.219V167.422C113.484 167.932 112.555 168.188 111.398 168.188C110.268 168.188 109.38 167.826 108.734 167.102C108.089 166.372 107.766 165.349 107.766 164.031C107.766 162.786 108.117 161.773 108.82 160.992C109.529 160.206 110.406 159.812 111.453 159.812C112.5 159.812 113.31 160.151 113.883 160.828C114.456 161.505 114.742 162.445 114.742 163.648V164.32ZM113.43 163.234C113.424 162.495 113.245 161.919 112.891 161.508C112.542 161.096 112.055 160.891 111.43 160.891C110.826 160.891 110.312 161.107 109.891 161.539C109.469 161.971 109.208 162.536 109.109 163.234H113.43ZM123.117 164.32H117.469C117.49 165.211 117.729 165.898 118.188 166.383C118.646 166.867 119.276 167.109 120.078 167.109C120.979 167.109 121.807 166.812 122.562 166.219V167.422C121.859 167.932 120.93 168.188 119.773 168.188C118.643 168.188 117.755 167.826 117.109 167.102C116.464 166.372 116.141 165.349 116.141 164.031C116.141 162.786 116.492 161.773 117.195 160.992C117.904 160.206 118.781 159.812 119.828 159.812C120.875 159.812 121.685 160.151 122.258 160.828C122.831 161.505 123.117 162.445 123.117 163.648V164.32ZM121.805 163.234C121.799 162.495 121.62 161.919 121.266 161.508C120.917 161.096 120.43 160.891 119.805 160.891C119.201 160.891 118.688 161.107 118.266 161.539C117.844 161.971 117.583 162.536 117.484 163.234H121.805ZM128.773 167.922C128.471 168.089 128.073 168.172 127.578 168.172C126.177 168.172 125.477 167.391 125.477 165.828V161.094H124.102V160H125.477V158.047L126.758 157.633V160H128.773V161.094H126.758V165.602C126.758 166.138 126.849 166.521 127.031 166.75C127.214 166.979 127.516 167.094 127.938 167.094C128.26 167.094 128.539 167.005 128.773 166.828V167.922ZM131.141 157.969C130.911 157.969 130.716 157.891 130.555 157.734C130.393 157.578 130.312 157.38 130.312 157.141C130.312 156.901 130.393 156.703 130.555 156.547C130.716 156.385 130.911 156.305 131.141 156.305C131.375 156.305 131.573 156.385 131.734 156.547C131.901 156.703 131.984 156.901 131.984 157.141C131.984 157.37 131.901 157.565 131.734 157.727C131.573 157.888 131.375 157.969 131.141 157.969ZM131.766 168H130.484V160H131.766V168ZM141 168H139.719V163.438C139.719 161.74 139.099 160.891 137.859 160.891C137.219 160.891 136.688 161.133 136.266 161.617C135.849 162.096 135.641 162.703 135.641 163.438V168H134.359V160H135.641V161.328H135.672C136.276 160.318 137.151 159.812 138.297 159.812C139.172 159.812 139.841 160.096 140.305 160.664C140.768 161.227 141 162.042 141 163.109V168ZM150.25 167.359C150.25 170.297 148.844 171.766 146.031 171.766C145.042 171.766 144.177 171.578 143.438 171.203V169.922C144.339 170.422 145.198 170.672 146.016 170.672C147.984 170.672 148.969 169.625 148.969 167.531V166.656H148.938C148.328 167.677 147.411 168.188 146.188 168.188C145.193 168.188 144.391 167.833 143.781 167.125C143.177 166.411 142.875 165.456 142.875 164.258C142.875 162.898 143.201 161.818 143.852 161.016C144.508 160.214 145.404 159.812 146.539 159.812C147.617 159.812 148.417 160.245 148.938 161.109H148.969V160H150.25V167.359ZM148.969 164.383V163.203C148.969 162.568 148.753 162.023 148.32 161.57C147.893 161.117 147.359 160.891 146.719 160.891C145.927 160.891 145.307 161.18 144.859 161.758C144.411 162.331 144.188 163.135 144.188 164.172C144.188 165.062 144.401 165.776 144.828 166.312C145.26 166.844 145.831 167.109 146.539 167.109C147.258 167.109 147.841 166.854 148.289 166.344C148.742 165.833 148.969 165.18 148.969 164.383ZM154.016 166.219L152.766 170.062H151.852L152.766 166.219H154.016ZM161.359 157.969C161.13 157.969 160.935 157.891 160.773 157.734C160.612 157.578 160.531 157.38 160.531 157.141C160.531 156.901 160.612 156.703 160.773 156.547C160.935 156.385 161.13 156.305 161.359 156.305C161.594 156.305 161.792 156.385 161.953 156.547C162.12 156.703 162.203 156.901 162.203 157.141C162.203 157.37 162.12 157.565 161.953 157.727C161.792 157.888 161.594 157.969 161.359 157.969ZM161.984 168H160.703V160H161.984V168ZM168.289 167.922C167.987 168.089 167.589 168.172 167.094 168.172C165.693 168.172 164.992 167.391 164.992 165.828V161.094H163.617V160H164.992V158.047L166.273 157.633V160H168.289V161.094H166.273V165.602C166.273 166.138 166.365 166.521 166.547 166.75C166.729 166.979 167.031 167.094 167.453 167.094C167.776 167.094 168.055 167.005 168.289 166.828V167.922ZM171.578 156.609L170.484 160.094H169.562L170.43 156.609H171.578ZM174.953 168H173.672V156.156H174.953V168ZM178.828 168H177.547V156.156H178.828V168ZM185.328 167.711V166.336C185.953 166.852 186.646 167.109 187.406 167.109C188.422 167.109 188.93 166.734 188.93 165.984C188.93 165.672 188.818 165.414 188.594 165.211C188.37 165.008 187.932 164.766 187.281 164.484C186.516 164.146 186 163.799 185.734 163.445C185.474 163.086 185.344 162.646 185.344 162.125C185.344 161.458 185.607 160.906 186.133 160.469C186.659 160.031 187.336 159.812 188.164 159.812C188.799 159.812 189.37 159.932 189.875 160.172V161.469C189.349 161.083 188.745 160.891 188.062 160.891C187.635 160.891 187.294 160.995 187.039 161.203C186.784 161.411 186.656 161.682 186.656 162.016C186.656 162.339 186.747 162.599 186.93 162.797C187.117 162.995 187.534 163.229 188.18 163.5C188.966 163.833 189.505 164.182 189.797 164.547C190.094 164.911 190.242 165.349 190.242 165.859C190.242 166.542 189.979 167.102 189.453 167.539C188.927 167.971 188.214 168.188 187.312 168.188C186.552 168.188 185.891 168.029 185.328 167.711ZM198.828 168H197.547V163.391C197.547 161.724 196.927 160.891 195.688 160.891C195.062 160.891 194.536 161.133 194.109 161.617C193.682 162.096 193.469 162.714 193.469 163.469V168H192.188V156.156H193.469V161.328H193.5C194.115 160.318 194.99 159.812 196.125 159.812C197.927 159.812 198.828 160.898 198.828 163.07V168ZM204.594 168.188C203.411 168.188 202.466 167.815 201.758 167.07C201.055 166.32 200.703 165.328 200.703 164.094C200.703 162.75 201.07 161.701 201.805 160.945C202.539 160.19 203.531 159.812 204.781 159.812C205.974 159.812 206.904 160.18 207.57 160.914C208.242 161.648 208.578 162.667 208.578 163.969C208.578 165.245 208.216 166.268 207.492 167.039C206.773 167.805 205.807 168.188 204.594 168.188ZM204.688 160.891C203.865 160.891 203.214 161.172 202.734 161.734C202.255 162.292 202.016 163.062 202.016 164.047C202.016 164.995 202.258 165.742 202.742 166.289C203.227 166.836 203.875 167.109 204.688 167.109C205.516 167.109 206.151 166.841 206.594 166.305C207.042 165.768 207.266 165.005 207.266 164.016C207.266 163.016 207.042 162.245 206.594 161.703C206.151 161.161 205.516 160.891 204.688 160.891ZM220.703 160L218.305 168H216.977L215.328 162.273C215.266 162.055 215.224 161.807 215.203 161.531H215.172C215.156 161.719 215.102 161.961 215.008 162.258L213.219 168H211.938L209.516 160H210.859L212.516 166.016C212.568 166.198 212.604 166.438 212.625 166.734H212.688C212.703 166.505 212.75 166.26 212.828 166L214.672 160H215.844L217.5 166.031C217.552 166.224 217.591 166.464 217.617 166.75H217.68C217.69 166.547 217.734 166.307 217.812 166.031L219.438 160H220.703ZM233.047 168H231.766V166.734H231.734C231.203 167.703 230.38 168.188 229.266 168.188C227.359 168.188 226.406 167.052 226.406 164.781V160H227.68V164.578C227.68 166.266 228.326 167.109 229.617 167.109C230.242 167.109 230.755 166.88 231.156 166.422C231.562 165.958 231.766 165.354 231.766 164.609V160H233.047V168ZM236.953 166.844H236.922V171.68H235.641V160H236.922V161.406H236.953C237.583 160.344 238.505 159.812 239.719 159.812C240.75 159.812 241.555 160.172 242.133 160.891C242.711 161.604 243 162.562 243 163.766C243 165.104 242.674 166.177 242.023 166.984C241.372 167.786 240.482 168.188 239.352 168.188C238.315 168.188 237.516 167.74 236.953 166.844ZM236.922 163.617V164.734C236.922 165.396 237.135 165.958 237.562 166.422C237.995 166.88 238.542 167.109 239.203 167.109C239.979 167.109 240.586 166.812 241.023 166.219C241.466 165.625 241.688 164.799 241.688 163.742C241.688 162.852 241.482 162.154 241.07 161.648C240.659 161.143 240.102 160.891 239.398 160.891C238.654 160.891 238.055 161.151 237.602 161.672C237.148 162.188 236.922 162.836 236.922 163.617ZM256.078 168H254.797V163.391C254.797 161.724 254.177 160.891 252.938 160.891C252.312 160.891 251.786 161.133 251.359 161.617C250.932 162.096 250.719 162.714 250.719 163.469V168H249.438V156.156H250.719V161.328H250.75C251.365 160.318 252.24 159.812 253.375 159.812C255.177 159.812 256.078 160.898 256.078 163.07V168ZM264.93 164.32H259.281C259.302 165.211 259.542 165.898 260 166.383C260.458 166.867 261.089 167.109 261.891 167.109C262.792 167.109 263.62 166.812 264.375 166.219V167.422C263.672 167.932 262.742 168.188 261.586 168.188C260.456 168.188 259.568 167.826 258.922 167.102C258.276 166.372 257.953 165.349 257.953 164.031C257.953 162.786 258.305 161.773 259.008 160.992C259.716 160.206 260.594 159.812 261.641 159.812C262.688 159.812 263.497 160.151 264.07 160.828C264.643 161.505 264.93 162.445 264.93 163.648V164.32ZM263.617 163.234C263.612 162.495 263.432 161.919 263.078 161.508C262.729 161.096 262.242 160.891 261.617 160.891C261.013 160.891 260.5 161.107 260.078 161.539C259.656 161.971 259.396 162.536 259.297 163.234H263.617ZM271.047 161.297C270.823 161.125 270.5 161.039 270.078 161.039C269.531 161.039 269.073 161.297 268.703 161.812C268.339 162.328 268.156 163.031 268.156 163.922V168H266.875V160H268.156V161.648H268.188C268.37 161.086 268.648 160.648 269.023 160.336C269.398 160.018 269.818 159.859 270.281 159.859C270.615 159.859 270.87 159.896 271.047 159.969V161.297ZM278.648 164.32H273C273.021 165.211 273.26 165.898 273.719 166.383C274.177 166.867 274.807 167.109 275.609 167.109C276.51 167.109 277.339 166.812 278.094 166.219V167.422C277.391 167.932 276.461 168.188 275.305 168.188C274.174 168.188 273.286 167.826 272.641 167.102C271.995 166.372 271.672 165.349 271.672 164.031C271.672 162.786 272.023 161.773 272.727 160.992C273.435 160.206 274.312 159.812 275.359 159.812C276.406 159.812 277.216 160.151 277.789 160.828C278.362 161.505 278.648 162.445 278.648 163.648V164.32ZM277.336 163.234C277.331 162.495 277.151 161.919 276.797 161.508C276.448 161.096 275.961 160.891 275.336 160.891C274.732 160.891 274.219 161.107 273.797 161.539C273.375 161.971 273.115 162.536 273.016 163.234H277.336ZM281.039 168.172C280.799 168.172 280.594 168.086 280.422 167.914C280.255 167.742 280.172 167.536 280.172 167.297C280.172 167.057 280.255 166.852 280.422 166.68C280.594 166.503 280.799 166.414 281.039 166.414C281.284 166.414 281.492 166.503 281.664 166.68C281.836 166.852 281.922 167.057 281.922 167.297C281.922 167.536 281.836 167.742 281.664 167.914C281.492 168.086 281.284 168.172 281.039 168.172Z" fill="#B2B2B2"/>
<defs>
<linearGradient id="paint0_linear_9075_177057" x1="187.951" y1="11.5728" x2="187.951" y2="96.3644" gradientUnits="userSpaceOnUse">
<stop stop-color="#93C437"/>
<stop offset="1" stop-color="#279BE8"/>
</linearGradient>
</defs>
</svg>
