<svg width="140" height="138" viewBox="0 0 140 138" fill="none" xmlns="http://www.w3.org/2000/svg">
<path d="M82.009 19.8933C82.2579 19.8933 82.4966 19.7945 82.6725 19.6185C82.8485 19.4425 82.9474 19.2039 82.9474 18.955V0.938365C82.9474 0.689495 82.8485 0.450819 82.6725 0.274841C82.4966 0.0988632 82.2579 0 82.009 0C81.7601 0 81.5215 0.0988632 81.3455 0.274841C81.1695 0.450819 81.0707 0.689495 81.0707 0.938365V18.955C81.0707 19.2039 81.1695 19.4425 81.3455 19.6185C81.5215 19.7945 81.7601 19.8933 82.009 19.8933ZM139.062 57.0526H121.045C120.796 57.0526 120.557 57.1515 120.382 57.3275C120.206 57.5034 120.107 57.7421 120.107 57.991C120.107 58.2398 120.206 58.4785 120.382 58.6545C120.557 58.8305 120.796 58.9293 121.045 58.9293H139.062C139.311 58.9293 139.549 58.8305 139.725 58.6545C139.901 58.4785 140 58.2398 140 57.991C140 57.7421 139.901 57.5034 139.725 57.3275C139.549 57.1515 139.311 57.0526 139.062 57.0526ZM110.535 30.403C110.659 30.404 110.781 30.3798 110.894 30.3321C111.008 30.2843 111.11 30.214 111.196 30.1253L124.708 16.6128C124.884 16.4376 124.982 16.2 124.982 15.9522C124.982 15.7044 124.884 15.4668 124.708 15.2916C124.622 15.2049 124.519 15.136 124.405 15.0891C124.292 15.0421 124.17 15.018 124.048 15.018C123.8 15.018 123.562 15.1164 123.387 15.2916L109.875 28.8041C109.788 28.8906 109.718 28.9935 109.671 29.1069C109.624 29.2203 109.6 29.3419 109.6 29.4647C109.6 29.5875 109.624 29.7091 109.671 29.8225C109.718 29.9358 109.788 30.0388 109.875 30.1253C109.96 30.214 110.063 30.2843 110.176 30.3321C110.29 30.3798 110.412 30.404 110.535 30.403ZM34.265 67.8926L64.5554 57.7883C64.6847 57.7484 64.8238 57.7551 64.9486 57.8072C65.0735 57.8593 65.1761 57.9536 65.2386 58.0736C65.8508 59.3013 66.1923 60.6462 66.2402 62.0173C66.288 63.3884 66.0409 64.7538 65.5158 66.0212C64.9906 67.2886 64.1995 68.4285 63.1959 69.364C62.1923 70.2994 60.9996 71.0085 59.6984 71.4434L46.4262 75.865C45.585 76.1625 44.7279 76.4131 43.8588 76.6157C43.8371 75.8182 43.6497 75.0339 43.3086 74.3128C42.9674 73.5916 42.4799 72.9493 41.877 72.4268C41.5177 72.0759 41.0908 71.8017 40.6223 71.6207C40.1538 71.4398 39.6534 71.3559 39.1515 71.3742C38.6495 71.3924 38.1566 71.5124 37.7024 71.7269C37.2483 71.9414 36.8425 72.2459 36.5096 72.622C35.316 73.9207 34.9181 76.0977 36.3069 77.479C37.4329 78.6125 39.4523 79.0629 42.0346 78.8227C42.1022 93.5588 35.8264 104.489 23.7853 110.509C23.2504 110.791 22.7877 111.192 22.4335 111.681C22.0792 112.171 21.8431 112.736 21.7434 113.332C21.6508 113.906 21.6965 114.493 21.8767 115.045C22.0569 115.598 22.3664 116.099 22.7794 116.507L26.5329 120.411C26.9185 120.871 27.3935 121.248 27.9289 121.519C28.4644 121.79 29.0493 121.949 29.6482 121.988C31.2097 121.988 32.5759 120.809 33.8596 119.518L39.1145 114.263C39.2897 114.088 39.3881 113.85 39.3881 113.602C39.3881 113.354 39.2897 113.117 39.1145 112.942C38.9393 112.766 38.7016 112.668 38.4538 112.668C38.2061 112.668 37.9684 112.766 37.7932 112.942L32.5384 118.197C30.2112 120.449 29.4606 120.599 27.8841 119.037L24.1306 115.134C23.9229 114.936 23.7669 114.69 23.6766 114.418C23.5863 114.145 23.5643 113.855 23.6127 113.572C23.6628 113.269 23.7815 112.982 23.9598 112.732C24.1381 112.483 24.3711 112.277 24.6411 112.131C37.4029 105.728 44.084 94.1143 43.9264 78.4849C44.981 78.2714 46.0214 77.9931 47.0418 77.6516L60.3065 73.2225C61.8616 72.7025 63.2869 71.8544 64.4858 70.7358C65.6847 69.6171 66.6294 68.2539 67.2557 66.7385C67.8821 65.2231 68.1757 63.5908 68.1164 61.9521C68.0572 60.3134 67.6467 58.7066 66.9126 57.2403C66.6521 56.721 66.2149 56.3117 65.6796 56.086C65.1443 55.8604 64.546 55.8331 63.9924 56.0092L33.6644 66.106C28.9576 67.6824 24.3859 72.2466 15.2875 81.3525L0.273633 96.3664C0.186881 96.4531 0.118065 96.5561 0.071115 96.6695C0.0241649 96.7828 0 96.9043 0 97.027C0 97.1497 0.0241649 97.2712 0.071115 97.3845C0.118065 97.4978 0.186881 97.6008 0.273633 97.6876C0.360386 97.7743 0.463376 97.8432 0.576724 97.8901C0.690071 97.9371 0.811556 97.9612 0.934243 97.9612C1.05693 97.9612 1.17841 97.9371 1.29176 97.8901C1.40511 97.8432 1.5081 97.7743 1.59485 97.6876L16.6087 82.6737C25.5044 73.7555 29.9635 69.3189 34.265 67.8926ZM37.6281 76.0977C37.0501 75.5121 37.3128 74.4612 37.8908 73.8456C38.0576 73.6554 38.2615 73.5014 38.49 73.3929C38.7185 73.2845 38.9668 73.2239 39.2196 73.215C39.7644 73.2395 40.2819 73.4609 40.6759 73.8381C41.0775 74.1922 41.4011 74.626 41.626 75.112C41.8509 75.5979 41.9721 76.1253 41.9821 76.6607C41.9821 76.7433 41.9821 76.8183 41.9821 76.9009C39.7751 77.1036 38.2737 76.7583 37.6281 76.0977ZM81.3484 27.3027C80.35 28.2936 79.5843 29.292 78.8336 33.0305L75.6206 49.1253C75.3065 50.6885 74.5389 52.1246 73.4136 53.2541L71.5894 55.0783C71.5023 55.1648 71.4331 55.2677 71.3859 55.3811C71.3387 55.4945 71.3144 55.6161 71.3144 55.7389C71.3144 55.8617 71.3387 55.9833 71.3859 56.0967C71.4331 56.2101 71.5023 56.313 71.5894 56.3995C71.6754 56.4876 71.7782 56.5576 71.8916 56.6054C72.0051 56.6531 72.1269 56.6777 72.25 56.6777C72.3731 56.6777 72.495 56.6531 72.6084 56.6054C72.7219 56.5576 72.8246 56.4876 72.9106 56.3995L74.7348 54.5753C76.1276 53.1894 77.0763 51.4202 77.4598 49.4931L80.4626 34.2766C81.7162 38.6907 85.2595 44.2533 90.4843 49.4781C95.7092 54.7029 101.324 58.2537 105.738 59.4924L90.5069 62.5402C88.5798 62.9237 86.8106 63.8724 85.4247 65.2652L78.6159 72.0665H76.0035C74.6089 72.0625 73.2457 72.4794 72.0919 73.2627C70.9381 74.046 70.0476 75.1592 69.5366 76.4568C69.0257 77.7543 68.9182 79.1759 69.2282 80.5355C69.5382 81.8952 70.2512 83.1297 71.2741 84.0775H60.9896C59.5951 84.0736 58.2318 84.4905 57.078 85.2738C55.9243 86.0571 55.0337 87.1703 54.5228 88.4678C54.0119 89.7654 53.9044 91.187 54.2144 92.5466C54.5244 93.9063 55.2374 95.1407 56.2603 96.0886H51.9813C50.5678 96.0957 49.1901 96.5341 48.0323 97.3451C46.8745 98.1561 45.9918 99.3012 45.5022 100.627C45.0126 101.953 44.9393 103.397 45.2923 104.766C45.6452 106.135 46.4074 107.363 47.4772 108.287C46.0689 108.6 44.7929 109.343 43.827 110.415C42.8611 111.486 42.2533 112.832 42.0881 114.265C41.9229 115.698 42.2086 117.147 42.9054 118.41C43.6022 119.673 44.6755 120.687 45.9758 121.312C39.9702 127.693 27.2085 130.148 19.3412 126.214C19.1654 126.125 18.9656 126.094 18.7711 126.126C18.5766 126.159 18.3975 126.253 18.2602 126.394L9.25191 135.402C9.16476 135.489 9.09558 135.592 9.04838 135.705C9.00117 135.819 8.97687 135.94 8.97687 136.063C8.97687 136.186 9.00117 136.307 9.04838 136.421C9.09558 136.534 9.16476 136.637 9.25191 136.724C9.33792 136.812 9.44067 136.882 9.55412 136.929C9.66757 136.977 9.78942 137.002 9.91252 137.002C10.0356 137.002 10.1575 136.977 10.2709 136.929C10.3844 136.882 10.4871 136.812 10.5731 136.724L19.116 128.188C28.1243 132.234 41.7794 129.277 47.9501 121.905C48.2802 121.959 48.6141 121.986 48.9485 121.988H57.9869C59.3814 121.991 60.7447 121.575 61.8984 120.791C63.0522 120.008 63.9428 118.895 64.4537 117.597C64.9646 116.3 65.0721 114.878 64.7621 113.518C64.4521 112.159 63.7391 110.924 62.7162 109.976H66.9952C68.3897 109.98 69.753 109.563 70.9068 108.78C72.0605 107.997 72.9511 106.884 73.462 105.586C73.9729 104.289 74.0804 102.867 73.7704 101.507C73.4604 100.148 72.7474 98.9132 71.7245 97.9653H76.0035C77.398 97.9693 78.7613 97.5524 79.9151 96.7691C81.0688 95.9858 81.9594 94.8726 82.4703 93.575C82.9812 92.2775 83.0887 90.8559 82.7787 89.4963C82.4688 88.1366 81.7557 86.9022 80.7328 85.9543H88.0146C89.8562 85.9543 91.6224 85.2227 92.9246 83.9204C94.2269 82.6182 94.9585 80.852 94.9585 79.0104C94.9585 77.1687 94.2269 75.4025 92.9246 74.1003C91.6224 72.798 89.8562 72.0665 88.0146 72.0665H81.2583L86.7309 66.5864C87.8604 65.4611 89.2965 64.6935 90.8597 64.3794L106.955 61.1664C110.708 60.4157 111.691 59.665 112.682 58.6516C116.331 55.0107 112.299 45.2667 103.509 36.4761C94.7182 27.6855 85.0118 23.6543 81.3484 27.3027ZM63.054 115.044C63.052 116.387 62.5176 117.675 61.5677 118.624C60.6179 119.574 59.3302 120.109 57.9869 120.111H48.9786C47.6347 120.111 46.3458 119.577 45.3955 118.627C44.4452 117.676 43.9114 116.387 43.9114 115.044C43.9114 113.7 44.4452 112.411 45.3955 111.461C46.3458 110.51 47.6347 109.976 48.9786 109.976H57.9869C59.3302 109.978 60.6179 110.513 61.5677 111.463C62.5176 112.413 63.052 113.7 63.054 115.044ZM72.0623 103.033C72.0604 104.376 71.5259 105.664 70.576 106.613C69.6262 107.563 68.3385 108.098 66.9952 108.1H51.9813C50.6374 108.1 49.3486 107.566 48.3983 106.616C47.448 105.665 46.9142 104.376 46.9142 103.033C46.9142 101.689 47.448 100.4 48.3983 99.4495C49.3486 98.4992 50.6374 97.9653 51.9813 97.9653H66.9952C68.3385 97.9673 69.6262 98.5018 70.576 99.4517C71.5259 100.402 72.0604 101.689 72.0623 103.033ZM81.0707 91.0214C81.0687 92.3647 80.5342 93.6524 79.5843 94.6023C78.6345 95.5521 77.3468 96.0866 76.0035 96.0886H60.9896C59.6457 96.0886 58.3569 95.5547 57.4066 94.6045C56.4563 93.6542 55.9225 92.3653 55.9225 91.0214C55.9225 89.6775 56.4563 88.3887 57.4066 87.4384C58.3569 86.4881 59.6457 85.9543 60.9896 85.9543H76.0035C77.3468 85.9563 78.6345 86.4908 79.5843 87.4406C80.5342 88.3904 81.0687 89.6782 81.0707 91.0214ZM88.0146 73.9432C89.3585 73.9432 90.6473 74.4771 91.5976 75.4273C92.5479 76.3776 93.0817 77.6665 93.0817 79.0104C93.0817 80.3543 92.5479 81.6431 91.5976 82.5934C90.6473 83.5437 89.3585 84.0775 88.0146 84.0775H76.0035C74.6596 84.0775 73.3707 83.5437 72.4204 82.5934C71.4702 81.6431 70.9363 80.3543 70.9363 79.0104C70.9363 77.6665 71.4702 76.3776 72.4204 75.4273C73.3707 74.4771 74.6596 73.9432 76.0035 73.9432H88.0146ZM111.376 57.3304C108.321 60.3782 98.6143 54.9432 91.8581 48.1494C85.1019 41.3556 79.6293 31.6792 82.6771 28.6314C83.0132 28.3297 83.4061 28.098 83.8327 27.9498C84.2593 27.8015 84.7112 27.7398 85.1619 27.7681C89.4108 27.7681 96.7451 32.3473 102.203 37.8124C108.989 44.5911 114.424 54.2751 111.376 57.3304Z" fill="url(#paint0_linear)"/>
<defs>
<linearGradient id="paint0_linear" x1="70" y1="0" x2="70" y2="137.002" gradientUnits="userSpaceOnUse">
<stop stop-color="#82CF5F"/>
<stop offset="1" stop-color="#00C3F5"/>
</linearGradient>
</defs>
</svg>
