<svg viewBox="0 0 249 248" fill="none" xmlns="http://www.w3.org/2000/svg">
<path d="M206.528 132.68C209.163 132.68 211.256 130.51 211.178 127.875C211.101 125.318 208.853 123.38 206.373 123.38H204.281C203.273 123.38 202.266 122.993 201.568 122.218L200.406 121.055C199.011 119.66 198.623 117.49 199.553 115.708L200.793 113.228C201.336 112.22 200.561 110.98 199.398 110.98H191.803M218.076 123.38C218.076 123.38 214.976 128.03 214.976 134.23C214.976 141.67 220.788 146.165 226.368 147.638C227.763 148.025 228.848 146.475 228.073 145.313C222.726 137.253 228.926 130.51 228.926 124.93C228.926 119.815 225.826 115.63 221.951 115.63C220.168 115.63 218.541 116.483 217.301 117.955C214.976 110.36 207.846 104.78 199.476 104.78C190.176 104.78 184.053 109.275 180.876 118.73L178.551 125.705C177.001 130.355 179.326 131.13 180.876 131.13H182.426C183.278 131.13 183.976 131.828 183.976 132.68V138.725C183.976 142.6 187.076 145.855 190.873 145.855H195.213C197.538 145.855 199.476 147.793 199.476 150.118C199.476 152.443 197.538 154.38 195.213 154.38H189.246C182.193 154.38 175.761 158.333 172.583 164.688L160.803 188.17C159.718 190.263 157.626 191.58 155.223 191.58H109.421C106.011 191.58 103.221 188.79 103.221 185.38V160.58C103.221 157.17 106.011 154.38 109.421 154.38H146.621C150.031 154.38 152.821 157.17 152.821 160.58V186.155M50.6758 104.78V88.5051C50.6758 87.0326 49.4358 85.9476 47.9633 86.1801C46.8008 86.4126 46.0258 87.4201 46.0258 88.5826C46.0258 94.7051 51.3733 101.603 59.7433 101.68C64.1608 101.758 67.7258 98.1926 67.7258 93.8526V83.0801C67.7258 79.6701 64.9358 76.8801 61.5258 76.8801H59.9758C56.5658 76.8801 53.7758 79.6701 53.7758 83.0801M61.5258 85.4051C61.5258 85.4051 62.3008 87.7301 63.0758 90.0551C63.8508 92.3801 62.3008 92.3801 61.5258 92.3801H60.7508M69.5858 76.1051C67.8808 69.4401 61.7583 64.4801 54.5508 64.4801C46.0258 64.4801 39.0508 71.4551 39.0508 79.9801C39.0508 83.1576 39.9808 86.0251 41.6083 88.5051M32.2308 127.333C24.4808 119.04 19.6758 107.88 19.6758 95.5576C19.6758 69.9051 40.5233 49.0576 66.1758 49.0576C91.8283 49.0576 112.676 69.9051 112.676 95.5576M90.9758 123.38H83.2258C81.5208 123.38 80.1258 121.985 80.1258 120.28V107.88C80.1258 106.175 81.5208 104.78 83.2258 104.78H87.8758C89.5808 104.78 90.9758 106.175 90.9758 107.88V114.855M90.9758 123.38H94.0758C95.8583 123.38 97.1758 122.063 97.1758 120.28V117.955C97.1758 116.25 95.7808 114.855 94.0758 114.855H90.9758M90.9758 123.38C89.2708 123.38 87.8758 121.985 87.8758 120.28V117.955C87.8758 116.25 89.2708 114.855 90.9758 114.855M66.1758 104.78C73.9258 104.78 73.9258 117.18 80.1258 117.18M112.676 95.4801C112.676 119.738 95.9358 123.07 110.118 139.268C111.513 140.895 110.893 143.453 108.878 144.228C107.483 144.77 105.623 145.158 103.376 145.158C91.7508 145.158 86.3258 137.485 86.3258 137.485C80.2033 140.43 73.3833 142.058 66.1758 142.058C46.0258 142.058 35.9508 130.433 35.9508 119.583C35.9508 111.445 42.5383 104.858 50.6758 104.858" stroke="url(#paint0_linear_42_118626)" stroke-width="1.9375" stroke-miterlimit="10" stroke-linecap="round" stroke-linejoin="round"/>
<path d="M187.851 122.605C188.707 122.605 189.401 121.911 189.401 121.055C189.401 120.199 188.707 119.505 187.851 119.505C186.995 119.505 186.301 120.199 186.301 121.055C186.301 121.911 186.995 122.605 187.851 122.605Z" fill="url(#paint1_linear_42_118626)"/>
<defs>
<linearGradient id="paint0_linear_42_118626" x1="124.301" y1="49.0576" x2="124.301" y2="191.58" gradientUnits="userSpaceOnUse">
<stop stop-color="#93C437"/>
<stop offset="1" stop-color="#279BE8"/>
</linearGradient>
<linearGradient id="paint1_linear_42_118626" x1="187.851" y1="119.505" x2="187.851" y2="122.605" gradientUnits="userSpaceOnUse">
<stop stop-color="#93C437"/>
<stop offset="1" stop-color="#279BE8"/>
</linearGradient>
</defs>
</svg>
