<svg width="140" height="134" viewBox="0 0 140 134" fill="none" xmlns="http://www.w3.org/2000/svg">
<path d="M80.9812 0C54.362 0 30.9348 20.3056 24.0016 49.4111C23.9662 49.5381 23.9568 49.6709 23.974 49.8016C23.9911 49.9323 24.0344 50.0582 24.1014 50.1718C24.1683 50.2854 24.2574 50.3843 24.3634 50.4626C24.4695 50.5409 24.5902 50.5971 24.7184 50.6277C24.8466 50.6583 24.9797 50.6627 25.1097 50.6407C25.2397 50.6187 25.3639 50.5707 25.4749 50.4996C25.5859 50.4285 25.6814 50.3357 25.7557 50.2269C25.83 50.118 25.8816 49.9953 25.9074 49.866C32.6289 21.6781 55.2718 2.0235 80.9812 2.0235C112.44 2.0235 138.039 31.1368 138.039 66.9246C138.039 102.712 112.44 131.763 80.9812 131.763C54.1894 131.763 30.676 110.234 25.0604 80.5636C24.9905 80.1841 24.8338 79.826 24.6025 79.5171C24.3712 79.2082 24.0716 78.9571 23.7271 78.7832C23.3694 78.6032 22.9746 78.5095 22.5742 78.5095C22.1738 78.5095 21.7789 78.6032 21.4212 78.7832C18.0256 80.5468 14.2667 81.4972 10.441 81.5597C9.32352 81.5919 8.21117 81.3964 7.17161 80.9852C6.13204 80.574 5.18699 79.9556 4.39392 79.1677C3.60085 78.3797 2.97635 77.4387 2.55839 76.4018C2.14043 75.365 1.93775 74.2539 1.96268 73.1363C1.95988 71.4172 2.48557 69.7388 3.46854 68.3285C5.37089 70.0363 7.83747 70.9804 10.3939 70.9794C13.1861 70.9794 15.2958 69.2069 15.2958 66.8618C15.2958 64.5168 13.1861 62.7442 10.3939 62.7442C7.83747 62.7432 5.37089 63.6874 3.46854 65.3952C2.48557 63.9849 1.95988 62.3065 1.96268 60.5874C1.93693 59.4732 2.13742 58.3652 2.55201 57.3307C2.96661 56.2961 3.5867 55.3564 4.37481 54.5683C5.16291 53.7802 6.10265 53.1601 7.13722 52.7455C8.17179 52.3309 9.27969 52.1304 10.3939 52.1561C18.8879 52.1561 29.6094 58.5639 33.923 64.3128C34.0152 64.4337 34.1338 64.5319 34.2697 64.5999C34.4056 64.6678 34.5553 64.7038 34.7073 64.705H65.2951C65.8672 64.705 66.4158 64.9322 66.8203 65.3367C67.2247 65.7412 67.452 66.2898 67.452 66.8618C67.452 67.4339 67.2247 67.9825 66.8203 68.3869C66.4158 68.7914 65.8672 69.0187 65.2951 69.0187H34.7073C34.4473 69.0187 34.198 69.1219 34.0141 69.3058C33.8302 69.4897 33.727 69.739 33.727 69.999C33.727 70.259 33.8302 70.5084 34.0141 70.6923C34.198 70.8761 34.4473 70.9794 34.7073 70.9794H65.2951C66.2144 70.9775 67.1066 70.6673 67.8288 70.0986C68.5511 69.5299 69.0619 68.7354 69.2794 67.8422H80.1969C80.4569 67.8422 80.7063 67.7389 80.8901 67.5551C81.074 67.3712 81.1773 67.1218 81.1773 66.8618C81.1773 66.6018 81.074 66.3525 80.8901 66.1686C80.7063 65.9847 80.4569 65.8814 80.1969 65.8814H69.2794C69.0619 64.9883 68.5511 64.1938 67.8288 63.625C67.1066 63.0563 66.2144 62.7462 65.2951 62.7442H35.1858C30.3388 56.611 19.4056 50.1954 10.3939 50.1954C9.02192 50.1687 7.65863 50.4193 6.38577 50.9321C5.11291 51.445 3.95667 52.2094 2.98632 53.1798C2.01597 54.1501 1.25149 55.3064 0.738677 56.5792C0.225863 57.8521 -0.0247259 59.2154 0.00192283 60.5874C-0.00159968 62.8536 0.739683 65.0582 2.1117 66.8618C0.739683 68.6655 -0.00159968 70.8701 0.00192283 73.1363C-0.0247259 74.5083 0.225863 75.8716 0.738677 77.1444C1.25149 78.4173 2.01597 79.5735 2.98632 80.5439C3.95667 81.5142 5.11291 82.2787 6.38577 82.7915C7.65863 83.3043 9.02192 83.5549 10.3939 83.5283C14.5329 83.4679 18.601 82.4449 22.2761 80.5401C22.3627 80.4972 22.458 80.4749 22.5546 80.4749C22.6511 80.4749 22.7464 80.4972 22.833 80.5401C22.9109 80.5761 22.9788 80.6307 23.0308 80.6991C23.0827 80.7674 23.1172 80.8475 23.131 80.9322C28.9192 111.52 53.2482 133.724 80.9812 133.724C113.522 133.724 140 103.732 140 66.8618C140 29.9917 113.522 0 80.9812 0ZM10.3939 64.705C12.0959 64.705 13.3351 65.6148 13.3351 66.8618C13.3351 68.1089 12.0959 69.0187 10.3939 69.0187C8.31701 69.021 6.31312 68.2525 4.77048 66.8618C6.31312 65.4712 8.31701 64.7026 10.3939 64.705ZM48.4326 76.0695C48.3785 75.8147 48.2255 75.5918 48.007 75.4499C47.7886 75.308 47.5228 75.2586 47.2679 75.3127C47.0131 75.3668 46.7902 75.5199 46.6483 75.7383C46.5064 75.9567 46.457 76.2226 46.5111 76.4774C50.4326 94.5163 64.5501 107.065 81.0204 107.065C100.589 107.065 116.51 89.0262 116.51 66.8697C116.51 44.7131 100.589 26.6663 80.9812 26.6663C64.5893 26.6663 50.3934 39.2151 46.5111 57.2541C46.4843 57.3803 46.4826 57.5105 46.5062 57.6373C46.5297 57.7641 46.578 57.8851 46.6483 57.9932C46.7186 58.1014 46.8095 58.1946 46.9158 58.2676C47.0221 58.3407 47.1418 58.392 47.2679 58.4188C47.3941 58.4456 47.5243 58.4473 47.6511 58.4237C47.7779 58.4002 47.8989 58.3519 48.007 58.2816C48.1152 58.2113 48.2084 58.1204 48.2815 58.0141C48.3545 57.9078 48.4059 57.7881 48.4326 57.6619C52.1345 40.572 65.5226 28.6427 80.9812 28.6427C99.4672 28.6427 114.51 45.7954 114.51 66.8775C114.51 87.9596 99.4672 105.097 80.9812 105.097C65.5226 105.097 52.1345 93.1595 48.4326 76.0695ZM80.9812 78.4224C77.444 78.4224 74.1342 76.2264 72.3539 72.6892C72.2961 72.5736 72.2161 72.4706 72.1184 72.386C72.0207 72.3015 71.9072 72.2371 71.7845 72.1965C71.6618 72.156 71.5323 72.1401 71.4035 72.1497C71.2747 72.1594 71.149 72.1945 71.0337 72.2529C70.9185 72.3113 70.8159 72.3919 70.7319 72.4901C70.6479 72.5883 70.5841 72.7021 70.5443 72.825C70.5044 72.9479 70.4893 73.0775 70.4997 73.2063C70.5101 73.3351 70.5458 73.4605 70.6049 73.5755C72.7303 77.7715 76.7067 80.3832 80.989 80.3832C87.585 80.3832 92.9497 74.3127 92.9497 66.854C92.9497 59.3953 87.5772 53.3326 80.9812 53.3326C76.6989 53.3326 72.7225 55.9443 70.597 60.1404C70.4795 60.3733 70.4593 60.6434 70.541 60.8913C70.6226 61.1391 70.7993 61.3444 71.0323 61.4619C71.2653 61.5794 71.5354 61.5996 71.7832 61.518C72.0311 61.4363 72.2363 61.2596 72.3539 61.0266C74.1421 57.4894 77.4518 55.2934 80.9812 55.2934C86.4713 55.2934 90.9811 60.4854 90.9811 66.8618C90.9811 73.2382 86.4713 78.4303 80.9812 78.4303V78.4224Z" fill="url(#paint0_linear)"/>
<defs>
<linearGradient id="paint0_linear" x1="70" y1="0" x2="70" y2="133.724" gradientUnits="userSpaceOnUse">
<stop stop-color="#00BCF5"/>
<stop offset="1" stop-color="#6832CA"/>
</linearGradient>
</defs>
</svg>
