<svg width="140" height="138" viewBox="0 0 140 138" fill="none" xmlns="http://www.w3.org/2000/svg">
<path d="M129.645 62.828C128.832 61.6851 126.324 60.3428 119.09 59.2229C110.959 58.0921 102.755 57.5615 94.5452 57.6351C86.3356 57.5615 78.1317 58.0921 70 59.2229C62.7668 60.3428 60.2663 61.6774 59.4455 62.828C53.9766 69.4807 50.5105 77.5505 49.4511 86.0971C48.3916 94.6438 49.7823 103.316 53.4613 111.102C57.1402 118.889 62.9559 125.47 70.2309 130.079C77.506 134.688 85.9408 137.135 94.5529 137.135C103.165 137.135 111.6 134.688 118.875 130.079C126.15 125.47 131.966 118.889 135.645 111.102C139.323 103.316 140.714 94.6438 139.655 86.0971C138.595 77.5505 135.129 69.4807 129.66 62.828H129.645ZM94.5376 59.5527C115.194 59.5527 126.753 62.1837 127.996 63.7638C128.02 63.8321 128.053 63.8966 128.096 63.9555C127.566 65.5433 115.953 68.3737 94.5376 68.3737C73.1218 68.3737 61.5549 65.5586 60.9873 63.9632C61.5549 62.3677 73.1678 59.5527 94.5376 59.5527ZM94.5376 135.106C86.4506 135.125 78.5189 132.886 71.636 128.64C64.753 124.395 59.1921 118.312 55.5796 111.077C51.9672 103.841 50.4466 95.741 51.1893 87.6882C51.9319 79.6354 54.9082 71.9499 59.783 65.4973C60.8876 66.5481 63.6182 67.714 69.9846 68.7035C78.1163 69.8342 86.3203 70.3649 94.5299 70.2913C102.74 70.3649 110.943 69.8342 119.075 68.7035C125.472 67.714 128.172 66.5481 129.277 65.4973C134.151 71.9488 137.127 79.6329 137.87 87.6844C138.613 95.7358 137.094 103.835 133.484 111.07C129.873 118.304 124.314 124.388 117.434 128.634C110.553 132.881 102.623 135.122 94.5376 135.106ZM83.799 24.0772C83.799 24.3806 83.889 24.6772 84.0575 24.9295C84.2261 25.1817 84.4657 25.3784 84.746 25.4945C85.0263 25.6106 85.3348 25.641 85.6324 25.5818C85.93 25.5226 86.2033 25.3765 86.4178 25.1619C86.6324 24.9474 86.7785 24.674 86.8377 24.3764C86.8969 24.0789 86.8665 23.7704 86.7504 23.4901C86.6343 23.2098 86.4377 22.9702 86.1854 22.8016C85.9331 22.6331 85.6365 22.5431 85.3331 22.5431C84.9262 22.5431 84.536 22.7047 84.2483 22.9924C83.9606 23.2801 83.799 23.6703 83.799 24.0772ZM69.9923 24.0772C69.9923 24.3806 70.0823 24.6772 70.2508 24.9295C70.4194 25.1817 70.659 25.3784 70.9393 25.4945C71.2196 25.6106 71.5281 25.641 71.8257 25.5818C72.1233 25.5226 72.3966 25.3765 72.6111 25.1619C72.8257 24.9474 72.9718 24.674 73.031 24.3764C73.0902 24.0789 73.0598 23.7704 72.9437 23.4901C72.8276 23.2098 72.631 22.9702 72.3787 22.8016C72.1264 22.6331 71.8298 22.5431 71.5264 22.5431C71.1195 22.5431 70.7293 22.7047 70.4416 22.9924C70.1539 23.2801 69.9923 23.6703 69.9923 24.0772ZM43.913 116.697C36.8486 116.697 32.4074 120.448 27.6211 124.414C25.8646 125.886 24.0313 127.42 21.9757 128.847C21.1612 128.184 20.3925 127.466 19.6746 126.699C14.6198 121.33 12.1269 113.775 12.6485 105.445C13.2928 95.0666 21.4311 86.3684 30.0449 77.1639C31.3182 75.8063 32.5992 74.4409 33.8801 73.0449C42.3789 63.7254 46.9351 55.0655 52.5115 37.3623L61.8003 2.35462C61.8242 2.25606 61.8748 2.16599 61.9465 2.09428C62.0182 2.02257 62.1083 1.97199 62.2069 1.94809C62.3033 1.91796 62.4063 1.91565 62.504 1.94143C62.6017 1.96721 62.6901 2.02003 62.7591 2.09383L70.0844 9.41138C70.172 9.50163 70.277 9.57328 70.3929 9.62204C70.5089 9.6708 70.6335 9.69568 70.7593 9.69518H77.6627C77.8408 9.69466 78.0152 9.64496 78.1668 9.55157C78.3184 9.45817 78.4412 9.32472 78.5218 9.16592L81.9428 2.32394C81.9859 2.23322 82.053 2.156 82.1368 2.10058C82.2206 2.04516 82.318 2.01366 82.4183 2.00945C82.5188 2.00228 82.6193 2.02194 82.7096 2.06642C82.7999 2.1109 82.8767 2.1786 82.9323 2.26257L92.2364 16.169C95.1742 20.5795 98.2117 25.1357 98.2117 29.4464C98.2117 34.3708 95.7802 37.2319 93.2106 40.2617C90.3879 43.583 87.4731 47.0193 87.4731 53.2246C87.4731 53.4789 87.5742 53.7228 87.754 53.9026C87.9338 54.0824 88.1776 54.1834 88.4319 54.1834C88.6862 54.1834 88.9301 54.0824 89.1099 53.9026C89.2897 53.7228 89.3907 53.4789 89.3907 53.2246C89.3907 47.725 91.9526 44.7028 94.668 41.5043C97.3833 38.3057 100.129 35.0765 100.129 29.4464C100.129 24.5527 96.9307 19.7511 93.8319 15.1105L84.566 1.19639C84.3238 0.83329 83.9904 0.540178 83.5992 0.346377C83.2081 0.152576 82.7729 0.0648794 82.3372 0.0920604C81.9016 0.119241 81.4807 0.260347 81.1166 0.501262C80.7526 0.742176 80.4582 1.07445 80.263 1.46485L77.1104 7.77758H71.1582L64.1168 0.736166C63.8088 0.426091 63.4247 0.202425 63.0031 0.0875938C62.5814 -0.0272373 62.137 -0.0291983 61.7143 0.0819071C61.2916 0.193012 60.9056 0.41328 60.5949 0.720625C60.2842 1.02797 60.0598 1.41159 59.9441 1.83303L50.6706 36.8254C45.2016 54.1834 40.7835 62.6746 32.4688 71.7563C31.1955 73.137 29.9171 74.5049 28.6336 75.86C19.7743 85.3176 11.4059 94.2689 10.7155 105.322C10.1633 114.189 12.8632 122.258 18.2785 128.011C18.9197 128.685 19.5956 129.325 20.3035 129.929C15.6169 132.843 9.6877 135.091 0.958799 135.091C0.704509 135.091 0.460635 135.192 0.280826 135.372C0.101016 135.551 0 135.795 0 136.05C0 136.304 0.101016 136.548 0.280826 136.727C0.460635 136.907 0.704509 137.008 0.958799 137.008C10.5621 137.008 16.9055 134.446 21.899 131.202C27.0305 134.976 33.5963 137.008 40.8448 137.008C49.2823 137.008 55.6103 132.636 55.6103 126.845C55.6103 121.054 50.6936 116.697 43.913 116.697ZM40.8448 135.106C34.7128 135.225 28.6908 133.467 23.5864 130.067C25.4887 128.701 27.1992 127.267 28.856 125.886C33.5196 121.982 37.5466 118.615 43.913 118.615C49.5814 118.615 53.6927 122.082 53.6927 126.86C53.6927 131.639 48.17 135.106 40.8448 135.106ZM76.7039 106.917C76.7039 109.218 79.6186 111.711 83.799 111.711C87.9794 111.711 90.2498 109.303 92.1751 107.178C93.8626 105.322 95.3429 103.696 98.0199 103.343C97.5787 104.504 96.7347 105.468 95.6421 106.058C95.4827 106.138 95.3488 106.261 95.2553 106.413C95.1618 106.564 95.1125 106.739 95.1128 106.917C95.1142 107.095 95.1643 107.269 95.2576 107.421C95.3509 107.572 95.4838 107.695 95.6421 107.776C96.7405 108.373 97.5873 109.345 98.0276 110.515C96.4488 110.415 94.9126 109.961 93.5327 109.188C93.4283 109.11 93.309 109.054 93.1821 109.024C93.0553 108.993 92.9237 108.989 92.7952 109.011C92.6667 109.034 92.5442 109.082 92.435 109.153C92.3258 109.225 92.2323 109.317 92.1602 109.426C92.0882 109.535 92.039 109.657 92.0158 109.785C91.9925 109.914 91.9957 110.045 92.0251 110.172C92.0545 110.299 92.1094 110.419 92.1867 110.524C92.2639 110.629 92.3617 110.717 92.4742 110.783C94.4976 111.951 96.8042 112.538 99.1398 112.478C99.3941 112.478 99.638 112.377 99.8178 112.198C99.9976 112.018 100.099 111.774 100.099 111.52C100.079 110.63 99.863 109.756 99.4651 108.96C99.0672 108.164 98.4976 107.466 97.7975 106.917C98.4976 106.368 99.0672 105.671 99.4651 104.875C99.863 104.079 100.079 103.205 100.099 102.315C100.099 102.061 99.9976 101.817 99.8178 101.637C99.638 101.457 99.3941 101.356 99.1398 101.356C94.8827 101.356 92.689 103.765 90.7637 105.89C88.8385 108.014 87.2123 109.794 83.799 109.794C80.3857 109.794 78.6215 107.776 78.6215 106.917C78.6215 106.058 80.3857 104.041 83.799 104.041C85.2159 103.971 86.6104 104.415 87.7262 105.291C87.9053 105.47 88.1481 105.571 88.4012 105.571C88.6544 105.571 88.8972 105.47 89.0762 105.291C89.2553 105.112 89.3558 104.869 89.3558 104.616C89.3558 104.363 89.2553 104.12 89.0762 103.941C87.6106 102.689 85.7247 102.04 83.799 102.123C79.6186 102.123 76.7039 104.616 76.7039 106.917ZM69.2866 91.8374C71.2119 93.9621 73.4056 96.3706 77.6627 96.3706C81.9198 96.3706 84.7578 93.847 84.7578 91.5766C84.7578 89.3062 81.8431 86.7826 77.6627 86.7826C75.737 86.699 73.8512 87.3486 72.3855 88.6005C72.2966 88.6882 72.2261 88.7927 72.178 88.908C72.1299 89.0232 72.1051 89.1468 72.1051 89.2716C72.1051 89.3965 72.1299 89.5201 72.178 89.6353C72.2261 89.7505 72.2966 89.855 72.3855 89.9428C72.5663 90.1213 72.8102 90.2213 73.0643 90.2213C73.3184 90.2213 73.5623 90.1213 73.7431 89.9428C74.8552 89.059 76.2517 88.6117 77.6704 88.6849C81.0837 88.6849 82.8479 90.7022 82.8479 91.5613C82.8479 92.4203 81.0837 94.4376 77.6704 94.4376C74.257 94.4376 72.6156 92.6274 70.7057 90.5334C68.7957 88.4394 66.5867 86.0002 62.3296 86.0002C62.2017 85.9992 62.075 86.0237 61.9567 86.0724C61.8385 86.1211 61.7312 86.1929 61.6412 86.2837C61.5511 86.3745 61.4801 86.4823 61.4324 86.6009C61.3846 86.7196 61.3611 86.8465 61.3631 86.9744C61.3823 87.8639 61.5987 88.7382 61.9966 89.534C62.3945 90.3299 62.9641 91.0275 63.6642 91.5766C62.9641 92.1257 62.3945 92.8233 61.9966 93.6192C61.5987 94.415 61.3823 95.2892 61.3631 96.1788C61.3631 96.4331 61.4641 96.677 61.6439 96.8568C61.8238 97.0366 62.0676 97.1376 62.3219 97.1376C64.6604 97.1878 66.9672 96.5905 68.9875 95.4118C69.1229 95.3598 69.2448 95.2777 69.3439 95.1718C69.4431 95.0658 69.5169 94.9388 69.5597 94.8001C69.6026 94.6615 69.6135 94.515 69.5916 94.3716C69.5696 94.2282 69.5154 94.0916 69.433 93.9722C69.3506 93.8528 69.2421 93.7536 69.1159 93.6822C68.9896 93.6107 68.8487 93.5689 68.7039 93.5598C68.5591 93.5507 68.4141 93.5746 68.2799 93.6297C68.1457 93.6847 68.0257 93.7695 67.929 93.8777C66.5487 94.6503 65.0127 95.1038 63.4341 95.2047C63.872 94.0335 64.7195 93.0606 65.8196 92.4664C65.979 92.3865 66.1129 92.2638 66.2064 92.1121C66.2999 91.9603 66.3492 91.7855 66.3489 91.6073C66.3475 91.4294 66.2974 91.2553 66.2041 91.1039C66.1108 90.9524 65.9779 90.8294 65.8196 90.7482C64.7287 90.1554 63.8854 89.1925 63.4418 88.0329C66.1571 88.355 67.5992 89.9811 69.2866 91.8374ZM120.617 77.5781C118.691 77.4945 116.805 78.1441 115.34 79.396C115.251 79.4838 115.18 79.5883 115.132 79.7035C115.084 79.8187 115.059 79.9423 115.059 80.0672C115.059 80.192 115.084 80.3157 115.132 80.4309C115.18 80.5461 115.251 80.6506 115.34 80.7383C115.521 80.9168 115.764 81.0169 116.018 81.0169C116.273 81.0169 116.516 80.9168 116.697 80.7383C117.809 79.8545 119.206 79.4072 120.625 79.4804C124.038 79.4804 125.802 81.4977 125.802 82.3568C125.802 83.2159 124.038 85.2332 120.625 85.2332C117.211 85.2332 115.57 83.423 113.66 81.3289C111.75 79.2349 109.541 76.7958 105.284 76.7958C105.029 76.7958 104.786 76.8968 104.606 77.0766C104.426 77.2564 104.325 77.5003 104.325 77.7546C104.344 78.6441 104.561 79.5184 104.958 80.3142C105.356 81.1101 105.926 81.8077 106.626 82.3568C105.926 82.9059 105.356 83.6035 104.958 84.3994C104.561 85.1952 104.344 86.0694 104.325 86.959C104.325 87.2133 104.426 87.4572 104.606 87.637C104.786 87.8168 105.029 87.9178 105.284 87.9178C107.619 87.9773 109.926 87.3907 111.949 86.2227C112.062 86.1567 112.16 86.0685 112.237 85.9635C112.314 85.8584 112.369 85.7387 112.398 85.6117C112.428 85.4846 112.431 85.3529 112.408 85.2246C112.385 85.0963 112.335 84.9741 112.263 84.8655C112.191 84.7568 112.098 84.664 111.989 84.5928C111.879 84.5215 111.757 84.4732 111.628 84.4509C111.5 84.4286 111.368 84.4327 111.241 84.463C111.115 84.4934 110.995 84.5492 110.891 84.6272C109.511 85.3998 107.975 85.8533 106.396 85.9542C106.834 84.783 107.681 83.8101 108.781 83.2159C108.941 83.136 109.075 83.0133 109.168 82.8616C109.262 82.7098 109.311 82.535 109.311 82.3568C109.309 82.1789 109.259 82.0048 109.166 81.8534C109.073 81.7019 108.94 81.5789 108.781 81.4977C107.691 80.9049 106.847 79.942 106.404 78.7824C109.081 79.1352 110.561 80.7613 112.248 82.6176C114.174 84.7423 116.367 87.1508 120.625 87.1508C124.882 87.1508 127.72 84.6272 127.72 82.3568C127.72 80.0863 124.797 77.5781 120.617 77.5781ZM110.645 118.231C107.286 118.231 105.192 120.233 103.159 122.166C101.126 124.099 99.2395 125.902 96.0716 125.902C93.0725 125.902 91.27 124.69 89.5288 123.516C87.7876 122.343 86.2305 121.299 83.799 121.299C79.6723 121.299 75.6991 124.444 75.5303 124.575C75.4296 124.653 75.3453 124.751 75.2823 124.862C75.2193 124.973 75.1789 125.096 75.1632 125.222C75.1475 125.349 75.157 125.478 75.191 125.601C75.2251 125.724 75.283 125.839 75.3616 125.94C75.4401 126.041 75.5378 126.125 75.6489 126.188C75.7601 126.251 75.8825 126.291 76.0093 126.307C76.1361 126.323 76.2647 126.313 76.3878 126.279C76.511 126.245 76.6262 126.187 76.7269 126.109C76.7269 126.109 80.3397 123.248 83.799 123.248C85.6399 123.248 86.9439 124.122 88.4549 125.135C90.3495 126.408 92.4896 127.85 96.0716 127.85C100.007 127.85 102.384 125.549 104.509 123.577C106.419 121.752 108.076 120.179 110.645 120.179C113.233 120.249 115.713 121.236 117.641 122.964C117.729 123.052 117.835 123.123 117.95 123.171C118.066 123.219 118.19 123.243 118.316 123.243C118.441 123.243 118.565 123.219 118.681 123.171C118.797 123.123 118.902 123.052 118.991 122.964C119.079 122.875 119.15 122.77 119.198 122.654C119.246 122.538 119.27 122.414 119.27 122.289C119.27 122.163 119.246 122.039 119.198 121.924C119.15 121.808 119.079 121.702 118.991 121.614C116.72 119.498 113.749 118.293 110.645 118.231Z" fill="url(#paint0_linear)"/>
<defs>
<linearGradient id="paint0_linear" x1="70" y1="0" x2="70" y2="137.135" gradientUnits="userSpaceOnUse">
<stop offset="0.270833" stop-color="#E3264F"/>
<stop offset="1" stop-color="#6B32CA"/>
</linearGradient>
</defs>
</svg>
