<svg width="480" height="398" viewBox="0 0 480 398" fill="none" xmlns="http://www.w3.org/2000/svg">
<path d="M321.6 243.62L297.24 299C296.16 301.52 293.16 302.6 290.7 301.34L263.16 287.54C262.44 287.18 261.54 287.66 261.42 288.5L259.5 305.66C259.38 306.68 260.58 307.4 261.42 306.74L273.6 297.62M268.8 277.22L318.54 238.28C319.62 237.44 318.72 235.76 317.4 236.18L231.48 264.86C228.42 265.88 228.12 270.08 231 271.52L251.04 281.54C251.64 281.84 252.12 282.44 252.3 283.1L256.26 298.82M244.8 310.82C230.4 330.02 210 344.42 192 344.42C178.74 344.42 168 333.68 168 320.42C168 307.16 178.74 296.42 192 296.42C205.26 296.42 216 307.16 216 320.42C216 349.22 182.4 363.62 158.4 368.42" stroke="url(#paint0_linear_4766_483428)" stroke-width="1.5" stroke-miterlimit="10" stroke-linecap="round" stroke-linejoin="round"/>
<rect y="70" width="480" height="32" rx="16" fill="black"/>
<rect x="0.5" y="70.5" width="479" height="31" rx="15.5" stroke="white" stroke-opacity="0.5"/>
<path opacity="0.7" d="M42.1406 92H40.6875L39.5 88.8594H34.75L33.6328 92H32.1719L36.4688 80.7969H37.8281L42.1406 92ZM39.0703 87.6797L37.3125 82.9062C37.2552 82.75 37.1979 82.5 37.1406 82.1562H37.1094C37.0573 82.474 36.9974 82.724 36.9297 82.9062L35.1875 87.6797H39.0703ZM50.4531 92H49.1719V90.6406H49.1406C48.5469 91.6719 47.6302 92.1875 46.3906 92.1875C45.3854 92.1875 44.5807 91.8307 43.9766 91.1172C43.3776 90.3984 43.0781 89.4219 43.0781 88.1875C43.0781 86.8646 43.4115 85.8047 44.0781 85.0078C44.7448 84.2109 45.6328 83.8125 46.7422 83.8125C47.8411 83.8125 48.6406 84.2448 49.1406 85.1094H49.1719V80.1562H50.4531V92ZM49.1719 88.3828V87.2031C49.1719 86.5573 48.9583 86.0104 48.5312 85.5625C48.1042 85.1146 47.5625 84.8906 46.9062 84.8906C46.125 84.8906 45.5104 85.1771 45.0625 85.75C44.6146 86.3229 44.3906 87.1146 44.3906 88.125C44.3906 89.0469 44.6042 89.776 45.0312 90.3125C45.4635 90.8438 46.0417 91.1094 46.7656 91.1094C47.4792 91.1094 48.0573 90.8516 48.5 90.3359C48.9479 89.8203 49.1719 89.1693 49.1719 88.3828ZM59.875 92H58.5938V90.6406H58.5625C57.9688 91.6719 57.0521 92.1875 55.8125 92.1875C54.8073 92.1875 54.0026 91.8307 53.3984 91.1172C52.7995 90.3984 52.5 89.4219 52.5 88.1875C52.5 86.8646 52.8333 85.8047 53.5 85.0078C54.1667 84.2109 55.0547 83.8125 56.1641 83.8125C57.263 83.8125 58.0625 84.2448 58.5625 85.1094H58.5938V80.1562H59.875V92ZM58.5938 88.3828V87.2031C58.5938 86.5573 58.3802 86.0104 57.9531 85.5625C57.526 85.1146 56.9844 84.8906 56.3281 84.8906C55.5469 84.8906 54.9323 85.1771 54.4844 85.75C54.0365 86.3229 53.8125 87.1146 53.8125 88.125C53.8125 89.0469 54.026 89.776 54.4531 90.3125C54.8854 90.8438 55.4635 91.1094 56.1875 91.1094C56.901 91.1094 57.4792 90.8516 57.9219 90.3359C58.3698 89.8203 58.5938 89.1693 58.5938 88.3828ZM68.1719 90.8438H68.1406V95.6797H66.8594V84H68.1406V85.4062H68.1719C68.8021 84.3438 69.724 83.8125 70.9375 83.8125C71.9688 83.8125 72.7734 84.1719 73.3516 84.8906C73.9297 85.6042 74.2188 86.5625 74.2188 87.7656C74.2188 89.1042 73.8932 90.1771 73.2422 90.9844C72.5911 91.7865 71.7005 92.1875 70.5703 92.1875C69.5339 92.1875 68.7344 91.7396 68.1719 90.8438ZM68.1406 87.6172V88.7344C68.1406 89.3958 68.3542 89.9583 68.7812 90.4219C69.2135 90.8802 69.7604 91.1094 70.4219 91.1094C71.1979 91.1094 71.8047 90.8125 72.2422 90.2188C72.6849 89.625 72.9062 88.7995 72.9062 87.7422C72.9062 86.8516 72.7005 86.1536 72.2891 85.6484C71.8776 85.1432 71.3203 84.8906 70.6172 84.8906C69.8724 84.8906 69.2734 85.151 68.8203 85.6719C68.3672 86.1875 68.1406 86.8359 68.1406 87.6172ZM82.6953 88.3203H77.0469C77.0677 89.2109 77.3073 89.8984 77.7656 90.3828C78.224 90.8672 78.8542 91.1094 79.6562 91.1094C80.5573 91.1094 81.3854 90.8125 82.1406 90.2188V91.4219C81.4375 91.9323 80.5078 92.1875 79.3516 92.1875C78.2214 92.1875 77.3333 91.8255 76.6875 91.1016C76.0417 90.3724 75.7188 89.349 75.7188 88.0312C75.7188 86.7865 76.0703 85.7734 76.7734 84.9922C77.4818 84.2057 78.3594 83.8125 79.4062 83.8125C80.4531 83.8125 81.263 84.151 81.8359 84.8281C82.4089 85.5052 82.6953 86.4453 82.6953 87.6484V88.3203ZM81.3828 87.2344C81.3776 86.4948 81.1979 85.9193 80.8438 85.5078C80.4948 85.0964 80.0078 84.8906 79.3828 84.8906C78.7786 84.8906 78.2656 85.1068 77.8438 85.5391C77.4219 85.9714 77.1615 86.5365 77.0625 87.2344H81.3828ZM87.9844 92.1875C86.8021 92.1875 85.8568 91.8151 85.1484 91.0703C84.4453 90.3203 84.0938 89.3281 84.0938 88.0938C84.0938 86.75 84.4609 85.7005 85.1953 84.9453C85.9297 84.1901 86.9219 83.8125 88.1719 83.8125C89.3646 83.8125 90.2943 84.1797 90.9609 84.9141C91.6328 85.6484 91.9688 86.6667 91.9688 87.9688C91.9688 89.2448 91.6068 90.2682 90.8828 91.0391C90.1641 91.8047 89.1979 92.1875 87.9844 92.1875ZM88.0781 84.8906C87.2552 84.8906 86.6042 85.1719 86.125 85.7344C85.6458 86.2917 85.4062 87.0625 85.4062 88.0469C85.4062 88.9948 85.6484 89.7422 86.1328 90.2891C86.6172 90.8359 87.2656 91.1094 88.0781 91.1094C88.9062 91.1094 89.5417 90.8411 89.9844 90.3047C90.4323 89.7682 90.6562 89.0052 90.6562 88.0156C90.6562 87.0156 90.4323 86.2448 89.9844 85.7031C89.5417 85.1615 88.9062 84.8906 88.0781 84.8906ZM95.3281 90.8438H95.2969V95.6797H94.0156V84H95.2969V85.4062H95.3281C95.9583 84.3438 96.8802 83.8125 98.0938 83.8125C99.125 83.8125 99.9297 84.1719 100.508 84.8906C101.086 85.6042 101.375 86.5625 101.375 87.7656C101.375 89.1042 101.049 90.1771 100.398 90.9844C99.7474 91.7865 98.8568 92.1875 97.7266 92.1875C96.6901 92.1875 95.8906 91.7396 95.3281 90.8438ZM95.2969 87.6172V88.7344C95.2969 89.3958 95.5104 89.9583 95.9375 90.4219C96.3698 90.8802 96.9167 91.1094 97.5781 91.1094C98.3542 91.1094 98.9609 90.8125 99.3984 90.2188C99.8411 89.625 100.062 88.7995 100.062 87.7422C100.062 86.8516 99.8568 86.1536 99.4453 85.6484C99.0339 85.1432 98.4766 84.8906 97.7734 84.8906C97.0286 84.8906 96.4297 85.151 95.9766 85.6719C95.5234 86.1875 95.2969 86.8359 95.2969 87.6172ZM104.703 92H103.422V80.1562H104.703V92ZM113.727 88.3203H108.078C108.099 89.2109 108.339 89.8984 108.797 90.3828C109.255 90.8672 109.885 91.1094 110.688 91.1094C111.589 91.1094 112.417 90.8125 113.172 90.2188V91.4219C112.469 91.9323 111.539 92.1875 110.383 92.1875C109.253 92.1875 108.365 91.8255 107.719 91.1016C107.073 90.3724 106.75 89.349 106.75 88.0312C106.75 86.7865 107.102 85.7734 107.805 84.9922C108.513 84.2057 109.391 83.8125 110.438 83.8125C111.484 83.8125 112.294 84.151 112.867 84.8281C113.44 85.5052 113.727 86.4453 113.727 87.6484V88.3203ZM112.414 87.2344C112.409 86.4948 112.229 85.9193 111.875 85.5078C111.526 85.0964 111.039 84.8906 110.414 84.8906C109.81 84.8906 109.297 85.1068 108.875 85.5391C108.453 85.9714 108.193 86.5365 108.094 87.2344H112.414ZM121.375 90.8438H121.344V92H120.062V80.1562H121.344V85.4062H121.375C122.005 84.3438 122.927 83.8125 124.141 83.8125C125.167 83.8125 125.969 84.1719 126.547 84.8906C127.13 85.6042 127.422 86.5625 127.422 87.7656C127.422 89.1042 127.096 90.1771 126.445 90.9844C125.794 91.7865 124.904 92.1875 123.773 92.1875C122.716 92.1875 121.917 91.7396 121.375 90.8438ZM121.344 87.6172V88.7344C121.344 89.3958 121.557 89.9583 121.984 90.4219C122.417 90.8802 122.964 91.1094 123.625 91.1094C124.401 91.1094 125.008 90.8125 125.445 90.2188C125.888 89.625 126.109 88.7995 126.109 87.7422C126.109 86.8516 125.904 86.1536 125.492 85.6484C125.081 85.1432 124.523 84.8906 123.82 84.8906C123.076 84.8906 122.477 85.151 122.023 85.6719C121.57 86.1875 121.344 86.8359 121.344 87.6172ZM135.836 84L132.156 93.2812C131.5 94.9375 130.578 95.7656 129.391 95.7656C129.057 95.7656 128.779 95.7318 128.555 95.6641V94.5156C128.831 94.6094 129.083 94.6562 129.312 94.6562C129.958 94.6562 130.443 94.2708 130.766 93.5L131.406 91.9844L128.281 84H129.703L131.867 90.1562C131.893 90.2344 131.948 90.4375 132.031 90.7656H132.078C132.104 90.6406 132.156 90.4427 132.234 90.1719L134.508 84H135.836ZM148.25 92H146.969V87.4375C146.969 85.7396 146.349 84.8906 145.109 84.8906C144.469 84.8906 143.938 85.1328 143.516 85.6172C143.099 86.0964 142.891 86.7031 142.891 87.4375V92H141.609V84H142.891V85.3281H142.922C143.526 84.3177 144.401 83.8125 145.547 83.8125C146.422 83.8125 147.091 84.0964 147.555 84.6641C148.018 85.2266 148.25 86.0417 148.25 87.1094V92ZM156.398 92H155.117V90.75H155.086C154.529 91.7083 153.708 92.1875 152.625 92.1875C151.828 92.1875 151.203 91.9766 150.75 91.5547C150.302 91.1328 150.078 90.5729 150.078 89.875C150.078 88.3802 150.958 87.5104 152.719 87.2656L155.117 86.9297C155.117 85.5703 154.568 84.8906 153.469 84.8906C152.505 84.8906 151.635 85.2188 150.859 85.875V84.5625C151.646 84.0625 152.552 83.8125 153.578 83.8125C155.458 83.8125 156.398 84.8073 156.398 86.7969V92ZM155.117 87.9531L153.188 88.2188C152.594 88.3021 152.146 88.4505 151.844 88.6641C151.542 88.8724 151.391 89.2448 151.391 89.7812C151.391 90.1719 151.529 90.4922 151.805 90.7422C152.086 90.987 152.458 91.1094 152.922 91.1094C153.557 91.1094 154.081 90.888 154.492 90.4453C154.909 89.9974 155.117 89.4323 155.117 88.75V87.9531ZM170.172 92H168.891V87.4062C168.891 86.5208 168.753 85.8802 168.477 85.4844C168.206 85.0885 167.747 84.8906 167.102 84.8906C166.555 84.8906 166.089 85.1406 165.703 85.6406C165.323 86.1406 165.133 86.7396 165.133 87.4375V92H163.852V87.25C163.852 85.6771 163.245 84.8906 162.031 84.8906C161.469 84.8906 161.005 85.1276 160.641 85.6016C160.276 86.0703 160.094 86.6823 160.094 87.4375V92H158.812V84H160.094V85.2656H160.125C160.693 84.2969 161.521 83.8125 162.609 83.8125C163.156 83.8125 163.633 83.9661 164.039 84.2734C164.445 84.5755 164.724 84.974 164.875 85.4688C165.469 84.3646 166.354 83.8125 167.531 83.8125C169.292 83.8125 170.172 84.8984 170.172 87.0703V92ZM179.023 88.3203H173.375C173.396 89.2109 173.635 89.8984 174.094 90.3828C174.552 90.8672 175.182 91.1094 175.984 91.1094C176.885 91.1094 177.714 90.8125 178.469 90.2188V91.4219C177.766 91.9323 176.836 92.1875 175.68 92.1875C174.549 92.1875 173.661 91.8255 173.016 91.1016C172.37 90.3724 172.047 89.349 172.047 88.0312C172.047 86.7865 172.398 85.7734 173.102 84.9922C173.81 84.2057 174.688 83.8125 175.734 83.8125C176.781 83.8125 177.591 84.151 178.164 84.8281C178.737 85.5052 179.023 86.4453 179.023 87.6484V88.3203ZM177.711 87.2344C177.706 86.4948 177.526 85.9193 177.172 85.5078C176.823 85.0964 176.336 84.8906 175.711 84.8906C175.107 84.8906 174.594 85.1068 174.172 85.5391C173.75 85.9714 173.49 86.5365 173.391 87.2344H177.711ZM188.703 92.1875C187.521 92.1875 186.576 91.8151 185.867 91.0703C185.164 90.3203 184.812 89.3281 184.812 88.0938C184.812 86.75 185.18 85.7005 185.914 84.9453C186.648 84.1901 187.641 83.8125 188.891 83.8125C190.083 83.8125 191.013 84.1797 191.68 84.9141C192.352 85.6484 192.688 86.6667 192.688 87.9688C192.688 89.2448 192.326 90.2682 191.602 91.0391C190.883 91.8047 189.917 92.1875 188.703 92.1875ZM188.797 84.8906C187.974 84.8906 187.323 85.1719 186.844 85.7344C186.365 86.2917 186.125 87.0625 186.125 88.0469C186.125 88.9948 186.367 89.7422 186.852 90.2891C187.336 90.8359 187.984 91.1094 188.797 91.1094C189.625 91.1094 190.26 90.8411 190.703 90.3047C191.151 89.7682 191.375 89.0052 191.375 88.0156C191.375 87.0156 191.151 86.2448 190.703 85.7031C190.26 85.1615 189.625 84.8906 188.797 84.8906ZM198.906 85.2969C198.682 85.125 198.359 85.0391 197.938 85.0391C197.391 85.0391 196.932 85.2969 196.562 85.8125C196.198 86.3281 196.016 87.0312 196.016 87.9219V92H194.734V84H196.016V85.6484H196.047C196.229 85.0859 196.508 84.6484 196.883 84.3359C197.258 84.0182 197.677 83.8594 198.141 83.8594C198.474 83.8594 198.729 83.8958 198.906 83.9688V85.2969ZM211.117 88.3203H205.469C205.49 89.2109 205.729 89.8984 206.188 90.3828C206.646 90.8672 207.276 91.1094 208.078 91.1094C208.979 91.1094 209.807 90.8125 210.562 90.2188V91.4219C209.859 91.9323 208.93 92.1875 207.773 92.1875C206.643 92.1875 205.755 91.8255 205.109 91.1016C204.464 90.3724 204.141 89.349 204.141 88.0312C204.141 86.7865 204.492 85.7734 205.195 84.9922C205.904 84.2057 206.781 83.8125 207.828 83.8125C208.875 83.8125 209.685 84.151 210.258 84.8281C210.831 85.5052 211.117 86.4453 211.117 87.6484V88.3203ZM209.805 87.2344C209.799 86.4948 209.62 85.9193 209.266 85.5078C208.917 85.0964 208.43 84.8906 207.805 84.8906C207.201 84.8906 206.688 85.1068 206.266 85.5391C205.844 85.9714 205.583 86.5365 205.484 87.2344H209.805ZM224.422 92H223.141V87.4062C223.141 86.5208 223.003 85.8802 222.727 85.4844C222.456 85.0885 221.997 84.8906 221.352 84.8906C220.805 84.8906 220.339 85.1406 219.953 85.6406C219.573 86.1406 219.383 86.7396 219.383 87.4375V92H218.102V87.25C218.102 85.6771 217.495 84.8906 216.281 84.8906C215.719 84.8906 215.255 85.1276 214.891 85.6016C214.526 86.0703 214.344 86.6823 214.344 87.4375V92H213.062V84H214.344V85.2656H214.375C214.943 84.2969 215.771 83.8125 216.859 83.8125C217.406 83.8125 217.883 83.9661 218.289 84.2734C218.695 84.5755 218.974 84.974 219.125 85.4688C219.719 84.3646 220.604 83.8125 221.781 83.8125C223.542 83.8125 224.422 84.8984 224.422 87.0703V92ZM232.57 92H231.289V90.75H231.258C230.701 91.7083 229.88 92.1875 228.797 92.1875C228 92.1875 227.375 91.9766 226.922 91.5547C226.474 91.1328 226.25 90.5729 226.25 89.875C226.25 88.3802 227.13 87.5104 228.891 87.2656L231.289 86.9297C231.289 85.5703 230.74 84.8906 229.641 84.8906C228.677 84.8906 227.807 85.2188 227.031 85.875V84.5625C227.818 84.0625 228.724 83.8125 229.75 83.8125C231.63 83.8125 232.57 84.8073 232.57 86.7969V92ZM231.289 87.9531L229.359 88.2188C228.766 88.3021 228.318 88.4505 228.016 88.6641C227.714 88.8724 227.562 89.2448 227.562 89.7812C227.562 90.1719 227.701 90.4922 227.977 90.7422C228.258 90.987 228.63 91.1094 229.094 91.1094C229.729 91.1094 230.253 90.888 230.664 90.4453C231.081 89.9974 231.289 89.4323 231.289 88.75V87.9531ZM235.641 81.9688C235.411 81.9688 235.216 81.8906 235.055 81.7344C234.893 81.5781 234.812 81.3802 234.812 81.1406C234.812 80.901 234.893 80.7031 235.055 80.5469C235.216 80.3854 235.411 80.3047 235.641 80.3047C235.875 80.3047 236.073 80.3854 236.234 80.5469C236.401 80.7031 236.484 80.901 236.484 81.1406C236.484 81.3698 236.401 81.5651 236.234 81.7266C236.073 81.888 235.875 81.9688 235.641 81.9688ZM236.266 92H234.984V84H236.266V92ZM240.141 92H238.859V80.1562H240.141V92Z" fill="white" fill-opacity="0.95"/>
<path d="M22.8543 92.1463L20.9326 90.2246C22.0269 88.9474 22.584 87.2961 22.487 85.617C22.3901 83.9379 21.6465 82.3617 20.4124 81.219C19.1783 80.0764 17.5496 79.4562 15.868 79.4885C14.1864 79.5208 12.5828 80.2032 11.3935 81.3925C10.2042 82.5818 9.52184 84.1854 9.48949 85.867C9.45713 87.5485 10.0774 89.1773 11.22 90.4114C12.3626 91.6455 13.9389 92.3891 15.6179 92.4861C17.297 92.5831 18.9484 92.0259 20.2255 90.9316L22.1472 92.8533C22.1937 92.8998 22.2488 92.9366 22.3094 92.9617C22.3701 92.9868 22.4351 92.9998 22.5008 92.9998C22.5664 92.9998 22.6314 92.9868 22.6921 92.9617C22.7527 92.9366 22.8079 92.8998 22.8543 92.8533C22.9007 92.8069 22.9375 92.7518 22.9627 92.6911C22.9878 92.6305 23.0007 92.5655 23.0007 92.4998C23.0007 92.4342 22.9878 92.3692 22.9627 92.3085C22.9375 92.2478 22.9007 92.1927 22.8543 92.1463ZM12.1116 89.889C11.3424 89.1198 10.8186 88.1397 10.6063 87.0728C10.3941 86.0059 10.503 84.9 10.9193 83.895C11.3356 82.89 12.0406 82.031 12.9451 81.4266C13.8496 80.8223 14.9129 80.4997 16.0008 80.4997C17.0886 80.4997 18.152 80.8223 19.0565 81.4266C19.9609 82.031 20.6659 82.89 21.0822 83.895C21.4985 84.9 21.6074 86.0059 21.3952 87.0728C21.183 88.1397 20.6591 89.1198 19.8899 89.889C18.8575 90.9187 17.4589 91.497 16.0008 91.497C14.5426 91.497 13.144 90.9187 12.1116 89.889Z" fill="white" fill-opacity="0.95"/>
<rect x="194" y="116" width="105" height="32" rx="16" fill="white" fill-opacity="0.95"/>
<path d="M207.047 138.555V136.641C207.219 136.797 207.422 136.938 207.656 137.062C207.896 137.188 208.148 137.294 208.414 137.383C208.68 137.466 208.945 137.531 209.211 137.578C209.477 137.625 209.721 137.648 209.945 137.648C210.727 137.648 211.307 137.518 211.688 137.258C212.073 136.997 212.266 136.62 212.266 136.125C212.266 135.859 212.201 135.63 212.07 135.438C211.945 135.24 211.768 135.06 211.539 134.898C211.31 134.737 211.039 134.583 210.727 134.438C210.419 134.286 210.089 134.13 209.734 133.969C209.354 133.766 209 133.56 208.672 133.352C208.344 133.143 208.057 132.914 207.812 132.664C207.573 132.409 207.383 132.122 207.242 131.805C207.107 131.487 207.039 131.115 207.039 130.688C207.039 130.161 207.156 129.706 207.391 129.32C207.63 128.93 207.943 128.609 208.328 128.359C208.719 128.104 209.161 127.917 209.656 127.797C210.151 127.672 210.656 127.609 211.172 127.609C212.344 127.609 213.198 127.742 213.734 128.008V129.844C213.099 129.385 212.281 129.156 211.281 129.156C211.005 129.156 210.729 129.182 210.453 129.234C210.182 129.286 209.938 129.372 209.719 129.492C209.505 129.612 209.331 129.766 209.195 129.953C209.06 130.141 208.992 130.367 208.992 130.633C208.992 130.883 209.044 131.099 209.148 131.281C209.253 131.464 209.404 131.63 209.602 131.781C209.805 131.932 210.049 132.081 210.336 132.227C210.628 132.367 210.964 132.521 211.344 132.688C211.734 132.891 212.102 133.104 212.445 133.328C212.794 133.552 213.099 133.799 213.359 134.07C213.625 134.341 213.833 134.643 213.984 134.977C214.141 135.305 214.219 135.68 214.219 136.102C214.219 136.669 214.104 137.148 213.875 137.539C213.646 137.93 213.336 138.247 212.945 138.492C212.56 138.737 212.115 138.914 211.609 139.023C211.104 139.133 210.57 139.188 210.008 139.188C209.82 139.188 209.589 139.172 209.312 139.141C209.042 139.115 208.763 139.073 208.477 139.016C208.19 138.964 207.919 138.898 207.664 138.82C207.409 138.742 207.203 138.654 207.047 138.555ZM222.852 135.492H217.398C217.419 136.232 217.646 136.802 218.078 137.203C218.516 137.604 219.115 137.805 219.875 137.805C220.729 137.805 221.513 137.549 222.227 137.039V138.5C221.497 138.958 220.534 139.188 219.336 139.188C218.159 139.188 217.234 138.826 216.562 138.102C215.896 137.372 215.562 136.349 215.562 135.031C215.562 133.786 215.93 132.773 216.664 131.992C217.404 131.206 218.32 130.812 219.414 130.812C220.508 130.812 221.354 131.164 221.953 131.867C222.552 132.57 222.852 133.547 222.852 134.797V135.492ZM221.102 134.211C221.096 133.56 220.943 133.055 220.641 132.695C220.339 132.331 219.922 132.148 219.391 132.148C218.87 132.148 218.427 132.339 218.062 132.719C217.703 133.099 217.482 133.596 217.398 134.211H221.102ZM231.703 139H229.891V134.492C229.891 132.997 229.362 132.25 228.305 132.25C227.753 132.25 227.297 132.458 226.938 132.875C226.578 133.286 226.398 133.807 226.398 134.438V139H224.578V131H226.398V132.328H226.43C227.029 131.318 227.893 130.812 229.023 130.812C229.893 130.812 230.557 131.096 231.016 131.664C231.474 132.227 231.703 133.042 231.703 134.109V139ZM241.195 139H239.383V137.641H239.352C238.768 138.672 237.87 139.188 236.656 139.188C235.672 139.188 234.883 138.831 234.289 138.117C233.701 137.398 233.406 136.422 233.406 135.188C233.406 133.865 233.732 132.805 234.383 132.008C235.039 131.211 235.911 130.812 237 130.812C238.078 130.812 238.862 131.245 239.352 132.109H239.383V127.156H241.195V139ZM239.406 135.344V134.297C239.406 133.729 239.221 133.247 238.852 132.852C238.482 132.456 238.01 132.258 237.438 132.258C236.76 132.258 236.227 132.51 235.836 133.016C235.451 133.521 235.258 134.221 235.258 135.117C235.258 135.93 235.443 136.573 235.812 137.047C236.188 137.516 236.69 137.75 237.32 137.75C237.94 137.75 238.443 137.523 238.828 137.07C239.214 136.612 239.406 136.036 239.406 135.344ZM248.883 129.32C248.586 129.32 248.331 129.224 248.117 129.031C247.909 128.839 247.805 128.594 247.805 128.297C247.805 128 247.909 127.753 248.117 127.555C248.331 127.357 248.586 127.258 248.883 127.258C249.19 127.258 249.451 127.357 249.664 127.555C249.878 127.753 249.984 128 249.984 128.297C249.984 128.578 249.878 128.82 249.664 129.023C249.451 129.221 249.19 129.32 248.883 129.32ZM249.781 139H247.969V131H249.781V139ZM259.281 139H257.469V134.492C257.469 132.997 256.94 132.25 255.883 132.25C255.331 132.25 254.875 132.458 254.516 132.875C254.156 133.286 253.977 133.807 253.977 134.438V139H252.156V131H253.977V132.328H254.008C254.607 131.318 255.471 130.812 256.602 130.812C257.471 130.812 258.135 131.096 258.594 131.664C259.052 132.227 259.281 133.042 259.281 134.109V139ZM268.391 131L265.297 139H263.336L260.391 131H262.359L264.133 136.594C264.268 137.005 264.352 137.365 264.383 137.672H264.406C264.453 137.286 264.526 136.938 264.625 136.625L266.484 131H268.391ZM270.539 129.32C270.242 129.32 269.987 129.224 269.773 129.031C269.565 128.839 269.461 128.594 269.461 128.297C269.461 128 269.565 127.753 269.773 127.555C269.987 127.357 270.242 127.258 270.539 127.258C270.846 127.258 271.107 127.357 271.32 127.555C271.534 127.753 271.641 128 271.641 128.297C271.641 128.578 271.534 128.82 271.32 129.023C271.107 129.221 270.846 129.32 270.539 129.32ZM271.438 139H269.625V131H271.438V139ZM278.031 138.914C277.677 139.091 277.211 139.18 276.633 139.18C275.081 139.18 274.305 138.435 274.305 136.945V132.422H272.969V131H274.305V129.148L276.117 128.633V131H278.031V132.422H276.117V136.422C276.117 136.896 276.203 137.234 276.375 137.438C276.547 137.641 276.833 137.742 277.234 137.742C277.542 137.742 277.807 137.654 278.031 137.477V138.914ZM286.273 135.492H280.82C280.841 136.232 281.068 136.802 281.5 137.203C281.938 137.604 282.536 137.805 283.297 137.805C284.151 137.805 284.935 137.549 285.648 137.039V138.5C284.919 138.958 283.956 139.188 282.758 139.188C281.581 139.188 280.656 138.826 279.984 138.102C279.318 137.372 278.984 136.349 278.984 135.031C278.984 133.786 279.352 132.773 280.086 131.992C280.826 131.206 281.742 130.812 282.836 130.812C283.93 130.812 284.776 131.164 285.375 131.867C285.974 132.57 286.273 133.547 286.273 134.797V135.492ZM284.523 134.211C284.518 133.56 284.365 133.055 284.062 132.695C283.76 132.331 283.344 132.148 282.812 132.148C282.292 132.148 281.849 132.339 281.484 132.719C281.125 133.099 280.904 133.596 280.82 134.211H284.523Z" fill="black" fill-opacity="0.95"/>
<path d="M87.8193 52.6035V51.25C88.111 51.5143 88.4779 51.7285 88.9199 51.8926C89.3665 52.0521 89.7881 52.1318 90.1846 52.1318C91.4469 52.1318 92.0781 51.6419 92.0781 50.6621C92.0781 50.2839 91.9505 49.9443 91.6953 49.6436C91.4447 49.3382 90.8841 48.9395 90.0137 48.4473C89.2344 48.0052 88.6761 47.5745 88.3389 47.1553C88.0016 46.736 87.833 46.2347 87.833 45.6514C87.833 44.8857 88.1178 44.2591 88.6875 43.7715C89.2572 43.2793 90.0091 43.0332 90.9434 43.0332C91.8229 43.0332 92.4655 43.1494 92.8711 43.3818V44.6738C92.3516 44.2728 91.6908 44.0723 90.8887 44.0723C90.319 44.0723 89.8678 44.209 89.5352 44.4824C89.2025 44.7559 89.0361 45.1113 89.0361 45.5488C89.0361 45.9089 89.1341 46.2347 89.3301 46.5264C89.5306 46.8135 90.0684 47.1986 90.9434 47.6816C91.791 48.1556 92.3926 48.6113 92.748 49.0488C93.1035 49.4863 93.2812 49.9785 93.2812 50.5254C93.2812 51.332 92.9987 51.9746 92.4336 52.4531C91.8685 52.9271 91.0664 53.1641 90.0273 53.1641C89.6628 53.1641 89.2572 53.1094 88.8105 53C88.3639 52.8861 88.0335 52.7539 87.8193 52.6035ZM97.8818 52.9316C97.6175 53.0775 97.2689 53.1504 96.8359 53.1504C95.61 53.1504 94.9971 52.4668 94.9971 51.0996V46.957H93.7939V46H94.9971V44.291L96.1182 43.9287V46H97.8818V46.957H96.1182V50.9014C96.1182 51.3708 96.1979 51.7057 96.3574 51.9062C96.5169 52.1068 96.7812 52.207 97.1504 52.207C97.4329 52.207 97.6768 52.1296 97.8818 51.9746V52.9316ZM104.39 53H103.269V51.9062H103.241C102.754 52.7448 102.036 53.1641 101.088 53.1641C100.391 53.1641 99.8438 52.9795 99.4473 52.6104C99.0553 52.2412 98.8594 51.7513 98.8594 51.1406C98.8594 49.8327 99.6296 49.0716 101.17 48.8574L103.269 48.5635C103.269 47.374 102.788 46.7793 101.826 46.7793C100.983 46.7793 100.222 47.0664 99.543 47.6406V46.4922C100.231 46.0547 101.024 45.8359 101.922 45.8359C103.567 45.8359 104.39 46.7064 104.39 48.4473V53ZM103.269 49.459L101.58 49.6914C101.061 49.7643 100.669 49.8942 100.404 50.0811C100.14 50.2633 100.008 50.5892 100.008 51.0586C100.008 51.4004 100.129 51.6807 100.37 51.8994C100.616 52.1136 100.942 52.2207 101.348 52.2207C101.904 52.2207 102.362 52.027 102.722 51.6396C103.086 51.2477 103.269 50.7533 103.269 50.1562V49.459ZM110.152 47.1348C109.956 46.9844 109.674 46.9092 109.305 46.9092C108.826 46.9092 108.425 47.1348 108.102 47.5859C107.783 48.0371 107.623 48.6523 107.623 49.4316V53H106.502V46H107.623V47.4424H107.65C107.81 46.9502 108.054 46.5674 108.382 46.2939C108.71 46.016 109.077 45.877 109.482 45.877C109.774 45.877 109.997 45.9089 110.152 45.9727V47.1348ZM115.026 52.9316C114.762 53.0775 114.413 53.1504 113.98 53.1504C112.755 53.1504 112.142 52.4668 112.142 51.0996V46.957H110.938V46H112.142V44.291L113.263 43.9287V46H115.026V46.957H113.263V50.9014C113.263 51.3708 113.342 51.7057 113.502 51.9062C113.661 52.1068 113.926 52.207 114.295 52.207C114.577 52.207 114.821 52.1296 115.026 51.9746V52.9316ZM125.376 53H124.255V51.9062H124.228C123.74 52.7448 123.022 53.1641 122.074 53.1641C121.377 53.1641 120.83 52.9795 120.434 52.6104C120.042 52.2412 119.846 51.7513 119.846 51.1406C119.846 49.8327 120.616 49.0716 122.156 48.8574L124.255 48.5635C124.255 47.374 123.774 46.7793 122.812 46.7793C121.969 46.7793 121.208 47.0664 120.529 47.6406V46.4922C121.217 46.0547 122.01 45.8359 122.908 45.8359C124.553 45.8359 125.376 46.7064 125.376 48.4473V53ZM124.255 49.459L122.566 49.6914C122.047 49.7643 121.655 49.8942 121.391 50.0811C121.126 50.2633 120.994 50.5892 120.994 51.0586C120.994 51.4004 121.115 51.6807 121.356 51.8994C121.603 52.1136 121.928 52.2207 122.334 52.2207C122.89 52.2207 123.348 52.027 123.708 51.6396C124.073 51.2477 124.255 50.7533 124.255 50.1562V49.459ZM136.102 52.6787C135.564 53.0023 134.926 53.1641 134.188 53.1641C133.189 53.1641 132.383 52.8405 131.768 52.1934C131.157 51.5417 130.852 50.6986 130.852 49.6641C130.852 48.5111 131.182 47.5859 131.843 46.8887C132.504 46.1868 133.385 45.8359 134.488 45.8359C135.104 45.8359 135.646 45.9499 136.115 46.1777V47.3262C135.596 46.9616 135.04 46.7793 134.447 46.7793C133.732 46.7793 133.144 47.0368 132.684 47.5518C132.228 48.0622 132 48.7344 132 49.5684C132 50.3887 132.214 51.0358 132.643 51.5098C133.076 51.9837 133.654 52.2207 134.379 52.2207C134.99 52.2207 135.564 52.0179 136.102 51.6123V52.6787ZM140.723 53.1641C139.688 53.1641 138.861 52.8382 138.241 52.1865C137.626 51.5303 137.318 50.6621 137.318 49.582C137.318 48.4062 137.64 47.488 138.282 46.8271C138.925 46.1663 139.793 45.8359 140.887 45.8359C141.93 45.8359 142.744 46.1572 143.327 46.7998C143.915 47.4424 144.209 48.3333 144.209 49.4727C144.209 50.5892 143.892 51.4847 143.259 52.1592C142.63 52.8291 141.785 53.1641 140.723 53.1641ZM140.805 46.7793C140.085 46.7793 139.515 47.0254 139.096 47.5176C138.676 48.0052 138.467 48.6797 138.467 49.541C138.467 50.3704 138.679 51.0244 139.103 51.5029C139.526 51.9814 140.094 52.2207 140.805 52.2207C141.529 52.2207 142.085 51.986 142.473 51.5166C142.865 51.0472 143.061 50.3796 143.061 49.5137C143.061 48.6387 142.865 47.9642 142.473 47.4902C142.085 47.0163 141.529 46.7793 140.805 46.7793ZM151.811 53H150.689V49.0078C150.689 47.5221 150.147 46.7793 149.062 46.7793C148.502 46.7793 148.037 46.9912 147.668 47.415C147.303 47.8343 147.121 48.3652 147.121 49.0078V53H146V46H147.121V47.1621H147.148C147.677 46.278 148.443 45.8359 149.445 45.8359C150.211 45.8359 150.797 46.0843 151.202 46.5811C151.608 47.0732 151.811 47.7865 151.811 48.7207V53ZM159.433 46L156.644 53H155.543L152.891 46H154.121L155.898 51.0859C156.031 51.4596 156.113 51.7855 156.145 52.0635H156.172C156.217 51.7126 156.29 51.3958 156.391 51.1133L158.25 46H159.433ZM166.187 49.7803H161.244C161.262 50.5596 161.472 51.1611 161.873 51.585C162.274 52.0088 162.826 52.2207 163.527 52.2207C164.316 52.2207 165.04 51.9609 165.701 51.4414V52.4941C165.086 52.9408 164.272 53.1641 163.261 53.1641C162.272 53.1641 161.495 52.8473 160.93 52.2139C160.365 51.5758 160.082 50.6803 160.082 49.5273C160.082 48.4382 160.39 47.5518 161.005 46.8682C161.625 46.18 162.393 45.8359 163.309 45.8359C164.225 45.8359 164.933 46.1322 165.435 46.7246C165.936 47.3171 166.187 48.1396 166.187 49.1924V49.7803ZM165.038 48.8301C165.034 48.1829 164.876 47.6794 164.566 47.3193C164.261 46.9593 163.835 46.7793 163.288 46.7793C162.759 46.7793 162.311 46.9684 161.941 47.3467C161.572 47.7249 161.344 48.2194 161.258 48.8301H165.038ZM171.539 47.1348C171.343 46.9844 171.061 46.9092 170.691 46.9092C170.213 46.9092 169.812 47.1348 169.488 47.5859C169.169 48.0371 169.01 48.6523 169.01 49.4316V53H167.889V46H169.01V47.4424H169.037C169.197 46.9502 169.44 46.5674 169.769 46.2939C170.097 46.016 170.464 45.877 170.869 45.877C171.161 45.877 171.384 45.9089 171.539 45.9727V47.1348ZM172.428 52.7471V51.5439C172.975 51.9951 173.581 52.2207 174.246 52.2207C175.135 52.2207 175.579 51.8926 175.579 51.2363C175.579 50.9629 175.481 50.7373 175.285 50.5596C175.089 50.3818 174.706 50.1699 174.137 49.9238C173.467 49.6276 173.016 49.3245 172.783 49.0146C172.555 48.7002 172.441 48.3151 172.441 47.8594C172.441 47.276 172.672 46.793 173.132 46.4102C173.592 46.0273 174.185 45.8359 174.909 45.8359C175.465 45.8359 175.964 45.9408 176.406 46.1504V47.2852C175.946 46.9479 175.417 46.7793 174.82 46.7793C174.447 46.7793 174.148 46.8704 173.925 47.0527C173.701 47.235 173.59 47.472 173.59 47.7637C173.59 48.0462 173.67 48.2741 173.829 48.4473C173.993 48.6204 174.358 48.8255 174.923 49.0625C175.611 49.3542 176.083 49.6595 176.338 49.9785C176.598 50.2975 176.728 50.6803 176.728 51.127C176.728 51.724 176.497 52.2139 176.037 52.5967C175.577 52.9749 174.952 53.1641 174.164 53.1641C173.499 53.1641 172.92 53.0251 172.428 52.7471ZM183.44 53H182.319V51.9062H182.292C181.804 52.7448 181.087 53.1641 180.139 53.1641C179.441 53.1641 178.895 52.9795 178.498 52.6104C178.106 52.2412 177.91 51.7513 177.91 51.1406C177.91 49.8327 178.68 49.0716 180.221 48.8574L182.319 48.5635C182.319 47.374 181.839 46.7793 180.877 46.7793C180.034 46.7793 179.273 47.0664 178.594 47.6406V46.4922C179.282 46.0547 180.075 45.8359 180.973 45.8359C182.618 45.8359 183.44 46.7064 183.44 48.4473V53ZM182.319 49.459L180.631 49.6914C180.111 49.7643 179.719 49.8942 179.455 50.0811C179.191 50.2633 179.059 50.5892 179.059 51.0586C179.059 51.4004 179.179 51.6807 179.421 51.8994C179.667 52.1136 179.993 52.2207 180.398 52.2207C180.954 52.2207 181.412 52.027 181.772 51.6396C182.137 51.2477 182.319 50.7533 182.319 50.1562V49.459ZM188.8 52.9316C188.535 53.0775 188.187 53.1504 187.754 53.1504C186.528 53.1504 185.915 52.4668 185.915 51.0996V46.957H184.712V46H185.915V44.291L187.036 43.9287V46H188.8V46.957H187.036V50.9014C187.036 51.3708 187.116 51.7057 187.275 51.9062C187.435 52.1068 187.699 52.207 188.068 52.207C188.351 52.207 188.595 52.1296 188.8 51.9746V52.9316ZM190.871 44.2227C190.671 44.2227 190.5 44.1543 190.358 44.0176C190.217 43.8809 190.146 43.7077 190.146 43.498C190.146 43.2884 190.217 43.1152 190.358 42.9785C190.5 42.8372 190.671 42.7666 190.871 42.7666C191.076 42.7666 191.249 42.8372 191.391 42.9785C191.536 43.1152 191.609 43.2884 191.609 43.498C191.609 43.6986 191.536 43.8695 191.391 44.0107C191.249 44.152 191.076 44.2227 190.871 44.2227ZM191.418 53H190.297V46H191.418V53ZM196.613 53.1641C195.579 53.1641 194.752 52.8382 194.132 52.1865C193.517 51.5303 193.209 50.6621 193.209 49.582C193.209 48.4062 193.53 47.488 194.173 46.8271C194.815 46.1663 195.684 45.8359 196.777 45.8359C197.821 45.8359 198.634 46.1572 199.218 46.7998C199.806 47.4424 200.1 48.3333 200.1 49.4727C200.1 50.5892 199.783 51.4847 199.149 52.1592C198.521 52.8291 197.675 53.1641 196.613 53.1641ZM196.695 46.7793C195.975 46.7793 195.406 47.0254 194.986 47.5176C194.567 48.0052 194.357 48.6797 194.357 49.541C194.357 50.3704 194.569 51.0244 194.993 51.5029C195.417 51.9814 195.984 52.2207 196.695 52.2207C197.42 52.2207 197.976 51.986 198.363 51.5166C198.755 51.0472 198.951 50.3796 198.951 49.5137C198.951 48.6387 198.755 47.9642 198.363 47.4902C197.976 47.0163 197.42 46.7793 196.695 46.7793ZM207.701 53H206.58V49.0078C206.58 47.5221 206.038 46.7793 204.953 46.7793C204.393 46.7793 203.928 46.9912 203.559 47.415C203.194 47.8343 203.012 48.3652 203.012 49.0078V53H201.891V46H203.012V47.1621H203.039C203.568 46.278 204.333 45.8359 205.336 45.8359C206.102 45.8359 206.687 46.0843 207.093 46.5811C207.498 47.0732 207.701 47.7865 207.701 48.7207V53ZM222.48 46L220.382 53H219.22L217.777 47.9893C217.723 47.7979 217.686 47.5814 217.668 47.3398H217.641C217.627 47.5039 217.579 47.7158 217.497 47.9756L215.932 53H214.811L212.691 46H213.867L215.316 51.2637C215.362 51.4232 215.394 51.6328 215.412 51.8926H215.467C215.48 51.6921 215.521 51.4779 215.59 51.25L217.203 46H218.229L219.678 51.2773C219.723 51.446 219.757 51.6556 219.78 51.9062H219.835C219.844 51.7285 219.883 51.5189 219.951 51.2773L221.373 46H222.48ZM224.354 44.2227C224.153 44.2227 223.982 44.1543 223.841 44.0176C223.7 43.8809 223.629 43.7077 223.629 43.498C223.629 43.2884 223.7 43.1152 223.841 42.9785C223.982 42.8372 224.153 42.7666 224.354 42.7666C224.559 42.7666 224.732 42.8372 224.873 42.9785C225.019 43.1152 225.092 43.2884 225.092 43.498C225.092 43.6986 225.019 43.8695 224.873 44.0107C224.732 44.152 224.559 44.2227 224.354 44.2227ZM224.9 53H223.779V46H224.9V53ZM230.417 52.9316C230.153 53.0775 229.804 53.1504 229.371 53.1504C228.145 53.1504 227.532 52.4668 227.532 51.0996V46.957H226.329V46H227.532V44.291L228.653 43.9287V46H230.417V46.957H228.653V50.9014C228.653 51.3708 228.733 51.7057 228.893 51.9062C229.052 52.1068 229.316 52.207 229.686 52.207C229.968 52.207 230.212 52.1296 230.417 51.9746V52.9316ZM237.725 53H236.604V48.9668C236.604 47.5085 236.061 46.7793 234.977 46.7793C234.43 46.7793 233.969 46.9912 233.596 47.415C233.222 47.8343 233.035 48.3743 233.035 49.0352V53H231.914V42.6367H233.035V47.1621H233.062C233.6 46.278 234.366 45.8359 235.359 45.8359C236.936 45.8359 237.725 46.7861 237.725 48.6865V53ZM243.262 52.7471V51.5439C243.809 51.9951 244.415 52.2207 245.08 52.2207C245.969 52.2207 246.413 51.8926 246.413 51.2363C246.413 50.9629 246.315 50.7373 246.119 50.5596C245.923 50.3818 245.54 50.1699 244.971 49.9238C244.301 49.6276 243.85 49.3245 243.617 49.0146C243.389 48.7002 243.275 48.3151 243.275 47.8594C243.275 47.276 243.506 46.793 243.966 46.4102C244.426 46.0273 245.019 45.8359 245.743 45.8359C246.299 45.8359 246.798 45.9408 247.24 46.1504V47.2852C246.78 46.9479 246.251 46.7793 245.654 46.7793C245.281 46.7793 244.982 46.8704 244.759 47.0527C244.535 47.235 244.424 47.472 244.424 47.7637C244.424 48.0462 244.504 48.2741 244.663 48.4473C244.827 48.6204 245.192 48.8255 245.757 49.0625C246.445 49.3542 246.917 49.6595 247.172 49.9785C247.432 50.2975 247.562 50.6803 247.562 51.127C247.562 51.724 247.331 52.2139 246.871 52.5967C246.411 52.9749 245.786 53.1641 244.998 53.1641C244.333 53.1641 243.754 53.0251 243.262 52.7471ZM252.189 53.1641C251.155 53.1641 250.328 52.8382 249.708 52.1865C249.093 51.5303 248.785 50.6621 248.785 49.582C248.785 48.4062 249.106 47.488 249.749 46.8271C250.392 46.1663 251.26 45.8359 252.354 45.8359C253.397 45.8359 254.211 46.1572 254.794 46.7998C255.382 47.4424 255.676 48.3333 255.676 49.4727C255.676 50.5892 255.359 51.4847 254.726 52.1592C254.097 52.8291 253.251 53.1641 252.189 53.1641ZM252.271 46.7793C251.551 46.7793 250.982 47.0254 250.562 47.5176C250.143 48.0052 249.934 48.6797 249.934 49.541C249.934 50.3704 250.146 51.0244 250.569 51.5029C250.993 51.9814 251.561 52.2207 252.271 52.2207C252.996 52.2207 253.552 51.986 253.939 51.5166C254.331 51.0472 254.527 50.3796 254.527 49.5137C254.527 48.6387 254.331 47.9642 253.939 47.4902C253.552 47.0163 252.996 46.7793 252.271 46.7793ZM267.406 53H266.285V48.9805C266.285 48.2057 266.164 47.6452 265.923 47.2988C265.686 46.9525 265.285 46.7793 264.72 46.7793C264.241 46.7793 263.833 46.998 263.496 47.4355C263.163 47.873 262.997 48.3971 262.997 49.0078V53H261.876V48.8438C261.876 47.4674 261.345 46.7793 260.283 46.7793C259.791 46.7793 259.385 46.9867 259.066 47.4014C258.747 47.8115 258.588 48.347 258.588 49.0078V53H257.467V46H258.588V47.1074H258.615C259.112 46.2598 259.837 45.8359 260.789 45.8359C261.268 45.8359 261.685 45.9704 262.04 46.2393C262.396 46.5036 262.639 46.8522 262.771 47.2852C263.291 46.319 264.066 45.8359 265.096 45.8359C266.636 45.8359 267.406 46.7861 267.406 48.6865V53ZM275.151 49.7803H270.209C270.227 50.5596 270.437 51.1611 270.838 51.585C271.239 52.0088 271.79 52.2207 272.492 52.2207C273.281 52.2207 274.005 51.9609 274.666 51.4414V52.4941C274.051 52.9408 273.237 53.1641 272.226 53.1641C271.237 53.1641 270.46 52.8473 269.895 52.2139C269.329 51.5758 269.047 50.6803 269.047 49.5273C269.047 48.4382 269.354 47.5518 269.97 46.8682C270.59 46.18 271.357 45.8359 272.273 45.8359C273.189 45.8359 273.898 46.1322 274.399 46.7246C274.901 47.3171 275.151 48.1396 275.151 49.1924V49.7803ZM274.003 48.8301C273.998 48.1829 273.841 47.6794 273.531 47.3193C273.226 46.9593 272.8 46.7793 272.253 46.7793C271.724 46.7793 271.275 46.9684 270.906 47.3467C270.537 47.7249 270.309 48.2194 270.223 48.8301H274.003ZM279.779 53.1641C278.745 53.1641 277.918 52.8382 277.298 52.1865C276.683 51.5303 276.375 50.6621 276.375 49.582C276.375 48.4062 276.696 47.488 277.339 46.8271C277.981 46.1663 278.85 45.8359 279.943 45.8359C280.987 45.8359 281.8 46.1572 282.384 46.7998C282.972 47.4424 283.266 48.3333 283.266 49.4727C283.266 50.5892 282.949 51.4847 282.315 52.1592C281.687 52.8291 280.841 53.1641 279.779 53.1641ZM279.861 46.7793C279.141 46.7793 278.572 47.0254 278.152 47.5176C277.733 48.0052 277.523 48.6797 277.523 49.541C277.523 50.3704 277.735 51.0244 278.159 51.5029C278.583 51.9814 279.15 52.2207 279.861 52.2207C280.586 52.2207 281.142 51.986 281.529 51.5166C281.921 51.0472 282.117 50.3796 282.117 49.5137C282.117 48.6387 281.921 47.9642 281.529 47.4902C281.142 47.0163 280.586 46.7793 279.861 46.7793ZM290.867 53H289.746V49.0078C289.746 47.5221 289.204 46.7793 288.119 46.7793C287.559 46.7793 287.094 46.9912 286.725 47.415C286.36 47.8343 286.178 48.3652 286.178 49.0078V53H285.057V46H286.178V47.1621H286.205C286.734 46.278 287.499 45.8359 288.502 45.8359C289.268 45.8359 289.853 46.0843 290.259 46.5811C290.664 47.0732 290.867 47.7865 290.867 48.7207V53ZM298.612 49.7803H293.67C293.688 50.5596 293.898 51.1611 294.299 51.585C294.7 52.0088 295.251 52.2207 295.953 52.2207C296.742 52.2207 297.466 51.9609 298.127 51.4414V52.4941C297.512 52.9408 296.698 53.1641 295.687 53.1641C294.698 53.1641 293.921 52.8473 293.355 52.2139C292.79 51.5758 292.508 50.6803 292.508 49.5273C292.508 48.4382 292.815 47.5518 293.431 46.8682C294.05 46.18 294.818 45.8359 295.734 45.8359C296.65 45.8359 297.359 46.1322 297.86 46.7246C298.362 47.3171 298.612 48.1396 298.612 49.1924V49.7803ZM297.464 48.8301C297.459 48.1829 297.302 47.6794 296.992 47.3193C296.687 46.9593 296.261 46.7793 295.714 46.7793C295.185 46.7793 294.736 46.9684 294.367 47.3467C293.998 47.7249 293.77 48.2194 293.684 48.8301H297.464ZM309.967 53H308.846V49.0078C308.846 47.5221 308.303 46.7793 307.219 46.7793C306.658 46.7793 306.193 46.9912 305.824 47.415C305.46 47.8343 305.277 48.3652 305.277 49.0078V53H304.156V46H305.277V47.1621H305.305C305.833 46.278 306.599 45.8359 307.602 45.8359C308.367 45.8359 308.953 46.0843 309.358 46.5811C309.764 47.0732 309.967 47.7865 309.967 48.7207V53ZM317.712 49.7803H312.77C312.788 50.5596 312.997 51.1611 313.398 51.585C313.799 52.0088 314.351 52.2207 315.053 52.2207C315.841 52.2207 316.566 51.9609 317.227 51.4414V52.4941C316.611 52.9408 315.798 53.1641 314.786 53.1641C313.797 53.1641 313.02 52.8473 312.455 52.2139C311.89 51.5758 311.607 50.6803 311.607 49.5273C311.607 48.4382 311.915 47.5518 312.53 46.8682C313.15 46.18 313.918 45.8359 314.834 45.8359C315.75 45.8359 316.459 46.1322 316.96 46.7246C317.461 47.3171 317.712 48.1396 317.712 49.1924V49.7803ZM316.563 48.8301C316.559 48.1829 316.402 47.6794 316.092 47.3193C315.786 46.9593 315.36 46.7793 314.813 46.7793C314.285 46.7793 313.836 46.9684 313.467 47.3467C313.098 47.7249 312.87 48.2194 312.783 48.8301H316.563ZM328.232 46L326.134 53H324.972L323.529 47.9893C323.475 47.7979 323.438 47.5814 323.42 47.3398H323.393C323.379 47.5039 323.331 47.7158 323.249 47.9756L321.684 53H320.562L318.443 46H319.619L321.068 51.2637C321.114 51.4232 321.146 51.6328 321.164 51.8926H321.219C321.232 51.6921 321.273 51.4779 321.342 51.25L322.955 46H323.98L325.43 51.2773C325.475 51.446 325.509 51.6556 325.532 51.9062H325.587C325.596 51.7285 325.635 51.5189 325.703 51.2773L327.125 46H328.232ZM336.62 52.9316C336.356 53.0775 336.007 53.1504 335.574 53.1504C334.348 53.1504 333.735 52.4668 333.735 51.0996V46.957H332.532V46H333.735V44.291L334.856 43.9287V46H336.62V46.957H334.856V50.9014C334.856 51.3708 334.936 51.7057 335.096 51.9062C335.255 52.1068 335.52 52.207 335.889 52.207C336.171 52.207 336.415 52.1296 336.62 51.9746V52.9316ZM340.934 53.1641C339.899 53.1641 339.072 52.8382 338.452 52.1865C337.837 51.5303 337.529 50.6621 337.529 49.582C337.529 48.4062 337.851 47.488 338.493 46.8271C339.136 46.1663 340.004 45.8359 341.098 45.8359C342.141 45.8359 342.955 46.1572 343.538 46.7998C344.126 47.4424 344.42 48.3333 344.42 49.4727C344.42 50.5892 344.103 51.4847 343.47 52.1592C342.841 52.8291 341.995 53.1641 340.934 53.1641ZM341.016 46.7793C340.296 46.7793 339.726 47.0254 339.307 47.5176C338.887 48.0052 338.678 48.6797 338.678 49.541C338.678 50.3704 338.89 51.0244 339.313 51.5029C339.737 51.9814 340.305 52.2207 341.016 52.2207C341.74 52.2207 342.296 51.986 342.684 51.5166C343.076 51.0472 343.271 50.3796 343.271 49.5137C343.271 48.6387 343.076 47.9642 342.684 47.4902C342.296 47.0163 341.74 46.7793 341.016 46.7793ZM361.824 43.1973L359.056 53H357.709L355.692 45.8359C355.606 45.5306 355.553 45.1979 355.535 44.8379H355.508C355.48 45.1751 355.421 45.5033 355.33 45.8223L353.3 53H351.967L349.096 43.1973H350.36L352.445 50.7168C352.532 51.0312 352.587 51.3594 352.609 51.7012H352.644C352.666 51.4596 352.737 51.1315 352.855 50.7168L355.022 43.1973H356.123L358.201 50.7715C358.274 51.0312 358.329 51.3366 358.365 51.6875H358.393C358.411 51.4505 358.472 51.1361 358.577 50.7441L360.58 43.1973H361.824ZM368.421 49.7803H363.479C363.497 50.5596 363.706 51.1611 364.107 51.585C364.508 52.0088 365.06 52.2207 365.762 52.2207C366.55 52.2207 367.275 51.9609 367.936 51.4414V52.4941C367.32 52.9408 366.507 53.1641 365.495 53.1641C364.506 53.1641 363.729 52.8473 363.164 52.2139C362.599 51.5758 362.316 50.6803 362.316 49.5273C362.316 48.4382 362.624 47.5518 363.239 46.8682C363.859 46.18 364.627 45.8359 365.543 45.8359C366.459 45.8359 367.168 46.1322 367.669 46.7246C368.17 47.3171 368.421 48.1396 368.421 49.1924V49.7803ZM367.272 48.8301C367.268 48.1829 367.111 47.6794 366.801 47.3193C366.495 46.9593 366.069 46.7793 365.522 46.7793C364.994 46.7793 364.545 46.9684 364.176 47.3467C363.807 47.7249 363.579 48.2194 363.492 48.8301H367.272ZM371.271 51.9883H371.244V53H370.123V42.6367H371.244V47.2305H371.271C371.823 46.3008 372.63 45.8359 373.691 45.8359C374.589 45.8359 375.291 46.1504 375.797 46.7793C376.307 47.4036 376.562 48.2422 376.562 49.2949C376.562 50.4661 376.278 51.4049 375.708 52.1113C375.138 52.8132 374.359 53.1641 373.37 53.1641C372.445 53.1641 371.745 52.7721 371.271 51.9883ZM371.244 49.165V50.1426C371.244 50.7214 371.431 51.2135 371.805 51.6191C372.183 52.0202 372.661 52.2207 373.24 52.2207C373.919 52.2207 374.45 51.9609 374.833 51.4414C375.22 50.9219 375.414 50.1995 375.414 49.2744C375.414 48.4951 375.234 47.8844 374.874 47.4424C374.514 47.0003 374.026 46.7793 373.411 46.7793C372.759 46.7793 372.235 47.0072 371.839 47.4629C371.442 47.9141 371.244 48.4814 371.244 49.165ZM383.979 49.7803H379.037C379.055 50.5596 379.265 51.1611 379.666 51.585C380.067 52.0088 380.618 52.2207 381.32 52.2207C382.109 52.2207 382.833 51.9609 383.494 51.4414V52.4941C382.879 52.9408 382.065 53.1641 381.054 53.1641C380.065 53.1641 379.288 52.8473 378.723 52.2139C378.158 51.5758 377.875 50.6803 377.875 49.5273C377.875 48.4382 378.183 47.5518 378.798 46.8682C379.418 46.18 380.186 45.8359 381.102 45.8359C382.018 45.8359 382.726 46.1322 383.228 46.7246C383.729 47.3171 383.979 48.1396 383.979 49.1924V49.7803ZM382.831 48.8301C382.826 48.1829 382.669 47.6794 382.359 47.3193C382.054 46.9593 381.628 46.7793 381.081 46.7793C380.552 46.7793 380.104 46.9684 379.734 47.3467C379.365 47.7249 379.137 48.2194 379.051 48.8301H382.831ZM390.795 46L388.443 49.541L390.754 53H389.448L388.074 50.7305C387.988 50.5892 387.885 50.4115 387.767 50.1973H387.739C387.716 50.2383 387.609 50.416 387.418 50.7305L386.017 53H384.725L387.11 49.5684L384.827 46H386.133L387.486 48.3926C387.587 48.5703 387.685 48.7526 387.78 48.9395H387.808L389.558 46H390.795ZM392.497 53.1504C392.287 53.1504 392.107 53.0752 391.957 52.9248C391.811 52.7744 391.738 52.5944 391.738 52.3848C391.738 52.1751 391.811 51.9951 391.957 51.8447C392.107 51.6898 392.287 51.6123 392.497 51.6123C392.711 51.6123 392.894 51.6898 393.044 51.8447C393.194 51.9951 393.27 52.1751 393.27 52.3848C393.27 52.5944 393.194 52.7744 393.044 52.9248C392.894 53.0752 392.711 53.1504 392.497 53.1504Z" fill="white" fill-opacity="0.7"/>
<path d="M151.991 29H148.881V10.7949H151.991V29ZM167.733 29H164.788V21.6748C164.788 19.2458 163.929 18.0312 162.211 18.0312C161.314 18.0312 160.573 18.3698 159.989 19.0469C159.405 19.7155 159.113 20.5618 159.113 21.5859V29H156.155V16H159.113V18.1582H159.164C160.137 16.5163 161.542 15.6953 163.379 15.6953C164.792 15.6953 165.871 16.1566 166.616 17.0791C167.361 17.9932 167.733 19.3177 167.733 21.0527V29ZM182.536 16L177.509 29H174.322L169.536 16H172.735L175.617 25.0898C175.837 25.7585 175.973 26.3424 176.023 26.8418H176.062C176.138 26.2155 176.256 25.6484 176.417 25.1406L179.438 16H182.536ZM186.027 13.2705C185.545 13.2705 185.13 13.1139 184.783 12.8008C184.445 12.4876 184.275 12.0898 184.275 11.6074C184.275 11.125 184.445 10.723 184.783 10.4014C185.13 10.0798 185.545 9.91895 186.027 9.91895C186.527 9.91895 186.95 10.0798 187.297 10.4014C187.644 10.723 187.817 11.125 187.817 11.6074C187.817 12.0645 187.644 12.458 187.297 12.7881C186.95 13.1097 186.527 13.2705 186.027 13.2705ZM187.487 29H184.542V16H187.487V29ZM198.202 28.8604C197.627 29.1481 196.869 29.292 195.93 29.292C193.408 29.292 192.146 28.0817 192.146 25.6611V18.3105H189.976V16H192.146V12.9912L195.092 12.1533V16H198.202V18.3105H195.092V24.8105C195.092 25.5807 195.231 26.1309 195.511 26.4609C195.79 26.791 196.256 26.9561 196.907 26.9561C197.407 26.9561 197.838 26.8122 198.202 26.5244V28.8604ZM211.596 23.2998H202.734C202.768 24.5016 203.136 25.4284 203.839 26.0801C204.55 26.7318 205.523 27.0576 206.759 27.0576C208.147 27.0576 209.421 26.6429 210.58 25.8135V28.1875C209.395 28.9323 207.829 29.3047 205.883 29.3047C203.97 29.3047 202.468 28.7165 201.376 27.54C200.293 26.3551 199.751 24.6921 199.751 22.5508C199.751 20.528 200.348 18.8818 201.541 17.6123C202.743 16.3343 204.232 15.6953 206.01 15.6953C207.787 15.6953 209.162 16.2666 210.136 17.4092C211.109 18.5518 211.596 20.1387 211.596 22.1699V23.2998ZM208.752 21.2178C208.743 20.1598 208.494 19.3389 208.003 18.7549C207.512 18.1624 206.835 17.8662 205.972 17.8662C205.125 17.8662 204.406 18.1751 203.813 18.793C203.229 19.4108 202.87 20.2191 202.734 21.2178H208.752ZM228.417 28.8604C227.841 29.1481 227.084 29.292 226.145 29.292C223.622 29.292 222.361 28.0817 222.361 25.6611V18.3105H220.19V16H222.361V12.9912L225.307 12.1533V16H228.417V18.3105H225.307V24.8105C225.307 25.5807 225.446 26.1309 225.726 26.4609C226.005 26.791 226.47 26.9561 227.122 26.9561C227.621 26.9561 228.053 26.8122 228.417 26.5244V28.8604ZM236.567 29.3047C234.562 29.3047 232.958 28.6995 231.756 27.4893C230.562 26.2705 229.966 24.6582 229.966 22.6523C229.966 20.4688 230.588 18.7633 231.832 17.5361C233.085 16.3089 234.769 15.6953 236.885 15.6953C238.916 15.6953 240.499 16.292 241.633 17.4854C242.767 18.6787 243.334 20.3333 243.334 22.4492C243.334 24.5228 242.72 26.1859 241.493 27.4385C240.274 28.6826 238.632 29.3047 236.567 29.3047ZM236.707 18.0439C235.556 18.0439 234.646 18.446 233.978 19.25C233.309 20.054 232.975 21.1628 232.975 22.5762C232.975 23.9388 233.313 25.0137 233.99 25.8008C234.667 26.5794 235.573 26.9688 236.707 26.9688C237.867 26.9688 238.755 26.5837 239.373 25.8135C239.999 25.0433 240.312 23.9473 240.312 22.5254C240.312 21.0951 239.999 19.9906 239.373 19.2119C238.755 18.4333 237.867 18.0439 236.707 18.0439ZM276.418 10.7949L271.429 29H268.014L264.548 16.2666C264.404 15.7249 264.315 15.1325 264.281 14.4893H264.23C264.188 15.0902 264.087 15.6742 263.926 16.2412L260.447 29H256.956L251.865 10.7949H255.179L258.479 24.125C258.615 24.6836 258.7 25.2676 258.733 25.877H258.797C258.831 25.4453 258.949 24.8613 259.152 24.125L262.885 10.7949H265.995L269.448 24.2266C269.567 24.6836 269.656 25.2253 269.715 25.8516H269.766C269.791 25.4284 269.888 24.8698 270.058 24.1758L273.295 10.7949H276.418ZM288.961 23.2998H280.1C280.133 24.5016 280.502 25.4284 281.204 26.0801C281.915 26.7318 282.888 27.0576 284.124 27.0576C285.512 27.0576 286.786 26.6429 287.945 25.8135V28.1875C286.76 28.9323 285.195 29.3047 283.248 29.3047C281.335 29.3047 279.833 28.7165 278.741 27.54C277.658 26.3551 277.116 24.6921 277.116 22.5508C277.116 20.528 277.713 18.8818 278.906 17.6123C280.108 16.3343 281.598 15.6953 283.375 15.6953C285.152 15.6953 286.528 16.2666 287.501 17.4092C288.474 18.5518 288.961 20.1387 288.961 22.1699V23.2998ZM286.117 21.2178C286.109 20.1598 285.859 19.3389 285.368 18.7549C284.877 18.1624 284.2 17.8662 283.337 17.8662C282.491 17.8662 281.771 18.1751 281.179 18.793C280.595 19.4108 280.235 20.2191 280.1 21.2178H286.117ZM294.763 27.1211H294.712V29H291.767V9.75391H294.712V18.2852H294.763C295.77 16.5586 297.243 15.6953 299.181 15.6953C300.823 15.6953 302.105 16.2793 303.027 17.4473C303.958 18.6068 304.424 20.1641 304.424 22.1191C304.424 24.2943 303.903 26.0378 302.862 27.3496C301.821 28.653 300.399 29.3047 298.597 29.3047C296.904 29.3047 295.626 28.5768 294.763 27.1211ZM294.687 21.9541V23.5664C294.687 24.5143 294.987 25.3184 295.588 25.9785C296.197 26.6387 296.967 26.9688 297.898 26.9688C298.99 26.9688 299.845 26.5456 300.463 25.6992C301.089 24.8444 301.402 23.6553 301.402 22.1318C301.402 20.8538 301.11 19.8551 300.526 19.1357C299.951 18.4079 299.168 18.0439 298.178 18.0439C297.128 18.0439 296.282 18.4163 295.639 19.1611C295.004 19.9059 294.687 20.8369 294.687 21.9541ZM318.439 23.2998H309.578C309.612 24.5016 309.98 25.4284 310.683 26.0801C311.394 26.7318 312.367 27.0576 313.603 27.0576C314.991 27.0576 316.264 26.6429 317.424 25.8135V28.1875C316.239 28.9323 314.673 29.3047 312.727 29.3047C310.814 29.3047 309.312 28.7165 308.22 27.54C307.136 26.3551 306.595 24.6921 306.595 22.5508C306.595 20.528 307.191 18.8818 308.385 17.6123C309.587 16.3343 311.076 15.6953 312.854 15.6953C314.631 15.6953 316.006 16.2666 316.979 17.4092C317.953 18.5518 318.439 20.1387 318.439 22.1699V23.2998ZM315.596 21.2178C315.587 20.1598 315.338 19.3389 314.847 18.7549C314.356 18.1624 313.679 17.8662 312.815 17.8662C311.969 17.8662 311.25 18.1751 310.657 18.793C310.073 19.4108 309.714 20.2191 309.578 21.2178H315.596ZM332.112 16L327.783 22.5762L332.062 29H328.646L326.361 24.9756C326.217 24.7301 326.048 24.417 325.854 24.0361H325.803C325.769 24.1123 325.591 24.4255 325.27 24.9756L322.946 29H319.544L323.962 22.627L319.772 16H323.2L325.447 20.2275C325.617 20.5407 325.782 20.8623 325.942 21.1924H325.98L328.888 16H332.112Z" fill="white" fill-opacity="0.95"/>
<defs>
<linearGradient id="paint0_linear_4766_483428" x1="240" y1="236.114" x2="240" y2="368.42" gradientUnits="userSpaceOnUse">
<stop stop-color="#93C437"/>
<stop offset="1" stop-color="#279BE8"/>
</linearGradient>
</defs>
</svg>
