<svg width="600" height="214" viewBox="0 0 600 214" fill="none" xmlns="http://www.w3.org/2000/svg">
<path d="M148.977 29H138.896V10.7949H141.918V26.4482H148.977V29ZM162.294 23.2998H153.433C153.466 24.5016 153.835 25.4284 154.537 26.0801C155.248 26.7318 156.221 27.0576 157.457 27.0576C158.845 27.0576 160.119 26.6429 161.278 25.8135V28.1875C160.093 28.9323 158.528 29.3047 156.581 29.3047C154.668 29.3047 153.166 28.7165 152.074 27.54C150.991 26.3551 150.449 24.6921 150.449 22.5508C150.449 20.528 151.046 18.8818 152.239 17.6123C153.441 16.3343 154.931 15.6953 156.708 15.6953C158.485 15.6953 159.861 16.2666 160.834 17.4092C161.807 18.5518 162.294 20.1387 162.294 22.1699V23.2998ZM159.45 21.2178C159.442 20.1598 159.192 19.3389 158.701 18.7549C158.21 18.1624 157.533 17.8662 156.67 17.8662C155.824 17.8662 155.104 18.1751 154.512 18.793C153.928 19.4108 153.568 20.2191 153.433 21.2178H159.45ZM171.955 28.8604C171.38 29.1481 170.622 29.292 169.683 29.292C167.16 29.292 165.899 28.0817 165.899 25.6611V18.3105H163.729V16H165.899V12.9912L168.845 12.1533V16H171.955V18.3105H168.845V24.8105C168.845 25.5807 168.984 26.1309 169.264 26.4609C169.543 26.791 170.008 26.9561 170.66 26.9561C171.16 26.9561 171.591 26.8122 171.955 26.5244V28.8604ZM177.998 10.4395L175.929 16.0889H173.986L175.421 10.4395H177.998ZM178.582 28.5938V25.8643C179.682 26.7021 180.897 27.1211 182.226 27.1211C184.003 27.1211 184.892 26.5964 184.892 25.5469C184.892 25.2507 184.815 25.001 184.663 24.7979C184.511 24.5863 184.303 24.4001 184.041 24.2393C183.787 24.0785 183.482 23.9346 183.127 23.8076C182.78 23.6807 182.391 23.5368 181.959 23.376C181.426 23.1644 180.943 22.9401 180.512 22.7031C180.089 22.4661 179.733 22.1995 179.445 21.9033C179.166 21.5986 178.954 21.2559 178.811 20.875C178.667 20.4941 178.595 20.0498 178.595 19.542C178.595 18.9157 178.743 18.3656 179.039 17.8916C179.335 17.4092 179.733 17.0072 180.232 16.6855C180.732 16.3555 181.299 16.11 181.934 15.9492C182.568 15.7799 183.224 15.6953 183.901 15.6953C185.103 15.6953 186.178 15.8773 187.126 16.2412V18.8184C186.212 18.1921 185.162 17.8789 183.978 17.8789C183.605 17.8789 183.267 17.917 182.962 17.9932C182.666 18.0693 182.412 18.1751 182.2 18.3105C181.989 18.446 181.824 18.611 181.705 18.8057C181.587 18.9919 181.527 19.1992 181.527 19.4277C181.527 19.707 181.587 19.944 181.705 20.1387C181.824 20.3333 181.997 20.5068 182.226 20.6592C182.463 20.8031 182.742 20.9385 183.063 21.0654C183.394 21.1839 183.77 21.3151 184.193 21.459C184.752 21.6875 185.251 21.9202 185.691 22.1572C186.14 22.3942 186.521 22.665 186.834 22.9697C187.147 23.266 187.388 23.613 187.558 24.0107C187.727 24.4001 187.812 24.8656 187.812 25.4072C187.812 26.0674 187.659 26.6429 187.354 27.1338C187.05 27.6247 186.644 28.0309 186.136 28.3525C185.628 28.6742 185.04 28.9111 184.371 29.0635C183.711 29.2243 183.013 29.3047 182.276 29.3047C180.854 29.3047 179.623 29.0677 178.582 28.5938ZM209.609 27.959C209.609 32.7324 207.21 35.1191 202.411 35.1191C200.718 35.1191 199.242 34.8356 197.98 34.2686V31.5771C199.402 32.3896 200.752 32.7959 202.03 32.7959C205.119 32.7959 206.664 31.2767 206.664 28.2383V26.8164H206.613C205.64 28.4753 204.176 29.3047 202.221 29.3047C200.638 29.3047 199.36 28.7292 198.387 27.5781C197.422 26.4186 196.939 24.8656 196.939 22.9189C196.939 20.71 197.46 18.9538 198.501 17.6504C199.542 16.347 200.972 15.6953 202.792 15.6953C204.51 15.6953 205.784 16.3978 206.613 17.8027H206.664V16H209.609V27.959ZM206.689 23.0459V21.3574C206.689 20.4434 206.385 19.6647 205.775 19.0215C205.174 18.3698 204.421 18.0439 203.516 18.0439C202.398 18.0439 201.522 18.4587 200.888 19.2881C200.261 20.109 199.948 21.2601 199.948 22.7412C199.948 24.0192 200.249 25.0433 200.85 25.8135C201.459 26.5752 202.263 26.9561 203.262 26.9561C204.277 26.9561 205.103 26.5921 205.737 25.8643C206.372 25.1279 206.689 24.1885 206.689 23.0459ZM224.45 23.2998H215.589C215.623 24.5016 215.991 25.4284 216.693 26.0801C217.404 26.7318 218.378 27.0576 219.613 27.0576C221.001 27.0576 222.275 26.6429 223.435 25.8135V28.1875C222.25 28.9323 220.684 29.3047 218.737 29.3047C216.825 29.3047 215.322 28.7165 214.23 27.54C213.147 26.3551 212.605 24.6921 212.605 22.5508C212.605 20.528 213.202 18.8818 214.396 17.6123C215.597 16.3343 217.087 15.6953 218.864 15.6953C220.642 15.6953 222.017 16.2666 222.99 17.4092C223.964 18.5518 224.45 20.1387 224.45 22.1699V23.2998ZM221.606 21.2178C221.598 20.1598 221.348 19.3389 220.857 18.7549C220.367 18.1624 219.689 17.8662 218.826 17.8662C217.98 17.8662 217.26 18.1751 216.668 18.793C216.084 19.4108 215.724 20.2191 215.589 21.2178H221.606ZM234.111 28.8604C233.536 29.1481 232.778 29.292 231.839 29.292C229.317 29.292 228.056 28.0817 228.056 25.6611V18.3105H225.885V16H228.056V12.9912L231.001 12.1533V16H234.111V18.3105H231.001V24.8105C231.001 25.5807 231.141 26.1309 231.42 26.4609C231.699 26.791 232.165 26.9561 232.816 26.9561C233.316 26.9561 233.747 26.8122 234.111 26.5244V28.8604ZM255.071 16L249.206 31.082C247.987 33.7734 246.278 35.1191 244.077 35.1191C243.459 35.1191 242.943 35.0641 242.528 34.9541V32.5039C242.994 32.6562 243.417 32.7324 243.798 32.7324C244.898 32.7324 245.719 32.1908 246.261 31.1074L247.137 28.9746L241.97 16H245.232L248.33 25.4453C248.364 25.5638 248.44 25.877 248.559 26.3848H248.622C248.664 26.1901 248.741 25.8854 248.851 25.4707L252.101 16H255.071ZM262.6 29.3047C260.594 29.3047 258.99 28.6995 257.788 27.4893C256.595 26.2705 255.998 24.6582 255.998 22.6523C255.998 20.4688 256.62 18.7633 257.864 17.5361C259.117 16.3089 260.801 15.6953 262.917 15.6953C264.948 15.6953 266.531 16.292 267.665 17.4854C268.799 18.6787 269.366 20.3333 269.366 22.4492C269.366 24.5228 268.753 26.1859 267.525 27.4385C266.307 28.6826 264.665 29.3047 262.6 29.3047ZM262.739 18.0439C261.588 18.0439 260.678 18.446 260.01 19.25C259.341 20.054 259.007 21.1628 259.007 22.5762C259.007 23.9388 259.345 25.0137 260.022 25.8008C260.7 26.5794 261.605 26.9688 262.739 26.9688C263.899 26.9688 264.787 26.5837 265.405 25.8135C266.032 25.0433 266.345 23.9473 266.345 22.5254C266.345 21.0951 266.032 19.9906 265.405 19.2119C264.787 18.4333 263.899 18.0439 262.739 18.0439ZM283.712 29H280.767V26.9434H280.716C279.861 28.5176 278.532 29.3047 276.729 29.3047C273.657 29.3047 272.121 27.4596 272.121 23.7695V16H275.066V23.4648C275.066 25.8008 275.968 26.9688 277.771 26.9688C278.642 26.9688 279.357 26.6471 279.916 26.0039C280.483 25.3607 280.767 24.5186 280.767 23.4775V16H283.712V29ZM314.155 29H311.21V21.916C311.21 20.5534 311.015 19.5674 310.626 18.958C310.245 18.3486 309.598 18.0439 308.684 18.0439C307.913 18.0439 307.257 18.429 306.716 19.1992C306.183 19.9694 305.916 20.8919 305.916 21.9668V29H302.958V21.6748C302.958 19.2542 302.103 18.0439 300.394 18.0439C299.598 18.0439 298.942 18.4079 298.426 19.1357C297.918 19.8636 297.664 20.8073 297.664 21.9668V29H294.719V16H297.664V18.0566H297.715C298.654 16.4824 300.021 15.6953 301.815 15.6953C302.713 15.6953 303.495 15.945 304.164 16.4443C304.841 16.9352 305.302 17.5827 305.548 18.3867C306.513 16.5924 307.951 15.6953 309.864 15.6953C312.725 15.6953 314.155 17.46 314.155 20.9893V29ZM328.755 23.2998H319.894C319.927 24.5016 320.296 25.4284 320.998 26.0801C321.709 26.7318 322.682 27.0576 323.918 27.0576C325.306 27.0576 326.58 26.6429 327.739 25.8135V28.1875C326.554 28.9323 324.989 29.3047 323.042 29.3047C321.129 29.3047 319.627 28.7165 318.535 27.54C317.452 26.3551 316.91 24.6921 316.91 22.5508C316.91 20.528 317.507 18.8818 318.7 17.6123C319.902 16.3343 321.392 15.6953 323.169 15.6953C324.946 15.6953 326.322 16.2666 327.295 17.4092C328.268 18.5518 328.755 20.1387 328.755 22.1699V23.2998ZM325.911 21.2178C325.903 20.1598 325.653 19.3389 325.162 18.7549C324.671 18.1624 323.994 17.8662 323.131 17.8662C322.285 17.8662 321.565 18.1751 320.973 18.793C320.389 19.4108 320.029 20.2191 319.894 21.2178H325.911ZM342.567 23.2998H333.706C333.74 24.5016 334.108 25.4284 334.811 26.0801C335.521 26.7318 336.495 27.0576 337.73 27.0576C339.118 27.0576 340.392 26.6429 341.552 25.8135V28.1875C340.367 28.9323 338.801 29.3047 336.854 29.3047C334.942 29.3047 333.439 28.7165 332.348 27.54C331.264 26.3551 330.723 24.6921 330.723 22.5508C330.723 20.528 331.319 18.8818 332.513 17.6123C333.715 16.3343 335.204 15.6953 336.981 15.6953C338.759 15.6953 340.134 16.2666 341.107 17.4092C342.081 18.5518 342.567 20.1387 342.567 22.1699V23.2998ZM339.724 21.2178C339.715 20.1598 339.465 19.3389 338.975 18.7549C338.484 18.1624 337.807 17.8662 336.943 17.8662C336.097 17.8662 335.378 18.1751 334.785 18.793C334.201 19.4108 333.841 20.2191 333.706 21.2178H339.724ZM352.229 28.8604C351.653 29.1481 350.896 29.292 349.956 29.292C347.434 29.292 346.173 28.0817 346.173 25.6611V18.3105H344.002V16H346.173V12.9912L349.118 12.1533V16H352.229V18.3105H349.118V24.8105C349.118 25.5807 349.258 26.1309 349.537 26.4609C349.816 26.791 350.282 26.9561 350.934 26.9561C351.433 26.9561 351.865 26.8122 352.229 26.5244V28.8604ZM356.253 13.2705C355.771 13.2705 355.356 13.1139 355.009 12.8008C354.67 12.4876 354.501 12.0898 354.501 11.6074C354.501 11.125 354.67 10.723 355.009 10.4014C355.356 10.0798 355.771 9.91895 356.253 9.91895C356.752 9.91895 357.175 10.0798 357.522 10.4014C357.869 10.723 358.043 11.125 358.043 11.6074C358.043 12.0645 357.869 12.458 357.522 12.7881C357.175 13.1097 356.752 13.2705 356.253 13.2705ZM357.713 29H354.768V16H357.713V29ZM373.15 29H370.205V21.6748C370.205 19.2458 369.346 18.0312 367.628 18.0312C366.731 18.0312 365.99 18.3698 365.406 19.0469C364.822 19.7155 364.53 20.5618 364.53 21.5859V29H361.572V16H364.53V18.1582H364.581C365.554 16.5163 366.959 15.6953 368.796 15.6953C370.209 15.6953 371.288 16.1566 372.033 17.0791C372.778 17.9932 373.15 19.3177 373.15 21.0527V29ZM388.588 27.959C388.588 32.7324 386.188 35.1191 381.39 35.1191C379.697 35.1191 378.22 34.8356 376.959 34.2686V31.5771C378.381 32.3896 379.731 32.7959 381.009 32.7959C384.098 32.7959 385.643 31.2767 385.643 28.2383V26.8164H385.592C384.618 28.4753 383.154 29.3047 381.199 29.3047C379.617 29.3047 378.339 28.7292 377.365 27.5781C376.4 26.4186 375.918 24.8656 375.918 22.9189C375.918 20.71 376.438 18.9538 377.479 17.6504C378.521 16.347 379.951 15.6953 381.771 15.6953C383.489 15.6953 384.762 16.3978 385.592 17.8027H385.643V16H388.588V27.959ZM385.668 23.0459V21.3574C385.668 20.4434 385.363 19.6647 384.754 19.0215C384.153 18.3698 383.4 18.0439 382.494 18.0439C381.377 18.0439 380.501 18.4587 379.866 19.2881C379.24 20.109 378.927 21.2601 378.927 22.7412C378.927 24.0192 379.227 25.0433 379.828 25.8135C380.438 26.5752 381.242 26.9561 382.24 26.9561C383.256 26.9561 384.081 26.5921 384.716 25.8643C385.351 25.1279 385.668 24.1885 385.668 23.0459ZM407.123 18.8057C406.768 18.5264 406.256 18.3867 405.587 18.3867C404.715 18.3867 403.987 18.7803 403.403 19.5674C402.819 20.3545 402.527 21.4251 402.527 22.7793V29H399.582V16H402.527V18.6787H402.578C402.866 17.7646 403.306 17.0537 403.898 16.5459C404.499 16.0296 405.168 15.7715 405.904 15.7715C406.438 15.7715 406.844 15.8519 407.123 16.0127V18.8057ZM419.983 23.2998H411.122C411.156 24.5016 411.524 25.4284 412.227 26.0801C412.938 26.7318 413.911 27.0576 415.146 27.0576C416.535 27.0576 417.808 26.6429 418.968 25.8135V28.1875C417.783 28.9323 416.217 29.3047 414.271 29.3047C412.358 29.3047 410.855 28.7165 409.764 27.54C408.68 26.3551 408.139 24.6921 408.139 22.5508C408.139 20.528 408.735 18.8818 409.929 17.6123C411.131 16.3343 412.62 15.6953 414.397 15.6953C416.175 15.6953 417.55 16.2666 418.523 17.4092C419.497 18.5518 419.983 20.1387 419.983 22.1699V23.2998ZM417.14 21.2178C417.131 20.1598 416.882 19.3389 416.391 18.7549C415.9 18.1624 415.223 17.8662 414.359 17.8662C413.513 17.8662 412.794 18.1751 412.201 18.793C411.617 19.4108 411.257 20.2191 411.122 21.2178H417.14ZM432.768 29H429.911V26.9688H429.86C428.963 28.526 427.647 29.3047 425.912 29.3047C424.634 29.3047 423.631 28.9577 422.903 28.2637C422.184 27.5697 421.824 26.6514 421.824 25.5088C421.824 23.0544 423.238 21.624 426.064 21.2178L429.924 20.6719C429.924 18.8184 429.044 17.8916 427.283 17.8916C425.734 17.8916 424.338 18.4248 423.094 19.4912V16.9141C424.465 16.1016 426.048 15.6953 427.842 15.6953C431.126 15.6953 432.768 17.3118 432.768 20.5449V29ZM429.924 22.6143L427.194 22.9951C426.348 23.1051 425.709 23.3125 425.277 23.6172C424.854 23.9134 424.643 24.4382 424.643 25.1914C424.643 25.7415 424.837 26.1943 425.227 26.5498C425.624 26.8968 426.153 27.0703 426.813 27.0703C427.711 27.0703 428.451 26.7572 429.035 26.1309C429.628 25.4961 429.924 24.7005 429.924 23.7441V22.6143ZM448.192 29H445.247V26.791H445.196C444.248 28.4668 442.788 29.3047 440.816 29.3047C439.217 29.3047 437.935 28.7249 436.97 27.5654C436.013 26.3975 435.535 24.8105 435.535 22.8047C435.535 20.6549 436.064 18.9326 437.122 17.6377C438.188 16.3428 439.606 15.6953 441.375 15.6953C443.127 15.6953 444.401 16.3978 445.196 17.8027H445.247V9.75391H448.192V29ZM445.285 23.0586V21.3574C445.285 20.4349 444.985 19.652 444.384 19.0088C443.783 18.3656 443.017 18.0439 442.086 18.0439C440.986 18.0439 440.118 18.4544 439.483 19.2754C438.857 20.0964 438.544 21.2347 438.544 22.6904C438.544 24.0107 438.844 25.056 439.445 25.8262C440.055 26.5879 440.871 26.9688 441.896 26.9688C442.903 26.9688 443.719 26.6006 444.346 25.8643C444.972 25.1195 445.285 24.1842 445.285 23.0586ZM463.3 16L457.435 31.082C456.216 33.7734 454.506 35.1191 452.306 35.1191C451.688 35.1191 451.172 35.0641 450.757 34.9541V32.5039C451.222 32.6562 451.646 32.7324 452.026 32.7324C453.127 32.7324 453.948 32.1908 454.489 31.1074L455.365 28.9746L450.198 16H453.461L456.559 25.4453C456.592 25.5638 456.669 25.877 456.787 26.3848H456.851C456.893 26.1901 456.969 25.8854 457.079 25.4707L460.329 16H463.3Z" fill="white" fill-opacity="0.95"/>
<rect y="60" width="296" height="154" rx="12" fill="white" fill-opacity="0.07"/>
<path d="M160.92 85.5115C160.655 85.3495 160.351 85.2606 160.04 85.2537C159.729 85.2469 159.422 85.3223 159.15 85.4724L155.752 87.6335V86.0007C155.751 84.7414 155.25 83.534 154.359 82.6436C153.469 81.7531 152.261 81.2522 151.002 81.2507H139.002C137.743 81.2522 136.535 81.7531 135.645 82.6436C134.754 83.534 134.253 84.7414 134.252 86.0007V98.0007C134.253 99.2601 134.754 100.467 135.645 101.358C136.535 102.248 137.743 102.749 139.002 102.751H151.002C152.261 102.749 153.469 102.248 154.359 101.358C155.25 100.467 155.751 99.2601 155.752 98.0007V96.3665L159.216 98.5652C159.483 98.6987 159.78 98.7618 160.078 98.7485C160.376 98.7352 160.665 98.646 160.919 98.4892C161.173 98.3325 161.382 98.1134 161.528 97.8529C161.673 97.5924 161.749 97.2991 161.75 97.0007V86.9997C161.751 86.7013 161.675 86.4077 161.529 86.1471C161.384 85.8864 161.174 85.6675 160.92 85.5115ZM154.252 98.0007C154.251 98.8624 153.908 99.6884 153.299 100.298C152.69 100.907 151.864 101.25 151.002 101.251H139.002C138.14 101.25 137.314 100.907 136.705 100.298C136.096 99.6884 135.753 98.8624 135.752 98.0007V86.0007C135.753 85.1391 136.096 84.313 136.705 83.7037C137.314 83.0945 138.14 82.7517 139.002 82.7507H151.002C151.864 82.7517 152.69 83.0945 153.299 83.7037C153.908 84.313 154.251 85.1391 154.252 86.0007V98.0007ZM160.25 97.0007C160.25 97.0433 160.24 97.0854 160.219 97.1226C160.198 97.1598 160.168 97.1908 160.131 97.2127C160.087 97.241 159.995 97.2791 159.955 97.2615L155.752 94.5905V89.4105L159.887 86.7761C159.925 86.7567 159.968 86.7475 160.01 86.7494C160.053 86.7513 160.095 86.7642 160.131 86.7869C160.168 86.8088 160.198 86.84 160.219 86.8774C160.24 86.9148 160.25 86.957 160.25 86.9998V97.0007Z" fill="url(#paint0_linear_4456_504196)"/>
<path d="M81.6406 121.852H78.4453V131H75.9141V121.852H72.7344V119.797H81.6406V121.852ZM86.9219 125.227C86.625 125.065 86.2786 124.984 85.8828 124.984C85.3464 124.984 84.9271 125.182 84.625 125.578C84.3229 125.969 84.1719 126.503 84.1719 127.18V131H81.7031V123H84.1719V124.484H84.2031C84.5938 123.401 85.2969 122.859 86.3125 122.859C86.5729 122.859 86.776 122.891 86.9219 122.953V125.227ZM96.3359 123L93.0859 131.641C92.3047 133.719 91.1276 134.758 89.5547 134.758C88.9557 134.758 88.4635 134.69 88.0781 134.555V132.586C88.4062 132.779 88.763 132.875 89.1484 132.875C89.7839 132.875 90.2266 132.576 90.4766 131.977L90.8984 130.984L87.6484 123H90.3828L91.875 127.867C91.9688 128.169 92.0417 128.526 92.0938 128.938H92.125C92.1719 128.635 92.2578 128.284 92.3828 127.883L93.8906 123H96.3359ZM108.406 131H106.07V129.852H106.039C105.503 130.747 104.708 131.195 103.656 131.195C102.88 131.195 102.268 130.977 101.82 130.539C101.378 130.096 101.156 129.508 101.156 128.773C101.156 127.221 102.076 126.326 103.914 126.086L106.086 125.797C106.086 124.922 105.612 124.484 104.664 124.484C103.711 124.484 102.805 124.768 101.945 125.336V123.477C102.289 123.299 102.758 123.143 103.352 123.008C103.951 122.872 104.495 122.805 104.984 122.805C107.266 122.805 108.406 123.943 108.406 126.219V131ZM106.086 127.75V127.211L104.633 127.398C103.831 127.503 103.43 127.865 103.43 128.484C103.43 128.766 103.526 128.997 103.719 129.18C103.917 129.357 104.182 129.445 104.516 129.445C104.979 129.445 105.357 129.286 105.648 128.969C105.94 128.646 106.086 128.24 106.086 127.75ZM122.609 131H120.141V129.898H120.109C119.547 130.763 118.721 131.195 117.633 131.195C116.633 131.195 115.828 130.844 115.219 130.141C114.609 129.432 114.305 128.445 114.305 127.18C114.305 125.857 114.641 124.797 115.312 124C115.984 123.203 116.865 122.805 117.953 122.805C118.984 122.805 119.703 123.174 120.109 123.914H120.141V119.156H122.609V131ZM120.188 127.109V126.508C120.188 125.987 120.036 125.555 119.734 125.211C119.432 124.867 119.039 124.695 118.555 124.695C118.008 124.695 117.581 124.911 117.273 125.344C116.966 125.771 116.812 126.359 116.812 127.109C116.812 127.812 116.961 128.354 117.258 128.734C117.555 129.115 117.966 129.305 118.492 129.305C118.992 129.305 119.398 129.104 119.711 128.703C120.029 128.302 120.188 127.771 120.188 127.109ZM131.875 127.703H126.656C126.74 128.865 127.471 129.445 128.852 129.445C129.732 129.445 130.505 129.237 131.172 128.82V130.602C130.432 130.997 129.471 131.195 128.289 131.195C126.997 131.195 125.995 130.839 125.281 130.125C124.568 129.406 124.211 128.406 124.211 127.125C124.211 125.797 124.596 124.745 125.367 123.969C126.138 123.193 127.086 122.805 128.211 122.805C129.378 122.805 130.279 123.151 130.914 123.844C131.555 124.536 131.875 125.477 131.875 126.664V127.703ZM129.586 126.188C129.586 125.042 129.122 124.469 128.195 124.469C127.799 124.469 127.456 124.633 127.164 124.961C126.878 125.289 126.703 125.698 126.641 126.188H129.586ZM146.047 131H143.586V126.438C143.586 125.276 143.159 124.695 142.305 124.695C141.898 124.695 141.568 124.87 141.312 125.219C141.057 125.568 140.93 126.003 140.93 126.523V131H138.461V126.391C138.461 125.26 138.042 124.695 137.203 124.695C136.781 124.695 136.443 124.862 136.188 125.195C135.938 125.529 135.812 125.982 135.812 126.555V131H133.344V123H135.812V124.25H135.844C136.099 123.823 136.456 123.477 136.914 123.211C137.378 122.94 137.883 122.805 138.43 122.805C139.56 122.805 140.333 123.302 140.75 124.297C141.359 123.302 142.255 122.805 143.438 122.805C145.177 122.805 146.047 123.878 146.047 126.023V131ZM151.812 131.195C150.479 131.195 149.43 130.823 148.664 130.078C147.904 129.328 147.523 128.312 147.523 127.031C147.523 125.708 147.919 124.674 148.711 123.93C149.503 123.18 150.573 122.805 151.922 122.805C153.25 122.805 154.292 123.18 155.047 123.93C155.802 124.674 156.18 125.661 156.18 126.891C156.18 128.219 155.789 129.268 155.008 130.039C154.232 130.81 153.167 131.195 151.812 131.195ZM151.875 124.695C151.292 124.695 150.839 124.896 150.516 125.297C150.193 125.698 150.031 126.266 150.031 127C150.031 128.536 150.651 129.305 151.891 129.305C153.073 129.305 153.664 128.516 153.664 126.938C153.664 125.443 153.068 124.695 151.875 124.695ZM174.906 131H172.445V126.438C172.445 125.276 172.018 124.695 171.164 124.695C170.758 124.695 170.427 124.87 170.172 125.219C169.917 125.568 169.789 126.003 169.789 126.523V131H167.32V126.391C167.32 125.26 166.901 124.695 166.062 124.695C165.641 124.695 165.302 124.862 165.047 125.195C164.797 125.529 164.672 125.982 164.672 126.555V131H162.203V123H164.672V124.25H164.703C164.958 123.823 165.315 123.477 165.773 123.211C166.237 122.94 166.742 122.805 167.289 122.805C168.419 122.805 169.193 123.302 169.609 124.297C170.219 123.302 171.115 122.805 172.297 122.805C174.036 122.805 174.906 123.878 174.906 126.023V131ZM184.047 127.703H178.828C178.911 128.865 179.643 129.445 181.023 129.445C181.904 129.445 182.677 129.237 183.344 128.82V130.602C182.604 130.997 181.643 131.195 180.461 131.195C179.169 131.195 178.167 130.839 177.453 130.125C176.74 129.406 176.383 128.406 176.383 127.125C176.383 125.797 176.768 124.745 177.539 123.969C178.31 123.193 179.258 122.805 180.383 122.805C181.549 122.805 182.451 123.151 183.086 123.844C183.727 124.536 184.047 125.477 184.047 126.664V127.703ZM181.758 126.188C181.758 125.042 181.294 124.469 180.367 124.469C179.971 124.469 179.628 124.633 179.336 124.961C179.049 125.289 178.875 125.698 178.812 126.188H181.758ZM192.703 127.703H187.484C187.568 128.865 188.299 129.445 189.68 129.445C190.56 129.445 191.333 129.237 192 128.82V130.602C191.26 130.997 190.299 131.195 189.117 131.195C187.826 131.195 186.823 130.839 186.109 130.125C185.396 129.406 185.039 128.406 185.039 127.125C185.039 125.797 185.424 124.745 186.195 123.969C186.966 123.193 187.914 122.805 189.039 122.805C190.206 122.805 191.107 123.151 191.742 123.844C192.383 124.536 192.703 125.477 192.703 126.664V127.703ZM190.414 126.188C190.414 125.042 189.951 124.469 189.023 124.469C188.628 124.469 188.284 124.633 187.992 124.961C187.706 125.289 187.531 125.698 187.469 126.188H190.414ZM199.008 130.906C198.643 131.099 198.094 131.195 197.359 131.195C195.62 131.195 194.75 130.292 194.75 128.484V124.82H193.453V123H194.75V121.273L197.211 120.57V123H199.008V124.82H197.211V128.055C197.211 128.888 197.542 129.305 198.203 129.305C198.464 129.305 198.732 129.229 199.008 129.078V130.906ZM201.656 121.734C201.24 121.734 200.898 121.612 200.633 121.367C200.367 121.117 200.234 120.812 200.234 120.453C200.234 120.083 200.367 119.781 200.633 119.547C200.898 119.312 201.24 119.195 201.656 119.195C202.078 119.195 202.419 119.312 202.68 119.547C202.945 119.781 203.078 120.083 203.078 120.453C203.078 120.828 202.945 121.135 202.68 121.375C202.419 121.615 202.078 121.734 201.656 121.734ZM202.875 131H200.406V123H202.875V131ZM212.68 131H210.219V126.555C210.219 125.315 209.776 124.695 208.891 124.695C208.464 124.695 208.112 124.859 207.836 125.188C207.56 125.516 207.422 125.932 207.422 126.438V131H204.953V123H207.422V124.266H207.453C208.042 123.292 208.898 122.805 210.023 122.805C211.794 122.805 212.68 123.904 212.68 126.102V131ZM222.484 130.086C222.484 131.57 222.055 132.719 221.195 133.531C220.336 134.349 219.091 134.758 217.461 134.758C216.383 134.758 215.529 134.604 214.898 134.297V132.219C215.721 132.698 216.552 132.938 217.391 132.938C218.224 132.938 218.87 132.716 219.328 132.273C219.786 131.836 220.016 131.24 220.016 130.484V129.852H219.984C219.422 130.747 218.591 131.195 217.492 131.195C216.471 131.195 215.661 130.836 215.062 130.117C214.464 129.398 214.164 128.435 214.164 127.227C214.164 125.872 214.497 124.797 215.164 124C215.831 123.203 216.708 122.805 217.797 122.805C218.771 122.805 219.5 123.18 219.984 123.93H220.016V123H222.484V130.086ZM220.047 127.156V126.523C220.047 126.018 219.896 125.589 219.594 125.234C219.297 124.875 218.909 124.695 218.43 124.695C217.883 124.695 217.453 124.909 217.141 125.336C216.828 125.763 216.672 126.365 216.672 127.141C216.672 127.807 216.82 128.336 217.117 128.727C217.414 129.112 217.82 129.305 218.336 129.305C218.846 129.305 219.258 129.109 219.57 128.719C219.888 128.323 220.047 127.802 220.047 127.156Z" fill="white" fill-opacity="0.95"/>
<path d="M39.3838 152.59C38.6592 152.973 37.7568 153.164 36.6768 153.164C35.2822 153.164 34.1657 152.715 33.3271 151.817C32.4886 150.92 32.0693 149.742 32.0693 148.283C32.0693 146.715 32.541 145.449 33.4844 144.482C34.4277 143.516 35.624 143.033 37.0732 143.033C38.0029 143.033 38.7731 143.168 39.3838 143.437V144.66C38.682 144.268 37.9072 144.072 37.0596 144.072C35.9339 144.072 35.0202 144.448 34.3184 145.2C33.6211 145.952 33.2725 146.957 33.2725 148.215C33.2725 149.409 33.5983 150.361 34.25 151.072C34.9062 151.779 35.7653 152.132 36.8271 152.132C37.8115 152.132 38.6637 151.913 39.3838 151.476V152.59ZM47.04 153H45.9189V148.967C45.9189 147.508 45.3766 146.779 44.292 146.779C43.7451 146.779 43.2848 146.991 42.9111 147.415C42.5374 147.834 42.3506 148.374 42.3506 149.035V153H41.2295V142.637H42.3506V147.162H42.3779C42.9157 146.278 43.6813 145.836 44.6748 145.836C46.2516 145.836 47.04 146.786 47.04 148.687V153ZM54.7852 149.78H49.8428C49.861 150.56 50.0706 151.161 50.4717 151.585C50.8727 152.009 51.4242 152.221 52.126 152.221C52.9144 152.221 53.639 151.961 54.2998 151.441V152.494C53.6846 152.941 52.8711 153.164 51.8594 153.164C50.8704 153.164 50.0934 152.847 49.5283 152.214C48.9632 151.576 48.6807 150.68 48.6807 149.527C48.6807 148.438 48.9883 147.552 49.6035 146.868C50.2233 146.18 50.9912 145.836 51.9072 145.836C52.8232 145.836 53.5319 146.132 54.0332 146.725C54.5345 147.317 54.7852 148.14 54.7852 149.192V149.78ZM53.6367 148.83C53.6322 148.183 53.4749 147.679 53.165 147.319C52.8597 146.959 52.4336 146.779 51.8867 146.779C51.3581 146.779 50.9092 146.968 50.54 147.347C50.1709 147.725 49.943 148.219 49.8564 148.83H53.6367ZM61.2588 152.679C60.721 153.002 60.083 153.164 59.3447 153.164C58.3467 153.164 57.54 152.84 56.9248 152.193C56.3141 151.542 56.0088 150.699 56.0088 149.664C56.0088 148.511 56.3392 147.586 57 146.889C57.6608 146.187 58.5426 145.836 59.6455 145.836C60.2607 145.836 60.8031 145.95 61.2725 146.178V147.326C60.7529 146.962 60.1969 146.779 59.6045 146.779C58.889 146.779 58.3011 147.037 57.8408 147.552C57.3851 148.062 57.1572 148.734 57.1572 149.568C57.1572 150.389 57.3714 151.036 57.7998 151.51C58.2327 151.984 58.8115 152.221 59.5361 152.221C60.1468 152.221 60.721 152.018 61.2588 151.612V152.679ZM68.7646 153H67.1924L64.1025 149.637H64.0752V153H62.9541V142.637H64.0752V149.206H64.1025L67.042 146H68.5117L65.2646 149.377L68.7646 153ZM76.6807 153.164C75.6462 153.164 74.819 152.838 74.1992 152.187C73.584 151.53 73.2764 150.662 73.2764 149.582C73.2764 148.406 73.5977 147.488 74.2402 146.827C74.8828 146.166 75.751 145.836 76.8447 145.836C77.8883 145.836 78.7018 146.157 79.2852 146.8C79.873 147.442 80.167 148.333 80.167 149.473C80.167 150.589 79.8503 151.485 79.2168 152.159C78.5879 152.829 77.7425 153.164 76.6807 153.164ZM76.7627 146.779C76.0426 146.779 75.473 147.025 75.0537 147.518C74.6344 148.005 74.4248 148.68 74.4248 149.541C74.4248 150.37 74.6367 151.024 75.0605 151.503C75.4844 151.981 76.0518 152.221 76.7627 152.221C77.4873 152.221 78.0433 151.986 78.4307 151.517C78.8226 151.047 79.0186 150.38 79.0186 149.514C79.0186 148.639 78.8226 147.964 78.4307 147.49C78.0433 147.016 77.4873 146.779 76.7627 146.779ZM87.6182 153H86.4971V151.893H86.4697C86.0049 152.74 85.2848 153.164 84.3096 153.164C82.6416 153.164 81.8076 152.171 81.8076 150.184V146H82.9219V150.006C82.9219 151.482 83.487 152.221 84.6172 152.221C85.1641 152.221 85.613 152.02 85.9639 151.619C86.3193 151.214 86.4971 150.685 86.4971 150.033V146H87.6182V153ZM93.1348 152.932C92.8704 153.077 92.5218 153.15 92.0889 153.15C90.863 153.15 90.25 152.467 90.25 151.1V146.957H89.0469V146H90.25V144.291L91.3711 143.929V146H93.1348V146.957H91.3711V150.901C91.3711 151.371 91.4508 151.706 91.6104 151.906C91.7699 152.107 92.0342 152.207 92.4033 152.207C92.6859 152.207 92.9297 152.13 93.1348 151.975V152.932ZM103.484 153H102.363V151.906H102.336C101.848 152.745 101.131 153.164 100.183 153.164C99.4854 153.164 98.9385 152.979 98.542 152.61C98.1501 152.241 97.9541 151.751 97.9541 151.141C97.9541 149.833 98.7243 149.072 100.265 148.857L102.363 148.563C102.363 147.374 101.882 146.779 100.921 146.779C100.078 146.779 99.3167 147.066 98.6377 147.641V146.492C99.3258 146.055 100.119 145.836 101.017 145.836C102.662 145.836 103.484 146.706 103.484 148.447V153ZM102.363 149.459L100.675 149.691C100.155 149.764 99.7633 149.894 99.499 150.081C99.2347 150.263 99.1025 150.589 99.1025 151.059C99.1025 151.4 99.2233 151.681 99.4648 151.899C99.7109 152.114 100.037 152.221 100.442 152.221C100.998 152.221 101.456 152.027 101.816 151.64C102.181 151.248 102.363 150.753 102.363 150.156V149.459ZM106.718 153H105.597V142.637H106.718V153ZM110.108 153H108.987V142.637H110.108V153ZM121.791 146L118.571 154.121C117.997 155.57 117.19 156.295 116.151 156.295C115.86 156.295 115.616 156.265 115.42 156.206V155.201C115.661 155.283 115.882 155.324 116.083 155.324C116.648 155.324 117.072 154.987 117.354 154.312L117.915 152.986L115.181 146H116.425L118.318 151.387C118.341 151.455 118.389 151.633 118.462 151.92H118.503C118.526 151.811 118.571 151.637 118.64 151.4L120.629 146H121.791ZM125.858 153.164C124.824 153.164 123.997 152.838 123.377 152.187C122.762 151.53 122.454 150.662 122.454 149.582C122.454 148.406 122.775 147.488 123.418 146.827C124.061 146.166 124.929 145.836 126.022 145.836C127.066 145.836 127.88 146.157 128.463 146.8C129.051 147.442 129.345 148.333 129.345 149.473C129.345 150.589 129.028 151.485 128.395 152.159C127.766 152.829 126.92 153.164 125.858 153.164ZM125.94 146.779C125.22 146.779 124.651 147.025 124.231 147.518C123.812 148.005 123.603 148.68 123.603 149.541C123.603 150.37 123.814 151.024 124.238 151.503C124.662 151.981 125.229 152.221 125.94 152.221C126.665 152.221 127.221 151.986 127.608 151.517C128 151.047 128.196 150.38 128.196 149.514C128.196 148.639 128 147.964 127.608 147.49C127.221 147.016 126.665 146.779 125.94 146.779ZM136.796 153H135.675V151.893H135.647C135.183 152.74 134.463 153.164 133.487 153.164C131.819 153.164 130.985 152.171 130.985 150.184V146H132.1V150.006C132.1 151.482 132.665 152.221 133.795 152.221C134.342 152.221 134.791 152.02 135.142 151.619C135.497 151.214 135.675 150.685 135.675 150.033V146H136.796V153ZM147.679 152.679C147.141 153.002 146.503 153.164 145.765 153.164C144.767 153.164 143.96 152.84 143.345 152.193C142.734 151.542 142.429 150.699 142.429 149.664C142.429 148.511 142.759 147.586 143.42 146.889C144.081 146.187 144.963 145.836 146.065 145.836C146.681 145.836 147.223 145.95 147.692 146.178V147.326C147.173 146.962 146.617 146.779 146.024 146.779C145.309 146.779 144.721 147.037 144.261 147.552C143.805 148.062 143.577 148.734 143.577 149.568C143.577 150.389 143.791 151.036 144.22 151.51C144.653 151.984 145.231 152.221 145.956 152.221C146.567 152.221 147.141 152.018 147.679 151.612V152.679ZM154.385 153H153.264V151.906H153.236C152.749 152.745 152.031 153.164 151.083 153.164C150.386 153.164 149.839 152.979 149.442 152.61C149.05 152.241 148.854 151.751 148.854 151.141C148.854 149.833 149.625 149.072 151.165 148.857L153.264 148.563C153.264 147.374 152.783 146.779 151.821 146.779C150.978 146.779 150.217 147.066 149.538 147.641V146.492C150.226 146.055 151.019 145.836 151.917 145.836C153.562 145.836 154.385 146.706 154.385 148.447V153ZM153.264 149.459L151.575 149.691C151.056 149.764 150.664 149.894 150.399 150.081C150.135 150.263 150.003 150.589 150.003 151.059C150.003 151.4 150.124 151.681 150.365 151.899C150.611 152.114 150.937 152.221 151.343 152.221C151.899 152.221 152.357 152.027 152.717 151.64C153.081 151.248 153.264 150.753 153.264 150.156V149.459ZM162.308 153H161.187V149.008C161.187 147.522 160.644 146.779 159.56 146.779C158.999 146.779 158.534 146.991 158.165 147.415C157.8 147.834 157.618 148.365 157.618 149.008V153H156.497V146H157.618V147.162H157.646C158.174 146.278 158.94 145.836 159.942 145.836C160.708 145.836 161.294 146.084 161.699 146.581C162.105 147.073 162.308 147.786 162.308 148.721V153ZM174.243 153H173.122V151.811H173.095C172.575 152.713 171.773 153.164 170.688 153.164C169.809 153.164 169.105 152.852 168.576 152.228C168.052 151.599 167.79 150.744 167.79 149.664C167.79 148.507 168.082 147.579 168.665 146.882C169.248 146.185 170.025 145.836 170.996 145.836C171.958 145.836 172.657 146.214 173.095 146.971H173.122V142.637H174.243V153ZM173.122 149.835V148.803C173.122 148.238 172.935 147.759 172.562 147.367C172.188 146.975 171.714 146.779 171.14 146.779C170.456 146.779 169.918 147.03 169.526 147.531C169.134 148.033 168.938 148.725 168.938 149.609C168.938 150.416 169.125 151.054 169.499 151.523C169.877 151.988 170.383 152.221 171.017 152.221C171.641 152.221 172.147 151.995 172.534 151.544C172.926 151.093 173.122 150.523 173.122 149.835ZM179.438 153.164C178.404 153.164 177.577 152.838 176.957 152.187C176.342 151.53 176.034 150.662 176.034 149.582C176.034 148.406 176.355 147.488 176.998 146.827C177.641 146.166 178.509 145.836 179.603 145.836C180.646 145.836 181.46 146.157 182.043 146.8C182.631 147.442 182.925 148.333 182.925 149.473C182.925 150.589 182.608 151.485 181.975 152.159C181.346 152.829 180.5 153.164 179.438 153.164ZM179.521 146.779C178.8 146.779 178.231 147.025 177.812 147.518C177.392 148.005 177.183 148.68 177.183 149.541C177.183 150.37 177.395 151.024 177.818 151.503C178.242 151.981 178.81 152.221 179.521 152.221C180.245 152.221 180.801 151.986 181.188 151.517C181.58 151.047 181.776 150.38 181.776 149.514C181.776 148.639 181.58 147.964 181.188 147.49C180.801 147.016 180.245 146.779 179.521 146.779ZM189.132 144.223C188.931 144.223 188.76 144.154 188.619 144.018C188.478 143.881 188.407 143.708 188.407 143.498C188.407 143.288 188.478 143.115 188.619 142.979C188.76 142.837 188.931 142.767 189.132 142.767C189.337 142.767 189.51 142.837 189.651 142.979C189.797 143.115 189.87 143.288 189.87 143.498C189.87 143.699 189.797 143.869 189.651 144.011C189.51 144.152 189.337 144.223 189.132 144.223ZM189.679 153H188.558V146H189.679V153ZM197.759 153H196.638V149.008C196.638 147.522 196.095 146.779 195.011 146.779C194.45 146.779 193.985 146.991 193.616 147.415C193.252 147.834 193.069 148.365 193.069 149.008V153H191.948V146H193.069V147.162H193.097C193.625 146.278 194.391 145.836 195.394 145.836C196.159 145.836 196.745 146.084 197.15 146.581C197.556 147.073 197.759 147.786 197.759 148.721V153ZM208.73 153H207.609V151.906H207.582C207.094 152.745 206.377 153.164 205.429 153.164C204.731 153.164 204.185 152.979 203.788 152.61C203.396 152.241 203.2 151.751 203.2 151.141C203.2 149.833 203.97 149.072 205.511 148.857L207.609 148.563C207.609 147.374 207.129 146.779 206.167 146.779C205.324 146.779 204.563 147.066 203.884 147.641V146.492C204.572 146.055 205.365 145.836 206.263 145.836C207.908 145.836 208.73 146.706 208.73 148.447V153ZM207.609 149.459L205.921 149.691C205.401 149.764 205.009 149.894 204.745 150.081C204.481 150.263 204.349 150.589 204.349 151.059C204.349 151.4 204.469 151.681 204.711 151.899C204.957 152.114 205.283 152.221 205.688 152.221C206.244 152.221 206.702 152.027 207.062 151.64C207.427 151.248 207.609 150.753 207.609 150.156V149.459ZM224.624 153H223.503V148.98C223.503 148.206 223.382 147.645 223.141 147.299C222.904 146.952 222.503 146.779 221.938 146.779C221.459 146.779 221.051 146.998 220.714 147.436C220.381 147.873 220.215 148.397 220.215 149.008V153H219.094V148.844C219.094 147.467 218.563 146.779 217.501 146.779C217.009 146.779 216.603 146.987 216.284 147.401C215.965 147.812 215.806 148.347 215.806 149.008V153H214.685V146H215.806V147.107H215.833C216.33 146.26 217.054 145.836 218.007 145.836C218.485 145.836 218.902 145.97 219.258 146.239C219.613 146.504 219.857 146.852 219.989 147.285C220.509 146.319 221.284 145.836 222.313 145.836C223.854 145.836 224.624 146.786 224.624 148.687V153ZM232.369 149.78H227.427C227.445 150.56 227.655 151.161 228.056 151.585C228.457 152.009 229.008 152.221 229.71 152.221C230.498 152.221 231.223 151.961 231.884 151.441V152.494C231.269 152.941 230.455 153.164 229.443 153.164C228.454 153.164 227.677 152.847 227.112 152.214C226.547 151.576 226.265 150.68 226.265 149.527C226.265 148.438 226.572 147.552 227.188 146.868C227.807 146.18 228.575 145.836 229.491 145.836C230.407 145.836 231.116 146.132 231.617 146.725C232.118 147.317 232.369 148.14 232.369 149.192V149.78ZM231.221 148.83C231.216 148.183 231.059 147.679 230.749 147.319C230.444 146.959 230.018 146.779 229.471 146.779C228.942 146.779 228.493 146.968 228.124 147.347C227.755 147.725 227.527 148.219 227.44 148.83H231.221ZM239.697 149.78H234.755C234.773 150.56 234.983 151.161 235.384 151.585C235.785 152.009 236.336 152.221 237.038 152.221C237.826 152.221 238.551 151.961 239.212 151.441V152.494C238.597 152.941 237.783 153.164 236.771 153.164C235.783 153.164 235.006 152.847 234.44 152.214C233.875 151.576 233.593 150.68 233.593 149.527C233.593 148.438 233.9 147.552 234.516 146.868C235.135 146.18 235.903 145.836 236.819 145.836C237.735 145.836 238.444 146.132 238.945 146.725C239.447 147.317 239.697 148.14 239.697 149.192V149.78ZM238.549 148.83C238.544 148.183 238.387 147.679 238.077 147.319C237.772 146.959 237.346 146.779 236.799 146.779C236.27 146.779 235.821 146.968 235.452 147.347C235.083 147.725 234.855 148.219 234.769 148.83H238.549ZM244.646 152.932C244.382 153.077 244.034 153.15 243.601 153.15C242.375 153.15 241.762 152.467 241.762 151.1V146.957H240.559V146H241.762V144.291L242.883 143.929V146H244.646V146.957H242.883V150.901C242.883 151.371 242.963 151.706 243.122 151.906C243.282 152.107 243.546 152.207 243.915 152.207C244.198 152.207 244.441 152.13 244.646 151.975V152.932ZM246.718 144.223C246.517 144.223 246.346 144.154 246.205 144.018C246.064 143.881 245.993 143.708 245.993 143.498C245.993 143.288 246.064 143.115 246.205 142.979C246.346 142.837 246.517 142.767 246.718 142.767C246.923 142.767 247.096 142.837 247.237 142.979C247.383 143.115 247.456 143.288 247.456 143.498C247.456 143.699 247.383 143.869 247.237 144.011C247.096 144.152 246.923 144.223 246.718 144.223ZM247.265 153H246.144V146H247.265V153ZM255.345 153H254.224V149.008C254.224 147.522 253.681 146.779 252.597 146.779C252.036 146.779 251.571 146.991 251.202 147.415C250.838 147.834 250.655 148.365 250.655 149.008V153H249.534V146H250.655V147.162H250.683C251.211 146.278 251.977 145.836 252.979 145.836C253.745 145.836 254.331 146.084 254.736 146.581C255.142 147.073 255.345 147.786 255.345 148.721V153ZM263.438 152.439C263.438 155.01 262.208 156.295 259.747 156.295C258.881 156.295 258.125 156.131 257.478 155.803V154.682C258.266 155.119 259.018 155.338 259.733 155.338C261.456 155.338 262.317 154.422 262.317 152.59V151.824H262.29C261.757 152.717 260.955 153.164 259.884 153.164C259.013 153.164 258.312 152.854 257.778 152.234C257.25 151.61 256.985 150.774 256.985 149.726C256.985 148.536 257.27 147.59 257.84 146.889C258.414 146.187 259.198 145.836 260.191 145.836C261.135 145.836 261.834 146.214 262.29 146.971H262.317V146H263.438V152.439ZM262.317 149.835V148.803C262.317 148.247 262.128 147.771 261.75 147.374C261.376 146.978 260.909 146.779 260.349 146.779C259.656 146.779 259.114 147.032 258.722 147.538C258.33 148.039 258.134 148.743 258.134 149.65C258.134 150.43 258.321 151.054 258.694 151.523C259.073 151.988 259.572 152.221 260.191 152.221C260.82 152.221 261.331 151.997 261.723 151.551C262.119 151.104 262.317 150.532 262.317 149.835Z" fill="white" fill-opacity="0.7"/>
<path d="M133.638 189.61V187.936C133.788 188.072 133.966 188.195 134.171 188.305C134.381 188.414 134.602 188.507 134.834 188.585C135.066 188.658 135.299 188.715 135.531 188.756C135.764 188.797 135.978 188.817 136.174 188.817C136.857 188.817 137.366 188.703 137.698 188.476C138.035 188.248 138.204 187.917 138.204 187.484C138.204 187.252 138.147 187.051 138.033 186.883C137.924 186.71 137.769 186.552 137.568 186.411C137.368 186.27 137.131 186.135 136.857 186.008C136.589 185.876 136.299 185.739 135.989 185.598C135.657 185.42 135.347 185.24 135.06 185.058C134.772 184.875 134.522 184.675 134.308 184.456C134.098 184.233 133.932 183.982 133.809 183.704C133.69 183.426 133.631 183.1 133.631 182.727C133.631 182.266 133.733 181.868 133.938 181.53C134.148 181.188 134.422 180.908 134.759 180.689C135.101 180.466 135.488 180.302 135.921 180.197C136.354 180.088 136.796 180.033 137.247 180.033C138.272 180.033 139.02 180.149 139.489 180.382V181.988C138.933 181.587 138.218 181.387 137.343 181.387C137.101 181.387 136.86 181.41 136.618 181.455C136.381 181.501 136.167 181.576 135.976 181.681C135.789 181.785 135.636 181.92 135.518 182.084C135.399 182.248 135.34 182.446 135.34 182.679C135.34 182.897 135.385 183.087 135.477 183.246C135.568 183.406 135.7 183.551 135.873 183.684C136.051 183.816 136.265 183.946 136.516 184.073C136.771 184.196 137.065 184.331 137.397 184.477C137.739 184.654 138.061 184.841 138.361 185.037C138.667 185.233 138.933 185.45 139.161 185.687C139.394 185.924 139.576 186.188 139.708 186.479C139.845 186.767 139.913 187.095 139.913 187.464C139.913 187.961 139.813 188.38 139.612 188.722C139.412 189.063 139.141 189.341 138.799 189.556C138.462 189.77 138.072 189.925 137.63 190.021C137.188 190.116 136.721 190.164 136.229 190.164C136.064 190.164 135.862 190.15 135.62 190.123C135.383 190.1 135.139 190.064 134.889 190.014C134.638 189.968 134.401 189.911 134.178 189.843C133.954 189.774 133.774 189.697 133.638 189.61ZM144.821 189.925C144.511 190.08 144.104 190.157 143.598 190.157C142.24 190.157 141.561 189.506 141.561 188.202V184.244H140.392V183H141.561V181.38L143.146 180.929V183H144.821V184.244H143.146V187.744C143.146 188.159 143.222 188.455 143.372 188.633C143.522 188.811 143.773 188.899 144.124 188.899C144.393 188.899 144.625 188.822 144.821 188.667V189.925ZM151.562 190H150.023V188.906H149.996C149.513 189.745 148.804 190.164 147.87 190.164C147.182 190.164 146.642 189.977 146.25 189.604C145.863 189.23 145.669 188.735 145.669 188.12C145.669 186.799 146.43 186.028 147.952 185.81L150.03 185.516C150.03 184.518 149.556 184.019 148.608 184.019C147.774 184.019 147.022 184.306 146.353 184.88V183.492C147.091 183.055 147.943 182.836 148.909 182.836C150.677 182.836 151.562 183.706 151.562 185.447V190ZM150.03 186.562L148.561 186.767C148.105 186.826 147.761 186.938 147.528 187.102C147.3 187.261 147.187 187.544 147.187 187.949C147.187 188.245 147.291 188.489 147.501 188.681C147.715 188.868 148 188.961 148.355 188.961C148.839 188.961 149.237 188.792 149.552 188.455C149.871 188.113 150.03 187.685 150.03 187.17V186.562ZM157.563 184.511C157.372 184.36 157.096 184.285 156.736 184.285C156.267 184.285 155.875 184.497 155.561 184.921C155.246 185.345 155.089 185.921 155.089 186.65V190H153.503V183H155.089V184.442H155.116C155.271 183.95 155.508 183.567 155.827 183.294C156.151 183.016 156.511 182.877 156.907 182.877C157.194 182.877 157.413 182.92 157.563 183.007V184.511ZM162.786 189.925C162.476 190.08 162.068 190.157 161.562 190.157C160.204 190.157 159.525 189.506 159.525 188.202V184.244H158.356V183H159.525V181.38L161.111 180.929V183H162.786V184.244H161.111V187.744C161.111 188.159 161.187 188.455 161.337 188.633C161.487 188.811 161.738 188.899 162.089 188.899C162.358 188.899 162.59 188.822 162.786 188.667V189.925Z" fill="#3CC29A"/>
<rect x="123" y="170.5" width="50" height="27" rx="13.5" stroke="#3CC29A"/>
<rect x="304" y="60" width="296" height="154" rx="12" fill="white" fill-opacity="0.07"/>
<path d="M456 92.2505H452.75V89.0005C452.75 88.8016 452.671 88.6108 452.53 88.4701C452.39 88.3295 452.199 88.2505 452 88.2505C451.801 88.2505 451.61 88.3295 451.47 88.4701C451.329 88.6108 451.25 88.8016 451.25 89.0005V92.2505H448C447.801 92.2505 447.61 92.3295 447.47 92.4701C447.329 92.6108 447.25 92.8016 447.25 93.0005C447.25 93.1994 447.329 93.3901 447.47 93.5308C447.61 93.6715 447.801 93.7505 448 93.7505H451.25V97.0005C451.25 97.1994 451.329 97.3901 451.47 97.5308C451.61 97.6715 451.801 97.7505 452 97.7505C452.199 97.7505 452.39 97.6715 452.53 97.5308C452.671 97.3901 452.75 97.1994 452.75 97.0005V93.7505H456C456.199 93.7505 456.39 93.6715 456.53 93.5308C456.671 93.3901 456.75 93.1994 456.75 93.0005C456.75 92.8016 456.671 92.6108 456.53 92.4701C456.39 92.3295 456.199 92.2505 456 92.2505Z" fill="url(#paint1_linear_4456_504196)"/>
<path d="M459 81.2495H458.75V79.0005C458.75 78.8016 458.671 78.6108 458.53 78.4702C458.39 78.3295 458.199 78.2505 458 78.2505C457.801 78.2505 457.61 78.3295 457.47 78.4702C457.329 78.6108 457.25 78.8016 457.25 79.0005V81.2495H446.75V79.0005C446.75 78.8016 446.671 78.6108 446.53 78.4702C446.39 78.3295 446.199 78.2505 446 78.2505C445.801 78.2505 445.61 78.3295 445.47 78.4702C445.329 78.6108 445.25 78.8016 445.25 79.0005V81.2495H445C443.741 81.2509 442.533 81.7518 441.643 82.6423C440.752 83.5328 440.251 84.7401 440.25 85.9995V99.9995C440.251 101.259 440.752 102.466 441.643 103.357C442.533 104.247 443.741 104.748 445 104.749H459C460.259 104.748 461.467 104.247 462.357 103.357C463.248 102.466 463.749 101.259 463.75 99.9995V85.9995C463.749 84.7401 463.248 83.5328 462.357 82.6423C461.467 81.7518 460.259 81.2509 459 81.2495ZM462.25 99.9995C462.249 100.861 461.906 101.687 461.297 102.296C460.688 102.906 459.862 103.248 459 103.249H445C444.138 103.248 443.312 102.906 442.703 102.296C442.094 101.687 441.751 100.861 441.75 99.9995V85.9995C441.751 85.1378 442.094 84.3118 442.703 83.7025C443.312 83.0932 444.138 82.7505 445 82.7495H459C459.862 82.7505 460.688 83.0932 461.297 83.7025C461.906 84.3118 462.249 85.1378 462.25 85.9995V99.9995Z" fill="url(#paint2_linear_4456_504196)"/>
<path d="M376.844 130.602C376.026 130.997 374.958 131.195 373.641 131.195C371.922 131.195 370.57 130.69 369.586 129.68C368.602 128.669 368.109 127.323 368.109 125.641C368.109 123.849 368.661 122.396 369.766 121.281C370.875 120.167 372.312 119.609 374.078 119.609C375.172 119.609 376.094 119.747 376.844 120.023V122.453C376.094 122.005 375.24 121.781 374.281 121.781C373.229 121.781 372.38 122.112 371.734 122.773C371.089 123.435 370.766 124.331 370.766 125.461C370.766 126.544 371.07 127.409 371.68 128.055C372.289 128.695 373.109 129.016 374.141 129.016C375.125 129.016 376.026 128.776 376.844 128.297V130.602ZM382.367 131.195C381.034 131.195 379.984 130.823 379.219 130.078C378.458 129.328 378.078 128.312 378.078 127.031C378.078 125.708 378.474 124.674 379.266 123.93C380.057 123.18 381.128 122.805 382.477 122.805C383.805 122.805 384.846 123.18 385.602 123.93C386.357 124.674 386.734 125.661 386.734 126.891C386.734 128.219 386.344 129.268 385.562 130.039C384.786 130.81 383.721 131.195 382.367 131.195ZM382.43 124.695C381.846 124.695 381.393 124.896 381.07 125.297C380.747 125.698 380.586 126.266 380.586 127C380.586 128.536 381.206 129.305 382.445 129.305C383.628 129.305 384.219 128.516 384.219 126.938C384.219 125.443 383.622 124.695 382.43 124.695ZM396.062 131H393.602V126.555C393.602 125.315 393.159 124.695 392.273 124.695C391.846 124.695 391.495 124.859 391.219 125.188C390.943 125.516 390.805 125.932 390.805 126.438V131H388.336V123H390.805V124.266H390.836C391.424 123.292 392.281 122.805 393.406 122.805C395.177 122.805 396.062 123.904 396.062 126.102V131ZM405.75 131H403.289V126.555C403.289 125.315 402.846 124.695 401.961 124.695C401.534 124.695 401.182 124.859 400.906 125.188C400.63 125.516 400.492 125.932 400.492 126.438V131H398.023V123H400.492V124.266H400.523C401.112 123.292 401.969 122.805 403.094 122.805C404.865 122.805 405.75 123.904 405.75 126.102V131ZM414.898 127.703H409.68C409.763 128.865 410.495 129.445 411.875 129.445C412.755 129.445 413.529 129.237 414.195 128.82V130.602C413.456 130.997 412.495 131.195 411.312 131.195C410.021 131.195 409.018 130.839 408.305 130.125C407.591 129.406 407.234 128.406 407.234 127.125C407.234 125.797 407.62 124.745 408.391 123.969C409.161 123.193 410.109 122.805 411.234 122.805C412.401 122.805 413.302 123.151 413.938 123.844C414.578 124.536 414.898 125.477 414.898 126.664V127.703ZM412.609 126.188C412.609 125.042 412.146 124.469 411.219 124.469C410.823 124.469 410.479 124.633 410.188 124.961C409.901 125.289 409.727 125.698 409.664 126.188H412.609ZM422.43 130.711C421.872 131.034 421.068 131.195 420.016 131.195C418.786 131.195 417.792 130.823 417.031 130.078C416.271 129.333 415.891 128.372 415.891 127.195C415.891 125.836 416.297 124.766 417.109 123.984C417.927 123.198 419.018 122.805 420.383 122.805C421.326 122.805 422.008 122.93 422.43 123.18V125.273C421.914 124.888 421.339 124.695 420.703 124.695C419.995 124.695 419.432 124.904 419.016 125.32C418.604 125.732 418.398 126.302 418.398 127.031C418.398 127.74 418.596 128.297 418.992 128.703C419.388 129.104 419.932 129.305 420.625 129.305C421.24 129.305 421.841 129.112 422.43 128.727V130.711ZM428.891 130.906C428.526 131.099 427.977 131.195 427.242 131.195C425.503 131.195 424.633 130.292 424.633 128.484V124.82H423.336V123H424.633V121.273L427.094 120.57V123H428.891V124.82H427.094V128.055C427.094 128.888 427.424 129.305 428.086 129.305C428.346 129.305 428.615 129.229 428.891 129.078V130.906ZM442.328 123L439.078 131.641C438.297 133.719 437.12 134.758 435.547 134.758C434.948 134.758 434.456 134.69 434.07 134.555V132.586C434.398 132.779 434.755 132.875 435.141 132.875C435.776 132.875 436.219 132.576 436.469 131.977L436.891 130.984L433.641 123H436.375L437.867 127.867C437.961 128.169 438.034 128.526 438.086 128.938H438.117C438.164 128.635 438.25 128.284 438.375 127.883L439.883 123H442.328ZM446.977 131.195C445.643 131.195 444.594 130.823 443.828 130.078C443.068 129.328 442.688 128.312 442.688 127.031C442.688 125.708 443.083 124.674 443.875 123.93C444.667 123.18 445.737 122.805 447.086 122.805C448.414 122.805 449.456 123.18 450.211 123.93C450.966 124.674 451.344 125.661 451.344 126.891C451.344 128.219 450.953 129.268 450.172 130.039C449.396 130.81 448.331 131.195 446.977 131.195ZM447.039 124.695C446.456 124.695 446.003 124.896 445.68 125.297C445.357 125.698 445.195 126.266 445.195 127C445.195 128.536 445.815 129.305 447.055 129.305C448.237 129.305 448.828 128.516 448.828 126.938C448.828 125.443 448.232 124.695 447.039 124.695ZM460.547 131H458.086V129.781H458.047C457.438 130.724 456.622 131.195 455.602 131.195C453.747 131.195 452.82 130.073 452.82 127.828V123H455.281V127.609C455.281 128.74 455.729 129.305 456.625 129.305C457.068 129.305 457.422 129.151 457.688 128.844C457.953 128.531 458.086 128.109 458.086 127.578V123H460.547V131ZM467.852 125.227C467.555 125.065 467.208 124.984 466.812 124.984C466.276 124.984 465.857 125.182 465.555 125.578C465.253 125.969 465.102 126.503 465.102 127.18V131H462.633V123H465.102V124.484H465.133C465.523 123.401 466.227 122.859 467.242 122.859C467.503 122.859 467.706 122.891 467.852 122.953V125.227ZM479.492 130.711C478.935 131.034 478.13 131.195 477.078 131.195C475.849 131.195 474.854 130.823 474.094 130.078C473.333 129.333 472.953 128.372 472.953 127.195C472.953 125.836 473.359 124.766 474.172 123.984C474.99 123.198 476.081 122.805 477.445 122.805C478.388 122.805 479.07 122.93 479.492 123.18V125.273C478.977 124.888 478.401 124.695 477.766 124.695C477.057 124.695 476.495 124.904 476.078 125.32C475.667 125.732 475.461 126.302 475.461 127.031C475.461 127.74 475.659 128.297 476.055 128.703C476.451 129.104 476.995 129.305 477.688 129.305C478.302 129.305 478.904 129.112 479.492 128.727V130.711ZM487.773 131H485.438V129.852H485.406C484.87 130.747 484.076 131.195 483.023 131.195C482.247 131.195 481.635 130.977 481.188 130.539C480.745 130.096 480.523 129.508 480.523 128.773C480.523 127.221 481.443 126.326 483.281 126.086L485.453 125.797C485.453 124.922 484.979 124.484 484.031 124.484C483.078 124.484 482.172 124.768 481.312 125.336V123.477C481.656 123.299 482.125 123.143 482.719 123.008C483.318 122.872 483.862 122.805 484.352 122.805C486.633 122.805 487.773 123.943 487.773 126.219V131ZM485.453 127.75V127.211L484 127.398C483.198 127.503 482.797 127.865 482.797 128.484C482.797 128.766 482.893 128.997 483.086 129.18C483.284 129.357 483.549 129.445 483.883 129.445C484.346 129.445 484.724 129.286 485.016 128.969C485.307 128.646 485.453 128.24 485.453 127.75ZM492.195 131H489.727V119.156H492.195V131ZM501.461 127.703H496.242C496.326 128.865 497.057 129.445 498.438 129.445C499.318 129.445 500.091 129.237 500.758 128.82V130.602C500.018 130.997 499.057 131.195 497.875 131.195C496.583 131.195 495.581 130.839 494.867 130.125C494.154 129.406 493.797 128.406 493.797 127.125C493.797 125.797 494.182 124.745 494.953 123.969C495.724 123.193 496.672 122.805 497.797 122.805C498.964 122.805 499.865 123.151 500.5 123.844C501.141 124.536 501.461 125.477 501.461 126.664V127.703ZM499.172 126.188C499.172 125.042 498.708 124.469 497.781 124.469C497.385 124.469 497.042 124.633 496.75 124.961C496.464 125.289 496.289 125.698 496.227 126.188H499.172ZM510.656 131H508.195V126.555C508.195 125.315 507.753 124.695 506.867 124.695C506.44 124.695 506.089 124.859 505.812 125.188C505.536 125.516 505.398 125.932 505.398 126.438V131H502.93V123H505.398V124.266H505.43C506.018 123.292 506.875 122.805 508 122.805C509.771 122.805 510.656 123.904 510.656 126.102V131ZM520.445 131H517.977V129.898H517.945C517.383 130.763 516.557 131.195 515.469 131.195C514.469 131.195 513.664 130.844 513.055 130.141C512.445 129.432 512.141 128.445 512.141 127.18C512.141 125.857 512.477 124.797 513.148 124C513.82 123.203 514.701 122.805 515.789 122.805C516.82 122.805 517.539 123.174 517.945 123.914H517.977V119.156H520.445V131ZM518.023 127.109V126.508C518.023 125.987 517.872 125.555 517.57 125.211C517.268 124.867 516.875 124.695 516.391 124.695C515.844 124.695 515.417 124.911 515.109 125.344C514.802 125.771 514.648 126.359 514.648 127.109C514.648 127.812 514.797 128.354 515.094 128.734C515.391 129.115 515.802 129.305 516.328 129.305C516.828 129.305 517.234 129.104 517.547 128.703C517.865 128.302 518.023 127.771 518.023 127.109ZM529.18 131H526.844V129.852H526.812C526.276 130.747 525.482 131.195 524.43 131.195C523.654 131.195 523.042 130.977 522.594 130.539C522.151 130.096 521.93 129.508 521.93 128.773C521.93 127.221 522.849 126.326 524.688 126.086L526.859 125.797C526.859 124.922 526.385 124.484 525.438 124.484C524.484 124.484 523.578 124.768 522.719 125.336V123.477C523.062 123.299 523.531 123.143 524.125 123.008C524.724 122.872 525.268 122.805 525.758 122.805C528.039 122.805 529.18 123.943 529.18 126.219V131ZM526.859 127.75V127.211L525.406 127.398C524.604 127.503 524.203 127.865 524.203 128.484C524.203 128.766 524.299 128.997 524.492 129.18C524.69 129.357 524.956 129.445 525.289 129.445C525.753 129.445 526.13 129.286 526.422 128.969C526.714 128.646 526.859 128.24 526.859 127.75ZM536.352 125.227C536.055 125.065 535.708 124.984 535.312 124.984C534.776 124.984 534.357 125.182 534.055 125.578C533.753 125.969 533.602 126.503 533.602 127.18V131H531.133V123H533.602V124.484H533.633C534.023 123.401 534.727 122.859 535.742 122.859C536.003 122.859 536.206 122.891 536.352 122.953V125.227Z" fill="white" fill-opacity="0.95"/>
<path d="M331.202 152.604V151.25C331.494 151.514 331.861 151.729 332.303 151.893C332.749 152.052 333.171 152.132 333.567 152.132C334.83 152.132 335.461 151.642 335.461 150.662C335.461 150.284 335.333 149.944 335.078 149.644C334.827 149.338 334.267 148.939 333.396 148.447C332.617 148.005 332.059 147.575 331.722 147.155C331.384 146.736 331.216 146.235 331.216 145.651C331.216 144.886 331.501 144.259 332.07 143.771C332.64 143.279 333.392 143.033 334.326 143.033C335.206 143.033 335.848 143.149 336.254 143.382V144.674C335.734 144.273 335.074 144.072 334.271 144.072C333.702 144.072 333.251 144.209 332.918 144.482C332.585 144.756 332.419 145.111 332.419 145.549C332.419 145.909 332.517 146.235 332.713 146.526C332.913 146.813 333.451 147.199 334.326 147.682C335.174 148.156 335.775 148.611 336.131 149.049C336.486 149.486 336.664 149.979 336.664 150.525C336.664 151.332 336.382 151.975 335.816 152.453C335.251 152.927 334.449 153.164 333.41 153.164C333.046 153.164 332.64 153.109 332.193 153C331.747 152.886 331.416 152.754 331.202 152.604ZM344.095 149.78H339.152C339.171 150.56 339.38 151.161 339.781 151.585C340.182 152.009 340.734 152.221 341.436 152.221C342.224 152.221 342.949 151.961 343.609 151.441V152.494C342.994 152.941 342.181 153.164 341.169 153.164C340.18 153.164 339.403 152.847 338.838 152.214C338.273 151.576 337.99 150.68 337.99 149.527C337.99 148.438 338.298 147.552 338.913 146.868C339.533 146.18 340.301 145.836 341.217 145.836C342.133 145.836 342.841 146.132 343.343 146.725C343.844 147.317 344.095 148.14 344.095 149.192V149.78ZM342.946 148.83C342.942 148.183 342.785 147.679 342.475 147.319C342.169 146.959 341.743 146.779 341.196 146.779C340.668 146.779 340.219 146.968 339.85 147.347C339.48 147.725 339.253 148.219 339.166 148.83H342.946ZM351.423 149.78H346.48C346.499 150.56 346.708 151.161 347.109 151.585C347.51 152.009 348.062 152.221 348.764 152.221C349.552 152.221 350.277 151.961 350.938 151.441V152.494C350.322 152.941 349.509 153.164 348.497 153.164C347.508 153.164 346.731 152.847 346.166 152.214C345.601 151.576 345.318 150.68 345.318 149.527C345.318 148.438 345.626 147.552 346.241 146.868C346.861 146.18 347.629 145.836 348.545 145.836C349.461 145.836 350.17 146.132 350.671 146.725C351.172 147.317 351.423 148.14 351.423 149.192V149.78ZM350.274 148.83C350.27 148.183 350.113 147.679 349.803 147.319C349.497 146.959 349.071 146.779 348.524 146.779C347.996 146.779 347.547 146.968 347.178 147.347C346.809 147.725 346.581 148.219 346.494 148.83H350.274ZM361.978 153H360.856V151.906H360.829C360.341 152.745 359.624 153.164 358.676 153.164C357.979 153.164 357.432 152.979 357.035 152.61C356.643 152.241 356.447 151.751 356.447 151.141C356.447 149.833 357.217 149.072 358.758 148.857L360.856 148.563C360.856 147.374 360.376 146.779 359.414 146.779C358.571 146.779 357.81 147.066 357.131 147.641V146.492C357.819 146.055 358.612 145.836 359.51 145.836C361.155 145.836 361.978 146.706 361.978 148.447V153ZM360.856 149.459L359.168 149.691C358.648 149.764 358.257 149.894 357.992 150.081C357.728 150.263 357.596 150.589 357.596 151.059C357.596 151.4 357.716 151.681 357.958 151.899C358.204 152.114 358.53 152.221 358.936 152.221C359.492 152.221 359.95 152.027 360.31 151.64C360.674 151.248 360.856 150.753 360.856 150.156V149.459ZM369.9 153H368.779V149.008C368.779 147.522 368.237 146.779 367.152 146.779C366.592 146.779 366.127 146.991 365.758 147.415C365.393 147.834 365.211 148.365 365.211 149.008V153H364.09V146H365.211V147.162H365.238C365.767 146.278 366.533 145.836 367.535 145.836C368.301 145.836 368.886 146.084 369.292 146.581C369.698 147.073 369.9 147.786 369.9 148.721V153ZM377.994 153H376.873V151.811H376.846C376.326 152.713 375.524 153.164 374.439 153.164C373.56 153.164 372.856 152.852 372.327 152.228C371.803 151.599 371.541 150.744 371.541 149.664C371.541 148.507 371.833 147.579 372.416 146.882C372.999 146.185 373.776 145.836 374.747 145.836C375.709 145.836 376.408 146.214 376.846 146.971H376.873V142.637H377.994V153ZM376.873 149.835V148.803C376.873 148.238 376.686 147.759 376.312 147.367C375.939 146.975 375.465 146.779 374.891 146.779C374.207 146.779 373.669 147.03 373.277 147.531C372.885 148.033 372.689 148.725 372.689 149.609C372.689 150.416 372.876 151.054 373.25 151.523C373.628 151.988 374.134 152.221 374.768 152.221C375.392 152.221 375.898 151.995 376.285 151.544C376.677 151.093 376.873 150.523 376.873 149.835ZM394.045 153H392.924V148.98C392.924 148.206 392.803 147.645 392.562 147.299C392.325 146.952 391.924 146.779 391.358 146.779C390.88 146.779 390.472 146.998 390.135 147.436C389.802 147.873 389.636 148.397 389.636 149.008V153H388.515V148.844C388.515 147.467 387.984 146.779 386.922 146.779C386.43 146.779 386.024 146.987 385.705 147.401C385.386 147.812 385.227 148.347 385.227 149.008V153H384.105V146H385.227V147.107H385.254C385.751 146.26 386.475 145.836 387.428 145.836C387.906 145.836 388.323 145.97 388.679 146.239C389.034 146.504 389.278 146.852 389.41 147.285C389.93 146.319 390.704 145.836 391.734 145.836C393.275 145.836 394.045 146.786 394.045 148.687V153ZM401.175 153H400.054V151.906H400.026C399.539 152.745 398.821 153.164 397.873 153.164C397.176 153.164 396.629 152.979 396.232 152.61C395.84 152.241 395.645 151.751 395.645 151.141C395.645 149.833 396.415 149.072 397.955 148.857L400.054 148.563C400.054 147.374 399.573 146.779 398.611 146.779C397.768 146.779 397.007 147.066 396.328 147.641V146.492C397.016 146.055 397.809 145.836 398.707 145.836C400.352 145.836 401.175 146.706 401.175 148.447V153ZM400.054 149.459L398.365 149.691C397.846 149.764 397.454 149.894 397.189 150.081C396.925 150.263 396.793 150.589 396.793 151.059C396.793 151.4 396.914 151.681 397.155 151.899C397.401 152.114 397.727 152.221 398.133 152.221C398.689 152.221 399.147 152.027 399.507 151.64C399.871 151.248 400.054 150.753 400.054 150.156V149.459ZM409.098 153H407.977V149.008C407.977 147.522 407.434 146.779 406.35 146.779C405.789 146.779 405.324 146.991 404.955 147.415C404.59 147.834 404.408 148.365 404.408 149.008V153H403.287V146H404.408V147.162H404.436C404.964 146.278 405.73 145.836 406.732 145.836C407.498 145.836 408.084 146.084 408.489 146.581C408.895 147.073 409.098 147.786 409.098 148.721V153ZM416.228 153H415.106V151.906H415.079C414.591 152.745 413.874 153.164 412.926 153.164C412.229 153.164 411.682 152.979 411.285 152.61C410.893 152.241 410.697 151.751 410.697 151.141C410.697 149.833 411.467 149.072 413.008 148.857L415.106 148.563C415.106 147.374 414.626 146.779 413.664 146.779C412.821 146.779 412.06 147.066 411.381 147.641V146.492C412.069 146.055 412.862 145.836 413.76 145.836C415.405 145.836 416.228 146.706 416.228 148.447V153ZM415.106 149.459L413.418 149.691C412.898 149.764 412.507 149.894 412.242 150.081C411.978 150.263 411.846 150.589 411.846 151.059C411.846 151.4 411.966 151.681 412.208 151.899C412.454 152.114 412.78 152.221 413.186 152.221C413.742 152.221 414.2 152.027 414.56 151.64C414.924 151.248 415.106 150.753 415.106 150.156V149.459ZM424.314 152.439C424.314 155.01 423.084 156.295 420.623 156.295C419.757 156.295 419.001 156.131 418.354 155.803V154.682C419.142 155.119 419.894 155.338 420.609 155.338C422.332 155.338 423.193 154.422 423.193 152.59V151.824H423.166C422.633 152.717 421.831 153.164 420.76 153.164C419.889 153.164 419.188 152.854 418.654 152.234C418.126 151.61 417.861 150.774 417.861 149.726C417.861 148.536 418.146 147.59 418.716 146.889C419.29 146.187 420.074 145.836 421.067 145.836C422.011 145.836 422.71 146.214 423.166 146.971H423.193V146H424.314V152.439ZM423.193 149.835V148.803C423.193 148.247 423.004 147.771 422.626 147.374C422.252 146.978 421.785 146.779 421.225 146.779C420.532 146.779 419.99 147.032 419.598 147.538C419.206 148.039 419.01 148.743 419.01 149.65C419.01 150.43 419.197 151.054 419.57 151.523C419.949 151.988 420.448 152.221 421.067 152.221C421.696 152.221 422.207 151.997 422.599 151.551C422.995 151.104 423.193 150.532 423.193 149.835ZM432.21 149.78H427.268C427.286 150.56 427.495 151.161 427.896 151.585C428.298 152.009 428.849 152.221 429.551 152.221C430.339 152.221 431.064 151.961 431.725 151.441V152.494C431.109 152.941 430.296 153.164 429.284 153.164C428.295 153.164 427.518 152.847 426.953 152.214C426.388 151.576 426.105 150.68 426.105 149.527C426.105 148.438 426.413 147.552 427.028 146.868C427.648 146.18 428.416 145.836 429.332 145.836C430.248 145.836 430.957 146.132 431.458 146.725C431.959 147.317 432.21 148.14 432.21 149.192V149.78ZM431.062 148.83C431.057 148.183 430.9 147.679 430.59 147.319C430.285 146.959 429.858 146.779 429.312 146.779C428.783 146.779 428.334 146.968 427.965 147.347C427.596 147.725 427.368 148.219 427.281 148.83H431.062ZM442.765 153H441.644V151.906H441.616C441.129 152.745 440.411 153.164 439.463 153.164C438.766 153.164 438.219 152.979 437.822 152.61C437.43 152.241 437.234 151.751 437.234 151.141C437.234 149.833 438.005 149.072 439.545 148.857L441.644 148.563C441.644 147.374 441.163 146.779 440.201 146.779C439.358 146.779 438.597 147.066 437.918 147.641V146.492C438.606 146.055 439.399 145.836 440.297 145.836C441.942 145.836 442.765 146.706 442.765 148.447V153ZM441.644 149.459L439.955 149.691C439.436 149.764 439.044 149.894 438.779 150.081C438.515 150.263 438.383 150.589 438.383 151.059C438.383 151.4 438.504 151.681 438.745 151.899C438.991 152.114 439.317 152.221 439.723 152.221C440.279 152.221 440.737 152.027 441.097 151.64C441.461 151.248 441.644 150.753 441.644 150.156V149.459ZM445.998 153H444.877V142.637H445.998V153ZM449.389 153H448.268V142.637H449.389V153ZM461.071 146L457.852 154.121C457.277 155.57 456.471 156.295 455.432 156.295C455.14 156.295 454.896 156.265 454.7 156.206V155.201C454.942 155.283 455.163 155.324 455.363 155.324C455.928 155.324 456.352 154.987 456.635 154.312L457.195 152.986L454.461 146H455.705L457.599 151.387C457.621 151.455 457.669 151.633 457.742 151.92H457.783C457.806 151.811 457.852 151.637 457.92 151.4L459.909 146H461.071ZM465.139 153.164C464.104 153.164 463.277 152.838 462.657 152.187C462.042 151.53 461.734 150.662 461.734 149.582C461.734 148.406 462.056 147.488 462.698 146.827C463.341 146.166 464.209 145.836 465.303 145.836C466.346 145.836 467.16 146.157 467.743 146.8C468.331 147.442 468.625 148.333 468.625 149.473C468.625 150.589 468.308 151.485 467.675 152.159C467.046 152.829 466.201 153.164 465.139 153.164ZM465.221 146.779C464.501 146.779 463.931 147.025 463.512 147.518C463.092 148.005 462.883 148.68 462.883 149.541C462.883 150.37 463.095 151.024 463.519 151.503C463.942 151.981 464.51 152.221 465.221 152.221C465.945 152.221 466.501 151.986 466.889 151.517C467.281 151.047 467.477 150.38 467.477 149.514C467.477 148.639 467.281 147.964 466.889 147.49C466.501 147.016 465.945 146.779 465.221 146.779ZM476.076 153H474.955V151.893H474.928C474.463 152.74 473.743 153.164 472.768 153.164C471.1 153.164 470.266 152.171 470.266 150.184V146H471.38V150.006C471.38 151.482 471.945 152.221 473.075 152.221C473.622 152.221 474.071 152.02 474.422 151.619C474.777 151.214 474.955 150.685 474.955 150.033V146H476.076V153ZM481.996 147.135C481.8 146.984 481.518 146.909 481.148 146.909C480.67 146.909 480.269 147.135 479.945 147.586C479.626 148.037 479.467 148.652 479.467 149.432V153H478.346V146H479.467V147.442H479.494C479.654 146.95 479.897 146.567 480.226 146.294C480.554 146.016 480.921 145.877 481.326 145.877C481.618 145.877 481.841 145.909 481.996 145.973V147.135ZM496.994 153H495.873V148.98C495.873 148.206 495.752 147.645 495.511 147.299C495.274 146.952 494.873 146.779 494.308 146.779C493.829 146.779 493.421 146.998 493.084 147.436C492.751 147.873 492.585 148.397 492.585 149.008V153H491.464V148.844C491.464 147.467 490.933 146.779 489.871 146.779C489.379 146.779 488.973 146.987 488.654 147.401C488.335 147.812 488.176 148.347 488.176 149.008V153H487.055V146H488.176V147.107H488.203C488.7 146.26 489.424 145.836 490.377 145.836C490.855 145.836 491.272 145.97 491.628 146.239C491.983 146.504 492.227 146.852 492.359 147.285C492.879 146.319 493.654 145.836 494.684 145.836C496.224 145.836 496.994 146.786 496.994 148.687V153ZM504.739 149.78H499.797C499.815 150.56 500.025 151.161 500.426 151.585C500.827 152.009 501.378 152.221 502.08 152.221C502.868 152.221 503.593 151.961 504.254 151.441V152.494C503.639 152.941 502.825 153.164 501.813 153.164C500.825 153.164 500.048 152.847 499.482 152.214C498.917 151.576 498.635 150.68 498.635 149.527C498.635 148.438 498.942 147.552 499.558 146.868C500.177 146.18 500.945 145.836 501.861 145.836C502.777 145.836 503.486 146.132 503.987 146.725C504.489 147.317 504.739 148.14 504.739 149.192V149.78ZM503.591 148.83C503.586 148.183 503.429 147.679 503.119 147.319C502.814 146.959 502.388 146.779 501.841 146.779C501.312 146.779 500.863 146.968 500.494 147.347C500.125 147.725 499.897 148.219 499.811 148.83H503.591ZM512.067 149.78H507.125C507.143 150.56 507.353 151.161 507.754 151.585C508.155 152.009 508.706 152.221 509.408 152.221C510.197 152.221 510.921 151.961 511.582 151.441V152.494C510.967 152.941 510.153 153.164 509.142 153.164C508.153 153.164 507.376 152.847 506.811 152.214C506.245 151.576 505.963 150.68 505.963 149.527C505.963 148.438 506.271 147.552 506.886 146.868C507.506 146.18 508.273 145.836 509.189 145.836C510.105 145.836 510.814 146.132 511.315 146.725C511.817 147.317 512.067 148.14 512.067 149.192V149.78ZM510.919 148.83C510.914 148.183 510.757 147.679 510.447 147.319C510.142 146.959 509.716 146.779 509.169 146.779C508.64 146.779 508.191 146.968 507.822 147.347C507.453 147.725 507.225 148.219 507.139 148.83H510.919ZM517.017 152.932C516.752 153.077 516.404 153.15 515.971 153.15C514.745 153.15 514.132 152.467 514.132 151.1V146.957H512.929V146H514.132V144.291L515.253 143.929V146H517.017V146.957H515.253V150.901C515.253 151.371 515.333 151.706 515.492 151.906C515.652 152.107 515.916 152.207 516.285 152.207C516.568 152.207 516.812 152.13 517.017 151.975V152.932ZM519.088 144.223C518.887 144.223 518.716 144.154 518.575 144.018C518.434 143.881 518.363 143.708 518.363 143.498C518.363 143.288 518.434 143.115 518.575 142.979C518.716 142.837 518.887 142.767 519.088 142.767C519.293 142.767 519.466 142.837 519.607 142.979C519.753 143.115 519.826 143.288 519.826 143.498C519.826 143.699 519.753 143.869 519.607 144.011C519.466 144.152 519.293 144.223 519.088 144.223ZM519.635 153H518.514V146H519.635V153ZM527.715 153H526.594V149.008C526.594 147.522 526.051 146.779 524.967 146.779C524.406 146.779 523.941 146.991 523.572 147.415C523.208 147.834 523.025 148.365 523.025 149.008V153H521.904V146H523.025V147.162H523.053C523.581 146.278 524.347 145.836 525.35 145.836C526.115 145.836 526.701 146.084 527.106 146.581C527.512 147.073 527.715 147.786 527.715 148.721V153ZM535.809 152.439C535.809 155.01 534.578 156.295 532.117 156.295C531.251 156.295 530.495 156.131 529.848 155.803V154.682C530.636 155.119 531.388 155.338 532.104 155.338C533.826 155.338 534.688 154.422 534.688 152.59V151.824H534.66C534.127 152.717 533.325 153.164 532.254 153.164C531.383 153.164 530.682 152.854 530.148 152.234C529.62 151.61 529.355 150.774 529.355 149.726C529.355 148.536 529.64 147.59 530.21 146.889C530.784 146.187 531.568 145.836 532.562 145.836C533.505 145.836 534.204 146.214 534.66 146.971H534.688V146H535.809V152.439ZM534.688 149.835V148.803C534.688 148.247 534.498 147.771 534.12 147.374C533.746 146.978 533.279 146.779 532.719 146.779C532.026 146.779 531.484 147.032 531.092 147.538C530.7 148.039 530.504 148.743 530.504 149.65C530.504 150.43 530.691 151.054 531.064 151.523C531.443 151.988 531.942 152.221 532.562 152.221C533.19 152.221 533.701 151.997 534.093 151.551C534.489 151.104 534.688 150.532 534.688 149.835ZM537.654 152.747V151.544C538.201 151.995 538.807 152.221 539.473 152.221C540.361 152.221 540.806 151.893 540.806 151.236C540.806 150.963 540.708 150.737 540.512 150.56C540.316 150.382 539.933 150.17 539.363 149.924C538.693 149.628 538.242 149.325 538.01 149.015C537.782 148.7 537.668 148.315 537.668 147.859C537.668 147.276 537.898 146.793 538.358 146.41C538.819 146.027 539.411 145.836 540.136 145.836C540.692 145.836 541.191 145.941 541.633 146.15V147.285C541.173 146.948 540.644 146.779 540.047 146.779C539.673 146.779 539.375 146.87 539.151 147.053C538.928 147.235 538.816 147.472 538.816 147.764C538.816 148.046 538.896 148.274 539.056 148.447C539.22 148.62 539.584 148.826 540.149 149.062C540.838 149.354 541.309 149.66 541.564 149.979C541.824 150.298 541.954 150.68 541.954 151.127C541.954 151.724 541.724 152.214 541.264 152.597C540.803 152.975 540.179 153.164 539.391 153.164C538.725 153.164 538.146 153.025 537.654 152.747ZM553.309 153H552.188V148.967C552.188 147.508 551.645 146.779 550.561 146.779C550.014 146.779 549.553 146.991 549.18 147.415C548.806 147.834 548.619 148.374 548.619 149.035V153H547.498V142.637H548.619V147.162H548.646C549.184 146.278 549.95 145.836 550.943 145.836C552.52 145.836 553.309 146.786 553.309 148.687V153ZM561.054 149.78H556.111C556.13 150.56 556.339 151.161 556.74 151.585C557.141 152.009 557.693 152.221 558.395 152.221C559.183 152.221 559.908 151.961 560.568 151.441V152.494C559.953 152.941 559.14 153.164 558.128 153.164C557.139 153.164 556.362 152.847 555.797 152.214C555.232 151.576 554.949 150.68 554.949 149.527C554.949 148.438 555.257 147.552 555.872 146.868C556.492 146.18 557.26 145.836 558.176 145.836C559.092 145.836 559.8 146.132 560.302 146.725C560.803 147.317 561.054 148.14 561.054 149.192V149.78ZM559.905 148.83C559.901 148.183 559.743 147.679 559.434 147.319C559.128 146.959 558.702 146.779 558.155 146.779C557.627 146.779 557.178 146.968 556.809 147.347C556.439 147.725 556.212 148.219 556.125 148.83H559.905ZM566.406 147.135C566.21 146.984 565.928 146.909 565.559 146.909C565.08 146.909 564.679 147.135 564.355 147.586C564.036 148.037 563.877 148.652 563.877 149.432V153H562.756V146H563.877V147.442H563.904C564.064 146.95 564.308 146.567 564.636 146.294C564.964 146.016 565.331 145.877 565.736 145.877C566.028 145.877 566.251 145.909 566.406 145.973V147.135ZM573.058 149.78H568.115C568.133 150.56 568.343 151.161 568.744 151.585C569.145 152.009 569.697 152.221 570.398 152.221C571.187 152.221 571.911 151.961 572.572 151.441V152.494C571.957 152.941 571.144 153.164 570.132 153.164C569.143 153.164 568.366 152.847 567.801 152.214C567.236 151.576 566.953 150.68 566.953 149.527C566.953 148.438 567.261 147.552 567.876 146.868C568.496 146.18 569.264 145.836 570.18 145.836C571.096 145.836 571.804 146.132 572.306 146.725C572.807 147.317 573.058 148.14 573.058 149.192V149.78ZM571.909 148.83C571.905 148.183 571.747 147.679 571.438 147.319C571.132 146.959 570.706 146.779 570.159 146.779C569.631 146.779 569.182 146.968 568.812 147.347C568.443 147.725 568.215 148.219 568.129 148.83H571.909Z" fill="white" fill-opacity="0.7"/>
<path d="M433.796 189.59C433.058 189.973 432.139 190.164 431.041 190.164C429.619 190.164 428.48 189.715 427.623 188.817C426.766 187.92 426.338 186.742 426.338 185.283C426.338 183.715 426.819 182.449 427.78 181.482C428.746 180.516 429.965 180.033 431.438 180.033C432.385 180.033 433.172 180.168 433.796 180.437V182.05C433.135 181.658 432.406 181.462 431.608 181.462C430.547 181.462 429.685 181.801 429.024 182.48C428.368 183.16 428.04 184.066 428.04 185.201C428.04 186.281 428.348 187.143 428.963 187.785C429.578 188.423 430.387 188.742 431.39 188.742C432.315 188.742 433.117 188.523 433.796 188.086V189.59ZM438.581 190.164C437.501 190.164 436.637 189.838 435.99 189.187C435.348 188.53 435.026 187.662 435.026 186.582C435.026 185.406 435.361 184.488 436.031 183.827C436.706 183.166 437.613 182.836 438.752 182.836C439.846 182.836 440.698 183.157 441.309 183.8C441.919 184.442 442.225 185.333 442.225 186.473C442.225 187.589 441.894 188.485 441.233 189.159C440.577 189.829 439.693 190.164 438.581 190.164ZM438.656 184.101C438.036 184.101 437.547 184.317 437.187 184.75C436.826 185.183 436.646 185.78 436.646 186.541C436.646 187.275 436.829 187.854 437.193 188.277C437.558 188.697 438.046 188.906 438.656 188.906C439.281 188.906 439.759 188.699 440.092 188.284C440.429 187.869 440.598 187.279 440.598 186.514C440.598 185.743 440.429 185.149 440.092 184.729C439.759 184.31 439.281 184.101 438.656 184.101ZM450.079 190H448.493V186.056C448.493 184.748 448.031 184.094 447.105 184.094C446.622 184.094 446.224 184.276 445.909 184.641C445.595 185.001 445.438 185.456 445.438 186.008V190H443.845V183H445.438V184.162H445.465C445.989 183.278 446.745 182.836 447.734 182.836C448.495 182.836 449.076 183.084 449.478 183.581C449.879 184.073 450.079 184.786 450.079 185.721V190ZM458.255 190H456.669V186.056C456.669 184.748 456.206 184.094 455.281 184.094C454.798 184.094 454.399 184.276 454.085 184.641C453.771 185.001 453.613 185.456 453.613 186.008V190H452.021V183H453.613V184.162H453.641C454.165 183.278 454.921 182.836 455.91 182.836C456.671 182.836 457.252 183.084 457.653 183.581C458.054 184.073 458.255 184.786 458.255 185.721V190ZM466.123 186.931H461.352C461.37 187.578 461.568 188.077 461.946 188.428C462.329 188.779 462.853 188.954 463.519 188.954C464.266 188.954 464.952 188.731 465.576 188.284V189.562C464.938 189.964 464.095 190.164 463.047 190.164C462.017 190.164 461.208 189.847 460.62 189.214C460.037 188.576 459.745 187.68 459.745 186.527C459.745 185.438 460.066 184.552 460.709 183.868C461.356 183.18 462.158 182.836 463.115 182.836C464.072 182.836 464.813 183.144 465.337 183.759C465.861 184.374 466.123 185.229 466.123 186.322V186.931ZM464.592 185.81C464.587 185.24 464.453 184.798 464.188 184.483C463.924 184.164 463.56 184.005 463.095 184.005C462.639 184.005 462.252 184.171 461.933 184.504C461.618 184.837 461.424 185.272 461.352 185.81H464.592ZM472.645 189.679C472.084 190.002 471.421 190.164 470.655 190.164C469.616 190.164 468.778 189.84 468.14 189.193C467.502 188.542 467.183 187.699 467.183 186.664C467.183 185.511 467.524 184.586 468.208 183.889C468.896 183.187 469.814 182.836 470.963 182.836C471.601 182.836 472.164 182.948 472.651 183.171V184.647C472.164 184.283 471.644 184.101 471.093 184.101C470.423 184.101 469.874 184.328 469.445 184.784C469.017 185.235 468.803 185.828 468.803 186.562C468.803 187.286 469.003 187.858 469.404 188.277C469.81 188.697 470.352 188.906 471.031 188.906C471.601 188.906 472.139 188.703 472.645 188.298V189.679ZM477.915 189.925C477.605 190.08 477.197 190.157 476.691 190.157C475.333 190.157 474.654 189.506 474.654 188.202V184.244H473.485V183H474.654V181.38L476.24 180.929V183H477.915V184.244H476.24V187.744C476.24 188.159 476.315 188.455 476.466 188.633C476.616 188.811 476.867 188.899 477.218 188.899C477.487 188.899 477.719 188.822 477.915 188.667V189.925Z" fill="white" fill-opacity="0.95"/>
<rect x="416" y="170.5" width="72" height="27" rx="13.5" stroke="white" stroke-opacity="0.3"/>
<defs>
<linearGradient id="paint0_linear_4456_504196" x1="148.001" y1="81.2507" x2="148.001" y2="102.751" gradientUnits="userSpaceOnUse">
<stop stop-color="#93C437"/>
<stop offset="1" stop-color="#279BE8"/>
</linearGradient>
<linearGradient id="paint1_linear_4456_504196" x1="452" y1="78.2505" x2="452" y2="104.749" gradientUnits="userSpaceOnUse">
<stop stop-color="#279BE8"/>
<stop offset="1" stop-color="#875AE0"/>
</linearGradient>
<linearGradient id="paint2_linear_4456_504196" x1="452" y1="78.2505" x2="452" y2="104.749" gradientUnits="userSpaceOnUse">
<stop stop-color="#279BE8"/>
<stop offset="1" stop-color="#875AE0"/>
</linearGradient>
</defs>
</svg>
