<svg width="56" height="53" viewBox="0 0 56 53" fill="none" xmlns="http://www.w3.org/2000/svg">
	<path d="M11.8635 23.0299L11.8637 23.0309C12.7755 27.042 15.4702 30.5926 19.06 32.6232L19.0666 32.6272L19.1291 32.6651C19.1831 32.6976 19.2611 32.7442 19.36 32.8022C19.524 32.8985 19.7458 33.0263 20.0104 33.1733C20.774 34.0735 21.7109 34.8247 22.7705 35.3772V39.6267L18.1414 39.6267L18.1333 39.6267C13.4808 39.6644 9.64896 40.9263 6.74135 43.5013L6.74113 43.5015C4.09451 45.8467 2.52642 48.9781 2.00883 52.8467L1.8573 53.9793H3C4.49651 53.9793 58.1156 53.9793 61.4792 53.9819L64.0057 53.9838L62.165 52.2533C60.4053 50.599 58.8259 49.0692 57.6863 47.953C57.1167 47.3949 56.6572 46.9405 56.3404 46.6259C56.182 46.4685 56.0593 46.3462 55.9763 46.2633L55.8822 46.1691L55.8584 46.1453L55.8525 46.1394L55.8511 46.138L55.8508 46.1376L55.8507 46.1376L55.8237 46.1104L55.7947 46.0854L55.142 46.8431C55.7947 46.0854 55.7946 46.0854 55.7946 46.0853L55.7944 46.0852L55.7939 46.0848L55.7924 46.0835L55.7872 46.079L55.7677 46.0623L55.6951 46.0005C55.6323 45.9473 55.5415 45.8709 55.4281 45.7767C55.2015 45.5884 54.8832 45.3281 54.5155 45.0391C53.7906 44.4693 52.835 43.7572 52.0039 43.2759C51.5767 43.0285 51.0283 42.7528 50.6015 42.5452C50.385 42.44 50.194 42.3494 50.0569 42.2851C49.9883 42.2529 49.933 42.2272 49.8946 42.2095L49.8501 42.1889L49.8382 42.1834L49.835 42.1819L49.834 42.1815L49.8337 42.1814L49.8336 42.1813L49.4172 43.0905L49.8336 42.1813L49.7863 42.1597L49.7371 42.143L49.5322 42.0739C45.8744 40.8299 41.4331 40.0691 36.2255 39.7712L36.2258 33.3032C36.8482 33.086 37.4774 32.8252 38.0815 32.4849C39.1919 31.8593 40.1298 31.0159 40.9354 30.1354L40.9358 30.135C44.6482 26.0724 46.2645 20.248 45.165 14.8782L45.165 14.8781C44.0657 9.51196 40.2896 4.76641 35.2778 2.44756L35.2776 2.44747C33.6659 1.70219 31.9051 1.18496 30.0868 1.05587L30.0859 1.0558C28.4429 0.940648 26.0452 0.99301 24.3699 1.31455L24.3697 1.31458C19.4194 2.26551 15.7401 5.03685 13.4488 9.47787C11.9333 12.4148 11.1687 15.5086 11.361 18.8424L11.361 18.843C11.4398 20.1938 11.5449 21.6224 11.8635 23.0299Z" fill="#707070" stroke="#292929" stroke-width="2"/>
	<path fill-rule="evenodd" clip-rule="evenodd" d="M19.5671 31.7611C16.2082 29.8667 13.6877 26.5437 12.8388 22.8092C12.5401 21.4893 12.4379 20.1332 12.3593 18.7849C12.1785 15.6508 12.8938 12.7341 14.3375 9.93644C16.4886 5.76715 19.9104 3.18949 24.5584 2.29663C26.1226 1.99642 28.4282 1.94207 30.016 2.05336C31.6928 2.1724 33.3356 2.65119 34.8579 3.35513C39.5845 5.542 43.1504 10.027 44.1853 15.0788C45.2203 20.1332 43.6954 25.6327 40.1976 29.4604C39.4351 30.2937 38.5784 31.0572 37.5906 31.6136C36.5111 32.2218 35.3033 32.566 34.1085 32.905C31.347 33.6892 28.5173 34.4811 25.6483 34.3C23.4606 34.1602 19.5671 31.7611 19.5671 31.7611Z" fill="#3B3B3B"/>
	<path fill-rule="evenodd" clip-rule="evenodd" d="M23.7705 41.2322V25.9888H35.2255V41.3331" fill="#949494"/>
	<path fill-rule="evenodd" clip-rule="evenodd" d="M3 52.9792C3.48995 49.3171 4.95981 46.416 7.40434 44.2498C10.0899 41.8714 13.6689 40.6628 18.1414 40.6266H18.351H30.9221C38.4207 40.6266 44.515 41.4237 49.2102 43.0205L49.4172 43.0904C49.4172 43.0904 50.714 43.6843 51.5028 44.1411C53.0365 45.0294 55.142 46.843 55.142 46.843C55.142 46.843 57.9481 49.6613 61.48 52.9818C58.1158 52.9792 4.49606 52.9792 3 52.9792Z" fill="#545454"/>
	<path fill-rule="evenodd" clip-rule="evenodd" d="M27.0476 12.5194C31.5672 12.5194 35.2301 16.1374 35.2301 20.6018V27.3384C35.2301 31.8027 31.5672 35.4207 27.0476 35.4207C22.528 35.4207 18.8651 31.8027 18.8651 27.3384V20.6018C18.8651 16.1374 22.528 12.5194 27.0476 12.5194Z" fill="#949494"/>
	<path fill-rule="evenodd" clip-rule="evenodd" d="M18.727 20.5212C19.01 19.0797 19.5084 17.5321 20.6062 16.5409C21.8429 15.4203 23.6874 15.3245 25.3643 15.3685C26.9809 15.4099 28.6079 15.5315 30.1564 15.9922C31.7022 16.4529 33.1747 17.2785 34.1782 18.5311C34.7258 19.2169 35.1188 20.0114 35.4306 20.8266C35.559 21.1631 35.6874 21.5202 35.9572 21.7635C36.3738 22.1387 37.0184 22.1336 37.5607 21.9809C38.8812 21.6108 39.9109 20.5238 40.4716 19.2868C41.0323 18.0497 41.1843 16.6677 41.2183 15.3116C41.2498 14.1159 41.1948 12.9047 40.8463 11.7608C40.097 9.29961 38.0245 7.37672 35.6454 6.33634C33.2664 5.29855 30.6044 5.05527 28.0027 5.13291C25.6001 5.20538 23.2053 5.53664 20.8761 6.12412C19.1862 6.54856 17.4962 7.12827 16.1207 8.18677C15.636 8.55944 15.1905 8.99682 14.8866 9.52736C14.5041 10.1977 14.3731 10.9792 14.2892 11.7427C14.174 12.7753 14.1268 13.8157 14.0823 14.8561C14.0482 15.6221 14.0246 16.4374 14.4176 17.0973C14.7844 17.7158 15.4473 18.0885 16.0814 18.4353C17.077 18.9788 17.7314 20.1256 18.727 20.669" fill="#3B3B3B"/>
</svg>