<svg width="1472" height="54" viewBox="0 0 1472 54" fill="none" xmlns="http://www.w3.org/2000/svg">
<g filter="url(#filter0_bdd)">
<path fill-rule="evenodd" clip-rule="evenodd" d="M16 16V38H1456V16H16Z" fill="white" fill-opacity="0.1" style="mix-hybrid-mode:overlay"/>
<path fill-rule="evenodd" clip-rule="evenodd" d="M16 16V38H1456V16H16Z" fill="white" fill-opacity="0.1"/>
</g>
<mask id="mask0" mask-type="alpha" maskUnits="userSpaceOnUse" x="16" y="16" width="1440" height="22">
<path fill-rule="evenodd" clip-rule="evenodd" d="M16 16V38H1456V16H16Z" fill="white"/>
<path fill-rule="evenodd" clip-rule="evenodd" d="M16 16V38H1456V16H16Z" stroke="white"/>
</mask>
<g mask="url(#mask0)">
<path fill-rule="evenodd" clip-rule="evenodd" d="M49.5245 24.0177C48.6848 23.011 47.5066 22.4286 46.395 22.4286C44.9237 22.4286 44.3021 23.1006 43.2814 23.1006C42.2295 23.1006 41.4297 22.4297 40.1571 22.4297C38.9074 22.4297 37.5785 23.1599 36.7359 24.4076C35.5505 26.1632 35.7513 29.4659 37.6735 32.2803C38.3611 33.2864 39.2793 34.4181 40.4797 34.4285C41.5467 34.438 41.8488 33.7735 43.2966 33.7658C44.7443 33.7582 45.0181 34.4357 46.0852 34.4263C47.2854 34.4152 48.2541 33.1624 48.9414 32.1557C49.4341 31.4351 49.6173 31.071 50 30.2553C47.2207 29.2452 46.7737 25.4675 49.5245 24.0177V24.0177ZM45.2047 21.3127C45.6667 20.7128 46.0178 19.8659 45.8902 19C45.1353 19.0528 44.2524 19.5385 43.7368 20.1716C43.269 20.7465 42.8826 21.5988 43.033 22.4276C43.857 22.4532 44.7098 21.9554 45.2047 21.3127V21.3127Z" fill="white"/>
<path fill-rule="evenodd" clip-rule="evenodd" d="M1277.39 32.8395C1277.12 32.0595 1276.37 31.5 1275.5 31.5C1274.63 31.5 1273.88 32.0595 1273.61 32.8395L1275.5 34.7279L1277.39 32.8395V32.8395Z" fill="white"/>
<path d="M1280.31 29.9157C1279.22 28.4494 1277.47 27.5 1275.5 27.5C1273.53 27.5 1271.78 28.4494 1270.69 29.9157L1271.4 30.6318C1272.31 29.3427 1273.81 28.5 1275.5 28.5C1277.19 28.5 1278.69 29.3427 1279.6 30.6318L1280.31 29.9157V29.9157Z" fill="white"/>
<path d="M1283.16 27.0694C1281.32 24.8871 1278.57 23.5 1275.5 23.5C1272.43 23.5 1269.68 24.8871 1267.84 27.0694L1268.55 27.7795C1270.2 25.7768 1272.7 24.5 1275.5 24.5C1278.3 24.5 1280.8 25.7768 1282.45 27.7795L1283.16 27.0694V27.0694Z" fill="white"/>
<path d="M1285.99 24.2334C1283.43 21.3305 1279.68 19.5 1275.5 19.5C1271.32 19.5 1267.57 21.3305 1265.01 24.2334L1265.71 24.942C1268.1 22.2194 1271.6 20.5 1275.5 20.5C1279.4 20.5 1282.9 22.2194 1285.29 24.942L1285.99 24.2334V24.2334Z" fill="white"/>
<path d="M1300.5 31.5V22.5C1300.5 21.9477 1300.95 21.5 1301.5 21.5H1318.5C1319.05 21.5 1319.5 21.9477 1319.5 22.5V31.5C1319.5 32.0523 1319.05 32.5 1318.5 32.5H1301.5C1300.95 32.5 1300.5 32.0523 1300.5 31.5Z" stroke="white"/>
<path fill-rule="evenodd" clip-rule="evenodd" d="M1302.5 23C1302.22 23 1302 23.2239 1302 23.5V30.5C1302 30.7761 1302.22 31 1302.5 31H1317.5C1317.78 31 1318 30.7761 1318 30.5V23.5C1318 23.2239 1317.78 23 1317.5 23H1302.5Z" fill="white"/>
<path fill-rule="evenodd" clip-rule="evenodd" d="M1321 30.2368C1322.2 29.6143 1323 28.4509 1323 27.1184C1323 25.7859 1322.2 24.6225 1321 24V30.2368V30.2368Z" fill="white"/>
<path d="M1342.16 32V21.7195H1341.22C1341.15 22.1062 1341.03 22.4252 1340.84 22.6765C1340.66 22.9278 1340.43 23.126 1340.16 23.271C1339.9 23.416 1339.61 23.5175 1339.28 23.5755C1338.95 23.6238 1338.61 23.648 1338.26 23.648V24.634H1340.93V32H1342.16ZM1347.3 24.3875C1347.3 24.1265 1347.35 23.8993 1347.45 23.706C1347.55 23.5127 1347.67 23.3483 1347.83 23.213C1347.99 23.0777 1348.18 22.9762 1348.41 22.9085C1348.63 22.8408 1348.86 22.807 1349.1 22.807C1349.61 22.807 1350.02 22.9423 1350.34 23.213C1350.66 23.474 1350.83 23.8655 1350.83 24.3875C1350.83 24.9095 1350.67 25.3155 1350.35 25.6055C1350.03 25.8955 1349.62 26.0405 1349.13 26.0405C1348.88 26.0405 1348.64 26.0067 1348.42 25.939C1348.2 25.8713 1348.01 25.7698 1347.84 25.6345C1347.68 25.4992 1347.55 25.33 1347.45 25.127C1347.35 24.9143 1347.3 24.6678 1347.3 24.3875ZM1346 24.344C1346 24.808 1346.13 25.2382 1346.39 25.6345C1346.65 26.0212 1347 26.3015 1347.44 26.4755C1346.86 26.6785 1346.41 27.0072 1346.1 27.4615C1345.79 27.9062 1345.64 28.433 1345.64 29.042C1345.64 29.564 1345.72 30.0232 1345.9 30.4195C1346.08 30.8062 1346.33 31.13 1346.64 31.391C1346.96 31.652 1347.33 31.8453 1347.75 31.971C1348.18 32.0967 1348.64 32.1595 1349.13 32.1595C1349.61 32.1595 1350.05 32.0918 1350.47 31.9565C1350.88 31.8212 1351.24 31.623 1351.54 31.362C1351.85 31.0913 1352.09 30.7627 1352.26 30.376C1352.45 29.9893 1352.54 29.5447 1352.54 29.042C1352.54 28.404 1352.39 27.8675 1352.09 27.4325C1351.79 26.9878 1351.33 26.6688 1350.71 26.4755C1351.15 26.2822 1351.49 25.997 1351.74 25.62C1352 25.2333 1352.13 24.808 1352.13 24.344C1352.13 24.0153 1352.08 23.6963 1351.96 23.387C1351.84 23.068 1351.66 22.7877 1351.41 22.546C1351.17 22.2947 1350.85 22.0965 1350.45 21.9515C1350.05 21.7968 1349.58 21.7195 1349.02 21.7195C1348.62 21.7195 1348.24 21.7775 1347.87 21.8935C1347.51 22.0095 1347.19 22.1787 1346.91 22.401C1346.63 22.6233 1346.41 22.8988 1346.25 23.2275C1346.08 23.5465 1346 23.9187 1346 24.344ZM1346.94 29.1C1346.94 28.8003 1347 28.5297 1347.1 28.288C1347.22 28.0463 1347.37 27.8385 1347.57 27.6645C1347.77 27.4905 1348 27.36 1348.26 27.273C1348.53 27.1763 1348.82 27.128 1349.12 27.128C1349.41 27.128 1349.68 27.1812 1349.93 27.2875C1350.19 27.3842 1350.42 27.5195 1350.61 27.6935C1350.8 27.8675 1350.95 28.0753 1351.06 28.317C1351.18 28.549 1351.23 28.8052 1351.23 29.0855C1351.23 29.3755 1351.18 29.6413 1351.07 29.883C1350.98 30.1247 1350.83 30.3373 1350.64 30.521C1350.46 30.695 1350.23 30.8352 1349.97 30.9415C1349.72 31.0382 1349.44 31.0865 1349.13 31.0865C1348.49 31.0865 1347.97 30.9125 1347.55 30.5645C1347.15 30.2068 1346.94 29.7187 1346.94 29.1ZM1355.93 26.113V24.5035H1354.32V26.113H1355.93ZM1354.32 30.3905V32H1355.93V30.3905H1354.32ZM1359.06 26.9395C1359.06 26.6882 1359.06 26.4127 1359.06 26.113C1359.07 25.8037 1359.1 25.4992 1359.14 25.1995C1359.18 24.8902 1359.25 24.5905 1359.32 24.3005C1359.41 24.0105 1359.53 23.7592 1359.69 23.5465C1359.85 23.3242 1360.05 23.1453 1360.3 23.01C1360.54 22.8747 1360.83 22.807 1361.18 22.807C1361.53 22.807 1361.82 22.8747 1362.07 23.01C1362.31 23.1453 1362.51 23.3242 1362.66 23.5465C1362.82 23.7592 1362.95 24.0105 1363.02 24.3005C1363.11 24.5905 1363.17 24.8902 1363.21 25.1995C1363.26 25.4992 1363.28 25.8037 1363.28 26.113C1363.29 26.4127 1363.3 26.6882 1363.3 26.9395C1363.3 27.3262 1363.28 27.7612 1363.25 28.2445C1363.24 28.7182 1363.16 29.1677 1363.02 29.593C1362.9 30.0087 1362.69 30.3615 1362.4 30.6515C1362.11 30.9415 1361.7 31.0865 1361.18 31.0865C1360.66 31.0865 1360.25 30.9415 1359.96 30.6515C1359.67 30.3615 1359.46 30.0087 1359.32 29.593C1359.2 29.1677 1359.12 28.7182 1359.09 28.2445C1359.07 27.7612 1359.06 27.3262 1359.06 26.9395ZM1357.76 26.954C1357.76 27.331 1357.77 27.7225 1357.79 28.1285C1357.81 28.5345 1357.86 28.9308 1357.93 29.3175C1358.01 29.7042 1358.12 30.0715 1358.27 30.4195C1358.41 30.7578 1358.61 31.0575 1358.86 31.3185C1359.11 31.5795 1359.43 31.7873 1359.8 31.942C1360.19 32.087 1360.65 32.1595 1361.18 32.1595C1361.72 32.1595 1362.18 32.087 1362.56 31.942C1362.94 31.7873 1363.25 31.5795 1363.5 31.3185C1363.75 31.0575 1363.95 30.7578 1364.1 30.4195C1364.24 30.0715 1364.35 29.7042 1364.43 29.3175C1364.51 28.9308 1364.55 28.5345 1364.57 28.1285C1364.59 27.7225 1364.6 27.331 1364.6 26.954C1364.6 26.577 1364.59 26.1855 1364.57 25.7795C1364.55 25.3735 1364.51 24.9772 1364.43 24.5905C1364.35 24.2038 1364.24 23.8365 1364.1 23.4885C1363.95 23.1405 1363.75 22.836 1363.5 22.575C1363.25 22.314 1362.93 22.1062 1362.54 21.9515C1362.17 21.7968 1361.71 21.7195 1361.18 21.7195C1360.65 21.7195 1360.19 21.7968 1359.8 21.9515C1359.43 22.1062 1359.11 22.314 1358.86 22.575C1358.61 22.836 1358.41 23.1405 1358.27 23.4885C1358.12 23.8365 1358.01 24.2038 1357.93 24.5905C1357.86 24.9772 1357.81 25.3735 1357.79 25.7795C1357.77 26.1855 1357.76 26.577 1357.76 26.954ZM1367.12 26.9395C1367.12 26.6882 1367.12 26.4127 1367.12 26.113C1367.13 25.8037 1367.15 25.4992 1367.19 25.1995C1367.24 24.8902 1367.3 24.5905 1367.38 24.3005C1367.47 24.0105 1367.59 23.7592 1367.74 23.5465C1367.91 23.3242 1368.11 23.1453 1368.35 23.01C1368.6 22.8747 1368.89 22.807 1369.24 22.807C1369.59 22.807 1369.88 22.8747 1370.12 23.01C1370.36 23.1453 1370.56 23.3242 1370.72 23.5465C1370.88 23.7592 1371 24.0105 1371.08 24.3005C1371.17 24.5905 1371.23 24.8902 1371.27 25.1995C1371.32 25.4992 1371.34 25.8037 1371.34 26.113C1371.35 26.4127 1371.36 26.6882 1371.36 26.9395C1371.36 27.3262 1371.34 27.7612 1371.31 28.2445C1371.29 28.7182 1371.21 29.1677 1371.08 29.593C1370.95 30.0087 1370.75 30.3615 1370.46 30.6515C1370.17 30.9415 1369.76 31.0865 1369.24 31.0865C1368.72 31.0865 1368.31 30.9415 1368.02 30.6515C1367.73 30.3615 1367.52 30.0087 1367.38 29.593C1367.26 29.1677 1367.18 28.7182 1367.15 28.2445C1367.13 27.7612 1367.12 27.3262 1367.12 26.9395ZM1365.82 26.954C1365.82 27.331 1365.83 27.7225 1365.85 28.1285C1365.86 28.5345 1365.91 28.9308 1365.99 29.3175C1366.07 29.7042 1366.18 30.0715 1366.32 30.4195C1366.47 30.7578 1366.67 31.0575 1366.92 31.3185C1367.17 31.5795 1367.48 31.7873 1367.86 31.942C1368.25 32.087 1368.71 32.1595 1369.24 32.1595C1369.78 32.1595 1370.24 32.087 1370.62 31.942C1370.99 31.7873 1371.31 31.5795 1371.56 31.3185C1371.81 31.0575 1372.01 30.7578 1372.15 30.4195C1372.3 30.0715 1372.41 29.7042 1372.49 29.3175C1372.56 28.9308 1372.61 28.5345 1372.63 28.1285C1372.65 27.7225 1372.66 27.331 1372.66 26.954C1372.66 26.577 1372.65 26.1855 1372.63 25.7795C1372.61 25.3735 1372.56 24.9772 1372.49 24.5905C1372.41 24.2038 1372.3 23.8365 1372.15 23.4885C1372.01 23.1405 1371.81 22.836 1371.56 22.575C1371.31 22.314 1370.99 22.1062 1370.6 21.9515C1370.22 21.7968 1369.77 21.7195 1369.24 21.7195C1368.71 21.7195 1368.25 21.7968 1367.86 21.9515C1367.48 22.1062 1367.17 22.314 1366.92 22.575C1366.67 22.836 1366.47 23.1405 1366.32 23.4885C1366.18 23.8365 1366.07 24.2038 1365.99 24.5905C1365.91 24.9772 1365.86 25.3735 1365.85 25.7795C1365.83 26.1855 1365.82 26.577 1365.82 26.954Z" fill="white"/>
<path d="M1399 25.75C1399 28.6495 1396.65 31 1393.75 31C1390.85 31 1388.5 28.6495 1388.5 25.75C1388.5 22.8505 1390.85 20.5 1393.75 20.5C1396.65 20.5 1399 22.8505 1399 25.75Z" stroke="white"/>
<path d="M1401.75 33.75L1397.75 29.75" stroke="white" stroke-linecap="square"/>
<path fill-rule="evenodd" clip-rule="evenodd" d="M1422 22V24H1436V22H1422Z" fill="white"/>
<path fill-rule="evenodd" clip-rule="evenodd" d="M1422 30V32H1436V30H1422Z" fill="white"/>
<path fill-rule="evenodd" clip-rule="evenodd" d="M1422 26V28H1433V26H1422Z" fill="white"/>
<path fill-rule="evenodd" clip-rule="evenodd" d="M1418 22V24H1420V22H1418Z" fill="white"/>
<path fill-rule="evenodd" clip-rule="evenodd" d="M1418 30V32H1420V30H1418Z" fill="white"/>
<path fill-rule="evenodd" clip-rule="evenodd" d="M1418 26V28H1420V26H1418Z" fill="white"/>
</g>
<defs>
<filter id="filter0_bdd" x="-5.74625" y="-5.74625" width="1483.49" height="65.4925" filterUnits="userSpaceOnUse" color-interpolation-filters="sRGB">
<feFlood flood-opacity="0" result="BackgroundImageFix"/>
<feGaussianBlur in="BackgroundImage" stdDeviation="10.8731"/>
<feComposite in2="SourceAlpha" operator="in" result="effect1_backgroundBlur"/>
<feColorMatrix in="SourceAlpha" type="matrix" values="0 0 0 0 0 0 0 0 0 0 0 0 0 0 0 0 0 0 127 0"/>
<feOffset/>
<feGaussianBlur stdDeviation="8"/>
<feColorMatrix type="matrix" values="0 0 0 0 0 0 0 0 0 0 0 0 0 0 0 0 0 0 0.16 0"/>
<feBlend mode="normal" in2="effect1_backgroundBlur" result="effect2_dropShadow"/>
<feColorMatrix in="SourceAlpha" type="matrix" values="0 0 0 0 0 0 0 0 0 0 0 0 0 0 0 0 0 0 127 0"/>
<feOffset dy="1"/>
<feColorMatrix type="matrix" values="0 0 0 0 0 0 0 0 0 0 0 0 0 0 0 0 0 0 0.36 0"/>
<feBlend mode="normal" in2="effect2_dropShadow" result="effect3_dropShadow"/>
<feBlend mode="normal" in="SourceGraphic" in2="effect3_dropShadow" result="shape"/>
</filter>
</defs>
</svg>
