<svg width="1440" height="38" viewBox="0 0 1440 38" fill="none" xmlns="http://www.w3.org/2000/svg">
<g filter="url(#filter0_bdd)">
<path fill-rule="evenodd" clip-rule="evenodd" d="M0 0V22H1440V0H0Z" fill="white" fill-opacity="0.7"/>
</g>
<mask id="mask0" mask-type="alpha" maskUnits="userSpaceOnUse" x="0" y="0" width="1440" height="22">
<path fill-rule="evenodd" clip-rule="evenodd" d="M0 0V22H1440V0H0Z" fill="white"/>
</mask>
<g mask="url(#mask0)">
<path fill-rule="evenodd" clip-rule="evenodd" d="M33.5245 8.01767C32.6848 7.011 31.5066 6.42857 30.395 6.42857C28.9237 6.42857 28.3021 7.10063 27.2814 7.10063C26.2295 7.10063 25.4297 6.42969 24.1571 6.42969C22.9074 6.42969 21.5785 7.15987 20.7359 8.40763C19.5505 10.1632 19.7513 13.4659 21.6735 16.2803C22.3611 17.2864 23.2793 18.4181 24.4797 18.4285C25.5467 18.438 25.8488 17.7735 27.2966 17.7658C28.7443 17.7582 29.0181 18.4357 30.0852 18.4263C31.2854 18.4152 32.2541 17.1624 32.9414 16.1557C33.4341 15.4351 33.6173 15.071 34 14.2553C31.2207 13.2452 30.7737 9.46749 33.5245 8.01767ZM29.2047 5.31267C29.6667 4.71279 30.0178 3.86586 29.8902 3C29.1353 3.05276 28.2524 3.53848 27.7368 4.17164C27.269 4.74647 26.8826 5.59883 27.033 6.42763C27.857 6.45322 28.7098 5.95541 29.2047 5.31267Z" fill="#24282B"/>
<path d="M64.486 16L67.174 6.004H65.018L63.38 12.892H63.352L61.644 6.004H59.586L57.85 12.808H57.822L56.24 6.004H54.042L56.688 16H58.914L60.58 9.196H60.608L62.302 16H64.486ZM72.0557 11.604H68.8217C68.8311 11.464 68.8591 11.3053 68.9057 11.128C68.9617 10.9507 69.0504 10.7827 69.1717 10.624C69.3024 10.4653 69.4704 10.3347 69.6757 10.232C69.8904 10.12 70.1564 10.064 70.4737 10.064C70.9591 10.064 71.3184 10.1947 71.5517 10.456C71.7944 10.7173 71.9624 11.1 72.0557 11.604ZM68.8217 12.864H74.0437C74.0811 12.304 74.0344 11.7673 73.9037 11.254C73.7731 10.7407 73.5584 10.2833 73.2597 9.882C72.9704 9.48067 72.5971 9.16333 72.1397 8.93C71.6824 8.68733 71.1457 8.566 70.5297 8.566C69.9791 8.566 69.4751 8.664 69.0177 8.86C68.5697 9.056 68.1824 9.32667 67.8557 9.672C67.5291 10.008 67.2771 10.4093 67.0997 10.876C66.9224 11.3427 66.8337 11.8467 66.8337 12.388C66.8337 12.948 66.9177 13.4613 67.0857 13.928C67.2631 14.3947 67.5104 14.796 67.8277 15.132C68.1451 15.468 68.5324 15.7293 68.9897 15.916C69.4471 16.0933 69.9604 16.182 70.5297 16.182C71.3511 16.182 72.0511 15.9953 72.6297 15.622C73.2084 15.2487 73.6377 14.628 73.9177 13.76H72.1677C72.1024 13.984 71.9251 14.1987 71.6357 14.404C71.3464 14.6 71.0011 14.698 70.5997 14.698C70.0397 14.698 69.6104 14.5533 69.3117 14.264C69.0131 13.9747 68.8497 13.508 68.8217 12.864ZM80.5288 12.388C80.5288 12.6867 80.4961 12.976 80.4308 13.256C80.3655 13.536 80.2628 13.7833 80.1228 13.998C79.9828 14.2127 79.8055 14.3853 79.5908 14.516C79.3855 14.6373 79.1335 14.698 78.8348 14.698C78.5455 14.698 78.2935 14.6373 78.0788 14.516C77.8641 14.3853 77.6868 14.2127 77.5468 13.998C77.4068 13.7833 77.3041 13.536 77.2388 13.256C77.1735 12.976 77.1408 12.6867 77.1408 12.388C77.1408 12.08 77.1735 11.786 77.2388 11.506C77.3041 11.226 77.4068 10.9787 77.5468 10.764C77.6868 10.5493 77.8641 10.3813 78.0788 10.26C78.2935 10.1293 78.5455 10.064 78.8348 10.064C79.1335 10.064 79.3855 10.1293 79.5908 10.26C79.8055 10.3813 79.9828 10.5493 80.1228 10.764C80.2628 10.9787 80.3655 11.226 80.4308 11.506C80.4961 11.786 80.5288 12.08 80.5288 12.388ZM75.2228 6.004V16H77.1128V15.076H77.1408C77.3555 15.4773 77.6728 15.762 78.0928 15.93C78.5128 16.098 78.9888 16.182 79.5208 16.182C79.8848 16.182 80.2441 16.1073 80.5988 15.958C80.9535 15.8087 81.2708 15.58 81.5508 15.272C81.8401 14.964 82.0735 14.572 82.2508 14.096C82.4281 13.6107 82.5168 13.0367 82.5168 12.374C82.5168 11.7113 82.4281 11.142 82.2508 10.666C82.0735 10.1807 81.8401 9.784 81.5508 9.476C81.2708 9.168 80.9535 8.93933 80.5988 8.79C80.2441 8.64067 79.8848 8.566 79.5208 8.566C79.0728 8.566 78.6388 8.65467 78.2188 8.832C77.8081 9 77.4815 9.27067 77.2388 9.644H77.2108V6.004H75.2228ZM88.6534 11.604H85.4194C85.4287 11.464 85.4567 11.3053 85.5034 11.128C85.5594 10.9507 85.6481 10.7827 85.7694 10.624C85.9001 10.4653 86.0681 10.3347 86.2734 10.232C86.4881 10.12 86.7541 10.064 87.0714 10.064C87.5567 10.064 87.9161 10.1947 88.1494 10.456C88.3921 10.7173 88.5601 11.1 88.6534 11.604ZM85.4194 12.864H90.6414C90.6787 12.304 90.6321 11.7673 90.5014 11.254C90.3707 10.7407 90.1561 10.2833 89.8574 9.882C89.5681 9.48067 89.1947 9.16333 88.7374 8.93C88.2801 8.68733 87.7434 8.566 87.1274 8.566C86.5767 8.566 86.0727 8.664 85.6154 8.86C85.1674 9.056 84.7801 9.32667 84.4534 9.672C84.1267 10.008 83.8747 10.4093 83.6974 10.876C83.5201 11.3427 83.4314 11.8467 83.4314 12.388C83.4314 12.948 83.5154 13.4613 83.6834 13.928C83.8607 14.3947 84.1081 14.796 84.4254 15.132C84.7427 15.468 85.1301 15.7293 85.5874 15.916C86.0447 16.0933 86.5581 16.182 87.1274 16.182C87.9487 16.182 88.6487 15.9953 89.2274 15.622C89.8061 15.2487 90.2354 14.628 90.5154 13.76H88.7654C88.7001 13.984 88.5227 14.1987 88.2334 14.404C87.9441 14.6 87.5987 14.698 87.1974 14.698C86.6374 14.698 86.2081 14.5533 85.9094 14.264C85.6107 13.9747 85.4474 13.508 85.4194 12.864ZM93.6685 12.192L91.0645 16H93.2905L94.8025 13.718L96.3145 16H98.5825L95.9085 12.15L98.2885 8.762H96.0905L94.8305 10.652L93.5565 8.762H91.2885L93.6685 12.192ZM103.446 6.004V16H105.504V8.986H105.532L107.982 16H109.676L112.126 8.916H112.154V16H114.212V6.004H111.118L108.906 12.878H108.878L106.54 6.004H103.446ZM120.81 11.604H117.576C117.585 11.464 117.613 11.3053 117.66 11.128C117.716 10.9507 117.804 10.7827 117.926 10.624C118.056 10.4653 118.224 10.3347 118.43 10.232C118.644 10.12 118.91 10.064 119.228 10.064C119.713 10.064 120.072 10.1947 120.306 10.456C120.548 10.7173 120.716 11.1 120.81 11.604ZM117.576 12.864H122.798C122.835 12.304 122.788 11.7673 122.658 11.254C122.527 10.7407 122.312 10.2833 122.014 9.882C121.724 9.48067 121.351 9.16333 120.894 8.93C120.436 8.68733 119.9 8.566 119.284 8.566C118.733 8.566 118.229 8.664 117.772 8.86C117.324 9.056 116.936 9.32667 116.61 9.672C116.283 10.008 116.031 10.4093 115.854 10.876C115.676 11.3427 115.588 11.8467 115.588 12.388C115.588 12.948 115.672 13.4613 115.84 13.928C116.017 14.3947 116.264 14.796 116.582 15.132C116.899 15.468 117.286 15.7293 117.744 15.916C118.201 16.0933 118.714 16.182 119.284 16.182C120.105 16.182 120.805 15.9953 121.384 15.622C121.962 15.2487 122.392 14.628 122.672 13.76H120.922C120.856 13.984 120.679 14.1987 120.39 14.404C120.1 14.6 119.755 14.698 119.354 14.698C118.794 14.698 118.364 14.5533 118.066 14.264C117.767 13.9747 117.604 13.508 117.576 12.864ZM128.849 11.604H125.615C125.624 11.464 125.652 11.3053 125.699 11.128C125.755 10.9507 125.843 10.7827 125.965 10.624C126.095 10.4653 126.263 10.3347 126.469 10.232C126.683 10.12 126.949 10.064 127.267 10.064C127.752 10.064 128.111 10.1947 128.345 10.456C128.587 10.7173 128.755 11.1 128.849 11.604ZM125.615 12.864H130.837C130.874 12.304 130.827 11.7673 130.697 11.254C130.566 10.7407 130.351 10.2833 130.053 9.882C129.763 9.48067 129.39 9.16333 128.933 8.93C128.475 8.68733 127.939 8.566 127.323 8.566C126.772 8.566 126.268 8.664 125.811 8.86C125.363 9.056 124.975 9.32667 124.649 9.672C124.322 10.008 124.07 10.4093 123.893 10.876C123.715 11.3427 123.627 11.8467 123.627 12.388C123.627 12.948 123.711 13.4613 123.879 13.928C124.056 14.3947 124.303 14.796 124.621 15.132C124.938 15.468 125.325 15.7293 125.783 15.916C126.24 16.0933 126.753 16.182 127.323 16.182C128.144 16.182 128.844 15.9953 129.423 15.622C130.001 15.2487 130.431 14.628 130.711 13.76H128.961C128.895 13.984 128.718 14.1987 128.429 14.404C128.139 14.6 127.794 14.698 127.393 14.698C126.833 14.698 126.403 14.5533 126.105 14.264C125.806 13.9747 125.643 13.508 125.615 12.864ZM134.536 8.762V6.592H132.548V8.762H131.344V10.092H132.548V14.362C132.548 14.726 132.608 15.02 132.73 15.244C132.851 15.468 133.014 15.6407 133.22 15.762C133.434 15.8833 133.677 15.9627 133.948 16C134.228 16.0467 134.522 16.07 134.83 16.07C135.026 16.07 135.226 16.0653 135.432 16.056C135.637 16.0467 135.824 16.028 135.992 16V14.46C135.898 14.4787 135.8 14.4927 135.698 14.502C135.595 14.5113 135.488 14.516 135.376 14.516C135.04 14.516 134.816 14.46 134.704 14.348C134.592 14.236 134.536 14.012 134.536 13.676V10.092H135.992V8.762H134.536ZM138.982 7.642V6.004H136.994V7.642H138.982ZM136.994 8.762V16H138.982V8.762H136.994ZM140.547 8.762V16H142.535V12.206C142.535 11.4687 142.656 10.9413 142.899 10.624C143.142 10.2973 143.534 10.134 144.075 10.134C144.551 10.134 144.882 10.2833 145.069 10.582C145.256 10.8713 145.349 11.3147 145.349 11.912V16H147.337V11.548C147.337 11.1 147.295 10.694 147.211 10.33C147.136 9.95667 147.001 9.644 146.805 9.392C146.609 9.13067 146.338 8.93 145.993 8.79C145.657 8.64067 145.223 8.566 144.691 8.566C144.271 8.566 143.86 8.664 143.459 8.86C143.058 9.04667 142.731 9.35 142.479 9.77H142.437V8.762H140.547ZM152.22 14.292C151.912 14.292 151.655 14.2267 151.45 14.096C151.245 13.9653 151.077 13.7973 150.946 13.592C150.825 13.3867 150.736 13.158 150.68 12.906C150.633 12.6447 150.61 12.3833 150.61 12.122C150.61 11.8513 150.638 11.5947 150.694 11.352C150.759 11.1 150.857 10.8807 150.988 10.694C151.128 10.498 151.296 10.344 151.492 10.232C151.697 10.12 151.94 10.064 152.22 10.064C152.547 10.064 152.817 10.1247 153.032 10.246C153.247 10.3673 153.419 10.5307 153.55 10.736C153.681 10.9413 153.774 11.1793 153.83 11.45C153.886 11.7113 153.914 11.9913 153.914 12.29C153.914 12.5513 153.877 12.8033 153.802 13.046C153.737 13.2793 153.634 13.4893 153.494 13.676C153.354 13.8627 153.177 14.012 152.962 14.124C152.747 14.236 152.5 14.292 152.22 14.292ZM155.804 15.538V8.762H153.914V9.728H153.886C153.643 9.308 153.34 9.00933 152.976 8.832C152.621 8.65467 152.206 8.566 151.73 8.566C151.226 8.566 150.778 8.664 150.386 8.86C150.003 9.056 149.681 9.322 149.42 9.658C149.159 9.98467 148.958 10.3673 148.818 10.806C148.687 11.2353 148.622 11.6833 148.622 12.15C148.622 12.6447 148.678 13.116 148.79 13.564C148.911 14.0027 149.098 14.39 149.35 14.726C149.602 15.0527 149.924 15.314 150.316 15.51C150.708 15.6967 151.175 15.79 151.716 15.79C152.155 15.79 152.57 15.7013 152.962 15.524C153.363 15.3373 153.671 15.0527 153.886 14.67H153.914V15.622C153.923 16.1353 153.797 16.56 153.536 16.896C153.284 17.232 152.878 17.4 152.318 17.4C151.963 17.4 151.651 17.3253 151.38 17.176C151.109 17.036 150.927 16.7793 150.834 16.406H148.86C148.888 16.8167 149 17.1667 149.196 17.456C149.401 17.7547 149.653 17.9973 149.952 18.184C150.26 18.3707 150.596 18.506 150.96 18.59C151.333 18.6833 151.697 18.73 152.052 18.73C152.883 18.73 153.545 18.618 154.04 18.394C154.535 18.17 154.913 17.8947 155.174 17.568C155.435 17.2507 155.603 16.9053 155.678 16.532C155.762 16.1587 155.804 15.8273 155.804 15.538ZM158.944 13.648H157.054C157.073 14.1333 157.18 14.5393 157.376 14.866C157.582 15.1833 157.838 15.44 158.146 15.636C158.464 15.832 158.823 15.972 159.224 16.056C159.626 16.14 160.036 16.182 160.456 16.182C160.867 16.182 161.268 16.14 161.66 16.056C162.062 15.9813 162.416 15.846 162.724 15.65C163.032 15.454 163.28 15.1973 163.466 14.88C163.662 14.5533 163.76 14.152 163.76 13.676C163.76 13.34 163.695 13.06 163.564 12.836C163.434 12.6027 163.261 12.4113 163.046 12.262C162.832 12.1033 162.584 11.9773 162.304 11.884C162.034 11.7907 161.754 11.7113 161.464 11.646C161.184 11.5807 160.909 11.52 160.638 11.464C160.368 11.408 160.125 11.3473 159.91 11.282C159.705 11.2073 159.537 11.114 159.406 11.002C159.276 10.89 159.21 10.7453 159.21 10.568C159.21 10.4187 159.248 10.302 159.322 10.218C159.397 10.1247 159.486 10.0547 159.588 10.008C159.7 9.96133 159.822 9.93333 159.952 9.924C160.083 9.90533 160.204 9.896 160.316 9.896C160.671 9.896 160.979 9.966 161.24 10.106C161.502 10.2367 161.646 10.4933 161.674 10.876H163.564C163.527 10.428 163.41 10.0593 163.214 9.77C163.028 9.47133 162.79 9.23333 162.5 9.056C162.211 8.87867 161.88 8.75267 161.506 8.678C161.142 8.60333 160.764 8.566 160.372 8.566C159.98 8.566 159.598 8.60333 159.224 8.678C158.851 8.74333 158.515 8.86467 158.216 9.042C157.918 9.21 157.675 9.44333 157.488 9.742C157.311 10.0407 157.222 10.4233 157.222 10.89C157.222 11.2073 157.288 11.478 157.418 11.702C157.549 11.9167 157.722 12.0987 157.936 12.248C158.151 12.388 158.394 12.5047 158.664 12.598C158.944 12.682 159.229 12.7567 159.518 12.822C160.228 12.9713 160.778 13.1207 161.17 13.27C161.572 13.4193 161.772 13.6433 161.772 13.942C161.772 14.1193 161.73 14.2687 161.646 14.39C161.562 14.502 161.455 14.5953 161.324 14.67C161.203 14.7353 161.063 14.7867 160.904 14.824C160.755 14.852 160.61 14.866 160.47 14.866C160.274 14.866 160.083 14.8427 159.896 14.796C159.719 14.7493 159.56 14.6793 159.42 14.586C159.28 14.4833 159.164 14.3573 159.07 14.208C158.986 14.0493 158.944 13.8627 158.944 13.648ZM184.742 6.004V16H186.072V11.422H190.664V10.302H186.072V7.124H191.308V6.004H184.742ZM193.845 7.46V6.004H192.655V7.46H193.845ZM192.655 8.762V16H193.845V8.762H192.655ZM195.759 6.004V16H196.949V6.004H195.759ZM203.818 11.688H199.66C199.679 11.408 199.74 11.1467 199.842 10.904C199.945 10.652 200.085 10.4327 200.262 10.246C200.44 10.0593 200.65 9.91467 200.892 9.812C201.144 9.7 201.424 9.644 201.732 9.644C202.031 9.644 202.302 9.7 202.544 9.812C202.796 9.91467 203.011 10.0593 203.188 10.246C203.375 10.4233 203.52 10.638 203.622 10.89C203.734 11.142 203.8 11.408 203.818 11.688ZM204.966 13.704H203.79C203.688 14.18 203.473 14.5347 203.146 14.768C202.829 15.0013 202.418 15.118 201.914 15.118C201.522 15.118 201.182 15.0527 200.892 14.922C200.603 14.7913 200.365 14.6187 200.178 14.404C199.992 14.18 199.856 13.928 199.772 13.648C199.688 13.3587 199.651 13.0553 199.66 12.738H205.078C205.097 12.2993 205.055 11.8373 204.952 11.352C204.859 10.8667 204.682 10.4187 204.42 10.008C204.168 9.59733 203.828 9.26133 203.398 9C202.978 8.72933 202.446 8.594 201.802 8.594C201.308 8.594 200.85 8.68733 200.43 8.874C200.02 9.06067 199.66 9.322 199.352 9.658C199.054 9.994 198.82 10.3907 198.652 10.848C198.484 11.3053 198.4 11.8093 198.4 12.36C198.419 12.9107 198.498 13.4193 198.638 13.886C198.788 14.3527 199.007 14.754 199.296 15.09C199.586 15.426 199.94 15.6873 200.36 15.874C200.79 16.0607 201.294 16.154 201.872 16.154C202.694 16.154 203.375 15.9487 203.916 15.538C204.458 15.1273 204.808 14.516 204.966 13.704ZM225.99 6.004V16H232.934V14.88H227.32V11.422H232.514V10.302H227.32V7.124H232.892V6.004H225.99ZM235.221 12.444C235.221 12.0893 235.258 11.744 235.333 11.408C235.408 11.072 235.529 10.7733 235.697 10.512C235.865 10.2507 236.089 10.0407 236.369 9.882C236.649 9.72333 236.99 9.644 237.391 9.644C237.802 9.644 238.152 9.72333 238.441 9.882C238.73 10.0313 238.964 10.232 239.141 10.484C239.328 10.736 239.463 11.03 239.547 11.366C239.631 11.6927 239.673 12.0333 239.673 12.388C239.673 12.724 239.631 13.0553 239.547 13.382C239.472 13.7087 239.346 14.0027 239.169 14.264C238.992 14.516 238.763 14.7213 238.483 14.88C238.203 15.0387 237.862 15.118 237.461 15.118C237.078 15.118 236.742 15.0433 236.453 14.894C236.173 14.7447 235.94 14.544 235.753 14.292C235.576 14.04 235.44 13.7553 235.347 13.438C235.263 13.1113 235.221 12.78 235.221 12.444ZM240.821 16V6.004H239.631V9.728H239.603C239.472 9.51333 239.309 9.336 239.113 9.196C238.926 9.04667 238.726 8.93 238.511 8.846C238.296 8.75267 238.082 8.68733 237.867 8.65C237.652 8.61267 237.452 8.594 237.265 8.594C236.714 8.594 236.229 8.69667 235.809 8.902C235.398 9.098 235.053 9.36867 234.773 9.714C234.502 10.05 234.297 10.4467 234.157 10.904C234.026 11.3613 233.961 11.8467 233.961 12.36C233.961 12.8733 234.031 13.3587 234.171 13.816C234.311 14.2733 234.516 14.6747 234.787 15.02C235.067 15.3653 235.412 15.6407 235.823 15.846C236.243 16.0513 236.733 16.154 237.293 16.154C237.797 16.154 238.259 16.0653 238.679 15.888C239.099 15.7107 239.407 15.4213 239.603 15.02H239.631V16H240.821ZM243.912 7.46V6.004H242.722V7.46H243.912ZM242.722 8.762V16H243.912V8.762H242.722ZM247.407 8.762V6.592H246.217V8.762H244.985V9.812H246.217V14.418C246.217 14.754 246.25 15.0247 246.315 15.23C246.381 15.4353 246.479 15.594 246.609 15.706C246.749 15.818 246.927 15.8973 247.141 15.944C247.365 15.9813 247.631 16 247.939 16H248.849V14.95H248.303C248.117 14.95 247.963 14.9453 247.841 14.936C247.729 14.9173 247.641 14.8847 247.575 14.838C247.51 14.7913 247.463 14.726 247.435 14.642C247.417 14.558 247.407 14.446 247.407 14.306V9.812H248.849V8.762H247.407ZM275.632 8.93H276.892C276.873 8.37933 276.766 7.908 276.57 7.516C276.383 7.11467 276.122 6.78333 275.786 6.522C275.459 6.26067 275.076 6.06933 274.638 5.948C274.199 5.82667 273.723 5.766 273.21 5.766C272.752 5.766 272.304 5.82667 271.866 5.948C271.436 6.06 271.049 6.23733 270.704 6.48C270.368 6.71333 270.097 7.01667 269.892 7.39C269.686 7.754 269.584 8.188 269.584 8.692C269.584 9.14933 269.672 9.532 269.85 9.84C270.036 10.1387 270.279 10.386 270.578 10.582C270.886 10.7687 271.231 10.9227 271.614 11.044C271.996 11.156 272.384 11.2587 272.776 11.352C273.177 11.436 273.569 11.52 273.952 11.604C274.334 11.688 274.675 11.8 274.974 11.94C275.282 12.0707 275.524 12.2433 275.702 12.458C275.888 12.6727 275.982 12.9527 275.982 13.298C275.982 13.662 275.907 13.9607 275.758 14.194C275.608 14.4273 275.412 14.614 275.17 14.754C274.927 14.8847 274.652 14.978 274.344 15.034C274.045 15.09 273.746 15.118 273.448 15.118C273.074 15.118 272.71 15.0713 272.356 14.978C272.001 14.8847 271.688 14.74 271.418 14.544C271.156 14.348 270.942 14.1007 270.774 13.802C270.615 13.494 270.536 13.13 270.536 12.71H269.276C269.276 13.3167 269.383 13.844 269.598 14.292C269.822 14.7307 270.12 15.0947 270.494 15.384C270.876 15.664 271.315 15.874 271.81 16.014C272.314 16.154 272.846 16.224 273.406 16.224C273.863 16.224 274.32 16.168 274.778 16.056C275.244 15.9533 275.664 15.7853 276.038 15.552C276.411 15.3093 276.714 15.0013 276.948 14.628C277.19 14.2453 277.312 13.788 277.312 13.256C277.312 12.7613 277.218 12.3507 277.032 12.024C276.854 11.6973 276.612 11.4267 276.304 11.212C276.005 10.9973 275.664 10.8293 275.282 10.708C274.899 10.5773 274.507 10.4653 274.106 10.372C273.714 10.2787 273.326 10.1947 272.944 10.12C272.561 10.036 272.216 9.93333 271.908 9.812C271.609 9.69067 271.366 9.53667 271.18 9.35C271.002 9.154 270.914 8.902 270.914 8.594C270.914 8.26733 270.974 7.99667 271.096 7.782C271.226 7.558 271.394 7.38067 271.6 7.25C271.814 7.11933 272.057 7.026 272.328 6.97C272.598 6.914 272.874 6.886 273.154 6.886C273.844 6.886 274.409 7.04933 274.848 7.376C275.296 7.69333 275.557 8.21133 275.632 8.93ZM278.732 6.004V16H279.922V11.912C279.922 11.5853 279.964 11.2867 280.048 11.016C280.141 10.736 280.277 10.4933 280.454 10.288C280.631 10.0827 280.851 9.924 281.112 9.812C281.383 9.7 281.7 9.644 282.064 9.644C282.521 9.644 282.881 9.77467 283.142 10.036C283.403 10.2973 283.534 10.652 283.534 11.1V16H284.724V11.24C284.724 10.848 284.682 10.4933 284.598 10.176C284.523 9.84933 284.388 9.56933 284.192 9.336C283.996 9.10267 283.739 8.92067 283.422 8.79C283.105 8.65933 282.708 8.594 282.232 8.594C282.017 8.594 281.793 8.61733 281.56 8.664C281.336 8.71067 281.117 8.78533 280.902 8.888C280.697 8.98133 280.51 9.10733 280.342 9.266C280.174 9.41533 280.043 9.602 279.95 9.826H279.922V6.004H278.732ZM292.923 15.972C292.718 16.0933 292.433 16.154 292.069 16.154C291.761 16.154 291.514 16.07 291.327 15.902C291.15 15.7247 291.061 15.44 291.061 15.048C290.735 15.44 290.352 15.7247 289.913 15.902C289.484 16.07 289.017 16.154 288.513 16.154C288.187 16.154 287.874 16.1167 287.575 16.042C287.286 15.9673 287.034 15.8507 286.819 15.692C286.605 15.5333 286.432 15.328 286.301 15.076C286.18 14.8147 286.119 14.502 286.119 14.138C286.119 13.7273 286.189 13.3913 286.329 13.13C286.469 12.8687 286.651 12.6587 286.875 12.5C287.109 12.332 287.37 12.206 287.659 12.122C287.958 12.038 288.261 11.968 288.569 11.912C288.896 11.8467 289.204 11.8 289.493 11.772C289.792 11.7347 290.053 11.688 290.277 11.632C290.501 11.5667 290.679 11.478 290.809 11.366C290.94 11.2447 291.005 11.072 291.005 10.848C291.005 10.5867 290.954 10.3767 290.851 10.218C290.758 10.0593 290.632 9.938 290.473 9.854C290.324 9.77 290.151 9.714 289.955 9.686C289.769 9.658 289.582 9.644 289.395 9.644C288.891 9.644 288.471 9.742 288.135 9.938C287.799 10.1247 287.617 10.484 287.589 11.016H286.399C286.418 10.568 286.511 10.19 286.679 9.882C286.847 9.574 287.071 9.32667 287.351 9.14C287.631 8.944 287.949 8.804 288.303 8.72C288.667 8.636 289.055 8.594 289.465 8.594C289.792 8.594 290.114 8.61733 290.431 8.664C290.758 8.71067 291.052 8.80867 291.313 8.958C291.575 9.098 291.785 9.29867 291.943 9.56C292.102 9.82133 292.181 10.162 292.181 10.582V14.306C292.181 14.586 292.195 14.7913 292.223 14.922C292.261 15.0527 292.373 15.118 292.559 15.118C292.662 15.118 292.783 15.0947 292.923 15.048V15.972ZM290.991 12.262C290.842 12.374 290.646 12.458 290.403 12.514C290.161 12.5607 289.904 12.6027 289.633 12.64C289.372 12.668 289.106 12.7053 288.835 12.752C288.565 12.7893 288.322 12.8547 288.107 12.948C287.893 13.0413 287.715 13.1767 287.575 13.354C287.445 13.522 287.379 13.7553 287.379 14.054C287.379 14.25 287.417 14.418 287.491 14.558C287.575 14.6887 287.678 14.796 287.799 14.88C287.93 14.964 288.079 15.0247 288.247 15.062C288.415 15.0993 288.593 15.118 288.779 15.118C289.171 15.118 289.507 15.0667 289.787 14.964C290.067 14.852 290.296 14.7167 290.473 14.558C290.651 14.39 290.781 14.2127 290.865 14.026C290.949 13.83 290.991 13.648 290.991 13.48V12.262ZM293.989 8.762V16H295.179V12.78C295.179 12.3133 295.225 11.9027 295.319 11.548C295.412 11.184 295.561 10.876 295.767 10.624C295.972 10.372 296.243 10.1807 296.579 10.05C296.915 9.91933 297.321 9.854 297.797 9.854V8.594C297.153 8.57533 296.621 8.706 296.201 8.986C295.781 9.266 295.426 9.7 295.137 10.288H295.109V8.762H293.989ZM303.473 11.688H299.315C299.333 11.408 299.394 11.1467 299.497 10.904C299.599 10.652 299.739 10.4327 299.917 10.246C300.094 10.0593 300.304 9.91467 300.547 9.812C300.799 9.7 301.079 9.644 301.387 9.644C301.685 9.644 301.956 9.7 302.199 9.812C302.451 9.91467 302.665 10.0593 302.843 10.246C303.029 10.4233 303.174 10.638 303.277 10.89C303.389 11.142 303.454 11.408 303.473 11.688ZM304.621 13.704H303.445C303.342 14.18 303.127 14.5347 302.801 14.768C302.483 15.0013 302.073 15.118 301.569 15.118C301.177 15.118 300.836 15.0527 300.547 14.922C300.257 14.7913 300.019 14.6187 299.833 14.404C299.646 14.18 299.511 13.928 299.427 13.648C299.343 13.3587 299.305 13.0553 299.315 12.738H304.733C304.751 12.2993 304.709 11.8373 304.607 11.352C304.513 10.8667 304.336 10.4187 304.075 10.008C303.823 9.59733 303.482 9.26133 303.053 9C302.633 8.72933 302.101 8.594 301.457 8.594C300.962 8.594 300.505 8.68733 300.085 8.874C299.674 9.06067 299.315 9.322 299.007 9.658C298.708 9.994 298.475 10.3907 298.307 10.848C298.139 11.3053 298.055 11.8093 298.055 12.36C298.073 12.9107 298.153 13.4193 298.293 13.886C298.442 14.3527 298.661 14.754 298.951 15.09C299.24 15.426 299.595 15.6873 300.015 15.874C300.444 16.0607 300.948 16.154 301.527 16.154C302.348 16.154 303.029 15.9487 303.571 15.538C304.112 15.1273 304.462 14.516 304.621 13.704ZM325.682 16L329.238 6.004H327.852L324.968 14.67H324.94L322.084 6.004H320.656L324.17 16H325.682ZM331.125 7.46V6.004H329.935V7.46H331.125ZM329.935 8.762V16H331.125V8.762H329.935ZM337.994 11.688H333.836C333.855 11.408 333.916 11.1467 334.018 10.904C334.121 10.652 334.261 10.4327 334.438 10.246C334.616 10.0593 334.826 9.91467 335.068 9.812C335.32 9.7 335.6 9.644 335.908 9.644C336.207 9.644 336.478 9.7 336.72 9.812C336.972 9.91467 337.187 10.0593 337.364 10.246C337.551 10.4233 337.696 10.638 337.798 10.89C337.91 11.142 337.976 11.408 337.994 11.688ZM339.142 13.704H337.966C337.864 14.18 337.649 14.5347 337.322 14.768C337.005 15.0013 336.594 15.118 336.09 15.118C335.698 15.118 335.358 15.0527 335.068 14.922C334.779 14.7913 334.541 14.6187 334.354 14.404C334.168 14.18 334.032 13.928 333.948 13.648C333.864 13.3587 333.827 13.0553 333.836 12.738H339.254C339.273 12.2993 339.231 11.8373 339.128 11.352C339.035 10.8667 338.858 10.4187 338.596 10.008C338.344 9.59733 338.004 9.26133 337.574 9C337.154 8.72933 336.622 8.594 335.978 8.594C335.484 8.594 335.026 8.68733 334.606 8.874C334.196 9.06067 333.836 9.322 333.528 9.658C333.23 9.994 332.996 10.3907 332.828 10.848C332.66 11.3053 332.576 11.8093 332.576 12.36C332.595 12.9107 332.674 13.4193 332.814 13.886C332.964 14.3527 333.183 14.754 333.472 15.09C333.762 15.426 334.116 15.6873 334.536 15.874C334.966 16.0607 335.47 16.154 336.048 16.154C336.87 16.154 337.551 15.9487 338.092 15.538C338.634 15.1273 338.984 14.516 339.142 13.704ZM347.656 16L349.966 8.762H348.734L347.11 14.684H347.082L345.57 8.762H344.268L342.812 14.684H342.784L341.146 8.762H339.83L342.154 16H343.442L344.898 10.246H344.926L346.396 16H347.656ZM372.498 11.87L374.192 7.208H374.22L375.886 11.87H372.498ZM373.492 6.004L369.6 16H370.958L372.078 12.99H376.306L377.398 16H378.868L374.962 6.004H373.492ZM385.65 16V8.762H384.46V12.85C384.46 13.1767 384.413 13.48 384.32 13.76C384.236 14.0307 384.105 14.2687 383.928 14.474C383.75 14.6793 383.526 14.838 383.256 14.95C382.994 15.062 382.682 15.118 382.318 15.118C381.86 15.118 381.501 14.9873 381.24 14.726C380.978 14.4647 380.848 14.11 380.848 13.662V8.762H379.658V13.522C379.658 13.914 379.695 14.2733 379.77 14.6C379.854 14.9173 379.994 15.1927 380.19 15.426C380.386 15.6593 380.642 15.8413 380.96 15.972C381.277 16.0933 381.674 16.154 382.15 16.154C382.682 16.154 383.144 16.0513 383.536 15.846C383.928 15.6313 384.25 15.3 384.502 14.852H384.53V16H385.65ZM388.305 12.444C388.305 12.0893 388.342 11.744 388.417 11.408C388.492 11.072 388.613 10.7733 388.781 10.512C388.949 10.2507 389.173 10.0407 389.453 9.882C389.733 9.72333 390.074 9.644 390.475 9.644C390.886 9.644 391.236 9.72333 391.525 9.882C391.814 10.0313 392.048 10.232 392.225 10.484C392.412 10.736 392.547 11.03 392.631 11.366C392.715 11.6927 392.757 12.0333 392.757 12.388C392.757 12.724 392.715 13.0553 392.631 13.382C392.556 13.7087 392.43 14.0027 392.253 14.264C392.076 14.516 391.847 14.7213 391.567 14.88C391.287 15.0387 390.946 15.118 390.545 15.118C390.162 15.118 389.826 15.0433 389.537 14.894C389.257 14.7447 389.024 14.544 388.837 14.292C388.66 14.04 388.524 13.7553 388.431 13.438C388.347 13.1113 388.305 12.78 388.305 12.444ZM393.905 16V6.004H392.715V9.728H392.687C392.556 9.51333 392.393 9.336 392.197 9.196C392.01 9.04667 391.81 8.93 391.595 8.846C391.38 8.75267 391.166 8.68733 390.951 8.65C390.736 8.61267 390.536 8.594 390.349 8.594C389.798 8.594 389.313 8.69667 388.893 8.902C388.482 9.098 388.137 9.36867 387.857 9.714C387.586 10.05 387.381 10.4467 387.241 10.904C387.11 11.3613 387.045 11.8467 387.045 12.36C387.045 12.8733 387.115 13.3587 387.255 13.816C387.395 14.2733 387.6 14.6747 387.871 15.02C388.151 15.3653 388.496 15.6407 388.907 15.846C389.327 16.0513 389.817 16.154 390.377 16.154C390.881 16.154 391.343 16.0653 391.763 15.888C392.183 15.7107 392.491 15.4213 392.687 15.02H392.715V16H393.905ZM396.996 7.46V6.004H395.806V7.46H396.996ZM395.806 8.762V16H396.996V8.762H395.806ZM399.707 12.388C399.707 11.9493 399.763 11.562 399.875 11.226C399.997 10.8807 400.16 10.5913 400.365 10.358C400.571 10.1247 400.809 9.94733 401.079 9.826C401.359 9.70467 401.653 9.644 401.961 9.644C402.269 9.644 402.559 9.70467 402.829 9.826C403.109 9.94733 403.352 10.1247 403.557 10.358C403.763 10.5913 403.921 10.8807 404.033 11.226C404.155 11.562 404.215 11.9493 404.215 12.388C404.215 12.8267 404.155 13.2187 404.033 13.564C403.921 13.9 403.763 14.1847 403.557 14.418C403.352 14.642 403.109 14.8147 402.829 14.936C402.559 15.0573 402.269 15.118 401.961 15.118C401.653 15.118 401.359 15.0573 401.079 14.936C400.809 14.8147 400.571 14.642 400.365 14.418C400.16 14.1847 399.997 13.9 399.875 13.564C399.763 13.2187 399.707 12.8267 399.707 12.388ZM398.447 12.388C398.447 12.92 398.522 13.4147 398.671 13.872C398.821 14.3293 399.045 14.7307 399.343 15.076C399.642 15.412 400.011 15.678 400.449 15.874C400.888 16.0607 401.392 16.154 401.961 16.154C402.54 16.154 403.044 16.0607 403.473 15.874C403.912 15.678 404.281 15.412 404.579 15.076C404.878 14.7307 405.102 14.3293 405.251 13.872C405.401 13.4147 405.475 12.92 405.475 12.388C405.475 11.856 405.401 11.3613 405.251 10.904C405.102 10.4373 404.878 10.036 404.579 9.7C404.281 9.35467 403.912 9.084 403.473 8.888C403.044 8.692 402.54 8.594 401.961 8.594C401.392 8.594 400.888 8.692 400.449 8.888C400.011 9.084 399.642 9.35467 399.343 9.7C399.045 10.036 398.821 10.4373 398.671 10.904C398.522 11.3613 398.447 11.856 398.447 12.388ZM427.887 10.792V7.124H430.491C431.247 7.124 431.798 7.28267 432.143 7.6C432.498 7.908 432.675 8.36067 432.675 8.958C432.675 9.55533 432.498 10.0127 432.143 10.33C431.798 10.6473 431.247 10.8013 430.491 10.792H427.887ZM426.557 6.004V16H427.887V11.912H430.939C431.947 11.9213 432.708 11.6647 433.221 11.142C433.744 10.6193 434.005 9.89133 434.005 8.958C434.005 8.02467 433.744 7.30133 433.221 6.788C432.708 6.26533 431.947 6.004 430.939 6.004H426.557ZM441.851 15.972C441.646 16.0933 441.361 16.154 440.997 16.154C440.689 16.154 440.442 16.07 440.255 15.902C440.078 15.7247 439.989 15.44 439.989 15.048C439.662 15.44 439.28 15.7247 438.841 15.902C438.412 16.07 437.945 16.154 437.441 16.154C437.114 16.154 436.802 16.1167 436.503 16.042C436.214 15.9673 435.962 15.8507 435.747 15.692C435.532 15.5333 435.36 15.328 435.229 15.076C435.108 14.8147 435.047 14.502 435.047 14.138C435.047 13.7273 435.117 13.3913 435.257 13.13C435.397 12.8687 435.579 12.6587 435.803 12.5C436.036 12.332 436.298 12.206 436.587 12.122C436.886 12.038 437.189 11.968 437.497 11.912C437.824 11.8467 438.132 11.8 438.421 11.772C438.72 11.7347 438.981 11.688 439.205 11.632C439.429 11.5667 439.606 11.478 439.737 11.366C439.868 11.2447 439.933 11.072 439.933 10.848C439.933 10.5867 439.882 10.3767 439.779 10.218C439.686 10.0593 439.56 9.938 439.401 9.854C439.252 9.77 439.079 9.714 438.883 9.686C438.696 9.658 438.51 9.644 438.323 9.644C437.819 9.644 437.399 9.742 437.063 9.938C436.727 10.1247 436.545 10.484 436.517 11.016H435.327C435.346 10.568 435.439 10.19 435.607 9.882C435.775 9.574 435.999 9.32667 436.279 9.14C436.559 8.944 436.876 8.804 437.231 8.72C437.595 8.636 437.982 8.594 438.393 8.594C438.72 8.594 439.042 8.61733 439.359 8.664C439.686 8.71067 439.98 8.80867 440.241 8.958C440.502 9.098 440.712 9.29867 440.871 9.56C441.03 9.82133 441.109 10.162 441.109 10.582V14.306C441.109 14.586 441.123 14.7913 441.151 14.922C441.188 15.0527 441.3 15.118 441.487 15.118C441.59 15.118 441.711 15.0947 441.851 15.048V15.972ZM439.919 12.262C439.77 12.374 439.574 12.458 439.331 12.514C439.088 12.5607 438.832 12.6027 438.561 12.64C438.3 12.668 438.034 12.7053 437.763 12.752C437.492 12.7893 437.25 12.8547 437.035 12.948C436.82 13.0413 436.643 13.1767 436.503 13.354C436.372 13.522 436.307 13.7553 436.307 14.054C436.307 14.25 436.344 14.418 436.419 14.558C436.503 14.6887 436.606 14.796 436.727 14.88C436.858 14.964 437.007 15.0247 437.175 15.062C437.343 15.0993 437.52 15.118 437.707 15.118C438.099 15.118 438.435 15.0667 438.715 14.964C438.995 14.852 439.224 14.7167 439.401 14.558C439.578 14.39 439.709 14.2127 439.793 14.026C439.877 13.83 439.919 13.648 439.919 13.48V12.262ZM442.917 8.762V16H444.107V12.78C444.107 12.3133 444.153 11.9027 444.247 11.548C444.34 11.184 444.489 10.876 444.695 10.624C444.9 10.372 445.171 10.1807 445.507 10.05C445.843 9.91933 446.249 9.854 446.725 9.854V8.594C446.081 8.57533 445.549 8.706 445.129 8.986C444.709 9.266 444.354 9.7 444.065 10.288H444.037V8.762H442.917ZM449.273 8.762V6.592H448.083V8.762H446.851V9.812H448.083V14.418C448.083 14.754 448.115 15.0247 448.181 15.23C448.246 15.4353 448.344 15.594 448.475 15.706C448.615 15.818 448.792 15.8973 449.007 15.944C449.231 15.9813 449.497 16 449.805 16H450.715V14.95H450.169C449.982 14.95 449.828 14.9453 449.707 14.936C449.595 14.9173 449.506 14.8847 449.441 14.838C449.375 14.7913 449.329 14.726 449.301 14.642C449.282 14.558 449.273 14.446 449.273 14.306V9.812H450.715V8.762H449.273ZM453.297 7.46V6.004H452.107V7.46H453.297ZM452.107 8.762V16H453.297V8.762H452.107ZM460.054 11.086H461.286C461.239 10.6567 461.127 10.288 460.95 9.98C460.773 9.66267 460.544 9.40133 460.264 9.196C459.993 8.99067 459.676 8.84133 459.312 8.748C458.957 8.64533 458.575 8.594 458.164 8.594C457.595 8.594 457.095 8.69667 456.666 8.902C456.237 9.098 455.877 9.37333 455.588 9.728C455.308 10.0733 455.098 10.484 454.958 10.96C454.818 11.4267 454.748 11.9307 454.748 12.472C454.748 13.0133 454.818 13.5127 454.958 13.97C455.107 14.418 455.322 14.8053 455.602 15.132C455.891 15.4587 456.246 15.7107 456.666 15.888C457.095 16.0653 457.585 16.154 458.136 16.154C459.06 16.154 459.788 15.9113 460.32 15.426C460.861 14.9407 461.197 14.25 461.328 13.354H460.11C460.035 13.914 459.83 14.348 459.494 14.656C459.167 14.964 458.71 15.118 458.122 15.118C457.749 15.118 457.427 15.0433 457.156 14.894C456.885 14.7447 456.666 14.5487 456.498 14.306C456.33 14.054 456.204 13.7693 456.12 13.452C456.045 13.1347 456.008 12.808 456.008 12.472C456.008 12.108 456.045 11.758 456.12 11.422C456.195 11.0767 456.316 10.7733 456.484 10.512C456.661 10.2507 456.895 10.0407 457.184 9.882C457.473 9.72333 457.833 9.644 458.262 9.644C458.766 9.644 459.167 9.77 459.466 10.022C459.765 10.274 459.961 10.6287 460.054 11.086ZM463.92 7.46V6.004H462.73V7.46H463.92ZM462.73 8.762V16H463.92V8.762H462.73ZM465.805 8.762V18.758H466.995V15.034H467.023C467.154 15.2487 467.313 15.4307 467.499 15.58C467.695 15.72 467.901 15.832 468.115 15.916C468.33 16 468.545 16.0607 468.759 16.098C468.983 16.1353 469.184 16.154 469.361 16.154C469.912 16.154 470.393 16.056 470.803 15.86C471.223 15.664 471.569 15.398 471.839 15.062C472.119 14.7167 472.325 14.3153 472.455 13.858C472.595 13.4007 472.665 12.9153 472.665 12.402C472.665 11.8887 472.595 11.4033 472.455 10.946C472.315 10.4887 472.105 10.0873 471.825 9.742C471.555 9.38733 471.209 9.10733 470.789 8.902C470.379 8.69667 469.893 8.594 469.333 8.594C468.829 8.594 468.367 8.68733 467.947 8.874C467.527 9.05133 467.219 9.34067 467.023 9.742H466.995V8.762H465.805ZM471.405 12.318C471.405 12.6727 471.368 13.018 471.293 13.354C471.219 13.69 471.097 13.9887 470.929 14.25C470.761 14.5113 470.537 14.7213 470.257 14.88C469.987 15.0387 469.646 15.118 469.235 15.118C468.825 15.118 468.475 15.0433 468.185 14.894C467.896 14.7353 467.658 14.53 467.471 14.278C467.294 14.026 467.163 13.7367 467.079 13.41C466.995 13.074 466.953 12.7287 466.953 12.374C466.953 12.038 466.991 11.7067 467.065 11.38C467.149 11.0533 467.28 10.764 467.457 10.512C467.635 10.2507 467.863 10.0407 468.143 9.882C468.423 9.72333 468.764 9.644 469.165 9.644C469.548 9.644 469.879 9.71867 470.159 9.868C470.449 10.0173 470.682 10.218 470.859 10.47C471.046 10.722 471.181 11.0113 471.265 11.338C471.359 11.6553 471.405 11.982 471.405 12.318ZM480.474 15.972C480.269 16.0933 479.984 16.154 479.62 16.154C479.312 16.154 479.065 16.07 478.878 15.902C478.701 15.7247 478.612 15.44 478.612 15.048C478.285 15.44 477.903 15.7247 477.464 15.902C477.035 16.07 476.568 16.154 476.064 16.154C475.737 16.154 475.425 16.1167 475.126 16.042C474.837 15.9673 474.585 15.8507 474.37 15.692C474.155 15.5333 473.983 15.328 473.852 15.076C473.731 14.8147 473.67 14.502 473.67 14.138C473.67 13.7273 473.74 13.3913 473.88 13.13C474.02 12.8687 474.202 12.6587 474.426 12.5C474.659 12.332 474.921 12.206 475.21 12.122C475.509 12.038 475.812 11.968 476.12 11.912C476.447 11.8467 476.755 11.8 477.044 11.772C477.343 11.7347 477.604 11.688 477.828 11.632C478.052 11.5667 478.229 11.478 478.36 11.366C478.491 11.2447 478.556 11.072 478.556 10.848C478.556 10.5867 478.505 10.3767 478.402 10.218C478.309 10.0593 478.183 9.938 478.024 9.854C477.875 9.77 477.702 9.714 477.506 9.686C477.319 9.658 477.133 9.644 476.946 9.644C476.442 9.644 476.022 9.742 475.686 9.938C475.35 10.1247 475.168 10.484 475.14 11.016H473.95C473.969 10.568 474.062 10.19 474.23 9.882C474.398 9.574 474.622 9.32667 474.902 9.14C475.182 8.944 475.499 8.804 475.854 8.72C476.218 8.636 476.605 8.594 477.016 8.594C477.343 8.594 477.665 8.61733 477.982 8.664C478.309 8.71067 478.603 8.80867 478.864 8.958C479.125 9.098 479.335 9.29867 479.494 9.56C479.653 9.82133 479.732 10.162 479.732 10.582V14.306C479.732 14.586 479.746 14.7913 479.774 14.922C479.811 15.0527 479.923 15.118 480.11 15.118C480.213 15.118 480.334 15.0947 480.474 15.048V15.972ZM478.542 12.262C478.393 12.374 478.197 12.458 477.954 12.514C477.711 12.5607 477.455 12.6027 477.184 12.64C476.923 12.668 476.657 12.7053 476.386 12.752C476.115 12.7893 475.873 12.8547 475.658 12.948C475.443 13.0413 475.266 13.1767 475.126 13.354C474.995 13.522 474.93 13.7553 474.93 14.054C474.93 14.25 474.967 14.418 475.042 14.558C475.126 14.6887 475.229 14.796 475.35 14.88C475.481 14.964 475.63 15.0247 475.798 15.062C475.966 15.0993 476.143 15.118 476.33 15.118C476.722 15.118 477.058 15.0667 477.338 14.964C477.618 14.852 477.847 14.7167 478.024 14.558C478.201 14.39 478.332 14.2127 478.416 14.026C478.5 13.83 478.542 13.648 478.542 13.48V12.262ZM481.582 8.762V16H482.772V11.912C482.772 11.5853 482.814 11.2867 482.898 11.016C482.991 10.736 483.126 10.4933 483.304 10.288C483.481 10.0827 483.7 9.924 483.962 9.812C484.232 9.7 484.55 9.644 484.914 9.644C485.371 9.644 485.73 9.77467 485.992 10.036C486.253 10.2973 486.384 10.652 486.384 11.1V16H487.574V11.24C487.574 10.848 487.532 10.4933 487.448 10.176C487.373 9.84933 487.238 9.56933 487.042 9.336C486.846 9.10267 486.589 8.92067 486.272 8.79C485.954 8.65933 485.558 8.594 485.082 8.594C484.008 8.594 483.224 9.03267 482.73 9.91H482.702V8.762H481.582ZM491.013 8.762V6.592H489.823V8.762H488.591V9.812H489.823V14.418C489.823 14.754 489.856 15.0247 489.921 15.23C489.986 15.4353 490.084 15.594 490.215 15.706C490.355 15.818 490.532 15.8973 490.747 15.944C490.971 15.9813 491.237 16 491.545 16H492.455V14.95H491.909C491.722 14.95 491.568 14.9453 491.447 14.936C491.335 14.9173 491.246 14.8847 491.181 14.838C491.116 14.7913 491.069 14.726 491.041 14.642C491.022 14.558 491.013 14.446 491.013 14.306V9.812H492.455V8.762H491.013ZM513.483 6.004V16H514.743V7.684H514.771L517.893 16H519.027L522.149 7.684H522.177V16H523.437V6.004H521.617L518.453 14.404L515.303 6.004H513.483ZM530.481 11.688H526.323C526.341 11.408 526.402 11.1467 526.505 10.904C526.607 10.652 526.747 10.4327 526.925 10.246C527.102 10.0593 527.312 9.91467 527.555 9.812C527.807 9.7 528.087 9.644 528.395 9.644C528.693 9.644 528.964 9.7 529.207 9.812C529.459 9.91467 529.673 10.0593 529.851 10.246C530.037 10.4233 530.182 10.638 530.285 10.89C530.397 11.142 530.462 11.408 530.481 11.688ZM531.629 13.704H530.453C530.35 14.18 530.135 14.5347 529.809 14.768C529.491 15.0013 529.081 15.118 528.577 15.118C528.185 15.118 527.844 15.0527 527.555 14.922C527.265 14.7913 527.027 14.6187 526.841 14.404C526.654 14.18 526.519 13.928 526.435 13.648C526.351 13.3587 526.313 13.0553 526.323 12.738H531.741C531.759 12.2993 531.717 11.8373 531.615 11.352C531.521 10.8667 531.344 10.4187 531.083 10.008C530.831 9.59733 530.49 9.26133 530.061 9C529.641 8.72933 529.109 8.594 528.465 8.594C527.97 8.594 527.513 8.68733 527.093 8.874C526.682 9.06067 526.323 9.322 526.015 9.658C525.716 9.994 525.483 10.3907 525.315 10.848C525.147 11.3053 525.063 11.8093 525.063 12.36C525.081 12.9107 525.161 13.4193 525.301 13.886C525.45 14.3527 525.669 14.754 525.959 15.09C526.248 15.426 526.603 15.6873 527.023 15.874C527.452 16.0607 527.956 16.154 528.535 16.154C529.356 16.154 530.037 15.9487 530.579 15.538C531.12 15.1273 531.47 14.516 531.629 13.704ZM538 11.688H533.842C533.861 11.408 533.921 11.1467 534.024 10.904C534.127 10.652 534.267 10.4327 534.444 10.246C534.621 10.0593 534.831 9.91467 535.074 9.812C535.326 9.7 535.606 9.644 535.914 9.644C536.213 9.644 536.483 9.7 536.726 9.812C536.978 9.91467 537.193 10.0593 537.37 10.246C537.557 10.4233 537.701 10.638 537.804 10.89C537.916 11.142 537.981 11.408 538 11.688ZM539.148 13.704H537.972C537.869 14.18 537.655 14.5347 537.328 14.768C537.011 15.0013 536.6 15.118 536.096 15.118C535.704 15.118 535.363 15.0527 535.074 14.922C534.785 14.7913 534.547 14.6187 534.36 14.404C534.173 14.18 534.038 13.928 533.954 13.648C533.87 13.3587 533.833 13.0553 533.842 12.738H539.26C539.279 12.2993 539.237 11.8373 539.134 11.352C539.041 10.8667 538.863 10.4187 538.602 10.008C538.35 9.59733 538.009 9.26133 537.58 9C537.16 8.72933 536.628 8.594 535.984 8.594C535.489 8.594 535.032 8.68733 534.612 8.874C534.201 9.06067 533.842 9.322 533.534 9.658C533.235 9.994 533.002 10.3907 532.834 10.848C532.666 11.3053 532.582 11.8093 532.582 12.36C532.601 12.9107 532.68 13.4193 532.82 13.886C532.969 14.3527 533.189 14.754 533.478 15.09C533.767 15.426 534.122 15.6873 534.542 15.874C534.971 16.0607 535.475 16.154 536.054 16.154C536.875 16.154 537.557 15.9487 538.098 15.538C538.639 15.1273 538.989 14.516 539.148 13.704ZM542.146 8.762V6.592H540.956V8.762H539.724V9.812H540.956V14.418C540.956 14.754 540.988 15.0247 541.054 15.23C541.119 15.4353 541.217 15.594 541.348 15.706C541.488 15.818 541.665 15.8973 541.88 15.944C542.104 15.9813 542.37 16 542.678 16H543.588V14.95H543.042C542.855 14.95 542.701 14.9453 542.58 14.936C542.468 14.9173 542.379 14.8847 542.314 14.838C542.248 14.7913 542.202 14.726 542.174 14.642C542.155 14.558 542.146 14.446 542.146 14.306V9.812H543.588V8.762H542.146ZM546.17 7.46V6.004H544.98V7.46H546.17ZM544.98 8.762V16H546.17V8.762H544.98ZM548.013 8.762V16H549.203V11.912C549.203 11.5853 549.245 11.2867 549.329 11.016C549.423 10.736 549.558 10.4933 549.735 10.288C549.913 10.0827 550.132 9.924 550.393 9.812C550.664 9.7 550.981 9.644 551.345 9.644C551.803 9.644 552.162 9.77467 552.423 10.036C552.685 10.2973 552.815 10.652 552.815 11.1V16H554.005V11.24C554.005 10.848 553.963 10.4933 553.879 10.176C553.805 9.84933 553.669 9.56933 553.473 9.336C553.277 9.10267 553.021 8.92067 552.703 8.79C552.386 8.65933 551.989 8.594 551.513 8.594C550.44 8.594 549.656 9.03267 549.161 9.91H549.133V8.762H548.013ZM562.036 15.384V8.762H560.916V9.798H560.902C560.688 9.39667 560.389 9.098 560.006 8.902C559.624 8.69667 559.204 8.594 558.746 8.594C558.121 8.594 557.594 8.71533 557.164 8.958C556.735 9.19133 556.39 9.49467 556.128 9.868C555.867 10.232 555.68 10.6427 555.568 11.1C555.456 11.548 555.4 11.9867 555.4 12.416C555.4 12.9107 555.466 13.382 555.596 13.83C555.736 14.2687 555.942 14.656 556.212 14.992C556.483 15.3187 556.819 15.58 557.22 15.776C557.622 15.972 558.093 16.07 558.634 16.07C559.101 16.07 559.54 15.9673 559.95 15.762C560.37 15.5473 560.683 15.216 560.888 14.768H560.916V15.244C560.916 15.6453 560.874 16.014 560.79 16.35C560.716 16.686 560.59 16.9707 560.412 17.204C560.235 17.4467 560.011 17.6333 559.74 17.764C559.47 17.904 559.138 17.974 558.746 17.974C558.55 17.974 558.345 17.9507 558.13 17.904C557.916 17.8667 557.715 17.8013 557.528 17.708C557.351 17.6147 557.197 17.4933 557.066 17.344C556.945 17.1947 556.88 17.0127 556.87 16.798H555.68C555.699 17.19 555.802 17.5213 555.988 17.792C556.175 18.0627 556.408 18.282 556.688 18.45C556.978 18.618 557.295 18.7393 557.64 18.814C557.995 18.8887 558.34 18.926 558.676 18.926C559.834 18.926 560.683 18.632 561.224 18.044C561.766 17.456 562.036 16.5693 562.036 15.384ZM558.704 15.034C558.312 15.034 557.986 14.9547 557.724 14.796C557.463 14.628 557.253 14.4133 557.094 14.152C556.936 13.8813 556.824 13.5827 556.758 13.256C556.693 12.9293 556.66 12.6027 556.66 12.276C556.66 11.9307 556.698 11.5993 556.772 11.282C556.856 10.9647 556.982 10.6847 557.15 10.442C557.328 10.1993 557.552 10.008 557.822 9.868C558.093 9.71867 558.42 9.644 558.802 9.644C559.176 9.644 559.493 9.71867 559.754 9.868C560.016 10.0173 560.226 10.218 560.384 10.47C560.552 10.7127 560.674 10.988 560.748 11.296C560.823 11.604 560.86 11.9167 560.86 12.234C560.86 12.57 560.818 12.906 560.734 13.242C560.66 13.578 560.538 13.8813 560.37 14.152C560.202 14.4133 559.978 14.628 559.698 14.796C559.428 14.9547 559.096 15.034 558.704 15.034ZM592.54 16L595.214 6.004H593.884L591.854 14.32H591.826L589.614 6.004H588.172L585.932 14.32H585.904L583.944 6.004H582.586L585.148 16H586.534L588.844 7.6H588.872L591.154 16H592.54ZM597.535 7.46V6.004H596.345V7.46H597.535ZM596.345 8.762V16H597.535V8.762H596.345ZM599.378 8.762V16H600.568V11.912C600.568 11.5853 600.61 11.2867 600.694 11.016C600.788 10.736 600.923 10.4933 601.1 10.288C601.278 10.0827 601.497 9.924 601.758 9.812C602.029 9.7 602.346 9.644 602.71 9.644C603.168 9.644 603.527 9.77467 603.788 10.036C604.05 10.2973 604.18 10.652 604.18 11.1V16H605.37V11.24C605.37 10.848 605.328 10.4933 605.244 10.176C605.17 9.84933 605.034 9.56933 604.838 9.336C604.642 9.10267 604.386 8.92067 604.068 8.79C603.751 8.65933 603.354 8.594 602.878 8.594C601.805 8.594 601.021 9.03267 600.526 9.91H600.498V8.762H599.378ZM608.026 12.444C608.026 12.0893 608.063 11.744 608.138 11.408C608.212 11.072 608.334 10.7733 608.502 10.512C608.67 10.2507 608.894 10.0407 609.174 9.882C609.454 9.72333 609.794 9.644 610.196 9.644C610.606 9.644 610.956 9.72333 611.246 9.882C611.535 10.0313 611.768 10.232 611.946 10.484C612.132 10.736 612.268 11.03 612.352 11.366C612.436 11.6927 612.478 12.0333 612.478 12.388C612.478 12.724 612.436 13.0553 612.352 13.382C612.277 13.7087 612.151 14.0027 611.974 14.264C611.796 14.516 611.568 14.7213 611.288 14.88C611.008 15.0387 610.667 15.118 610.266 15.118C609.883 15.118 609.547 15.0433 609.258 14.894C608.978 14.7447 608.744 14.544 608.558 14.292C608.38 14.04 608.245 13.7553 608.152 13.438C608.068 13.1113 608.026 12.78 608.026 12.444ZM613.626 16V6.004H612.436V9.728H612.408C612.277 9.51333 612.114 9.336 611.918 9.196C611.731 9.04667 611.53 8.93 611.316 8.846C611.101 8.75267 610.886 8.68733 610.672 8.65C610.457 8.61267 610.256 8.594 610.07 8.594C609.519 8.594 609.034 8.69667 608.614 8.902C608.203 9.098 607.858 9.36867 607.578 9.714C607.307 10.05 607.102 10.4467 606.962 10.904C606.831 11.3613 606.766 11.8467 606.766 12.36C606.766 12.8733 606.836 13.3587 606.976 13.816C607.116 14.2733 607.321 14.6747 607.592 15.02C607.872 15.3653 608.217 15.6407 608.628 15.846C609.048 16.0513 609.538 16.154 610.098 16.154C610.602 16.154 611.064 16.0653 611.484 15.888C611.904 15.7107 612.212 15.4213 612.408 15.02H612.436V16H613.626ZM616.325 12.388C616.325 11.9493 616.381 11.562 616.493 11.226C616.614 10.8807 616.777 10.5913 616.983 10.358C617.188 10.1247 617.426 9.94733 617.697 9.826C617.977 9.70467 618.271 9.644 618.579 9.644C618.887 9.644 619.176 9.70467 619.447 9.826C619.727 9.94733 619.969 10.1247 620.175 10.358C620.38 10.5913 620.539 10.8807 620.651 11.226C620.772 11.562 620.833 11.9493 620.833 12.388C620.833 12.8267 620.772 13.2187 620.651 13.564C620.539 13.9 620.38 14.1847 620.175 14.418C619.969 14.642 619.727 14.8147 619.447 14.936C619.176 15.0573 618.887 15.118 618.579 15.118C618.271 15.118 617.977 15.0573 617.697 14.936C617.426 14.8147 617.188 14.642 616.983 14.418C616.777 14.1847 616.614 13.9 616.493 13.564C616.381 13.2187 616.325 12.8267 616.325 12.388ZM615.065 12.388C615.065 12.92 615.139 13.4147 615.289 13.872C615.438 14.3293 615.662 14.7307 615.961 15.076C616.259 15.412 616.628 15.678 617.067 15.874C617.505 16.0607 618.009 16.154 618.579 16.154C619.157 16.154 619.661 16.0607 620.091 15.874C620.529 15.678 620.898 15.412 621.197 15.076C621.495 14.7307 621.719 14.3293 621.869 13.872C622.018 13.4147 622.093 12.92 622.093 12.388C622.093 11.856 622.018 11.3613 621.869 10.904C621.719 10.4373 621.495 10.036 621.197 9.7C620.898 9.35467 620.529 9.084 620.091 8.888C619.661 8.692 619.157 8.594 618.579 8.594C618.009 8.594 617.505 8.692 617.067 8.888C616.628 9.084 616.259 9.35467 615.961 9.7C615.662 10.036 615.438 10.4373 615.289 10.904C615.139 11.3613 615.065 11.856 615.065 12.388ZM630.664 16L632.974 8.762H631.742L630.118 14.684H630.09L628.578 8.762H627.276L625.82 14.684H625.792L624.154 8.762H622.838L625.162 16H626.45L627.906 10.246H627.934L629.404 16H630.664ZM653.783 6.004V16H655.113V11.422H660.377V16H661.707V6.004H660.377V10.302H655.113V6.004H653.783ZM668.717 11.688H664.559C664.578 11.408 664.638 11.1467 664.741 10.904C664.844 10.652 664.984 10.4327 665.161 10.246C665.338 10.0593 665.548 9.91467 665.791 9.812C666.043 9.7 666.323 9.644 666.631 9.644C666.93 9.644 667.2 9.7 667.443 9.812C667.695 9.91467 667.91 10.0593 668.087 10.246C668.274 10.4233 668.418 10.638 668.521 10.89C668.633 11.142 668.698 11.408 668.717 11.688ZM669.865 13.704H668.689C668.586 14.18 668.372 14.5347 668.045 14.768C667.728 15.0013 667.317 15.118 666.813 15.118C666.421 15.118 666.08 15.0527 665.791 14.922C665.502 14.7913 665.264 14.6187 665.077 14.404C664.89 14.18 664.755 13.928 664.671 13.648C664.587 13.3587 664.55 13.0553 664.559 12.738H669.977C669.996 12.2993 669.954 11.8373 669.851 11.352C669.758 10.8667 669.58 10.4187 669.319 10.008C669.067 9.59733 668.726 9.26133 668.297 9C667.877 8.72933 667.345 8.594 666.701 8.594C666.206 8.594 665.749 8.68733 665.329 8.874C664.918 9.06067 664.559 9.322 664.251 9.658C663.952 9.994 663.719 10.3907 663.551 10.848C663.383 11.3053 663.299 11.8093 663.299 12.36C663.318 12.9107 663.397 13.4193 663.537 13.886C663.686 14.3527 663.906 14.754 664.195 15.09C664.484 15.426 664.839 15.6873 665.259 15.874C665.688 16.0607 666.192 16.154 666.771 16.154C667.592 16.154 668.274 15.9487 668.815 15.538C669.356 15.1273 669.706 14.516 669.865 13.704ZM671.28 6.004V16H672.47V6.004H671.28ZM674.356 8.762V18.758H675.546V15.034H675.574C675.705 15.2487 675.863 15.4307 676.05 15.58C676.246 15.72 676.451 15.832 676.666 15.916C676.881 16 677.095 16.0607 677.31 16.098C677.534 16.1353 677.735 16.154 677.912 16.154C678.463 16.154 678.943 16.056 679.354 15.86C679.774 15.664 680.119 15.398 680.39 15.062C680.67 14.7167 680.875 14.3153 681.006 13.858C681.146 13.4007 681.216 12.9153 681.216 12.402C681.216 11.8887 681.146 11.4033 681.006 10.946C680.866 10.4887 680.656 10.0873 680.376 9.742C680.105 9.38733 679.76 9.10733 679.34 8.902C678.929 8.69667 678.444 8.594 677.884 8.594C677.38 8.594 676.918 8.68733 676.498 8.874C676.078 9.05133 675.77 9.34067 675.574 9.742H675.546V8.762H674.356ZM679.956 12.318C679.956 12.6727 679.919 13.018 679.844 13.354C679.769 13.69 679.648 13.9887 679.48 14.25C679.312 14.5113 679.088 14.7213 678.808 14.88C678.537 15.0387 678.197 15.118 677.786 15.118C677.375 15.118 677.025 15.0433 676.736 14.894C676.447 14.7353 676.209 14.53 676.022 14.278C675.845 14.026 675.714 13.7367 675.63 13.41C675.546 13.074 675.504 12.7287 675.504 12.374C675.504 12.038 675.541 11.7067 675.616 11.38C675.7 11.0533 675.831 10.764 676.008 10.512C676.185 10.2507 676.414 10.0407 676.694 9.882C676.974 9.72333 677.315 9.644 677.716 9.644C678.099 9.644 678.43 9.71867 678.71 9.868C678.999 10.0173 679.233 10.218 679.41 10.47C679.597 10.722 679.732 11.0113 679.816 11.338C679.909 11.6553 679.956 11.982 679.956 12.318Z" fill="black"/>
<path fill-rule="evenodd" clip-rule="evenodd" d="M1261.39 16.8395C1261.12 16.0595 1260.37 15.5 1259.5 15.5C1258.63 15.5 1257.88 16.0595 1257.61 16.8395L1259.5 18.7279L1261.39 16.8395Z" fill="black"/>
<path fill-rule="evenodd" clip-rule="evenodd" d="M1264.31 13.9157C1263.22 12.4494 1261.47 11.5 1259.5 11.5C1257.53 11.5 1255.78 12.4494 1254.69 13.9157L1255.4 14.6318C1256.31 13.3427 1257.81 12.5 1259.5 12.5C1261.19 12.5 1262.69 13.3427 1263.6 14.6318L1264.31 13.9157Z" fill="black"/>
<path fill-rule="evenodd" clip-rule="evenodd" d="M1267.16 11.0694C1265.32 8.88705 1262.57 7.5 1259.5 7.5C1256.43 7.5 1253.68 8.88705 1251.84 11.0694L1252.55 11.7795C1254.2 9.77678 1256.7 8.5 1259.5 8.5C1262.3 8.5 1264.8 9.77678 1266.45 11.7795L1267.16 11.0694Z" fill="black"/>
<path fill-rule="evenodd" clip-rule="evenodd" d="M1269.99 8.23341C1267.43 5.33053 1263.68 3.5 1259.5 3.5C1255.32 3.5 1251.57 5.33053 1249.01 8.23341L1249.71 8.94197C1252.1 6.21941 1255.6 4.5 1259.5 4.5C1263.4 4.5 1266.9 6.21941 1269.29 8.94197L1269.99 8.23341Z" fill="black"/>
<path d="M1284.5 6.5C1284.5 5.94772 1284.95 5.5 1285.5 5.5H1302.5C1303.05 5.5 1303.5 5.94772 1303.5 6.5V15.5C1303.5 16.0523 1303.05 16.5 1302.5 16.5H1285.5C1284.95 16.5 1284.5 16.0523 1284.5 15.5V6.5Z" fill="#D2D5D6" stroke="black"/>
<path fill-rule="evenodd" clip-rule="evenodd" d="M1286.5 7C1286.22 7 1286 7.22386 1286 7.5V14.5C1286 14.7761 1286.22 15 1286.5 15H1301.5C1301.78 15 1302 14.7761 1302 14.5V7.5C1302 7.22386 1301.78 7 1301.5 7H1286.5Z" fill="black"/>
<path fill-rule="evenodd" clip-rule="evenodd" d="M1305 14.2368C1306.2 13.6143 1307 12.4509 1307 11.1184C1307 9.78588 1306.2 8.62246 1305 8V14.2368V14.2368Z" fill="black"/>
<path d="M1326.16 16V5.7195H1325.22C1325.15 6.10617 1325.03 6.42517 1324.84 6.6765C1324.66 6.92783 1324.43 7.126 1324.16 7.271C1323.9 7.416 1323.61 7.5175 1323.28 7.5755C1322.95 7.62383 1322.61 7.648 1322.26 7.648V8.634H1324.93V16H1326.16ZM1331.3 8.3875C1331.3 8.1265 1331.35 7.89933 1331.45 7.706C1331.55 7.51267 1331.67 7.34833 1331.83 7.213C1331.99 7.07767 1332.18 6.97617 1332.41 6.9085C1332.63 6.84083 1332.86 6.807 1333.1 6.807C1333.61 6.807 1334.02 6.94233 1334.34 7.213C1334.66 7.474 1334.83 7.8655 1334.83 8.3875C1334.83 8.9095 1334.67 9.3155 1334.35 9.6055C1334.03 9.8955 1333.62 10.0405 1333.13 10.0405C1332.88 10.0405 1332.64 10.0067 1332.42 9.939C1332.2 9.87133 1332.01 9.76983 1331.84 9.6345C1331.68 9.49917 1331.55 9.33 1331.45 9.127C1331.35 8.91433 1331.3 8.66783 1331.3 8.3875ZM1330 8.344C1330 8.808 1330.13 9.23817 1330.39 9.6345C1330.65 10.0212 1331 10.3015 1331.44 10.4755C1330.86 10.6785 1330.41 11.0072 1330.1 11.4615C1329.79 11.9062 1329.64 12.433 1329.64 13.042C1329.64 13.564 1329.72 14.0232 1329.9 14.4195C1330.08 14.8062 1330.33 15.13 1330.64 15.391C1330.96 15.652 1331.33 15.8453 1331.75 15.971C1332.18 16.0967 1332.64 16.1595 1333.13 16.1595C1333.61 16.1595 1334.05 16.0918 1334.47 15.9565C1334.88 15.8212 1335.24 15.623 1335.54 15.362C1335.85 15.0913 1336.09 14.7627 1336.26 14.376C1336.45 13.9893 1336.54 13.5447 1336.54 13.042C1336.54 12.404 1336.39 11.8675 1336.09 11.4325C1335.79 10.9878 1335.33 10.6688 1334.71 10.4755C1335.15 10.2822 1335.49 9.997 1335.74 9.62C1336 9.23333 1336.13 8.808 1336.13 8.344C1336.13 8.01533 1336.08 7.69633 1335.96 7.387C1335.84 7.068 1335.66 6.78767 1335.41 6.546C1335.17 6.29467 1334.85 6.0965 1334.45 5.9515C1334.05 5.79683 1333.58 5.7195 1333.02 5.7195C1332.62 5.7195 1332.24 5.7775 1331.87 5.8935C1331.51 6.0095 1331.19 6.17867 1330.91 6.401C1330.63 6.62333 1330.41 6.89883 1330.25 7.2275C1330.08 7.5465 1330 7.91867 1330 8.344ZM1330.94 13.1C1330.94 12.8003 1331 12.5297 1331.1 12.288C1331.22 12.0463 1331.37 11.8385 1331.57 11.6645C1331.77 11.4905 1332 11.36 1332.26 11.273C1332.53 11.1763 1332.82 11.128 1333.12 11.128C1333.41 11.128 1333.68 11.1812 1333.93 11.2875C1334.19 11.3842 1334.42 11.5195 1334.61 11.6935C1334.8 11.8675 1334.95 12.0753 1335.06 12.317C1335.18 12.549 1335.23 12.8052 1335.23 13.0855C1335.23 13.3755 1335.18 13.6413 1335.07 13.883C1334.98 14.1247 1334.83 14.3373 1334.64 14.521C1334.46 14.695 1334.23 14.8352 1333.97 14.9415C1333.72 15.0382 1333.44 15.0865 1333.13 15.0865C1332.49 15.0865 1331.97 14.9125 1331.55 14.5645C1331.15 14.2068 1330.94 13.7187 1330.94 13.1ZM1339.93 10.113V8.5035H1338.32V10.113H1339.93ZM1338.32 14.3905V16H1339.93V14.3905H1338.32ZM1343.06 10.9395C1343.06 10.6882 1343.06 10.4127 1343.06 10.113C1343.07 9.80367 1343.1 9.49917 1343.14 9.1995C1343.18 8.89017 1343.25 8.5905 1343.32 8.3005C1343.41 8.0105 1343.53 7.75917 1343.69 7.5465C1343.85 7.32417 1344.05 7.14533 1344.3 7.01C1344.54 6.87467 1344.83 6.807 1345.18 6.807C1345.53 6.807 1345.82 6.87467 1346.07 7.01C1346.31 7.14533 1346.51 7.32417 1346.66 7.5465C1346.82 7.75917 1346.95 8.0105 1347.02 8.3005C1347.11 8.5905 1347.17 8.89017 1347.21 9.1995C1347.26 9.49917 1347.28 9.80367 1347.28 10.113C1347.29 10.4127 1347.3 10.6882 1347.3 10.9395C1347.3 11.3262 1347.28 11.7612 1347.25 12.2445C1347.24 12.7182 1347.16 13.1677 1347.02 13.593C1346.9 14.0087 1346.69 14.3615 1346.4 14.6515C1346.11 14.9415 1345.7 15.0865 1345.18 15.0865C1344.66 15.0865 1344.25 14.9415 1343.96 14.6515C1343.67 14.3615 1343.46 14.0087 1343.32 13.593C1343.2 13.1677 1343.12 12.7182 1343.09 12.2445C1343.07 11.7612 1343.06 11.3262 1343.06 10.9395ZM1341.76 10.954C1341.76 11.331 1341.77 11.7225 1341.79 12.1285C1341.81 12.5345 1341.86 12.9308 1341.93 13.3175C1342.01 13.7042 1342.12 14.0715 1342.27 14.4195C1342.41 14.7578 1342.61 15.0575 1342.86 15.3185C1343.11 15.5795 1343.43 15.7873 1343.8 15.942C1344.19 16.087 1344.65 16.1595 1345.18 16.1595C1345.72 16.1595 1346.18 16.087 1346.56 15.942C1346.94 15.7873 1347.25 15.5795 1347.5 15.3185C1347.75 15.0575 1347.95 14.7578 1348.1 14.4195C1348.24 14.0715 1348.35 13.7042 1348.43 13.3175C1348.51 12.9308 1348.55 12.5345 1348.57 12.1285C1348.59 11.7225 1348.6 11.331 1348.6 10.954C1348.6 10.577 1348.59 10.1855 1348.57 9.7795C1348.55 9.3735 1348.51 8.97717 1348.43 8.5905C1348.35 8.20383 1348.24 7.8365 1348.1 7.4885C1347.95 7.1405 1347.75 6.836 1347.5 6.575C1347.25 6.314 1346.93 6.10617 1346.54 5.9515C1346.17 5.79683 1345.71 5.7195 1345.18 5.7195C1344.65 5.7195 1344.19 5.79683 1343.8 5.9515C1343.43 6.10617 1343.11 6.314 1342.86 6.575C1342.61 6.836 1342.41 7.1405 1342.27 7.4885C1342.12 7.8365 1342.01 8.20383 1341.93 8.5905C1341.86 8.97717 1341.81 9.3735 1341.79 9.7795C1341.77 10.1855 1341.76 10.577 1341.76 10.954ZM1351.12 10.9395C1351.12 10.6882 1351.12 10.4127 1351.12 10.113C1351.13 9.80367 1351.15 9.49917 1351.19 9.1995C1351.24 8.89017 1351.3 8.5905 1351.38 8.3005C1351.47 8.0105 1351.59 7.75917 1351.74 7.5465C1351.91 7.32417 1352.11 7.14533 1352.35 7.01C1352.6 6.87467 1352.89 6.807 1353.24 6.807C1353.59 6.807 1353.88 6.87467 1354.12 7.01C1354.36 7.14533 1354.56 7.32417 1354.72 7.5465C1354.88 7.75917 1355 8.0105 1355.08 8.3005C1355.17 8.5905 1355.23 8.89017 1355.27 9.1995C1355.32 9.49917 1355.34 9.80367 1355.34 10.113C1355.35 10.4127 1355.36 10.6882 1355.36 10.9395C1355.36 11.3262 1355.34 11.7612 1355.31 12.2445C1355.29 12.7182 1355.21 13.1677 1355.08 13.593C1354.95 14.0087 1354.75 14.3615 1354.46 14.6515C1354.17 14.9415 1353.76 15.0865 1353.24 15.0865C1352.72 15.0865 1352.31 14.9415 1352.02 14.6515C1351.73 14.3615 1351.52 14.0087 1351.38 13.593C1351.26 13.1677 1351.18 12.7182 1351.15 12.2445C1351.13 11.7612 1351.12 11.3262 1351.12 10.9395ZM1349.82 10.954C1349.82 11.331 1349.83 11.7225 1349.85 12.1285C1349.86 12.5345 1349.91 12.9308 1349.99 13.3175C1350.07 13.7042 1350.18 14.0715 1350.32 14.4195C1350.47 14.7578 1350.67 15.0575 1350.92 15.3185C1351.17 15.5795 1351.48 15.7873 1351.86 15.942C1352.25 16.087 1352.71 16.1595 1353.24 16.1595C1353.78 16.1595 1354.24 16.087 1354.62 15.942C1354.99 15.7873 1355.31 15.5795 1355.56 15.3185C1355.81 15.0575 1356.01 14.7578 1356.15 14.4195C1356.3 14.0715 1356.41 13.7042 1356.49 13.3175C1356.56 12.9308 1356.61 12.5345 1356.63 12.1285C1356.65 11.7225 1356.66 11.331 1356.66 10.954C1356.66 10.577 1356.65 10.1855 1356.63 9.7795C1356.61 9.3735 1356.56 8.97717 1356.49 8.5905C1356.41 8.20383 1356.3 7.8365 1356.15 7.4885C1356.01 7.1405 1355.81 6.836 1355.56 6.575C1355.31 6.314 1354.99 6.10617 1354.6 5.9515C1354.22 5.79683 1353.77 5.7195 1353.24 5.7195C1352.71 5.7195 1352.25 5.79683 1351.86 5.9515C1351.48 6.10617 1351.17 6.314 1350.92 6.575C1350.67 6.836 1350.47 7.1405 1350.32 7.4885C1350.18 7.8365 1350.07 8.20383 1349.99 8.5905C1349.91 8.97717 1349.86 9.3735 1349.85 9.7795C1349.83 10.1855 1349.82 10.577 1349.82 10.954Z" fill="black"/>
<path d="M1383 9.75C1383 12.6495 1380.65 15 1377.75 15C1374.85 15 1372.5 12.6495 1372.5 9.75C1372.5 6.85051 1374.85 4.5 1377.75 4.5C1380.65 4.5 1383 6.85051 1383 9.75Z" stroke="black"/>
<path d="M1385.75 17.75L1381.75 13.75" stroke="black" stroke-linecap="square"/>
<path fill-rule="evenodd" clip-rule="evenodd" d="M1406 6V8H1420V6H1406Z" fill="black"/>
<path fill-rule="evenodd" clip-rule="evenodd" d="M1406 14V16H1420V14H1406Z" fill="black"/>
<path fill-rule="evenodd" clip-rule="evenodd" d="M1406 10V12H1417V10H1406Z" fill="black"/>
<path fill-rule="evenodd" clip-rule="evenodd" d="M1402 6V8H1404V6H1402Z" fill="black"/>
<path fill-rule="evenodd" clip-rule="evenodd" d="M1402 14V16H1404V14H1402Z" fill="black"/>
<path fill-rule="evenodd" clip-rule="evenodd" d="M1402 10V12H1404V10H1402Z" fill="black"/>
</g>
<defs>
<filter id="filter0_bdd" x="-21.7463" y="-21.7463" width="1483.49" height="65.4925" filterUnits="userSpaceOnUse" color-interpolation-filters="sRGB">
<feFlood flood-opacity="0" result="BackgroundImageFix"/>
<feGaussianBlur in="BackgroundImage" stdDeviation="10.8731"/>
<feComposite in2="SourceAlpha" operator="in" result="effect1_backgroundBlur"/>
<feColorMatrix in="SourceAlpha" type="matrix" values="0 0 0 0 0 0 0 0 0 0 0 0 0 0 0 0 0 0 127 0"/>
<feOffset/>
<feGaussianBlur stdDeviation="8"/>
<feColorMatrix type="matrix" values="0 0 0 0 0 0 0 0 0 0 0 0 0 0 0 0 0 0 0.24 0"/>
<feBlend mode="normal" in2="effect1_backgroundBlur" result="effect2_dropShadow"/>
<feColorMatrix in="SourceAlpha" type="matrix" values="0 0 0 0 0 0 0 0 0 0 0 0 0 0 0 0 0 0 127 0"/>
<feOffset dy="1"/>
<feColorMatrix type="matrix" values="0 0 0 0 0 0 0 0 0 0 0 0 0 0 0 0 0 0 0.16 0"/>
<feBlend mode="normal" in2="effect2_dropShadow" result="effect3_dropShadow"/>
<feBlend mode="normal" in="SourceGraphic" in2="effect3_dropShadow" result="shape"/>
</filter>
</defs>
</svg>
