<svg width="1440" height="38" viewBox="0 0 1440 38" fill="none" xmlns="http://www.w3.org/2000/svg">
<g filter="url(#filter0_bdd)">
<path fill-rule="evenodd" clip-rule="evenodd" d="M0 0V22H1440V0H0Z" fill="white" fill-opacity="0.1" style="mix-hybrid-mode:overlay"/>
<path fill-rule="evenodd" clip-rule="evenodd" d="M0 0V22H1440V0H0Z" fill="white" fill-opacity="0.1"/>
</g>
<mask id="mask0" mask-type="alpha" maskUnits="userSpaceOnUse" x="0" y="0" width="1440" height="22">
<path fill-rule="evenodd" clip-rule="evenodd" d="M0 0V22H1440V0H0Z" fill="white"/>
<path fill-rule="evenodd" clip-rule="evenodd" d="M0 0V22H1440V0H0Z" stroke="white"/>
</mask>
<g mask="url(#mask0)">
<path fill-rule="evenodd" clip-rule="evenodd" d="M33.5245 8.01767C32.6848 7.011 31.5066 6.42857 30.395 6.42857C28.9237 6.42857 28.3021 7.10063 27.2814 7.10063C26.2295 7.10063 25.4297 6.42969 24.1571 6.42969C22.9074 6.42969 21.5785 7.15987 20.7359 8.40763C19.5505 10.1632 19.7513 13.4659 21.6735 16.2803C22.3611 17.2864 23.2793 18.4181 24.4797 18.4285C25.5467 18.438 25.8488 17.7735 27.2966 17.7658C28.7443 17.7582 29.0181 18.4357 30.0852 18.4263C31.2854 18.4152 32.2541 17.1624 32.9414 16.1557C33.4341 15.4351 33.6173 15.071 34 14.2553C31.2207 13.2452 30.7737 9.46749 33.5245 8.01767ZM29.2047 5.31267C29.6667 4.71279 30.0178 3.86586 29.8902 3C29.1353 3.05276 28.2524 3.53848 27.7368 4.17164C27.269 4.74647 26.8826 5.59883 27.033 6.42763C27.857 6.45322 28.7098 5.95541 29.2047 5.31267Z" fill="white"/>
<path d="M64.486 16L67.174 6.004H65.018L63.38 12.892H63.352L61.644 6.004H59.586L57.85 12.808H57.822L56.24 6.004H54.042L56.688 16H58.914L60.58 9.196H60.608L62.302 16H64.486ZM72.0557 11.604H68.8217C68.8311 11.464 68.8591 11.3053 68.9057 11.128C68.9617 10.9507 69.0504 10.7827 69.1717 10.624C69.3024 10.4653 69.4704 10.3347 69.6757 10.232C69.8904 10.12 70.1564 10.064 70.4737 10.064C70.9591 10.064 71.3184 10.1947 71.5517 10.456C71.7944 10.7173 71.9624 11.1 72.0557 11.604ZM68.8217 12.864H74.0437C74.0811 12.304 74.0344 11.7673 73.9037 11.254C73.7731 10.7407 73.5584 10.2833 73.2597 9.882C72.9704 9.48067 72.5971 9.16333 72.1397 8.93C71.6824 8.68733 71.1457 8.566 70.5297 8.566C69.9791 8.566 69.4751 8.664 69.0177 8.86C68.5697 9.056 68.1824 9.32667 67.8557 9.672C67.5291 10.008 67.2771 10.4093 67.0997 10.876C66.9224 11.3427 66.8337 11.8467 66.8337 12.388C66.8337 12.948 66.9177 13.4613 67.0857 13.928C67.2631 14.3947 67.5104 14.796 67.8277 15.132C68.1451 15.468 68.5324 15.7293 68.9897 15.916C69.4471 16.0933 69.9604 16.182 70.5297 16.182C71.3511 16.182 72.0511 15.9953 72.6297 15.622C73.2084 15.2487 73.6377 14.628 73.9177 13.76H72.1677C72.1024 13.984 71.9251 14.1987 71.6357 14.404C71.3464 14.6 71.0011 14.698 70.5997 14.698C70.0397 14.698 69.6104 14.5533 69.3117 14.264C69.0131 13.9747 68.8497 13.508 68.8217 12.864ZM80.5288 12.388C80.5288 12.6867 80.4961 12.976 80.4308 13.256C80.3655 13.536 80.2628 13.7833 80.1228 13.998C79.9828 14.2127 79.8055 14.3853 79.5908 14.516C79.3855 14.6373 79.1335 14.698 78.8348 14.698C78.5455 14.698 78.2935 14.6373 78.0788 14.516C77.8641 14.3853 77.6868 14.2127 77.5468 13.998C77.4068 13.7833 77.3041 13.536 77.2388 13.256C77.1735 12.976 77.1408 12.6867 77.1408 12.388C77.1408 12.08 77.1735 11.786 77.2388 11.506C77.3041 11.226 77.4068 10.9787 77.5468 10.764C77.6868 10.5493 77.8641 10.3813 78.0788 10.26C78.2935 10.1293 78.5455 10.064 78.8348 10.064C79.1335 10.064 79.3855 10.1293 79.5908 10.26C79.8055 10.3813 79.9828 10.5493 80.1228 10.764C80.2628 10.9787 80.3655 11.226 80.4308 11.506C80.4961 11.786 80.5288 12.08 80.5288 12.388ZM75.2228 6.004V16H77.1128V15.076H77.1408C77.3555 15.4773 77.6728 15.762 78.0928 15.93C78.5128 16.098 78.9888 16.182 79.5208 16.182C79.8848 16.182 80.2441 16.1073 80.5988 15.958C80.9535 15.8087 81.2708 15.58 81.5508 15.272C81.8401 14.964 82.0735 14.572 82.2508 14.096C82.4281 13.6107 82.5168 13.0367 82.5168 12.374C82.5168 11.7113 82.4281 11.142 82.2508 10.666C82.0735 10.1807 81.8401 9.784 81.5508 9.476C81.2708 9.168 80.9535 8.93933 80.5988 8.79C80.2441 8.64067 79.8848 8.566 79.5208 8.566C79.0728 8.566 78.6388 8.65467 78.2188 8.832C77.8081 9 77.4815 9.27067 77.2388 9.644H77.2108V6.004H75.2228ZM88.6534 11.604H85.4194C85.4287 11.464 85.4567 11.3053 85.5034 11.128C85.5594 10.9507 85.6481 10.7827 85.7694 10.624C85.9001 10.4653 86.0681 10.3347 86.2734 10.232C86.4881 10.12 86.7541 10.064 87.0714 10.064C87.5567 10.064 87.9161 10.1947 88.1494 10.456C88.3921 10.7173 88.5601 11.1 88.6534 11.604ZM85.4194 12.864H90.6414C90.6787 12.304 90.6321 11.7673 90.5014 11.254C90.3707 10.7407 90.1561 10.2833 89.8574 9.882C89.5681 9.48067 89.1947 9.16333 88.7374 8.93C88.2801 8.68733 87.7434 8.566 87.1274 8.566C86.5767 8.566 86.0727 8.664 85.6154 8.86C85.1674 9.056 84.7801 9.32667 84.4534 9.672C84.1267 10.008 83.8747 10.4093 83.6974 10.876C83.5201 11.3427 83.4314 11.8467 83.4314 12.388C83.4314 12.948 83.5154 13.4613 83.6834 13.928C83.8607 14.3947 84.1081 14.796 84.4254 15.132C84.7427 15.468 85.1301 15.7293 85.5874 15.916C86.0447 16.0933 86.5581 16.182 87.1274 16.182C87.9487 16.182 88.6487 15.9953 89.2274 15.622C89.8061 15.2487 90.2354 14.628 90.5154 13.76H88.7654C88.7001 13.984 88.5227 14.1987 88.2334 14.404C87.9441 14.6 87.5987 14.698 87.1974 14.698C86.6374 14.698 86.2081 14.5533 85.9094 14.264C85.6107 13.9747 85.4474 13.508 85.4194 12.864ZM93.6685 12.192L91.0645 16H93.2905L94.8025 13.718L96.3145 16H98.5825L95.9085 12.15L98.2885 8.762H96.0905L94.8305 10.652L93.5565 8.762H91.2885L93.6685 12.192ZM103.446 6.004V16H105.504V8.986H105.532L107.982 16H109.676L112.126 8.916H112.154V16H114.212V6.004H111.118L108.906 12.878H108.878L106.54 6.004H103.446ZM120.81 11.604H117.576C117.585 11.464 117.613 11.3053 117.66 11.128C117.716 10.9507 117.804 10.7827 117.926 10.624C118.056 10.4653 118.224 10.3347 118.43 10.232C118.644 10.12 118.91 10.064 119.228 10.064C119.713 10.064 120.072 10.1947 120.306 10.456C120.548 10.7173 120.716 11.1 120.81 11.604ZM117.576 12.864H122.798C122.835 12.304 122.788 11.7673 122.658 11.254C122.527 10.7407 122.312 10.2833 122.014 9.882C121.724 9.48067 121.351 9.16333 120.894 8.93C120.436 8.68733 119.9 8.566 119.284 8.566C118.733 8.566 118.229 8.664 117.772 8.86C117.324 9.056 116.936 9.32667 116.61 9.672C116.283 10.008 116.031 10.4093 115.854 10.876C115.676 11.3427 115.588 11.8467 115.588 12.388C115.588 12.948 115.672 13.4613 115.84 13.928C116.017 14.3947 116.264 14.796 116.582 15.132C116.899 15.468 117.286 15.7293 117.744 15.916C118.201 16.0933 118.714 16.182 119.284 16.182C120.105 16.182 120.805 15.9953 121.384 15.622C121.962 15.2487 122.392 14.628 122.672 13.76H120.922C120.856 13.984 120.679 14.1987 120.39 14.404C120.1 14.6 119.755 14.698 119.354 14.698C118.794 14.698 118.364 14.5533 118.066 14.264C117.767 13.9747 117.604 13.508 117.576 12.864ZM128.849 11.604H125.615C125.624 11.464 125.652 11.3053 125.699 11.128C125.755 10.9507 125.843 10.7827 125.965 10.624C126.095 10.4653 126.263 10.3347 126.469 10.232C126.683 10.12 126.949 10.064 127.267 10.064C127.752 10.064 128.111 10.1947 128.345 10.456C128.587 10.7173 128.755 11.1 128.849 11.604ZM125.615 12.864H130.837C130.874 12.304 130.827 11.7673 130.697 11.254C130.566 10.7407 130.351 10.2833 130.053 9.882C129.763 9.48067 129.39 9.16333 128.933 8.93C128.475 8.68733 127.939 8.566 127.323 8.566C126.772 8.566 126.268 8.664 125.811 8.86C125.363 9.056 124.975 9.32667 124.649 9.672C124.322 10.008 124.07 10.4093 123.893 10.876C123.715 11.3427 123.627 11.8467 123.627 12.388C123.627 12.948 123.711 13.4613 123.879 13.928C124.056 14.3947 124.303 14.796 124.621 15.132C124.938 15.468 125.325 15.7293 125.783 15.916C126.24 16.0933 126.753 16.182 127.323 16.182C128.144 16.182 128.844 15.9953 129.423 15.622C130.001 15.2487 130.431 14.628 130.711 13.76H128.961C128.895 13.984 128.718 14.1987 128.429 14.404C128.139 14.6 127.794 14.698 127.393 14.698C126.833 14.698 126.403 14.5533 126.105 14.264C125.806 13.9747 125.643 13.508 125.615 12.864ZM134.536 8.762V6.592H132.548V8.762H131.344V10.092H132.548V14.362C132.548 14.726 132.608 15.02 132.73 15.244C132.851 15.468 133.014 15.6407 133.22 15.762C133.434 15.8833 133.677 15.9627 133.948 16C134.228 16.0467 134.522 16.07 134.83 16.07C135.026 16.07 135.226 16.0653 135.432 16.056C135.637 16.0467 135.824 16.028 135.992 16V14.46C135.898 14.4787 135.8 14.4927 135.698 14.502C135.595 14.5113 135.488 14.516 135.376 14.516C135.04 14.516 134.816 14.46 134.704 14.348C134.592 14.236 134.536 14.012 134.536 13.676V10.092H135.992V8.762H134.536ZM138.982 7.642V6.004H136.994V7.642H138.982ZM136.994 8.762V16H138.982V8.762H136.994ZM140.547 8.762V16H142.535V12.206C142.535 11.4687 142.656 10.9413 142.899 10.624C143.142 10.2973 143.534 10.134 144.075 10.134C144.551 10.134 144.882 10.2833 145.069 10.582C145.256 10.8713 145.349 11.3147 145.349 11.912V16H147.337V11.548C147.337 11.1 147.295 10.694 147.211 10.33C147.136 9.95667 147.001 9.644 146.805 9.392C146.609 9.13067 146.338 8.93 145.993 8.79C145.657 8.64067 145.223 8.566 144.691 8.566C144.271 8.566 143.86 8.664 143.459 8.86C143.058 9.04667 142.731 9.35 142.479 9.77H142.437V8.762H140.547ZM152.22 14.292C151.912 14.292 151.655 14.2267 151.45 14.096C151.245 13.9653 151.077 13.7973 150.946 13.592C150.825 13.3867 150.736 13.158 150.68 12.906C150.633 12.6447 150.61 12.3833 150.61 12.122C150.61 11.8513 150.638 11.5947 150.694 11.352C150.759 11.1 150.857 10.8807 150.988 10.694C151.128 10.498 151.296 10.344 151.492 10.232C151.697 10.12 151.94 10.064 152.22 10.064C152.547 10.064 152.817 10.1247 153.032 10.246C153.247 10.3673 153.419 10.5307 153.55 10.736C153.681 10.9413 153.774 11.1793 153.83 11.45C153.886 11.7113 153.914 11.9913 153.914 12.29C153.914 12.5513 153.877 12.8033 153.802 13.046C153.737 13.2793 153.634 13.4893 153.494 13.676C153.354 13.8627 153.177 14.012 152.962 14.124C152.747 14.236 152.5 14.292 152.22 14.292ZM155.804 15.538V8.762H153.914V9.728H153.886C153.643 9.308 153.34 9.00933 152.976 8.832C152.621 8.65467 152.206 8.566 151.73 8.566C151.226 8.566 150.778 8.664 150.386 8.86C150.003 9.056 149.681 9.322 149.42 9.658C149.159 9.98467 148.958 10.3673 148.818 10.806C148.687 11.2353 148.622 11.6833 148.622 12.15C148.622 12.6447 148.678 13.116 148.79 13.564C148.911 14.0027 149.098 14.39 149.35 14.726C149.602 15.0527 149.924 15.314 150.316 15.51C150.708 15.6967 151.175 15.79 151.716 15.79C152.155 15.79 152.57 15.7013 152.962 15.524C153.363 15.3373 153.671 15.0527 153.886 14.67H153.914V15.622C153.923 16.1353 153.797 16.56 153.536 16.896C153.284 17.232 152.878 17.4 152.318 17.4C151.963 17.4 151.651 17.3253 151.38 17.176C151.109 17.036 150.927 16.7793 150.834 16.406H148.86C148.888 16.8167 149 17.1667 149.196 17.456C149.401 17.7547 149.653 17.9973 149.952 18.184C150.26 18.3707 150.596 18.506 150.96 18.59C151.333 18.6833 151.697 18.73 152.052 18.73C152.883 18.73 153.545 18.618 154.04 18.394C154.535 18.17 154.913 17.8947 155.174 17.568C155.435 17.2507 155.603 16.9053 155.678 16.532C155.762 16.1587 155.804 15.8273 155.804 15.538ZM158.944 13.648H157.054C157.073 14.1333 157.18 14.5393 157.376 14.866C157.582 15.1833 157.838 15.44 158.146 15.636C158.464 15.832 158.823 15.972 159.224 16.056C159.626 16.14 160.036 16.182 160.456 16.182C160.867 16.182 161.268 16.14 161.66 16.056C162.062 15.9813 162.416 15.846 162.724 15.65C163.032 15.454 163.28 15.1973 163.466 14.88C163.662 14.5533 163.76 14.152 163.76 13.676C163.76 13.34 163.695 13.06 163.564 12.836C163.434 12.6027 163.261 12.4113 163.046 12.262C162.832 12.1033 162.584 11.9773 162.304 11.884C162.034 11.7907 161.754 11.7113 161.464 11.646C161.184 11.5807 160.909 11.52 160.638 11.464C160.368 11.408 160.125 11.3473 159.91 11.282C159.705 11.2073 159.537 11.114 159.406 11.002C159.276 10.89 159.21 10.7453 159.21 10.568C159.21 10.4187 159.248 10.302 159.322 10.218C159.397 10.1247 159.486 10.0547 159.588 10.008C159.7 9.96133 159.822 9.93333 159.952 9.924C160.083 9.90533 160.204 9.896 160.316 9.896C160.671 9.896 160.979 9.966 161.24 10.106C161.502 10.2367 161.646 10.4933 161.674 10.876H163.564C163.527 10.428 163.41 10.0593 163.214 9.77C163.028 9.47133 162.79 9.23333 162.5 9.056C162.211 8.87867 161.88 8.75267 161.506 8.678C161.142 8.60333 160.764 8.566 160.372 8.566C159.98 8.566 159.598 8.60333 159.224 8.678C158.851 8.74333 158.515 8.86467 158.216 9.042C157.918 9.21 157.675 9.44333 157.488 9.742C157.311 10.0407 157.222 10.4233 157.222 10.89C157.222 11.2073 157.288 11.478 157.418 11.702C157.549 11.9167 157.722 12.0987 157.936 12.248C158.151 12.388 158.394 12.5047 158.664 12.598C158.944 12.682 159.229 12.7567 159.518 12.822C160.228 12.9713 160.778 13.1207 161.17 13.27C161.572 13.4193 161.772 13.6433 161.772 13.942C161.772 14.1193 161.73 14.2687 161.646 14.39C161.562 14.502 161.455 14.5953 161.324 14.67C161.203 14.7353 161.063 14.7867 160.904 14.824C160.755 14.852 160.61 14.866 160.47 14.866C160.274 14.866 160.083 14.8427 159.896 14.796C159.719 14.7493 159.56 14.6793 159.42 14.586C159.28 14.4833 159.164 14.3573 159.07 14.208C158.986 14.0493 158.944 13.8627 158.944 13.648ZM184.742 6.004V16H186.072V11.422H190.664V10.302H186.072V7.124H191.308V6.004H184.742ZM193.845 7.46V6.004H192.655V7.46H193.845ZM192.655 8.762V16H193.845V8.762H192.655ZM195.759 6.004V16H196.949V6.004H195.759ZM203.818 11.688H199.66C199.679 11.408 199.74 11.1467 199.842 10.904C199.945 10.652 200.085 10.4327 200.262 10.246C200.44 10.0593 200.65 9.91467 200.892 9.812C201.144 9.7 201.424 9.644 201.732 9.644C202.031 9.644 202.302 9.7 202.544 9.812C202.796 9.91467 203.011 10.0593 203.188 10.246C203.375 10.4233 203.52 10.638 203.622 10.89C203.734 11.142 203.8 11.408 203.818 11.688ZM204.966 13.704H203.79C203.688 14.18 203.473 14.5347 203.146 14.768C202.829 15.0013 202.418 15.118 201.914 15.118C201.522 15.118 201.182 15.0527 200.892 14.922C200.603 14.7913 200.365 14.6187 200.178 14.404C199.992 14.18 199.856 13.928 199.772 13.648C199.688 13.3587 199.651 13.0553 199.66 12.738H205.078C205.097 12.2993 205.055 11.8373 204.952 11.352C204.859 10.8667 204.682 10.4187 204.42 10.008C204.168 9.59733 203.828 9.26133 203.398 9C202.978 8.72933 202.446 8.594 201.802 8.594C201.308 8.594 200.85 8.68733 200.43 8.874C200.02 9.06067 199.66 9.322 199.352 9.658C199.054 9.994 198.82 10.3907 198.652 10.848C198.484 11.3053 198.4 11.8093 198.4 12.36C198.419 12.9107 198.498 13.4193 198.638 13.886C198.788 14.3527 199.007 14.754 199.296 15.09C199.586 15.426 199.94 15.6873 200.36 15.874C200.79 16.0607 201.294 16.154 201.872 16.154C202.694 16.154 203.375 15.9487 203.916 15.538C204.458 15.1273 204.808 14.516 204.966 13.704ZM225.99 6.004V16H232.934V14.88H227.32V11.422H232.514V10.302H227.32V7.124H232.892V6.004H225.99ZM235.221 12.444C235.221 12.0893 235.258 11.744 235.333 11.408C235.408 11.072 235.529 10.7733 235.697 10.512C235.865 10.2507 236.089 10.0407 236.369 9.882C236.649 9.72333 236.99 9.644 237.391 9.644C237.802 9.644 238.152 9.72333 238.441 9.882C238.73 10.0313 238.964 10.232 239.141 10.484C239.328 10.736 239.463 11.03 239.547 11.366C239.631 11.6927 239.673 12.0333 239.673 12.388C239.673 12.724 239.631 13.0553 239.547 13.382C239.472 13.7087 239.346 14.0027 239.169 14.264C238.992 14.516 238.763 14.7213 238.483 14.88C238.203 15.0387 237.862 15.118 237.461 15.118C237.078 15.118 236.742 15.0433 236.453 14.894C236.173 14.7447 235.94 14.544 235.753 14.292C235.576 14.04 235.44 13.7553 235.347 13.438C235.263 13.1113 235.221 12.78 235.221 12.444ZM240.821 16V6.004H239.631V9.728H239.603C239.472 9.51333 239.309 9.336 239.113 9.196C238.926 9.04667 238.726 8.93 238.511 8.846C238.296 8.75267 238.082 8.68733 237.867 8.65C237.652 8.61267 237.452 8.594 237.265 8.594C236.714 8.594 236.229 8.69667 235.809 8.902C235.398 9.098 235.053 9.36867 234.773 9.714C234.502 10.05 234.297 10.4467 234.157 10.904C234.026 11.3613 233.961 11.8467 233.961 12.36C233.961 12.8733 234.031 13.3587 234.171 13.816C234.311 14.2733 234.516 14.6747 234.787 15.02C235.067 15.3653 235.412 15.6407 235.823 15.846C236.243 16.0513 236.733 16.154 237.293 16.154C237.797 16.154 238.259 16.0653 238.679 15.888C239.099 15.7107 239.407 15.4213 239.603 15.02H239.631V16H240.821ZM243.912 7.46V6.004H242.722V7.46H243.912ZM242.722 8.762V16H243.912V8.762H242.722ZM247.407 8.762V6.592H246.217V8.762H244.985V9.812H246.217V14.418C246.217 14.754 246.25 15.0247 246.315 15.23C246.381 15.4353 246.479 15.594 246.609 15.706C246.749 15.818 246.927 15.8973 247.141 15.944C247.365 15.9813 247.631 16 247.939 16H248.849V14.95H248.303C248.117 14.95 247.963 14.9453 247.841 14.936C247.729 14.9173 247.641 14.8847 247.575 14.838C247.51 14.7913 247.463 14.726 247.435 14.642C247.417 14.558 247.407 14.446 247.407 14.306V9.812H248.849V8.762H247.407ZM273.784 16L277.34 6.004H275.954L273.07 14.67H273.042L270.186 6.004H268.758L272.272 16H273.784ZM279.226 7.46V6.004H278.036V7.46H279.226ZM278.036 8.762V16H279.226V8.762H278.036ZM286.096 11.688H281.938C281.956 11.408 282.017 11.1467 282.12 10.904C282.222 10.652 282.362 10.4327 282.54 10.246C282.717 10.0593 282.927 9.91467 283.17 9.812C283.422 9.7 283.702 9.644 284.01 9.644C284.308 9.644 284.579 9.7 284.822 9.812C285.074 9.91467 285.288 10.0593 285.466 10.246C285.652 10.4233 285.797 10.638 285.9 10.89C286.012 11.142 286.077 11.408 286.096 11.688ZM287.244 13.704H286.068C285.965 14.18 285.75 14.5347 285.424 14.768C285.106 15.0013 284.696 15.118 284.192 15.118C283.8 15.118 283.459 15.0527 283.17 14.922C282.88 14.7913 282.642 14.6187 282.456 14.404C282.269 14.18 282.134 13.928 282.05 13.648C281.966 13.3587 281.928 13.0553 281.938 12.738H287.356C287.374 12.2993 287.332 11.8373 287.23 11.352C287.136 10.8667 286.959 10.4187 286.698 10.008C286.446 9.59733 286.105 9.26133 285.676 9C285.256 8.72933 284.724 8.594 284.08 8.594C283.585 8.594 283.128 8.68733 282.708 8.874C282.297 9.06067 281.938 9.322 281.63 9.658C281.331 9.994 281.098 10.3907 280.93 10.848C280.762 11.3053 280.678 11.8093 280.678 12.36C280.696 12.9107 280.776 13.4193 280.916 13.886C281.065 14.3527 281.284 14.754 281.574 15.09C281.863 15.426 282.218 15.6873 282.638 15.874C283.067 16.0607 283.571 16.154 284.15 16.154C284.971 16.154 285.652 15.9487 286.194 15.538C286.735 15.1273 287.085 14.516 287.244 13.704ZM295.757 16L298.067 8.762H296.835L295.211 14.684H295.183L293.671 8.762H292.369L290.913 14.684H290.885L289.247 8.762H287.931L290.255 16H291.543L292.999 10.246H293.027L294.497 16H295.757ZM318.877 6.004V16H320.207V11.422H325.471V16H326.801V6.004H325.471V10.302H320.207V6.004H318.877ZM330.045 7.46V6.004H328.855V7.46H330.045ZM328.855 8.762V16H330.045V8.762H328.855ZM332.616 13.718H331.426C331.445 14.166 331.538 14.5487 331.706 14.866C331.874 15.174 332.098 15.426 332.378 15.622C332.658 15.8087 332.98 15.944 333.344 16.028C333.708 16.112 334.091 16.154 334.492 16.154C334.856 16.154 335.22 16.1167 335.584 16.042C335.958 15.9767 336.289 15.8553 336.578 15.678C336.877 15.5007 337.115 15.2673 337.292 14.978C337.479 14.6887 337.572 14.3247 337.572 13.886C337.572 13.5407 337.502 13.2513 337.362 13.018C337.232 12.7847 337.054 12.5933 336.83 12.444C336.616 12.2853 336.364 12.1593 336.074 12.066C335.794 11.9727 335.505 11.8933 335.206 11.828C334.926 11.7627 334.646 11.702 334.366 11.646C334.086 11.5807 333.834 11.506 333.61 11.422C333.386 11.3287 333.2 11.2167 333.05 11.086C332.91 10.946 332.84 10.7733 332.84 10.568C332.84 10.3813 332.887 10.232 332.98 10.12C333.074 9.99867 333.195 9.90533 333.344 9.84C333.494 9.76533 333.657 9.714 333.834 9.686C334.021 9.658 334.203 9.644 334.38 9.644C334.576 9.644 334.768 9.66733 334.954 9.714C335.15 9.75133 335.328 9.81667 335.486 9.91C335.645 10.0033 335.776 10.1293 335.878 10.288C335.981 10.4373 336.042 10.6287 336.06 10.862H337.25C337.222 10.4233 337.129 10.0593 336.97 9.77C336.812 9.47133 336.597 9.238 336.326 9.07C336.065 8.89267 335.762 8.77133 335.416 8.706C335.071 8.63133 334.693 8.594 334.282 8.594C333.965 8.594 333.643 8.636 333.316 8.72C332.999 8.79467 332.71 8.916 332.448 9.084C332.196 9.24267 331.986 9.45267 331.818 9.714C331.66 9.97533 331.58 10.288 331.58 10.652C331.58 11.1187 331.697 11.4827 331.93 11.744C332.164 12.0053 332.453 12.2107 332.798 12.36C333.153 12.5 333.536 12.612 333.946 12.696C334.357 12.7707 334.735 12.8593 335.08 12.962C335.435 13.0553 335.729 13.1813 335.962 13.34C336.196 13.4987 336.312 13.732 336.312 14.04C336.312 14.264 336.256 14.4507 336.144 14.6C336.032 14.74 335.888 14.8473 335.71 14.922C335.542 14.9967 335.356 15.048 335.15 15.076C334.945 15.104 334.749 15.118 334.562 15.118C334.32 15.118 334.082 15.0947 333.848 15.048C333.624 15.0013 333.419 14.9267 333.232 14.824C333.055 14.712 332.91 14.5673 332.798 14.39C332.686 14.2033 332.626 13.9793 332.616 13.718ZM340.54 8.762V6.592H339.35V8.762H338.118V9.812H339.35V14.418C339.35 14.754 339.383 15.0247 339.448 15.23C339.514 15.4353 339.612 15.594 339.742 15.706C339.882 15.818 340.06 15.8973 340.274 15.944C340.498 15.9813 340.764 16 341.072 16H341.982V14.95H341.436C341.25 14.95 341.096 14.9453 340.974 14.936C340.862 14.9173 340.774 14.8847 340.708 14.838C340.643 14.7913 340.596 14.726 340.568 14.642C340.55 14.558 340.54 14.446 340.54 14.306V9.812H341.982V8.762H340.54ZM344.172 12.388C344.172 11.9493 344.228 11.562 344.34 11.226C344.462 10.8807 344.625 10.5913 344.83 10.358C345.036 10.1247 345.274 9.94733 345.544 9.826C345.824 9.70467 346.118 9.644 346.426 9.644C346.734 9.644 347.024 9.70467 347.294 9.826C347.574 9.94733 347.817 10.1247 348.022 10.358C348.228 10.5913 348.386 10.8807 348.498 11.226C348.62 11.562 348.68 11.9493 348.68 12.388C348.68 12.8267 348.62 13.2187 348.498 13.564C348.386 13.9 348.228 14.1847 348.022 14.418C347.817 14.642 347.574 14.8147 347.294 14.936C347.024 15.0573 346.734 15.118 346.426 15.118C346.118 15.118 345.824 15.0573 345.544 14.936C345.274 14.8147 345.036 14.642 344.83 14.418C344.625 14.1847 344.462 13.9 344.34 13.564C344.228 13.2187 344.172 12.8267 344.172 12.388ZM342.912 12.388C342.912 12.92 342.987 13.4147 343.136 13.872C343.286 14.3293 343.51 14.7307 343.808 15.076C344.107 15.412 344.476 15.678 344.914 15.874C345.353 16.0607 345.857 16.154 346.426 16.154C347.005 16.154 347.509 16.0607 347.938 15.874C348.377 15.678 348.746 15.412 349.044 15.076C349.343 14.7307 349.567 14.3293 349.716 13.872C349.866 13.4147 349.94 12.92 349.94 12.388C349.94 11.856 349.866 11.3613 349.716 10.904C349.567 10.4373 349.343 10.036 349.044 9.7C348.746 9.35467 348.377 9.084 347.938 8.888C347.509 8.692 347.005 8.594 346.426 8.594C345.857 8.594 345.353 8.692 344.914 8.888C344.476 9.084 344.107 9.35467 343.808 9.7C343.51 10.036 343.286 10.4373 343.136 10.904C342.987 11.3613 342.912 11.856 342.912 12.388ZM351.301 8.762V16H352.491V12.78C352.491 12.3133 352.538 11.9027 352.631 11.548C352.725 11.184 352.874 10.876 353.079 10.624C353.285 10.372 353.555 10.1807 353.891 10.05C354.227 9.91933 354.633 9.854 355.109 9.854V8.594C354.465 8.57533 353.933 8.706 353.513 8.986C353.093 9.266 352.739 9.7 352.449 10.288H352.421V8.762H351.301ZM358.847 16.966C358.707 17.3207 358.567 17.6193 358.427 17.862C358.297 18.1047 358.147 18.3007 357.979 18.45C357.821 18.6087 357.639 18.7207 357.433 18.786C357.237 18.8607 357.009 18.898 356.747 18.898C356.607 18.898 356.467 18.8887 356.327 18.87C356.187 18.8513 356.052 18.8187 355.921 18.772V17.68C356.024 17.7267 356.141 17.764 356.271 17.792C356.411 17.8293 356.528 17.848 356.621 17.848C356.864 17.848 357.065 17.7873 357.223 17.666C357.391 17.554 357.517 17.3907 357.601 17.176L358.091 15.958L355.221 8.762H356.565L358.679 14.684H358.707L360.737 8.762H361.997L358.847 16.966ZM384.014 10.302V7.124H386.674C386.963 7.124 387.234 7.14267 387.486 7.18C387.747 7.208 387.976 7.278 388.172 7.39C388.368 7.502 388.522 7.66067 388.634 7.866C388.746 8.07133 388.802 8.35133 388.802 8.706C388.802 9.238 388.634 9.63933 388.298 9.91C387.971 10.1713 387.43 10.302 386.674 10.302H384.014ZM382.684 6.004V16H387.514C388.008 16 388.442 15.9207 388.816 15.762C389.198 15.594 389.516 15.3793 389.768 15.118C390.029 14.8473 390.225 14.5393 390.356 14.194C390.486 13.8487 390.552 13.494 390.552 13.13C390.552 12.514 390.388 11.9913 390.062 11.562C389.735 11.1327 389.264 10.8527 388.648 10.722V10.694C389.124 10.5073 389.488 10.2227 389.74 9.84C390.001 9.448 390.132 8.986 390.132 8.454C390.132 7.95 390.015 7.52533 389.782 7.18C389.558 6.83467 389.282 6.564 388.956 6.368C388.806 6.27467 388.624 6.20467 388.41 6.158C388.204 6.11133 387.98 6.07867 387.738 6.06C387.495 6.032 387.248 6.018 386.996 6.018C386.753 6.00867 386.524 6.004 386.31 6.004H382.684ZM384.014 14.88V11.422H387.052C387.332 11.422 387.602 11.45 387.864 11.506C388.125 11.5527 388.354 11.6413 388.55 11.772C388.755 11.8933 388.918 12.0613 389.04 12.276C389.161 12.4907 389.222 12.7613 389.222 13.088C389.222 13.648 389.054 14.0867 388.718 14.404C388.391 14.7213 387.934 14.88 387.346 14.88H384.014ZM392.94 12.388C392.94 11.9493 392.996 11.562 393.108 11.226C393.229 10.8807 393.392 10.5913 393.598 10.358C393.803 10.1247 394.041 9.94733 394.312 9.826C394.592 9.70467 394.886 9.644 395.194 9.644C395.502 9.644 395.791 9.70467 396.062 9.826C396.342 9.94733 396.584 10.1247 396.79 10.358C396.995 10.5913 397.154 10.8807 397.266 11.226C397.387 11.562 397.448 11.9493 397.448 12.388C397.448 12.8267 397.387 13.2187 397.266 13.564C397.154 13.9 396.995 14.1847 396.79 14.418C396.584 14.642 396.342 14.8147 396.062 14.936C395.791 15.0573 395.502 15.118 395.194 15.118C394.886 15.118 394.592 15.0573 394.312 14.936C394.041 14.8147 393.803 14.642 393.598 14.418C393.392 14.1847 393.229 13.9 393.108 13.564C392.996 13.2187 392.94 12.8267 392.94 12.388ZM391.68 12.388C391.68 12.92 391.754 13.4147 391.904 13.872C392.053 14.3293 392.277 14.7307 392.576 15.076C392.874 15.412 393.243 15.678 393.682 15.874C394.12 16.0607 394.624 16.154 395.194 16.154C395.772 16.154 396.276 16.0607 396.706 15.874C397.144 15.678 397.513 15.412 397.812 15.076C398.11 14.7307 398.334 14.3293 398.484 13.872C398.633 13.4147 398.708 12.92 398.708 12.388C398.708 11.856 398.633 11.3613 398.484 10.904C398.334 10.4373 398.11 10.036 397.812 9.7C397.513 9.35467 397.144 9.084 396.706 8.888C396.276 8.692 395.772 8.594 395.194 8.594C394.624 8.594 394.12 8.692 393.682 8.888C393.243 9.084 392.874 9.35467 392.576 9.7C392.277 10.036 392.053 10.4373 391.904 10.904C391.754 11.3613 391.68 11.856 391.68 12.388ZM400.979 12.388C400.979 11.9493 401.035 11.562 401.147 11.226C401.268 10.8807 401.432 10.5913 401.637 10.358C401.842 10.1247 402.08 9.94733 402.351 9.826C402.631 9.70467 402.925 9.644 403.233 9.644C403.541 9.644 403.83 9.70467 404.101 9.826C404.381 9.94733 404.624 10.1247 404.829 10.358C405.034 10.5913 405.193 10.8807 405.305 11.226C405.426 11.562 405.487 11.9493 405.487 12.388C405.487 12.8267 405.426 13.2187 405.305 13.564C405.193 13.9 405.034 14.1847 404.829 14.418C404.624 14.642 404.381 14.8147 404.101 14.936C403.83 15.0573 403.541 15.118 403.233 15.118C402.925 15.118 402.631 15.0573 402.351 14.936C402.08 14.8147 401.842 14.642 401.637 14.418C401.432 14.1847 401.268 13.9 401.147 13.564C401.035 13.2187 400.979 12.8267 400.979 12.388ZM399.719 12.388C399.719 12.92 399.794 13.4147 399.943 13.872C400.092 14.3293 400.316 14.7307 400.615 15.076C400.914 15.412 401.282 15.678 401.721 15.874C402.16 16.0607 402.664 16.154 403.233 16.154C403.812 16.154 404.316 16.0607 404.745 15.874C405.184 15.678 405.552 15.412 405.851 15.076C406.15 14.7307 406.374 14.3293 406.523 13.872C406.672 13.4147 406.747 12.92 406.747 12.388C406.747 11.856 406.672 11.3613 406.523 10.904C406.374 10.4373 406.15 10.036 405.851 9.7C405.552 9.35467 405.184 9.084 404.745 8.888C404.316 8.692 403.812 8.594 403.233 8.594C402.664 8.594 402.16 8.692 401.721 8.888C401.282 9.084 400.914 9.35467 400.615 9.7C400.316 10.036 400.092 10.4373 399.943 10.904C399.794 11.3613 399.719 11.856 399.719 12.388ZM408.22 6.004V16H409.41V13.256L410.53 12.22L413.008 16H414.52L411.44 11.394L414.31 8.762H412.714L409.41 11.926V6.004H408.22ZM415.41 8.762V16H416.6V11.492C416.6 11.352 416.632 11.1793 416.698 10.974C416.772 10.7593 416.884 10.554 417.034 10.358C417.192 10.162 417.393 9.994 417.636 9.854C417.888 9.714 418.186 9.644 418.532 9.644C418.802 9.644 419.022 9.686 419.19 9.77C419.367 9.84467 419.507 9.95667 419.61 10.106C419.712 10.246 419.782 10.414 419.82 10.61C419.866 10.806 419.89 11.0207 419.89 11.254V16H421.08V11.492C421.08 10.932 421.248 10.484 421.584 10.148C421.92 9.812 422.382 9.644 422.97 9.644C423.259 9.644 423.492 9.686 423.67 9.77C423.856 9.854 424.001 9.97067 424.104 10.12C424.206 10.26 424.276 10.428 424.314 10.624C424.351 10.82 424.37 11.03 424.37 11.254V16H425.56V10.694C425.56 10.3207 425.499 10.0033 425.378 9.742C425.266 9.47133 425.102 9.252 424.888 9.084C424.682 8.916 424.43 8.79467 424.132 8.72C423.842 8.636 423.516 8.594 423.152 8.594C422.676 8.594 422.237 8.70133 421.836 8.916C421.444 9.13067 421.126 9.434 420.884 9.826C420.734 9.378 420.478 9.06067 420.114 8.874C419.75 8.68733 419.344 8.594 418.896 8.594C417.878 8.594 417.099 9.00467 416.558 9.826H416.53V8.762H415.41ZM433.757 15.972C433.552 16.0933 433.267 16.154 432.903 16.154C432.595 16.154 432.348 16.07 432.161 15.902C431.984 15.7247 431.895 15.44 431.895 15.048C431.569 15.44 431.186 15.7247 430.747 15.902C430.318 16.07 429.851 16.154 429.347 16.154C429.021 16.154 428.708 16.1167 428.409 16.042C428.12 15.9673 427.868 15.8507 427.653 15.692C427.439 15.5333 427.266 15.328 427.135 15.076C427.014 14.8147 426.953 14.502 426.953 14.138C426.953 13.7273 427.023 13.3913 427.163 13.13C427.303 12.8687 427.485 12.6587 427.709 12.5C427.943 12.332 428.204 12.206 428.493 12.122C428.792 12.038 429.095 11.968 429.403 11.912C429.73 11.8467 430.038 11.8 430.327 11.772C430.626 11.7347 430.887 11.688 431.111 11.632C431.335 11.5667 431.513 11.478 431.643 11.366C431.774 11.2447 431.839 11.072 431.839 10.848C431.839 10.5867 431.788 10.3767 431.685 10.218C431.592 10.0593 431.466 9.938 431.307 9.854C431.158 9.77 430.985 9.714 430.789 9.686C430.603 9.658 430.416 9.644 430.229 9.644C429.725 9.644 429.305 9.742 428.969 9.938C428.633 10.1247 428.451 10.484 428.423 11.016H427.233C427.252 10.568 427.345 10.19 427.513 9.882C427.681 9.574 427.905 9.32667 428.185 9.14C428.465 8.944 428.783 8.804 429.137 8.72C429.501 8.636 429.889 8.594 430.299 8.594C430.626 8.594 430.948 8.61733 431.265 8.664C431.592 8.71067 431.886 8.80867 432.147 8.958C432.409 9.098 432.619 9.29867 432.777 9.56C432.936 9.82133 433.015 10.162 433.015 10.582V14.306C433.015 14.586 433.029 14.7913 433.057 14.922C433.095 15.0527 433.207 15.118 433.393 15.118C433.496 15.118 433.617 15.0947 433.757 15.048V15.972ZM431.825 12.262C431.676 12.374 431.48 12.458 431.237 12.514C430.995 12.5607 430.738 12.6027 430.467 12.64C430.206 12.668 429.94 12.7053 429.669 12.752C429.399 12.7893 429.156 12.8547 428.941 12.948C428.727 13.0413 428.549 13.1767 428.409 13.354C428.279 13.522 428.213 13.7553 428.213 14.054C428.213 14.25 428.251 14.418 428.325 14.558C428.409 14.6887 428.512 14.796 428.633 14.88C428.764 14.964 428.913 15.0247 429.081 15.062C429.249 15.0993 429.427 15.118 429.613 15.118C430.005 15.118 430.341 15.0667 430.621 14.964C430.901 14.852 431.13 14.7167 431.307 14.558C431.485 14.39 431.615 14.2127 431.699 14.026C431.783 13.83 431.825 13.648 431.825 13.48V12.262ZM434.823 8.762V16H436.013V12.78C436.013 12.3133 436.059 11.9027 436.153 11.548C436.246 11.184 436.395 10.876 436.601 10.624C436.806 10.372 437.077 10.1807 437.413 10.05C437.749 9.91933 438.155 9.854 438.631 9.854V8.594C437.987 8.57533 437.455 8.706 437.035 8.986C436.615 9.266 436.26 9.7 435.971 10.288H435.943V8.762H434.823ZM439.597 6.004V16H440.787V13.256L441.907 12.22L444.385 16H445.897L442.817 11.394L445.687 8.762H444.091L440.787 11.926V6.004H439.597ZM447.515 13.718H446.325C446.343 14.166 446.437 14.5487 446.605 14.866C446.773 15.174 446.997 15.426 447.277 15.622C447.557 15.8087 447.879 15.944 448.243 16.028C448.607 16.112 448.989 16.154 449.391 16.154C449.755 16.154 450.119 16.1167 450.483 16.042C450.856 15.9767 451.187 15.8553 451.477 15.678C451.775 15.5007 452.013 15.2673 452.191 14.978C452.377 14.6887 452.471 14.3247 452.471 13.886C452.471 13.5407 452.401 13.2513 452.261 13.018C452.13 12.7847 451.953 12.5933 451.729 12.444C451.514 12.2853 451.262 12.1593 450.973 12.066C450.693 11.9727 450.403 11.8933 450.105 11.828C449.825 11.7627 449.545 11.702 449.265 11.646C448.985 11.5807 448.733 11.506 448.509 11.422C448.285 11.3287 448.098 11.2167 447.949 11.086C447.809 10.946 447.739 10.7733 447.739 10.568C447.739 10.3813 447.785 10.232 447.879 10.12C447.972 9.99867 448.093 9.90533 448.243 9.84C448.392 9.76533 448.555 9.714 448.733 9.686C448.919 9.658 449.101 9.644 449.279 9.644C449.475 9.644 449.666 9.66733 449.853 9.714C450.049 9.75133 450.226 9.81667 450.385 9.91C450.543 10.0033 450.674 10.1293 450.777 10.288C450.879 10.4373 450.94 10.6287 450.959 10.862H452.149C452.121 10.4233 452.027 10.0593 451.869 9.77C451.71 9.47133 451.495 9.238 451.225 9.07C450.963 8.89267 450.66 8.77133 450.315 8.706C449.969 8.63133 449.591 8.594 449.181 8.594C448.863 8.594 448.541 8.636 448.215 8.72C447.897 8.79467 447.608 8.916 447.347 9.084C447.095 9.24267 446.885 9.45267 446.717 9.714C446.558 9.97533 446.479 10.288 446.479 10.652C446.479 11.1187 446.595 11.4827 446.829 11.744C447.062 12.0053 447.351 12.2107 447.697 12.36C448.051 12.5 448.434 12.612 448.845 12.696C449.255 12.7707 449.633 12.8593 449.979 12.962C450.333 13.0553 450.627 13.1813 450.861 13.34C451.094 13.4987 451.211 13.732 451.211 14.04C451.211 14.264 451.155 14.4507 451.043 14.6C450.931 14.74 450.786 14.8473 450.609 14.922C450.441 14.9967 450.254 15.048 450.049 15.076C449.843 15.104 449.647 15.118 449.461 15.118C449.218 15.118 448.98 15.0947 448.747 15.048C448.523 15.0013 448.317 14.9267 448.131 14.824C447.953 14.712 447.809 14.5673 447.697 14.39C447.585 14.2033 447.524 13.9793 447.515 13.718ZM474.795 10.792V7.124H477.399C478.155 7.124 478.706 7.28267 479.051 7.6C479.406 7.908 479.583 8.36067 479.583 8.958C479.583 9.55533 479.406 10.0127 479.051 10.33C478.706 10.6473 478.155 10.8013 477.399 10.792H474.795ZM473.465 6.004V16H474.795V11.912H477.847C478.855 11.9213 479.616 11.6647 480.129 11.142C480.652 10.6193 480.913 9.89133 480.913 8.958C480.913 8.02467 480.652 7.30133 480.129 6.788C479.616 6.26533 478.855 6.004 477.847 6.004H473.465ZM487.373 11.688H483.215C483.234 11.408 483.295 11.1467 483.397 10.904C483.5 10.652 483.64 10.4327 483.817 10.246C483.995 10.0593 484.205 9.91467 484.447 9.812C484.699 9.7 484.979 9.644 485.287 9.644C485.586 9.644 485.857 9.7 486.099 9.812C486.351 9.91467 486.566 10.0593 486.743 10.246C486.93 10.4233 487.075 10.638 487.177 10.89C487.289 11.142 487.355 11.408 487.373 11.688ZM488.521 13.704H487.345C487.243 14.18 487.028 14.5347 486.701 14.768C486.384 15.0013 485.973 15.118 485.469 15.118C485.077 15.118 484.737 15.0527 484.447 14.922C484.158 14.7913 483.92 14.6187 483.733 14.404C483.547 14.18 483.411 13.928 483.327 13.648C483.243 13.3587 483.206 13.0553 483.215 12.738H488.633C488.652 12.2993 488.61 11.8373 488.507 11.352C488.414 10.8667 488.237 10.4187 487.975 10.008C487.723 9.59733 487.383 9.26133 486.953 9C486.533 8.72933 486.001 8.594 485.357 8.594C484.863 8.594 484.405 8.68733 483.985 8.874C483.575 9.06067 483.215 9.322 482.907 9.658C482.609 9.994 482.375 10.3907 482.207 10.848C482.039 11.3053 481.955 11.8093 481.955 12.36C481.974 12.9107 482.053 13.4193 482.193 13.886C482.343 14.3527 482.562 14.754 482.851 15.09C483.141 15.426 483.495 15.6873 483.915 15.874C484.345 16.0607 484.849 16.154 485.427 16.154C486.249 16.154 486.93 15.9487 487.471 15.538C488.013 15.1273 488.363 14.516 488.521 13.704ZM490.735 12.388C490.735 11.9493 490.791 11.562 490.903 11.226C491.024 10.8807 491.187 10.5913 491.393 10.358C491.598 10.1247 491.836 9.94733 492.107 9.826C492.387 9.70467 492.681 9.644 492.989 9.644C493.297 9.644 493.586 9.70467 493.857 9.826C494.137 9.94733 494.379 10.1247 494.585 10.358C494.79 10.5913 494.949 10.8807 495.061 11.226C495.182 11.562 495.243 11.9493 495.243 12.388C495.243 12.8267 495.182 13.2187 495.061 13.564C494.949 13.9 494.79 14.1847 494.585 14.418C494.379 14.642 494.137 14.8147 493.857 14.936C493.586 15.0573 493.297 15.118 492.989 15.118C492.681 15.118 492.387 15.0573 492.107 14.936C491.836 14.8147 491.598 14.642 491.393 14.418C491.187 14.1847 491.024 13.9 490.903 13.564C490.791 13.2187 490.735 12.8267 490.735 12.388ZM489.475 12.388C489.475 12.92 489.549 13.4147 489.699 13.872C489.848 14.3293 490.072 14.7307 490.371 15.076C490.669 15.412 491.038 15.678 491.477 15.874C491.915 16.0607 492.419 16.154 492.989 16.154C493.567 16.154 494.071 16.0607 494.501 15.874C494.939 15.678 495.308 15.412 495.607 15.076C495.905 14.7307 496.129 14.3293 496.279 13.872C496.428 13.4147 496.503 12.92 496.503 12.388C496.503 11.856 496.428 11.3613 496.279 10.904C496.129 10.4373 495.905 10.036 495.607 9.7C495.308 9.35467 494.939 9.084 494.501 8.888C494.071 8.692 493.567 8.594 492.989 8.594C492.419 8.594 491.915 8.692 491.477 8.888C491.038 9.084 490.669 9.35467 490.371 9.7C490.072 10.036 489.848 10.4373 489.699 10.904C489.549 11.3613 489.475 11.856 489.475 12.388ZM497.948 8.762V18.758H499.138V15.034H499.166C499.296 15.2487 499.455 15.4307 499.642 15.58C499.838 15.72 500.043 15.832 500.258 15.916C500.472 16 500.687 16.0607 500.902 16.098C501.126 16.1353 501.326 16.154 501.504 16.154C502.054 16.154 502.535 16.056 502.946 15.86C503.366 15.664 503.711 15.398 503.982 15.062C504.262 14.7167 504.467 14.3153 504.598 13.858C504.738 13.4007 504.808 12.9153 504.808 12.402C504.808 11.8887 504.738 11.4033 504.598 10.946C504.458 10.4887 504.248 10.0873 503.968 9.742C503.697 9.38733 503.352 9.10733 502.932 8.902C502.521 8.69667 502.036 8.594 501.476 8.594C500.972 8.594 500.51 8.68733 500.09 8.874C499.67 9.05133 499.362 9.34067 499.166 9.742H499.138V8.762H497.948ZM503.548 12.318C503.548 12.6727 503.51 13.018 503.436 13.354C503.361 13.69 503.24 13.9887 503.072 14.25C502.904 14.5113 502.68 14.7213 502.4 14.88C502.129 15.0387 501.788 15.118 501.378 15.118C500.967 15.118 500.617 15.0433 500.328 14.894C500.038 14.7353 499.8 14.53 499.614 14.278C499.436 14.026 499.306 13.7367 499.222 13.41C499.138 13.074 499.096 12.7287 499.096 12.374C499.096 12.038 499.133 11.7067 499.208 11.38C499.292 11.0533 499.422 10.764 499.6 10.512C499.777 10.2507 500.006 10.0407 500.286 9.882C500.566 9.72333 500.906 9.644 501.308 9.644C501.69 9.644 502.022 9.71867 502.302 9.868C502.591 10.0173 502.824 10.218 503.002 10.47C503.188 10.722 503.324 11.0113 503.408 11.338C503.501 11.6553 503.548 11.982 503.548 12.318ZM506.275 6.004V16H507.465V6.004H506.275ZM514.334 11.688H510.176C510.195 11.408 510.255 11.1467 510.358 10.904C510.461 10.652 510.601 10.4327 510.778 10.246C510.955 10.0593 511.165 9.91467 511.408 9.812C511.66 9.7 511.94 9.644 512.248 9.644C512.547 9.644 512.817 9.7 513.06 9.812C513.312 9.91467 513.527 10.0593 513.704 10.246C513.891 10.4233 514.035 10.638 514.138 10.89C514.25 11.142 514.315 11.408 514.334 11.688ZM515.482 13.704H514.306C514.203 14.18 513.989 14.5347 513.662 14.768C513.345 15.0013 512.934 15.118 512.43 15.118C512.038 15.118 511.697 15.0527 511.408 14.922C511.119 14.7913 510.881 14.6187 510.694 14.404C510.507 14.18 510.372 13.928 510.288 13.648C510.204 13.3587 510.167 13.0553 510.176 12.738H515.594C515.613 12.2993 515.571 11.8373 515.468 11.352C515.375 10.8667 515.197 10.4187 514.936 10.008C514.684 9.59733 514.343 9.26133 513.914 9C513.494 8.72933 512.962 8.594 512.318 8.594C511.823 8.594 511.366 8.68733 510.946 8.874C510.535 9.06067 510.176 9.322 509.868 9.658C509.569 9.994 509.336 10.3907 509.168 10.848C509 11.3053 508.916 11.8093 508.916 12.36C508.935 12.9107 509.014 13.4193 509.154 13.886C509.303 14.3527 509.523 14.754 509.812 15.09C510.101 15.426 510.456 15.6873 510.876 15.874C511.305 16.0607 511.809 16.154 512.388 16.154C513.209 16.154 513.891 15.9487 514.432 15.538C514.973 15.1273 515.323 14.516 515.482 13.704ZM545.536 16L548.21 6.004H546.88L544.85 14.32H544.822L542.61 6.004H541.168L538.928 14.32H538.9L536.94 6.004H535.582L538.144 16H539.53L541.84 7.6H541.868L544.15 16H545.536ZM550.531 7.46V6.004H549.341V7.46H550.531ZM549.341 8.762V16H550.531V8.762H549.341ZM552.375 8.762V16H553.565V11.912C553.565 11.5853 553.607 11.2867 553.691 11.016C553.784 10.736 553.919 10.4933 554.097 10.288C554.274 10.0827 554.493 9.924 554.755 9.812C555.025 9.7 555.343 9.644 555.707 9.644C556.164 9.644 556.523 9.77467 556.785 10.036C557.046 10.2973 557.177 10.652 557.177 11.1V16H558.367V11.24C558.367 10.848 558.325 10.4933 558.241 10.176C558.166 9.84933 558.031 9.56933 557.835 9.336C557.639 9.10267 557.382 8.92067 557.065 8.79C556.747 8.65933 556.351 8.594 555.875 8.594C554.801 8.594 554.017 9.03267 553.523 9.91H553.495V8.762H552.375ZM561.022 12.444C561.022 12.0893 561.059 11.744 561.134 11.408C561.208 11.072 561.33 10.7733 561.498 10.512C561.666 10.2507 561.89 10.0407 562.17 9.882C562.45 9.72333 562.79 9.644 563.192 9.644C563.602 9.644 563.952 9.72333 564.242 9.882C564.531 10.0313 564.764 10.232 564.942 10.484C565.128 10.736 565.264 11.03 565.348 11.366C565.432 11.6927 565.474 12.0333 565.474 12.388C565.474 12.724 565.432 13.0553 565.348 13.382C565.273 13.7087 565.147 14.0027 564.97 14.264C564.792 14.516 564.564 14.7213 564.284 14.88C564.004 15.0387 563.663 15.118 563.262 15.118C562.879 15.118 562.543 15.0433 562.254 14.894C561.974 14.7447 561.74 14.544 561.554 14.292C561.376 14.04 561.241 13.7553 561.148 13.438C561.064 13.1113 561.022 12.78 561.022 12.444ZM566.622 16V6.004H565.432V9.728H565.404C565.273 9.51333 565.11 9.336 564.914 9.196C564.727 9.04667 564.526 8.93 564.312 8.846C564.097 8.75267 563.882 8.68733 563.668 8.65C563.453 8.61267 563.252 8.594 563.066 8.594C562.515 8.594 562.03 8.69667 561.61 8.902C561.199 9.098 560.854 9.36867 560.574 9.714C560.303 10.05 560.098 10.4467 559.958 10.904C559.827 11.3613 559.762 11.8467 559.762 12.36C559.762 12.8733 559.832 13.3587 559.972 13.816C560.112 14.2733 560.317 14.6747 560.588 15.02C560.868 15.3653 561.213 15.6407 561.624 15.846C562.044 16.0513 562.534 16.154 563.094 16.154C563.598 16.154 564.06 16.0653 564.48 15.888C564.9 15.7107 565.208 15.4213 565.404 15.02H565.432V16H566.622ZM569.321 12.388C569.321 11.9493 569.377 11.562 569.489 11.226C569.61 10.8807 569.773 10.5913 569.979 10.358C570.184 10.1247 570.422 9.94733 570.693 9.826C570.973 9.70467 571.267 9.644 571.575 9.644C571.883 9.644 572.172 9.70467 572.443 9.826C572.723 9.94733 572.965 10.1247 573.171 10.358C573.376 10.5913 573.535 10.8807 573.647 11.226C573.768 11.562 573.829 11.9493 573.829 12.388C573.829 12.8267 573.768 13.2187 573.647 13.564C573.535 13.9 573.376 14.1847 573.171 14.418C572.965 14.642 572.723 14.8147 572.443 14.936C572.172 15.0573 571.883 15.118 571.575 15.118C571.267 15.118 570.973 15.0573 570.693 14.936C570.422 14.8147 570.184 14.642 569.979 14.418C569.773 14.1847 569.61 13.9 569.489 13.564C569.377 13.2187 569.321 12.8267 569.321 12.388ZM568.061 12.388C568.061 12.92 568.135 13.4147 568.285 13.872C568.434 14.3293 568.658 14.7307 568.957 15.076C569.255 15.412 569.624 15.678 570.063 15.874C570.501 16.0607 571.005 16.154 571.575 16.154C572.153 16.154 572.657 16.0607 573.087 15.874C573.525 15.678 573.894 15.412 574.193 15.076C574.491 14.7307 574.715 14.3293 574.865 13.872C575.014 13.4147 575.089 12.92 575.089 12.388C575.089 11.856 575.014 11.3613 574.865 10.904C574.715 10.4373 574.491 10.036 574.193 9.7C573.894 9.35467 573.525 9.084 573.087 8.888C572.657 8.692 572.153 8.594 571.575 8.594C571.005 8.594 570.501 8.692 570.063 8.888C569.624 9.084 569.255 9.35467 568.957 9.7C568.658 10.036 568.434 10.4373 568.285 10.904C568.135 11.3613 568.061 11.856 568.061 12.388ZM583.66 16L585.97 8.762H584.738L583.114 14.684H583.086L581.574 8.762H580.272L578.816 14.684H578.788L577.15 8.762H575.834L578.158 16H579.446L580.902 10.246H580.93L582.4 16H583.66ZM606.78 6.004V16H608.11V11.422H613.374V16H614.704V6.004H613.374V10.302H608.11V6.004H606.78ZM621.713 11.688H617.555C617.574 11.408 617.634 11.1467 617.737 10.904C617.84 10.652 617.98 10.4327 618.157 10.246C618.334 10.0593 618.544 9.91467 618.787 9.812C619.039 9.7 619.319 9.644 619.627 9.644C619.926 9.644 620.196 9.7 620.439 9.812C620.691 9.91467 620.906 10.0593 621.083 10.246C621.27 10.4233 621.414 10.638 621.517 10.89C621.629 11.142 621.694 11.408 621.713 11.688ZM622.861 13.704H621.685C621.582 14.18 621.368 14.5347 621.041 14.768C620.724 15.0013 620.313 15.118 619.809 15.118C619.417 15.118 619.076 15.0527 618.787 14.922C618.498 14.7913 618.26 14.6187 618.073 14.404C617.886 14.18 617.751 13.928 617.667 13.648C617.583 13.3587 617.546 13.0553 617.555 12.738H622.973C622.992 12.2993 622.95 11.8373 622.847 11.352C622.754 10.8667 622.576 10.4187 622.315 10.008C622.063 9.59733 621.722 9.26133 621.293 9C620.873 8.72933 620.341 8.594 619.697 8.594C619.202 8.594 618.745 8.68733 618.325 8.874C617.914 9.06067 617.555 9.322 617.247 9.658C616.948 9.994 616.715 10.3907 616.547 10.848C616.379 11.3053 616.295 11.8093 616.295 12.36C616.314 12.9107 616.393 13.4193 616.533 13.886C616.682 14.3527 616.902 14.754 617.191 15.09C617.48 15.426 617.835 15.6873 618.255 15.874C618.684 16.0607 619.188 16.154 619.767 16.154C620.588 16.154 621.27 15.9487 621.811 15.538C622.352 15.1273 622.702 14.516 622.861 13.704ZM624.277 6.004V16H625.467V6.004H624.277ZM627.352 8.762V18.758H628.542V15.034H628.57C628.701 15.2487 628.859 15.4307 629.046 15.58C629.242 15.72 629.447 15.832 629.662 15.916C629.877 16 630.091 16.0607 630.306 16.098C630.53 16.1353 630.731 16.154 630.908 16.154C631.459 16.154 631.939 16.056 632.35 15.86C632.77 15.664 633.115 15.398 633.386 15.062C633.666 14.7167 633.871 14.3153 634.002 13.858C634.142 13.4007 634.212 12.9153 634.212 12.402C634.212 11.8887 634.142 11.4033 634.002 10.946C633.862 10.4887 633.652 10.0873 633.372 9.742C633.101 9.38733 632.756 9.10733 632.336 8.902C631.925 8.69667 631.44 8.594 630.88 8.594C630.376 8.594 629.914 8.68733 629.494 8.874C629.074 9.05133 628.766 9.34067 628.57 9.742H628.542V8.762H627.352ZM632.952 12.318C632.952 12.6727 632.915 13.018 632.84 13.354C632.765 13.69 632.644 13.9887 632.476 14.25C632.308 14.5113 632.084 14.7213 631.804 14.88C631.533 15.0387 631.193 15.118 630.782 15.118C630.371 15.118 630.021 15.0433 629.732 14.894C629.443 14.7353 629.205 14.53 629.018 14.278C628.841 14.026 628.71 13.7367 628.626 13.41C628.542 13.074 628.5 12.7287 628.5 12.374C628.5 12.038 628.537 11.7067 628.612 11.38C628.696 11.0533 628.827 10.764 629.004 10.512C629.181 10.2507 629.41 10.0407 629.69 9.882C629.97 9.72333 630.311 9.644 630.712 9.644C631.095 9.644 631.426 9.71867 631.706 9.868C631.995 10.0173 632.229 10.218 632.406 10.47C632.593 10.722 632.728 11.0113 632.812 11.338C632.905 11.6553 632.952 11.982 632.952 12.318Z" fill="white"/>
<path fill-rule="evenodd" clip-rule="evenodd" d="M1261.39 16.8395C1261.12 16.0595 1260.37 15.5 1259.5 15.5C1258.63 15.5 1257.88 16.0595 1257.61 16.8395L1259.5 18.7279L1261.39 16.8395Z" fill="white"/>
<path d="M1264.31 13.9157C1263.22 12.4494 1261.47 11.5 1259.5 11.5C1257.53 11.5 1255.78 12.4494 1254.69 13.9157L1255.4 14.6318C1256.31 13.3427 1257.81 12.5 1259.5 12.5C1261.19 12.5 1262.69 13.3427 1263.6 14.6318L1264.31 13.9157Z" fill="white"/>
<path d="M1267.16 11.0694C1265.32 8.88705 1262.57 7.5 1259.5 7.5C1256.43 7.5 1253.68 8.88705 1251.84 11.0694L1252.55 11.7795C1254.2 9.77678 1256.7 8.5 1259.5 8.5C1262.3 8.5 1264.8 9.77678 1266.45 11.7795L1267.16 11.0694Z" fill="white"/>
<path d="M1269.99 8.23341C1267.43 5.33053 1263.68 3.5 1259.5 3.5C1255.32 3.5 1251.57 5.33053 1249.01 8.23341L1249.71 8.94197C1252.1 6.21941 1255.6 4.5 1259.5 4.5C1263.4 4.5 1266.9 6.21941 1269.29 8.94197L1269.99 8.23341Z" fill="white"/>
<path d="M1284.5 6.5C1284.5 5.94772 1284.95 5.5 1285.5 5.5H1302.5C1303.05 5.5 1303.5 5.94772 1303.5 6.5V15.5C1303.5 16.0523 1303.05 16.5 1302.5 16.5H1285.5C1284.95 16.5 1284.5 16.0523 1284.5 15.5V6.5Z" stroke="white"/>
<path fill-rule="evenodd" clip-rule="evenodd" d="M1286.5 7C1286.22 7 1286 7.22386 1286 7.5V14.5C1286 14.7761 1286.22 15 1286.5 15H1301.5C1301.78 15 1302 14.7761 1302 14.5V7.5C1302 7.22386 1301.78 7 1301.5 7H1286.5Z" fill="white"/>
<path fill-rule="evenodd" clip-rule="evenodd" d="M1305 14.2368C1306.2 13.6143 1307 12.4509 1307 11.1184C1307 9.78588 1306.2 8.62246 1305 8V14.2368V14.2368Z" fill="white"/>
<path d="M1326.16 16V5.7195H1325.22C1325.15 6.10617 1325.03 6.42517 1324.84 6.6765C1324.66 6.92783 1324.43 7.126 1324.16 7.271C1323.9 7.416 1323.61 7.5175 1323.28 7.5755C1322.95 7.62383 1322.61 7.648 1322.26 7.648V8.634H1324.93V16H1326.16ZM1331.3 8.3875C1331.3 8.1265 1331.35 7.89933 1331.45 7.706C1331.55 7.51267 1331.67 7.34833 1331.83 7.213C1331.99 7.07767 1332.18 6.97617 1332.41 6.9085C1332.63 6.84083 1332.86 6.807 1333.1 6.807C1333.61 6.807 1334.02 6.94233 1334.34 7.213C1334.66 7.474 1334.83 7.8655 1334.83 8.3875C1334.83 8.9095 1334.67 9.3155 1334.35 9.6055C1334.03 9.8955 1333.62 10.0405 1333.13 10.0405C1332.88 10.0405 1332.64 10.0067 1332.42 9.939C1332.2 9.87133 1332.01 9.76983 1331.84 9.6345C1331.68 9.49917 1331.55 9.33 1331.45 9.127C1331.35 8.91433 1331.3 8.66783 1331.3 8.3875ZM1330 8.344C1330 8.808 1330.13 9.23817 1330.39 9.6345C1330.65 10.0212 1331 10.3015 1331.44 10.4755C1330.86 10.6785 1330.41 11.0072 1330.1 11.4615C1329.79 11.9062 1329.64 12.433 1329.64 13.042C1329.64 13.564 1329.72 14.0232 1329.9 14.4195C1330.08 14.8062 1330.33 15.13 1330.64 15.391C1330.96 15.652 1331.33 15.8453 1331.75 15.971C1332.18 16.0967 1332.64 16.1595 1333.13 16.1595C1333.61 16.1595 1334.05 16.0918 1334.47 15.9565C1334.88 15.8212 1335.24 15.623 1335.54 15.362C1335.85 15.0913 1336.09 14.7627 1336.26 14.376C1336.45 13.9893 1336.54 13.5447 1336.54 13.042C1336.54 12.404 1336.39 11.8675 1336.09 11.4325C1335.79 10.9878 1335.33 10.6688 1334.71 10.4755C1335.15 10.2822 1335.49 9.997 1335.74 9.62C1336 9.23333 1336.13 8.808 1336.13 8.344C1336.13 8.01533 1336.08 7.69633 1335.96 7.387C1335.84 7.068 1335.66 6.78767 1335.41 6.546C1335.17 6.29467 1334.85 6.0965 1334.45 5.9515C1334.05 5.79683 1333.58 5.7195 1333.02 5.7195C1332.62 5.7195 1332.24 5.7775 1331.87 5.8935C1331.51 6.0095 1331.19 6.17867 1330.91 6.401C1330.63 6.62333 1330.41 6.89883 1330.25 7.2275C1330.08 7.5465 1330 7.91867 1330 8.344ZM1330.94 13.1C1330.94 12.8003 1331 12.5297 1331.1 12.288C1331.22 12.0463 1331.37 11.8385 1331.57 11.6645C1331.77 11.4905 1332 11.36 1332.26 11.273C1332.53 11.1763 1332.82 11.128 1333.12 11.128C1333.41 11.128 1333.68 11.1812 1333.93 11.2875C1334.19 11.3842 1334.42 11.5195 1334.61 11.6935C1334.8 11.8675 1334.95 12.0753 1335.06 12.317C1335.18 12.549 1335.23 12.8052 1335.23 13.0855C1335.23 13.3755 1335.18 13.6413 1335.07 13.883C1334.98 14.1247 1334.83 14.3373 1334.64 14.521C1334.46 14.695 1334.23 14.8352 1333.97 14.9415C1333.72 15.0382 1333.44 15.0865 1333.13 15.0865C1332.49 15.0865 1331.97 14.9125 1331.55 14.5645C1331.15 14.2068 1330.94 13.7187 1330.94 13.1ZM1339.93 10.113V8.5035H1338.32V10.113H1339.93ZM1338.32 14.3905V16H1339.93V14.3905H1338.32ZM1343.06 10.9395C1343.06 10.6882 1343.06 10.4127 1343.06 10.113C1343.07 9.80367 1343.1 9.49917 1343.14 9.1995C1343.18 8.89017 1343.25 8.5905 1343.32 8.3005C1343.41 8.0105 1343.53 7.75917 1343.69 7.5465C1343.85 7.32417 1344.05 7.14533 1344.3 7.01C1344.54 6.87467 1344.83 6.807 1345.18 6.807C1345.53 6.807 1345.82 6.87467 1346.07 7.01C1346.31 7.14533 1346.51 7.32417 1346.66 7.5465C1346.82 7.75917 1346.95 8.0105 1347.02 8.3005C1347.11 8.5905 1347.17 8.89017 1347.21 9.1995C1347.26 9.49917 1347.28 9.80367 1347.28 10.113C1347.29 10.4127 1347.3 10.6882 1347.3 10.9395C1347.3 11.3262 1347.28 11.7612 1347.25 12.2445C1347.24 12.7182 1347.16 13.1677 1347.02 13.593C1346.9 14.0087 1346.69 14.3615 1346.4 14.6515C1346.11 14.9415 1345.7 15.0865 1345.18 15.0865C1344.66 15.0865 1344.25 14.9415 1343.96 14.6515C1343.67 14.3615 1343.46 14.0087 1343.32 13.593C1343.2 13.1677 1343.12 12.7182 1343.09 12.2445C1343.07 11.7612 1343.06 11.3262 1343.06 10.9395ZM1341.76 10.954C1341.76 11.331 1341.77 11.7225 1341.79 12.1285C1341.81 12.5345 1341.86 12.9308 1341.93 13.3175C1342.01 13.7042 1342.12 14.0715 1342.27 14.4195C1342.41 14.7578 1342.61 15.0575 1342.86 15.3185C1343.11 15.5795 1343.43 15.7873 1343.8 15.942C1344.19 16.087 1344.65 16.1595 1345.18 16.1595C1345.72 16.1595 1346.18 16.087 1346.56 15.942C1346.94 15.7873 1347.25 15.5795 1347.5 15.3185C1347.75 15.0575 1347.95 14.7578 1348.1 14.4195C1348.24 14.0715 1348.35 13.7042 1348.43 13.3175C1348.51 12.9308 1348.55 12.5345 1348.57 12.1285C1348.59 11.7225 1348.6 11.331 1348.6 10.954C1348.6 10.577 1348.59 10.1855 1348.57 9.7795C1348.55 9.3735 1348.51 8.97717 1348.43 8.5905C1348.35 8.20383 1348.24 7.8365 1348.1 7.4885C1347.95 7.1405 1347.75 6.836 1347.5 6.575C1347.25 6.314 1346.93 6.10617 1346.54 5.9515C1346.17 5.79683 1345.71 5.7195 1345.18 5.7195C1344.65 5.7195 1344.19 5.79683 1343.8 5.9515C1343.43 6.10617 1343.11 6.314 1342.86 6.575C1342.61 6.836 1342.41 7.1405 1342.27 7.4885C1342.12 7.8365 1342.01 8.20383 1341.93 8.5905C1341.86 8.97717 1341.81 9.3735 1341.79 9.7795C1341.77 10.1855 1341.76 10.577 1341.76 10.954ZM1351.12 10.9395C1351.12 10.6882 1351.12 10.4127 1351.12 10.113C1351.13 9.80367 1351.15 9.49917 1351.19 9.1995C1351.24 8.89017 1351.3 8.5905 1351.38 8.3005C1351.47 8.0105 1351.59 7.75917 1351.74 7.5465C1351.91 7.32417 1352.11 7.14533 1352.35 7.01C1352.6 6.87467 1352.89 6.807 1353.24 6.807C1353.59 6.807 1353.88 6.87467 1354.12 7.01C1354.36 7.14533 1354.56 7.32417 1354.72 7.5465C1354.88 7.75917 1355 8.0105 1355.08 8.3005C1355.17 8.5905 1355.23 8.89017 1355.27 9.1995C1355.32 9.49917 1355.34 9.80367 1355.34 10.113C1355.35 10.4127 1355.36 10.6882 1355.36 10.9395C1355.36 11.3262 1355.34 11.7612 1355.31 12.2445C1355.29 12.7182 1355.21 13.1677 1355.08 13.593C1354.95 14.0087 1354.75 14.3615 1354.46 14.6515C1354.17 14.9415 1353.76 15.0865 1353.24 15.0865C1352.72 15.0865 1352.31 14.9415 1352.02 14.6515C1351.73 14.3615 1351.52 14.0087 1351.38 13.593C1351.26 13.1677 1351.18 12.7182 1351.15 12.2445C1351.13 11.7612 1351.12 11.3262 1351.12 10.9395ZM1349.82 10.954C1349.82 11.331 1349.83 11.7225 1349.85 12.1285C1349.86 12.5345 1349.91 12.9308 1349.99 13.3175C1350.07 13.7042 1350.18 14.0715 1350.32 14.4195C1350.47 14.7578 1350.67 15.0575 1350.92 15.3185C1351.17 15.5795 1351.48 15.7873 1351.86 15.942C1352.25 16.087 1352.71 16.1595 1353.24 16.1595C1353.78 16.1595 1354.24 16.087 1354.62 15.942C1354.99 15.7873 1355.31 15.5795 1355.56 15.3185C1355.81 15.0575 1356.01 14.7578 1356.15 14.4195C1356.3 14.0715 1356.41 13.7042 1356.49 13.3175C1356.56 12.9308 1356.61 12.5345 1356.63 12.1285C1356.65 11.7225 1356.66 11.331 1356.66 10.954C1356.66 10.577 1356.65 10.1855 1356.63 9.7795C1356.61 9.3735 1356.56 8.97717 1356.49 8.5905C1356.41 8.20383 1356.3 7.8365 1356.15 7.4885C1356.01 7.1405 1355.81 6.836 1355.56 6.575C1355.31 6.314 1354.99 6.10617 1354.6 5.9515C1354.22 5.79683 1353.77 5.7195 1353.24 5.7195C1352.71 5.7195 1352.25 5.79683 1351.86 5.9515C1351.48 6.10617 1351.17 6.314 1350.92 6.575C1350.67 6.836 1350.47 7.1405 1350.32 7.4885C1350.18 7.8365 1350.07 8.20383 1349.99 8.5905C1349.91 8.97717 1349.86 9.3735 1349.85 9.7795C1349.83 10.1855 1349.82 10.577 1349.82 10.954Z" fill="white"/>
<path d="M1383 9.75C1383 12.6495 1380.65 15 1377.75 15C1374.85 15 1372.5 12.6495 1372.5 9.75C1372.5 6.85051 1374.85 4.5 1377.75 4.5C1380.65 4.5 1383 6.85051 1383 9.75Z" stroke="white"/>
<path d="M1385.75 17.75L1381.75 13.75" stroke="white" stroke-linecap="square"/>
<path fill-rule="evenodd" clip-rule="evenodd" d="M1406 6V8H1420V6H1406Z" fill="white"/>
<path fill-rule="evenodd" clip-rule="evenodd" d="M1406 14V16H1420V14H1406Z" fill="white"/>
<path fill-rule="evenodd" clip-rule="evenodd" d="M1406 10V12H1417V10H1406Z" fill="white"/>
<path fill-rule="evenodd" clip-rule="evenodd" d="M1402 6V8H1404V6H1402Z" fill="white"/>
<path fill-rule="evenodd" clip-rule="evenodd" d="M1402 14V16H1404V14H1402Z" fill="white"/>
<path fill-rule="evenodd" clip-rule="evenodd" d="M1402 10V12H1404V10H1402Z" fill="white"/>
</g>
<defs>
<filter id="filter0_bdd" x="-21.7463" y="-21.7463" width="1483.49" height="65.4925" filterUnits="userSpaceOnUse" color-interpolation-filters="sRGB">
<feFlood flood-opacity="0" result="BackgroundImageFix"/>
<feGaussianBlur in="BackgroundImage" stdDeviation="10.8731"/>
<feComposite in2="SourceAlpha" operator="in" result="effect1_backgroundBlur"/>
<feColorMatrix in="SourceAlpha" type="matrix" values="0 0 0 0 0 0 0 0 0 0 0 0 0 0 0 0 0 0 127 0"/>
<feOffset/>
<feGaussianBlur stdDeviation="8"/>
<feColorMatrix type="matrix" values="0 0 0 0 0 0 0 0 0 0 0 0 0 0 0 0 0 0 0.16 0"/>
<feBlend mode="normal" in2="effect1_backgroundBlur" result="effect2_dropShadow"/>
<feColorMatrix in="SourceAlpha" type="matrix" values="0 0 0 0 0 0 0 0 0 0 0 0 0 0 0 0 0 0 127 0"/>
<feOffset dy="1"/>
<feColorMatrix type="matrix" values="0 0 0 0 0 0 0 0 0 0 0 0 0 0 0 0 0 0 0.36 0"/>
<feBlend mode="normal" in2="effect2_dropShadow" result="effect3_dropShadow"/>
<feBlend mode="normal" in="SourceGraphic" in2="effect3_dropShadow" result="shape"/>
</filter>
</defs>
</svg>
