<svg width="322" height="24" viewBox="0 0 322 24" fill="none" xmlns="http://www.w3.org/2000/svg">
<g clip-path="url(#clip0_1100_79532)">
<path d="M5.27936 7.00062C4.28991 7.07226 3.47454 8.07523 3.62112 9.10507C3.66693 9.48118 3.76771 10.0633 3.89597 10.6991C3.95094 10.9856 4.01507 11.2901 4.0792 11.5856C4.23913 12.2999 4.43791 13.0054 4.6747 13.699C4.92896 14.4685 5.23816 15.2196 5.60001 15.9468C6.9834 18.5796 8.85236 19.1348 10.1808 19.1348C10.8047 19.14 11.4225 19.0149 11.9929 18.7678C12.5633 18.5207 13.073 18.1573 13.4881 17.702C13.2563 17.4126 13.0509 17.104 12.8743 16.7796C12.2879 15.7229 11.9123 14.505 11.5917 13.2334C11.4446 13.7401 11.2483 14.2319 11.0053 14.702C10.6205 15.4005 10.3548 15.4005 10.1808 15.4005C9.80516 15.4005 9.41121 15.0065 9.0081 14.2453C8.80039 13.8289 8.61687 13.4013 8.45841 12.9647C8.34847 12.6513 8.23853 12.3289 8.14692 12.0155C8.0553 11.702 7.8904 11.1468 7.8171 10.7976C7.62471 9.94685 7.39567 8.54985 7.38651 8.50507C7.30406 8.10209 6.8185 6.87525 5.27936 7.00062Z" fill="white"/>
<path d="M21.3394 10.7618C22.3197 10.3946 22.7319 9.23046 22.2922 8.29018L22.2556 8.20063C22.0782 7.81785 21.8699 7.44953 21.6326 7.09915C21.5192 6.91591 21.3905 6.74218 21.2478 6.57975C19.9927 5.0753 18.5176 4.80664 17.6198 4.80664C16.996 4.80198 16.3784 4.92736 15.8081 5.17443C15.2378 5.4215 14.7279 5.78458 14.3125 6.23946C14.53 6.50917 14.7231 6.79681 14.8897 7.09915C15.5035 8.18272 15.8883 9.66926 16.2089 10.9319C16.383 10.3588 16.5846 9.62449 16.8136 9.21255C17.1892 8.54092 17.4457 8.54092 17.6198 8.54092C18.142 8.54092 18.5635 9.29315 18.765 9.73195C18.765 9.73195 19.4888 11.4692 21.3394 10.7618Z" fill="white"/>
<path d="M22.5396 7.00063L22.3655 6.98272H22.3197C22.5108 7.29456 22.6821 7.61755 22.8328 7.94987L22.8786 8.03942C23.1547 8.64175 23.1757 9.32641 22.9371 9.94386C22.6985 10.5613 22.2197 11.0614 21.6051 11.3349C21.2735 11.4799 20.9148 11.5561 20.5515 11.5588C20.3035 11.5544 20.0571 11.5183 19.8186 11.4513C19.5621 12.3916 19.159 13.5468 18.7925 14.2453C18.4261 14.9438 17.9955 15.4005 17.6107 15.4005C17.4458 15.4005 17.1801 15.4005 16.7953 14.702C16.5524 14.2319 16.356 13.7401 16.209 13.2334C16.0899 12.8394 15.9799 12.4185 15.87 11.9797C15.8242 11.8185 15.7876 11.6573 15.7509 11.4961C15.4028 10.0812 15.0088 8.59464 14.3309 7.40361C14.2011 7.17445 14.0573 6.95316 13.9003 6.74093C13.7719 6.56685 13.6343 6.39945 13.488 6.23945C13.0716 5.78343 12.5602 5.41968 11.9883 5.17256C11.4163 4.92545 10.7969 4.80069 10.1715 4.80663C9.28287 4.80663 7.80786 5.07528 6.55273 6.57974C6.94857 6.75383 7.29253 7.02357 7.55219 7.36356C7.81185 7.70354 7.97867 8.10256 8.0369 8.523C8.10103 8.97075 8.25678 9.8394 8.44001 10.6633C8.45833 10.7528 8.47666 10.8424 8.50414 10.9409C8.64156 10.5916 8.77899 10.2961 8.92557 9.96477L9.03551 9.73194C9.23706 9.29314 9.65849 8.54091 10.1715 8.54091C10.3548 8.54091 10.6113 8.54091 10.9869 9.21254C11.24 9.69275 11.4426 10.1968 11.5916 10.717C11.7107 11.12 11.8298 11.5498 11.9306 11.9797C11.9672 12.105 11.9947 12.2304 12.0222 12.3558C12.3886 13.8513 12.7734 15.2931 13.433 16.4841C13.5696 16.7372 13.7258 16.9797 13.9003 17.2094C14.0286 17.3807 14.1662 17.5451 14.3125 17.702C15.4028 18.8572 16.6579 19.1348 17.6107 19.1348C18.9391 19.1348 20.8172 18.5796 22.2006 15.9468C22.9061 14.5946 23.5016 12.5976 23.7214 11.5856C23.9413 10.5737 24.1062 9.66029 24.1795 9.10508C24.2143 8.8615 24.1994 8.61359 24.1357 8.37567C24.0719 8.13774 23.9606 7.91452 23.8081 7.71887C23.6557 7.52321 23.4651 7.35901 23.2474 7.23574C23.0296 7.11246 22.7891 7.03256 22.5396 7.00063Z" fill="white"/>
<g filter="url(#filter0_d_1100_79532)">
<path d="M40.1562 16.8516H52.6328C53.2995 16.8516 53.9089 16.7969 54.4609 16.6875C55.013 16.5781 55.487 16.3255 55.8828 15.9297C56.2839 15.5286 56.5365 15.0547 56.6406 14.5078C56.7448 13.9609 56.7969 13.3516 56.7969 12.6797V10.0391C56.7969 9.3724 56.7448 8.76562 56.6406 8.21875C56.5365 7.67188 56.2839 7.19792 55.8828 6.79688C55.4818 6.40104 55.0052 6.14844 54.4531 6.03906C53.9062 5.92969 53.2995 5.875 52.6328 5.875H40.1406C39.4844 5.875 38.8802 5.92969 38.3281 6.03906C37.7812 6.14844 37.3073 6.40365 36.9062 6.80469C36.5104 7.20052 36.2578 7.67188 36.1484 8.21875C36.0443 8.76562 35.9922 9.36719 35.9922 10.0234V12.6797C35.9922 13.3516 36.0443 13.9609 36.1484 14.5078C36.2526 15.0547 36.5052 15.5286 36.9062 15.9297C37.3073 16.3255 37.7812 16.5781 38.3281 16.6875C38.8802 16.7969 39.4896 16.8516 40.1562 16.8516ZM39.9453 15.5938C39.5443 15.5938 39.1484 15.5547 38.7578 15.4766C38.3724 15.3984 38.0599 15.2422 37.8203 15.0078C37.5859 14.7734 37.4323 14.4635 37.3594 14.0781C37.2865 13.6927 37.25 13.2995 37.25 12.8984V9.85156C37.25 9.4401 37.2865 9.04167 37.3594 8.65625C37.4323 8.26562 37.5859 7.95052 37.8203 7.71094C38.0547 7.47656 38.3672 7.32292 38.7578 7.25C39.1536 7.17188 39.5573 7.13281 39.9688 7.13281H52.8438C53.2448 7.13281 53.638 7.17188 54.0234 7.25C54.4141 7.32292 54.7292 7.47917 54.9688 7.71875C55.2031 7.95312 55.3568 8.26302 55.4297 8.64844C55.5026 9.03385 55.5391 9.42708 55.5391 9.82812V12.8984C55.5391 13.2995 55.5026 13.6927 55.4297 14.0781C55.3568 14.4635 55.2031 14.7734 54.9688 15.0078C54.7292 15.2474 54.4141 15.4062 54.0234 15.4844C53.638 15.5573 53.2448 15.5938 52.8438 15.5938H39.9453ZM57.8594 13.3828C58.0677 13.3672 58.2839 13.276 58.5078 13.1094C58.7318 12.9375 58.9219 12.7031 59.0781 12.4062C59.2344 12.1094 59.3125 11.7604 59.3125 11.3594C59.3125 10.9635 59.2344 10.6172 59.0781 10.3203C58.9219 10.0234 58.7318 9.78906 58.5078 9.61719C58.2839 9.44531 58.0677 9.35417 57.8594 9.34375V13.3828ZM39.6328 14.6016H53.1641C53.4349 14.6016 53.6536 14.5807 53.8203 14.5391C53.987 14.4974 54.1302 14.4193 54.25 14.3047C54.3646 14.1901 54.4427 14.0495 54.4844 13.8828C54.5312 13.7109 54.5547 13.4896 54.5547 13.2188V9.50781C54.5547 9.23698 54.5312 9.01823 54.4844 8.85156C54.4427 8.67969 54.3646 8.53646 54.25 8.42188C54.1302 8.30208 53.987 8.22396 53.8203 8.1875C53.6536 8.14583 53.4349 8.125 53.1641 8.125H39.6328C39.3568 8.125 39.1354 8.14583 38.9688 8.1875C38.8021 8.22396 38.6615 8.30208 38.5469 8.42188C38.4323 8.53646 38.3516 8.67969 38.3047 8.85156C38.263 9.01823 38.2422 9.23698 38.2422 9.50781V13.2188C38.2422 13.4896 38.263 13.7109 38.3047 13.8828C38.3516 14.0495 38.4323 14.1901 38.5469 14.3047C38.6667 14.4193 38.8073 14.4974 38.9688 14.5391C39.1354 14.5807 39.3568 14.6016 39.6328 14.6016Z" fill="white"/>
</g>
<g filter="url(#filter1_d_1100_79532)">
<path d="M78.3359 18.7266H84.0078C84.6276 18.7266 85.1901 18.5911 85.6953 18.3203C86.2005 18.0547 86.6016 17.6797 86.8984 17.1953C87.2005 16.7161 87.3516 16.1562 87.3516 15.5156C87.3516 14.875 87.2005 14.3151 86.8984 13.8359C86.6016 13.3516 86.2005 12.9766 85.6953 12.7109C85.1901 12.4401 84.6276 12.3047 84.0078 12.3047H78.3359C77.7161 12.3047 77.1536 12.4401 76.6484 12.7109C76.1432 12.9766 75.7396 13.3516 75.4375 13.8359C75.1406 14.3151 74.9922 14.875 74.9922 15.5156C74.9922 16.1562 75.1406 16.7161 75.4375 17.1953C75.7396 17.6797 76.1432 18.0547 76.6484 18.3203C77.1536 18.5911 77.7161 18.7266 78.3359 18.7266ZM84.2109 17.5469C83.8359 17.5417 83.4948 17.4479 83.1875 17.2656C82.8802 17.0833 82.6354 16.8385 82.4531 16.5312C82.276 16.224 82.1875 15.8828 82.1875 15.5078C82.1875 15.138 82.276 14.7995 82.4531 14.4922C82.6354 14.1849 82.8802 13.9401 83.1875 13.7578C83.4948 13.5755 83.8359 13.4844 84.2109 13.4844C84.5859 13.4844 84.9271 13.5755 85.2344 13.7578C85.5469 13.9401 85.7943 14.1849 85.9766 14.4922C86.1589 14.7943 86.2474 15.1302 86.2422 15.5C86.2422 15.875 86.1484 16.2188 85.9609 16.5312C85.7786 16.8438 85.5339 17.0911 85.2266 17.2734C84.9245 17.4557 84.5859 17.5469 84.2109 17.5469ZM78.6562 11.1016H83.6953C84.362 11.1016 84.9714 10.9531 85.5234 10.6562C86.0807 10.3594 86.5234 9.94271 86.8516 9.40625C87.1849 8.86979 87.3516 8.2474 87.3516 7.53906C87.3516 6.83073 87.1849 6.20833 86.8516 5.67188C86.5234 5.13542 86.0807 4.71875 85.5234 4.42188C84.9714 4.125 84.362 3.97656 83.6953 3.97656H78.6562C77.9844 3.97656 77.3698 4.125 76.8125 4.42188C76.2604 4.71875 75.8177 5.13542 75.4844 5.67188C75.1562 6.20833 74.9922 6.83073 74.9922 7.53906C74.9922 8.2474 75.1562 8.86979 75.4844 9.40625C75.8177 9.94271 76.2604 10.3594 76.8125 10.6562C77.3698 10.9531 77.9844 11.1016 78.6562 11.1016ZM78.6562 9.92188C78.2188 9.92188 77.8099 9.82292 77.4297 9.625C77.0547 9.42188 76.75 9.14323 76.5156 8.78906C76.2865 8.42969 76.1719 8.01302 76.1719 7.53906C76.1719 7.0651 76.2865 6.65104 76.5156 6.29688C76.75 5.9375 77.0547 5.65885 77.4297 5.46094C77.8099 5.25781 78.2188 5.15625 78.6562 5.15625H83.6953C84.1276 5.15625 84.5312 5.25781 84.9062 5.46094C85.2865 5.65885 85.5911 5.9375 85.8203 6.29688C86.0547 6.65104 86.1719 7.0651 86.1719 7.53906C86.1719 8.01302 86.0547 8.42969 85.8203 8.78906C85.5911 9.14323 85.2865 9.42188 84.9062 9.625C84.5312 9.82292 84.1276 9.92188 83.6953 9.92188H78.6562ZM78.6562 9.39062C79 9.39583 79.3099 9.3151 79.5859 9.14844C79.8672 8.97656 80.0911 8.75 80.2578 8.46875C80.4297 8.18229 80.5156 7.86719 80.5156 7.52344C80.5208 7.17969 80.4401 6.86979 80.2734 6.59375C80.1068 6.3125 79.8802 6.09115 79.5938 5.92969C79.3125 5.76302 79 5.67969 78.6562 5.67969C78.3125 5.67969 78 5.76302 77.7188 5.92969C77.4375 6.09635 77.2135 6.32031 77.0469 6.60156C76.8854 6.88281 76.8047 7.19271 76.8047 7.53125C76.8047 7.875 76.8854 8.1875 77.0469 8.46875C77.2135 8.75 77.4375 8.97396 77.7188 9.14062C78 9.30729 78.3125 9.39062 78.6562 9.39062Z" fill="white"/>
</g>
<g filter="url(#filter2_d_1100_79532)">
<path d="M113.805 14.5234C114.451 14.5234 115.057 14.401 115.625 14.1562C116.193 13.9115 116.693 13.5729 117.125 13.1406C117.557 12.7031 117.896 12.2005 118.141 11.6328C118.391 11.0651 118.516 10.4583 118.516 9.8125C118.516 9.16667 118.391 8.5599 118.141 7.99219C117.896 7.42448 117.557 6.92448 117.125 6.49219C116.693 6.0599 116.193 5.72135 115.625 5.47656C115.057 5.22656 114.451 5.10156 113.805 5.10156C113.159 5.10156 112.552 5.22656 111.984 5.47656C111.417 5.72135 110.914 6.0599 110.477 6.49219C110.044 6.92448 109.706 7.42448 109.461 7.99219C109.216 8.5599 109.094 9.16667 109.094 9.8125C109.094 10.4583 109.216 11.0651 109.461 11.6328C109.706 12.2005 110.044 12.7031 110.477 13.1406C110.914 13.5729 111.417 13.9115 111.984 14.1562C112.552 14.401 113.159 14.5234 113.805 14.5234ZM113.805 15.8203C112.977 15.8203 112.201 15.6641 111.477 15.3516C110.753 15.0391 110.115 14.6068 109.562 14.0547C109.01 13.5026 108.578 12.8646 108.266 12.1406C107.953 11.4167 107.797 10.6406 107.797 9.8125C107.797 8.98438 107.953 8.20833 108.266 7.48438C108.578 6.75521 109.01 6.11719 109.562 5.57031C110.115 5.01823 110.753 4.58594 111.477 4.27344C112.206 3.96094 112.982 3.80469 113.805 3.80469C114.633 3.80469 115.409 3.96094 116.133 4.27344C116.857 4.58594 117.495 5.01823 118.047 5.57031C118.599 6.1224 119.031 6.76042 119.344 7.48438C119.656 8.20833 119.812 8.98438 119.812 9.8125C119.812 10.6406 119.656 11.4167 119.344 12.1406C119.031 12.8646 118.599 13.5026 118.047 14.0547C117.495 14.6068 116.857 15.0391 116.133 15.3516C115.409 15.6641 114.633 15.8203 113.805 15.8203ZM121.641 18.6562C121.521 18.6562 121.406 18.6354 121.297 18.5938C121.188 18.5521 121.089 18.487 121 18.3984L116.852 14.25L118.133 13.0078L122.258 17.1406C122.346 17.224 122.409 17.3203 122.445 17.4297C122.487 17.5391 122.508 17.651 122.508 17.7656C122.508 17.9323 122.469 18.0807 122.391 18.2109C122.318 18.3464 122.216 18.4531 122.086 18.5312C121.956 18.6146 121.807 18.6562 121.641 18.6562Z" fill="white"/>
</g>
<g filter="url(#filter3_d_1100_79532)">
<path d="M149.648 18.4922C149.732 18.4922 149.815 18.4661 149.898 18.4141C149.987 18.362 150.104 18.2656 150.25 18.125L152.078 16.3672C152.141 16.3099 152.174 16.2448 152.18 16.1719C152.19 16.0938 152.169 16.0208 152.117 15.9531C151.872 15.6354 151.531 15.3594 151.094 15.125C150.661 14.8906 150.18 14.7734 149.648 14.7734C149.107 14.7734 148.615 14.8958 148.172 15.1406C147.734 15.3854 147.393 15.6719 147.148 16C147.112 16.0573 147.099 16.1198 147.109 16.1875C147.125 16.25 147.164 16.3099 147.227 16.3672L149.055 18.125C149.195 18.2656 149.31 18.362 149.398 18.4141C149.487 18.4661 149.57 18.4922 149.648 18.4922ZM145.258 14.3906C145.336 14.4688 145.422 14.5052 145.516 14.5C145.609 14.4948 145.695 14.4505 145.773 14.3672C146.221 13.862 146.792 13.4479 147.484 13.125C148.177 12.8021 148.898 12.6432 149.648 12.6484C150.409 12.6432 151.135 12.8073 151.828 13.1406C152.521 13.4688 153.096 13.8854 153.555 14.3906C153.628 14.4688 153.708 14.5078 153.797 14.5078C153.885 14.5026 153.966 14.4609 154.039 14.3828L155.203 13.2344C155.266 13.1719 155.299 13.1042 155.305 13.0312C155.31 12.9531 155.286 12.8802 155.234 12.8125C154.854 12.349 154.378 11.9349 153.805 11.5703C153.232 11.2005 152.591 10.9115 151.883 10.7031C151.174 10.4896 150.43 10.3828 149.648 10.3828C148.867 10.3828 148.122 10.4896 147.414 10.7031C146.711 10.9115 146.073 11.2005 145.5 11.5703C144.927 11.9349 144.451 12.349 144.07 12.8125C144.013 12.8802 143.987 12.9505 143.992 13.0234C143.997 13.0964 144.031 13.1667 144.094 13.2344L145.258 14.3906ZM142.133 11.2578C142.206 11.3359 142.289 11.375 142.383 11.375C142.482 11.3698 142.565 11.3281 142.633 11.25C143.56 10.2708 144.62 9.52865 145.812 9.02344C147.005 8.51302 148.284 8.25781 149.648 8.25781C151.018 8.25781 152.299 8.51302 153.492 9.02344C154.69 9.53385 155.75 10.2786 156.672 11.2578C156.74 11.3255 156.82 11.3594 156.914 11.3594C157.008 11.3594 157.089 11.3203 157.156 11.2422L158.188 10.2031C158.255 10.1406 158.289 10.0703 158.289 9.99219C158.294 9.90885 158.271 9.83594 158.219 9.77344C157.63 9.04948 156.888 8.40365 155.992 7.83594C155.096 7.26302 154.104 6.8151 153.016 6.49219C151.932 6.16406 150.81 6 149.648 6C148.487 6 147.362 6.16406 146.273 6.49219C145.185 6.8151 144.193 7.26302 143.297 7.83594C142.406 8.40365 141.667 9.04948 141.078 9.77344C141.026 9.83594 141 9.90885 141 9.99219C141.005 10.0703 141.039 10.1406 141.102 10.2031L142.133 11.2578Z" fill="white"/>
</g>
<g filter="url(#filter4_d_1100_79532)">
<path d="M185.218 16.5V6.63574H183.427L180.282 14.3535H180.166L177.028 6.63574H175.237V16.5H176.659V9.27441H176.755L179.646 16.3223H180.809L183.7 9.27441H183.796V16.5H185.218ZM190.316 16.6436C192.49 16.6436 193.823 15.1875 193.823 12.7881C193.823 10.3887 192.483 8.93262 190.316 8.93262C188.142 8.93262 186.802 10.3955 186.802 12.7881C186.802 15.1875 188.135 16.6436 190.316 16.6436ZM190.316 15.3926C189.038 15.3926 188.32 14.4424 188.32 12.7881C188.32 11.1338 189.038 10.1768 190.316 10.1768C191.587 10.1768 192.312 11.1338 192.312 12.7881C192.312 14.4355 191.587 15.3926 190.316 15.3926ZM195.243 16.5H196.713V12.1455C196.713 10.9492 197.404 10.2109 198.49 10.2109C199.577 10.2109 200.097 10.8125 200.097 12.043V16.5H201.567V11.6943C201.567 9.92383 200.651 8.93262 198.989 8.93262C197.868 8.93262 197.13 9.43164 196.768 10.252H196.658V9.07617H195.243V16.5ZM206.26 13.998C206.26 15.6523 207.484 16.7393 209.268 16.7393C211.168 16.7393 212.317 15.6113 212.317 13.6494V6.63574H210.786V13.6426C210.786 14.7705 210.232 15.3721 209.254 15.3721C208.379 15.3721 207.785 14.8184 207.764 13.998H206.26ZM220.539 9.07617H219.069V13.4307C219.069 14.627 218.42 15.3516 217.23 15.3516C216.15 15.3516 215.665 14.7637 215.665 13.5332V9.07617H214.195V13.8955C214.195 15.6387 215.111 16.6436 216.759 16.6436C217.887 16.6436 218.646 16.165 219.008 15.3242H219.124V16.5H220.539V9.07617ZM222.322 16.5H223.792V12.1455C223.792 10.9492 224.482 10.2109 225.569 10.2109C226.656 10.2109 227.175 10.8125 227.175 12.043V16.5H228.645V11.6943C228.645 9.92383 227.729 8.93262 226.068 8.93262C224.947 8.93262 224.209 9.43164 223.846 10.252H223.737V9.07617H222.322V16.5ZM233.763 9.49316H235.212C235.212 8.39941 235.943 7.66113 237.057 7.66113C238.151 7.66113 238.801 8.39258 238.801 9.34961C238.801 10.1494 238.472 10.6416 237.221 11.9473L233.845 15.4609V16.5H240.489V15.1943H235.936V15.0781L238.11 12.8906C239.84 11.1543 240.339 10.3408 240.339 9.19922C240.339 7.5791 239.006 6.39648 237.153 6.39648C235.164 6.39648 233.763 7.68164 233.763 9.49316ZM242.067 9.49316H243.516C243.516 8.39941 244.247 7.66113 245.362 7.66113C246.455 7.66113 247.105 8.39258 247.105 9.34961C247.105 10.1494 246.777 10.6416 245.526 11.9473L242.149 15.4609V16.5H248.793V15.1943H244.241V15.0781L246.414 12.8906C248.144 11.1543 248.643 10.3408 248.643 9.19922C248.643 7.5791 247.31 6.39648 245.457 6.39648C243.468 6.39648 242.067 7.68164 242.067 9.49316Z" fill="white"/>
</g>
<g filter="url(#filter5_d_1100_79532)">
<path d="M268.382 16.7324C270.85 16.7324 272.292 14.7773 272.292 11.4277C272.292 8.11914 270.706 6.39648 268.443 6.39648C266.352 6.39648 264.868 7.8252 264.868 9.82812C264.868 11.7285 266.235 13.1162 268.115 13.1162C269.284 13.1162 270.228 12.5693 270.699 11.626H270.815C270.774 14.0732 269.906 15.4404 268.396 15.4404C267.493 15.4404 266.789 14.9482 266.557 14.1348H265.012C265.306 15.7207 266.632 16.7324 268.382 16.7324ZM268.45 11.8789C267.233 11.8789 266.393 11.0244 266.393 9.78027C266.393 8.59082 267.281 7.6748 268.464 7.6748C269.64 7.6748 270.528 8.60449 270.528 9.82129C270.528 11.0176 269.66 11.8789 268.45 11.8789ZM274.977 9.98535C275.558 9.98535 275.982 9.54785 275.982 9.00098C275.982 8.44043 275.558 8.00977 274.977 8.00977C274.403 8.00977 273.972 8.44043 273.972 9.00098C273.972 9.54785 274.403 9.98535 274.977 9.98535ZM274.977 15.1191C275.558 15.1191 275.982 14.6816 275.982 14.1279C275.982 13.5742 275.558 13.1436 274.977 13.1436C274.403 13.1436 273.972 13.5742 273.972 14.1279C273.972 14.6816 274.403 15.1191 274.977 15.1191ZM282.441 16.5H283.917V14.5381H285.278V13.2393H283.917V6.63574H281.737C280.376 8.67969 278.927 11.0107 277.628 13.2393V14.5381H282.441V16.5ZM279.098 13.1709C280.11 11.4414 281.313 9.52051 282.372 7.92773H282.461V13.2666H279.098V13.1709ZM289.009 16.5H290.54V6.63574H289.015L286.418 8.48145V9.98535L288.892 8.21484H289.009V16.5ZM303.095 16.5H304.722L301.16 6.63574H299.513L295.951 16.5H297.523L298.433 13.834H302.192L303.095 16.5ZM300.258 8.37891H300.374L301.803 12.6035H298.822L300.258 8.37891ZM316.075 16.5V6.63574H314.284L311.139 14.3535H311.023L307.885 6.63574H306.094V16.5H307.516V9.27441H307.612L310.504 16.3223H311.666L314.557 9.27441H314.653V16.5H316.075Z" fill="white"/>
</g>
</g>
<defs>
<filter id="filter0_d_1100_79532" x="31.9922" y="3.875" width="31.3203" height="18.9766" filterUnits="userSpaceOnUse" color-interpolation-filters="sRGB">
<feFlood flood-opacity="0" result="BackgroundImageFix"/>
<feColorMatrix in="SourceAlpha" type="matrix" values="0 0 0 0 0 0 0 0 0 0 0 0 0 0 0 0 0 0 127 0" result="hardAlpha"/>
<feOffset dy="2"/>
<feGaussianBlur stdDeviation="2"/>
<feColorMatrix type="matrix" values="0 0 0 0 0 0 0 0 0 0 0 0 0 0 0 0 0 0 0.15 0"/>
<feBlend mode="normal" in2="BackgroundImageFix" result="effect1_dropShadow_1100_79532"/>
<feBlend mode="normal" in="SourceGraphic" in2="effect1_dropShadow_1100_79532" result="shape"/>
</filter>
<filter id="filter1_d_1100_79532" x="70.9922" y="1.97656" width="20.3594" height="22.75" filterUnits="userSpaceOnUse" color-interpolation-filters="sRGB">
<feFlood flood-opacity="0" result="BackgroundImageFix"/>
<feColorMatrix in="SourceAlpha" type="matrix" values="0 0 0 0 0 0 0 0 0 0 0 0 0 0 0 0 0 0 127 0" result="hardAlpha"/>
<feOffset dy="2"/>
<feGaussianBlur stdDeviation="2"/>
<feColorMatrix type="matrix" values="0 0 0 0 0 0 0 0 0 0 0 0 0 0 0 0 0 0 0.15 0"/>
<feBlend mode="normal" in2="BackgroundImageFix" result="effect1_dropShadow_1100_79532"/>
<feBlend mode="normal" in="SourceGraphic" in2="effect1_dropShadow_1100_79532" result="shape"/>
</filter>
<filter id="filter2_d_1100_79532" x="103.797" y="1.80469" width="22.7109" height="22.8516" filterUnits="userSpaceOnUse" color-interpolation-filters="sRGB">
<feFlood flood-opacity="0" result="BackgroundImageFix"/>
<feColorMatrix in="SourceAlpha" type="matrix" values="0 0 0 0 0 0 0 0 0 0 0 0 0 0 0 0 0 0 127 0" result="hardAlpha"/>
<feOffset dy="2"/>
<feGaussianBlur stdDeviation="2"/>
<feColorMatrix type="matrix" values="0 0 0 0 0 0 0 0 0 0 0 0 0 0 0 0 0 0 0.15 0"/>
<feBlend mode="normal" in2="BackgroundImageFix" result="effect1_dropShadow_1100_79532"/>
<feBlend mode="normal" in="SourceGraphic" in2="effect1_dropShadow_1100_79532" result="shape"/>
</filter>
<filter id="filter3_d_1100_79532" x="137" y="4" width="25.2896" height="20.4922" filterUnits="userSpaceOnUse" color-interpolation-filters="sRGB">
<feFlood flood-opacity="0" result="BackgroundImageFix"/>
<feColorMatrix in="SourceAlpha" type="matrix" values="0 0 0 0 0 0 0 0 0 0 0 0 0 0 0 0 0 0 127 0" result="hardAlpha"/>
<feOffset dy="2"/>
<feGaussianBlur stdDeviation="2"/>
<feColorMatrix type="matrix" values="0 0 0 0 0 0 0 0 0 0 0 0 0 0 0 0 0 0 0.15 0"/>
<feBlend mode="normal" in2="BackgroundImageFix" result="effect1_dropShadow_1100_79532"/>
<feBlend mode="normal" in="SourceGraphic" in2="effect1_dropShadow_1100_79532" result="shape"/>
</filter>
<filter id="filter4_d_1100_79532" x="171.237" y="4.39648" width="81.5562" height="18.3428" filterUnits="userSpaceOnUse" color-interpolation-filters="sRGB">
<feFlood flood-opacity="0" result="BackgroundImageFix"/>
<feColorMatrix in="SourceAlpha" type="matrix" values="0 0 0 0 0 0 0 0 0 0 0 0 0 0 0 0 0 0 127 0" result="hardAlpha"/>
<feOffset dy="2"/>
<feGaussianBlur stdDeviation="2"/>
<feColorMatrix type="matrix" values="0 0 0 0 0 0 0 0 0 0 0 0 0 0 0 0 0 0 0.15 0"/>
<feBlend mode="normal" in2="BackgroundImageFix" result="effect1_dropShadow_1100_79532"/>
<feBlend mode="normal" in="SourceGraphic" in2="effect1_dropShadow_1100_79532" result="shape"/>
</filter>
<filter id="filter5_d_1100_79532" x="260.868" y="4.39648" width="59.2065" height="18.3359" filterUnits="userSpaceOnUse" color-interpolation-filters="sRGB">
<feFlood flood-opacity="0" result="BackgroundImageFix"/>
<feColorMatrix in="SourceAlpha" type="matrix" values="0 0 0 0 0 0 0 0 0 0 0 0 0 0 0 0 0 0 127 0" result="hardAlpha"/>
<feOffset dy="2"/>
<feGaussianBlur stdDeviation="2"/>
<feColorMatrix type="matrix" values="0 0 0 0 0 0 0 0 0 0 0 0 0 0 0 0 0 0 0.15 0"/>
<feBlend mode="normal" in2="BackgroundImageFix" result="effect1_dropShadow_1100_79532"/>
<feBlend mode="normal" in="SourceGraphic" in2="effect1_dropShadow_1100_79532" result="shape"/>
</filter>
<clipPath id="clip0_1100_79532">
<rect width="322" height="24" fill="white"/>
</clipPath>
</defs>
</svg>
