<svg width="192" height="192" viewBox="0 0 192 192" fill="none" xmlns="http://www.w3.org/2000/svg">
<path d="M177.6 37.6201L153.24 93.0001C152.16 95.5201 149.16 96.6001 146.7 95.3401L119.16 81.5401C118.44 81.1801 117.54 81.6601 117.42 82.5001L115.5 99.6601C115.38 100.68 116.58 101.4 117.42 100.74L129.6 91.6201M124.8 71.2201L174.54 32.2801C175.62 31.4401 174.72 29.7601 173.4 30.1801L87.4804 58.8601C84.4204 59.8801 84.1204 64.0801 87.0004 65.5201L107.04 75.5401C107.64 75.8401 108.12 76.4401 108.3 77.1001L112.26 92.8201M100.8 104.82C86.4004 124.02 66.0004 138.42 48.0004 138.42C34.7404 138.42 24.0004 127.68 24.0004 114.42C24.0004 101.16 34.7404 90.4201 48.0004 90.4201C61.2604 90.4201 72.0004 101.16 72.0004 114.42C72.0004 143.22 38.4004 157.62 14.4004 162.42" stroke="url(#paint0_linear_4472_688431)" stroke-width="1.5" stroke-miterlimit="10" stroke-linecap="round" stroke-linejoin="round"/>
<defs>
<linearGradient id="paint0_linear_4472_688431" x1="96.0004" y1="30.1138" x2="96.0004" y2="162.42" gradientUnits="userSpaceOnUse">
<stop stop-color="#93C437"/>
<stop offset="1" stop-color="#279BE8"/>
</linearGradient>
</defs>
</svg>
