<svg width="32" height="32" viewBox="0 0 32 32" fill="none" xmlns="http://www.w3.org/2000/svg">
<path d="M29.0006 16.4993C28.9349 16.4993 28.8699 16.4864 28.8092 16.4613C28.7486 16.4362 28.6934 16.3993 28.647 16.3529C28.6005 16.3065 28.5637 16.2513 28.5386 16.1907C28.5135 16.13 28.5006 16.0649 28.5006 15.9993C28.5006 18.4715 27.7675 20.8883 26.394 22.9439C25.0205 24.9995 23.0682 26.6017 20.7842 27.5478C18.5001 28.4939 15.9868 28.7414 13.562 28.2591C11.1372 27.7768 8.90994 26.5863 7.16178 24.8381C5.41363 23.0899 4.22312 20.8627 3.7408 18.4379C3.25849 16.0131 3.50603 13.4998 4.45212 11.2157C5.39822 8.93165 7.00037 6.97942 9.05599 5.6059C11.1116 4.23238 13.5284 3.49927 16.0006 3.49927C15.868 3.49927 15.7408 3.44659 15.6471 3.35282C15.5533 3.25905 15.5006 3.13188 15.5006 2.99927C15.5006 2.86666 15.5533 2.73948 15.6471 2.64571C15.7408 2.55195 15.868 2.49927 16.0006 2.49927C13.3306 2.49927 10.7205 3.29103 8.50042 4.77443C6.28035 6.25783 4.55003 8.36624 3.52824 10.833C2.50646 13.2998 2.23911 16.0142 2.76002 18.633C3.28092 21.2517 4.56667 23.6572 6.45468 25.5452C8.34268 27.4332 10.7482 28.719 13.3669 29.2399C15.9856 29.7608 18.7 29.4934 21.1668 28.4716C23.6336 27.4499 25.7421 25.7195 27.2255 23.4995C28.7089 21.2794 29.5006 18.6693 29.5006 15.9993C29.5007 16.0649 29.4877 16.13 29.4626 16.1907C29.4375 16.2513 29.4007 16.3065 29.3543 16.3529C29.3078 16.3993 29.2527 16.4362 29.192 16.4613C29.1313 16.4864 29.0663 16.4993 29.0006 16.4993V16.4993Z" fill="white" fill-opacity="0.4"/>
<path d="M15.5006 2.99927C15.5006 3.06494 15.5135 3.12997 15.5386 3.19065C15.5637 3.25133 15.6005 3.30647 15.647 3.35291C15.6934 3.39934 15.7485 3.43617 15.8092 3.46129C15.8699 3.4864 15.9349 3.49931 16.0006 3.49927C19.3147 3.50299 22.4919 4.82115 24.8353 7.16455C27.1787 9.50795 28.4969 12.6852 28.5006 15.9993C28.5006 16.1319 28.5533 16.2591 28.6471 16.3528C28.7408 16.4466 28.868 16.4993 29.0006 16.4993C29.1332 16.4993 29.2604 16.4466 29.3542 16.3528C29.4479 16.2591 29.5006 16.1319 29.5006 15.9993C29.4967 12.42 28.0731 8.98854 25.5422 6.45764C23.0113 3.92675 19.5798 2.50318 16.0006 2.49927C15.9349 2.49923 15.8699 2.51214 15.8092 2.53725C15.7485 2.56236 15.6934 2.59919 15.647 2.64563C15.6005 2.69207 15.5637 2.7472 15.5386 2.80788C15.5135 2.86856 15.5006 2.9336 15.5006 2.99927V2.99927Z" fill="white" fill-opacity="0.95"/>
</svg>
