<svg width="48" height="48" viewBox="0 0 48 48" fill="none" xmlns="http://www.w3.org/2000/svg">
<path d="M43.5 25.125C43.2017 25.1249 42.9156 25.0064 42.7046 24.7954C42.4936 24.5844 42.3751 24.2983 42.375 24C42.375 27.6342 41.2973 31.1868 39.2783 34.2086C37.2592 37.2304 34.3894 39.5855 31.0318 40.9763C27.6742 42.367 23.9796 42.7309 20.4152 42.0219C16.8508 41.3129 13.5767 39.5629 11.0069 36.9931C8.43713 34.4233 6.68708 31.1492 5.97808 27.5848C5.26908 24.0204 5.63296 20.3258 7.02372 16.9682C8.41448 13.6106 10.7697 10.7408 13.7914 8.72175C16.8132 6.70268 20.3658 5.625 24 5.625C23.7016 5.625 23.4155 5.50647 23.2045 5.2955C22.9935 5.08452 22.875 4.79837 22.875 4.5C22.875 4.20163 22.9935 3.91548 23.2045 3.7045C23.4155 3.49353 23.7016 3.375 24 3.375C19.9208 3.375 15.9331 4.58463 12.5414 6.85094C9.14961 9.11724 6.50605 12.3384 4.94499 16.1072C3.38394 19.8759 2.97549 24.0229 3.77131 28.0237C4.56713 32.0246 6.53147 35.6996 9.41593 38.5841C12.3004 41.4685 15.9754 43.4329 19.9763 44.2287C23.9771 45.0245 28.1241 44.6161 31.8929 43.055C35.6616 41.494 38.8828 38.8504 41.1491 35.4586C43.4154 32.0669 44.625 28.0792 44.625 24C44.6249 24.2983 44.5064 24.5844 44.2954 24.7954C44.0845 25.0064 43.7984 25.1249 43.5 25.125V25.125Z" fill="#D1D3D4"/>
<path d="M22.875 4.5C22.8751 4.79834 22.9936 5.08445 23.2046 5.29541C23.4156 5.50637 23.7017 5.62492 24 5.625C28.8717 5.6304 33.5423 7.56807 36.9871 11.0129C40.4319 14.4577 42.3696 19.1283 42.375 24C42.375 24.2984 42.4935 24.5845 42.7045 24.7955C42.9155 25.0065 43.2016 25.125 43.5 25.125C43.7984 25.125 44.0845 25.0065 44.2955 24.7955C44.5065 24.5845 44.625 24.2984 44.625 24C44.6189 18.5318 42.444 13.2892 38.5774 9.42261C34.7108 5.55598 29.4682 3.38105 24 3.375C23.7017 3.37508 23.4156 3.49363 23.2046 3.70459C22.9936 3.91555 22.8751 4.20166 22.875 4.5Z" fill="#0F0F0F"/>
</svg>
