<svg width="52" height="44" viewBox="0 0 52 44" fill="none" xmlns="http://www.w3.org/2000/svg">
<rect width="52" height="44" rx="4" fill="white"/>
<path d="M25.4973 18.4663H26.6845L24.9584 23.8401H23.595L22.3021 19.7833L21.0092 23.8401H19.6699L17.9532 18.4663H19.1674L20.3921 22.5497L21.6774 18.4663H22.9674L24.2685 22.5722L25.4973 18.4663Z" fill="black"/>
<path d="M31.7738 21.5853H27.9245C27.9602 21.8623 28.0611 22.1261 28.2184 22.3537C28.3583 22.5525 28.5472 22.7092 28.7655 22.8078C28.988 22.9067 29.2283 22.9564 29.4707 22.9538C29.7394 22.9523 30.0058 22.9021 30.2576 22.8054C30.5187 22.7074 30.7624 22.5661 30.9793 22.387L31.5452 23.2232C31.2569 23.4828 30.9209 23.6802 30.5573 23.8039C30.1829 23.9245 29.7925 23.9839 29.4002 23.9801C28.9175 23.9894 28.4407 23.8685 28.0174 23.6295C27.6167 23.3988 27.2888 23.0544 27.073 22.6371C26.8457 22.2092 26.7321 21.7145 26.7321 21.153C26.7227 20.6416 26.8362 20.1358 27.0624 19.6805C27.2706 19.2656 27.5884 18.9199 27.9792 18.6832C28.3901 18.4406 28.8573 18.3176 29.3308 18.3272C29.7818 18.3187 30.2258 18.4421 30.6114 18.6832C30.9866 18.9248 31.2885 19.2698 31.4829 19.6792C31.6983 20.1368 31.8054 20.6404 31.7956 21.1488C31.7956 21.2602 31.7883 21.4057 31.7738 21.5853ZM30.6308 20.6934C30.5689 20.2744 30.4228 19.9491 30.1924 19.7174C29.962 19.4857 29.6682 19.3696 29.3109 19.3692C28.9226 19.3692 28.6113 19.4879 28.377 19.7253C28.1427 19.9626 27.9929 20.2855 27.9275 20.6941L30.6308 20.6934Z" fill="black"/>
<path d="M36.6417 18.6904C37.038 18.9332 37.363 19.2823 37.582 19.7004C37.8162 20.1462 37.9352 20.6466 37.9275 21.1536C37.9352 21.6605 37.8162 22.1609 37.582 22.6067C37.3631 23.0248 37.0381 23.3737 36.6417 23.6161C36.2422 23.8594 35.7857 23.9851 35.3218 23.9794C34.9972 23.9862 34.6755 23.9162 34.3815 23.7747C34.1113 23.6401 33.8747 23.4435 33.6898 23.2001V23.8395H32.552V16.1782H33.6898V19.107C33.8747 18.8634 34.1113 18.6666 34.3815 18.5318C34.6757 18.3906 34.9972 18.3206 35.3218 18.3271C35.7857 18.3217 36.2422 18.4474 36.6417 18.6904ZM36.0182 22.6455C36.2549 22.4955 36.4456 22.2794 36.5682 22.0224C36.6973 21.7521 36.7627 21.4542 36.7592 21.1529C36.7628 20.8517 36.6976 20.5539 36.5688 20.2835C36.4462 20.0266 36.2555 19.8107 36.0187 19.661C35.7679 19.5045 35.4791 19.4247 35.186 19.4309C34.8979 19.4253 34.614 19.5032 34.3668 19.6556C34.1295 19.804 33.9372 20.0177 33.8114 20.2726C33.6763 20.5449 33.6081 20.8472 33.6128 21.1529C33.608 21.4589 33.6762 21.7614 33.8114 22.0339C33.9374 22.2887 34.1297 22.5023 34.3668 22.6509C34.6141 22.8032 34.8979 22.8808 35.186 22.875C35.4797 22.8818 35.7692 22.8021 36.0205 22.6455H36.0182Z" fill="black"/>
<path d="M43.5723 21.5854H39.723C39.7586 21.8623 39.8595 22.1261 40.0168 22.3537C40.1569 22.5523 40.3457 22.709 40.5639 22.8078C40.7866 22.9065 41.0268 22.9562 41.2692 22.9538C41.5379 22.9523 41.8043 22.9021 42.0561 22.8054C42.3171 22.7076 42.5607 22.5662 42.7772 22.387L43.3413 23.2244C43.0527 23.484 42.7166 23.6814 42.3529 23.8051C41.9786 23.9257 41.5884 23.9852 41.1963 23.9813C40.714 23.99 40.238 23.8687 39.8152 23.6295C39.4145 23.3987 39.0865 23.0543 38.8702 22.6371C38.6434 22.2092 38.53 21.7145 38.53 21.153C38.5205 20.6417 38.6337 20.1358 38.8597 19.6805C39.068 19.2653 39.3863 18.9196 39.7776 18.6832C40.1885 18.4405 40.6557 18.3175 41.1293 18.3272C41.5802 18.3187 42.0243 18.4422 42.4099 18.6832C42.7855 18.924 43.0879 19.2687 43.2826 19.6781C43.4981 20.1355 43.6054 20.6391 43.5958 21.1476C43.5946 21.2598 43.5868 21.4057 43.5723 21.5854ZM42.4287 20.6935C42.3668 20.2745 42.2208 19.9491 41.9908 19.7174C41.7609 19.4857 41.4666 19.3696 41.1081 19.3692C40.7199 19.3692 40.4086 19.4879 40.1743 19.7253C39.94 19.9626 39.7904 20.2856 39.7253 20.6941L42.4287 20.6935Z" fill="black"/>
<path d="M49 23.8401H47.6007L46.2796 21.9721L44.9732 23.8401H43.635L45.6002 21.0972L43.6679 18.4663H45.0672L46.3407 20.261L47.6148 18.4663H48.96L47.0324 21.0857L49 23.8401Z" fill="black"/>
<path d="M41.8721 26.1265H41.3431V28.2972H41.8721V26.1265Z" fill="black"/>
<path d="M46.1586 26.7484C46.0218 26.6716 45.8684 26.6318 45.7126 26.6327C45.3682 26.6327 45.1296 26.8792 45.1296 27.2116C45.1296 27.5343 45.3582 27.791 45.7126 27.791C45.8683 27.7916 46.0216 27.7521 46.1586 27.676V28.2585C46.0017 28.3083 45.8386 28.3342 45.6744 28.3354C45.0767 28.3354 44.5525 27.9115 44.5525 27.2116C44.5525 26.5637 45.0273 26.0884 45.6744 26.0884C45.8386 26.0888 46.002 26.115 46.1586 26.1659V26.7484Z" fill="black"/>
<path d="M40.61 26.7484C40.473 26.6715 40.3194 26.6317 40.1634 26.6327C39.819 26.6327 39.581 26.8792 39.581 27.2116C39.581 27.5343 39.809 27.791 40.1634 27.791C40.3192 27.7914 40.4727 27.7518 40.61 27.676V28.2585C40.4529 28.3083 40.2896 28.3342 40.1252 28.3354C39.5275 28.3354 39.0033 27.9115 39.0033 27.2116C39.0033 26.5637 39.4781 26.0884 40.1252 26.0884C40.2897 26.0888 40.4532 26.1149 40.61 26.1659V26.7484Z" fill="black"/>
<path d="M47.831 26.6406C47.7582 26.6399 47.6861 26.6543 47.6189 26.6828C47.5516 26.7113 47.4906 26.7535 47.4394 26.8067C47.3882 26.8599 47.3478 26.9231 47.3207 26.9927C47.2936 27.0622 47.2803 27.1367 47.2815 27.2116C47.2801 27.2866 47.2933 27.3611 47.3204 27.4308C47.3474 27.5004 47.3877 27.5638 47.439 27.6171C47.4902 27.6703 47.5513 27.7126 47.6187 27.7411C47.686 27.7696 47.7582 27.7839 47.831 27.7832C47.9038 27.7838 47.976 27.7695 48.0433 27.7409C48.1107 27.7123 48.1718 27.6702 48.223 27.6169C48.2743 27.5637 48.3147 27.5003 48.3419 27.4307C48.369 27.3611 48.3824 27.2866 48.3811 27.2116C48.3822 27.1366 48.3688 27.0622 48.3417 26.9926C48.3145 26.9231 48.2741 26.8598 48.2229 26.8066C48.1716 26.7534 48.1105 26.7113 48.0432 26.6828C47.9759 26.6543 47.9038 26.6399 47.831 26.6406ZM48.9441 27.2116C48.9441 27.8328 48.4792 28.3354 47.831 28.3354C47.1828 28.3354 46.7185 27.8328 46.7185 27.2116C46.7185 26.5903 47.1834 26.0884 47.831 26.0884C48.4786 26.0884 48.9441 26.5915 48.9441 27.2116Z" fill="black"/>
<path d="M43.8883 26.62C43.7527 26.5816 43.6133 26.5595 43.4728 26.554C43.2601 26.554 43.1443 26.6272 43.1443 26.7314C43.1443 26.864 43.3006 26.913 43.3876 26.9385L43.5345 26.9863C43.8795 27.0995 44.0364 27.3429 44.0364 27.6075C44.0364 28.1525 43.5715 28.3341 43.1643 28.3341C42.9717 28.3318 42.7797 28.3115 42.5907 28.2736V27.774C42.754 27.8228 42.9227 27.8498 43.0926 27.8546C43.357 27.8546 43.4787 27.7752 43.4787 27.6517C43.4787 27.5421 43.3735 27.4786 43.2436 27.4356L43.1302 27.398C42.8363 27.3018 42.5872 27.1225 42.5872 26.7629C42.5872 26.3572 42.881 26.0847 43.3723 26.0847C43.5469 26.0872 43.7206 26.1104 43.8901 26.1537L43.8883 26.62Z" fill="black"/>
<path d="M35.2899 28.2899H35.059V26.124H35.3393V26.942C35.3953 26.8574 35.4715 26.789 35.5604 26.7432C35.6494 26.6974 35.7483 26.6758 35.8476 26.6805C35.945 26.6757 36.0419 26.6952 36.1303 26.7374C36.2187 26.7796 36.2959 26.8432 36.3554 26.9227C36.4624 27.0672 36.5158 27.2587 36.5158 27.4973C36.5158 27.7799 36.443 27.9964 36.2972 28.147C36.2355 28.2099 36.162 28.2592 36.0811 28.2917C36.0003 28.3243 35.9138 28.3396 35.8271 28.3365C35.7306 28.3416 35.6346 28.3211 35.5481 28.2768C35.4617 28.2326 35.3877 28.1662 35.3334 28.084L35.2899 28.2899ZM36.2238 27.4894C36.2238 27.2928 36.1761 27.1455 36.0809 27.0474C36.0422 27.007 35.9957 26.9753 35.9444 26.9545C35.8931 26.9336 35.8381 26.924 35.783 26.9263C35.7183 26.9236 35.6541 26.9365 35.5952 26.9642C35.5365 26.9919 35.4848 27.0335 35.4445 27.0855C35.3611 27.2019 35.3195 27.3444 35.3269 27.4888C35.3269 27.6892 35.3745 27.843 35.4703 27.949C35.5096 27.9947 35.5582 28.0308 35.6127 28.0548C35.6672 28.0787 35.7261 28.09 35.7853 28.0876C35.85 28.0914 35.9145 28.0781 35.9728 28.0491C36.031 28.0201 36.0812 27.9762 36.1186 27.9217C36.1894 27.82 36.2249 27.6759 36.2249 27.4894H36.2238Z" fill="black"/>
<path d="M38.0178 26.7253L37.4888 28.3105C37.4183 28.5212 37.3511 28.6647 37.2873 28.741C37.2512 28.7848 37.2062 28.8197 37.1553 28.843C37.1044 28.8664 37.0491 28.8777 36.9934 28.876C36.9323 28.8745 36.8715 28.8655 36.8124 28.8494V28.6133C36.8602 28.6263 36.9093 28.6334 36.9588 28.6345C36.9854 28.6358 37.0119 28.6306 37.0363 28.6194C37.0605 28.6081 37.0819 28.5911 37.0986 28.5697C37.1522 28.482 37.1945 28.3876 37.2244 28.2887H37.1339L36.5762 26.7241H36.8765L37.3061 28.0562L37.7351 26.7241L38.0178 26.7253Z" fill="black"/>
<path d="M6.74551 20.3417C6.86865 20.7877 7.03646 21.2193 7.24622 21.6296C7.34201 21.8112 7.43722 21.9929 7.61176 22.1073C7.6419 22.1268 7.67511 22.1408 7.7099 22.1485C7.96613 22.2048 8.10659 21.9923 8.19709 21.7979C8.33215 21.493 8.44128 21.1765 8.52326 20.8521C8.53912 20.7916 8.5544 20.731 8.56968 20.6705C8.59907 20.5548 8.62845 20.438 8.65314 20.3211L9.78443 17.2089C10.0192 16.8866 10.3236 16.6251 10.6734 16.4451C11.0234 16.2651 11.4091 16.1715 11.8002 16.1717C12.3637 16.168 12.9116 16.3624 13.3534 16.7227C14.0927 17.2991 14.5329 18.4344 14.5329 18.4344C14.5971 18.5822 14.6301 18.7424 14.6299 18.9043C14.6296 19.0542 14.6006 19.2027 14.5446 19.3411C14.4886 19.4795 14.4067 19.6052 14.3036 19.7111C14.2004 19.8169 14.0781 19.9007 13.9435 19.9578C13.8089 20.0149 13.6647 20.0441 13.5191 20.0438C13.3573 20.0437 13.1974 20.0069 13.0509 19.9361C12.9043 19.8652 12.7747 19.7621 12.6711 19.6339C12.6673 19.6297 12.6638 19.6253 12.6605 19.6206C12.5895 19.5217 12.5302 19.4144 12.4842 19.3009C12.4233 19.1584 12.355 19.0193 12.2798 18.8843C12.2398 18.8147 12.1951 18.7487 12.1486 18.6833C12.1095 18.6247 12.0628 18.5717 12.01 18.5258C11.9053 18.4392 11.7749 18.4047 11.6526 18.4792L11.635 18.4907C11.5098 18.5797 11.4217 18.7596 11.3606 18.8976C11.1843 19.2888 11.0826 19.6896 10.9833 20.1013C10.9639 20.1806 10.9457 20.26 10.9281 20.3399L10.4579 21.9142L9.79912 23.411C9.56315 23.7245 9.2612 23.9789 8.91602 24.1549C8.57084 24.3309 8.1914 24.4239 7.80628 24.427C6.20661 24.4621 5.44732 22.9738 5.44732 22.9738C4.53582 21.4334 4.26725 19.4014 4.20319 18.7517C4.18968 18.6167 4.18909 18.5361 4.18909 18.5361C4.18901 18.3326 4.24289 18.133 4.34491 17.9587C4.44693 17.7845 4.59321 17.6422 4.76796 17.5474C4.94864 17.453 5.14972 17.4078 5.35212 17.416C5.54043 17.4241 5.72364 17.4814 5.88456 17.5825C6.00945 17.6598 6.11749 17.7629 6.20191 17.8852C6.35235 18.1056 6.38585 18.3799 6.41641 18.6421C6.4796 19.2171 6.58969 19.7857 6.74551 20.3417Z" fill="url(#paint0_linear_1539_19076)"/>
<path d="M6.74551 20.3417C6.86865 20.7877 7.03646 21.2193 7.24622 21.6296C7.34201 21.8112 7.43722 21.9929 7.61176 22.1073C7.6419 22.1268 7.67511 22.1408 7.7099 22.1485C7.96613 22.2048 8.10659 21.9923 8.19709 21.7979C8.33215 21.493 8.44128 21.1765 8.52326 20.8521C8.53912 20.7916 8.5544 20.731 8.56968 20.6705C8.59907 20.5548 8.62845 20.438 8.65314 20.3211L9.78443 17.2089C10.0192 16.8866 10.3236 16.6251 10.6734 16.4451C11.0234 16.2651 11.4091 16.1715 11.8002 16.1717C12.3637 16.168 12.9116 16.3624 13.3534 16.7227C14.0927 17.2991 14.5329 18.4344 14.5329 18.4344C14.5971 18.5822 14.6301 18.7424 14.6299 18.9043C14.6296 19.0542 14.6006 19.2027 14.5446 19.3411C14.4886 19.4795 14.4067 19.6052 14.3036 19.7111C14.2004 19.8169 14.0781 19.9007 13.9435 19.9578C13.8089 20.0149 13.6647 20.0441 13.5191 20.0438C13.3573 20.0437 13.1974 20.0069 13.0509 19.9361C12.9043 19.8652 12.7747 19.7621 12.6711 19.6339C12.6673 19.6297 12.6638 19.6253 12.6605 19.6206C12.5895 19.5217 12.5302 19.4144 12.4842 19.3009C12.4233 19.1584 12.355 19.0193 12.2798 18.8843C12.2398 18.8147 12.1951 18.7487 12.1486 18.6833C12.1095 18.6247 12.0628 18.5717 12.01 18.5258C11.9053 18.4392 11.7749 18.4047 11.6526 18.4792L11.635 18.4907C11.5098 18.5797 11.4217 18.7596 11.3606 18.8976C11.1843 19.2888 11.0826 19.6896 10.9833 20.1013C10.9639 20.1806 10.9457 20.26 10.9281 20.3399L10.4579 21.9142L9.79912 23.411C9.56315 23.7245 9.2612 23.9789 8.91602 24.1549C8.57084 24.3309 8.1914 24.4239 7.80628 24.427C6.20661 24.4621 5.44732 22.9738 5.44732 22.9738C4.53582 21.4334 4.26725 19.4014 4.20319 18.7517C4.18968 18.6167 4.18909 18.5361 4.18909 18.5361C4.18901 18.3326 4.24289 18.133 4.34491 17.9587C4.44693 17.7845 4.59321 17.6422 4.76796 17.5474C4.94864 17.453 5.14972 17.4078 5.35212 17.416C5.54043 17.4241 5.72364 17.4814 5.88456 17.5825C6.00945 17.6598 6.11749 17.7629 6.20191 17.8852C6.35235 18.1056 6.38585 18.3799 6.41641 18.6421C6.4796 19.2171 6.58969 19.7857 6.74551 20.3417Z" fill="url(#paint1_radial_1539_19076)"/>
<path d="M6.74551 20.3417C6.86865 20.7877 7.03646 21.2193 7.24622 21.6296C7.34201 21.8112 7.43722 21.9929 7.61176 22.1073C7.6419 22.1268 7.67511 22.1408 7.7099 22.1485C7.96613 22.2048 8.10659 21.9923 8.19709 21.7979C8.33215 21.493 8.44128 21.1765 8.52326 20.8521C8.53912 20.7916 8.5544 20.731 8.56968 20.6705C8.59907 20.5548 8.62845 20.438 8.65314 20.3211L9.78443 17.2089C10.0192 16.8866 10.3236 16.6251 10.6734 16.4451C11.0234 16.2651 11.4091 16.1715 11.8002 16.1717C12.3637 16.168 12.9116 16.3624 13.3534 16.7227C14.0927 17.2991 14.5329 18.4344 14.5329 18.4344C14.5971 18.5822 14.6301 18.7424 14.6299 18.9043C14.6296 19.0542 14.6006 19.2027 14.5446 19.3411C14.4886 19.4795 14.4067 19.6052 14.3036 19.7111C14.2004 19.8169 14.0781 19.9007 13.9435 19.9578C13.8089 20.0149 13.6647 20.0441 13.5191 20.0438C13.3573 20.0437 13.1974 20.0069 13.0509 19.9361C12.9043 19.8652 12.7747 19.7621 12.6711 19.6339C12.6673 19.6297 12.6638 19.6253 12.6605 19.6206C12.5895 19.5217 12.5302 19.4144 12.4842 19.3009C12.4233 19.1584 12.355 19.0193 12.2798 18.8843C12.2398 18.8147 12.1951 18.7487 12.1486 18.6833C12.1095 18.6247 12.0628 18.5717 12.01 18.5258C11.9053 18.4392 11.7749 18.4047 11.6526 18.4792L11.635 18.4907C11.5098 18.5797 11.4217 18.7596 11.3606 18.8976C11.1843 19.2888 11.0826 19.6896 10.9833 20.1013C10.9639 20.1806 10.9457 20.26 10.9281 20.3399L10.4579 21.9142L9.79912 23.411C9.56315 23.7245 9.2612 23.9789 8.91602 24.1549C8.57084 24.3309 8.1914 24.4239 7.80628 24.427C6.20661 24.4621 5.44732 22.9738 5.44732 22.9738C4.53582 21.4334 4.26725 19.4014 4.20319 18.7517C4.18968 18.6167 4.18909 18.5361 4.18909 18.5361C4.18901 18.3326 4.24289 18.133 4.34491 17.9587C4.44693 17.7845 4.59321 17.6422 4.76796 17.5474C4.94864 17.453 5.14972 17.4078 5.35212 17.416C5.54043 17.4241 5.72364 17.4814 5.88456 17.5825C6.00945 17.6598 6.11749 17.7629 6.20191 17.8852C6.35235 18.1056 6.38585 18.3799 6.41641 18.6421C6.4796 19.2171 6.58969 19.7857 6.74551 20.3417Z" fill="url(#paint2_radial_1539_19076)"/>
<path d="M6.74551 20.3417C6.86865 20.7877 7.03646 21.2193 7.24622 21.6296C7.34201 21.8112 7.43722 21.9929 7.61176 22.1073C7.6419 22.1268 7.67511 22.1408 7.7099 22.1485C7.96613 22.2048 8.10659 21.9923 8.19709 21.7979C8.33215 21.493 8.44128 21.1765 8.52326 20.8521C8.53912 20.7916 8.5544 20.731 8.56968 20.6705C8.59907 20.5548 8.62845 20.438 8.65314 20.3211L9.78443 17.2089C10.0192 16.8866 10.3236 16.6251 10.6734 16.4451C11.0234 16.2651 11.4091 16.1715 11.8002 16.1717C12.3637 16.168 12.9116 16.3624 13.3534 16.7227C14.0927 17.2991 14.5329 18.4344 14.5329 18.4344C14.5971 18.5822 14.6301 18.7424 14.6299 18.9043C14.6296 19.0542 14.6006 19.2027 14.5446 19.3411C14.4886 19.4795 14.4067 19.6052 14.3036 19.7111C14.2004 19.8169 14.0781 19.9007 13.9435 19.9578C13.8089 20.0149 13.6647 20.0441 13.5191 20.0438C13.3573 20.0437 13.1974 20.0069 13.0509 19.9361C12.9043 19.8652 12.7747 19.7621 12.6711 19.6339C12.6673 19.6297 12.6638 19.6253 12.6605 19.6206C12.5895 19.5217 12.5302 19.4144 12.4842 19.3009C12.4233 19.1584 12.355 19.0193 12.2798 18.8843C12.2398 18.8147 12.1951 18.7487 12.1486 18.6833C12.1095 18.6247 12.0628 18.5717 12.01 18.5258C11.9053 18.4392 11.7749 18.4047 11.6526 18.4792L11.635 18.4907C11.5098 18.5797 11.4217 18.7596 11.3606 18.8976C11.1843 19.2888 11.0826 19.6896 10.9833 20.1013C10.9639 20.1806 10.9457 20.26 10.9281 20.3399L10.4579 21.9142L9.79912 23.411C9.56315 23.7245 9.2612 23.9789 8.91602 24.1549C8.57084 24.3309 8.1914 24.4239 7.80628 24.427C6.20661 24.4621 5.44732 22.9738 5.44732 22.9738C4.53582 21.4334 4.26725 19.4014 4.20319 18.7517C4.18968 18.6167 4.18909 18.5361 4.18909 18.5361C4.18901 18.3326 4.24289 18.133 4.34491 17.9587C4.44693 17.7845 4.59321 17.6422 4.76796 17.5474C4.94864 17.453 5.14972 17.4078 5.35212 17.416C5.54043 17.4241 5.72364 17.4814 5.88456 17.5825C6.00945 17.6598 6.11749 17.7629 6.20191 17.8852C6.35235 18.1056 6.38585 18.3799 6.41641 18.6421C6.4796 19.2171 6.58969 19.7857 6.74551 20.3417Z" fill="url(#paint3_radial_1539_19076)"/>
<path d="M6.74551 20.3417C6.86865 20.7877 7.03646 21.2193 7.24622 21.6296C7.34201 21.8112 7.43722 21.9929 7.61176 22.1073C7.6419 22.1268 7.67511 22.1408 7.7099 22.1485C7.96613 22.2048 8.10659 21.9923 8.19709 21.7979C8.33215 21.493 8.44128 21.1765 8.52326 20.8521C8.53912 20.7916 8.5544 20.731 8.56968 20.6705C8.59907 20.5548 8.62845 20.438 8.65314 20.3211L9.78443 17.2089C10.0192 16.8866 10.3236 16.6251 10.6734 16.4451C11.0234 16.2651 11.4091 16.1715 11.8002 16.1717C12.3637 16.168 12.9116 16.3624 13.3534 16.7227C14.0927 17.2991 14.5329 18.4344 14.5329 18.4344C14.5971 18.5822 14.6301 18.7424 14.6299 18.9043C14.6296 19.0542 14.6006 19.2027 14.5446 19.3411C14.4886 19.4795 14.4067 19.6052 14.3036 19.7111C14.2004 19.8169 14.0781 19.9007 13.9435 19.9578C13.8089 20.0149 13.6647 20.0441 13.5191 20.0438C13.3573 20.0437 13.1974 20.0069 13.0509 19.9361C12.9043 19.8652 12.7747 19.7621 12.6711 19.6339C12.6673 19.6297 12.6638 19.6253 12.6605 19.6206C12.5895 19.5217 12.5302 19.4144 12.4842 19.3009C12.4233 19.1584 12.355 19.0193 12.2798 18.8843C12.2398 18.8147 12.1951 18.7487 12.1486 18.6833C12.1095 18.6247 12.0628 18.5717 12.01 18.5258C11.9053 18.4392 11.7749 18.4047 11.6526 18.4792L11.635 18.4907C11.5098 18.5797 11.4217 18.7596 11.3606 18.8976C11.1843 19.2888 11.0826 19.6896 10.9833 20.1013C10.9639 20.1806 10.9457 20.26 10.9281 20.3399L10.4579 21.9142L9.79912 23.411C9.56315 23.7245 9.2612 23.9789 8.91602 24.1549C8.57084 24.3309 8.1914 24.4239 7.80628 24.427C6.20661 24.4621 5.44732 22.9738 5.44732 22.9738C4.53582 21.4334 4.26725 19.4014 4.20319 18.7517C4.18968 18.6167 4.18909 18.5361 4.18909 18.5361C4.18901 18.3326 4.24289 18.133 4.34491 17.9587C4.44693 17.7845 4.59321 17.6422 4.76796 17.5474C4.94864 17.453 5.14972 17.4078 5.35212 17.416C5.54043 17.4241 5.72364 17.4814 5.88456 17.5825C6.00945 17.6598 6.11749 17.7629 6.20191 17.8852C6.35235 18.1056 6.38585 18.3799 6.41641 18.6421C6.4796 19.2171 6.58969 19.7857 6.74551 20.3417Z" fill="url(#paint4_radial_1539_19076)"/>
<path d="M6.74551 20.3417C6.86865 20.7877 7.03646 21.2193 7.24622 21.6296C7.34201 21.8112 7.43722 21.9929 7.61176 22.1073C7.6419 22.1268 7.67511 22.1408 7.7099 22.1485C7.96613 22.2048 8.10659 21.9923 8.19709 21.7979C8.33215 21.493 8.44128 21.1765 8.52326 20.8521C8.53912 20.7916 8.5544 20.731 8.56968 20.6705C8.59907 20.5548 8.62845 20.438 8.65314 20.3211L9.78443 17.2089C10.0192 16.8866 10.3236 16.6251 10.6734 16.4451C11.0234 16.2651 11.4091 16.1715 11.8002 16.1717C12.3637 16.168 12.9116 16.3624 13.3534 16.7227C14.0927 17.2991 14.5329 18.4344 14.5329 18.4344C14.5971 18.5822 14.6301 18.7424 14.6299 18.9043C14.6296 19.0542 14.6006 19.2027 14.5446 19.3411C14.4886 19.4795 14.4067 19.6052 14.3036 19.7111C14.2004 19.8169 14.0781 19.9007 13.9435 19.9578C13.8089 20.0149 13.6647 20.0441 13.5191 20.0438C13.3573 20.0437 13.1974 20.0069 13.0509 19.9361C12.9043 19.8652 12.7747 19.7621 12.6711 19.6339C12.6673 19.6297 12.6638 19.6253 12.6605 19.6206C12.5895 19.5217 12.5302 19.4144 12.4842 19.3009C12.4233 19.1584 12.355 19.0193 12.2798 18.8843C12.2398 18.8147 12.1951 18.7487 12.1486 18.6833C12.1095 18.6247 12.0628 18.5717 12.01 18.5258C11.9053 18.4392 11.7749 18.4047 11.6526 18.4792L11.635 18.4907C11.5098 18.5797 11.4217 18.7596 11.3606 18.8976C11.1843 19.2888 11.0826 19.6896 10.9833 20.1013C10.9639 20.1806 10.9457 20.26 10.9281 20.3399L10.4579 21.9142L9.79912 23.411C9.56315 23.7245 9.2612 23.9789 8.91602 24.1549C8.57084 24.3309 8.1914 24.4239 7.80628 24.427C6.20661 24.4621 5.44732 22.9738 5.44732 22.9738C4.53582 21.4334 4.26725 19.4014 4.20319 18.7517C4.18968 18.6167 4.18909 18.5361 4.18909 18.5361C4.18901 18.3326 4.24289 18.133 4.34491 17.9587C4.44693 17.7845 4.59321 17.6422 4.76796 17.5474C4.94864 17.453 5.14972 17.4078 5.35212 17.416C5.54043 17.4241 5.72364 17.4814 5.88456 17.5825C6.00945 17.6598 6.11749 17.7629 6.20191 17.8852C6.35235 18.1056 6.38585 18.3799 6.41641 18.6421C6.4796 19.2171 6.58969 19.7857 6.74551 20.3417Z" fill="url(#paint5_radial_1539_19076)"/>
<path d="M6.74551 20.3417C6.86865 20.7877 7.03646 21.2193 7.24622 21.6296C7.34201 21.8112 7.43722 21.9929 7.61176 22.1073C7.6419 22.1268 7.67511 22.1408 7.7099 22.1485C7.96613 22.2048 8.10659 21.9923 8.19709 21.7979C8.33215 21.493 8.44128 21.1765 8.52326 20.8521C8.53912 20.7916 8.5544 20.731 8.56968 20.6705C8.59907 20.5548 8.62845 20.438 8.65314 20.3211L9.78443 17.2089C10.0192 16.8866 10.3236 16.6251 10.6734 16.4451C11.0234 16.2651 11.4091 16.1715 11.8002 16.1717C12.3637 16.168 12.9116 16.3624 13.3534 16.7227C14.0927 17.2991 14.5329 18.4344 14.5329 18.4344C14.5971 18.5822 14.6301 18.7424 14.6299 18.9043C14.6296 19.0542 14.6006 19.2027 14.5446 19.3411C14.4886 19.4795 14.4067 19.6052 14.3036 19.7111C14.2004 19.8169 14.0781 19.9007 13.9435 19.9578C13.8089 20.0149 13.6647 20.0441 13.5191 20.0438C13.3573 20.0437 13.1974 20.0069 13.0509 19.9361C12.9043 19.8652 12.7747 19.7621 12.6711 19.6339C12.6673 19.6297 12.6638 19.6253 12.6605 19.6206C12.5895 19.5217 12.5302 19.4144 12.4842 19.3009C12.4233 19.1584 12.355 19.0193 12.2798 18.8843C12.2398 18.8147 12.1951 18.7487 12.1486 18.6833C12.1095 18.6247 12.0628 18.5717 12.01 18.5258C11.9053 18.4392 11.7749 18.4047 11.6526 18.4792L11.635 18.4907C11.5098 18.5797 11.4217 18.7596 11.3606 18.8976C11.1843 19.2888 11.0826 19.6896 10.9833 20.1013C10.9639 20.1806 10.9457 20.26 10.9281 20.3399L10.4579 21.9142L9.79912 23.411C9.56315 23.7245 9.2612 23.9789 8.91602 24.1549C8.57084 24.3309 8.1914 24.4239 7.80628 24.427C6.20661 24.4621 5.44732 22.9738 5.44732 22.9738C4.53582 21.4334 4.26725 19.4014 4.20319 18.7517C4.18968 18.6167 4.18909 18.5361 4.18909 18.5361C4.18901 18.3326 4.24289 18.133 4.34491 17.9587C4.44693 17.7845 4.59321 17.6422 4.76796 17.5474C4.94864 17.453 5.14972 17.4078 5.35212 17.416C5.54043 17.4241 5.72364 17.4814 5.88456 17.5825C6.00945 17.6598 6.11749 17.7629 6.20191 17.8852C6.35235 18.1056 6.38585 18.3799 6.41641 18.6421C6.4796 19.2171 6.58969 19.7857 6.74551 20.3417Z" fill="url(#paint6_radial_1539_19076)"/>
<path d="M6.74551 20.3417C6.86865 20.7877 7.03646 21.2193 7.24622 21.6296C7.34201 21.8112 7.43722 21.9929 7.61176 22.1073C7.6419 22.1268 7.67511 22.1408 7.7099 22.1485C7.96613 22.2048 8.10659 21.9923 8.19709 21.7979C8.33215 21.493 8.44128 21.1765 8.52326 20.8521C8.53912 20.7916 8.5544 20.731 8.56968 20.6705C8.59907 20.5548 8.62845 20.438 8.65314 20.3211L9.78443 17.2089C10.0192 16.8866 10.3236 16.6251 10.6734 16.4451C11.0234 16.2651 11.4091 16.1715 11.8002 16.1717C12.3637 16.168 12.9116 16.3624 13.3534 16.7227C14.0927 17.2991 14.5329 18.4344 14.5329 18.4344C14.5971 18.5822 14.6301 18.7424 14.6299 18.9043C14.6296 19.0542 14.6006 19.2027 14.5446 19.3411C14.4886 19.4795 14.4067 19.6052 14.3036 19.7111C14.2004 19.8169 14.0781 19.9007 13.9435 19.9578C13.8089 20.0149 13.6647 20.0441 13.5191 20.0438C13.3573 20.0437 13.1974 20.0069 13.0509 19.9361C12.9043 19.8652 12.7747 19.7621 12.6711 19.6339C12.6673 19.6297 12.6638 19.6253 12.6605 19.6206C12.5895 19.5217 12.5302 19.4144 12.4842 19.3009C12.4233 19.1584 12.355 19.0193 12.2798 18.8843C12.2398 18.8147 12.1951 18.7487 12.1486 18.6833C12.1095 18.6247 12.0628 18.5717 12.01 18.5258C11.9053 18.4392 11.7749 18.4047 11.6526 18.4792L11.635 18.4907C11.5098 18.5797 11.4217 18.7596 11.3606 18.8976C11.1843 19.2888 11.0826 19.6896 10.9833 20.1013C10.9639 20.1806 10.9457 20.26 10.9281 20.3399L10.4579 21.9142L9.79912 23.411C9.56315 23.7245 9.2612 23.9789 8.91602 24.1549C8.57084 24.3309 8.1914 24.4239 7.80628 24.427C6.20661 24.4621 5.44732 22.9738 5.44732 22.9738C4.53582 21.4334 4.26725 19.4014 4.20319 18.7517C4.18968 18.6167 4.18909 18.5361 4.18909 18.5361C4.18901 18.3326 4.24289 18.133 4.34491 17.9587C4.44693 17.7845 4.59321 17.6422 4.76796 17.5474C4.94864 17.453 5.14972 17.4078 5.35212 17.416C5.54043 17.4241 5.72364 17.4814 5.88456 17.5825C6.00945 17.6598 6.11749 17.7629 6.20191 17.8852C6.35235 18.1056 6.38585 18.3799 6.41641 18.6421C6.4796 19.2171 6.58969 19.7857 6.74551 20.3417Z" fill="url(#paint7_radial_1539_19076)"/>
<path d="M6.74551 20.3417C6.86865 20.7877 7.03646 21.2193 7.24622 21.6296C7.34201 21.8112 7.43722 21.9929 7.61176 22.1073C7.6419 22.1268 7.67511 22.1408 7.7099 22.1485C7.96613 22.2048 8.10659 21.9923 8.19709 21.7979C8.33215 21.493 8.44128 21.1765 8.52326 20.8521C8.53912 20.7916 8.5544 20.731 8.56968 20.6705C8.59907 20.5548 8.62845 20.438 8.65314 20.3211L9.78443 17.2089C10.0192 16.8866 10.3236 16.6251 10.6734 16.4451C11.0234 16.2651 11.4091 16.1715 11.8002 16.1717C12.3637 16.168 12.9116 16.3624 13.3534 16.7227C14.0927 17.2991 14.5329 18.4344 14.5329 18.4344C14.5971 18.5822 14.6301 18.7424 14.6299 18.9043C14.6296 19.0542 14.6006 19.2027 14.5446 19.3411C14.4886 19.4795 14.4067 19.6052 14.3036 19.7111C14.2004 19.8169 14.0781 19.9007 13.9435 19.9578C13.8089 20.0149 13.6647 20.0441 13.5191 20.0438C13.3573 20.0437 13.1974 20.0069 13.0509 19.9361C12.9043 19.8652 12.7747 19.7621 12.6711 19.6339C12.6673 19.6297 12.6638 19.6253 12.6605 19.6206C12.5895 19.5217 12.5302 19.4144 12.4842 19.3009C12.4233 19.1584 12.355 19.0193 12.2798 18.8843C12.2398 18.8147 12.1951 18.7487 12.1486 18.6833C12.1095 18.6247 12.0628 18.5717 12.01 18.5258C11.9053 18.4392 11.7749 18.4047 11.6526 18.4792L11.635 18.4907C11.5098 18.5797 11.4217 18.7596 11.3606 18.8976C11.1843 19.2888 11.0826 19.6896 10.9833 20.1013C10.9639 20.1806 10.9457 20.26 10.9281 20.3399L10.4579 21.9142L9.79912 23.411C9.56315 23.7245 9.2612 23.9789 8.91602 24.1549C8.57084 24.3309 8.1914 24.4239 7.80628 24.427C6.20661 24.4621 5.44732 22.9738 5.44732 22.9738C4.53582 21.4334 4.26725 19.4014 4.20319 18.7517C4.18968 18.6167 4.18909 18.5361 4.18909 18.5361C4.18901 18.3326 4.24289 18.133 4.34491 17.9587C4.44693 17.7845 4.59321 17.6422 4.76796 17.5474C4.94864 17.453 5.14972 17.4078 5.35212 17.416C5.54043 17.4241 5.72364 17.4814 5.88456 17.5825C6.00945 17.6598 6.11749 17.7629 6.20191 17.8852C6.35235 18.1056 6.38585 18.3799 6.41641 18.6421C6.4796 19.2171 6.58969 19.7857 6.74551 20.3417Z" fill="url(#paint8_radial_1539_19076)"/>
<path d="M6.74551 20.3417C6.86865 20.7877 7.03646 21.2193 7.24622 21.6296C7.34201 21.8112 7.43722 21.9929 7.61176 22.1073C7.6419 22.1268 7.67511 22.1408 7.7099 22.1485C7.96613 22.2048 8.10659 21.9923 8.19709 21.7979C8.33215 21.493 8.44128 21.1765 8.52326 20.8521C8.53912 20.7916 8.5544 20.731 8.56968 20.6705C8.59907 20.5548 8.62845 20.438 8.65314 20.3211L9.78443 17.2089C10.0192 16.8866 10.3236 16.6251 10.6734 16.4451C11.0234 16.2651 11.4091 16.1715 11.8002 16.1717C12.3637 16.168 12.9116 16.3624 13.3534 16.7227C14.0927 17.2991 14.5329 18.4344 14.5329 18.4344C14.5971 18.5822 14.6301 18.7424 14.6299 18.9043C14.6296 19.0542 14.6006 19.2027 14.5446 19.3411C14.4886 19.4795 14.4067 19.6052 14.3036 19.7111C14.2004 19.8169 14.0781 19.9007 13.9435 19.9578C13.8089 20.0149 13.6647 20.0441 13.5191 20.0438C13.3573 20.0437 13.1974 20.0069 13.0509 19.9361C12.9043 19.8652 12.7747 19.7621 12.6711 19.6339C12.6673 19.6297 12.6638 19.6253 12.6605 19.6206C12.5895 19.5217 12.5302 19.4144 12.4842 19.3009C12.4233 19.1584 12.355 19.0193 12.2798 18.8843C12.2398 18.8147 12.1951 18.7487 12.1486 18.6833C12.1095 18.6247 12.0628 18.5717 12.01 18.5258C11.9053 18.4392 11.7749 18.4047 11.6526 18.4792L11.635 18.4907C11.5098 18.5797 11.4217 18.7596 11.3606 18.8976C11.1843 19.2888 11.0826 19.6896 10.9833 20.1013C10.9639 20.1806 10.9457 20.26 10.9281 20.3399L10.4579 21.9142L9.79912 23.411C9.56315 23.7245 9.2612 23.9789 8.91602 24.1549C8.57084 24.3309 8.1914 24.4239 7.80628 24.427C6.20661 24.4621 5.44732 22.9738 5.44732 22.9738C4.53582 21.4334 4.26725 19.4014 4.20319 18.7517C4.18968 18.6167 4.18909 18.5361 4.18909 18.5361C4.18901 18.3326 4.24289 18.133 4.34491 17.9587C4.44693 17.7845 4.59321 17.6422 4.76796 17.5474C4.94864 17.453 5.14972 17.4078 5.35212 17.416C5.54043 17.4241 5.72364 17.4814 5.88456 17.5825C6.00945 17.6598 6.11749 17.7629 6.20191 17.8852C6.35235 18.1056 6.38585 18.3799 6.41641 18.6421C6.4796 19.2171 6.58969 19.7857 6.74551 20.3417Z" fill="url(#paint9_radial_1539_19076)"/>
<path d="M6.74551 20.3417C6.86865 20.7877 7.03646 21.2193 7.24622 21.6296C7.34201 21.8112 7.43722 21.9929 7.61176 22.1073C7.6419 22.1268 7.67511 22.1408 7.7099 22.1485C7.96613 22.2048 8.10659 21.9923 8.19709 21.7979C8.33215 21.493 8.44128 21.1765 8.52326 20.8521C8.53912 20.7916 8.5544 20.731 8.56968 20.6705C8.59907 20.5548 8.62845 20.438 8.65314 20.3211L9.78443 17.2089C10.0192 16.8866 10.3236 16.6251 10.6734 16.4451C11.0234 16.2651 11.4091 16.1715 11.8002 16.1717C12.3637 16.168 12.9116 16.3624 13.3534 16.7227C14.0927 17.2991 14.5329 18.4344 14.5329 18.4344C14.5971 18.5822 14.6301 18.7424 14.6299 18.9043C14.6296 19.0542 14.6006 19.2027 14.5446 19.3411C14.4886 19.4795 14.4067 19.6052 14.3036 19.7111C14.2004 19.8169 14.0781 19.9007 13.9435 19.9578C13.8089 20.0149 13.6647 20.0441 13.5191 20.0438C13.3573 20.0437 13.1974 20.0069 13.0509 19.9361C12.9043 19.8652 12.7747 19.7621 12.6711 19.6339C12.6673 19.6297 12.6638 19.6253 12.6605 19.6206C12.5895 19.5217 12.5302 19.4144 12.4842 19.3009C12.4233 19.1584 12.355 19.0193 12.2798 18.8843C12.2398 18.8147 12.1951 18.7487 12.1486 18.6833C12.1095 18.6247 12.0628 18.5717 12.01 18.5258C11.9053 18.4392 11.7749 18.4047 11.6526 18.4792L11.635 18.4907C11.5098 18.5797 11.4217 18.7596 11.3606 18.8976C11.1843 19.2888 11.0826 19.6896 10.9833 20.1013C10.9639 20.1806 10.9457 20.26 10.9281 20.3399L10.4579 21.9142L9.79912 23.411C9.56315 23.7245 9.2612 23.9789 8.91602 24.1549C8.57084 24.3309 8.1914 24.4239 7.80628 24.427C6.20661 24.4621 5.44732 22.9738 5.44732 22.9738C4.53582 21.4334 4.26725 19.4014 4.20319 18.7517C4.18968 18.6167 4.18909 18.5361 4.18909 18.5361C4.18901 18.3326 4.24289 18.133 4.34491 17.9587C4.44693 17.7845 4.59321 17.6422 4.76796 17.5474C4.94864 17.453 5.14972 17.4078 5.35212 17.416C5.54043 17.4241 5.72364 17.4814 5.88456 17.5825C6.00945 17.6598 6.11749 17.7629 6.20191 17.8852C6.35235 18.1056 6.38585 18.3799 6.41641 18.6421C6.4796 19.2171 6.58969 19.7857 6.74551 20.3417Z" fill="url(#paint10_radial_1539_19076)"/>
<path d="M6.74551 20.3417C6.86865 20.7877 7.03646 21.2193 7.24622 21.6296C7.34201 21.8112 7.43722 21.9929 7.61176 22.1073C7.6419 22.1268 7.67511 22.1408 7.7099 22.1485C7.96613 22.2048 8.10659 21.9923 8.19709 21.7979C8.33215 21.493 8.44128 21.1765 8.52326 20.8521C8.53912 20.7916 8.5544 20.731 8.56968 20.6705C8.59907 20.5548 8.62845 20.438 8.65314 20.3211L9.78443 17.2089C10.0192 16.8866 10.3236 16.6251 10.6734 16.4451C11.0234 16.2651 11.4091 16.1715 11.8002 16.1717C12.3637 16.168 12.9116 16.3624 13.3534 16.7227C14.0927 17.2991 14.5329 18.4344 14.5329 18.4344C14.5971 18.5822 14.6301 18.7424 14.6299 18.9043C14.6296 19.0542 14.6006 19.2027 14.5446 19.3411C14.4886 19.4795 14.4067 19.6052 14.3036 19.7111C14.2004 19.8169 14.0781 19.9007 13.9435 19.9578C13.8089 20.0149 13.6647 20.0441 13.5191 20.0438C13.3573 20.0437 13.1974 20.0069 13.0509 19.9361C12.9043 19.8652 12.7747 19.7621 12.6711 19.6339C12.6673 19.6297 12.6638 19.6253 12.6605 19.6206C12.5895 19.5217 12.5302 19.4144 12.4842 19.3009C12.4233 19.1584 12.355 19.0193 12.2798 18.8843C12.2398 18.8147 12.1951 18.7487 12.1486 18.6833C12.1095 18.6247 12.0628 18.5717 12.01 18.5258C11.9053 18.4392 11.7749 18.4047 11.6526 18.4792L11.635 18.4907C11.5098 18.5797 11.4217 18.7596 11.3606 18.8976C11.1843 19.2888 11.0826 19.6896 10.9833 20.1013C10.9639 20.1806 10.9457 20.26 10.9281 20.3399L10.4579 21.9142L9.79912 23.411C9.56315 23.7245 9.2612 23.9789 8.91602 24.1549C8.57084 24.3309 8.1914 24.4239 7.80628 24.427C6.20661 24.4621 5.44732 22.9738 5.44732 22.9738C4.53582 21.4334 4.26725 19.4014 4.20319 18.7517C4.18968 18.6167 4.18909 18.5361 4.18909 18.5361C4.18901 18.3326 4.24289 18.133 4.34491 17.9587C4.44693 17.7845 4.59321 17.6422 4.76796 17.5474C4.94864 17.453 5.14972 17.4078 5.35212 17.416C5.54043 17.4241 5.72364 17.4814 5.88456 17.5825C6.00945 17.6598 6.11749 17.7629 6.20191 17.8852C6.35235 18.1056 6.38585 18.3799 6.41641 18.6421C6.4796 19.2171 6.58969 19.7857 6.74551 20.3417Z" fill="url(#paint11_radial_1539_19076)"/>
<path d="M6.74551 20.3417C6.86865 20.7877 7.03646 21.2193 7.24622 21.6296C7.34201 21.8112 7.43722 21.9929 7.61176 22.1073C7.6419 22.1268 7.67511 22.1408 7.7099 22.1485C7.96613 22.2048 8.10659 21.9923 8.19709 21.7979C8.33215 21.493 8.44128 21.1765 8.52326 20.8521C8.53912 20.7916 8.5544 20.731 8.56968 20.6705C8.59907 20.5548 8.62845 20.438 8.65314 20.3211L9.78443 17.2089C10.0192 16.8866 10.3236 16.6251 10.6734 16.4451C11.0234 16.2651 11.4091 16.1715 11.8002 16.1717C12.3637 16.168 12.9116 16.3624 13.3534 16.7227C14.0927 17.2991 14.5329 18.4344 14.5329 18.4344C14.5971 18.5822 14.6301 18.7424 14.6299 18.9043C14.6296 19.0542 14.6006 19.2027 14.5446 19.3411C14.4886 19.4795 14.4067 19.6052 14.3036 19.7111C14.2004 19.8169 14.0781 19.9007 13.9435 19.9578C13.8089 20.0149 13.6647 20.0441 13.5191 20.0438C13.3573 20.0437 13.1974 20.0069 13.0509 19.9361C12.9043 19.8652 12.7747 19.7621 12.6711 19.6339C12.6673 19.6297 12.6638 19.6253 12.6605 19.6206C12.5895 19.5217 12.5302 19.4144 12.4842 19.3009C12.4233 19.1584 12.355 19.0193 12.2798 18.8843C12.2398 18.8147 12.1951 18.7487 12.1486 18.6833C12.1095 18.6247 12.0628 18.5717 12.01 18.5258C11.9053 18.4392 11.7749 18.4047 11.6526 18.4792L11.635 18.4907C11.5098 18.5797 11.4217 18.7596 11.3606 18.8976C11.1843 19.2888 11.0826 19.6896 10.9833 20.1013C10.9639 20.1806 10.9457 20.26 10.9281 20.3399L10.4579 21.9142L9.79912 23.411C9.56315 23.7245 9.2612 23.9789 8.91602 24.1549C8.57084 24.3309 8.1914 24.4239 7.80628 24.427C6.20661 24.4621 5.44732 22.9738 5.44732 22.9738C4.53582 21.4334 4.26725 19.4014 4.20319 18.7517C4.18968 18.6167 4.18909 18.5361 4.18909 18.5361C4.18901 18.3326 4.24289 18.133 4.34491 17.9587C4.44693 17.7845 4.59321 17.6422 4.76796 17.5474C4.94864 17.453 5.14972 17.4078 5.35212 17.416C5.54043 17.4241 5.72364 17.4814 5.88456 17.5825C6.00945 17.6598 6.11749 17.7629 6.20191 17.8852C6.35235 18.1056 6.38585 18.3799 6.41641 18.6421C6.4796 19.2171 6.58969 19.7857 6.74551 20.3417Z" fill="url(#paint12_radial_1539_19076)"/>
<path d="M6.74551 20.3417C6.86865 20.7877 7.03646 21.2193 7.24622 21.6296C7.34201 21.8112 7.43722 21.9929 7.61176 22.1073C7.6419 22.1268 7.67511 22.1408 7.7099 22.1485C7.96613 22.2048 8.10659 21.9923 8.19709 21.7979C8.33215 21.493 8.44128 21.1765 8.52326 20.8521C8.53912 20.7916 8.5544 20.731 8.56968 20.6705C8.59907 20.5548 8.62845 20.438 8.65314 20.3211L9.78443 17.2089C10.0192 16.8866 10.3236 16.6251 10.6734 16.4451C11.0234 16.2651 11.4091 16.1715 11.8002 16.1717C12.3637 16.168 12.9116 16.3624 13.3534 16.7227C14.0927 17.2991 14.5329 18.4344 14.5329 18.4344C14.5971 18.5822 14.6301 18.7424 14.6299 18.9043C14.6296 19.0542 14.6006 19.2027 14.5446 19.3411C14.4886 19.4795 14.4067 19.6052 14.3036 19.7111C14.2004 19.8169 14.0781 19.9007 13.9435 19.9578C13.8089 20.0149 13.6647 20.0441 13.5191 20.0438C13.3573 20.0437 13.1974 20.0069 13.0509 19.9361C12.9043 19.8652 12.7747 19.7621 12.6711 19.6339C12.6673 19.6297 12.6638 19.6253 12.6605 19.6206C12.5895 19.5217 12.5302 19.4144 12.4842 19.3009C12.4233 19.1584 12.355 19.0193 12.2798 18.8843C12.2398 18.8147 12.1951 18.7487 12.1486 18.6833C12.1095 18.6247 12.0628 18.5717 12.01 18.5258C11.9053 18.4392 11.7749 18.4047 11.6526 18.4792L11.635 18.4907C11.5098 18.5797 11.4217 18.7596 11.3606 18.8976C11.1843 19.2888 11.0826 19.6896 10.9833 20.1013C10.9639 20.1806 10.9457 20.26 10.9281 20.3399L10.4579 21.9142L9.79912 23.411C9.56315 23.7245 9.2612 23.9789 8.91602 24.1549C8.57084 24.3309 8.1914 24.4239 7.80628 24.427C6.20661 24.4621 5.44732 22.9738 5.44732 22.9738C4.53582 21.4334 4.26725 19.4014 4.20319 18.7517C4.18968 18.6167 4.18909 18.5361 4.18909 18.5361C4.18901 18.3326 4.24289 18.133 4.34491 17.9587C4.44693 17.7845 4.59321 17.6422 4.76796 17.5474C4.94864 17.453 5.14972 17.4078 5.35212 17.416C5.54043 17.4241 5.72364 17.4814 5.88456 17.5825C6.00945 17.6598 6.11749 17.7629 6.20191 17.8852C6.35235 18.1056 6.38585 18.3799 6.41641 18.6421C6.4796 19.2171 6.58969 19.7857 6.74551 20.3417Z" fill="url(#paint13_radial_1539_19076)"/>
<path d="M6.74551 20.3417C6.86865 20.7877 7.03646 21.2193 7.24622 21.6296C7.34201 21.8112 7.43722 21.9929 7.61176 22.1073C7.6419 22.1268 7.67511 22.1408 7.7099 22.1485C7.96613 22.2048 8.10659 21.9923 8.19709 21.7979C8.33215 21.493 8.44128 21.1765 8.52326 20.8521C8.53912 20.7916 8.5544 20.731 8.56968 20.6705C8.59907 20.5548 8.62845 20.438 8.65314 20.3211L9.78443 17.2089C10.0192 16.8866 10.3236 16.6251 10.6734 16.4451C11.0234 16.2651 11.4091 16.1715 11.8002 16.1717C12.3637 16.168 12.9116 16.3624 13.3534 16.7227C14.0927 17.2991 14.5329 18.4344 14.5329 18.4344C14.5971 18.5822 14.6301 18.7424 14.6299 18.9043C14.6296 19.0542 14.6006 19.2027 14.5446 19.3411C14.4886 19.4795 14.4067 19.6052 14.3036 19.7111C14.2004 19.8169 14.0781 19.9007 13.9435 19.9578C13.8089 20.0149 13.6647 20.0441 13.5191 20.0438C13.3573 20.0437 13.1974 20.0069 13.0509 19.9361C12.9043 19.8652 12.7747 19.7621 12.6711 19.6339C12.6673 19.6297 12.6638 19.6253 12.6605 19.6206C12.5895 19.5217 12.5302 19.4144 12.4842 19.3009C12.4233 19.1584 12.355 19.0193 12.2798 18.8843C12.2398 18.8147 12.1951 18.7487 12.1486 18.6833C12.1095 18.6247 12.0628 18.5717 12.01 18.5258C11.9053 18.4392 11.7749 18.4047 11.6526 18.4792L11.635 18.4907C11.5098 18.5797 11.4217 18.7596 11.3606 18.8976C11.1843 19.2888 11.0826 19.6896 10.9833 20.1013C10.9639 20.1806 10.9457 20.26 10.9281 20.3399L10.4579 21.9142L9.79912 23.411C9.56315 23.7245 9.2612 23.9789 8.91602 24.1549C8.57084 24.3309 8.1914 24.4239 7.80628 24.427C6.20661 24.4621 5.44732 22.9738 5.44732 22.9738C4.53582 21.4334 4.26725 19.4014 4.20319 18.7517C4.18968 18.6167 4.18909 18.5361 4.18909 18.5361C4.18901 18.3326 4.24289 18.133 4.34491 17.9587C4.44693 17.7845 4.59321 17.6422 4.76796 17.5474C4.94864 17.453 5.14972 17.4078 5.35212 17.416C5.54043 17.4241 5.72364 17.4814 5.88456 17.5825C6.00945 17.6598 6.11749 17.7629 6.20191 17.8852C6.35235 18.1056 6.38585 18.3799 6.41641 18.6421C6.4796 19.2171 6.58969 19.7857 6.74551 20.3417Z" fill="url(#paint14_radial_1539_19076)"/>
<path d="M6.74551 20.3417C6.86865 20.7877 7.03646 21.2193 7.24622 21.6296C7.34201 21.8112 7.43722 21.9929 7.61176 22.1073C7.6419 22.1268 7.67511 22.1408 7.7099 22.1485C7.96613 22.2048 8.10659 21.9923 8.19709 21.7979C8.33215 21.493 8.44128 21.1765 8.52326 20.8521C8.53912 20.7916 8.5544 20.731 8.56968 20.6705C8.59907 20.5548 8.62845 20.438 8.65314 20.3211L9.78443 17.2089C10.0192 16.8866 10.3236 16.6251 10.6734 16.4451C11.0234 16.2651 11.4091 16.1715 11.8002 16.1717C12.3637 16.168 12.9116 16.3624 13.3534 16.7227C14.0927 17.2991 14.5329 18.4344 14.5329 18.4344C14.5971 18.5822 14.6301 18.7424 14.6299 18.9043C14.6296 19.0542 14.6006 19.2027 14.5446 19.3411C14.4886 19.4795 14.4067 19.6052 14.3036 19.7111C14.2004 19.8169 14.0781 19.9007 13.9435 19.9578C13.8089 20.0149 13.6647 20.0441 13.5191 20.0438C13.3573 20.0437 13.1974 20.0069 13.0509 19.9361C12.9043 19.8652 12.7747 19.7621 12.6711 19.6339C12.6673 19.6297 12.6638 19.6253 12.6605 19.6206C12.5895 19.5217 12.5302 19.4144 12.4842 19.3009C12.4233 19.1584 12.355 19.0193 12.2798 18.8843C12.2398 18.8147 12.1951 18.7487 12.1486 18.6833C12.1095 18.6247 12.0628 18.5717 12.01 18.5258C11.9053 18.4392 11.7749 18.4047 11.6526 18.4792L11.635 18.4907C11.5098 18.5797 11.4217 18.7596 11.3606 18.8976C11.1843 19.2888 11.0826 19.6896 10.9833 20.1013C10.9639 20.1806 10.9457 20.26 10.9281 20.3399L10.4579 21.9142L9.79912 23.411C9.56315 23.7245 9.2612 23.9789 8.91602 24.1549C8.57084 24.3309 8.1914 24.4239 7.80628 24.427C6.20661 24.4621 5.44732 22.9738 5.44732 22.9738C4.53582 21.4334 4.26725 19.4014 4.20319 18.7517C4.18968 18.6167 4.18909 18.5361 4.18909 18.5361C4.18901 18.3326 4.24289 18.133 4.34491 17.9587C4.44693 17.7845 4.59321 17.6422 4.76796 17.5474C4.94864 17.453 5.14972 17.4078 5.35212 17.416C5.54043 17.4241 5.72364 17.4814 5.88456 17.5825C6.00945 17.6598 6.11749 17.7629 6.20191 17.8852C6.35235 18.1056 6.38585 18.3799 6.41641 18.6421C6.4796 19.2171 6.58969 19.7857 6.74551 20.3417Z" fill="url(#paint15_radial_1539_19076)"/>
<path d="M6.74551 20.3417C6.86865 20.7877 7.03646 21.2193 7.24622 21.6296C7.34201 21.8112 7.43722 21.9929 7.61176 22.1073C7.6419 22.1268 7.67511 22.1408 7.7099 22.1485C7.96613 22.2048 8.10659 21.9923 8.19709 21.7979C8.33215 21.493 8.44128 21.1765 8.52326 20.8521C8.53912 20.7916 8.5544 20.731 8.56968 20.6705C8.59907 20.5548 8.62845 20.438 8.65314 20.3211L9.78443 17.2089C10.0192 16.8866 10.3236 16.6251 10.6734 16.4451C11.0234 16.2651 11.4091 16.1715 11.8002 16.1717C12.3637 16.168 12.9116 16.3624 13.3534 16.7227C14.0927 17.2991 14.5329 18.4344 14.5329 18.4344C14.5971 18.5822 14.6301 18.7424 14.6299 18.9043C14.6296 19.0542 14.6006 19.2027 14.5446 19.3411C14.4886 19.4795 14.4067 19.6052 14.3036 19.7111C14.2004 19.8169 14.0781 19.9007 13.9435 19.9578C13.8089 20.0149 13.6647 20.0441 13.5191 20.0438C13.3573 20.0437 13.1974 20.0069 13.0509 19.9361C12.9043 19.8652 12.7747 19.7621 12.6711 19.6339C12.6673 19.6297 12.6638 19.6253 12.6605 19.6206C12.5895 19.5217 12.5302 19.4144 12.4842 19.3009C12.4233 19.1584 12.355 19.0193 12.2798 18.8843C12.2398 18.8147 12.1951 18.7487 12.1486 18.6833C12.1095 18.6247 12.0628 18.5717 12.01 18.5258C11.9053 18.4392 11.7749 18.4047 11.6526 18.4792L11.635 18.4907C11.5098 18.5797 11.4217 18.7596 11.3606 18.8976C11.1843 19.2888 11.0826 19.6896 10.9833 20.1013C10.9639 20.1806 10.9457 20.26 10.9281 20.3399L10.4579 21.9142L9.79912 23.411C9.56315 23.7245 9.2612 23.9789 8.91602 24.1549C8.57084 24.3309 8.1914 24.4239 7.80628 24.427C6.20661 24.4621 5.44732 22.9738 5.44732 22.9738C4.53582 21.4334 4.26725 19.4014 4.20319 18.7517C4.18968 18.6167 4.18909 18.5361 4.18909 18.5361C4.18901 18.3326 4.24289 18.133 4.34491 17.9587C4.44693 17.7845 4.59321 17.6422 4.76796 17.5474C4.94864 17.453 5.14972 17.4078 5.35212 17.416C5.54043 17.4241 5.72364 17.4814 5.88456 17.5825C6.00945 17.6598 6.11749 17.7629 6.20191 17.8852C6.35235 18.1056 6.38585 18.3799 6.41641 18.6421C6.4796 19.2171 6.58969 19.7857 6.74551 20.3417Z" fill="url(#paint16_linear_1539_19076)"/>
<path d="M6.74551 20.3417C6.86865 20.7877 7.03646 21.2193 7.24622 21.6296C7.34201 21.8112 7.43722 21.9929 7.61176 22.1073C7.6419 22.1268 7.67511 22.1408 7.7099 22.1485C7.96613 22.2048 8.10659 21.9923 8.19709 21.7979C8.33215 21.493 8.44128 21.1765 8.52326 20.8521C8.53912 20.7916 8.5544 20.731 8.56968 20.6705C8.59907 20.5548 8.62845 20.438 8.65314 20.3211L9.78443 17.2089C10.0192 16.8866 10.3236 16.6251 10.6734 16.4451C11.0234 16.2651 11.4091 16.1715 11.8002 16.1717C12.3637 16.168 12.9116 16.3624 13.3534 16.7227C14.0927 17.2991 14.5329 18.4344 14.5329 18.4344C14.5971 18.5822 14.6301 18.7424 14.6299 18.9043C14.6296 19.0542 14.6006 19.2027 14.5446 19.3411C14.4886 19.4795 14.4067 19.6052 14.3036 19.7111C14.2004 19.8169 14.0781 19.9007 13.9435 19.9578C13.8089 20.0149 13.6647 20.0441 13.5191 20.0438C13.3573 20.0437 13.1974 20.0069 13.0509 19.9361C12.9043 19.8652 12.7747 19.7621 12.6711 19.6339C12.6673 19.6297 12.6638 19.6253 12.6605 19.6206C12.5895 19.5217 12.5302 19.4144 12.4842 19.3009C12.4233 19.1584 12.355 19.0193 12.2798 18.8843C12.2398 18.8147 12.1951 18.7487 12.1486 18.6833C12.1095 18.6247 12.0628 18.5717 12.01 18.5258C11.9053 18.4392 11.7749 18.4047 11.6526 18.4792L11.635 18.4907C11.5098 18.5797 11.4217 18.7596 11.3606 18.8976C11.1843 19.2888 11.0826 19.6896 10.9833 20.1013C10.9639 20.1806 10.9457 20.26 10.9281 20.3399L10.4579 21.9142L9.79912 23.411C9.56315 23.7245 9.2612 23.9789 8.91602 24.1549C8.57084 24.3309 8.1914 24.4239 7.80628 24.427C6.20661 24.4621 5.44732 22.9738 5.44732 22.9738C4.53582 21.4334 4.26725 19.4014 4.20319 18.7517C4.18968 18.6167 4.18909 18.5361 4.18909 18.5361C4.18901 18.3326 4.24289 18.133 4.34491 17.9587C4.44693 17.7845 4.59321 17.6422 4.76796 17.5474C4.94864 17.453 5.14972 17.4078 5.35212 17.416C5.54043 17.4241 5.72364 17.4814 5.88456 17.5825C6.00945 17.6598 6.11749 17.7629 6.20191 17.8852C6.35235 18.1056 6.38585 18.3799 6.41641 18.6421C6.4796 19.2171 6.58969 19.7857 6.74551 20.3417Z" fill="url(#paint17_linear_1539_19076)"/>
<path d="M6.74551 20.3417C6.86865 20.7877 7.03646 21.2193 7.24622 21.6296C7.34201 21.8112 7.43722 21.9929 7.61176 22.1073C7.6419 22.1268 7.67511 22.1408 7.7099 22.1485C7.96613 22.2048 8.10659 21.9923 8.19709 21.7979C8.33215 21.493 8.44128 21.1765 8.52326 20.8521C8.53912 20.7916 8.5544 20.731 8.56968 20.6705C8.59907 20.5548 8.62845 20.438 8.65314 20.3211L9.78443 17.2089C10.0192 16.8866 10.3236 16.6251 10.6734 16.4451C11.0234 16.2651 11.4091 16.1715 11.8002 16.1717C12.3637 16.168 12.9116 16.3624 13.3534 16.7227C14.0927 17.2991 14.5329 18.4344 14.5329 18.4344C14.5971 18.5822 14.6301 18.7424 14.6299 18.9043C14.6296 19.0542 14.6006 19.2027 14.5446 19.3411C14.4886 19.4795 14.4067 19.6052 14.3036 19.7111C14.2004 19.8169 14.0781 19.9007 13.9435 19.9578C13.8089 20.0149 13.6647 20.0441 13.5191 20.0438C13.3573 20.0437 13.1974 20.0069 13.0509 19.9361C12.9043 19.8652 12.7747 19.7621 12.6711 19.6339C12.6673 19.6297 12.6638 19.6253 12.6605 19.6206C12.5895 19.5217 12.5302 19.4144 12.4842 19.3009C12.4233 19.1584 12.355 19.0193 12.2798 18.8843C12.2398 18.8147 12.1951 18.7487 12.1486 18.6833C12.1095 18.6247 12.0628 18.5717 12.01 18.5258C11.9053 18.4392 11.7749 18.4047 11.6526 18.4792L11.635 18.4907C11.5098 18.5797 11.4217 18.7596 11.3606 18.8976C11.1843 19.2888 11.0826 19.6896 10.9833 20.1013C10.9639 20.1806 10.9457 20.26 10.9281 20.3399L10.4579 21.9142L9.79912 23.411C9.56315 23.7245 9.2612 23.9789 8.91602 24.1549C8.57084 24.3309 8.1914 24.4239 7.80628 24.427C6.20661 24.4621 5.44732 22.9738 5.44732 22.9738C4.53582 21.4334 4.26725 19.4014 4.20319 18.7517C4.18968 18.6167 4.18909 18.5361 4.18909 18.5361C4.18901 18.3326 4.24289 18.133 4.34491 17.9587C4.44693 17.7845 4.59321 17.6422 4.76796 17.5474C4.94864 17.453 5.14972 17.4078 5.35212 17.416C5.54043 17.4241 5.72364 17.4814 5.88456 17.5825C6.00945 17.6598 6.11749 17.7629 6.20191 17.8852C6.35235 18.1056 6.38585 18.3799 6.41641 18.6421C6.4796 19.2171 6.58969 19.7857 6.74551 20.3417Z" fill="url(#paint18_linear_1539_19076)"/>
<path d="M6.74551 20.3417C6.86865 20.7877 7.03646 21.2193 7.24622 21.6296C7.34201 21.8112 7.43722 21.9929 7.61176 22.1073C7.6419 22.1268 7.67511 22.1408 7.7099 22.1485C7.96613 22.2048 8.10659 21.9923 8.19709 21.7979C8.33215 21.493 8.44128 21.1765 8.52326 20.8521C8.53912 20.7916 8.5544 20.731 8.56968 20.6705C8.59907 20.5548 8.62845 20.438 8.65314 20.3211L9.78443 17.2089C10.0192 16.8866 10.3236 16.6251 10.6734 16.4451C11.0234 16.2651 11.4091 16.1715 11.8002 16.1717C12.3637 16.168 12.9116 16.3624 13.3534 16.7227C14.0927 17.2991 14.5329 18.4344 14.5329 18.4344C14.5971 18.5822 14.6301 18.7424 14.6299 18.9043C14.6296 19.0542 14.6006 19.2027 14.5446 19.3411C14.4886 19.4795 14.4067 19.6052 14.3036 19.7111C14.2004 19.8169 14.0781 19.9007 13.9435 19.9578C13.8089 20.0149 13.6647 20.0441 13.5191 20.0438C13.3573 20.0437 13.1974 20.0069 13.0509 19.9361C12.9043 19.8652 12.7747 19.7621 12.6711 19.6339C12.6673 19.6297 12.6638 19.6253 12.6605 19.6206C12.5895 19.5217 12.5302 19.4144 12.4842 19.3009C12.4233 19.1584 12.355 19.0193 12.2798 18.8843C12.2398 18.8147 12.1951 18.7487 12.1486 18.6833C12.1095 18.6247 12.0628 18.5717 12.01 18.5258C11.9053 18.4392 11.7749 18.4047 11.6526 18.4792L11.635 18.4907C11.5098 18.5797 11.4217 18.7596 11.3606 18.8976C11.1843 19.2888 11.0826 19.6896 10.9833 20.1013C10.9639 20.1806 10.9457 20.26 10.9281 20.3399L10.4579 21.9142L9.79912 23.411C9.56315 23.7245 9.2612 23.9789 8.91602 24.1549C8.57084 24.3309 8.1914 24.4239 7.80628 24.427C6.20661 24.4621 5.44732 22.9738 5.44732 22.9738C4.53582 21.4334 4.26725 19.4014 4.20319 18.7517C4.18968 18.6167 4.18909 18.5361 4.18909 18.5361C4.18901 18.3326 4.24289 18.133 4.34491 17.9587C4.44693 17.7845 4.59321 17.6422 4.76796 17.5474C4.94864 17.453 5.14972 17.4078 5.35212 17.416C5.54043 17.4241 5.72364 17.4814 5.88456 17.5825C6.00945 17.6598 6.11749 17.7629 6.20191 17.8852C6.35235 18.1056 6.38585 18.3799 6.41641 18.6421C6.4796 19.2171 6.58969 19.7857 6.74551 20.3417Z" fill="url(#paint19_linear_1539_19076)"/>
<path d="M9.06567 19.1872L9.78441 17.2096C10.0192 16.8874 10.3236 16.6259 10.6735 16.4458C11.0233 16.2658 11.4091 16.1722 11.8002 16.1724C12.3636 16.1688 12.9115 16.3631 13.3534 16.7234C14.0927 17.2998 14.5329 18.4351 14.5329 18.4351C14.5971 18.583 14.6301 18.7431 14.6299 18.905C14.6296 19.055 14.6006 19.2034 14.5446 19.3418C14.4886 19.4803 14.4067 19.606 14.3036 19.7118C14.2004 19.8176 14.0781 19.9014 13.9435 19.9585C13.8089 20.0156 13.6647 20.0449 13.5191 20.0445C13.3572 20.0444 13.1974 20.0077 13.0509 19.9368C12.9043 19.866 12.7747 19.7628 12.6711 19.6346C12.6673 19.6305 12.6637 19.626 12.6605 19.6213C12.5894 19.5225 12.5303 19.4151 12.4842 19.3016C12.4232 19.1591 12.355 19.0201 12.2797 18.885C12.2398 18.8154 12.1951 18.7494 12.1487 18.684C12.1094 18.6254 12.0627 18.5725 12.01 18.5266C11.9054 18.44 11.7749 18.4055 11.6527 18.4799L11.635 18.4914C11.5099 18.5805 11.4217 18.7603 11.3606 18.8983C11.1843 19.2895 11.0826 19.6903 10.9833 20.1021C10.9639 20.1814 10.9457 20.2607 10.928 20.3406L10.4579 21.9149L9.06567 19.1872Z" fill="url(#paint20_linear_1539_19076)"/>
<path d="M14.2873 17.4209C14.194 17.4207 14.101 17.4327 14.0105 17.4566C14.2164 17.7637 14.3915 18.0916 14.533 18.4351C14.5972 18.5829 14.6302 18.743 14.63 18.905C14.6297 19.0549 14.6007 19.2034 14.5447 19.3418C14.4887 19.4802 14.4068 19.6059 14.3037 19.7117C14.2005 19.8176 14.0782 19.9014 13.9435 19.9585C13.809 20.0156 13.6648 20.0448 13.5192 20.0445C13.3225 20.0441 13.1294 19.9898 12.9598 19.8871L12.8458 20.3212C12.6389 21.0339 12.4931 21.3094 12.4931 21.3094C12.4129 21.5026 12.3173 21.6887 12.2075 21.8658C12.1317 21.9815 12.0347 22.0977 11.9019 22.1419C11.8557 22.1585 11.8064 22.1635 11.758 22.1565C11.7055 22.1499 11.6549 22.1324 11.6093 22.105C11.5219 22.0373 11.4525 21.9482 11.4071 21.8458C11.3509 21.7322 11.3005 21.6155 11.2561 21.4965C11.1573 21.2506 11.0063 20.6451 11.0063 20.6451L10.8494 20.0112L10.6925 19.3724L10.5808 18.9528C10.287 17.8599 9.8803 17.3222 9.8803 17.3222C9.5605 16.8525 9.10743 16.4963 8.58328 16.3026C7.9762 16.0779 7.33856 16.2045 7.33856 16.2045C6.3395 16.4067 5.8147 17.1127 5.58374 17.4524C5.68945 17.4808 5.7906 17.5249 5.88405 17.5832C6.00894 17.6605 6.11698 17.7636 6.2014 17.8859C6.35184 18.1063 6.38534 18.3806 6.4159 18.6428C6.47786 19.2105 6.58558 19.7719 6.73795 20.3212C7.07646 19.1647 7.48255 18.6258 7.48255 18.6258C7.52792 18.5677 7.58233 18.5178 7.64357 18.4781C7.67545 18.4579 7.71109 18.4449 7.74818 18.4399C7.81691 18.4331 7.88586 18.4504 7.94388 18.489C7.9545 18.4962 7.96453 18.5043 7.97385 18.5132C8.02693 18.5617 8.07251 18.6183 8.10902 18.6809C8.19356 18.8366 8.26682 18.9985 8.32822 19.1653C8.45516 19.5335 8.5633 19.9833 8.5633 19.9833L8.88652 21.296C9.1216 22.1885 9.32082 22.6221 9.32082 22.6221C9.81095 23.7798 10.5614 24.1055 10.5614 24.1055C10.927 24.3068 11.3335 24.4163 11.748 24.4252C12.1455 24.4393 12.5405 24.3541 12.8992 24.177C13.2885 23.9789 13.6298 23.6936 13.8983 23.342C14.0799 23.1252 14.3467 22.5973 14.3467 22.5973C14.6418 21.9921 14.8733 21.3561 15.0372 20.7002C15.1426 20.2918 15.2269 19.8778 15.2899 19.4602C15.3217 19.2531 15.3516 19.0448 15.3751 18.8359C15.4056 18.6382 15.3999 18.4363 15.3581 18.2407C15.3493 18.2056 15.3386 18.171 15.3258 18.1372C15.2313 17.8918 15.0562 17.6884 14.8309 17.5626C14.664 17.4695 14.4772 17.4208 14.2873 17.4209Z" fill="url(#paint21_linear_1539_19076)"/>
<path d="M14.2873 17.4209C14.194 17.4207 14.101 17.4327 14.0105 17.4566C14.2164 17.7637 14.3915 18.0916 14.533 18.4351C14.5972 18.5829 14.6302 18.743 14.63 18.905C14.6297 19.0549 14.6007 19.2034 14.5447 19.3418C14.4887 19.4802 14.4068 19.6059 14.3037 19.7117C14.2005 19.8176 14.0782 19.9014 13.9435 19.9585C13.809 20.0156 13.6648 20.0448 13.5192 20.0445C13.3225 20.0441 13.1294 19.9898 12.9598 19.8871L12.8458 20.3212C12.6389 21.0339 12.4931 21.3094 12.4931 21.3094C12.4129 21.5026 12.3173 21.6887 12.2075 21.8658C12.1317 21.9815 12.0347 22.0977 11.9019 22.1419C11.8557 22.1585 11.8064 22.1635 11.758 22.1565C11.7055 22.1499 11.6549 22.1324 11.6093 22.105C11.5219 22.0373 11.4525 21.9482 11.4071 21.8458C11.3509 21.7322 11.3005 21.6155 11.2561 21.4965C11.1573 21.2506 11.0063 20.6451 11.0063 20.6451L10.8494 20.0112L10.6925 19.3724L10.5808 18.9528C10.287 17.8599 9.8803 17.3222 9.8803 17.3222C9.5605 16.8525 9.10743 16.4963 8.58328 16.3026C7.9762 16.0779 7.33856 16.2045 7.33856 16.2045C6.3395 16.4067 5.8147 17.1127 5.58374 17.4524C5.68945 17.4808 5.7906 17.5249 5.88405 17.5832C6.00894 17.6605 6.11698 17.7636 6.2014 17.8859C6.35184 18.1063 6.38534 18.3806 6.4159 18.6428C6.47786 19.2105 6.58558 19.7719 6.73795 20.3212C7.07646 19.1647 7.48255 18.6258 7.48255 18.6258C7.52792 18.5677 7.58233 18.5178 7.64357 18.4781C7.67545 18.4579 7.71109 18.4449 7.74818 18.4399C7.81691 18.4331 7.88586 18.4504 7.94388 18.489C7.9545 18.4962 7.96453 18.5043 7.97385 18.5132C8.02693 18.5617 8.07251 18.6183 8.10902 18.6809C8.19356 18.8366 8.26682 18.9985 8.32822 19.1653C8.45516 19.5335 8.5633 19.9833 8.5633 19.9833L8.88652 21.296C9.1216 22.1885 9.32082 22.6221 9.32082 22.6221C9.81095 23.7798 10.5614 24.1055 10.5614 24.1055C10.927 24.3068 11.3335 24.4163 11.748 24.4252C12.1455 24.4393 12.5405 24.3541 12.8992 24.177C13.2885 23.9789 13.6298 23.6936 13.8983 23.342C14.0799 23.1252 14.3467 22.5973 14.3467 22.5973C14.6418 21.9921 14.8733 21.3561 15.0372 20.7002C15.1426 20.2918 15.2269 19.8778 15.2899 19.4602C15.3217 19.2531 15.3516 19.0448 15.3751 18.8359C15.4056 18.6382 15.3999 18.4363 15.3581 18.2407C15.3493 18.2056 15.3386 18.171 15.3258 18.1372C15.2313 17.8918 15.0562 17.6884 14.8309 17.5626C14.664 17.4695 14.4772 17.4208 14.2873 17.4209Z" fill="url(#paint22_radial_1539_19076)"/>
<path d="M14.2873 17.4209C14.194 17.4207 14.101 17.4327 14.0105 17.4566C14.2164 17.7637 14.3915 18.0916 14.533 18.4351C14.5972 18.5829 14.6302 18.743 14.63 18.905C14.6297 19.0549 14.6007 19.2034 14.5447 19.3418C14.4887 19.4802 14.4068 19.6059 14.3037 19.7117C14.2005 19.8176 14.0782 19.9014 13.9435 19.9585C13.809 20.0156 13.6648 20.0448 13.5192 20.0445C13.3225 20.0441 13.1294 19.9898 12.9598 19.8871L12.8458 20.3212C12.6389 21.0339 12.4931 21.3094 12.4931 21.3094C12.4129 21.5026 12.3173 21.6887 12.2075 21.8658C12.1317 21.9815 12.0347 22.0977 11.9019 22.1419C11.8557 22.1585 11.8064 22.1635 11.758 22.1565C11.7055 22.1499 11.6549 22.1324 11.6093 22.105C11.5219 22.0373 11.4525 21.9482 11.4071 21.8458C11.3509 21.7322 11.3005 21.6155 11.2561 21.4965C11.1573 21.2506 11.0063 20.6451 11.0063 20.6451L10.8494 20.0112L10.6925 19.3724L10.5808 18.9528C10.287 17.8599 9.8803 17.3222 9.8803 17.3222C9.5605 16.8525 9.10743 16.4963 8.58328 16.3026C7.9762 16.0779 7.33856 16.2045 7.33856 16.2045C6.3395 16.4067 5.8147 17.1127 5.58374 17.4524C5.68945 17.4808 5.7906 17.5249 5.88405 17.5832C6.00894 17.6605 6.11698 17.7636 6.2014 17.8859C6.35184 18.1063 6.38534 18.3806 6.4159 18.6428C6.47786 19.2105 6.58558 19.7719 6.73795 20.3212C7.07646 19.1647 7.48255 18.6258 7.48255 18.6258C7.52792 18.5677 7.58233 18.5178 7.64357 18.4781C7.67545 18.4579 7.71109 18.4449 7.74818 18.4399C7.81691 18.4331 7.88586 18.4504 7.94388 18.489C7.9545 18.4962 7.96453 18.5043 7.97385 18.5132C8.02693 18.5617 8.07251 18.6183 8.10902 18.6809C8.19356 18.8366 8.26682 18.9985 8.32822 19.1653C8.45516 19.5335 8.5633 19.9833 8.5633 19.9833L8.88652 21.296C9.1216 22.1885 9.32082 22.6221 9.32082 22.6221C9.81095 23.7798 10.5614 24.1055 10.5614 24.1055C10.927 24.3068 11.3335 24.4163 11.748 24.4252C12.1455 24.4393 12.5405 24.3541 12.8992 24.177C13.2885 23.9789 13.6298 23.6936 13.8983 23.342C14.0799 23.1252 14.3467 22.5973 14.3467 22.5973C14.6418 21.9921 14.8733 21.3561 15.0372 20.7002C15.1426 20.2918 15.2269 19.8778 15.2899 19.4602C15.3217 19.2531 15.3516 19.0448 15.3751 18.8359C15.4056 18.6382 15.3999 18.4363 15.3581 18.2407C15.3493 18.2056 15.3386 18.171 15.3258 18.1372C15.2313 17.8918 15.0562 17.6884 14.8309 17.5626C14.664 17.4695 14.4772 17.4208 14.2873 17.4209Z" fill="url(#paint23_radial_1539_19076)"/>
<path d="M14.2873 17.4209C14.194 17.4207 14.101 17.4327 14.0105 17.4566C14.2164 17.7637 14.3915 18.0916 14.533 18.4351C14.5972 18.5829 14.6302 18.743 14.63 18.905C14.6297 19.0549 14.6007 19.2034 14.5447 19.3418C14.4887 19.4802 14.4068 19.6059 14.3037 19.7117C14.2005 19.8176 14.0782 19.9014 13.9435 19.9585C13.809 20.0156 13.6648 20.0448 13.5192 20.0445C13.3225 20.0441 13.1294 19.9898 12.9598 19.8871L12.8458 20.3212C12.6389 21.0339 12.4931 21.3094 12.4931 21.3094C12.4129 21.5026 12.3173 21.6887 12.2075 21.8658C12.1317 21.9815 12.0347 22.0977 11.9019 22.1419C11.8557 22.1585 11.8064 22.1635 11.758 22.1565C11.7055 22.1499 11.6549 22.1324 11.6093 22.105C11.5219 22.0373 11.4525 21.9482 11.4071 21.8458C11.3509 21.7322 11.3005 21.6155 11.2561 21.4965C11.1573 21.2506 11.0063 20.6451 11.0063 20.6451L10.8494 20.0112L10.6925 19.3724L10.5808 18.9528C10.287 17.8599 9.8803 17.3222 9.8803 17.3222C9.5605 16.8525 9.10743 16.4963 8.58328 16.3026C7.9762 16.0779 7.33856 16.2045 7.33856 16.2045C6.3395 16.4067 5.8147 17.1127 5.58374 17.4524C5.68945 17.4808 5.7906 17.5249 5.88405 17.5832C6.00894 17.6605 6.11698 17.7636 6.2014 17.8859C6.35184 18.1063 6.38534 18.3806 6.4159 18.6428C6.47786 19.2105 6.58558 19.7719 6.73795 20.3212C7.07646 19.1647 7.48255 18.6258 7.48255 18.6258C7.52792 18.5677 7.58233 18.5178 7.64357 18.4781C7.67545 18.4579 7.71109 18.4449 7.74818 18.4399C7.81691 18.4331 7.88586 18.4504 7.94388 18.489C7.9545 18.4962 7.96453 18.5043 7.97385 18.5132C8.02693 18.5617 8.07251 18.6183 8.10902 18.6809C8.19356 18.8366 8.26682 18.9985 8.32822 19.1653C8.45516 19.5335 8.5633 19.9833 8.5633 19.9833L8.88652 21.296C9.1216 22.1885 9.32082 22.6221 9.32082 22.6221C9.81095 23.7798 10.5614 24.1055 10.5614 24.1055C10.927 24.3068 11.3335 24.4163 11.748 24.4252C12.1455 24.4393 12.5405 24.3541 12.8992 24.177C13.2885 23.9789 13.6298 23.6936 13.8983 23.342C14.0799 23.1252 14.3467 22.5973 14.3467 22.5973C14.6418 21.9921 14.8733 21.3561 15.0372 20.7002C15.1426 20.2918 15.2269 19.8778 15.2899 19.4602C15.3217 19.2531 15.3516 19.0448 15.3751 18.8359C15.4056 18.6382 15.3999 18.4363 15.3581 18.2407C15.3493 18.2056 15.3386 18.171 15.3258 18.1372C15.2313 17.8918 15.0562 17.6884 14.8309 17.5626C14.664 17.4695 14.4772 17.4208 14.2873 17.4209Z" fill="url(#paint24_radial_1539_19076)"/>
<path d="M14.2873 17.4209C14.194 17.4207 14.101 17.4327 14.0105 17.4566C14.2164 17.7637 14.3915 18.0916 14.533 18.4351C14.5972 18.5829 14.6302 18.743 14.63 18.905C14.6297 19.0549 14.6007 19.2034 14.5447 19.3418C14.4887 19.4802 14.4068 19.6059 14.3037 19.7117C14.2005 19.8176 14.0782 19.9014 13.9435 19.9585C13.809 20.0156 13.6648 20.0448 13.5192 20.0445C13.3225 20.0441 13.1294 19.9898 12.9598 19.8871L12.8458 20.3212C12.6389 21.0339 12.4931 21.3094 12.4931 21.3094C12.4129 21.5026 12.3173 21.6887 12.2075 21.8658C12.1317 21.9815 12.0347 22.0977 11.9019 22.1419C11.8557 22.1585 11.8064 22.1635 11.758 22.1565C11.7055 22.1499 11.6549 22.1324 11.6093 22.105C11.5219 22.0373 11.4525 21.9482 11.4071 21.8458C11.3509 21.7322 11.3005 21.6155 11.2561 21.4965C11.1573 21.2506 11.0063 20.6451 11.0063 20.6451L10.8494 20.0112L10.6925 19.3724L10.5808 18.9528C10.287 17.8599 9.8803 17.3222 9.8803 17.3222C9.5605 16.8525 9.10743 16.4963 8.58328 16.3026C7.9762 16.0779 7.33856 16.2045 7.33856 16.2045C6.3395 16.4067 5.8147 17.1127 5.58374 17.4524C5.68945 17.4808 5.7906 17.5249 5.88405 17.5832C6.00894 17.6605 6.11698 17.7636 6.2014 17.8859C6.35184 18.1063 6.38534 18.3806 6.4159 18.6428C6.47786 19.2105 6.58558 19.7719 6.73795 20.3212C7.07646 19.1647 7.48255 18.6258 7.48255 18.6258C7.52792 18.5677 7.58233 18.5178 7.64357 18.4781C7.67545 18.4579 7.71109 18.4449 7.74818 18.4399C7.81691 18.4331 7.88586 18.4504 7.94388 18.489C7.9545 18.4962 7.96453 18.5043 7.97385 18.5132C8.02693 18.5617 8.07251 18.6183 8.10902 18.6809C8.19356 18.8366 8.26682 18.9985 8.32822 19.1653C8.45516 19.5335 8.5633 19.9833 8.5633 19.9833L8.88652 21.296C9.1216 22.1885 9.32082 22.6221 9.32082 22.6221C9.81095 23.7798 10.5614 24.1055 10.5614 24.1055C10.927 24.3068 11.3335 24.4163 11.748 24.4252C12.1455 24.4393 12.5405 24.3541 12.8992 24.177C13.2885 23.9789 13.6298 23.6936 13.8983 23.342C14.0799 23.1252 14.3467 22.5973 14.3467 22.5973C14.6418 21.9921 14.8733 21.3561 15.0372 20.7002C15.1426 20.2918 15.2269 19.8778 15.2899 19.4602C15.3217 19.2531 15.3516 19.0448 15.3751 18.8359C15.4056 18.6382 15.3999 18.4363 15.3581 18.2407C15.3493 18.2056 15.3386 18.171 15.3258 18.1372C15.2313 17.8918 15.0562 17.6884 14.8309 17.5626C14.664 17.4695 14.4772 17.4208 14.2873 17.4209Z" fill="url(#paint25_radial_1539_19076)"/>
<path d="M14.2873 17.4209C14.194 17.4207 14.101 17.4327 14.0105 17.4566C14.2164 17.7637 14.3915 18.0916 14.533 18.4351C14.5972 18.5829 14.6302 18.743 14.63 18.905C14.6297 19.0549 14.6007 19.2034 14.5447 19.3418C14.4887 19.4802 14.4068 19.6059 14.3037 19.7117C14.2005 19.8176 14.0782 19.9014 13.9435 19.9585C13.809 20.0156 13.6648 20.0448 13.5192 20.0445C13.3225 20.0441 13.1294 19.9898 12.9598 19.8871L12.8458 20.3212C12.6389 21.0339 12.4931 21.3094 12.4931 21.3094C12.4129 21.5026 12.3173 21.6887 12.2075 21.8658C12.1317 21.9815 12.0347 22.0977 11.9019 22.1419C11.8557 22.1585 11.8064 22.1635 11.758 22.1565C11.7055 22.1499 11.6549 22.1324 11.6093 22.105C11.5219 22.0373 11.4525 21.9482 11.4071 21.8458C11.3509 21.7322 11.3005 21.6155 11.2561 21.4965C11.1573 21.2506 11.0063 20.6451 11.0063 20.6451L10.8494 20.0112L10.6925 19.3724L10.5808 18.9528C10.287 17.8599 9.8803 17.3222 9.8803 17.3222C9.5605 16.8525 9.10743 16.4963 8.58328 16.3026C7.9762 16.0779 7.33856 16.2045 7.33856 16.2045C6.3395 16.4067 5.8147 17.1127 5.58374 17.4524C5.68945 17.4808 5.7906 17.5249 5.88405 17.5832C6.00894 17.6605 6.11698 17.7636 6.2014 17.8859C6.35184 18.1063 6.38534 18.3806 6.4159 18.6428C6.47786 19.2105 6.58558 19.7719 6.73795 20.3212C7.07646 19.1647 7.48255 18.6258 7.48255 18.6258C7.52792 18.5677 7.58233 18.5178 7.64357 18.4781C7.67545 18.4579 7.71109 18.4449 7.74818 18.4399C7.81691 18.4331 7.88586 18.4504 7.94388 18.489C7.9545 18.4962 7.96453 18.5043 7.97385 18.5132C8.02693 18.5617 8.07251 18.6183 8.10902 18.6809C8.19356 18.8366 8.26682 18.9985 8.32822 19.1653C8.45516 19.5335 8.5633 19.9833 8.5633 19.9833L8.88652 21.296C9.1216 22.1885 9.32082 22.6221 9.32082 22.6221C9.81095 23.7798 10.5614 24.1055 10.5614 24.1055C10.927 24.3068 11.3335 24.4163 11.748 24.4252C12.1455 24.4393 12.5405 24.3541 12.8992 24.177C13.2885 23.9789 13.6298 23.6936 13.8983 23.342C14.0799 23.1252 14.3467 22.5973 14.3467 22.5973C14.6418 21.9921 14.8733 21.3561 15.0372 20.7002C15.1426 20.2918 15.2269 19.8778 15.2899 19.4602C15.3217 19.2531 15.3516 19.0448 15.3751 18.8359C15.4056 18.6382 15.3999 18.4363 15.3581 18.2407C15.3493 18.2056 15.3386 18.171 15.3258 18.1372C15.2313 17.8918 15.0562 17.6884 14.8309 17.5626C14.664 17.4695 14.4772 17.4208 14.2873 17.4209Z" fill="url(#paint26_radial_1539_19076)"/>
<path d="M14.2873 17.4209C14.194 17.4207 14.101 17.4327 14.0105 17.4566C14.2164 17.7637 14.3915 18.0916 14.533 18.4351C14.5972 18.5829 14.6302 18.743 14.63 18.905C14.6297 19.0549 14.6007 19.2034 14.5447 19.3418C14.4887 19.4802 14.4068 19.6059 14.3037 19.7117C14.2005 19.8176 14.0782 19.9014 13.9435 19.9585C13.809 20.0156 13.6648 20.0448 13.5192 20.0445C13.3225 20.0441 13.1294 19.9898 12.9598 19.8871L12.8458 20.3212C12.6389 21.0339 12.4931 21.3094 12.4931 21.3094C12.4129 21.5026 12.3173 21.6887 12.2075 21.8658C12.1317 21.9815 12.0347 22.0977 11.9019 22.1419C11.8557 22.1585 11.8064 22.1635 11.758 22.1565C11.7055 22.1499 11.6549 22.1324 11.6093 22.105C11.5219 22.0373 11.4525 21.9482 11.4071 21.8458C11.3509 21.7322 11.3005 21.6155 11.2561 21.4965C11.1573 21.2506 11.0063 20.6451 11.0063 20.6451L10.8494 20.0112L10.6925 19.3724L10.5808 18.9528C10.287 17.8599 9.8803 17.3222 9.8803 17.3222C9.5605 16.8525 9.10743 16.4963 8.58328 16.3026C7.9762 16.0779 7.33856 16.2045 7.33856 16.2045C6.3395 16.4067 5.8147 17.1127 5.58374 17.4524C5.68945 17.4808 5.7906 17.5249 5.88405 17.5832C6.00894 17.6605 6.11698 17.7636 6.2014 17.8859C6.35184 18.1063 6.38534 18.3806 6.4159 18.6428C6.47786 19.2105 6.58558 19.7719 6.73795 20.3212C7.07646 19.1647 7.48255 18.6258 7.48255 18.6258C7.52792 18.5677 7.58233 18.5178 7.64357 18.4781C7.67545 18.4579 7.71109 18.4449 7.74818 18.4399C7.81691 18.4331 7.88586 18.4504 7.94388 18.489C7.9545 18.4962 7.96453 18.5043 7.97385 18.5132C8.02693 18.5617 8.07251 18.6183 8.10902 18.6809C8.19356 18.8366 8.26682 18.9985 8.32822 19.1653C8.45516 19.5335 8.5633 19.9833 8.5633 19.9833L8.88652 21.296C9.1216 22.1885 9.32082 22.6221 9.32082 22.6221C9.81095 23.7798 10.5614 24.1055 10.5614 24.1055C10.927 24.3068 11.3335 24.4163 11.748 24.4252C12.1455 24.4393 12.5405 24.3541 12.8992 24.177C13.2885 23.9789 13.6298 23.6936 13.8983 23.342C14.0799 23.1252 14.3467 22.5973 14.3467 22.5973C14.6418 21.9921 14.8733 21.3561 15.0372 20.7002C15.1426 20.2918 15.2269 19.8778 15.2899 19.4602C15.3217 19.2531 15.3516 19.0448 15.3751 18.8359C15.4056 18.6382 15.3999 18.4363 15.3581 18.2407C15.3493 18.2056 15.3386 18.171 15.3258 18.1372C15.2313 17.8918 15.0562 17.6884 14.8309 17.5626C14.664 17.4695 14.4772 17.4208 14.2873 17.4209Z" fill="url(#paint27_radial_1539_19076)"/>
<path d="M14.2873 17.4209C14.194 17.4207 14.101 17.4327 14.0105 17.4566C14.2164 17.7637 14.3915 18.0916 14.533 18.4351C14.5972 18.5829 14.6302 18.743 14.63 18.905C14.6297 19.0549 14.6007 19.2034 14.5447 19.3418C14.4887 19.4802 14.4068 19.6059 14.3037 19.7117C14.2005 19.8176 14.0782 19.9014 13.9435 19.9585C13.809 20.0156 13.6648 20.0448 13.5192 20.0445C13.3225 20.0441 13.1294 19.9898 12.9598 19.8871L12.8458 20.3212C12.6389 21.0339 12.4931 21.3094 12.4931 21.3094C12.4129 21.5026 12.3173 21.6887 12.2075 21.8658C12.1317 21.9815 12.0347 22.0977 11.9019 22.1419C11.8557 22.1585 11.8064 22.1635 11.758 22.1565C11.7055 22.1499 11.6549 22.1324 11.6093 22.105C11.5219 22.0373 11.4525 21.9482 11.4071 21.8458C11.3509 21.7322 11.3005 21.6155 11.2561 21.4965C11.1573 21.2506 11.0063 20.6451 11.0063 20.6451L10.8494 20.0112L10.6925 19.3724L10.5808 18.9528C10.287 17.8599 9.8803 17.3222 9.8803 17.3222C9.5605 16.8525 9.10743 16.4963 8.58328 16.3026C7.9762 16.0779 7.33856 16.2045 7.33856 16.2045C6.3395 16.4067 5.8147 17.1127 5.58374 17.4524C5.68945 17.4808 5.7906 17.5249 5.88405 17.5832C6.00894 17.6605 6.11698 17.7636 6.2014 17.8859C6.35184 18.1063 6.38534 18.3806 6.4159 18.6428C6.47786 19.2105 6.58558 19.7719 6.73795 20.3212C7.07646 19.1647 7.48255 18.6258 7.48255 18.6258C7.52792 18.5677 7.58233 18.5178 7.64357 18.4781C7.67545 18.4579 7.71109 18.4449 7.74818 18.4399C7.81691 18.4331 7.88586 18.4504 7.94388 18.489C7.9545 18.4962 7.96453 18.5043 7.97385 18.5132C8.02693 18.5617 8.07251 18.6183 8.10902 18.6809C8.19356 18.8366 8.26682 18.9985 8.32822 19.1653C8.45516 19.5335 8.5633 19.9833 8.5633 19.9833L8.88652 21.296C9.1216 22.1885 9.32082 22.6221 9.32082 22.6221C9.81095 23.7798 10.5614 24.1055 10.5614 24.1055C10.927 24.3068 11.3335 24.4163 11.748 24.4252C12.1455 24.4393 12.5405 24.3541 12.8992 24.177C13.2885 23.9789 13.6298 23.6936 13.8983 23.342C14.0799 23.1252 14.3467 22.5973 14.3467 22.5973C14.6418 21.9921 14.8733 21.3561 15.0372 20.7002C15.1426 20.2918 15.2269 19.8778 15.2899 19.4602C15.3217 19.2531 15.3516 19.0448 15.3751 18.8359C15.4056 18.6382 15.3999 18.4363 15.3581 18.2407C15.3493 18.2056 15.3386 18.171 15.3258 18.1372C15.2313 17.8918 15.0562 17.6884 14.8309 17.5626C14.664 17.4695 14.4772 17.4208 14.2873 17.4209Z" fill="url(#paint28_radial_1539_19076)"/>
<path d="M14.2873 17.4209C14.194 17.4207 14.101 17.4327 14.0105 17.4566C14.2164 17.7637 14.3915 18.0916 14.533 18.4351C14.5972 18.5829 14.6302 18.743 14.63 18.905C14.6297 19.0549 14.6007 19.2034 14.5447 19.3418C14.4887 19.4802 14.4068 19.6059 14.3037 19.7117C14.2005 19.8176 14.0782 19.9014 13.9435 19.9585C13.809 20.0156 13.6648 20.0448 13.5192 20.0445C13.3225 20.0441 13.1294 19.9898 12.9598 19.8871L12.8458 20.3212C12.6389 21.0339 12.4931 21.3094 12.4931 21.3094C12.4129 21.5026 12.3173 21.6887 12.2075 21.8658C12.1317 21.9815 12.0347 22.0977 11.9019 22.1419C11.8557 22.1585 11.8064 22.1635 11.758 22.1565C11.7055 22.1499 11.6549 22.1324 11.6093 22.105C11.5219 22.0373 11.4525 21.9482 11.4071 21.8458C11.3509 21.7322 11.3005 21.6155 11.2561 21.4965C11.1573 21.2506 11.0063 20.6451 11.0063 20.6451L10.8494 20.0112L10.6925 19.3724L10.5808 18.9528C10.287 17.8599 9.8803 17.3222 9.8803 17.3222C9.5605 16.8525 9.10743 16.4963 8.58328 16.3026C7.9762 16.0779 7.33856 16.2045 7.33856 16.2045C6.3395 16.4067 5.8147 17.1127 5.58374 17.4524C5.68945 17.4808 5.7906 17.5249 5.88405 17.5832C6.00894 17.6605 6.11698 17.7636 6.2014 17.8859C6.35184 18.1063 6.38534 18.3806 6.4159 18.6428C6.47786 19.2105 6.58558 19.7719 6.73795 20.3212C7.07646 19.1647 7.48255 18.6258 7.48255 18.6258C7.52792 18.5677 7.58233 18.5178 7.64357 18.4781C7.67545 18.4579 7.71109 18.4449 7.74818 18.4399C7.81691 18.4331 7.88586 18.4504 7.94388 18.489C7.9545 18.4962 7.96453 18.5043 7.97385 18.5132C8.02693 18.5617 8.07251 18.6183 8.10902 18.6809C8.19356 18.8366 8.26682 18.9985 8.32822 19.1653C8.45516 19.5335 8.5633 19.9833 8.5633 19.9833L8.88652 21.296C9.1216 22.1885 9.32082 22.6221 9.32082 22.6221C9.81095 23.7798 10.5614 24.1055 10.5614 24.1055C10.927 24.3068 11.3335 24.4163 11.748 24.4252C12.1455 24.4393 12.5405 24.3541 12.8992 24.177C13.2885 23.9789 13.6298 23.6936 13.8983 23.342C14.0799 23.1252 14.3467 22.5973 14.3467 22.5973C14.6418 21.9921 14.8733 21.3561 15.0372 20.7002C15.1426 20.2918 15.2269 19.8778 15.2899 19.4602C15.3217 19.2531 15.3516 19.0448 15.3751 18.8359C15.4056 18.6382 15.3999 18.4363 15.3581 18.2407C15.3493 18.2056 15.3386 18.171 15.3258 18.1372C15.2313 17.8918 15.0562 17.6884 14.8309 17.5626C14.664 17.4695 14.4772 17.4208 14.2873 17.4209Z" fill="url(#paint29_radial_1539_19076)"/>
<path d="M14.2873 17.4209C14.194 17.4207 14.101 17.4327 14.0105 17.4566C14.2164 17.7637 14.3915 18.0916 14.533 18.4351C14.5972 18.5829 14.6302 18.743 14.63 18.905C14.6297 19.0549 14.6007 19.2034 14.5447 19.3418C14.4887 19.4802 14.4068 19.6059 14.3037 19.7117C14.2005 19.8176 14.0782 19.9014 13.9435 19.9585C13.809 20.0156 13.6648 20.0448 13.5192 20.0445C13.3225 20.0441 13.1294 19.9898 12.9598 19.8871L12.8458 20.3212C12.6389 21.0339 12.4931 21.3094 12.4931 21.3094C12.4129 21.5026 12.3173 21.6887 12.2075 21.8658C12.1317 21.9815 12.0347 22.0977 11.9019 22.1419C11.8557 22.1585 11.8064 22.1635 11.758 22.1565C11.7055 22.1499 11.6549 22.1324 11.6093 22.105C11.5219 22.0373 11.4525 21.9482 11.4071 21.8458C11.3509 21.7322 11.3005 21.6155 11.2561 21.4965C11.1573 21.2506 11.0063 20.6451 11.0063 20.6451L10.8494 20.0112L10.6925 19.3724L10.5808 18.9528C10.287 17.8599 9.8803 17.3222 9.8803 17.3222C9.5605 16.8525 9.10743 16.4963 8.58328 16.3026C7.9762 16.0779 7.33856 16.2045 7.33856 16.2045C6.3395 16.4067 5.8147 17.1127 5.58374 17.4524C5.68945 17.4808 5.7906 17.5249 5.88405 17.5832C6.00894 17.6605 6.11698 17.7636 6.2014 17.8859C6.35184 18.1063 6.38534 18.3806 6.4159 18.6428C6.47786 19.2105 6.58558 19.7719 6.73795 20.3212C7.07646 19.1647 7.48255 18.6258 7.48255 18.6258C7.52792 18.5677 7.58233 18.5178 7.64357 18.4781C7.67545 18.4579 7.71109 18.4449 7.74818 18.4399C7.81691 18.4331 7.88586 18.4504 7.94388 18.489C7.9545 18.4962 7.96453 18.5043 7.97385 18.5132C8.02693 18.5617 8.07251 18.6183 8.10902 18.6809C8.19356 18.8366 8.26682 18.9985 8.32822 19.1653C8.45516 19.5335 8.5633 19.9833 8.5633 19.9833L8.88652 21.296C9.1216 22.1885 9.32082 22.6221 9.32082 22.6221C9.81095 23.7798 10.5614 24.1055 10.5614 24.1055C10.927 24.3068 11.3335 24.4163 11.748 24.4252C12.1455 24.4393 12.5405 24.3541 12.8992 24.177C13.2885 23.9789 13.6298 23.6936 13.8983 23.342C14.0799 23.1252 14.3467 22.5973 14.3467 22.5973C14.6418 21.9921 14.8733 21.3561 15.0372 20.7002C15.1426 20.2918 15.2269 19.8778 15.2899 19.4602C15.3217 19.2531 15.3516 19.0448 15.3751 18.8359C15.4056 18.6382 15.3999 18.4363 15.3581 18.2407C15.3493 18.2056 15.3386 18.171 15.3258 18.1372C15.2313 17.8918 15.0562 17.6884 14.8309 17.5626C14.664 17.4695 14.4772 17.4208 14.2873 17.4209Z" fill="url(#paint30_radial_1539_19076)"/>
<path d="M14.2873 17.4209C14.194 17.4207 14.101 17.4327 14.0105 17.4566C14.2164 17.7637 14.3915 18.0916 14.533 18.4351C14.5972 18.5829 14.6302 18.743 14.63 18.905C14.6297 19.0549 14.6007 19.2034 14.5447 19.3418C14.4887 19.4802 14.4068 19.6059 14.3037 19.7117C14.2005 19.8176 14.0782 19.9014 13.9435 19.9585C13.809 20.0156 13.6648 20.0448 13.5192 20.0445C13.3225 20.0441 13.1294 19.9898 12.9598 19.8871L12.8458 20.3212C12.6389 21.0339 12.4931 21.3094 12.4931 21.3094C12.4129 21.5026 12.3173 21.6887 12.2075 21.8658C12.1317 21.9815 12.0347 22.0977 11.9019 22.1419C11.8557 22.1585 11.8064 22.1635 11.758 22.1565C11.7055 22.1499 11.6549 22.1324 11.6093 22.105C11.5219 22.0373 11.4525 21.9482 11.4071 21.8458C11.3509 21.7322 11.3005 21.6155 11.2561 21.4965C11.1573 21.2506 11.0063 20.6451 11.0063 20.6451L10.8494 20.0112L10.6925 19.3724L10.5808 18.9528C10.287 17.8599 9.8803 17.3222 9.8803 17.3222C9.5605 16.8525 9.10743 16.4963 8.58328 16.3026C7.9762 16.0779 7.33856 16.2045 7.33856 16.2045C6.3395 16.4067 5.8147 17.1127 5.58374 17.4524C5.68945 17.4808 5.7906 17.5249 5.88405 17.5832C6.00894 17.6605 6.11698 17.7636 6.2014 17.8859C6.35184 18.1063 6.38534 18.3806 6.4159 18.6428C6.47786 19.2105 6.58558 19.7719 6.73795 20.3212C7.07646 19.1647 7.48255 18.6258 7.48255 18.6258C7.52792 18.5677 7.58233 18.5178 7.64357 18.4781C7.67545 18.4579 7.71109 18.4449 7.74818 18.4399C7.81691 18.4331 7.88586 18.4504 7.94388 18.489C7.9545 18.4962 7.96453 18.5043 7.97385 18.5132C8.02693 18.5617 8.07251 18.6183 8.10902 18.6809C8.19356 18.8366 8.26682 18.9985 8.32822 19.1653C8.45516 19.5335 8.5633 19.9833 8.5633 19.9833L8.88652 21.296C9.1216 22.1885 9.32082 22.6221 9.32082 22.6221C9.81095 23.7798 10.5614 24.1055 10.5614 24.1055C10.927 24.3068 11.3335 24.4163 11.748 24.4252C12.1455 24.4393 12.5405 24.3541 12.8992 24.177C13.2885 23.9789 13.6298 23.6936 13.8983 23.342C14.0799 23.1252 14.3467 22.5973 14.3467 22.5973C14.6418 21.9921 14.8733 21.3561 15.0372 20.7002C15.1426 20.2918 15.2269 19.8778 15.2899 19.4602C15.3217 19.2531 15.3516 19.0448 15.3751 18.8359C15.4056 18.6382 15.3999 18.4363 15.3581 18.2407C15.3493 18.2056 15.3386 18.171 15.3258 18.1372C15.2313 17.8918 15.0562 17.6884 14.8309 17.5626C14.664 17.4695 14.4772 17.4208 14.2873 17.4209Z" fill="url(#paint31_radial_1539_19076)"/>
<path d="M14.2873 17.4209C14.194 17.4207 14.101 17.4327 14.0105 17.4566C14.2164 17.7637 14.3915 18.0916 14.533 18.4351C14.5972 18.5829 14.6302 18.743 14.63 18.905C14.6297 19.0549 14.6007 19.2034 14.5447 19.3418C14.4887 19.4802 14.4068 19.6059 14.3037 19.7117C14.2005 19.8176 14.0782 19.9014 13.9435 19.9585C13.809 20.0156 13.6648 20.0448 13.5192 20.0445C13.3225 20.0441 13.1294 19.9898 12.9598 19.8871L12.8458 20.3212C12.6389 21.0339 12.4931 21.3094 12.4931 21.3094C12.4129 21.5026 12.3173 21.6887 12.2075 21.8658C12.1317 21.9815 12.0347 22.0977 11.9019 22.1419C11.8557 22.1585 11.8064 22.1635 11.758 22.1565C11.7055 22.1499 11.6549 22.1324 11.6093 22.105C11.5219 22.0373 11.4525 21.9482 11.4071 21.8458C11.3509 21.7322 11.3005 21.6155 11.2561 21.4965C11.1573 21.2506 11.0063 20.6451 11.0063 20.6451L10.8494 20.0112L10.6925 19.3724L10.5808 18.9528C10.287 17.8599 9.8803 17.3222 9.8803 17.3222C9.5605 16.8525 9.10743 16.4963 8.58328 16.3026C7.9762 16.0779 7.33856 16.2045 7.33856 16.2045C6.3395 16.4067 5.8147 17.1127 5.58374 17.4524C5.68945 17.4808 5.7906 17.5249 5.88405 17.5832C6.00894 17.6605 6.11698 17.7636 6.2014 17.8859C6.35184 18.1063 6.38534 18.3806 6.4159 18.6428C6.47786 19.2105 6.58558 19.7719 6.73795 20.3212C7.07646 19.1647 7.48255 18.6258 7.48255 18.6258C7.52792 18.5677 7.58233 18.5178 7.64357 18.4781C7.67545 18.4579 7.71109 18.4449 7.74818 18.4399C7.81691 18.4331 7.88586 18.4504 7.94388 18.489C7.9545 18.4962 7.96453 18.5043 7.97385 18.5132C8.02693 18.5617 8.07251 18.6183 8.10902 18.6809C8.19356 18.8366 8.26682 18.9985 8.32822 19.1653C8.45516 19.5335 8.5633 19.9833 8.5633 19.9833L8.88652 21.296C9.1216 22.1885 9.32082 22.6221 9.32082 22.6221C9.81095 23.7798 10.5614 24.1055 10.5614 24.1055C10.927 24.3068 11.3335 24.4163 11.748 24.4252C12.1455 24.4393 12.5405 24.3541 12.8992 24.177C13.2885 23.9789 13.6298 23.6936 13.8983 23.342C14.0799 23.1252 14.3467 22.5973 14.3467 22.5973C14.6418 21.9921 14.8733 21.3561 15.0372 20.7002C15.1426 20.2918 15.2269 19.8778 15.2899 19.4602C15.3217 19.2531 15.3516 19.0448 15.3751 18.8359C15.4056 18.6382 15.3999 18.4363 15.3581 18.2407C15.3493 18.2056 15.3386 18.171 15.3258 18.1372C15.2313 17.8918 15.0562 17.6884 14.8309 17.5626C14.664 17.4695 14.4772 17.4208 14.2873 17.4209Z" fill="url(#paint32_radial_1539_19076)"/>
<path d="M14.2873 17.4209C14.194 17.4207 14.101 17.4327 14.0105 17.4566C14.2164 17.7637 14.3915 18.0916 14.533 18.4351C14.5972 18.5829 14.6302 18.743 14.63 18.905C14.6297 19.0549 14.6007 19.2034 14.5447 19.3418C14.4887 19.4802 14.4068 19.6059 14.3037 19.7117C14.2005 19.8176 14.0782 19.9014 13.9435 19.9585C13.809 20.0156 13.6648 20.0448 13.5192 20.0445C13.3225 20.0441 13.1294 19.9898 12.9598 19.8871L12.8458 20.3212C12.6389 21.0339 12.4931 21.3094 12.4931 21.3094C12.4129 21.5026 12.3173 21.6887 12.2075 21.8658C12.1317 21.9815 12.0347 22.0977 11.9019 22.1419C11.8557 22.1585 11.8064 22.1635 11.758 22.1565C11.7055 22.1499 11.6549 22.1324 11.6093 22.105C11.5219 22.0373 11.4525 21.9482 11.4071 21.8458C11.3509 21.7322 11.3005 21.6155 11.2561 21.4965C11.1573 21.2506 11.0063 20.6451 11.0063 20.6451L10.8494 20.0112L10.6925 19.3724L10.5808 18.9528C10.287 17.8599 9.8803 17.3222 9.8803 17.3222C9.5605 16.8525 9.10743 16.4963 8.58328 16.3026C7.9762 16.0779 7.33856 16.2045 7.33856 16.2045C6.3395 16.4067 5.8147 17.1127 5.58374 17.4524C5.68945 17.4808 5.7906 17.5249 5.88405 17.5832C6.00894 17.6605 6.11698 17.7636 6.2014 17.8859C6.35184 18.1063 6.38534 18.3806 6.4159 18.6428C6.47786 19.2105 6.58558 19.7719 6.73795 20.3212C7.07646 19.1647 7.48255 18.6258 7.48255 18.6258C7.52792 18.5677 7.58233 18.5178 7.64357 18.4781C7.67545 18.4579 7.71109 18.4449 7.74818 18.4399C7.81691 18.4331 7.88586 18.4504 7.94388 18.489C7.9545 18.4962 7.96453 18.5043 7.97385 18.5132C8.02693 18.5617 8.07251 18.6183 8.10902 18.6809C8.19356 18.8366 8.26682 18.9985 8.32822 19.1653C8.45516 19.5335 8.5633 19.9833 8.5633 19.9833L8.88652 21.296C9.1216 22.1885 9.32082 22.6221 9.32082 22.6221C9.81095 23.7798 10.5614 24.1055 10.5614 24.1055C10.927 24.3068 11.3335 24.4163 11.748 24.4252C12.1455 24.4393 12.5405 24.3541 12.8992 24.177C13.2885 23.9789 13.6298 23.6936 13.8983 23.342C14.0799 23.1252 14.3467 22.5973 14.3467 22.5973C14.6418 21.9921 14.8733 21.3561 15.0372 20.7002C15.1426 20.2918 15.2269 19.8778 15.2899 19.4602C15.3217 19.2531 15.3516 19.0448 15.3751 18.8359C15.4056 18.6382 15.3999 18.4363 15.3581 18.2407C15.3493 18.2056 15.3386 18.171 15.3258 18.1372C15.2313 17.8918 15.0562 17.6884 14.8309 17.5626C14.664 17.4695 14.4772 17.4208 14.2873 17.4209Z" fill="url(#paint33_radial_1539_19076)"/>
<path d="M14.2873 17.4209C14.194 17.4207 14.101 17.4327 14.0105 17.4566C14.2164 17.7637 14.3915 18.0916 14.533 18.4351C14.5972 18.5829 14.6302 18.743 14.63 18.905C14.6297 19.0549 14.6007 19.2034 14.5447 19.3418C14.4887 19.4802 14.4068 19.6059 14.3037 19.7117C14.2005 19.8176 14.0782 19.9014 13.9435 19.9585C13.809 20.0156 13.6648 20.0448 13.5192 20.0445C13.3225 20.0441 13.1294 19.9898 12.9598 19.8871L12.8458 20.3212C12.6389 21.0339 12.4931 21.3094 12.4931 21.3094C12.4129 21.5026 12.3173 21.6887 12.2075 21.8658C12.1317 21.9815 12.0347 22.0977 11.9019 22.1419C11.8557 22.1585 11.8064 22.1635 11.758 22.1565C11.7055 22.1499 11.6549 22.1324 11.6093 22.105C11.5219 22.0373 11.4525 21.9482 11.4071 21.8458C11.3509 21.7322 11.3005 21.6155 11.2561 21.4965C11.1573 21.2506 11.0063 20.6451 11.0063 20.6451L10.8494 20.0112L10.6925 19.3724L10.5808 18.9528C10.287 17.8599 9.8803 17.3222 9.8803 17.3222C9.5605 16.8525 9.10743 16.4963 8.58328 16.3026C7.9762 16.0779 7.33856 16.2045 7.33856 16.2045C6.3395 16.4067 5.8147 17.1127 5.58374 17.4524C5.68945 17.4808 5.7906 17.5249 5.88405 17.5832C6.00894 17.6605 6.11698 17.7636 6.2014 17.8859C6.35184 18.1063 6.38534 18.3806 6.4159 18.6428C6.47786 19.2105 6.58558 19.7719 6.73795 20.3212C7.07646 19.1647 7.48255 18.6258 7.48255 18.6258C7.52792 18.5677 7.58233 18.5178 7.64357 18.4781C7.67545 18.4579 7.71109 18.4449 7.74818 18.4399C7.81691 18.4331 7.88586 18.4504 7.94388 18.489C7.9545 18.4962 7.96453 18.5043 7.97385 18.5132C8.02693 18.5617 8.07251 18.6183 8.10902 18.6809C8.19356 18.8366 8.26682 18.9985 8.32822 19.1653C8.45516 19.5335 8.5633 19.9833 8.5633 19.9833L8.88652 21.296C9.1216 22.1885 9.32082 22.6221 9.32082 22.6221C9.81095 23.7798 10.5614 24.1055 10.5614 24.1055C10.927 24.3068 11.3335 24.4163 11.748 24.4252C12.1455 24.4393 12.5405 24.3541 12.8992 24.177C13.2885 23.9789 13.6298 23.6936 13.8983 23.342C14.0799 23.1252 14.3467 22.5973 14.3467 22.5973C14.6418 21.9921 14.8733 21.3561 15.0372 20.7002C15.1426 20.2918 15.2269 19.8778 15.2899 19.4602C15.3217 19.2531 15.3516 19.0448 15.3751 18.8359C15.4056 18.6382 15.3999 18.4363 15.3581 18.2407C15.3493 18.2056 15.3386 18.171 15.3258 18.1372C15.2313 17.8918 15.0562 17.6884 14.8309 17.5626C14.664 17.4695 14.4772 17.4208 14.2873 17.4209Z" fill="url(#paint34_linear_1539_19076)"/>
<defs>
<linearGradient id="paint0_linear_1539_19076" x1="4.69391" y1="21.7471" x2="13.4772" y2="18.3012" gradientUnits="userSpaceOnUse">
<stop offset="0.13" stop-color="#1CBBF3"/>
<stop offset="0.34" stop-color="#1F99A5"/>
<stop offset="0.45" stop-color="#209CA6"/>
<stop offset="0.51" stop-color="#24A4AA"/>
<stop offset="0.57" stop-color="#2BB3B0"/>
<stop offset="0.6" stop-color="#30BDB4"/>
<stop offset="0.79" stop-color="#38BA90"/>
<stop offset="1" stop-color="#60F05A"/>
</linearGradient>
<radialGradient id="paint1_radial_1539_19076" cx="0" cy="0" r="1" gradientUnits="userSpaceOnUse" gradientTransform="translate(10.4979 19.614) rotate(74.7594) scale(4.28082 3.17116)">
<stop stop-color="#227B60"/>
<stop offset="0.14" stop-color="#227B60" stop-opacity="0.81"/>
<stop offset="0.58" stop-color="#227B60" stop-opacity="0.23"/>
<stop offset="0.78" stop-color="#227B60" stop-opacity="0"/>
</radialGradient>
<radialGradient id="paint2_radial_1539_19076" cx="0" cy="0" r="1" gradientUnits="userSpaceOnUse" gradientTransform="translate(11.1216 19.305) rotate(91.1121) scale(2.90086 2.13956)">
<stop stop-color="#227B60"/>
<stop offset="0.25" stop-color="#227B60" stop-opacity="0.7"/>
<stop offset="0.71" stop-color="#227B60" stop-opacity="0.2"/>
<stop offset="0.92" stop-color="#227B60" stop-opacity="0"/>
</radialGradient>
<radialGradient id="paint3_radial_1539_19076" cx="0" cy="0" r="1" gradientUnits="userSpaceOnUse" gradientTransform="translate(10.9876 19.4245) rotate(88.6412) scale(2.70408 1.8635)">
<stop stop-color="#227B60"/>
<stop offset="0.07" stop-color="#227B60" stop-opacity="0.9"/>
<stop offset="0.34" stop-color="#227B60" stop-opacity="0.51"/>
<stop offset="0.59" stop-color="#227B60" stop-opacity="0.23"/>
<stop offset="0.79" stop-color="#227B60" stop-opacity="0.06"/>
<stop offset="0.92" stop-color="#227B60" stop-opacity="0"/>
</radialGradient>
<radialGradient id="paint4_radial_1539_19076" cx="0" cy="0" r="1" gradientUnits="userSpaceOnUse" gradientTransform="translate(11.0321 19.3007) rotate(88.6412) scale(2.18337 1.50465)">
<stop stop-color="#227B60"/>
<stop offset="0.36" stop-color="#227B60" stop-opacity="0.63"/>
<stop offset="0.92" stop-color="#227B60" stop-opacity="0"/>
</radialGradient>
<radialGradient id="paint5_radial_1539_19076" cx="0" cy="0" r="1" gradientUnits="userSpaceOnUse" gradientTransform="translate(11.1239 19.4228) rotate(88.6412) scale(1.74137 1.08173)">
<stop stop-color="#20735A"/>
<stop offset="0.15" stop-color="#20745A" stop-opacity="0.93"/>
<stop offset="0.38" stop-color="#21755C" stop-opacity="0.74"/>
<stop offset="0.67" stop-color="#21785D" stop-opacity="0.43"/>
<stop offset="1" stop-color="#227B60" stop-opacity="0"/>
</radialGradient>
<radialGradient id="paint6_radial_1539_19076" cx="0" cy="0" r="1" gradientUnits="userSpaceOnUse" gradientTransform="translate(11.3512 19.7038) rotate(24.4379) scale(2.73339 2.09121)">
<stop stop-color="#227A61"/>
<stop offset="0.36" stop-color="#227A61" stop-opacity="0.56"/>
<stop offset="0.72" stop-color="#227A61" stop-opacity="0.16"/>
<stop offset="0.9" stop-color="#227A61" stop-opacity="0"/>
</radialGradient>
<radialGradient id="paint7_radial_1539_19076" cx="0" cy="0" r="1" gradientUnits="userSpaceOnUse" gradientTransform="translate(10.4113 15.1533) rotate(36.0827) scale(3.66419 3.3825)">
<stop stop-color="#3CD9C3"/>
<stop offset="0.07" stop-color="#3BD7C1" stop-opacity="0.9"/>
<stop offset="0.41" stop-color="#38CEB9" stop-opacity="0.42"/>
<stop offset="0.65" stop-color="#36C8B4" stop-opacity="0.12"/>
<stop offset="0.76" stop-color="#35C6B2" stop-opacity="0"/>
</radialGradient>
<radialGradient id="paint8_radial_1539_19076" cx="0" cy="0" r="1" gradientUnits="userSpaceOnUse" gradientTransform="translate(-5943.93 -8311.41) rotate(36.0827) scale(650.978 461.207)">
<stop stop-color="#3CD9C3"/>
<stop offset="0.07" stop-color="#3BD7C1" stop-opacity="0.9"/>
<stop offset="0.41" stop-color="#38CEB9" stop-opacity="0.42"/>
<stop offset="0.65" stop-color="#36C8B4" stop-opacity="0.12"/>
<stop offset="0.76" stop-color="#35C6B2" stop-opacity="0"/>
</radialGradient>
<radialGradient id="paint9_radial_1539_19076" cx="0" cy="0" r="1" gradientUnits="userSpaceOnUse" gradientTransform="translate(11.867 20.4195) rotate(100.657) scale(3.29251 3.95728)">
<stop stop-color="#237F66" stop-opacity="0.8"/>
<stop offset="0.06" stop-color="#2C8C70" stop-opacity="0.65"/>
<stop offset="0.21" stop-color="#3DA785" stop-opacity="0.37"/>
<stop offset="0.35" stop-color="#4ABA93" stop-opacity="0.17"/>
<stop offset="0.47" stop-color="#51C59C" stop-opacity="0.04"/>
<stop offset="0.56" stop-color="#54C99F" stop-opacity="0"/>
</radialGradient>
<radialGradient id="paint10_radial_1539_19076" cx="0" cy="0" r="1" gradientUnits="userSpaceOnUse" gradientTransform="translate(10.0925 20.5792) rotate(-51.655) scale(4.25676 4.56775)">
<stop stop-color="#167C8A"/>
<stop offset="0.04" stop-color="#167C8A" stop-opacity="0.93"/>
<stop offset="0.33" stop-color="#177F8D" stop-opacity="0.43"/>
<stop offset="0.54" stop-color="#17818F" stop-opacity="0.12"/>
<stop offset="0.65" stop-color="#178290" stop-opacity="0"/>
</radialGradient>
<radialGradient id="paint11_radial_1539_19076" cx="0" cy="0" r="1" gradientUnits="userSpaceOnUse" gradientTransform="translate(9.84162 21.0133) rotate(-32.4292) scale(4.11235 3.29142)">
<stop offset="0.05" stop-color="#177D87"/>
<stop offset="0.11" stop-color="#177E89" stop-opacity="0.8"/>
<stop offset="0.21" stop-color="#177F8B" stop-opacity="0.52"/>
<stop offset="0.32" stop-color="#17818D" stop-opacity="0.29"/>
<stop offset="0.42" stop-color="#17818F" stop-opacity="0.13"/>
<stop offset="0.51" stop-color="#178290" stop-opacity="0.03"/>
<stop offset="0.6" stop-color="#178290" stop-opacity="0"/>
</radialGradient>
<radialGradient id="paint12_radial_1539_19076" cx="0" cy="0" r="1" gradientUnits="userSpaceOnUse" gradientTransform="translate(8.9912 20.9579) rotate(-129.696) scale(2.4724 1.93698)">
<stop offset="0.26" stop-color="#177F8A"/>
<stop offset="0.27" stop-color="#177F8A" stop-opacity="0.98"/>
<stop offset="0.38" stop-color="#17808C" stop-opacity="0.68"/>
<stop offset="0.5" stop-color="#17818D" stop-opacity="0.43"/>
<stop offset="0.62" stop-color="#17818F" stop-opacity="0.24"/>
<stop offset="0.74" stop-color="#17828F" stop-opacity="0.11"/>
<stop offset="0.86" stop-color="#178290" stop-opacity="0.03"/>
<stop offset="1" stop-color="#178290" stop-opacity="0"/>
</radialGradient>
<radialGradient id="paint13_radial_1539_19076" cx="0" cy="0" r="1" gradientUnits="userSpaceOnUse" gradientTransform="translate(8.39785 21.6993) rotate(-172.903) scale(2.28005 2.34706)">
<stop stop-color="#13656E"/>
<stop offset="0.11" stop-color="#13646E" stop-opacity="0.73"/>
<stop offset="0.27" stop-color="#12646E" stop-opacity="0.41"/>
<stop offset="0.42" stop-color="#12636E" stop-opacity="0.18"/>
<stop offset="0.55" stop-color="#12636E" stop-opacity="0.05"/>
<stop offset="0.66" stop-color="#12636E" stop-opacity="0"/>
</radialGradient>
<radialGradient id="paint14_radial_1539_19076" cx="0" cy="0" r="1" gradientUnits="userSpaceOnUse" gradientTransform="translate(8.3383 22.0527) rotate(-118.595) scale(1.63064 1.34819)">
<stop offset="0.13" stop-color="#146A73"/>
<stop offset="0.24" stop-color="#156F79" stop-opacity="0.79"/>
<stop offset="0.45" stop-color="#167783" stop-opacity="0.45"/>
<stop offset="0.65" stop-color="#167D8A" stop-opacity="0.2"/>
<stop offset="0.82" stop-color="#17818E" stop-opacity="0.05"/>
<stop offset="0.95" stop-color="#178290" stop-opacity="0"/>
</radialGradient>
<radialGradient id="paint15_radial_1539_19076" cx="0" cy="0" r="1" gradientUnits="userSpaceOnUse" gradientTransform="translate(7.98339 21.3066) rotate(-56.781) scale(1.53065 1.19868)">
<stop stop-color="#198E9C"/>
<stop offset="0.1" stop-color="#198E9C" stop-opacity="0.87"/>
<stop offset="0.41" stop-color="#198E9C" stop-opacity="0.5"/>
<stop offset="0.67" stop-color="#198E9C" stop-opacity="0.23"/>
<stop offset="0.88" stop-color="#198E9C" stop-opacity="0.06"/>
<stop offset="1" stop-color="#198E9C" stop-opacity="0"/>
</radialGradient>
<linearGradient id="paint16_linear_1539_19076" x1="5.25456" y1="15.981" x2="9.2042" y2="19.5284" gradientUnits="userSpaceOnUse">
<stop offset="0.13" stop-color="#2BF9FF"/>
<stop offset="0.27" stop-color="#29F9FF" stop-opacity="0.64"/>
<stop offset="0.4" stop-color="#27FAFF" stop-opacity="0.3"/>
<stop offset="0.49" stop-color="#26FAFF" stop-opacity="0.08"/>
<stop offset="0.54" stop-color="#26FAFF" stop-opacity="0"/>
</linearGradient>
<linearGradient id="paint17_linear_1539_19076" x1="3.07837" y1="21.962" x2="7.58772" y2="20.7212" gradientUnits="userSpaceOnUse">
<stop stop-color="#26FAFF"/>
<stop offset="0.06" stop-color="#26FAFF" stop-opacity="0.88"/>
<stop offset="0.24" stop-color="#26FAFF" stop-opacity="0.51"/>
<stop offset="0.39" stop-color="#26FAFF" stop-opacity="0.23"/>
<stop offset="0.5" stop-color="#26FAFF" stop-opacity="0.06"/>
<stop offset="0.55" stop-color="#26FAFF" stop-opacity="0"/>
</linearGradient>
<linearGradient id="paint18_linear_1539_19076" x1="4.26784" y1="21.8009" x2="9.36107" y2="20.0389" gradientUnits="userSpaceOnUse">
<stop stop-color="#21DEFF"/>
<stop offset="0.04" stop-color="#21DEFF" stop-opacity="0.88"/>
<stop offset="0.17" stop-color="#21DEFF" stop-opacity="0.51"/>
<stop offset="0.27" stop-color="#21DEFF" stop-opacity="0.23"/>
<stop offset="0.34" stop-color="#21DEFF" stop-opacity="0.06"/>
<stop offset="0.38" stop-color="#21DEFF" stop-opacity="0"/>
</linearGradient>
<linearGradient id="paint19_linear_1539_19076" x1="9.07627" y1="19.1113" x2="12.031" y2="23.7889" gradientUnits="userSpaceOnUse">
<stop offset="0.62" stop-color="#21DEFF" stop-opacity="0"/>
<stop offset="0.66" stop-color="#21DEFF" stop-opacity="0.06"/>
<stop offset="0.73" stop-color="#21DEFF" stop-opacity="0.23"/>
<stop offset="0.83" stop-color="#21DEFF" stop-opacity="0.51"/>
<stop offset="0.96" stop-color="#21DEFF" stop-opacity="0.88"/>
<stop offset="1" stop-color="#21DEFF"/>
</linearGradient>
<linearGradient id="paint20_linear_1539_19076" x1="12.2257" y1="20.8886" x2="11.7546" y2="18.6568" gradientUnits="userSpaceOnUse">
<stop stop-color="#44B044"/>
<stop offset="0.11" stop-color="#44B044" stop-opacity="0.8"/>
<stop offset="0.27" stop-color="#44B044" stop-opacity="0.52"/>
<stop offset="0.43" stop-color="#44B044" stop-opacity="0.29"/>
<stop offset="0.58" stop-color="#44B044" stop-opacity="0.13"/>
<stop offset="0.7" stop-color="#44B044" stop-opacity="0.03"/>
<stop offset="0.8" stop-color="#44B044" stop-opacity="0"/>
</linearGradient>
<linearGradient id="paint21_linear_1539_19076" x1="6.0151" y1="18.5695" x2="15.4385" y2="21.5974" gradientUnits="userSpaceOnUse">
<stop stop-color="#3066FB"/>
<stop offset="0.38" stop-color="#2F64F7"/>
<stop offset="0.74" stop-color="#2857D9"/>
<stop offset="1" stop-color="#3C7EFF"/>
</linearGradient>
<radialGradient id="paint22_radial_1539_19076" cx="0" cy="0" r="1" gradientUnits="userSpaceOnUse" gradientTransform="translate(12.6334 20.0287) rotate(98.4381) scale(5.15901 3.30918)">
<stop stop-color="#1A3D9C"/>
<stop offset="0.4" stop-color="#1A3D9C" stop-opacity="0.42"/>
<stop offset="0.7" stop-color="#1A3D9C" stop-opacity="0"/>
</radialGradient>
<radialGradient id="paint23_radial_1539_19076" cx="0" cy="0" r="1" gradientUnits="userSpaceOnUse" gradientTransform="translate(3053.43 -8090.77) rotate(98.4381) scale(634.663 332.58)">
<stop stop-color="#1A3D9C"/>
<stop offset="0.4" stop-color="#1A3D9C" stop-opacity="0.42"/>
<stop offset="0.7" stop-color="#1A3D9C" stop-opacity="0"/>
</radialGradient>
<radialGradient id="paint24_radial_1539_19076" cx="0" cy="0" r="1" gradientUnits="userSpaceOnUse" gradientTransform="translate(2681.56 -8216.59) rotate(98.3658) scale(755.859 303.473)">
<stop stop-color="#1A3D9C"/>
<stop offset="0.4" stop-color="#1A3D9C" stop-opacity="0.42"/>
<stop offset="0.7" stop-color="#1A3D9C" stop-opacity="0"/>
</radialGradient>
<radialGradient id="paint25_radial_1539_19076" cx="0" cy="0" r="1" gradientUnits="userSpaceOnUse" gradientTransform="translate(12.0068 19.8365) rotate(83.2902) scale(4.51049 3.05714)">
<stop stop-color="#1A3D9C"/>
<stop offset="0.16" stop-color="#1A3D9C" stop-opacity="0.69"/>
<stop offset="0.33" stop-color="#1A3D9C" stop-opacity="0.4"/>
<stop offset="0.49" stop-color="#1A3D9C" stop-opacity="0.18"/>
<stop offset="0.61" stop-color="#1A3D9C" stop-opacity="0.05"/>
<stop offset="0.7" stop-color="#1A3D9C" stop-opacity="0"/>
</radialGradient>
<radialGradient id="paint26_radial_1539_19076" cx="0" cy="0" r="1" gradientUnits="userSpaceOnUse" gradientTransform="translate(12.7972 20.5249) rotate(75.0713) scale(4.32771 2.86795)">
<stop stop-color="#18388F"/>
<stop offset="0.37" stop-color="#193B96" stop-opacity="0.45"/>
<stop offset="0.7" stop-color="#1A3D9C" stop-opacity="0"/>
</radialGradient>
<radialGradient id="paint27_radial_1539_19076" cx="0" cy="0" r="1" gradientUnits="userSpaceOnUse" gradientTransform="translate(12.378 21.6813) rotate(75.0713) scale(2.01219 1.86293)">
<stop stop-color="#18388F"/>
<stop offset="0.09" stop-color="#183992" stop-opacity="0.78"/>
<stop offset="0.22" stop-color="#193B96" stop-opacity="0.5"/>
<stop offset="0.35" stop-color="#193C98" stop-opacity="0.28"/>
<stop offset="0.47" stop-color="#1A3C9A" stop-opacity="0.13"/>
<stop offset="0.59" stop-color="#1A3D9C" stop-opacity="0.03"/>
<stop offset="0.7" stop-color="#1A3D9C" stop-opacity="0"/>
</radialGradient>
<radialGradient id="paint28_radial_1539_19076" cx="0" cy="0" r="1" gradientUnits="userSpaceOnUse" gradientTransform="translate(12.4249 22.0253) rotate(75.0713) scale(2.01219 1.86293)">
<stop stop-color="#1A3D9C" stop-opacity="0.8"/>
<stop offset="0.01" stop-color="#1A3D9C" stop-opacity="0.78"/>
<stop offset="0.24" stop-color="#1A3D9C" stop-opacity="0.45"/>
<stop offset="0.44" stop-color="#1A3D9C" stop-opacity="0.2"/>
<stop offset="0.6" stop-color="#1A3D9C" stop-opacity="0.05"/>
<stop offset="0.7" stop-color="#1A3D9C" stop-opacity="0"/>
</radialGradient>
<radialGradient id="paint29_radial_1539_19076" cx="0" cy="0" r="1" gradientUnits="userSpaceOnUse" gradientTransform="translate(7.57866 20.794) rotate(67.6356) scale(4.79058 3.11299)">
<stop stop-color="#1A3D9C"/>
<stop offset="0.4" stop-color="#1A3D9C" stop-opacity="0.56"/>
<stop offset="0.48" stop-color="#1A3D9C" stop-opacity="0.43"/>
<stop offset="0.69" stop-color="#1A3D9C" stop-opacity="0.12"/>
<stop offset="0.79" stop-color="#1A3D9C" stop-opacity="0"/>
</radialGradient>
<radialGradient id="paint30_radial_1539_19076" cx="0" cy="0" r="1" gradientUnits="userSpaceOnUse" gradientTransform="translate(7.2837 19.7029) rotate(76.4964) scale(3.56315 2.29083)">
<stop stop-color="#1A3D9C"/>
<stop offset="0.06" stop-color="#1A3D9C" stop-opacity="0.88"/>
<stop offset="0.21" stop-color="#1A3D9C" stop-opacity="0.61"/>
<stop offset="0.36" stop-color="#1A3D9C" stop-opacity="0.39"/>
<stop offset="0.51" stop-color="#1A3D9C" stop-opacity="0.22"/>
<stop offset="0.67" stop-color="#1A3D9C" stop-opacity="0.1"/>
<stop offset="0.83" stop-color="#1A3D9C" stop-opacity="0.02"/>
<stop offset="1" stop-color="#1A3D9C" stop-opacity="0"/>
</radialGradient>
<radialGradient id="paint31_radial_1539_19076" cx="0" cy="0" r="1" gradientUnits="userSpaceOnUse" gradientTransform="translate(7.2837 19.7029) rotate(76.4964) scale(3.56315 2.29083)">
<stop stop-color="#1B3E9E"/>
<stop offset="0.06" stop-color="#1B3E9E" stop-opacity="0.87"/>
<stop offset="0.21" stop-color="#1B3E9D" stop-opacity="0.61"/>
<stop offset="0.36" stop-color="#1A3D9D" stop-opacity="0.39"/>
<stop offset="0.52" stop-color="#1A3D9C" stop-opacity="0.22"/>
<stop offset="0.67" stop-color="#1A3D9C" stop-opacity="0.1"/>
<stop offset="0.83" stop-color="#1A3D9C" stop-opacity="0.02"/>
<stop offset="1" stop-color="#1A3D9C" stop-opacity="0"/>
</radialGradient>
<radialGradient id="paint32_radial_1539_19076" cx="0" cy="0" r="1" gradientUnits="userSpaceOnUse" gradientTransform="translate(7.41506 19.3549) rotate(76.4964) scale(2.72597 1.75258)">
<stop stop-color="#183991"/>
<stop offset="0.03" stop-color="#183992" stop-opacity="0.95"/>
<stop offset="0.18" stop-color="#193A95" stop-opacity="0.66"/>
<stop offset="0.34" stop-color="#193B97" stop-opacity="0.42"/>
<stop offset="0.5" stop-color="#1A3C99" stop-opacity="0.24"/>
<stop offset="0.66" stop-color="#1A3D9B" stop-opacity="0.1"/>
<stop offset="0.82" stop-color="#1A3D9C" stop-opacity="0.03"/>
<stop offset="1" stop-color="#1A3D9C" stop-opacity="0"/>
</radialGradient>
<radialGradient id="paint33_radial_1539_19076" cx="0" cy="0" r="1" gradientUnits="userSpaceOnUse" gradientTransform="translate(7.88364 19.6315) rotate(87.2217) scale(2.15749 1.84364)">
<stop offset="0.04" stop-color="#2453D6" stop-opacity="0.6"/>
<stop offset="0.2" stop-color="#2453D6" stop-opacity="0.49"/>
<stop offset="0.52" stop-color="#2453D6" stop-opacity="0.2"/>
<stop offset="0.73" stop-color="#2453D6" stop-opacity="0"/>
</radialGradient>
<linearGradient id="paint34_linear_1539_19076" x1="12.1029" y1="14.6278" x2="9.61226" y2="20.6031" gradientUnits="userSpaceOnUse">
<stop stop-color="#3774FF"/>
<stop offset="0.05" stop-color="#3774FF" stop-opacity="0.91"/>
<stop offset="0.16" stop-color="#3774FF" stop-opacity="0.66"/>
<stop offset="0.32" stop-color="#3774FF" stop-opacity="0.28"/>
<stop offset="0.43" stop-color="#3774FF" stop-opacity="0"/>
</linearGradient>
</defs>
</svg>
