<svg width="52" height="44" viewBox="0 0 52 44" fill="none" xmlns="http://www.w3.org/2000/svg">
<rect width="52" height="44" rx="4" fill="white"/>
<path d="M16.7493 24.2809H18.1257L16.1244 30.3015H14.5456L13.0465 25.7564L11.5474 30.3015H10.0006L8 24.2809H9.40779L10.8278 28.8559L12.3174 24.2809H13.8165L15.3251 28.881L16.7493 24.2809Z" fill="black"/>
<path d="M24.0265 27.7753H19.5633C19.6047 28.0855 19.7217 28.3811 19.904 28.6361C20.0663 28.8588 20.2853 29.0344 20.5384 29.1449C20.7973 29.2571 21.0771 29.3137 21.3595 29.3111C21.6711 29.3098 21.98 29.2535 22.2719 29.1449C22.5744 29.0351 22.8571 28.877 23.1087 28.6768L23.7649 29.613C23.4292 29.9032 23.0385 30.1235 22.616 30.2608C22.1819 30.3961 21.7292 30.463 21.2743 30.4589C20.7146 30.4693 20.1619 30.3339 19.6709 30.0661C19.2064 29.8071 18.8262 29.4211 18.5753 28.9536C18.3122 28.4738 18.1807 27.9197 18.1807 27.2916C18.1704 26.7185 18.3027 26.1517 18.5657 25.6418C18.8069 25.1763 19.1757 24.7884 19.6294 24.5231C20.1057 24.2508 20.6474 24.1127 21.1966 24.1236C21.72 24.1137 22.2355 24.2523 22.6828 24.5231C23.1179 24.7933 23.468 25.1797 23.6933 25.6384C23.943 26.151 24.0672 26.7152 24.0558 27.2848C24.0517 27.4116 24.0436 27.5738 24.0265 27.7753ZM22.7012 26.776C22.6294 26.3066 22.46 25.9421 22.1929 25.6825C21.9257 25.4229 21.5837 25.2929 21.1667 25.2924C20.7169 25.2924 20.3562 25.4256 20.0846 25.692C19.8129 25.9584 19.6391 26.3201 19.5633 26.7774L22.7012 26.776Z" fill="black"/>
<path d="M29.6726 24.532C30.132 24.8042 30.5087 25.1952 30.7628 25.6635C31.0344 26.163 31.1724 26.7237 31.1635 27.2916C31.1724 27.8595 31.0344 28.4202 30.7628 28.9197C30.5087 29.388 30.132 29.779 29.6726 30.0512C29.2094 30.3235 28.68 30.4643 28.1421 30.4582C27.7659 30.4655 27.393 30.3871 27.0519 30.2289C26.7386 30.0779 26.4643 29.8574 26.2499 29.5845V30.3015H24.9307V21.7174H26.2499V24.9973C26.4643 24.7244 26.7386 24.504 27.0519 24.3529C27.393 24.1948 27.7659 24.1163 28.1421 24.1236C28.6802 24.118 29.2095 24.2592 29.6726 24.532ZM28.9496 28.9631C29.2242 28.7952 29.4454 28.5531 29.5874 28.265C29.737 27.9624 29.8129 27.6289 29.8089 27.2916C29.8131 26.9541 29.7375 26.6204 29.5881 26.3174C29.4459 26.0295 29.2248 25.7875 28.9503 25.6194C28.6595 25.444 28.3246 25.3546 27.9847 25.3616C27.6506 25.3553 27.3216 25.4425 27.0348 25.6133C26.76 25.7798 26.537 26.0192 26.3909 26.3046C26.2342 26.6099 26.1552 26.9488 26.1606 27.2916C26.1552 27.6342 26.2343 27.9729 26.3909 28.2779C26.5366 28.5643 26.7596 28.8047 27.0348 28.9719C27.3216 29.1427 27.6506 29.2299 27.9847 29.2236C28.3249 29.2298 28.6598 29.1394 28.9503 28.9631H28.9496Z" fill="black"/>
<path d="M37.7067 27.7753H33.2435C33.2848 28.0856 33.4018 28.3811 33.5842 28.6361C33.7466 28.8586 33.9656 29.0343 34.2186 29.1449C34.4767 29.2555 34.7553 29.3112 35.0363 29.3084C35.3479 29.3071 35.6568 29.2508 35.9487 29.1422C36.251 29.0324 36.5334 28.8743 36.7848 28.6741L37.4416 29.6103C37.107 29.9011 36.7173 30.1223 36.2955 30.2608C35.8617 30.3962 35.4091 30.463 34.9545 30.4589C34.3953 30.469 33.8431 30.3337 33.3525 30.0661C32.8883 29.8069 32.5084 29.4209 32.2575 28.9536C31.9945 28.4738 31.863 27.9198 31.863 27.2916C31.8518 26.7187 31.9832 26.1519 32.2452 25.6418C32.4862 25.1762 32.8551 24.7883 33.3089 24.5232C33.7851 24.2507 34.327 24.1126 34.8761 24.1236C35.3998 24.1136 35.9155 24.2522 36.363 24.5232C36.798 24.7931 37.148 25.1797 37.3728 25.6384C37.6227 26.151 37.7472 26.7152 37.736 27.2848C37.7319 27.4117 37.7231 27.5738 37.7067 27.7753ZM36.3807 26.776C36.3093 26.3066 36.1401 25.9421 35.873 25.6825C35.6059 25.4229 35.2639 25.2929 34.8468 25.2924C34.3962 25.2924 34.0353 25.4256 33.7641 25.692C33.4929 25.9584 33.3193 26.3202 33.2435 26.7774L36.3807 26.776Z" fill="black"/>
<path d="M43.9998 30.3015H42.3773L40.8435 28.2087L39.3287 30.3015H37.7812L40.0599 27.2285L37.8194 24.2809H39.4418L40.9184 26.2916L42.3957 24.2809H43.9555L41.7205 27.2156L43.9998 30.3015Z" fill="black"/>
<path d="M18.4431 35.2869H18.1753V32.8604H18.4976V33.7768C18.5626 33.682 18.6509 33.6053 18.7541 33.5541C18.8572 33.5028 18.9719 33.4786 19.087 33.4838C19.1999 33.4785 19.3123 33.5004 19.4148 33.5477C19.5173 33.5949 19.6068 33.6661 19.6758 33.7551C19.7998 33.9171 19.8618 34.1316 19.8618 34.3989C19.8618 34.7155 19.7773 34.9581 19.6083 35.1268C19.5367 35.1973 19.4515 35.2525 19.3577 35.289C19.264 35.3255 19.1637 35.3426 19.0632 35.3391C18.9514 35.3448 18.84 35.3218 18.7398 35.2722C18.6395 35.2227 18.5538 35.1483 18.4908 35.0562L18.4431 35.2869ZM19.5258 34.3901C19.5258 34.1703 19.4706 34.0048 19.3603 33.8949C19.3152 33.8497 19.2613 33.8143 19.2018 33.7909C19.1423 33.7676 19.0787 33.7568 19.0148 33.7592C18.9398 33.7562 18.8652 33.7709 18.797 33.802C18.7289 33.8331 18.669 33.8798 18.6223 33.9383C18.5257 34.0684 18.4776 34.2278 18.486 34.3894C18.486 34.6155 18.5414 34.7874 18.6523 34.905C18.6978 34.9562 18.7541 34.9967 18.8173 35.0235C18.8805 35.0504 18.9489 35.063 19.0175 35.0603C19.0924 35.0644 19.1671 35.0496 19.2346 35.0172C19.3022 34.9848 19.3604 34.9359 19.4039 34.8751C19.4852 34.7611 19.5258 34.5995 19.5258 34.3901Z" fill="black"/>
<path d="M21.6051 33.5347L20.9918 35.3106C20.91 35.5462 20.8322 35.7068 20.7581 35.7923C20.7163 35.8414 20.6641 35.8805 20.6051 35.9068C20.5461 35.9331 20.482 35.9459 20.4174 35.9442C20.3465 35.9425 20.276 35.9323 20.2075 35.9137V35.6505C20.2626 35.6654 20.3194 35.6734 20.3765 35.6742C20.4075 35.6759 20.4384 35.6702 20.4667 35.6576C20.4951 35.6449 20.5199 35.6257 20.5394 35.6017C20.6015 35.5035 20.6505 35.3977 20.6852 35.2869H20.5802L19.9336 33.5347H20.2852L20.7833 35.0237L21.2807 33.5347H21.6051Z" fill="black"/>
<path d="M26.0742 32.8637H25.4575V35.295H26.0742V32.8637Z" fill="black"/>
<path d="M31.0439 33.5604C30.8854 33.4741 30.7074 33.4292 30.5267 33.4302C30.1274 33.4302 29.8508 33.7063 29.8508 34.0787C29.8508 34.4403 30.1159 34.7279 30.5267 34.7279C30.7072 34.7288 30.8851 34.6845 31.0439 34.599V35.2516C30.862 35.3078 30.6728 35.3371 30.4824 35.3384C29.7895 35.3384 29.1816 34.8636 29.1816 34.0787C29.1816 33.3528 29.7322 32.8203 30.4824 32.8203C30.673 32.8205 30.8624 32.85 31.0439 32.9078V33.5604Z" fill="black"/>
<path d="M24.6105 33.5604C24.4518 33.474 24.2736 33.4292 24.0927 33.4302C23.6934 33.4302 23.4174 33.7063 23.4174 34.0787C23.4174 34.4403 23.6818 34.7279 24.0927 34.7279C24.2734 34.7288 24.4514 34.6844 24.6105 34.599V35.2516C24.4284 35.3078 24.239 35.337 24.0484 35.3384C23.3554 35.3384 22.7476 34.8636 22.7476 34.0787C22.7476 33.3528 23.2981 32.8203 24.0484 32.8203C24.2392 32.8205 24.4288 32.85 24.6105 32.9078V33.5604Z" fill="black"/>
<path d="M32.9833 33.4397C32.899 33.4389 32.8154 33.4549 32.7373 33.4867C32.6594 33.5186 32.5886 33.5657 32.5292 33.6253C32.4698 33.6848 32.423 33.7557 32.3916 33.8335C32.3601 33.9114 32.3447 33.9948 32.3461 34.0787C32.3445 34.1627 32.3598 34.2462 32.3912 34.3243C32.4225 34.4023 32.4693 34.4733 32.5287 34.533C32.5881 34.5927 32.659 34.6399 32.737 34.6719C32.8151 34.7039 32.8988 34.7199 32.9833 34.7191C33.0677 34.7198 33.1514 34.7037 33.2295 34.6717C33.3075 34.6397 33.3784 34.5925 33.4378 34.5328C33.4973 34.4732 33.5441 34.4022 33.5756 34.3242C33.607 34.2462 33.6225 34.1627 33.6211 34.0787C33.6224 33.9947 33.6069 33.9113 33.5754 33.8335C33.5439 33.7556 33.497 33.6848 33.4376 33.6253C33.3781 33.5657 33.3073 33.5186 33.2292 33.4867C33.1512 33.4549 33.0676 33.4389 32.9833 33.4397ZM34.2738 34.0787C34.2738 34.7747 33.7342 35.3384 32.9833 35.3384C32.2324 35.3384 31.6934 34.7747 31.6934 34.0787C31.6934 33.3827 32.2317 32.8203 32.9833 32.8203C33.7348 32.8203 34.2738 33.3847 34.2738 34.0787Z" fill="black"/>
<path d="M28.4115 33.4159C28.2543 33.3729 28.0926 33.3481 27.9297 33.342C27.6831 33.342 27.5488 33.424 27.5488 33.5414C27.5488 33.6893 27.7294 33.7408 27.8309 33.7727L28.0013 33.8263C28.4013 33.9532 28.5832 34.2259 28.5832 34.5223C28.5832 35.1329 28.0435 35.3364 27.572 35.3364C27.3487 35.3338 27.1261 35.3111 26.9069 35.2685V34.7089C27.097 34.7661 27.2938 34.7987 27.4923 34.8059C27.7989 34.8059 27.9399 34.717 27.9399 34.5793C27.9399 34.4558 27.818 34.3846 27.6674 34.3371C27.6299 34.3242 27.574 34.3073 27.5359 34.2944C27.1952 34.1865 26.9062 33.9857 26.9062 33.5835C26.9062 33.1283 27.247 32.823 27.8166 32.823C28.0191 32.8258 28.2205 32.8518 28.4169 32.9003L28.4115 33.4159Z" fill="black"/>
<path d="M22.4674 14.4114C22.6103 14.911 22.8049 15.3946 23.048 15.8543C23.1591 16.0578 23.2695 16.2613 23.4718 16.3888C23.5066 16.4112 23.5452 16.427 23.5856 16.4356C23.8827 16.498 24.0456 16.2606 24.1505 16.0422C24.3071 15.7005 24.4336 15.346 24.5287 14.9826C24.5471 14.9147 24.5648 14.8469 24.5825 14.779C24.6166 14.6488 24.6507 14.5179 24.6793 14.3869L25.993 10.9015C26.2653 10.5408 26.618 10.2482 27.0234 10.0466C27.4288 9.84504 27.8757 9.74011 28.3289 9.74011C28.9819 9.73602 29.6169 9.95351 30.1292 10.3567C30.9864 11.0026 31.4968 12.2745 31.4968 12.2745C31.571 12.4401 31.6093 12.6195 31.6092 12.8009C31.6089 12.969 31.5754 13.1354 31.5105 13.2905C31.4456 13.4457 31.3507 13.5866 31.2311 13.7052C31.1115 13.8239 30.9696 13.9179 30.8134 13.9819C30.6573 14.0459 30.4901 14.0786 30.3213 14.0783C30.1337 14.078 29.9483 14.0367 29.7785 13.9573C29.6086 13.878 29.4582 13.7625 29.3381 13.619C29.3333 13.6143 29.3299 13.6089 29.3258 13.6041C29.2432 13.4932 29.1746 13.3727 29.1214 13.2452C29.0505 13.0859 28.9713 12.9303 28.8842 12.7792C28.8374 12.7016 28.7867 12.6264 28.7323 12.554C28.6868 12.4881 28.6327 12.4286 28.5715 12.3769C28.4502 12.2806 28.2989 12.2413 28.1572 12.3254L28.1367 12.3383C27.9916 12.438 27.8894 12.6388 27.8185 12.7935C27.6141 13.2317 27.4969 13.6814 27.3811 14.1421C27.3586 14.2309 27.3375 14.3205 27.317 14.4093L26.7719 16.1731L26.0101 17.8466C25.7364 18.198 25.3863 18.483 24.9861 18.6802C24.5859 18.8773 24.146 18.9815 23.6994 18.985C21.8446 19.0243 20.9643 17.3569 20.9643 17.3569C19.9074 15.6304 19.596 13.3545 19.5217 12.6266C19.5061 12.4753 19.5054 12.3851 19.5054 12.3851C19.5052 12.1571 19.5677 11.9333 19.6859 11.7381C19.8042 11.5429 19.9738 11.3835 20.1766 11.2773C20.3859 11.1712 20.6191 11.1206 20.8539 11.1301C21.0723 11.1389 21.2847 11.2031 21.4712 11.3166C21.616 11.4033 21.7413 11.5187 21.8392 11.6558C22.0136 11.9028 22.0525 12.2101 22.0879 12.5031C22.1602 13.1487 22.2872 13.7871 22.4674 14.4114Z" fill="url(#paint0_linear_1038_71441)"/>
<path d="M22.4674 14.4114C22.6103 14.911 22.8049 15.3946 23.048 15.8543C23.1591 16.0578 23.2695 16.2613 23.4718 16.3888C23.5066 16.4112 23.5452 16.427 23.5856 16.4356C23.8827 16.498 24.0456 16.2606 24.1505 16.0422C24.3071 15.7005 24.4336 15.346 24.5287 14.9826C24.5471 14.9147 24.5648 14.8469 24.5825 14.779C24.6166 14.6488 24.6507 14.5179 24.6793 14.3869L25.993 10.9015C26.2653 10.5408 26.618 10.2482 27.0234 10.0466C27.4288 9.84504 27.8757 9.74011 28.3289 9.74011C28.9819 9.73602 29.6169 9.95351 30.1292 10.3567C30.9864 11.0026 31.4968 12.2745 31.4968 12.2745C31.571 12.4401 31.6093 12.6195 31.6092 12.8009C31.6089 12.969 31.5754 13.1354 31.5105 13.2905C31.4456 13.4457 31.3507 13.5866 31.2311 13.7052C31.1115 13.8239 30.9696 13.9179 30.8134 13.9819C30.6573 14.0459 30.4901 14.0786 30.3213 14.0783C30.1337 14.078 29.9483 14.0367 29.7785 13.9573C29.6086 13.878 29.4582 13.7625 29.3381 13.619C29.3333 13.6143 29.3299 13.6089 29.3258 13.6041C29.2432 13.4932 29.1746 13.3727 29.1214 13.2452C29.0505 13.0859 28.9713 12.9303 28.8842 12.7792C28.8374 12.7016 28.7867 12.6264 28.7323 12.554C28.6868 12.4881 28.6327 12.4286 28.5715 12.3769C28.4502 12.2806 28.2989 12.2413 28.1572 12.3254L28.1367 12.3383C27.9916 12.438 27.8894 12.6388 27.8185 12.7935C27.6141 13.2317 27.4969 13.6814 27.3811 14.1421C27.3586 14.2309 27.3375 14.3205 27.317 14.4093L26.7719 16.1731L26.0101 17.8466C25.7364 18.198 25.3863 18.483 24.9861 18.6802C24.5859 18.8773 24.146 18.9815 23.6994 18.985C21.8446 19.0243 20.9643 17.3569 20.9643 17.3569C19.9074 15.6304 19.596 13.3545 19.5217 12.6266C19.5061 12.4753 19.5054 12.3851 19.5054 12.3851C19.5052 12.1571 19.5677 11.9333 19.6859 11.7381C19.8042 11.5429 19.9738 11.3835 20.1766 11.2773C20.3859 11.1712 20.6191 11.1206 20.8539 11.1301C21.0723 11.1389 21.2847 11.2031 21.4712 11.3166C21.616 11.4033 21.7413 11.5187 21.8392 11.6558C22.0136 11.9028 22.0525 12.2101 22.0879 12.5031C22.1602 13.1487 22.2872 13.7871 22.4674 14.4114Z" fill="url(#paint1_radial_1038_71441)"/>
<path d="M22.4674 14.4114C22.6103 14.911 22.8049 15.3946 23.048 15.8543C23.1591 16.0578 23.2695 16.2613 23.4718 16.3888C23.5066 16.4112 23.5452 16.427 23.5856 16.4356C23.8827 16.498 24.0456 16.2606 24.1505 16.0422C24.3071 15.7005 24.4336 15.346 24.5287 14.9826C24.5471 14.9147 24.5648 14.8469 24.5825 14.779C24.6166 14.6488 24.6507 14.5179 24.6793 14.3869L25.993 10.9015C26.2653 10.5408 26.618 10.2482 27.0234 10.0466C27.4288 9.84504 27.8757 9.74011 28.3289 9.74011C28.9819 9.73602 29.6169 9.95351 30.1292 10.3567C30.9864 11.0026 31.4968 12.2745 31.4968 12.2745C31.571 12.4401 31.6093 12.6195 31.6092 12.8009C31.6089 12.969 31.5754 13.1354 31.5105 13.2905C31.4456 13.4457 31.3507 13.5866 31.2311 13.7052C31.1115 13.8239 30.9696 13.9179 30.8134 13.9819C30.6573 14.0459 30.4901 14.0786 30.3213 14.0783C30.1337 14.078 29.9483 14.0367 29.7785 13.9573C29.6086 13.878 29.4582 13.7625 29.3381 13.619C29.3333 13.6143 29.3299 13.6089 29.3258 13.6041C29.2432 13.4932 29.1746 13.3727 29.1214 13.2452C29.0505 13.0859 28.9713 12.9303 28.8842 12.7792C28.8374 12.7016 28.7867 12.6264 28.7323 12.554C28.6868 12.4881 28.6327 12.4286 28.5715 12.3769C28.4502 12.2806 28.2989 12.2413 28.1572 12.3254L28.1367 12.3383C27.9916 12.438 27.8894 12.6388 27.8185 12.7935C27.6141 13.2317 27.4969 13.6814 27.3811 14.1421C27.3586 14.2309 27.3375 14.3205 27.317 14.4093L26.7719 16.1731L26.0101 17.8466C25.7364 18.198 25.3863 18.483 24.9861 18.6802C24.5859 18.8773 24.146 18.9815 23.6994 18.985C21.8446 19.0243 20.9643 17.3569 20.9643 17.3569C19.9074 15.6304 19.596 13.3545 19.5217 12.6266C19.5061 12.4753 19.5054 12.3851 19.5054 12.3851C19.5052 12.1571 19.5677 11.9333 19.6859 11.7381C19.8042 11.5429 19.9738 11.3835 20.1766 11.2773C20.3859 11.1712 20.6191 11.1206 20.8539 11.1301C21.0723 11.1389 21.2847 11.2031 21.4712 11.3166C21.616 11.4033 21.7413 11.5187 21.8392 11.6558C22.0136 11.9028 22.0525 12.2101 22.0879 12.5031C22.1602 13.1487 22.2872 13.7871 22.4674 14.4114Z" fill="url(#paint2_radial_1038_71441)"/>
<path d="M22.4674 14.4114C22.6103 14.911 22.8049 15.3946 23.048 15.8543C23.1591 16.0578 23.2695 16.2613 23.4718 16.3888C23.5066 16.4112 23.5452 16.427 23.5856 16.4356C23.8827 16.498 24.0456 16.2606 24.1505 16.0422C24.3071 15.7005 24.4336 15.346 24.5287 14.9826C24.5471 14.9147 24.5648 14.8469 24.5825 14.779C24.6166 14.6488 24.6507 14.5179 24.6793 14.3869L25.993 10.9015C26.2653 10.5408 26.618 10.2482 27.0234 10.0466C27.4288 9.84504 27.8757 9.74011 28.3289 9.74011C28.9819 9.73602 29.6169 9.95351 30.1292 10.3567C30.9864 11.0026 31.4968 12.2745 31.4968 12.2745C31.571 12.4401 31.6093 12.6195 31.6092 12.8009C31.6089 12.969 31.5754 13.1354 31.5105 13.2905C31.4456 13.4457 31.3507 13.5866 31.2311 13.7052C31.1115 13.8239 30.9696 13.9179 30.8134 13.9819C30.6573 14.0459 30.4901 14.0786 30.3213 14.0783C30.1337 14.078 29.9483 14.0367 29.7785 13.9573C29.6086 13.878 29.4582 13.7625 29.3381 13.619C29.3333 13.6143 29.3299 13.6089 29.3258 13.6041C29.2432 13.4932 29.1746 13.3727 29.1214 13.2452C29.0505 13.0859 28.9713 12.9303 28.8842 12.7792C28.8374 12.7016 28.7867 12.6264 28.7323 12.554C28.6868 12.4881 28.6327 12.4286 28.5715 12.3769C28.4502 12.2806 28.2989 12.2413 28.1572 12.3254L28.1367 12.3383C27.9916 12.438 27.8894 12.6388 27.8185 12.7935C27.6141 13.2317 27.4969 13.6814 27.3811 14.1421C27.3586 14.2309 27.3375 14.3205 27.317 14.4093L26.7719 16.1731L26.0101 17.8466C25.7364 18.198 25.3863 18.483 24.9861 18.6802C24.5859 18.8773 24.146 18.9815 23.6994 18.985C21.8446 19.0243 20.9643 17.3569 20.9643 17.3569C19.9074 15.6304 19.596 13.3545 19.5217 12.6266C19.5061 12.4753 19.5054 12.3851 19.5054 12.3851C19.5052 12.1571 19.5677 11.9333 19.6859 11.7381C19.8042 11.5429 19.9738 11.3835 20.1766 11.2773C20.3859 11.1712 20.6191 11.1206 20.8539 11.1301C21.0723 11.1389 21.2847 11.2031 21.4712 11.3166C21.616 11.4033 21.7413 11.5187 21.8392 11.6558C22.0136 11.9028 22.0525 12.2101 22.0879 12.5031C22.1602 13.1487 22.2872 13.7871 22.4674 14.4114Z" fill="url(#paint3_radial_1038_71441)"/>
<path d="M22.4674 14.4114C22.6103 14.911 22.8049 15.3946 23.048 15.8543C23.1591 16.0578 23.2695 16.2613 23.4718 16.3888C23.5066 16.4112 23.5452 16.427 23.5856 16.4356C23.8827 16.498 24.0456 16.2606 24.1505 16.0422C24.3071 15.7005 24.4336 15.346 24.5287 14.9826C24.5471 14.9147 24.5648 14.8469 24.5825 14.779C24.6166 14.6488 24.6507 14.5179 24.6793 14.3869L25.993 10.9015C26.2653 10.5408 26.618 10.2482 27.0234 10.0466C27.4288 9.84504 27.8757 9.74011 28.3289 9.74011C28.9819 9.73602 29.6169 9.95351 30.1292 10.3567C30.9864 11.0026 31.4968 12.2745 31.4968 12.2745C31.571 12.4401 31.6093 12.6195 31.6092 12.8009C31.6089 12.969 31.5754 13.1354 31.5105 13.2905C31.4456 13.4457 31.3507 13.5866 31.2311 13.7052C31.1115 13.8239 30.9696 13.9179 30.8134 13.9819C30.6573 14.0459 30.4901 14.0786 30.3213 14.0783C30.1337 14.078 29.9483 14.0367 29.7785 13.9573C29.6086 13.878 29.4582 13.7625 29.3381 13.619C29.3333 13.6143 29.3299 13.6089 29.3258 13.6041C29.2432 13.4932 29.1746 13.3727 29.1214 13.2452C29.0505 13.0859 28.9713 12.9303 28.8842 12.7792C28.8374 12.7016 28.7867 12.6264 28.7323 12.554C28.6868 12.4881 28.6327 12.4286 28.5715 12.3769C28.4502 12.2806 28.2989 12.2413 28.1572 12.3254L28.1367 12.3383C27.9916 12.438 27.8894 12.6388 27.8185 12.7935C27.6141 13.2317 27.4969 13.6814 27.3811 14.1421C27.3586 14.2309 27.3375 14.3205 27.317 14.4093L26.7719 16.1731L26.0101 17.8466C25.7364 18.198 25.3863 18.483 24.9861 18.6802C24.5859 18.8773 24.146 18.9815 23.6994 18.985C21.8446 19.0243 20.9643 17.3569 20.9643 17.3569C19.9074 15.6304 19.596 13.3545 19.5217 12.6266C19.5061 12.4753 19.5054 12.3851 19.5054 12.3851C19.5052 12.1571 19.5677 11.9333 19.6859 11.7381C19.8042 11.5429 19.9738 11.3835 20.1766 11.2773C20.3859 11.1712 20.6191 11.1206 20.8539 11.1301C21.0723 11.1389 21.2847 11.2031 21.4712 11.3166C21.616 11.4033 21.7413 11.5187 21.8392 11.6558C22.0136 11.9028 22.0525 12.2101 22.0879 12.5031C22.1602 13.1487 22.2872 13.7871 22.4674 14.4114Z" fill="url(#paint4_radial_1038_71441)"/>
<path d="M22.4674 14.4114C22.6103 14.911 22.8049 15.3946 23.048 15.8543C23.1591 16.0578 23.2695 16.2613 23.4718 16.3888C23.5066 16.4112 23.5452 16.427 23.5856 16.4356C23.8827 16.498 24.0456 16.2606 24.1505 16.0422C24.3071 15.7005 24.4336 15.346 24.5287 14.9826C24.5471 14.9147 24.5648 14.8469 24.5825 14.779C24.6166 14.6488 24.6507 14.5179 24.6793 14.3869L25.993 10.9015C26.2653 10.5408 26.618 10.2482 27.0234 10.0466C27.4288 9.84504 27.8757 9.74011 28.3289 9.74011C28.9819 9.73602 29.6169 9.95351 30.1292 10.3567C30.9864 11.0026 31.4968 12.2745 31.4968 12.2745C31.571 12.4401 31.6093 12.6195 31.6092 12.8009C31.6089 12.969 31.5754 13.1354 31.5105 13.2905C31.4456 13.4457 31.3507 13.5866 31.2311 13.7052C31.1115 13.8239 30.9696 13.9179 30.8134 13.9819C30.6573 14.0459 30.4901 14.0786 30.3213 14.0783C30.1337 14.078 29.9483 14.0367 29.7785 13.9573C29.6086 13.878 29.4582 13.7625 29.3381 13.619C29.3333 13.6143 29.3299 13.6089 29.3258 13.6041C29.2432 13.4932 29.1746 13.3727 29.1214 13.2452C29.0505 13.0859 28.9713 12.9303 28.8842 12.7792C28.8374 12.7016 28.7867 12.6264 28.7323 12.554C28.6868 12.4881 28.6327 12.4286 28.5715 12.3769C28.4502 12.2806 28.2989 12.2413 28.1572 12.3254L28.1367 12.3383C27.9916 12.438 27.8894 12.6388 27.8185 12.7935C27.6141 13.2317 27.4969 13.6814 27.3811 14.1421C27.3586 14.2309 27.3375 14.3205 27.317 14.4093L26.7719 16.1731L26.0101 17.8466C25.7364 18.198 25.3863 18.483 24.9861 18.6802C24.5859 18.8773 24.146 18.9815 23.6994 18.985C21.8446 19.0243 20.9643 17.3569 20.9643 17.3569C19.9074 15.6304 19.596 13.3545 19.5217 12.6266C19.5061 12.4753 19.5054 12.3851 19.5054 12.3851C19.5052 12.1571 19.5677 11.9333 19.6859 11.7381C19.8042 11.5429 19.9738 11.3835 20.1766 11.2773C20.3859 11.1712 20.6191 11.1206 20.8539 11.1301C21.0723 11.1389 21.2847 11.2031 21.4712 11.3166C21.616 11.4033 21.7413 11.5187 21.8392 11.6558C22.0136 11.9028 22.0525 12.2101 22.0879 12.5031C22.1602 13.1487 22.2872 13.7871 22.4674 14.4114Z" fill="url(#paint5_radial_1038_71441)"/>
<path d="M22.4674 14.4114C22.6103 14.911 22.8049 15.3946 23.048 15.8543C23.1591 16.0578 23.2695 16.2613 23.4718 16.3888C23.5066 16.4112 23.5452 16.427 23.5856 16.4356C23.8827 16.498 24.0456 16.2606 24.1505 16.0422C24.3071 15.7005 24.4336 15.346 24.5287 14.9826C24.5471 14.9147 24.5648 14.8469 24.5825 14.779C24.6166 14.6488 24.6507 14.5179 24.6793 14.3869L25.993 10.9015C26.2653 10.5408 26.618 10.2482 27.0234 10.0466C27.4288 9.84504 27.8757 9.74011 28.3289 9.74011C28.9819 9.73602 29.6169 9.95351 30.1292 10.3567C30.9864 11.0026 31.4968 12.2745 31.4968 12.2745C31.571 12.4401 31.6093 12.6195 31.6092 12.8009C31.6089 12.969 31.5754 13.1354 31.5105 13.2905C31.4456 13.4457 31.3507 13.5866 31.2311 13.7052C31.1115 13.8239 30.9696 13.9179 30.8134 13.9819C30.6573 14.0459 30.4901 14.0786 30.3213 14.0783C30.1337 14.078 29.9483 14.0367 29.7785 13.9573C29.6086 13.878 29.4582 13.7625 29.3381 13.619C29.3333 13.6143 29.3299 13.6089 29.3258 13.6041C29.2432 13.4932 29.1746 13.3727 29.1214 13.2452C29.0505 13.0859 28.9713 12.9303 28.8842 12.7792C28.8374 12.7016 28.7867 12.6264 28.7323 12.554C28.6868 12.4881 28.6327 12.4286 28.5715 12.3769C28.4502 12.2806 28.2989 12.2413 28.1572 12.3254L28.1367 12.3383C27.9916 12.438 27.8894 12.6388 27.8185 12.7935C27.6141 13.2317 27.4969 13.6814 27.3811 14.1421C27.3586 14.2309 27.3375 14.3205 27.317 14.4093L26.7719 16.1731L26.0101 17.8466C25.7364 18.198 25.3863 18.483 24.9861 18.6802C24.5859 18.8773 24.146 18.9815 23.6994 18.985C21.8446 19.0243 20.9643 17.3569 20.9643 17.3569C19.9074 15.6304 19.596 13.3545 19.5217 12.6266C19.5061 12.4753 19.5054 12.3851 19.5054 12.3851C19.5052 12.1571 19.5677 11.9333 19.6859 11.7381C19.8042 11.5429 19.9738 11.3835 20.1766 11.2773C20.3859 11.1712 20.6191 11.1206 20.8539 11.1301C21.0723 11.1389 21.2847 11.2031 21.4712 11.3166C21.616 11.4033 21.7413 11.5187 21.8392 11.6558C22.0136 11.9028 22.0525 12.2101 22.0879 12.5031C22.1602 13.1487 22.2872 13.7871 22.4674 14.4114Z" fill="url(#paint6_radial_1038_71441)"/>
<path d="M22.4674 14.4114C22.6103 14.911 22.8049 15.3946 23.048 15.8543C23.1591 16.0578 23.2695 16.2613 23.4718 16.3888C23.5066 16.4112 23.5452 16.427 23.5856 16.4356C23.8827 16.498 24.0456 16.2606 24.1505 16.0422C24.3071 15.7005 24.4336 15.346 24.5287 14.9826C24.5471 14.9147 24.5648 14.8469 24.5825 14.779C24.6166 14.6488 24.6507 14.5179 24.6793 14.3869L25.993 10.9015C26.2653 10.5408 26.618 10.2482 27.0234 10.0466C27.4288 9.84504 27.8757 9.74011 28.3289 9.74011C28.9819 9.73602 29.6169 9.95351 30.1292 10.3567C30.9864 11.0026 31.4968 12.2745 31.4968 12.2745C31.571 12.4401 31.6093 12.6195 31.6092 12.8009C31.6089 12.969 31.5754 13.1354 31.5105 13.2905C31.4456 13.4457 31.3507 13.5866 31.2311 13.7052C31.1115 13.8239 30.9696 13.9179 30.8134 13.9819C30.6573 14.0459 30.4901 14.0786 30.3213 14.0783C30.1337 14.078 29.9483 14.0367 29.7785 13.9573C29.6086 13.878 29.4582 13.7625 29.3381 13.619C29.3333 13.6143 29.3299 13.6089 29.3258 13.6041C29.2432 13.4932 29.1746 13.3727 29.1214 13.2452C29.0505 13.0859 28.9713 12.9303 28.8842 12.7792C28.8374 12.7016 28.7867 12.6264 28.7323 12.554C28.6868 12.4881 28.6327 12.4286 28.5715 12.3769C28.4502 12.2806 28.2989 12.2413 28.1572 12.3254L28.1367 12.3383C27.9916 12.438 27.8894 12.6388 27.8185 12.7935C27.6141 13.2317 27.4969 13.6814 27.3811 14.1421C27.3586 14.2309 27.3375 14.3205 27.317 14.4093L26.7719 16.1731L26.0101 17.8466C25.7364 18.198 25.3863 18.483 24.9861 18.6802C24.5859 18.8773 24.146 18.9815 23.6994 18.985C21.8446 19.0243 20.9643 17.3569 20.9643 17.3569C19.9074 15.6304 19.596 13.3545 19.5217 12.6266C19.5061 12.4753 19.5054 12.3851 19.5054 12.3851C19.5052 12.1571 19.5677 11.9333 19.6859 11.7381C19.8042 11.5429 19.9738 11.3835 20.1766 11.2773C20.3859 11.1712 20.6191 11.1206 20.8539 11.1301C21.0723 11.1389 21.2847 11.2031 21.4712 11.3166C21.616 11.4033 21.7413 11.5187 21.8392 11.6558C22.0136 11.9028 22.0525 12.2101 22.0879 12.5031C22.1602 13.1487 22.2872 13.7871 22.4674 14.4114Z" fill="url(#paint7_radial_1038_71441)"/>
<path d="M22.4674 14.4114C22.6103 14.911 22.8049 15.3946 23.048 15.8543C23.1591 16.0578 23.2695 16.2613 23.4718 16.3888C23.5066 16.4112 23.5452 16.427 23.5856 16.4356C23.8827 16.498 24.0456 16.2606 24.1505 16.0422C24.3071 15.7005 24.4336 15.346 24.5287 14.9826C24.5471 14.9147 24.5648 14.8469 24.5825 14.779C24.6166 14.6488 24.6507 14.5179 24.6793 14.3869L25.993 10.9015C26.2653 10.5408 26.618 10.2482 27.0234 10.0466C27.4288 9.84504 27.8757 9.74011 28.3289 9.74011C28.9819 9.73602 29.6169 9.95351 30.1292 10.3567C30.9864 11.0026 31.4968 12.2745 31.4968 12.2745C31.571 12.4401 31.6093 12.6195 31.6092 12.8009C31.6089 12.969 31.5754 13.1354 31.5105 13.2905C31.4456 13.4457 31.3507 13.5866 31.2311 13.7052C31.1115 13.8239 30.9696 13.9179 30.8134 13.9819C30.6573 14.0459 30.4901 14.0786 30.3213 14.0783C30.1337 14.078 29.9483 14.0367 29.7785 13.9573C29.6086 13.878 29.4582 13.7625 29.3381 13.619C29.3333 13.6143 29.3299 13.6089 29.3258 13.6041C29.2432 13.4932 29.1746 13.3727 29.1214 13.2452C29.0505 13.0859 28.9713 12.9303 28.8842 12.7792C28.8374 12.7016 28.7867 12.6264 28.7323 12.554C28.6868 12.4881 28.6327 12.4286 28.5715 12.3769C28.4502 12.2806 28.2989 12.2413 28.1572 12.3254L28.1367 12.3383C27.9916 12.438 27.8894 12.6388 27.8185 12.7935C27.6141 13.2317 27.4969 13.6814 27.3811 14.1421C27.3586 14.2309 27.3375 14.3205 27.317 14.4093L26.7719 16.1731L26.0101 17.8466C25.7364 18.198 25.3863 18.483 24.9861 18.6802C24.5859 18.8773 24.146 18.9815 23.6994 18.985C21.8446 19.0243 20.9643 17.3569 20.9643 17.3569C19.9074 15.6304 19.596 13.3545 19.5217 12.6266C19.5061 12.4753 19.5054 12.3851 19.5054 12.3851C19.5052 12.1571 19.5677 11.9333 19.6859 11.7381C19.8042 11.5429 19.9738 11.3835 20.1766 11.2773C20.3859 11.1712 20.6191 11.1206 20.8539 11.1301C21.0723 11.1389 21.2847 11.2031 21.4712 11.3166C21.616 11.4033 21.7413 11.5187 21.8392 11.6558C22.0136 11.9028 22.0525 12.2101 22.0879 12.5031C22.1602 13.1487 22.2872 13.7871 22.4674 14.4114Z" fill="url(#paint8_radial_1038_71441)"/>
<path d="M22.4674 14.4114C22.6103 14.911 22.8049 15.3946 23.048 15.8543C23.1591 16.0578 23.2695 16.2613 23.4718 16.3888C23.5066 16.4112 23.5452 16.427 23.5856 16.4356C23.8827 16.498 24.0456 16.2606 24.1505 16.0422C24.3071 15.7005 24.4336 15.346 24.5287 14.9826C24.5471 14.9147 24.5648 14.8469 24.5825 14.779C24.6166 14.6488 24.6507 14.5179 24.6793 14.3869L25.993 10.9015C26.2653 10.5408 26.618 10.2482 27.0234 10.0466C27.4288 9.84504 27.8757 9.74011 28.3289 9.74011C28.9819 9.73602 29.6169 9.95351 30.1292 10.3567C30.9864 11.0026 31.4968 12.2745 31.4968 12.2745C31.571 12.4401 31.6093 12.6195 31.6092 12.8009C31.6089 12.969 31.5754 13.1354 31.5105 13.2905C31.4456 13.4457 31.3507 13.5866 31.2311 13.7052C31.1115 13.8239 30.9696 13.9179 30.8134 13.9819C30.6573 14.0459 30.4901 14.0786 30.3213 14.0783C30.1337 14.078 29.9483 14.0367 29.7785 13.9573C29.6086 13.878 29.4582 13.7625 29.3381 13.619C29.3333 13.6143 29.3299 13.6089 29.3258 13.6041C29.2432 13.4932 29.1746 13.3727 29.1214 13.2452C29.0505 13.0859 28.9713 12.9303 28.8842 12.7792C28.8374 12.7016 28.7867 12.6264 28.7323 12.554C28.6868 12.4881 28.6327 12.4286 28.5715 12.3769C28.4502 12.2806 28.2989 12.2413 28.1572 12.3254L28.1367 12.3383C27.9916 12.438 27.8894 12.6388 27.8185 12.7935C27.6141 13.2317 27.4969 13.6814 27.3811 14.1421C27.3586 14.2309 27.3375 14.3205 27.317 14.4093L26.7719 16.1731L26.0101 17.8466C25.7364 18.198 25.3863 18.483 24.9861 18.6802C24.5859 18.8773 24.146 18.9815 23.6994 18.985C21.8446 19.0243 20.9643 17.3569 20.9643 17.3569C19.9074 15.6304 19.596 13.3545 19.5217 12.6266C19.5061 12.4753 19.5054 12.3851 19.5054 12.3851C19.5052 12.1571 19.5677 11.9333 19.6859 11.7381C19.8042 11.5429 19.9738 11.3835 20.1766 11.2773C20.3859 11.1712 20.6191 11.1206 20.8539 11.1301C21.0723 11.1389 21.2847 11.2031 21.4712 11.3166C21.616 11.4033 21.7413 11.5187 21.8392 11.6558C22.0136 11.9028 22.0525 12.2101 22.0879 12.5031C22.1602 13.1487 22.2872 13.7871 22.4674 14.4114Z" fill="url(#paint9_radial_1038_71441)"/>
<path d="M22.4674 14.4114C22.6103 14.911 22.8049 15.3946 23.048 15.8543C23.1591 16.0578 23.2695 16.2613 23.4718 16.3888C23.5066 16.4112 23.5452 16.427 23.5856 16.4356C23.8827 16.498 24.0456 16.2606 24.1505 16.0422C24.3071 15.7005 24.4336 15.346 24.5287 14.9826C24.5471 14.9147 24.5648 14.8469 24.5825 14.779C24.6166 14.6488 24.6507 14.5179 24.6793 14.3869L25.993 10.9015C26.2653 10.5408 26.618 10.2482 27.0234 10.0466C27.4288 9.84504 27.8757 9.74011 28.3289 9.74011C28.9819 9.73602 29.6169 9.95351 30.1292 10.3567C30.9864 11.0026 31.4968 12.2745 31.4968 12.2745C31.571 12.4401 31.6093 12.6195 31.6092 12.8009C31.6089 12.969 31.5754 13.1354 31.5105 13.2905C31.4456 13.4457 31.3507 13.5866 31.2311 13.7052C31.1115 13.8239 30.9696 13.9179 30.8134 13.9819C30.6573 14.0459 30.4901 14.0786 30.3213 14.0783C30.1337 14.078 29.9483 14.0367 29.7785 13.9573C29.6086 13.878 29.4582 13.7625 29.3381 13.619C29.3333 13.6143 29.3299 13.6089 29.3258 13.6041C29.2432 13.4932 29.1746 13.3727 29.1214 13.2452C29.0505 13.0859 28.9713 12.9303 28.8842 12.7792C28.8374 12.7016 28.7867 12.6264 28.7323 12.554C28.6868 12.4881 28.6327 12.4286 28.5715 12.3769C28.4502 12.2806 28.2989 12.2413 28.1572 12.3254L28.1367 12.3383C27.9916 12.438 27.8894 12.6388 27.8185 12.7935C27.6141 13.2317 27.4969 13.6814 27.3811 14.1421C27.3586 14.2309 27.3375 14.3205 27.317 14.4093L26.7719 16.1731L26.0101 17.8466C25.7364 18.198 25.3863 18.483 24.9861 18.6802C24.5859 18.8773 24.146 18.9815 23.6994 18.985C21.8446 19.0243 20.9643 17.3569 20.9643 17.3569C19.9074 15.6304 19.596 13.3545 19.5217 12.6266C19.5061 12.4753 19.5054 12.3851 19.5054 12.3851C19.5052 12.1571 19.5677 11.9333 19.6859 11.7381C19.8042 11.5429 19.9738 11.3835 20.1766 11.2773C20.3859 11.1712 20.6191 11.1206 20.8539 11.1301C21.0723 11.1389 21.2847 11.2031 21.4712 11.3166C21.616 11.4033 21.7413 11.5187 21.8392 11.6558C22.0136 11.9028 22.0525 12.2101 22.0879 12.5031C22.1602 13.1487 22.2872 13.7871 22.4674 14.4114Z" fill="url(#paint10_radial_1038_71441)"/>
<path d="M22.4674 14.4114C22.6103 14.911 22.8049 15.3946 23.048 15.8543C23.1591 16.0578 23.2695 16.2613 23.4718 16.3888C23.5066 16.4112 23.5452 16.427 23.5856 16.4356C23.8827 16.498 24.0456 16.2606 24.1505 16.0422C24.3071 15.7005 24.4336 15.346 24.5287 14.9826C24.5471 14.9147 24.5648 14.8469 24.5825 14.779C24.6166 14.6488 24.6507 14.5179 24.6793 14.3869L25.993 10.9015C26.2653 10.5408 26.618 10.2482 27.0234 10.0466C27.4288 9.84504 27.8757 9.74011 28.3289 9.74011C28.9819 9.73602 29.6169 9.95351 30.1292 10.3567C30.9864 11.0026 31.4968 12.2745 31.4968 12.2745C31.571 12.4401 31.6093 12.6195 31.6092 12.8009C31.6089 12.969 31.5754 13.1354 31.5105 13.2905C31.4456 13.4457 31.3507 13.5866 31.2311 13.7052C31.1115 13.8239 30.9696 13.9179 30.8134 13.9819C30.6573 14.0459 30.4901 14.0786 30.3213 14.0783C30.1337 14.078 29.9483 14.0367 29.7785 13.9573C29.6086 13.878 29.4582 13.7625 29.3381 13.619C29.3333 13.6143 29.3299 13.6089 29.3258 13.6041C29.2432 13.4932 29.1746 13.3727 29.1214 13.2452C29.0505 13.0859 28.9713 12.9303 28.8842 12.7792C28.8374 12.7016 28.7867 12.6264 28.7323 12.554C28.6868 12.4881 28.6327 12.4286 28.5715 12.3769C28.4502 12.2806 28.2989 12.2413 28.1572 12.3254L28.1367 12.3383C27.9916 12.438 27.8894 12.6388 27.8185 12.7935C27.6141 13.2317 27.4969 13.6814 27.3811 14.1421C27.3586 14.2309 27.3375 14.3205 27.317 14.4093L26.7719 16.1731L26.0101 17.8466C25.7364 18.198 25.3863 18.483 24.9861 18.6802C24.5859 18.8773 24.146 18.9815 23.6994 18.985C21.8446 19.0243 20.9643 17.3569 20.9643 17.3569C19.9074 15.6304 19.596 13.3545 19.5217 12.6266C19.5061 12.4753 19.5054 12.3851 19.5054 12.3851C19.5052 12.1571 19.5677 11.9333 19.6859 11.7381C19.8042 11.5429 19.9738 11.3835 20.1766 11.2773C20.3859 11.1712 20.6191 11.1206 20.8539 11.1301C21.0723 11.1389 21.2847 11.2031 21.4712 11.3166C21.616 11.4033 21.7413 11.5187 21.8392 11.6558C22.0136 11.9028 22.0525 12.2101 22.0879 12.5031C22.1602 13.1487 22.2872 13.7871 22.4674 14.4114Z" fill="url(#paint11_radial_1038_71441)"/>
<path d="M22.4674 14.4114C22.6103 14.911 22.8049 15.3946 23.048 15.8543C23.1591 16.0578 23.2695 16.2613 23.4718 16.3888C23.5066 16.4112 23.5452 16.427 23.5856 16.4356C23.8827 16.498 24.0456 16.2606 24.1505 16.0422C24.3071 15.7005 24.4336 15.346 24.5287 14.9826C24.5471 14.9147 24.5648 14.8469 24.5825 14.779C24.6166 14.6488 24.6507 14.5179 24.6793 14.3869L25.993 10.9015C26.2653 10.5408 26.618 10.2482 27.0234 10.0466C27.4288 9.84504 27.8757 9.74011 28.3289 9.74011C28.9819 9.73602 29.6169 9.95351 30.1292 10.3567C30.9864 11.0026 31.4968 12.2745 31.4968 12.2745C31.571 12.4401 31.6093 12.6195 31.6092 12.8009C31.6089 12.969 31.5754 13.1354 31.5105 13.2905C31.4456 13.4457 31.3507 13.5866 31.2311 13.7052C31.1115 13.8239 30.9696 13.9179 30.8134 13.9819C30.6573 14.0459 30.4901 14.0786 30.3213 14.0783C30.1337 14.078 29.9483 14.0367 29.7785 13.9573C29.6086 13.878 29.4582 13.7625 29.3381 13.619C29.3333 13.6143 29.3299 13.6089 29.3258 13.6041C29.2432 13.4932 29.1746 13.3727 29.1214 13.2452C29.0505 13.0859 28.9713 12.9303 28.8842 12.7792C28.8374 12.7016 28.7867 12.6264 28.7323 12.554C28.6868 12.4881 28.6327 12.4286 28.5715 12.3769C28.4502 12.2806 28.2989 12.2413 28.1572 12.3254L28.1367 12.3383C27.9916 12.438 27.8894 12.6388 27.8185 12.7935C27.6141 13.2317 27.4969 13.6814 27.3811 14.1421C27.3586 14.2309 27.3375 14.3205 27.317 14.4093L26.7719 16.1731L26.0101 17.8466C25.7364 18.198 25.3863 18.483 24.9861 18.6802C24.5859 18.8773 24.146 18.9815 23.6994 18.985C21.8446 19.0243 20.9643 17.3569 20.9643 17.3569C19.9074 15.6304 19.596 13.3545 19.5217 12.6266C19.5061 12.4753 19.5054 12.3851 19.5054 12.3851C19.5052 12.1571 19.5677 11.9333 19.6859 11.7381C19.8042 11.5429 19.9738 11.3835 20.1766 11.2773C20.3859 11.1712 20.6191 11.1206 20.8539 11.1301C21.0723 11.1389 21.2847 11.2031 21.4712 11.3166C21.616 11.4033 21.7413 11.5187 21.8392 11.6558C22.0136 11.9028 22.0525 12.2101 22.0879 12.5031C22.1602 13.1487 22.2872 13.7871 22.4674 14.4114Z" fill="url(#paint12_radial_1038_71441)"/>
<path d="M22.4674 14.4114C22.6103 14.911 22.8049 15.3946 23.048 15.8543C23.1591 16.0578 23.2695 16.2613 23.4718 16.3888C23.5066 16.4112 23.5452 16.427 23.5856 16.4356C23.8827 16.498 24.0456 16.2606 24.1505 16.0422C24.3071 15.7005 24.4336 15.346 24.5287 14.9826C24.5471 14.9147 24.5648 14.8469 24.5825 14.779C24.6166 14.6488 24.6507 14.5179 24.6793 14.3869L25.993 10.9015C26.2653 10.5408 26.618 10.2482 27.0234 10.0466C27.4288 9.84504 27.8757 9.74011 28.3289 9.74011C28.9819 9.73602 29.6169 9.95351 30.1292 10.3567C30.9864 11.0026 31.4968 12.2745 31.4968 12.2745C31.571 12.4401 31.6093 12.6195 31.6092 12.8009C31.6089 12.969 31.5754 13.1354 31.5105 13.2905C31.4456 13.4457 31.3507 13.5866 31.2311 13.7052C31.1115 13.8239 30.9696 13.9179 30.8134 13.9819C30.6573 14.0459 30.4901 14.0786 30.3213 14.0783C30.1337 14.078 29.9483 14.0367 29.7785 13.9573C29.6086 13.878 29.4582 13.7625 29.3381 13.619C29.3333 13.6143 29.3299 13.6089 29.3258 13.6041C29.2432 13.4932 29.1746 13.3727 29.1214 13.2452C29.0505 13.0859 28.9713 12.9303 28.8842 12.7792C28.8374 12.7016 28.7867 12.6264 28.7323 12.554C28.6868 12.4881 28.6327 12.4286 28.5715 12.3769C28.4502 12.2806 28.2989 12.2413 28.1572 12.3254L28.1367 12.3383C27.9916 12.438 27.8894 12.6388 27.8185 12.7935C27.6141 13.2317 27.4969 13.6814 27.3811 14.1421C27.3586 14.2309 27.3375 14.3205 27.317 14.4093L26.7719 16.1731L26.0101 17.8466C25.7364 18.198 25.3863 18.483 24.9861 18.6802C24.5859 18.8773 24.146 18.9815 23.6994 18.985C21.8446 19.0243 20.9643 17.3569 20.9643 17.3569C19.9074 15.6304 19.596 13.3545 19.5217 12.6266C19.5061 12.4753 19.5054 12.3851 19.5054 12.3851C19.5052 12.1571 19.5677 11.9333 19.6859 11.7381C19.8042 11.5429 19.9738 11.3835 20.1766 11.2773C20.3859 11.1712 20.6191 11.1206 20.8539 11.1301C21.0723 11.1389 21.2847 11.2031 21.4712 11.3166C21.616 11.4033 21.7413 11.5187 21.8392 11.6558C22.0136 11.9028 22.0525 12.2101 22.0879 12.5031C22.1602 13.1487 22.2872 13.7871 22.4674 14.4114Z" fill="url(#paint13_radial_1038_71441)"/>
<path d="M22.4674 14.4114C22.6103 14.911 22.8049 15.3946 23.048 15.8543C23.1591 16.0578 23.2695 16.2613 23.4718 16.3888C23.5066 16.4112 23.5452 16.427 23.5856 16.4356C23.8827 16.498 24.0456 16.2606 24.1505 16.0422C24.3071 15.7005 24.4336 15.346 24.5287 14.9826C24.5471 14.9147 24.5648 14.8469 24.5825 14.779C24.6166 14.6488 24.6507 14.5179 24.6793 14.3869L25.993 10.9015C26.2653 10.5408 26.618 10.2482 27.0234 10.0466C27.4288 9.84504 27.8757 9.74011 28.3289 9.74011C28.9819 9.73602 29.6169 9.95351 30.1292 10.3567C30.9864 11.0026 31.4968 12.2745 31.4968 12.2745C31.571 12.4401 31.6093 12.6195 31.6092 12.8009C31.6089 12.969 31.5754 13.1354 31.5105 13.2905C31.4456 13.4457 31.3507 13.5866 31.2311 13.7052C31.1115 13.8239 30.9696 13.9179 30.8134 13.9819C30.6573 14.0459 30.4901 14.0786 30.3213 14.0783C30.1337 14.078 29.9483 14.0367 29.7785 13.9573C29.6086 13.878 29.4582 13.7625 29.3381 13.619C29.3333 13.6143 29.3299 13.6089 29.3258 13.6041C29.2432 13.4932 29.1746 13.3727 29.1214 13.2452C29.0505 13.0859 28.9713 12.9303 28.8842 12.7792C28.8374 12.7016 28.7867 12.6264 28.7323 12.554C28.6868 12.4881 28.6327 12.4286 28.5715 12.3769C28.4502 12.2806 28.2989 12.2413 28.1572 12.3254L28.1367 12.3383C27.9916 12.438 27.8894 12.6388 27.8185 12.7935C27.6141 13.2317 27.4969 13.6814 27.3811 14.1421C27.3586 14.2309 27.3375 14.3205 27.317 14.4093L26.7719 16.1731L26.0101 17.8466C25.7364 18.198 25.3863 18.483 24.9861 18.6802C24.5859 18.8773 24.146 18.9815 23.6994 18.985C21.8446 19.0243 20.9643 17.3569 20.9643 17.3569C19.9074 15.6304 19.596 13.3545 19.5217 12.6266C19.5061 12.4753 19.5054 12.3851 19.5054 12.3851C19.5052 12.1571 19.5677 11.9333 19.6859 11.7381C19.8042 11.5429 19.9738 11.3835 20.1766 11.2773C20.3859 11.1712 20.6191 11.1206 20.8539 11.1301C21.0723 11.1389 21.2847 11.2031 21.4712 11.3166C21.616 11.4033 21.7413 11.5187 21.8392 11.6558C22.0136 11.9028 22.0525 12.2101 22.0879 12.5031C22.1602 13.1487 22.2872 13.7871 22.4674 14.4114Z" fill="url(#paint14_radial_1038_71441)"/>
<path d="M22.4674 14.4114C22.6103 14.911 22.8049 15.3946 23.048 15.8543C23.1591 16.0578 23.2695 16.2613 23.4718 16.3888C23.5066 16.4112 23.5452 16.427 23.5856 16.4356C23.8827 16.498 24.0456 16.2606 24.1505 16.0422C24.3071 15.7005 24.4336 15.346 24.5287 14.9826C24.5471 14.9147 24.5648 14.8469 24.5825 14.779C24.6166 14.6488 24.6507 14.5179 24.6793 14.3869L25.993 10.9015C26.2653 10.5408 26.618 10.2482 27.0234 10.0466C27.4288 9.84504 27.8757 9.74011 28.3289 9.74011C28.9819 9.73602 29.6169 9.95351 30.1292 10.3567C30.9864 11.0026 31.4968 12.2745 31.4968 12.2745C31.571 12.4401 31.6093 12.6195 31.6092 12.8009C31.6089 12.969 31.5754 13.1354 31.5105 13.2905C31.4456 13.4457 31.3507 13.5866 31.2311 13.7052C31.1115 13.8239 30.9696 13.9179 30.8134 13.9819C30.6573 14.0459 30.4901 14.0786 30.3213 14.0783C30.1337 14.078 29.9483 14.0367 29.7785 13.9573C29.6086 13.878 29.4582 13.7625 29.3381 13.619C29.3333 13.6143 29.3299 13.6089 29.3258 13.6041C29.2432 13.4932 29.1746 13.3727 29.1214 13.2452C29.0505 13.0859 28.9713 12.9303 28.8842 12.7792C28.8374 12.7016 28.7867 12.6264 28.7323 12.554C28.6868 12.4881 28.6327 12.4286 28.5715 12.3769C28.4502 12.2806 28.2989 12.2413 28.1572 12.3254L28.1367 12.3383C27.9916 12.438 27.8894 12.6388 27.8185 12.7935C27.6141 13.2317 27.4969 13.6814 27.3811 14.1421C27.3586 14.2309 27.3375 14.3205 27.317 14.4093L26.7719 16.1731L26.0101 17.8466C25.7364 18.198 25.3863 18.483 24.9861 18.6802C24.5859 18.8773 24.146 18.9815 23.6994 18.985C21.8446 19.0243 20.9643 17.3569 20.9643 17.3569C19.9074 15.6304 19.596 13.3545 19.5217 12.6266C19.5061 12.4753 19.5054 12.3851 19.5054 12.3851C19.5052 12.1571 19.5677 11.9333 19.6859 11.7381C19.8042 11.5429 19.9738 11.3835 20.1766 11.2773C20.3859 11.1712 20.6191 11.1206 20.8539 11.1301C21.0723 11.1389 21.2847 11.2031 21.4712 11.3166C21.616 11.4033 21.7413 11.5187 21.8392 11.6558C22.0136 11.9028 22.0525 12.2101 22.0879 12.5031C22.1602 13.1487 22.2872 13.7871 22.4674 14.4114Z" fill="url(#paint15_radial_1038_71441)"/>
<path d="M22.4674 14.4114C22.6103 14.911 22.8049 15.3946 23.048 15.8543C23.1591 16.0578 23.2695 16.2613 23.4718 16.3888C23.5066 16.4112 23.5452 16.427 23.5856 16.4356C23.8827 16.498 24.0456 16.2606 24.1505 16.0422C24.3071 15.7005 24.4336 15.346 24.5287 14.9826C24.5471 14.9147 24.5648 14.8469 24.5825 14.779C24.6166 14.6488 24.6507 14.5179 24.6793 14.3869L25.993 10.9015C26.2653 10.5408 26.618 10.2482 27.0234 10.0466C27.4288 9.84504 27.8757 9.74011 28.3289 9.74011C28.9819 9.73602 29.6169 9.95351 30.1292 10.3567C30.9864 11.0026 31.4968 12.2745 31.4968 12.2745C31.571 12.4401 31.6093 12.6195 31.6092 12.8009C31.6089 12.969 31.5754 13.1354 31.5105 13.2905C31.4456 13.4457 31.3507 13.5866 31.2311 13.7052C31.1115 13.8239 30.9696 13.9179 30.8134 13.9819C30.6573 14.0459 30.4901 14.0786 30.3213 14.0783C30.1337 14.078 29.9483 14.0367 29.7785 13.9573C29.6086 13.878 29.4582 13.7625 29.3381 13.619C29.3333 13.6143 29.3299 13.6089 29.3258 13.6041C29.2432 13.4932 29.1746 13.3727 29.1214 13.2452C29.0505 13.0859 28.9713 12.9303 28.8842 12.7792C28.8374 12.7016 28.7867 12.6264 28.7323 12.554C28.6868 12.4881 28.6327 12.4286 28.5715 12.3769C28.4502 12.2806 28.2989 12.2413 28.1572 12.3254L28.1367 12.3383C27.9916 12.438 27.8894 12.6388 27.8185 12.7935C27.6141 13.2317 27.4969 13.6814 27.3811 14.1421C27.3586 14.2309 27.3375 14.3205 27.317 14.4093L26.7719 16.1731L26.0101 17.8466C25.7364 18.198 25.3863 18.483 24.9861 18.6802C24.5859 18.8773 24.146 18.9815 23.6994 18.985C21.8446 19.0243 20.9643 17.3569 20.9643 17.3569C19.9074 15.6304 19.596 13.3545 19.5217 12.6266C19.5061 12.4753 19.5054 12.3851 19.5054 12.3851C19.5052 12.1571 19.5677 11.9333 19.6859 11.7381C19.8042 11.5429 19.9738 11.3835 20.1766 11.2773C20.3859 11.1712 20.6191 11.1206 20.8539 11.1301C21.0723 11.1389 21.2847 11.2031 21.4712 11.3166C21.616 11.4033 21.7413 11.5187 21.8392 11.6558C22.0136 11.9028 22.0525 12.2101 22.0879 12.5031C22.1602 13.1487 22.2872 13.7871 22.4674 14.4114Z" fill="url(#paint16_linear_1038_71441)"/>
<path d="M22.4674 14.4114C22.6103 14.911 22.8049 15.3946 23.048 15.8543C23.1591 16.0578 23.2695 16.2613 23.4718 16.3888C23.5066 16.4112 23.5452 16.427 23.5856 16.4356C23.8827 16.498 24.0456 16.2606 24.1505 16.0422C24.3071 15.7005 24.4336 15.346 24.5287 14.9826C24.5471 14.9147 24.5648 14.8469 24.5825 14.779C24.6166 14.6488 24.6507 14.5179 24.6793 14.3869L25.993 10.9015C26.2653 10.5408 26.618 10.2482 27.0234 10.0466C27.4288 9.84504 27.8757 9.74011 28.3289 9.74011C28.9819 9.73602 29.6169 9.95351 30.1292 10.3567C30.9864 11.0026 31.4968 12.2745 31.4968 12.2745C31.571 12.4401 31.6093 12.6195 31.6092 12.8009C31.6089 12.969 31.5754 13.1354 31.5105 13.2905C31.4456 13.4457 31.3507 13.5866 31.2311 13.7052C31.1115 13.8239 30.9696 13.9179 30.8134 13.9819C30.6573 14.0459 30.4901 14.0786 30.3213 14.0783C30.1337 14.078 29.9483 14.0367 29.7785 13.9573C29.6086 13.878 29.4582 13.7625 29.3381 13.619C29.3333 13.6143 29.3299 13.6089 29.3258 13.6041C29.2432 13.4932 29.1746 13.3727 29.1214 13.2452C29.0505 13.0859 28.9713 12.9303 28.8842 12.7792C28.8374 12.7016 28.7867 12.6264 28.7323 12.554C28.6868 12.4881 28.6327 12.4286 28.5715 12.3769C28.4502 12.2806 28.2989 12.2413 28.1572 12.3254L28.1367 12.3383C27.9916 12.438 27.8894 12.6388 27.8185 12.7935C27.6141 13.2317 27.4969 13.6814 27.3811 14.1421C27.3586 14.2309 27.3375 14.3205 27.317 14.4093L26.7719 16.1731L26.0101 17.8466C25.7364 18.198 25.3863 18.483 24.9861 18.6802C24.5859 18.8773 24.146 18.9815 23.6994 18.985C21.8446 19.0243 20.9643 17.3569 20.9643 17.3569C19.9074 15.6304 19.596 13.3545 19.5217 12.6266C19.5061 12.4753 19.5054 12.3851 19.5054 12.3851C19.5052 12.1571 19.5677 11.9333 19.6859 11.7381C19.8042 11.5429 19.9738 11.3835 20.1766 11.2773C20.3859 11.1712 20.6191 11.1206 20.8539 11.1301C21.0723 11.1389 21.2847 11.2031 21.4712 11.3166C21.616 11.4033 21.7413 11.5187 21.8392 11.6558C22.0136 11.9028 22.0525 12.2101 22.0879 12.5031C22.1602 13.1487 22.2872 13.7871 22.4674 14.4114Z" fill="url(#paint17_linear_1038_71441)"/>
<path d="M22.4674 14.4114C22.6103 14.911 22.8049 15.3946 23.048 15.8543C23.1591 16.0578 23.2695 16.2613 23.4718 16.3888C23.5066 16.4112 23.5452 16.427 23.5856 16.4356C23.8827 16.498 24.0456 16.2606 24.1505 16.0422C24.3071 15.7005 24.4336 15.346 24.5287 14.9826C24.5471 14.9147 24.5648 14.8469 24.5825 14.779C24.6166 14.6488 24.6507 14.5179 24.6793 14.3869L25.993 10.9015C26.2653 10.5408 26.618 10.2482 27.0234 10.0466C27.4288 9.84504 27.8757 9.74011 28.3289 9.74011C28.9819 9.73602 29.6169 9.95351 30.1292 10.3567C30.9864 11.0026 31.4968 12.2745 31.4968 12.2745C31.571 12.4401 31.6093 12.6195 31.6092 12.8009C31.6089 12.969 31.5754 13.1354 31.5105 13.2905C31.4456 13.4457 31.3507 13.5866 31.2311 13.7052C31.1115 13.8239 30.9696 13.9179 30.8134 13.9819C30.6573 14.0459 30.4901 14.0786 30.3213 14.0783C30.1337 14.078 29.9483 14.0367 29.7785 13.9573C29.6086 13.878 29.4582 13.7625 29.3381 13.619C29.3333 13.6143 29.3299 13.6089 29.3258 13.6041C29.2432 13.4932 29.1746 13.3727 29.1214 13.2452C29.0505 13.0859 28.9713 12.9303 28.8842 12.7792C28.8374 12.7016 28.7867 12.6264 28.7323 12.554C28.6868 12.4881 28.6327 12.4286 28.5715 12.3769C28.4502 12.2806 28.2989 12.2413 28.1572 12.3254L28.1367 12.3383C27.9916 12.438 27.8894 12.6388 27.8185 12.7935C27.6141 13.2317 27.4969 13.6814 27.3811 14.1421C27.3586 14.2309 27.3375 14.3205 27.317 14.4093L26.7719 16.1731L26.0101 17.8466C25.7364 18.198 25.3863 18.483 24.9861 18.6802C24.5859 18.8773 24.146 18.9815 23.6994 18.985C21.8446 19.0243 20.9643 17.3569 20.9643 17.3569C19.9074 15.6304 19.596 13.3545 19.5217 12.6266C19.5061 12.4753 19.5054 12.3851 19.5054 12.3851C19.5052 12.1571 19.5677 11.9333 19.6859 11.7381C19.8042 11.5429 19.9738 11.3835 20.1766 11.2773C20.3859 11.1712 20.6191 11.1206 20.8539 11.1301C21.0723 11.1389 21.2847 11.2031 21.4712 11.3166C21.616 11.4033 21.7413 11.5187 21.8392 11.6558C22.0136 11.9028 22.0525 12.2101 22.0879 12.5031C22.1602 13.1487 22.2872 13.7871 22.4674 14.4114Z" fill="url(#paint18_linear_1038_71441)"/>
<path d="M22.4674 14.4114C22.6103 14.911 22.8049 15.3946 23.048 15.8543C23.1591 16.0578 23.2695 16.2613 23.4718 16.3888C23.5066 16.4112 23.5452 16.427 23.5856 16.4356C23.8827 16.498 24.0456 16.2606 24.1505 16.0422C24.3071 15.7005 24.4336 15.346 24.5287 14.9826C24.5471 14.9147 24.5648 14.8469 24.5825 14.779C24.6166 14.6488 24.6507 14.5179 24.6793 14.3869L25.993 10.9015C26.2653 10.5408 26.618 10.2482 27.0234 10.0466C27.4288 9.84504 27.8757 9.74011 28.3289 9.74011C28.9819 9.73602 29.6169 9.95351 30.1292 10.3567C30.9864 11.0026 31.4968 12.2745 31.4968 12.2745C31.571 12.4401 31.6093 12.6195 31.6092 12.8009C31.6089 12.969 31.5754 13.1354 31.5105 13.2905C31.4456 13.4457 31.3507 13.5866 31.2311 13.7052C31.1115 13.8239 30.9696 13.9179 30.8134 13.9819C30.6573 14.0459 30.4901 14.0786 30.3213 14.0783C30.1337 14.078 29.9483 14.0367 29.7785 13.9573C29.6086 13.878 29.4582 13.7625 29.3381 13.619C29.3333 13.6143 29.3299 13.6089 29.3258 13.6041C29.2432 13.4932 29.1746 13.3727 29.1214 13.2452C29.0505 13.0859 28.9713 12.9303 28.8842 12.7792C28.8374 12.7016 28.7867 12.6264 28.7323 12.554C28.6868 12.4881 28.6327 12.4286 28.5715 12.3769C28.4502 12.2806 28.2989 12.2413 28.1572 12.3254L28.1367 12.3383C27.9916 12.438 27.8894 12.6388 27.8185 12.7935C27.6141 13.2317 27.4969 13.6814 27.3811 14.1421C27.3586 14.2309 27.3375 14.3205 27.317 14.4093L26.7719 16.1731L26.0101 17.8466C25.7364 18.198 25.3863 18.483 24.9861 18.6802C24.5859 18.8773 24.146 18.9815 23.6994 18.985C21.8446 19.0243 20.9643 17.3569 20.9643 17.3569C19.9074 15.6304 19.596 13.3545 19.5217 12.6266C19.5061 12.4753 19.5054 12.3851 19.5054 12.3851C19.5052 12.1571 19.5677 11.9333 19.6859 11.7381C19.8042 11.5429 19.9738 11.3835 20.1766 11.2773C20.3859 11.1712 20.6191 11.1206 20.8539 11.1301C21.0723 11.1389 21.2847 11.2031 21.4712 11.3166C21.616 11.4033 21.7413 11.5187 21.8392 11.6558C22.0136 11.9028 22.0525 12.2101 22.0879 12.5031C22.1602 13.1487 22.2872 13.7871 22.4674 14.4114Z" fill="url(#paint19_linear_1038_71441)"/>
<path d="M25.1577 13.1177L25.9931 10.9015C26.2653 10.5408 26.6181 10.2482 27.0235 10.0466C27.4289 9.84504 27.8758 9.74011 28.329 9.74011C28.982 9.73602 29.617 9.95351 30.1293 10.3567C30.9865 11.0026 31.4968 12.2745 31.4968 12.2745C31.5711 12.4401 31.6094 12.6195 31.6093 12.8009C31.609 12.969 31.5755 13.1354 31.5106 13.2905C31.4457 13.4457 31.3507 13.5866 31.2312 13.7052C31.1116 13.8239 30.9696 13.9179 30.8136 13.9819C30.6575 14.0459 30.4902 14.0786 30.3214 14.0783C30.1338 14.078 29.9484 14.0367 29.7785 13.9573C29.6087 13.878 29.4583 13.7625 29.3381 13.619C29.3334 13.6143 29.33 13.6089 29.3259 13.6041C29.2433 13.4932 29.1747 13.3727 29.1215 13.2452C29.0506 13.0859 28.9715 12.9303 28.8843 12.7792C28.8375 12.7016 28.7868 12.6264 28.7324 12.554C28.6869 12.4881 28.6328 12.4286 28.5716 12.3769C28.4503 12.2806 28.299 12.2413 28.1573 12.3254L28.1368 12.3383C27.9917 12.438 27.8895 12.6388 27.8186 12.7935C27.6142 13.2317 27.497 13.6814 27.3811 14.1421C27.3587 14.2309 27.3375 14.3205 27.3171 14.4093L26.772 16.1731L25.1577 13.1177Z" fill="url(#paint20_linear_1038_71441)"/>
<path d="M31.2118 11.1389C31.1035 11.1386 30.9956 11.1521 30.8908 11.1789C31.1296 11.5227 31.3326 11.8898 31.4966 12.2745C31.5709 12.4401 31.6091 12.6195 31.609 12.8009C31.6087 12.969 31.5752 13.1353 31.5103 13.2905C31.4455 13.4457 31.3505 13.5866 31.2309 13.7052C31.1113 13.8238 30.9694 13.9178 30.8133 13.9819C30.6572 14.0459 30.4899 14.0786 30.3212 14.0783C30.093 14.0778 29.8691 14.017 29.6725 13.9019L29.5403 14.3876C29.3004 15.1867 29.1314 15.4954 29.1314 15.4954C29.0385 15.7117 28.9277 15.92 28.8003 16.1181C28.7124 16.2484 28.5999 16.3786 28.4459 16.4282C28.3923 16.4465 28.3351 16.4519 28.279 16.4438C28.2182 16.4367 28.1595 16.4173 28.1066 16.3868C28.0053 16.3107 27.9247 16.2107 27.8722 16.0957C27.807 15.9686 27.7486 15.8382 27.6971 15.705C27.5826 15.4296 27.4075 14.7512 27.4075 14.7512L27.2255 14.0403L27.0436 13.3253L26.9141 12.8545C26.5734 11.6334 26.1019 11.0276 26.1019 11.0276C25.7307 10.5017 25.2055 10.1028 24.598 9.88526C23.8941 9.63426 23.1548 9.77536 23.1548 9.77536C21.9964 10.0026 21.3879 10.7929 21.1201 11.1742C21.2428 11.2057 21.3601 11.2551 21.4683 11.3207C21.6131 11.4073 21.7384 11.5228 21.8363 11.6599C22.0107 11.9068 22.0496 12.2141 22.085 12.5072C22.1578 13.1431 22.2836 13.7718 22.4611 14.3869C22.8536 13.0912 23.3245 12.4875 23.3245 12.4875C23.3771 12.4222 23.4401 12.366 23.5112 12.3213C23.5481 12.2987 23.5895 12.2841 23.6325 12.2786C23.7122 12.2715 23.7921 12.2911 23.8594 12.3342C23.8715 12.3422 23.8831 12.3511 23.8941 12.3606C23.9556 12.4153 24.0085 12.4789 24.0508 12.5492C24.1488 12.7237 24.2338 12.9051 24.305 13.0919C24.4522 13.5051 24.5776 14.0091 24.5776 14.0091L24.9523 15.4791C25.2249 16.4797 25.4559 16.9654 25.4559 16.9654C26.0242 18.2618 26.8944 18.6274 26.8944 18.6274C27.3182 18.8529 27.7896 18.9754 28.2701 18.9849C28.7286 18.9979 29.1834 18.9006 29.5961 18.7014C30.0497 18.4823 30.4483 18.1651 30.7627 17.7727C30.9733 17.5298 31.2833 16.9376 31.2833 16.9376C31.6253 16.2598 31.8935 15.5476 32.0833 14.8129C32.2054 14.3553 32.3032 13.8916 32.3763 13.4236C32.4131 13.1916 32.4478 12.9576 32.4758 12.7242C32.5106 12.5026 32.5036 12.2765 32.4553 12.0574C32.4452 12.018 32.4327 11.9793 32.4178 11.9414C32.3085 11.6663 32.1054 11.4384 31.8441 11.2976C31.6499 11.193 31.4325 11.1384 31.2118 11.1389Z" fill="url(#paint21_linear_1038_71441)"/>
<path d="M31.2118 11.1389C31.1035 11.1386 30.9956 11.1521 30.8908 11.1789C31.1296 11.5227 31.3326 11.8898 31.4966 12.2745C31.5709 12.4401 31.6091 12.6195 31.609 12.8009C31.6087 12.969 31.5752 13.1353 31.5103 13.2905C31.4455 13.4457 31.3505 13.5866 31.2309 13.7052C31.1113 13.8238 30.9694 13.9178 30.8133 13.9819C30.6572 14.0459 30.4899 14.0786 30.3212 14.0783C30.093 14.0778 29.8691 14.017 29.6725 13.9019L29.5403 14.3876C29.3004 15.1867 29.1314 15.4954 29.1314 15.4954C29.0385 15.7117 28.9277 15.92 28.8003 16.1181C28.7124 16.2484 28.5999 16.3786 28.4459 16.4282C28.3923 16.4465 28.3351 16.4519 28.279 16.4438C28.2182 16.4367 28.1595 16.4173 28.1066 16.3868C28.0053 16.3107 27.9247 16.2107 27.8722 16.0957C27.807 15.9686 27.7486 15.8382 27.6971 15.705C27.5826 15.4296 27.4075 14.7512 27.4075 14.7512L27.2255 14.0403L27.0436 13.3253L26.9141 12.8545C26.5734 11.6334 26.1019 11.0276 26.1019 11.0276C25.7307 10.5017 25.2055 10.1028 24.598 9.88526C23.8941 9.63426 23.1548 9.77536 23.1548 9.77536C21.9964 10.0026 21.3879 10.7929 21.1201 11.1742C21.2428 11.2057 21.3601 11.2551 21.4683 11.3207C21.6131 11.4073 21.7384 11.5228 21.8363 11.6599C22.0107 11.9068 22.0496 12.2141 22.085 12.5072C22.1578 13.1431 22.2836 13.7718 22.4611 14.3869C22.8536 13.0912 23.3245 12.4875 23.3245 12.4875C23.3771 12.4222 23.4401 12.366 23.5112 12.3213C23.5481 12.2987 23.5895 12.2841 23.6325 12.2786C23.7122 12.2715 23.7921 12.2911 23.8594 12.3342C23.8715 12.3422 23.8831 12.3511 23.8941 12.3606C23.9556 12.4153 24.0085 12.4789 24.0508 12.5492C24.1488 12.7237 24.2338 12.9051 24.305 13.0919C24.4522 13.5051 24.5776 14.0091 24.5776 14.0091L24.9523 15.4791C25.2249 16.4797 25.4559 16.9654 25.4559 16.9654C26.0242 18.2618 26.8944 18.6274 26.8944 18.6274C27.3182 18.8529 27.7896 18.9754 28.2701 18.9849C28.7286 18.9979 29.1834 18.9006 29.5961 18.7014C30.0497 18.4823 30.4483 18.1651 30.7627 17.7727C30.9733 17.5298 31.2833 16.9376 31.2833 16.9376C31.6253 16.2598 31.8935 15.5476 32.0833 14.8129C32.2054 14.3553 32.3032 13.8916 32.3763 13.4236C32.4131 13.1916 32.4478 12.9576 32.4758 12.7242C32.5106 12.5026 32.5036 12.2765 32.4553 12.0574C32.4452 12.018 32.4327 11.9793 32.4178 11.9414C32.3085 11.6663 32.1054 11.4384 31.8441 11.2976C31.6499 11.193 31.4325 11.1384 31.2118 11.1389Z" fill="url(#paint22_radial_1038_71441)"/>
<path d="M31.2118 11.1389C31.1035 11.1386 30.9956 11.1521 30.8908 11.1789C31.1296 11.5227 31.3326 11.8898 31.4966 12.2745C31.5709 12.4401 31.6091 12.6195 31.609 12.8009C31.6087 12.969 31.5752 13.1353 31.5103 13.2905C31.4455 13.4457 31.3505 13.5866 31.2309 13.7052C31.1113 13.8238 30.9694 13.9178 30.8133 13.9819C30.6572 14.0459 30.4899 14.0786 30.3212 14.0783C30.093 14.0778 29.8691 14.017 29.6725 13.9019L29.5403 14.3876C29.3004 15.1867 29.1314 15.4954 29.1314 15.4954C29.0385 15.7117 28.9277 15.92 28.8003 16.1181C28.7124 16.2484 28.5999 16.3786 28.4459 16.4282C28.3923 16.4465 28.3351 16.4519 28.279 16.4438C28.2182 16.4367 28.1595 16.4173 28.1066 16.3868C28.0053 16.3107 27.9247 16.2107 27.8722 16.0957C27.807 15.9686 27.7486 15.8382 27.6971 15.705C27.5826 15.4296 27.4075 14.7512 27.4075 14.7512L27.2255 14.0403L27.0436 13.3253L26.9141 12.8545C26.5734 11.6334 26.1019 11.0276 26.1019 11.0276C25.7307 10.5017 25.2055 10.1028 24.598 9.88526C23.8941 9.63426 23.1548 9.77536 23.1548 9.77536C21.9964 10.0026 21.3879 10.7929 21.1201 11.1742C21.2428 11.2057 21.3601 11.2551 21.4683 11.3207C21.6131 11.4073 21.7384 11.5228 21.8363 11.6599C22.0107 11.9068 22.0496 12.2141 22.085 12.5072C22.1578 13.1431 22.2836 13.7718 22.4611 14.3869C22.8536 13.0912 23.3245 12.4875 23.3245 12.4875C23.3771 12.4222 23.4401 12.366 23.5112 12.3213C23.5481 12.2987 23.5895 12.2841 23.6325 12.2786C23.7122 12.2715 23.7921 12.2911 23.8594 12.3342C23.8715 12.3422 23.8831 12.3511 23.8941 12.3606C23.9556 12.4153 24.0085 12.4789 24.0508 12.5492C24.1488 12.7237 24.2338 12.9051 24.305 13.0919C24.4522 13.5051 24.5776 14.0091 24.5776 14.0091L24.9523 15.4791C25.2249 16.4797 25.4559 16.9654 25.4559 16.9654C26.0242 18.2618 26.8944 18.6274 26.8944 18.6274C27.3182 18.8529 27.7896 18.9754 28.2701 18.9849C28.7286 18.9979 29.1834 18.9006 29.5961 18.7014C30.0497 18.4823 30.4483 18.1651 30.7627 17.7727C30.9733 17.5298 31.2833 16.9376 31.2833 16.9376C31.6253 16.2598 31.8935 15.5476 32.0833 14.8129C32.2054 14.3553 32.3032 13.8916 32.3763 13.4236C32.4131 13.1916 32.4478 12.9576 32.4758 12.7242C32.5106 12.5026 32.5036 12.2765 32.4553 12.0574C32.4452 12.018 32.4327 11.9793 32.4178 11.9414C32.3085 11.6663 32.1054 11.4384 31.8441 11.2976C31.6499 11.193 31.4325 11.1384 31.2118 11.1389Z" fill="url(#paint23_radial_1038_71441)"/>
<path d="M31.2118 11.1389C31.1035 11.1386 30.9956 11.1521 30.8908 11.1789C31.1296 11.5227 31.3326 11.8898 31.4966 12.2745C31.5709 12.4401 31.6091 12.6195 31.609 12.8009C31.6087 12.969 31.5752 13.1353 31.5103 13.2905C31.4455 13.4457 31.3505 13.5866 31.2309 13.7052C31.1113 13.8238 30.9694 13.9178 30.8133 13.9819C30.6572 14.0459 30.4899 14.0786 30.3212 14.0783C30.093 14.0778 29.8691 14.017 29.6725 13.9019L29.5403 14.3876C29.3004 15.1867 29.1314 15.4954 29.1314 15.4954C29.0385 15.7117 28.9277 15.92 28.8003 16.1181C28.7124 16.2484 28.5999 16.3786 28.4459 16.4282C28.3923 16.4465 28.3351 16.4519 28.279 16.4438C28.2182 16.4367 28.1595 16.4173 28.1066 16.3868C28.0053 16.3107 27.9247 16.2107 27.8722 16.0957C27.807 15.9686 27.7486 15.8382 27.6971 15.705C27.5826 15.4296 27.4075 14.7512 27.4075 14.7512L27.2255 14.0403L27.0436 13.3253L26.9141 12.8545C26.5734 11.6334 26.1019 11.0276 26.1019 11.0276C25.7307 10.5017 25.2055 10.1028 24.598 9.88526C23.8941 9.63426 23.1548 9.77536 23.1548 9.77536C21.9964 10.0026 21.3879 10.7929 21.1201 11.1742C21.2428 11.2057 21.3601 11.2551 21.4683 11.3207C21.6131 11.4073 21.7384 11.5228 21.8363 11.6599C22.0107 11.9068 22.0496 12.2141 22.085 12.5072C22.1578 13.1431 22.2836 13.7718 22.4611 14.3869C22.8536 13.0912 23.3245 12.4875 23.3245 12.4875C23.3771 12.4222 23.4401 12.366 23.5112 12.3213C23.5481 12.2987 23.5895 12.2841 23.6325 12.2786C23.7122 12.2715 23.7921 12.2911 23.8594 12.3342C23.8715 12.3422 23.8831 12.3511 23.8941 12.3606C23.9556 12.4153 24.0085 12.4789 24.0508 12.5492C24.1488 12.7237 24.2338 12.9051 24.305 13.0919C24.4522 13.5051 24.5776 14.0091 24.5776 14.0091L24.9523 15.4791C25.2249 16.4797 25.4559 16.9654 25.4559 16.9654C26.0242 18.2618 26.8944 18.6274 26.8944 18.6274C27.3182 18.8529 27.7896 18.9754 28.2701 18.9849C28.7286 18.9979 29.1834 18.9006 29.5961 18.7014C30.0497 18.4823 30.4483 18.1651 30.7627 17.7727C30.9733 17.5298 31.2833 16.9376 31.2833 16.9376C31.6253 16.2598 31.8935 15.5476 32.0833 14.8129C32.2054 14.3553 32.3032 13.8916 32.3763 13.4236C32.4131 13.1916 32.4478 12.9576 32.4758 12.7242C32.5106 12.5026 32.5036 12.2765 32.4553 12.0574C32.4452 12.018 32.4327 11.9793 32.4178 11.9414C32.3085 11.6663 32.1054 11.4384 31.8441 11.2976C31.6499 11.193 31.4325 11.1384 31.2118 11.1389Z" fill="url(#paint24_radial_1038_71441)"/>
<path d="M31.2118 11.1389C31.1035 11.1386 30.9956 11.1521 30.8908 11.1789C31.1296 11.5227 31.3326 11.8898 31.4966 12.2745C31.5709 12.4401 31.6091 12.6195 31.609 12.8009C31.6087 12.969 31.5752 13.1353 31.5103 13.2905C31.4455 13.4457 31.3505 13.5866 31.2309 13.7052C31.1113 13.8238 30.9694 13.9178 30.8133 13.9819C30.6572 14.0459 30.4899 14.0786 30.3212 14.0783C30.093 14.0778 29.8691 14.017 29.6725 13.9019L29.5403 14.3876C29.3004 15.1867 29.1314 15.4954 29.1314 15.4954C29.0385 15.7117 28.9277 15.92 28.8003 16.1181C28.7124 16.2484 28.5999 16.3786 28.4459 16.4282C28.3923 16.4465 28.3351 16.4519 28.279 16.4438C28.2182 16.4367 28.1595 16.4173 28.1066 16.3868C28.0053 16.3107 27.9247 16.2107 27.8722 16.0957C27.807 15.9686 27.7486 15.8382 27.6971 15.705C27.5826 15.4296 27.4075 14.7512 27.4075 14.7512L27.2255 14.0403L27.0436 13.3253L26.9141 12.8545C26.5734 11.6334 26.1019 11.0276 26.1019 11.0276C25.7307 10.5017 25.2055 10.1028 24.598 9.88526C23.8941 9.63426 23.1548 9.77536 23.1548 9.77536C21.9964 10.0026 21.3879 10.7929 21.1201 11.1742C21.2428 11.2057 21.3601 11.2551 21.4683 11.3207C21.6131 11.4073 21.7384 11.5228 21.8363 11.6599C22.0107 11.9068 22.0496 12.2141 22.085 12.5072C22.1578 13.1431 22.2836 13.7718 22.4611 14.3869C22.8536 13.0912 23.3245 12.4875 23.3245 12.4875C23.3771 12.4222 23.4401 12.366 23.5112 12.3213C23.5481 12.2987 23.5895 12.2841 23.6325 12.2786C23.7122 12.2715 23.7921 12.2911 23.8594 12.3342C23.8715 12.3422 23.8831 12.3511 23.8941 12.3606C23.9556 12.4153 24.0085 12.4789 24.0508 12.5492C24.1488 12.7237 24.2338 12.9051 24.305 13.0919C24.4522 13.5051 24.5776 14.0091 24.5776 14.0091L24.9523 15.4791C25.2249 16.4797 25.4559 16.9654 25.4559 16.9654C26.0242 18.2618 26.8944 18.6274 26.8944 18.6274C27.3182 18.8529 27.7896 18.9754 28.2701 18.9849C28.7286 18.9979 29.1834 18.9006 29.5961 18.7014C30.0497 18.4823 30.4483 18.1651 30.7627 17.7727C30.9733 17.5298 31.2833 16.9376 31.2833 16.9376C31.6253 16.2598 31.8935 15.5476 32.0833 14.8129C32.2054 14.3553 32.3032 13.8916 32.3763 13.4236C32.4131 13.1916 32.4478 12.9576 32.4758 12.7242C32.5106 12.5026 32.5036 12.2765 32.4553 12.0574C32.4452 12.018 32.4327 11.9793 32.4178 11.9414C32.3085 11.6663 32.1054 11.4384 31.8441 11.2976C31.6499 11.193 31.4325 11.1384 31.2118 11.1389Z" fill="url(#paint25_radial_1038_71441)"/>
<path d="M31.2118 11.1389C31.1035 11.1386 30.9956 11.1521 30.8908 11.1789C31.1296 11.5227 31.3326 11.8898 31.4966 12.2745C31.5709 12.4401 31.6091 12.6195 31.609 12.8009C31.6087 12.969 31.5752 13.1353 31.5103 13.2905C31.4455 13.4457 31.3505 13.5866 31.2309 13.7052C31.1113 13.8238 30.9694 13.9178 30.8133 13.9819C30.6572 14.0459 30.4899 14.0786 30.3212 14.0783C30.093 14.0778 29.8691 14.017 29.6725 13.9019L29.5403 14.3876C29.3004 15.1867 29.1314 15.4954 29.1314 15.4954C29.0385 15.7117 28.9277 15.92 28.8003 16.1181C28.7124 16.2484 28.5999 16.3786 28.4459 16.4282C28.3923 16.4465 28.3351 16.4519 28.279 16.4438C28.2182 16.4367 28.1595 16.4173 28.1066 16.3868C28.0053 16.3107 27.9247 16.2107 27.8722 16.0957C27.807 15.9686 27.7486 15.8382 27.6971 15.705C27.5826 15.4296 27.4075 14.7512 27.4075 14.7512L27.2255 14.0403L27.0436 13.3253L26.9141 12.8545C26.5734 11.6334 26.1019 11.0276 26.1019 11.0276C25.7307 10.5017 25.2055 10.1028 24.598 9.88526C23.8941 9.63426 23.1548 9.77536 23.1548 9.77536C21.9964 10.0026 21.3879 10.7929 21.1201 11.1742C21.2428 11.2057 21.3601 11.2551 21.4683 11.3207C21.6131 11.4073 21.7384 11.5228 21.8363 11.6599C22.0107 11.9068 22.0496 12.2141 22.085 12.5072C22.1578 13.1431 22.2836 13.7718 22.4611 14.3869C22.8536 13.0912 23.3245 12.4875 23.3245 12.4875C23.3771 12.4222 23.4401 12.366 23.5112 12.3213C23.5481 12.2987 23.5895 12.2841 23.6325 12.2786C23.7122 12.2715 23.7921 12.2911 23.8594 12.3342C23.8715 12.3422 23.8831 12.3511 23.8941 12.3606C23.9556 12.4153 24.0085 12.4789 24.0508 12.5492C24.1488 12.7237 24.2338 12.9051 24.305 13.0919C24.4522 13.5051 24.5776 14.0091 24.5776 14.0091L24.9523 15.4791C25.2249 16.4797 25.4559 16.9654 25.4559 16.9654C26.0242 18.2618 26.8944 18.6274 26.8944 18.6274C27.3182 18.8529 27.7896 18.9754 28.2701 18.9849C28.7286 18.9979 29.1834 18.9006 29.5961 18.7014C30.0497 18.4823 30.4483 18.1651 30.7627 17.7727C30.9733 17.5298 31.2833 16.9376 31.2833 16.9376C31.6253 16.2598 31.8935 15.5476 32.0833 14.8129C32.2054 14.3553 32.3032 13.8916 32.3763 13.4236C32.4131 13.1916 32.4478 12.9576 32.4758 12.7242C32.5106 12.5026 32.5036 12.2765 32.4553 12.0574C32.4452 12.018 32.4327 11.9793 32.4178 11.9414C32.3085 11.6663 32.1054 11.4384 31.8441 11.2976C31.6499 11.193 31.4325 11.1384 31.2118 11.1389Z" fill="url(#paint26_radial_1038_71441)"/>
<path d="M31.2118 11.1389C31.1035 11.1386 30.9956 11.1521 30.8908 11.1789C31.1296 11.5227 31.3326 11.8898 31.4966 12.2745C31.5709 12.4401 31.6091 12.6195 31.609 12.8009C31.6087 12.969 31.5752 13.1353 31.5103 13.2905C31.4455 13.4457 31.3505 13.5866 31.2309 13.7052C31.1113 13.8238 30.9694 13.9178 30.8133 13.9819C30.6572 14.0459 30.4899 14.0786 30.3212 14.0783C30.093 14.0778 29.8691 14.017 29.6725 13.9019L29.5403 14.3876C29.3004 15.1867 29.1314 15.4954 29.1314 15.4954C29.0385 15.7117 28.9277 15.92 28.8003 16.1181C28.7124 16.2484 28.5999 16.3786 28.4459 16.4282C28.3923 16.4465 28.3351 16.4519 28.279 16.4438C28.2182 16.4367 28.1595 16.4173 28.1066 16.3868C28.0053 16.3107 27.9247 16.2107 27.8722 16.0957C27.807 15.9686 27.7486 15.8382 27.6971 15.705C27.5826 15.4296 27.4075 14.7512 27.4075 14.7512L27.2255 14.0403L27.0436 13.3253L26.9141 12.8545C26.5734 11.6334 26.1019 11.0276 26.1019 11.0276C25.7307 10.5017 25.2055 10.1028 24.598 9.88526C23.8941 9.63426 23.1548 9.77536 23.1548 9.77536C21.9964 10.0026 21.3879 10.7929 21.1201 11.1742C21.2428 11.2057 21.3601 11.2551 21.4683 11.3207C21.6131 11.4073 21.7384 11.5228 21.8363 11.6599C22.0107 11.9068 22.0496 12.2141 22.085 12.5072C22.1578 13.1431 22.2836 13.7718 22.4611 14.3869C22.8536 13.0912 23.3245 12.4875 23.3245 12.4875C23.3771 12.4222 23.4401 12.366 23.5112 12.3213C23.5481 12.2987 23.5895 12.2841 23.6325 12.2786C23.7122 12.2715 23.7921 12.2911 23.8594 12.3342C23.8715 12.3422 23.8831 12.3511 23.8941 12.3606C23.9556 12.4153 24.0085 12.4789 24.0508 12.5492C24.1488 12.7237 24.2338 12.9051 24.305 13.0919C24.4522 13.5051 24.5776 14.0091 24.5776 14.0091L24.9523 15.4791C25.2249 16.4797 25.4559 16.9654 25.4559 16.9654C26.0242 18.2618 26.8944 18.6274 26.8944 18.6274C27.3182 18.8529 27.7896 18.9754 28.2701 18.9849C28.7286 18.9979 29.1834 18.9006 29.5961 18.7014C30.0497 18.4823 30.4483 18.1651 30.7627 17.7727C30.9733 17.5298 31.2833 16.9376 31.2833 16.9376C31.6253 16.2598 31.8935 15.5476 32.0833 14.8129C32.2054 14.3553 32.3032 13.8916 32.3763 13.4236C32.4131 13.1916 32.4478 12.9576 32.4758 12.7242C32.5106 12.5026 32.5036 12.2765 32.4553 12.0574C32.4452 12.018 32.4327 11.9793 32.4178 11.9414C32.3085 11.6663 32.1054 11.4384 31.8441 11.2976C31.6499 11.193 31.4325 11.1384 31.2118 11.1389Z" fill="url(#paint27_radial_1038_71441)"/>
<path d="M31.2118 11.1389C31.1035 11.1386 30.9956 11.1521 30.8908 11.1789C31.1296 11.5227 31.3326 11.8898 31.4966 12.2745C31.5709 12.4401 31.6091 12.6195 31.609 12.8009C31.6087 12.969 31.5752 13.1353 31.5103 13.2905C31.4455 13.4457 31.3505 13.5866 31.2309 13.7052C31.1113 13.8238 30.9694 13.9178 30.8133 13.9819C30.6572 14.0459 30.4899 14.0786 30.3212 14.0783C30.093 14.0778 29.8691 14.017 29.6725 13.9019L29.5403 14.3876C29.3004 15.1867 29.1314 15.4954 29.1314 15.4954C29.0385 15.7117 28.9277 15.92 28.8003 16.1181C28.7124 16.2484 28.5999 16.3786 28.4459 16.4282C28.3923 16.4465 28.3351 16.4519 28.279 16.4438C28.2182 16.4367 28.1595 16.4173 28.1066 16.3868C28.0053 16.3107 27.9247 16.2107 27.8722 16.0957C27.807 15.9686 27.7486 15.8382 27.6971 15.705C27.5826 15.4296 27.4075 14.7512 27.4075 14.7512L27.2255 14.0403L27.0436 13.3253L26.9141 12.8545C26.5734 11.6334 26.1019 11.0276 26.1019 11.0276C25.7307 10.5017 25.2055 10.1028 24.598 9.88526C23.8941 9.63426 23.1548 9.77536 23.1548 9.77536C21.9964 10.0026 21.3879 10.7929 21.1201 11.1742C21.2428 11.2057 21.3601 11.2551 21.4683 11.3207C21.6131 11.4073 21.7384 11.5228 21.8363 11.6599C22.0107 11.9068 22.0496 12.2141 22.085 12.5072C22.1578 13.1431 22.2836 13.7718 22.4611 14.3869C22.8536 13.0912 23.3245 12.4875 23.3245 12.4875C23.3771 12.4222 23.4401 12.366 23.5112 12.3213C23.5481 12.2987 23.5895 12.2841 23.6325 12.2786C23.7122 12.2715 23.7921 12.2911 23.8594 12.3342C23.8715 12.3422 23.8831 12.3511 23.8941 12.3606C23.9556 12.4153 24.0085 12.4789 24.0508 12.5492C24.1488 12.7237 24.2338 12.9051 24.305 13.0919C24.4522 13.5051 24.5776 14.0091 24.5776 14.0091L24.9523 15.4791C25.2249 16.4797 25.4559 16.9654 25.4559 16.9654C26.0242 18.2618 26.8944 18.6274 26.8944 18.6274C27.3182 18.8529 27.7896 18.9754 28.2701 18.9849C28.7286 18.9979 29.1834 18.9006 29.5961 18.7014C30.0497 18.4823 30.4483 18.1651 30.7627 17.7727C30.9733 17.5298 31.2833 16.9376 31.2833 16.9376C31.6253 16.2598 31.8935 15.5476 32.0833 14.8129C32.2054 14.3553 32.3032 13.8916 32.3763 13.4236C32.4131 13.1916 32.4478 12.9576 32.4758 12.7242C32.5106 12.5026 32.5036 12.2765 32.4553 12.0574C32.4452 12.018 32.4327 11.9793 32.4178 11.9414C32.3085 11.6663 32.1054 11.4384 31.8441 11.2976C31.6499 11.193 31.4325 11.1384 31.2118 11.1389Z" fill="url(#paint28_radial_1038_71441)"/>
<path d="M31.2118 11.1389C31.1035 11.1386 30.9956 11.1521 30.8908 11.1789C31.1296 11.5227 31.3326 11.8898 31.4966 12.2745C31.5709 12.4401 31.6091 12.6195 31.609 12.8009C31.6087 12.969 31.5752 13.1353 31.5103 13.2905C31.4455 13.4457 31.3505 13.5866 31.2309 13.7052C31.1113 13.8238 30.9694 13.9178 30.8133 13.9819C30.6572 14.0459 30.4899 14.0786 30.3212 14.0783C30.093 14.0778 29.8691 14.017 29.6725 13.9019L29.5403 14.3876C29.3004 15.1867 29.1314 15.4954 29.1314 15.4954C29.0385 15.7117 28.9277 15.92 28.8003 16.1181C28.7124 16.2484 28.5999 16.3786 28.4459 16.4282C28.3923 16.4465 28.3351 16.4519 28.279 16.4438C28.2182 16.4367 28.1595 16.4173 28.1066 16.3868C28.0053 16.3107 27.9247 16.2107 27.8722 16.0957C27.807 15.9686 27.7486 15.8382 27.6971 15.705C27.5826 15.4296 27.4075 14.7512 27.4075 14.7512L27.2255 14.0403L27.0436 13.3253L26.9141 12.8545C26.5734 11.6334 26.1019 11.0276 26.1019 11.0276C25.7307 10.5017 25.2055 10.1028 24.598 9.88526C23.8941 9.63426 23.1548 9.77536 23.1548 9.77536C21.9964 10.0026 21.3879 10.7929 21.1201 11.1742C21.2428 11.2057 21.3601 11.2551 21.4683 11.3207C21.6131 11.4073 21.7384 11.5228 21.8363 11.6599C22.0107 11.9068 22.0496 12.2141 22.085 12.5072C22.1578 13.1431 22.2836 13.7718 22.4611 14.3869C22.8536 13.0912 23.3245 12.4875 23.3245 12.4875C23.3771 12.4222 23.4401 12.366 23.5112 12.3213C23.5481 12.2987 23.5895 12.2841 23.6325 12.2786C23.7122 12.2715 23.7921 12.2911 23.8594 12.3342C23.8715 12.3422 23.8831 12.3511 23.8941 12.3606C23.9556 12.4153 24.0085 12.4789 24.0508 12.5492C24.1488 12.7237 24.2338 12.9051 24.305 13.0919C24.4522 13.5051 24.5776 14.0091 24.5776 14.0091L24.9523 15.4791C25.2249 16.4797 25.4559 16.9654 25.4559 16.9654C26.0242 18.2618 26.8944 18.6274 26.8944 18.6274C27.3182 18.8529 27.7896 18.9754 28.2701 18.9849C28.7286 18.9979 29.1834 18.9006 29.5961 18.7014C30.0497 18.4823 30.4483 18.1651 30.7627 17.7727C30.9733 17.5298 31.2833 16.9376 31.2833 16.9376C31.6253 16.2598 31.8935 15.5476 32.0833 14.8129C32.2054 14.3553 32.3032 13.8916 32.3763 13.4236C32.4131 13.1916 32.4478 12.9576 32.4758 12.7242C32.5106 12.5026 32.5036 12.2765 32.4553 12.0574C32.4452 12.018 32.4327 11.9793 32.4178 11.9414C32.3085 11.6663 32.1054 11.4384 31.8441 11.2976C31.6499 11.193 31.4325 11.1384 31.2118 11.1389Z" fill="url(#paint29_radial_1038_71441)"/>
<path d="M31.2118 11.1389C31.1035 11.1386 30.9956 11.1521 30.8908 11.1789C31.1296 11.5227 31.3326 11.8898 31.4966 12.2745C31.5709 12.4401 31.6091 12.6195 31.609 12.8009C31.6087 12.969 31.5752 13.1353 31.5103 13.2905C31.4455 13.4457 31.3505 13.5866 31.2309 13.7052C31.1113 13.8238 30.9694 13.9178 30.8133 13.9819C30.6572 14.0459 30.4899 14.0786 30.3212 14.0783C30.093 14.0778 29.8691 14.017 29.6725 13.9019L29.5403 14.3876C29.3004 15.1867 29.1314 15.4954 29.1314 15.4954C29.0385 15.7117 28.9277 15.92 28.8003 16.1181C28.7124 16.2484 28.5999 16.3786 28.4459 16.4282C28.3923 16.4465 28.3351 16.4519 28.279 16.4438C28.2182 16.4367 28.1595 16.4173 28.1066 16.3868C28.0053 16.3107 27.9247 16.2107 27.8722 16.0957C27.807 15.9686 27.7486 15.8382 27.6971 15.705C27.5826 15.4296 27.4075 14.7512 27.4075 14.7512L27.2255 14.0403L27.0436 13.3253L26.9141 12.8545C26.5734 11.6334 26.1019 11.0276 26.1019 11.0276C25.7307 10.5017 25.2055 10.1028 24.598 9.88526C23.8941 9.63426 23.1548 9.77536 23.1548 9.77536C21.9964 10.0026 21.3879 10.7929 21.1201 11.1742C21.2428 11.2057 21.3601 11.2551 21.4683 11.3207C21.6131 11.4073 21.7384 11.5228 21.8363 11.6599C22.0107 11.9068 22.0496 12.2141 22.085 12.5072C22.1578 13.1431 22.2836 13.7718 22.4611 14.3869C22.8536 13.0912 23.3245 12.4875 23.3245 12.4875C23.3771 12.4222 23.4401 12.366 23.5112 12.3213C23.5481 12.2987 23.5895 12.2841 23.6325 12.2786C23.7122 12.2715 23.7921 12.2911 23.8594 12.3342C23.8715 12.3422 23.8831 12.3511 23.8941 12.3606C23.9556 12.4153 24.0085 12.4789 24.0508 12.5492C24.1488 12.7237 24.2338 12.9051 24.305 13.0919C24.4522 13.5051 24.5776 14.0091 24.5776 14.0091L24.9523 15.4791C25.2249 16.4797 25.4559 16.9654 25.4559 16.9654C26.0242 18.2618 26.8944 18.6274 26.8944 18.6274C27.3182 18.8529 27.7896 18.9754 28.2701 18.9849C28.7286 18.9979 29.1834 18.9006 29.5961 18.7014C30.0497 18.4823 30.4483 18.1651 30.7627 17.7727C30.9733 17.5298 31.2833 16.9376 31.2833 16.9376C31.6253 16.2598 31.8935 15.5476 32.0833 14.8129C32.2054 14.3553 32.3032 13.8916 32.3763 13.4236C32.4131 13.1916 32.4478 12.9576 32.4758 12.7242C32.5106 12.5026 32.5036 12.2765 32.4553 12.0574C32.4452 12.018 32.4327 11.9793 32.4178 11.9414C32.3085 11.6663 32.1054 11.4384 31.8441 11.2976C31.6499 11.193 31.4325 11.1384 31.2118 11.1389Z" fill="url(#paint30_radial_1038_71441)"/>
<path d="M31.2118 11.1389C31.1035 11.1386 30.9956 11.1521 30.8908 11.1789C31.1296 11.5227 31.3326 11.8898 31.4966 12.2745C31.5709 12.4401 31.6091 12.6195 31.609 12.8009C31.6087 12.969 31.5752 13.1353 31.5103 13.2905C31.4455 13.4457 31.3505 13.5866 31.2309 13.7052C31.1113 13.8238 30.9694 13.9178 30.8133 13.9819C30.6572 14.0459 30.4899 14.0786 30.3212 14.0783C30.093 14.0778 29.8691 14.017 29.6725 13.9019L29.5403 14.3876C29.3004 15.1867 29.1314 15.4954 29.1314 15.4954C29.0385 15.7117 28.9277 15.92 28.8003 16.1181C28.7124 16.2484 28.5999 16.3786 28.4459 16.4282C28.3923 16.4465 28.3351 16.4519 28.279 16.4438C28.2182 16.4367 28.1595 16.4173 28.1066 16.3868C28.0053 16.3107 27.9247 16.2107 27.8722 16.0957C27.807 15.9686 27.7486 15.8382 27.6971 15.705C27.5826 15.4296 27.4075 14.7512 27.4075 14.7512L27.2255 14.0403L27.0436 13.3253L26.9141 12.8545C26.5734 11.6334 26.1019 11.0276 26.1019 11.0276C25.7307 10.5017 25.2055 10.1028 24.598 9.88526C23.8941 9.63426 23.1548 9.77536 23.1548 9.77536C21.9964 10.0026 21.3879 10.7929 21.1201 11.1742C21.2428 11.2057 21.3601 11.2551 21.4683 11.3207C21.6131 11.4073 21.7384 11.5228 21.8363 11.6599C22.0107 11.9068 22.0496 12.2141 22.085 12.5072C22.1578 13.1431 22.2836 13.7718 22.4611 14.3869C22.8536 13.0912 23.3245 12.4875 23.3245 12.4875C23.3771 12.4222 23.4401 12.366 23.5112 12.3213C23.5481 12.2987 23.5895 12.2841 23.6325 12.2786C23.7122 12.2715 23.7921 12.2911 23.8594 12.3342C23.8715 12.3422 23.8831 12.3511 23.8941 12.3606C23.9556 12.4153 24.0085 12.4789 24.0508 12.5492C24.1488 12.7237 24.2338 12.9051 24.305 13.0919C24.4522 13.5051 24.5776 14.0091 24.5776 14.0091L24.9523 15.4791C25.2249 16.4797 25.4559 16.9654 25.4559 16.9654C26.0242 18.2618 26.8944 18.6274 26.8944 18.6274C27.3182 18.8529 27.7896 18.9754 28.2701 18.9849C28.7286 18.9979 29.1834 18.9006 29.5961 18.7014C30.0497 18.4823 30.4483 18.1651 30.7627 17.7727C30.9733 17.5298 31.2833 16.9376 31.2833 16.9376C31.6253 16.2598 31.8935 15.5476 32.0833 14.8129C32.2054 14.3553 32.3032 13.8916 32.3763 13.4236C32.4131 13.1916 32.4478 12.9576 32.4758 12.7242C32.5106 12.5026 32.5036 12.2765 32.4553 12.0574C32.4452 12.018 32.4327 11.9793 32.4178 11.9414C32.3085 11.6663 32.1054 11.4384 31.8441 11.2976C31.6499 11.193 31.4325 11.1384 31.2118 11.1389Z" fill="url(#paint31_radial_1038_71441)"/>
<path d="M31.2118 11.1389C31.1035 11.1386 30.9956 11.1521 30.8908 11.1789C31.1296 11.5227 31.3326 11.8898 31.4966 12.2745C31.5709 12.4401 31.6091 12.6195 31.609 12.8009C31.6087 12.969 31.5752 13.1353 31.5103 13.2905C31.4455 13.4457 31.3505 13.5866 31.2309 13.7052C31.1113 13.8238 30.9694 13.9178 30.8133 13.9819C30.6572 14.0459 30.4899 14.0786 30.3212 14.0783C30.093 14.0778 29.8691 14.017 29.6725 13.9019L29.5403 14.3876C29.3004 15.1867 29.1314 15.4954 29.1314 15.4954C29.0385 15.7117 28.9277 15.92 28.8003 16.1181C28.7124 16.2484 28.5999 16.3786 28.4459 16.4282C28.3923 16.4465 28.3351 16.4519 28.279 16.4438C28.2182 16.4367 28.1595 16.4173 28.1066 16.3868C28.0053 16.3107 27.9247 16.2107 27.8722 16.0957C27.807 15.9686 27.7486 15.8382 27.6971 15.705C27.5826 15.4296 27.4075 14.7512 27.4075 14.7512L27.2255 14.0403L27.0436 13.3253L26.9141 12.8545C26.5734 11.6334 26.1019 11.0276 26.1019 11.0276C25.7307 10.5017 25.2055 10.1028 24.598 9.88526C23.8941 9.63426 23.1548 9.77536 23.1548 9.77536C21.9964 10.0026 21.3879 10.7929 21.1201 11.1742C21.2428 11.2057 21.3601 11.2551 21.4683 11.3207C21.6131 11.4073 21.7384 11.5228 21.8363 11.6599C22.0107 11.9068 22.0496 12.2141 22.085 12.5072C22.1578 13.1431 22.2836 13.7718 22.4611 14.3869C22.8536 13.0912 23.3245 12.4875 23.3245 12.4875C23.3771 12.4222 23.4401 12.366 23.5112 12.3213C23.5481 12.2987 23.5895 12.2841 23.6325 12.2786C23.7122 12.2715 23.7921 12.2911 23.8594 12.3342C23.8715 12.3422 23.8831 12.3511 23.8941 12.3606C23.9556 12.4153 24.0085 12.4789 24.0508 12.5492C24.1488 12.7237 24.2338 12.9051 24.305 13.0919C24.4522 13.5051 24.5776 14.0091 24.5776 14.0091L24.9523 15.4791C25.2249 16.4797 25.4559 16.9654 25.4559 16.9654C26.0242 18.2618 26.8944 18.6274 26.8944 18.6274C27.3182 18.8529 27.7896 18.9754 28.2701 18.9849C28.7286 18.9979 29.1834 18.9006 29.5961 18.7014C30.0497 18.4823 30.4483 18.1651 30.7627 17.7727C30.9733 17.5298 31.2833 16.9376 31.2833 16.9376C31.6253 16.2598 31.8935 15.5476 32.0833 14.8129C32.2054 14.3553 32.3032 13.8916 32.3763 13.4236C32.4131 13.1916 32.4478 12.9576 32.4758 12.7242C32.5106 12.5026 32.5036 12.2765 32.4553 12.0574C32.4452 12.018 32.4327 11.9793 32.4178 11.9414C32.3085 11.6663 32.1054 11.4384 31.8441 11.2976C31.6499 11.193 31.4325 11.1384 31.2118 11.1389Z" fill="url(#paint32_radial_1038_71441)"/>
<path d="M31.2118 11.1389C31.1035 11.1386 30.9956 11.1521 30.8908 11.1789C31.1296 11.5227 31.3326 11.8898 31.4966 12.2745C31.5709 12.4401 31.6091 12.6195 31.609 12.8009C31.6087 12.969 31.5752 13.1353 31.5103 13.2905C31.4455 13.4457 31.3505 13.5866 31.2309 13.7052C31.1113 13.8238 30.9694 13.9178 30.8133 13.9819C30.6572 14.0459 30.4899 14.0786 30.3212 14.0783C30.093 14.0778 29.8691 14.017 29.6725 13.9019L29.5403 14.3876C29.3004 15.1867 29.1314 15.4954 29.1314 15.4954C29.0385 15.7117 28.9277 15.92 28.8003 16.1181C28.7124 16.2484 28.5999 16.3786 28.4459 16.4282C28.3923 16.4465 28.3351 16.4519 28.279 16.4438C28.2182 16.4367 28.1595 16.4173 28.1066 16.3868C28.0053 16.3107 27.9247 16.2107 27.8722 16.0957C27.807 15.9686 27.7486 15.8382 27.6971 15.705C27.5826 15.4296 27.4075 14.7512 27.4075 14.7512L27.2255 14.0403L27.0436 13.3253L26.9141 12.8545C26.5734 11.6334 26.1019 11.0276 26.1019 11.0276C25.7307 10.5017 25.2055 10.1028 24.598 9.88526C23.8941 9.63426 23.1548 9.77536 23.1548 9.77536C21.9964 10.0026 21.3879 10.7929 21.1201 11.1742C21.2428 11.2057 21.3601 11.2551 21.4683 11.3207C21.6131 11.4073 21.7384 11.5228 21.8363 11.6599C22.0107 11.9068 22.0496 12.2141 22.085 12.5072C22.1578 13.1431 22.2836 13.7718 22.4611 14.3869C22.8536 13.0912 23.3245 12.4875 23.3245 12.4875C23.3771 12.4222 23.4401 12.366 23.5112 12.3213C23.5481 12.2987 23.5895 12.2841 23.6325 12.2786C23.7122 12.2715 23.7921 12.2911 23.8594 12.3342C23.8715 12.3422 23.8831 12.3511 23.8941 12.3606C23.9556 12.4153 24.0085 12.4789 24.0508 12.5492C24.1488 12.7237 24.2338 12.9051 24.305 13.0919C24.4522 13.5051 24.5776 14.0091 24.5776 14.0091L24.9523 15.4791C25.2249 16.4797 25.4559 16.9654 25.4559 16.9654C26.0242 18.2618 26.8944 18.6274 26.8944 18.6274C27.3182 18.8529 27.7896 18.9754 28.2701 18.9849C28.7286 18.9979 29.1834 18.9006 29.5961 18.7014C30.0497 18.4823 30.4483 18.1651 30.7627 17.7727C30.9733 17.5298 31.2833 16.9376 31.2833 16.9376C31.6253 16.2598 31.8935 15.5476 32.0833 14.8129C32.2054 14.3553 32.3032 13.8916 32.3763 13.4236C32.4131 13.1916 32.4478 12.9576 32.4758 12.7242C32.5106 12.5026 32.5036 12.2765 32.4553 12.0574C32.4452 12.018 32.4327 11.9793 32.4178 11.9414C32.3085 11.6663 32.1054 11.4384 31.8441 11.2976C31.6499 11.193 31.4325 11.1384 31.2118 11.1389Z" fill="url(#paint33_radial_1038_71441)"/>
<path d="M31.2118 11.1389C31.1035 11.1386 30.9956 11.1521 30.8908 11.1789C31.1296 11.5227 31.3326 11.8898 31.4966 12.2745C31.5709 12.4401 31.6091 12.6195 31.609 12.8009C31.6087 12.969 31.5752 13.1353 31.5103 13.2905C31.4455 13.4457 31.3505 13.5866 31.2309 13.7052C31.1113 13.8238 30.9694 13.9178 30.8133 13.9819C30.6572 14.0459 30.4899 14.0786 30.3212 14.0783C30.093 14.0778 29.8691 14.017 29.6725 13.9019L29.5403 14.3876C29.3004 15.1867 29.1314 15.4954 29.1314 15.4954C29.0385 15.7117 28.9277 15.92 28.8003 16.1181C28.7124 16.2484 28.5999 16.3786 28.4459 16.4282C28.3923 16.4465 28.3351 16.4519 28.279 16.4438C28.2182 16.4367 28.1595 16.4173 28.1066 16.3868C28.0053 16.3107 27.9247 16.2107 27.8722 16.0957C27.807 15.9686 27.7486 15.8382 27.6971 15.705C27.5826 15.4296 27.4075 14.7512 27.4075 14.7512L27.2255 14.0403L27.0436 13.3253L26.9141 12.8545C26.5734 11.6334 26.1019 11.0276 26.1019 11.0276C25.7307 10.5017 25.2055 10.1028 24.598 9.88526C23.8941 9.63426 23.1548 9.77536 23.1548 9.77536C21.9964 10.0026 21.3879 10.7929 21.1201 11.1742C21.2428 11.2057 21.3601 11.2551 21.4683 11.3207C21.6131 11.4073 21.7384 11.5228 21.8363 11.6599C22.0107 11.9068 22.0496 12.2141 22.085 12.5072C22.1578 13.1431 22.2836 13.7718 22.4611 14.3869C22.8536 13.0912 23.3245 12.4875 23.3245 12.4875C23.3771 12.4222 23.4401 12.366 23.5112 12.3213C23.5481 12.2987 23.5895 12.2841 23.6325 12.2786C23.7122 12.2715 23.7921 12.2911 23.8594 12.3342C23.8715 12.3422 23.8831 12.3511 23.8941 12.3606C23.9556 12.4153 24.0085 12.4789 24.0508 12.5492C24.1488 12.7237 24.2338 12.9051 24.305 13.0919C24.4522 13.5051 24.5776 14.0091 24.5776 14.0091L24.9523 15.4791C25.2249 16.4797 25.4559 16.9654 25.4559 16.9654C26.0242 18.2618 26.8944 18.6274 26.8944 18.6274C27.3182 18.8529 27.7896 18.9754 28.2701 18.9849C28.7286 18.9979 29.1834 18.9006 29.5961 18.7014C30.0497 18.4823 30.4483 18.1651 30.7627 17.7727C30.9733 17.5298 31.2833 16.9376 31.2833 16.9376C31.6253 16.2598 31.8935 15.5476 32.0833 14.8129C32.2054 14.3553 32.3032 13.8916 32.3763 13.4236C32.4131 13.1916 32.4478 12.9576 32.4758 12.7242C32.5106 12.5026 32.5036 12.2765 32.4553 12.0574C32.4452 12.018 32.4327 11.9793 32.4178 11.9414C32.3085 11.6663 32.1054 11.4384 31.8441 11.2976C31.6499 11.193 31.4325 11.1384 31.2118 11.1389Z" fill="url(#paint34_linear_1038_71441)"/>
<defs>
<linearGradient id="paint0_linear_1038_71441" x1="20.0887" y1="15.9859" x2="30.1771" y2="11.8891" gradientUnits="userSpaceOnUse">
<stop offset="0.13" stop-color="#1CBBF3"/>
<stop offset="0.34" stop-color="#1F99A5"/>
<stop offset="0.45" stop-color="#209CA6"/>
<stop offset="0.51" stop-color="#24A4AA"/>
<stop offset="0.57" stop-color="#2BB3B0"/>
<stop offset="0.6" stop-color="#30BDB4"/>
<stop offset="0.79" stop-color="#38BA90"/>
<stop offset="1" stop-color="#60F05A"/>
</linearGradient>
<radialGradient id="paint1_radial_1038_71441" cx="0" cy="0" r="1" gradientUnits="userSpaceOnUse" gradientTransform="translate(26.9014 13.5708) rotate(74.2533) scale(4.80783 3.6679)">
<stop stop-color="#227B60"/>
<stop offset="0.14" stop-color="#227B60" stop-opacity="0.81"/>
<stop offset="0.58" stop-color="#227B60" stop-opacity="0.23"/>
<stop offset="0.78" stop-color="#227B60" stop-opacity="0"/>
</radialGradient>
<radialGradient id="paint2_radial_1038_71441" cx="0" cy="0" r="1" gradientUnits="userSpaceOnUse" gradientTransform="translate(27.6153 13.4147) rotate(91.1509) scale(3.25005 2.48074)">
<stop stop-color="#227B60"/>
<stop offset="0.25" stop-color="#227B60" stop-opacity="0.7"/>
<stop offset="0.71" stop-color="#227B60" stop-opacity="0.2"/>
<stop offset="0.92" stop-color="#227B60" stop-opacity="0"/>
</radialGradient>
<radialGradient id="paint3_radial_1038_71441" cx="0" cy="0" r="1" gradientUnits="userSpaceOnUse" gradientTransform="translate(27.5067 13.3809) rotate(88.5937) scale(3.02961 2.16064)">
<stop stop-color="#227B60"/>
<stop offset="0.07" stop-color="#227B60" stop-opacity="0.9"/>
<stop offset="0.34" stop-color="#227B60" stop-opacity="0.51"/>
<stop offset="0.59" stop-color="#227B60" stop-opacity="0.23"/>
<stop offset="0.79" stop-color="#227B60" stop-opacity="0.06"/>
<stop offset="0.92" stop-color="#227B60" stop-opacity="0"/>
</radialGradient>
<radialGradient id="paint4_radial_1038_71441" cx="0" cy="0" r="1" gradientUnits="userSpaceOnUse" gradientTransform="translate(27.5582 13.2422) rotate(88.5937) scale(2.44621 1.74457)">
<stop stop-color="#227B60"/>
<stop offset="0.36" stop-color="#227B60" stop-opacity="0.63"/>
<stop offset="0.92" stop-color="#227B60" stop-opacity="0"/>
</radialGradient>
<radialGradient id="paint5_radial_1038_71441" cx="0" cy="0" r="1" gradientUnits="userSpaceOnUse" gradientTransform="translate(27.593 13.3808) rotate(88.5937) scale(1.951 1.25422)">
<stop stop-color="#20735A"/>
<stop offset="0.15" stop-color="#20745A" stop-opacity="0.93"/>
<stop offset="0.38" stop-color="#21755C" stop-opacity="0.74"/>
<stop offset="0.67" stop-color="#21785D" stop-opacity="0.43"/>
<stop offset="1" stop-color="#227B60" stop-opacity="0"/>
</radialGradient>
<radialGradient id="paint6_radial_1038_71441" cx="0" cy="0" r="1" gradientUnits="userSpaceOnUse" gradientTransform="translate(27.8516 13.5992) rotate(23.7057) scale(3.15127 2.35633)">
<stop stop-color="#227A61"/>
<stop offset="0.36" stop-color="#227A61" stop-opacity="0.56"/>
<stop offset="0.72" stop-color="#227A61" stop-opacity="0.16"/>
<stop offset="0.9" stop-color="#227A61" stop-opacity="0"/>
</radialGradient>
<radialGradient id="paint7_radial_1038_71441" cx="0" cy="0" r="1" gradientUnits="userSpaceOnUse" gradientTransform="translate(26.7424 8.78636) rotate(35.1519) scale(4.19939 3.83399)">
<stop stop-color="#3CD9C3"/>
<stop offset="0.07" stop-color="#3BD7C1" stop-opacity="0.9"/>
<stop offset="0.41" stop-color="#38CEB9" stop-opacity="0.42"/>
<stop offset="0.65" stop-color="#36C8B4" stop-opacity="0.12"/>
<stop offset="0.76" stop-color="#35C6B2" stop-opacity="0"/>
</radialGradient>
<radialGradient id="paint8_radial_1038_71441" cx="0" cy="0" r="1" gradientUnits="userSpaceOnUse" gradientTransform="translate(-5259.52 -3228.75) rotate(35.1519) scale(745.938 522.537)">
<stop stop-color="#3CD9C3"/>
<stop offset="0.07" stop-color="#3BD7C1" stop-opacity="0.9"/>
<stop offset="0.41" stop-color="#38CEB9" stop-opacity="0.42"/>
<stop offset="0.65" stop-color="#36C8B4" stop-opacity="0.12"/>
<stop offset="0.76" stop-color="#35C6B2" stop-opacity="0"/>
</radialGradient>
<radialGradient id="paint9_radial_1038_71441" cx="0" cy="0" r="1" gradientUnits="userSpaceOnUse" gradientTransform="translate(28.4412 14.4061) rotate(101.02) scale(3.69328 4.58281)">
<stop stop-color="#237F66" stop-opacity="0.8"/>
<stop offset="0.06" stop-color="#2C8C70" stop-opacity="0.65"/>
<stop offset="0.21" stop-color="#3DA785" stop-opacity="0.37"/>
<stop offset="0.35" stop-color="#4ABA93" stop-opacity="0.17"/>
<stop offset="0.47" stop-color="#51C59C" stop-opacity="0.04"/>
<stop offset="0.56" stop-color="#54C99F" stop-opacity="0"/>
</radialGradient>
<radialGradient id="paint10_radial_1038_71441" cx="0" cy="0" r="1" gradientUnits="userSpaceOnUse" gradientTransform="translate(26.3717 14.6982) rotate(-50.6947) scale(4.83388 5.22525)">
<stop stop-color="#167C8A"/>
<stop offset="0.04" stop-color="#167C8A" stop-opacity="0.93"/>
<stop offset="0.33" stop-color="#177F8D" stop-opacity="0.43"/>
<stop offset="0.54" stop-color="#17818F" stop-opacity="0.12"/>
<stop offset="0.65" stop-color="#178290" stop-opacity="0"/>
</radialGradient>
<radialGradient id="paint11_radial_1038_71441" cx="0" cy="0" r="1" gradientUnits="userSpaceOnUse" gradientTransform="translate(26.0004 15.0736) rotate(-31.5458) scale(4.72249 3.72326)">
<stop offset="0.05" stop-color="#177D87"/>
<stop offset="0.11" stop-color="#177E89" stop-opacity="0.8"/>
<stop offset="0.21" stop-color="#177F8B" stop-opacity="0.52"/>
<stop offset="0.32" stop-color="#17818D" stop-opacity="0.29"/>
<stop offset="0.42" stop-color="#17818F" stop-opacity="0.13"/>
<stop offset="0.51" stop-color="#178290" stop-opacity="0.03"/>
<stop offset="0.6" stop-color="#178290" stop-opacity="0"/>
</radialGradient>
<radialGradient id="paint12_radial_1038_71441" cx="0" cy="0" r="1" gradientUnits="userSpaceOnUse" gradientTransform="translate(24.9803 15.1725) rotate(-130.665) scale(2.80984 2.21403)">
<stop offset="0.26" stop-color="#177F8A"/>
<stop offset="0.27" stop-color="#177F8A" stop-opacity="0.98"/>
<stop offset="0.38" stop-color="#17808C" stop-opacity="0.68"/>
<stop offset="0.5" stop-color="#17818D" stop-opacity="0.43"/>
<stop offset="0.62" stop-color="#17818F" stop-opacity="0.24"/>
<stop offset="0.74" stop-color="#17828F" stop-opacity="0.11"/>
<stop offset="0.86" stop-color="#178290" stop-opacity="0.03"/>
<stop offset="1" stop-color="#178290" stop-opacity="0"/>
</radialGradient>
<radialGradient id="paint13_radial_1038_71441" cx="0" cy="0" r="1" gradientUnits="userSpaceOnUse" gradientTransform="translate(24.3635 16.0765) rotate(-173.14) scale(2.64233 2.63089)">
<stop stop-color="#13656E"/>
<stop offset="0.11" stop-color="#13646E" stop-opacity="0.73"/>
<stop offset="0.27" stop-color="#12646E" stop-opacity="0.41"/>
<stop offset="0.42" stop-color="#12636E" stop-opacity="0.18"/>
<stop offset="0.55" stop-color="#12636E" stop-opacity="0.05"/>
<stop offset="0.66" stop-color="#12636E" stop-opacity="0"/>
</radialGradient>
<radialGradient id="paint14_radial_1038_71441" cx="0" cy="0" r="1" gradientUnits="userSpaceOnUse" gradientTransform="translate(24.3706 16.296) rotate(-119.429) scale(1.84172 1.55063)">
<stop offset="0.13" stop-color="#146A73"/>
<stop offset="0.24" stop-color="#156F79" stop-opacity="0.79"/>
<stop offset="0.45" stop-color="#167783" stop-opacity="0.45"/>
<stop offset="0.65" stop-color="#167D8A" stop-opacity="0.2"/>
<stop offset="0.82" stop-color="#17818E" stop-opacity="0.05"/>
<stop offset="0.95" stop-color="#178290" stop-opacity="0"/>
</radialGradient>
<radialGradient id="paint15_radial_1038_71441" cx="0" cy="0" r="1" gradientUnits="userSpaceOnUse" gradientTransform="translate(24.1619 15.5644) rotate(-55.8738) scale(1.73307 1.37526)">
<stop stop-color="#198E9C"/>
<stop offset="0.1" stop-color="#198E9C" stop-opacity="0.87"/>
<stop offset="0.41" stop-color="#198E9C" stop-opacity="0.5"/>
<stop offset="0.67" stop-color="#198E9C" stop-opacity="0.23"/>
<stop offset="0.88" stop-color="#198E9C" stop-opacity="0.06"/>
<stop offset="1" stop-color="#198E9C" stop-opacity="0"/>
</radialGradient>
<linearGradient id="paint16_linear_1038_71441" x1="20.7394" y1="9.52574" x2="25.1774" y2="13.651" gradientUnits="userSpaceOnUse">
<stop offset="0.13" stop-color="#2BF9FF"/>
<stop offset="0.27" stop-color="#29F9FF" stop-opacity="0.64"/>
<stop offset="0.4" stop-color="#27FAFF" stop-opacity="0.3"/>
<stop offset="0.49" stop-color="#26FAFF" stop-opacity="0.08"/>
<stop offset="0.54" stop-color="#26FAFF" stop-opacity="0"/>
</linearGradient>
<linearGradient id="paint17_linear_1038_71441" x1="18.2155" y1="16.2267" x2="23.4179" y2="14.7445" gradientUnits="userSpaceOnUse">
<stop stop-color="#26FAFF"/>
<stop offset="0.06" stop-color="#26FAFF" stop-opacity="0.88"/>
<stop offset="0.24" stop-color="#26FAFF" stop-opacity="0.51"/>
<stop offset="0.39" stop-color="#26FAFF" stop-opacity="0.23"/>
<stop offset="0.5" stop-color="#26FAFF" stop-opacity="0.06"/>
<stop offset="0.55" stop-color="#26FAFF" stop-opacity="0"/>
</linearGradient>
<linearGradient id="paint18_linear_1038_71441" x1="19.5946" y1="16.0456" x2="25.4563" y2="13.9471" gradientUnits="userSpaceOnUse">
<stop stop-color="#21DEFF"/>
<stop offset="0.04" stop-color="#21DEFF" stop-opacity="0.88"/>
<stop offset="0.17" stop-color="#21DEFF" stop-opacity="0.51"/>
<stop offset="0.27" stop-color="#21DEFF" stop-opacity="0.23"/>
<stop offset="0.34" stop-color="#21DEFF" stop-opacity="0.06"/>
<stop offset="0.38" stop-color="#21DEFF" stop-opacity="0"/>
</linearGradient>
<linearGradient id="paint19_linear_1038_71441" x1="25.1699" y1="13.0322" x2="28.4303" y2="18.3745" gradientUnits="userSpaceOnUse">
<stop offset="0.62" stop-color="#21DEFF" stop-opacity="0"/>
<stop offset="0.66" stop-color="#21DEFF" stop-opacity="0.06"/>
<stop offset="0.73" stop-color="#21DEFF" stop-opacity="0.23"/>
<stop offset="0.83" stop-color="#21DEFF" stop-opacity="0.51"/>
<stop offset="0.96" stop-color="#21DEFF" stop-opacity="0.88"/>
<stop offset="1" stop-color="#21DEFF"/>
</linearGradient>
<linearGradient id="paint20_linear_1038_71441" x1="28.8216" y1="15.0233" x2="28.3102" y2="12.5158" gradientUnits="userSpaceOnUse">
<stop stop-color="#44B044"/>
<stop offset="0.11" stop-color="#44B044" stop-opacity="0.8"/>
<stop offset="0.27" stop-color="#44B044" stop-opacity="0.52"/>
<stop offset="0.43" stop-color="#44B044" stop-opacity="0.29"/>
<stop offset="0.58" stop-color="#44B044" stop-opacity="0.13"/>
<stop offset="0.7" stop-color="#44B044" stop-opacity="0.03"/>
<stop offset="0.8" stop-color="#44B044" stop-opacity="0"/>
</linearGradient>
<linearGradient id="paint21_linear_1038_71441" x1="21.6203" y1="12.4251" x2="32.4743" y2="16.0344" gradientUnits="userSpaceOnUse">
<stop stop-color="#3066FB"/>
<stop offset="0.38" stop-color="#2F64F7"/>
<stop offset="0.74" stop-color="#2857D9"/>
<stop offset="1" stop-color="#3C7EFF"/>
</linearGradient>
<radialGradient id="paint22_radial_1038_71441" cx="0" cy="0" r="1" gradientUnits="userSpaceOnUse" gradientTransform="translate(29.2393 14.0502) rotate(98.7283) scale(5.78438 3.83399)">
<stop stop-color="#1A3D9C"/>
<stop offset="0.4" stop-color="#1A3D9C" stop-opacity="0.42"/>
<stop offset="0.7" stop-color="#1A3D9C" stop-opacity="0"/>
</radialGradient>
<radialGradient id="paint23_radial_1038_71441" cx="0" cy="0" r="1" gradientUnits="userSpaceOnUse" gradientTransform="translate(-16.2626 -5046.73) rotate(98.7283) scale(711.731 385.264)">
<stop stop-color="#1A3D9C"/>
<stop offset="0.4" stop-color="#1A3D9C" stop-opacity="0.42"/>
<stop offset="0.7" stop-color="#1A3D9C" stop-opacity="0"/>
</radialGradient>
<radialGradient id="paint24_radial_1038_71441" cx="0" cy="0" r="1" gradientUnits="userSpaceOnUse" gradientTransform="translate(231.596 -5094.16) rotate(98.6536) scale(847.635 351.55)">
<stop stop-color="#1A3D9C"/>
<stop offset="0.4" stop-color="#1A3D9C" stop-opacity="0.42"/>
<stop offset="0.7" stop-color="#1A3D9C" stop-opacity="0"/>
</radialGradient>
<radialGradient id="paint25_radial_1038_71441" cx="0" cy="0" r="1" gradientUnits="userSpaceOnUse" gradientTransform="translate(28.5564 13.9204) rotate(83.0582) scale(5.05583 3.54297)">
<stop stop-color="#1A3D9C"/>
<stop offset="0.16" stop-color="#1A3D9C" stop-opacity="0.69"/>
<stop offset="0.33" stop-color="#1A3D9C" stop-opacity="0.4"/>
<stop offset="0.49" stop-color="#1A3D9C" stop-opacity="0.18"/>
<stop offset="0.61" stop-color="#1A3D9C" stop-opacity="0.05"/>
<stop offset="0.7" stop-color="#1A3D9C" stop-opacity="0"/>
</radialGradient>
<radialGradient id="paint26_radial_1038_71441" cx="0" cy="0" r="1" gradientUnits="userSpaceOnUse" gradientTransform="translate(29.4269 14.6315) rotate(74.5745) scale(4.86002 3.31752)">
<stop stop-color="#18388F"/>
<stop offset="0.37" stop-color="#193B96" stop-opacity="0.45"/>
<stop offset="0.7" stop-color="#1A3D9C" stop-opacity="0"/>
</radialGradient>
<radialGradient id="paint27_radial_1038_71441" cx="0" cy="0" r="1" gradientUnits="userSpaceOnUse" gradientTransform="translate(28.972 15.9183) rotate(74.5745) scale(2.25969 2.15495)">
<stop stop-color="#18388F"/>
<stop offset="0.09" stop-color="#183992" stop-opacity="0.78"/>
<stop offset="0.22" stop-color="#193B96" stop-opacity="0.5"/>
<stop offset="0.35" stop-color="#193C98" stop-opacity="0.28"/>
<stop offset="0.47" stop-color="#1A3C9A" stop-opacity="0.13"/>
<stop offset="0.59" stop-color="#1A3D9C" stop-opacity="0.03"/>
<stop offset="0.7" stop-color="#1A3D9C" stop-opacity="0"/>
</radialGradient>
<radialGradient id="paint28_radial_1038_71441" cx="0" cy="0" r="1" gradientUnits="userSpaceOnUse" gradientTransform="translate(29.0264 16.3044) rotate(74.5745) scale(2.25969 2.15495)">
<stop stop-color="#1A3D9C" stop-opacity="0.8"/>
<stop offset="0.01" stop-color="#1A3D9C" stop-opacity="0.78"/>
<stop offset="0.24" stop-color="#1A3D9C" stop-opacity="0.45"/>
<stop offset="0.44" stop-color="#1A3D9C" stop-opacity="0.2"/>
<stop offset="0.6" stop-color="#1A3D9C" stop-opacity="0.05"/>
<stop offset="0.7" stop-color="#1A3D9C" stop-opacity="0"/>
</radialGradient>
<radialGradient id="paint29_radial_1038_71441" cx="0" cy="0" r="1" gradientUnits="userSpaceOnUse" gradientTransform="translate(23.1894 14.9636) rotate(66.9352) scale(5.39472 3.59102)">
<stop stop-color="#1A3D9C"/>
<stop offset="0.4" stop-color="#1A3D9C" stop-opacity="0.56"/>
<stop offset="0.48" stop-color="#1A3D9C" stop-opacity="0.43"/>
<stop offset="0.69" stop-color="#1A3D9C" stop-opacity="0.12"/>
<stop offset="0.79" stop-color="#1A3D9C" stop-opacity="0"/>
</radialGradient>
<radialGradient id="paint30_radial_1038_71441" cx="0" cy="0" r="1" gradientUnits="userSpaceOnUse" gradientTransform="translate(22.9523 13.6858) rotate(76.043) scale(3.99974 2.65104)">
<stop stop-color="#1A3D9C"/>
<stop offset="0.06" stop-color="#1A3D9C" stop-opacity="0.88"/>
<stop offset="0.21" stop-color="#1A3D9C" stop-opacity="0.61"/>
<stop offset="0.36" stop-color="#1A3D9C" stop-opacity="0.39"/>
<stop offset="0.51" stop-color="#1A3D9C" stop-opacity="0.22"/>
<stop offset="0.67" stop-color="#1A3D9C" stop-opacity="0.1"/>
<stop offset="0.83" stop-color="#1A3D9C" stop-opacity="0.02"/>
<stop offset="1" stop-color="#1A3D9C" stop-opacity="0"/>
</radialGradient>
<radialGradient id="paint31_radial_1038_71441" cx="0" cy="0" r="1" gradientUnits="userSpaceOnUse" gradientTransform="translate(22.9523 13.6858) rotate(76.043) scale(3.99974 2.65104)">
<stop stop-color="#1B3E9E"/>
<stop offset="0.06" stop-color="#1B3E9E" stop-opacity="0.87"/>
<stop offset="0.21" stop-color="#1B3E9D" stop-opacity="0.61"/>
<stop offset="0.36" stop-color="#1A3D9D" stop-opacity="0.39"/>
<stop offset="0.52" stop-color="#1A3D9C" stop-opacity="0.22"/>
<stop offset="0.67" stop-color="#1A3D9C" stop-opacity="0.1"/>
<stop offset="0.83" stop-color="#1A3D9C" stop-opacity="0.02"/>
<stop offset="1" stop-color="#1A3D9C" stop-opacity="0"/>
</radialGradient>
<radialGradient id="paint32_radial_1038_71441" cx="0" cy="0" r="1" gradientUnits="userSpaceOnUse" gradientTransform="translate(23.1046 13.2953) rotate(76.043) scale(3.05998 2.02816)">
<stop stop-color="#183991"/>
<stop offset="0.03" stop-color="#183992" stop-opacity="0.95"/>
<stop offset="0.18" stop-color="#193A95" stop-opacity="0.66"/>
<stop offset="0.34" stop-color="#193B97" stop-opacity="0.42"/>
<stop offset="0.5" stop-color="#1A3C99" stop-opacity="0.24"/>
<stop offset="0.66" stop-color="#1A3D9B" stop-opacity="0.1"/>
<stop offset="0.82" stop-color="#1A3D9C" stop-opacity="0.03"/>
<stop offset="1" stop-color="#1A3D9C" stop-opacity="0"/>
</radialGradient>
<radialGradient id="paint33_radial_1038_71441" cx="0" cy="0" r="1" gradientUnits="userSpaceOnUse" gradientTransform="translate(23.8423 13.7492) rotate(87.1248) scale(2.41737 2.13748)">
<stop offset="0.04" stop-color="#2453D6" stop-opacity="0.6"/>
<stop offset="0.2" stop-color="#2453D6" stop-opacity="0.49"/>
<stop offset="0.52" stop-color="#2453D6" stop-opacity="0.2"/>
<stop offset="0.73" stop-color="#2453D6" stop-opacity="0"/>
</radialGradient>
<linearGradient id="paint34_linear_1038_71441" x1="28.679" y1="8.00957" x2="25.9559" y2="14.7705" gradientUnits="userSpaceOnUse">
<stop stop-color="#3774FF"/>
<stop offset="0.05" stop-color="#3774FF" stop-opacity="0.91"/>
<stop offset="0.16" stop-color="#3774FF" stop-opacity="0.66"/>
<stop offset="0.32" stop-color="#3774FF" stop-opacity="0.28"/>
<stop offset="0.43" stop-color="#3774FF" stop-opacity="0"/>
</linearGradient>
</defs>
</svg>
