<svg width="26" height="26" viewBox="0 0 26 26" fill="none" xmlns="http://www.w3.org/2000/svg">
<rect x="0.182617" y="0.1875" width="25.625" height="25.625" rx="5.625" fill="url(#paint0_linear)"/>
<g clip-path="url(#clip0)">
<path d="M8.7915 21.0296C4.67352 21.0296 3.27197 15.8217 2.95791 14.8086C2.16925 12.2645 1.9295 9.97289 1.90412 9.73238C1.75767 8.34465 2.87065 7.37899 4.09216 7.37899C5.01707 7.37899 6.09049 7.93265 6.23267 9.27594C6.25736 9.50188 6.44538 11.4505 7.11056 13.5737C7.80476 15.7897 8.54118 16.6419 9.07151 16.6419C9.92792 16.6419 10.4505 14.4422 10.9124 12.3476C11.2527 10.8045 11.6206 9.24958 12.3469 7.86836C13.6106 5.46541 15.52 4.90625 17.1696 4.90625C20.7866 4.90625 22.5969 9.09704 22.5969 10.1828C22.5969 11.9973 21.117 12.4601 20.4756 12.4601C19.0727 12.4601 18.5971 11.5201 18.1968 10.6962C17.8367 9.9549 17.4607 9.33856 16.9745 9.33856C16.8147 9.33856 16.6667 9.4195 16.5298 9.55869C15.3213 10.7869 14.9161 17.2124 12.4999 19.6682C11.1604 21.0296 9.70298 21.0296 8.7915 21.0296Z" fill="url(#paint1_linear)"/>
<path d="M8.7915 21.0296C4.67352 21.0296 3.27197 15.8217 2.95791 14.8086C2.16925 12.2645 1.9295 9.97289 1.90412 9.73238C1.75767 8.34465 2.87065 7.37899 4.09216 7.37899C5.01707 7.37899 6.09049 7.93265 6.23267 9.27594C6.25736 9.50188 6.44538 11.4505 7.11056 13.5737C7.80476 15.7897 8.54118 16.6419 9.07151 16.6419C9.92792 16.6419 10.4505 14.4422 10.9124 12.3476C11.2527 10.8045 11.6206 9.24958 12.3469 7.86836C13.6106 5.46541 15.52 4.90625 17.1696 4.90625C20.7866 4.90625 22.5969 9.09704 22.5969 10.1828C22.5969 11.9973 21.117 12.4601 20.4756 12.4601C19.0727 12.4601 18.5971 11.5201 18.1968 10.6962C17.8367 9.9549 17.4607 9.33856 16.9745 9.33856C16.8147 9.33856 16.6667 9.4195 16.5298 9.55869C15.3213 10.7869 14.9161 17.2124 12.4999 19.6682C11.1604 21.0296 9.70298 21.0296 8.7915 21.0296Z" fill="url(#paint2_radial)"/>
<path d="M8.7915 21.0296C4.67352 21.0296 3.27197 15.8217 2.95791 14.8086C2.16925 12.2645 1.9295 9.97289 1.90412 9.73238C1.75767 8.34465 2.87065 7.37899 4.09216 7.37899C5.01707 7.37899 6.09049 7.93265 6.23267 9.27594C6.25736 9.50188 6.44538 11.4505 7.11056 13.5737C7.80476 15.7897 8.54118 16.6419 9.07151 16.6419C9.92792 16.6419 10.4505 14.4422 10.9124 12.3476C11.2527 10.8045 11.6206 9.24958 12.3469 7.86836C13.6106 5.46541 15.52 4.90625 17.1696 4.90625C20.7866 4.90625 22.5969 9.09704 22.5969 10.1828C22.5969 11.9973 21.117 12.4601 20.4756 12.4601C19.0727 12.4601 18.5971 11.5201 18.1968 10.6962C17.8367 9.9549 17.4607 9.33856 16.9745 9.33856C16.8147 9.33856 16.6667 9.4195 16.5298 9.55869C15.3213 10.7869 14.9161 17.2124 12.4999 19.6682C11.1604 21.0296 9.70298 21.0296 8.7915 21.0296Z" fill="url(#paint3_radial)"/>
<path d="M8.7915 21.0296C4.67352 21.0296 3.27197 15.8217 2.95791 14.8086C2.16925 12.2645 1.9295 9.97289 1.90412 9.73238C1.75767 8.34465 2.87065 7.37899 4.09216 7.37899C5.01707 7.37899 6.09049 7.93265 6.23267 9.27594C6.25736 9.50188 6.44538 11.4505 7.11056 13.5737C7.80476 15.7897 8.54118 16.6419 9.07151 16.6419C9.92792 16.6419 10.4505 14.4422 10.9124 12.3476C11.2527 10.8045 11.6206 9.24958 12.3469 7.86836C13.6106 5.46541 15.52 4.90625 17.1696 4.90625C20.7866 4.90625 22.5969 9.09704 22.5969 10.1828C22.5969 11.9973 21.117 12.4601 20.4756 12.4601C19.0727 12.4601 18.5971 11.5201 18.1968 10.6962C17.8367 9.9549 17.4607 9.33856 16.9745 9.33856C16.8147 9.33856 16.6667 9.4195 16.5298 9.55869C15.3213 10.7869 14.9161 17.2124 12.4999 19.6682C11.1604 21.0296 9.70298 21.0296 8.7915 21.0296Z" fill="url(#paint4_radial)"/>
<path d="M8.7915 21.0296C4.67352 21.0296 3.27197 15.8217 2.95791 14.8086C2.16925 12.2645 1.9295 9.97289 1.90412 9.73238C1.75767 8.34465 2.87065 7.37899 4.09216 7.37899C5.01707 7.37899 6.09049 7.93265 6.23267 9.27594C6.25736 9.50188 6.44538 11.4505 7.11056 13.5737C7.80476 15.7897 8.54118 16.6419 9.07151 16.6419C9.92792 16.6419 10.4505 14.4422 10.9124 12.3476C11.2527 10.8045 11.6206 9.24958 12.3469 7.86836C13.6106 5.46541 15.52 4.90625 17.1696 4.90625C20.7866 4.90625 22.5969 9.09704 22.5969 10.1828C22.5969 11.9973 21.117 12.4601 20.4756 12.4601C19.0727 12.4601 18.5971 11.5201 18.1968 10.6962C17.8367 9.9549 17.4607 9.33856 16.9745 9.33856C16.8147 9.33856 16.6667 9.4195 16.5298 9.55869C15.3213 10.7869 14.9161 17.2124 12.4999 19.6682C11.1604 21.0296 9.70298 21.0296 8.7915 21.0296Z" fill="url(#paint5_radial)"/>
<path d="M8.7915 21.0296C4.67352 21.0296 3.27197 15.8217 2.95791 14.8086C2.16925 12.2645 1.9295 9.97289 1.90412 9.73238C1.75767 8.34465 2.87065 7.37899 4.09216 7.37899C5.01707 7.37899 6.09049 7.93265 6.23267 9.27594C6.25736 9.50188 6.44538 11.4505 7.11056 13.5737C7.80476 15.7897 8.54118 16.6419 9.07151 16.6419C9.92792 16.6419 10.4505 14.4422 10.9124 12.3476C11.2527 10.8045 11.6206 9.24958 12.3469 7.86836C13.6106 5.46541 15.52 4.90625 17.1696 4.90625C20.7866 4.90625 22.5969 9.09704 22.5969 10.1828C22.5969 11.9973 21.117 12.4601 20.4756 12.4601C19.0727 12.4601 18.5971 11.5201 18.1968 10.6962C17.8367 9.9549 17.4607 9.33856 16.9745 9.33856C16.8147 9.33856 16.6667 9.4195 16.5298 9.55869C15.3213 10.7869 14.9161 17.2124 12.4999 19.6682C11.1604 21.0296 9.70298 21.0296 8.7915 21.0296Z" fill="url(#paint6_radial)"/>
<path d="M8.7915 21.0296C4.67352 21.0296 3.27197 15.8217 2.95791 14.8086C2.16925 12.2645 1.9295 9.97289 1.90412 9.73238C1.75767 8.34465 2.87065 7.37899 4.09216 7.37899C5.01707 7.37899 6.09049 7.93265 6.23267 9.27594C6.25736 9.50188 6.44538 11.4505 7.11056 13.5737C7.80476 15.7897 8.54118 16.6419 9.07151 16.6419C9.92792 16.6419 10.4505 14.4422 10.9124 12.3476C11.2527 10.8045 11.6206 9.24958 12.3469 7.86836C13.6106 5.46541 15.52 4.90625 17.1696 4.90625C20.7866 4.90625 22.5969 9.09704 22.5969 10.1828C22.5969 11.9973 21.117 12.4601 20.4756 12.4601C19.0727 12.4601 18.5971 11.5201 18.1968 10.6962C17.8367 9.9549 17.4607 9.33856 16.9745 9.33856C16.8147 9.33856 16.6667 9.4195 16.5298 9.55869C15.3213 10.7869 14.9161 17.2124 12.4999 19.6682C11.1604 21.0296 9.70298 21.0296 8.7915 21.0296Z" fill="url(#paint7_radial)"/>
<path d="M8.7915 21.0296C4.67352 21.0296 3.27197 15.8217 2.95791 14.8086C2.16925 12.2645 1.9295 9.97289 1.90412 9.73238C1.75767 8.34465 2.87065 7.37899 4.09216 7.37899C5.01707 7.37899 6.09049 7.93265 6.23267 9.27594C6.25736 9.50188 6.44538 11.4505 7.11056 13.5737C7.80476 15.7897 8.54118 16.6419 9.07151 16.6419C9.92792 16.6419 10.4505 14.4422 10.9124 12.3476C11.2527 10.8045 11.6206 9.24958 12.3469 7.86836C13.6106 5.46541 15.52 4.90625 17.1696 4.90625C20.7866 4.90625 22.5969 9.09704 22.5969 10.1828C22.5969 11.9973 21.117 12.4601 20.4756 12.4601C19.0727 12.4601 18.5971 11.5201 18.1968 10.6962C17.8367 9.9549 17.4607 9.33856 16.9745 9.33856C16.8147 9.33856 16.6667 9.4195 16.5298 9.55869C15.3213 10.7869 14.9161 17.2124 12.4999 19.6682C11.1604 21.0296 9.70298 21.0296 8.7915 21.0296Z" fill="url(#paint8_linear)"/>
<path d="M8.7915 21.0296C4.67352 21.0296 3.27197 15.8217 2.95791 14.8086C2.16925 12.2645 1.9295 9.97289 1.90412 9.73238C1.75767 8.34465 2.87065 7.37899 4.09216 7.37899C5.01707 7.37899 6.09049 7.93265 6.23267 9.27594C6.25736 9.50188 6.44538 11.4505 7.11056 13.5737C7.80476 15.7897 8.54118 16.6419 9.07151 16.6419C9.92792 16.6419 10.4505 14.4422 10.9124 12.3476C11.2527 10.8045 11.6206 9.24958 12.3469 7.86836C13.6106 5.46541 15.52 4.90625 17.1696 4.90625C20.7866 4.90625 22.5969 9.09704 22.5969 10.1828C22.5969 11.9973 21.117 12.4601 20.4756 12.4601C19.0727 12.4601 18.5971 11.5201 18.1968 10.6962C17.8367 9.9549 17.4607 9.33856 16.9745 9.33856C16.8147 9.33856 16.6667 9.4195 16.5298 9.55869C15.3213 10.7869 14.9161 17.2124 12.4999 19.6682C11.1604 21.0296 9.70298 21.0296 8.7915 21.0296Z" fill="url(#paint9_radial)"/>
<path d="M17.1697 4.90625C15.5202 4.90625 13.6108 5.46541 12.3471 7.86836C11.6208 9.24958 11.2529 10.8045 10.9126 12.3476C10.8006 12.8555 10.685 13.3694 10.562 13.8567V20.8384C11.1862 20.6618 11.8568 20.322 12.5001 19.6682C14.9163 17.2124 15.3215 10.7869 16.53 9.55869C16.6669 9.4195 16.8149 9.33856 16.9747 9.33856C17.4609 9.33856 17.8369 9.9549 18.197 10.6962C18.5973 11.5201 19.0728 12.4601 20.4758 12.4601C21.1172 12.4601 22.5971 11.9973 22.5971 10.1828C22.5971 9.09704 20.7868 4.90625 17.1697 4.90625Z" fill="url(#paint10_radial)"/>
<path d="M8.7915 21.0296C4.67352 21.0296 3.27197 15.8217 2.95791 14.8086C2.16925 12.2645 1.9295 9.97289 1.90412 9.73238C1.75767 8.34465 2.87065 7.37899 4.09216 7.37899C5.01707 7.37899 6.09049 7.93265 6.23267 9.27594C6.25736 9.50188 6.44538 11.4505 7.11056 13.5737C7.80476 15.7897 8.54118 16.6419 9.07151 16.6419C9.92792 16.6419 10.4505 14.4422 10.9124 12.3476C11.2527 10.8045 11.6206 9.24958 12.3469 7.86836C13.6106 5.46541 15.52 4.90625 17.1696 4.90625C20.7866 4.90625 22.5969 9.09704 22.5969 10.1828C22.5969 11.9973 21.117 12.4601 20.4756 12.4601C19.0727 12.4601 18.5971 11.5201 18.1968 10.6962C17.8367 9.9549 17.4607 9.33856 16.9745 9.33856C16.8147 9.33856 16.6667 9.4195 16.5298 9.55869C15.3213 10.7869 14.9161 17.2124 12.4999 19.6682C11.1604 21.0296 9.70298 21.0296 8.7915 21.0296Z" fill="url(#paint11_radial)"/>
<path d="M8.7915 21.0296C4.67352 21.0296 3.27197 15.8217 2.95791 14.8086C2.16925 12.2645 1.9295 9.97289 1.90412 9.73238C1.75767 8.34465 2.87065 7.37899 4.09216 7.37899C5.01707 7.37899 6.09049 7.93265 6.23267 9.27594C6.25736 9.50188 6.44538 11.4505 7.11056 13.5737C7.80476 15.7897 8.54118 16.6419 9.07151 16.6419C9.92792 16.6419 10.4505 14.4422 10.9124 12.3476C11.2527 10.8045 11.6206 9.24958 12.3469 7.86836C13.6106 5.46541 15.52 4.90625 17.1696 4.90625C20.7866 4.90625 22.5969 9.09704 22.5969 10.1828C22.5969 11.9973 21.117 12.4601 20.4756 12.4601C19.0727 12.4601 18.5971 11.5201 18.1968 10.6962C17.8367 9.9549 17.4607 9.33856 16.9745 9.33856C16.8147 9.33856 16.6667 9.4195 16.5298 9.55869C15.3213 10.7869 14.9161 17.2124 12.4999 19.6682C11.1604 21.0296 9.70298 21.0296 8.7915 21.0296Z" fill="url(#paint12_radial)"/>
<path d="M8.7915 21.0296C4.67352 21.0296 3.27197 15.8217 2.95791 14.8086C2.16925 12.2645 1.9295 9.97289 1.90412 9.73238C1.75767 8.34465 2.87065 7.37899 4.09216 7.37899C5.01707 7.37899 6.09049 7.93265 6.23267 9.27594C6.25736 9.50188 6.44538 11.4505 7.11056 13.5737C7.80476 15.7897 8.54118 16.6419 9.07151 16.6419C9.92792 16.6419 10.4505 14.4422 10.9124 12.3476C11.2527 10.8045 11.6206 9.24958 12.3469 7.86836C13.6106 5.46541 15.52 4.90625 17.1696 4.90625C20.7866 4.90625 22.5969 9.09704 22.5969 10.1828C22.5969 11.9973 21.117 12.4601 20.4756 12.4601C19.0727 12.4601 18.5971 11.5201 18.1968 10.6962C17.8367 9.9549 17.4607 9.33856 16.9745 9.33856C16.8147 9.33856 16.6667 9.4195 16.5298 9.55869C15.3213 10.7869 14.9161 17.2124 12.4999 19.6682C11.1604 21.0296 9.70298 21.0296 8.7915 21.0296Z" fill="url(#paint13_radial)"/>
<path d="M8.7915 21.0296C4.67352 21.0296 3.27197 15.8217 2.95791 14.8086C2.16925 12.2645 1.9295 9.97289 1.90412 9.73238C1.75767 8.34465 2.87065 7.37899 4.09216 7.37899C5.01707 7.37899 6.09049 7.93265 6.23267 9.27594C6.25736 9.50188 6.44538 11.4505 7.11056 13.5737C7.80476 15.7897 8.54118 16.6419 9.07151 16.6419C9.92792 16.6419 10.4505 14.4422 10.9124 12.3476C11.2527 10.8045 11.6206 9.24958 12.3469 7.86836C13.6106 5.46541 15.52 4.90625 17.1696 4.90625C20.7866 4.90625 22.5969 9.09704 22.5969 10.1828C22.5969 11.9973 21.117 12.4601 20.4756 12.4601C19.0727 12.4601 18.5971 11.5201 18.1968 10.6962C17.8367 9.9549 17.4607 9.33856 16.9745 9.33856C16.8147 9.33856 16.6667 9.4195 16.5298 9.55869C15.3213 10.7869 14.9161 17.2124 12.4999 19.6682C11.1604 21.0296 9.70298 21.0296 8.7915 21.0296Z" fill="url(#paint14_radial)"/>
<path d="M8.7915 21.0296C4.67352 21.0296 3.27197 15.8217 2.95791 14.8086C2.16925 12.2645 1.9295 9.97289 1.90412 9.73238C1.75767 8.34465 2.87065 7.37899 4.09216 7.37899C5.01707 7.37899 6.09049 7.93265 6.23267 9.27594C6.25736 9.50188 6.44538 11.4505 7.11056 13.5737C7.80476 15.7897 8.54118 16.6419 9.07151 16.6419C9.92792 16.6419 10.4505 14.4422 10.9124 12.3476C11.2527 10.8045 11.6206 9.24958 12.3469 7.86836C13.6106 5.46541 15.52 4.90625 17.1696 4.90625C20.7866 4.90625 22.5969 9.09704 22.5969 10.1828C22.5969 11.9973 21.117 12.4601 20.4756 12.4601C19.0727 12.4601 18.5971 11.5201 18.1968 10.6962C17.8367 9.9549 17.4607 9.33856 16.9745 9.33856C16.8147 9.33856 16.6667 9.4195 16.5298 9.55869C15.3213 10.7869 14.9161 17.2124 12.4999 19.6682C11.1604 21.0296 9.70298 21.0296 8.7915 21.0296Z" fill="url(#paint15_radial)"/>
<path d="M21.9297 7.37899C21.7666 7.37899 21.6026 7.39438 21.4418 7.42605C22.2064 8.52861 22.5889 9.68364 22.5889 10.1827C22.5889 11.9972 21.109 12.46 20.4676 12.46C19.967 12.46 19.5846 12.3403 19.2814 12.1489C19.2786 12.1603 19.2758 12.1716 19.273 12.1829C19.1829 12.543 19.1117 12.9372 18.9885 13.3207C18.7517 14.0582 18.4323 14.9006 18.0912 15.5525C17.7235 16.2552 17.3595 16.6664 16.9256 16.6448C16.4322 16.6203 16.0321 15.9843 15.5349 14.1867C15.3745 13.6071 15.226 12.9716 15.0884 12.3476C14.7471 10.8 14.3281 9.24364 13.6118 7.86836C12.4417 5.62218 10.4457 4.90625 8.85228 4.90625C7.3745 4.90625 6.27043 5.60592 5.40312 6.48744C5.16344 6.73106 4.90163 7.05927 4.63867 7.44498C5.39513 7.62722 6.11043 8.19664 6.22466 9.27581C6.24715 9.48157 6.40507 11.1158 6.93543 13.0096C7.08762 12.5348 7.3095 11.8317 7.825 10.6962C8.07764 10.1761 8.30562 9.83324 8.51133 9.62417C8.69999 9.43243 8.86989 9.35323 9.02284 9.35323C9.18781 9.35323 9.75109 9.50423 10.2995 11.4286C10.9796 13.8148 11.4857 17.6125 13.414 19.6289C14.2645 20.5183 15.4547 21.0938 17.1042 21.0938C18.5516 21.0938 19.7583 20.4563 20.6186 19.5696C22.0333 18.1114 22.8084 15.7007 23.0849 14.8086C23.8717 12.2706 24.0921 9.97524 24.1177 9.73238C24.2641 8.34465 23.0951 7.37899 21.9297 7.37899Z" fill="#316AFF"/>
<path d="M21.9297 7.37899C21.7666 7.37899 21.6026 7.39438 21.4418 7.42605C22.2064 8.52861 22.5889 9.68364 22.5889 10.1827C22.5889 11.9972 21.109 12.46 20.4676 12.46C19.967 12.46 19.5846 12.3403 19.2814 12.1489C19.2786 12.1603 19.2758 12.1716 19.273 12.1829C19.1829 12.543 19.1117 12.9372 18.9885 13.3207C18.7517 14.0582 18.4323 14.9006 18.0912 15.5525C17.7235 16.2552 17.3595 16.6664 16.9256 16.6448C16.4322 16.6203 16.0321 15.9843 15.5349 14.1867C15.3745 13.6071 15.226 12.9716 15.0884 12.3476C14.7471 10.8 14.3281 9.24364 13.6118 7.86836C12.4417 5.62218 10.4457 4.90625 8.85228 4.90625C7.3745 4.90625 6.27043 5.60592 5.40312 6.48744C5.16344 6.73106 4.90163 7.05927 4.63867 7.44498C5.39513 7.62722 6.11043 8.19664 6.22466 9.27581C6.24715 9.48157 6.40507 11.1158 6.93543 13.0096C7.08762 12.5348 7.3095 11.8317 7.825 10.6962C8.07764 10.1761 8.30562 9.83324 8.51133 9.62417C8.69999 9.43243 8.86989 9.35323 9.02284 9.35323C9.18781 9.35323 9.75109 9.50423 10.2995 11.4286C10.9796 13.8148 11.4857 17.6125 13.414 19.6289C14.2645 20.5183 15.4547 21.0938 17.1042 21.0938C18.5516 21.0938 19.7583 20.4563 20.6186 19.5696C22.0333 18.1114 22.8084 15.7007 23.0849 14.8086C23.8717 12.2706 24.0921 9.97524 24.1177 9.73238C24.2641 8.34465 23.0951 7.37899 21.9297 7.37899Z" fill="url(#paint16_radial)"/>
<path d="M21.9297 7.37899C21.7666 7.37899 21.6026 7.39438 21.4418 7.42605C22.2064 8.52861 22.5889 9.68364 22.5889 10.1827C22.5889 11.9972 21.109 12.46 20.4676 12.46C19.967 12.46 19.5846 12.3403 19.2814 12.1489C19.2786 12.1603 19.2758 12.1716 19.273 12.1829C19.1829 12.543 19.1117 12.9372 18.9885 13.3207C18.7517 14.0582 18.4323 14.9006 18.0912 15.5525C17.7235 16.2552 17.3595 16.6664 16.9256 16.6448C16.4322 16.6203 16.0321 15.9843 15.5349 14.1867C15.3745 13.6071 15.226 12.9716 15.0884 12.3476C14.7471 10.8 14.3281 9.24364 13.6118 7.86836C12.4417 5.62218 10.4457 4.90625 8.85228 4.90625C7.3745 4.90625 6.27043 5.60592 5.40312 6.48744C5.16344 6.73106 4.90163 7.05927 4.63867 7.44498C5.39513 7.62722 6.11043 8.19664 6.22466 9.27581C6.24715 9.48157 6.40507 11.1158 6.93543 13.0096C7.08762 12.5348 7.3095 11.8317 7.825 10.6962C8.07764 10.1761 8.30562 9.83324 8.51133 9.62417C8.69999 9.43243 8.86989 9.35323 9.02284 9.35323C9.18781 9.35323 9.75109 9.50423 10.2995 11.4286C10.9796 13.8148 11.4857 17.6125 13.414 19.6289C14.2645 20.5183 15.4547 21.0938 17.1042 21.0938C18.5516 21.0938 19.7583 20.4563 20.6186 19.5696C22.0333 18.1114 22.8084 15.7007 23.0849 14.8086C23.8717 12.2706 24.0921 9.97524 24.1177 9.73238C24.2641 8.34465 23.0951 7.37899 21.9297 7.37899Z" fill="url(#paint17_radial)"/>
<path d="M21.9297 7.37899C21.7666 7.37899 21.6026 7.39438 21.4418 7.42605C22.2064 8.52861 22.5889 9.68364 22.5889 10.1827C22.5889 11.9972 21.109 12.46 20.4676 12.46C19.967 12.46 19.5846 12.3403 19.2814 12.1489C19.2786 12.1603 19.2758 12.1716 19.273 12.1829C19.1829 12.543 19.1117 12.9372 18.9885 13.3207C18.7517 14.0582 18.4323 14.9006 18.0912 15.5525C17.7235 16.2552 17.3595 16.6664 16.9256 16.6448C16.4322 16.6203 16.0321 15.9843 15.5349 14.1867C15.3745 13.6071 15.226 12.9716 15.0884 12.3476C14.7471 10.8 14.3281 9.24364 13.6118 7.86836C12.4417 5.62218 10.4457 4.90625 8.85228 4.90625C7.3745 4.90625 6.27043 5.60592 5.40312 6.48744C5.16344 6.73106 4.90163 7.05927 4.63867 7.44498C5.39513 7.62722 6.11043 8.19664 6.22466 9.27581C6.24715 9.48157 6.40507 11.1158 6.93543 13.0096C7.08762 12.5348 7.3095 11.8317 7.825 10.6962C8.07764 10.1761 8.30562 9.83324 8.51133 9.62417C8.69999 9.43243 8.86989 9.35323 9.02284 9.35323C9.18781 9.35323 9.75109 9.50423 10.2995 11.4286C10.9796 13.8148 11.4857 17.6125 13.414 19.6289C14.2645 20.5183 15.4547 21.0938 17.1042 21.0938C18.5516 21.0938 19.7583 20.4563 20.6186 19.5696C22.0333 18.1114 22.8084 15.7007 23.0849 14.8086C23.8717 12.2706 24.0921 9.97524 24.1177 9.73238C24.2641 8.34465 23.0951 7.37899 21.9297 7.37899Z" fill="url(#paint18_radial)"/>
<path d="M21.9297 7.37899C21.7666 7.37899 21.6026 7.39438 21.4418 7.42605C22.2064 8.52861 22.5889 9.68364 22.5889 10.1827C22.5889 11.9972 21.109 12.46 20.4676 12.46C19.967 12.46 19.5846 12.3403 19.2814 12.1489C19.2786 12.1603 19.2758 12.1716 19.273 12.1829C19.1829 12.543 19.1117 12.9372 18.9885 13.3207C18.7517 14.0582 18.4323 14.9006 18.0912 15.5525C17.7235 16.2552 17.3595 16.6664 16.9256 16.6448C16.4322 16.6203 16.0321 15.9843 15.5349 14.1867C15.3745 13.6071 15.226 12.9716 15.0884 12.3476C14.7471 10.8 14.3281 9.24364 13.6118 7.86836C12.4417 5.62218 10.4457 4.90625 8.85228 4.90625C7.3745 4.90625 6.27043 5.60592 5.40312 6.48744C5.16344 6.73106 4.90163 7.05927 4.63867 7.44498C5.39513 7.62722 6.11043 8.19664 6.22466 9.27581C6.24715 9.48157 6.40507 11.1158 6.93543 13.0096C7.08762 12.5348 7.3095 11.8317 7.825 10.6962C8.07764 10.1761 8.30562 9.83324 8.51133 9.62417C8.69999 9.43243 8.86989 9.35323 9.02284 9.35323C9.18781 9.35323 9.75109 9.50423 10.2995 11.4286C10.9796 13.8148 11.4857 17.6125 13.414 19.6289C14.2645 20.5183 15.4547 21.0938 17.1042 21.0938C18.5516 21.0938 19.7583 20.4563 20.6186 19.5696C22.0333 18.1114 22.8084 15.7007 23.0849 14.8086C23.8717 12.2706 24.0921 9.97524 24.1177 9.73238C24.2641 8.34465 23.0951 7.37899 21.9297 7.37899Z" fill="url(#paint19_radial)"/>
<path d="M21.9297 7.37899C21.7666 7.37899 21.6026 7.39438 21.4418 7.42605C22.2064 8.52861 22.5889 9.68364 22.5889 10.1827C22.5889 11.9972 21.109 12.46 20.4676 12.46C19.967 12.46 19.5846 12.3403 19.2814 12.1489C19.2786 12.1603 19.2758 12.1716 19.273 12.1829C19.1829 12.543 19.1117 12.9372 18.9885 13.3207C18.7517 14.0582 18.4323 14.9006 18.0912 15.5525C17.7235 16.2552 17.3595 16.6664 16.9256 16.6448C16.4322 16.6203 16.0321 15.9843 15.5349 14.1867C15.3745 13.6071 15.226 12.9716 15.0884 12.3476C14.7471 10.8 14.3281 9.24364 13.6118 7.86836C12.4417 5.62218 10.4457 4.90625 8.85228 4.90625C7.3745 4.90625 6.27043 5.60592 5.40312 6.48744C5.16344 6.73106 4.90163 7.05927 4.63867 7.44498C5.39513 7.62722 6.11043 8.19664 6.22466 9.27581C6.24715 9.48157 6.40507 11.1158 6.93543 13.0096C7.08762 12.5348 7.3095 11.8317 7.825 10.6962C8.07764 10.1761 8.30562 9.83324 8.51133 9.62417C8.69999 9.43243 8.86989 9.35323 9.02284 9.35323C9.18781 9.35323 9.75109 9.50423 10.2995 11.4286C10.9796 13.8148 11.4857 17.6125 13.414 19.6289C14.2645 20.5183 15.4547 21.0938 17.1042 21.0938C18.5516 21.0938 19.7583 20.4563 20.6186 19.5696C22.0333 18.1114 22.8084 15.7007 23.0849 14.8086C23.8717 12.2706 24.0921 9.97524 24.1177 9.73238C24.2641 8.34465 23.0951 7.37899 21.9297 7.37899Z" fill="url(#paint20_radial)"/>
<path d="M21.9297 7.37899C21.7666 7.37899 21.6026 7.39438 21.4418 7.42605C22.2064 8.52861 22.5889 9.68364 22.5889 10.1827C22.5889 11.9972 21.109 12.46 20.4676 12.46C19.967 12.46 19.5846 12.3403 19.2814 12.1489C19.2786 12.1603 19.2758 12.1716 19.273 12.1829C19.1829 12.543 19.1117 12.9372 18.9885 13.3207C18.7517 14.0582 18.4323 14.9006 18.0912 15.5525C17.7235 16.2552 17.3595 16.6664 16.9256 16.6448C16.4322 16.6203 16.0321 15.9843 15.5349 14.1867C15.3745 13.6071 15.226 12.9716 15.0884 12.3476C14.7471 10.8 14.3281 9.24364 13.6118 7.86836C12.4417 5.62218 10.4457 4.90625 8.85228 4.90625C7.3745 4.90625 6.27043 5.60592 5.40312 6.48744C5.16344 6.73106 4.90163 7.05927 4.63867 7.44498C5.39513 7.62722 6.11043 8.19664 6.22466 9.27581C6.24715 9.48157 6.40507 11.1158 6.93543 13.0096C7.08762 12.5348 7.3095 11.8317 7.825 10.6962C8.07764 10.1761 8.30562 9.83324 8.51133 9.62417C8.69999 9.43243 8.86989 9.35323 9.02284 9.35323C9.18781 9.35323 9.75109 9.50423 10.2995 11.4286C10.9796 13.8148 11.4857 17.6125 13.414 19.6289C14.2645 20.5183 15.4547 21.0938 17.1042 21.0938C18.5516 21.0938 19.7583 20.4563 20.6186 19.5696C22.0333 18.1114 22.8084 15.7007 23.0849 14.8086C23.8717 12.2706 24.0921 9.97524 24.1177 9.73238C24.2641 8.34465 23.0951 7.37899 21.9297 7.37899Z" fill="url(#paint21_radial)"/>
<path d="M21.9297 7.37899C21.7666 7.37899 21.6026 7.39438 21.4418 7.42605C22.2064 8.52861 22.5889 9.68364 22.5889 10.1827C22.5889 11.9972 21.109 12.46 20.4676 12.46C19.967 12.46 19.5846 12.3403 19.2814 12.1489C19.2786 12.1603 19.2758 12.1716 19.273 12.1829C19.1829 12.543 19.1117 12.9372 18.9885 13.3207C18.7517 14.0582 18.4323 14.9006 18.0912 15.5525C17.7235 16.2552 17.3595 16.6664 16.9256 16.6448C16.4322 16.6203 16.0321 15.9843 15.5349 14.1867C15.3745 13.6071 15.226 12.9716 15.0884 12.3476C14.7471 10.8 14.3281 9.24364 13.6118 7.86836C12.4417 5.62218 10.4457 4.90625 8.85228 4.90625C7.3745 4.90625 6.27043 5.60592 5.40312 6.48744C5.16344 6.73106 4.90163 7.05927 4.63867 7.44498C5.39513 7.62722 6.11043 8.19664 6.22466 9.27581C6.24715 9.48157 6.40507 11.1158 6.93543 13.0096C7.08762 12.5348 7.3095 11.8317 7.825 10.6962C8.07764 10.1761 8.30562 9.83324 8.51133 9.62417C8.69999 9.43243 8.86989 9.35323 9.02284 9.35323C9.18781 9.35323 9.75109 9.50423 10.2995 11.4286C10.9796 13.8148 11.4857 17.6125 13.414 19.6289C14.2645 20.5183 15.4547 21.0938 17.1042 21.0938C18.5516 21.0938 19.7583 20.4563 20.6186 19.5696C22.0333 18.1114 22.8084 15.7007 23.0849 14.8086C23.8717 12.2706 24.0921 9.97524 24.1177 9.73238C24.2641 8.34465 23.0951 7.37899 21.9297 7.37899Z" fill="url(#paint22_radial)"/>
<path d="M21.9297 7.37899C21.7666 7.37899 21.6026 7.39438 21.4418 7.42605C22.2064 8.52861 22.5889 9.68364 22.5889 10.1827C22.5889 11.9972 21.109 12.46 20.4676 12.46C19.967 12.46 19.5846 12.3403 19.2814 12.1489C19.2786 12.1603 19.2758 12.1716 19.273 12.1829C19.1829 12.543 19.1117 12.9372 18.9885 13.3207C18.7517 14.0582 18.4323 14.9006 18.0912 15.5525C17.7235 16.2552 17.3595 16.6664 16.9256 16.6448C16.4322 16.6203 16.0321 15.9843 15.5349 14.1867C15.3745 13.6071 15.226 12.9716 15.0884 12.3476C14.7471 10.8 14.3281 9.24364 13.6118 7.86836C12.4417 5.62218 10.4457 4.90625 8.85228 4.90625C7.3745 4.90625 6.27043 5.60592 5.40312 6.48744C5.16344 6.73106 4.90163 7.05927 4.63867 7.44498C5.39513 7.62722 6.11043 8.19664 6.22466 9.27581C6.24715 9.48157 6.40507 11.1158 6.93543 13.0096C7.08762 12.5348 7.3095 11.8317 7.825 10.6962C8.07764 10.1761 8.30562 9.83324 8.51133 9.62417C8.69999 9.43243 8.86989 9.35323 9.02284 9.35323C9.18781 9.35323 9.75109 9.50423 10.2995 11.4286C10.9796 13.8148 11.4857 17.6125 13.414 19.6289C14.2645 20.5183 15.4547 21.0938 17.1042 21.0938C18.5516 21.0938 19.7583 20.4563 20.6186 19.5696C22.0333 18.1114 22.8084 15.7007 23.0849 14.8086C23.8717 12.2706 24.0921 9.97524 24.1177 9.73238C24.2641 8.34465 23.0951 7.37899 21.9297 7.37899Z" fill="url(#paint23_radial)"/>
<path d="M21.9297 7.37899C21.7666 7.37899 21.6026 7.39438 21.4418 7.42605C22.2064 8.52861 22.5889 9.68364 22.5889 10.1827C22.5889 11.9972 21.109 12.46 20.4676 12.46C19.967 12.46 19.5846 12.3403 19.2814 12.1489C19.2786 12.1603 19.2758 12.1716 19.273 12.1829C19.1829 12.543 19.1117 12.9372 18.9885 13.3207C18.7517 14.0582 18.4323 14.9006 18.0912 15.5525C17.7235 16.2552 17.3595 16.6664 16.9256 16.6448C16.4322 16.6203 16.0321 15.9843 15.5349 14.1867C15.3745 13.6071 15.226 12.9716 15.0884 12.3476C14.7471 10.8 14.3281 9.24364 13.6118 7.86836C12.4417 5.62218 10.4457 4.90625 8.85228 4.90625C7.3745 4.90625 6.27043 5.60592 5.40312 6.48744C5.16344 6.73106 4.90163 7.05927 4.63867 7.44498C5.39513 7.62722 6.11043 8.19664 6.22466 9.27581C6.24715 9.48157 6.40507 11.1158 6.93543 13.0096C7.08762 12.5348 7.3095 11.8317 7.825 10.6962C8.07764 10.1761 8.30562 9.83324 8.51133 9.62417C8.69999 9.43243 8.86989 9.35323 9.02284 9.35323C9.18781 9.35323 9.75109 9.50423 10.2995 11.4286C10.9796 13.8148 11.4857 17.6125 13.414 19.6289C14.2645 20.5183 15.4547 21.0938 17.1042 21.0938C18.5516 21.0938 19.7583 20.4563 20.6186 19.5696C22.0333 18.1114 22.8084 15.7007 23.0849 14.8086C23.8717 12.2706 24.0921 9.97524 24.1177 9.73238C24.2641 8.34465 23.0951 7.37899 21.9297 7.37899Z" fill="url(#paint24_radial)"/>
<path d="M21.9297 7.37899C21.7666 7.37899 21.6026 7.39438 21.4418 7.42605C22.2064 8.52861 22.5889 9.68364 22.5889 10.1827C22.5889 11.9972 21.109 12.46 20.4676 12.46C19.967 12.46 19.5846 12.3403 19.2814 12.1489C19.2786 12.1603 19.2758 12.1716 19.273 12.1829C19.1829 12.543 19.1117 12.9372 18.9885 13.3207C18.7517 14.0582 18.4323 14.9006 18.0912 15.5525C17.7235 16.2552 17.3595 16.6664 16.9256 16.6448C16.4322 16.6203 16.0321 15.9843 15.5349 14.1867C15.3745 13.6071 15.226 12.9716 15.0884 12.3476C14.7471 10.8 14.3281 9.24364 13.6118 7.86836C12.4417 5.62218 10.4457 4.90625 8.85228 4.90625C7.3745 4.90625 6.27043 5.60592 5.40312 6.48744C5.16344 6.73106 4.90163 7.05927 4.63867 7.44498C5.39513 7.62722 6.11043 8.19664 6.22466 9.27581C6.24715 9.48157 6.40507 11.1158 6.93543 13.0096C7.08762 12.5348 7.3095 11.8317 7.825 10.6962C8.07764 10.1761 8.30562 9.83324 8.51133 9.62417C8.69999 9.43243 8.86989 9.35323 9.02284 9.35323C9.18781 9.35323 9.75109 9.50423 10.2995 11.4286C10.9796 13.8148 11.4857 17.6125 13.414 19.6289C14.2645 20.5183 15.4547 21.0938 17.1042 21.0938C18.5516 21.0938 19.7583 20.4563 20.6186 19.5696C22.0333 18.1114 22.8084 15.7007 23.0849 14.8086C23.8717 12.2706 24.0921 9.97524 24.1177 9.73238C24.2641 8.34465 23.0951 7.37899 21.9297 7.37899Z" fill="url(#paint25_radial)"/>
<path d="M8.7915 21.0296C4.67352 21.0296 3.27197 15.8217 2.95791 14.8086C2.16925 12.2645 1.9295 9.97289 1.90412 9.73238C1.75767 8.34465 2.87065 7.37899 4.09216 7.37899C5.01707 7.37899 6.09049 7.93265 6.23267 9.27594C6.25738 9.50188 6.44538 11.4505 7.11056 13.5737C7.80476 15.7897 8.54118 16.6419 9.07151 16.6419C9.92792 16.6419 10.4505 14.4422 10.9124 12.3476C11.2527 10.8045 11.6206 9.24958 12.3469 7.86836C13.6106 5.46541 15.52 4.90625 17.1696 4.90625C20.7866 4.90625 22.5969 9.09704 22.5969 10.1828C22.5969 11.9973 21.117 12.4601 20.4756 12.4601C19.0727 12.4601 18.5971 11.5201 18.1968 10.6962C17.8367 9.9549 17.4607 9.33856 16.9745 9.33856C16.8147 9.33856 16.6667 9.4195 16.5298 9.55869C15.3213 10.7869 14.9161 17.2124 12.4999 19.6682C11.1604 21.0296 9.70298 21.0296 8.7915 21.0296Z" fill="url(#paint26_linear)"/>
<path d="M8.7915 21.0296C4.67352 21.0296 3.27197 15.8217 2.95791 14.8086C2.16925 12.2645 1.9295 9.97289 1.90412 9.73238C1.75767 8.34465 2.87065 7.37899 4.09216 7.37899C5.01707 7.37899 6.09049 7.93265 6.23267 9.27594C6.25738 9.50188 6.44538 11.4505 7.11056 13.5737C7.80476 15.7897 8.54118 16.6419 9.07151 16.6419C9.92792 16.6419 10.4505 14.4422 10.9124 12.3476C11.2527 10.8045 11.6206 9.24958 12.3469 7.86836C13.6106 5.46541 15.52 4.90625 17.1696 4.90625C20.7866 4.90625 22.5969 9.09704 22.5969 10.1828C22.5969 11.9973 21.117 12.4601 20.4756 12.4601C19.0727 12.4601 18.5971 11.5201 18.1968 10.6962C17.8367 9.9549 17.4607 9.33856 16.9745 9.33856C16.8147 9.33856 16.6667 9.4195 16.5298 9.55869C15.3213 10.7869 14.9161 17.2124 12.4999 19.6682C11.1604 21.0296 9.70298 21.0296 8.7915 21.0296Z" fill="url(#paint27_radial)"/>
<path d="M8.7915 21.0296C4.67352 21.0296 3.27197 15.8217 2.95791 14.8086C2.16925 12.2645 1.9295 9.97289 1.90412 9.73238C1.75767 8.34465 2.87065 7.37899 4.09216 7.37899C5.01707 7.37899 6.09049 7.93265 6.23267 9.27594C6.25738 9.50188 6.44538 11.4505 7.11056 13.5737C7.80476 15.7897 8.54118 16.6419 9.07151 16.6419C9.92792 16.6419 10.4505 14.4422 10.9124 12.3476C11.2527 10.8045 11.6206 9.24958 12.3469 7.86836C13.6106 5.46541 15.52 4.90625 17.1696 4.90625C20.7866 4.90625 22.5969 9.09704 22.5969 10.1828C22.5969 11.9973 21.117 12.4601 20.4756 12.4601C19.0727 12.4601 18.5971 11.5201 18.1968 10.6962C17.8367 9.9549 17.4607 9.33856 16.9745 9.33856C16.8147 9.33856 16.6667 9.4195 16.5298 9.55869C15.3213 10.7869 14.9161 17.2124 12.4999 19.6682C11.1604 21.0296 9.70298 21.0296 8.7915 21.0296Z" fill="url(#paint28_linear)"/>
<path d="M8.7915 21.0296C4.67352 21.0296 3.27197 15.8217 2.95791 14.8086C2.16925 12.2645 1.9295 9.97289 1.90412 9.73238C1.75767 8.34465 2.87065 7.37899 4.09216 7.37899C5.01707 7.37899 6.09049 7.93265 6.23267 9.27594C6.25738 9.50188 6.44538 11.4505 7.11056 13.5737C7.80476 15.7897 8.54118 16.6419 9.07151 16.6419C9.92792 16.6419 10.4505 14.4422 10.9124 12.3476C11.2527 10.8045 11.6206 9.24958 12.3469 7.86836C13.6106 5.46541 15.52 4.90625 17.1696 4.90625C20.7866 4.90625 22.5969 9.09704 22.5969 10.1828C22.5969 11.9973 21.117 12.4601 20.4756 12.4601C19.0727 12.4601 18.5971 11.5201 18.1968 10.6962C17.8367 9.9549 17.4607 9.33856 16.9745 9.33856C16.8147 9.33856 16.6667 9.4195 16.5298 9.55869C15.3213 10.7869 14.9161 17.2124 12.4999 19.6682C11.1604 21.0296 9.70298 21.0296 8.7915 21.0296Z" fill="url(#paint29_linear)"/>
<path d="M8.7915 21.0296C4.67352 21.0296 3.27197 15.8217 2.95791 14.8086C2.16925 12.2645 1.9295 9.97289 1.90412 9.73238C1.75767 8.34465 2.87065 7.37899 4.09216 7.37899C5.01707 7.37899 6.09049 7.93265 6.23267 9.27594C6.25738 9.50188 6.44538 11.4505 7.11056 13.5737C7.80476 15.7897 8.54118 16.6419 9.07151 16.6419C9.92792 16.6419 10.4505 14.4422 10.9124 12.3476C11.2527 10.8045 11.6206 9.24958 12.3469 7.86836C13.6106 5.46541 15.52 4.90625 17.1696 4.90625C20.7866 4.90625 22.5969 9.09704 22.5969 10.1828C22.5969 11.9973 21.117 12.4601 20.4756 12.4601C19.0727 12.4601 18.5971 11.5201 18.1968 10.6962C17.8367 9.9549 17.4607 9.33856 16.9745 9.33856C16.8147 9.33856 16.6667 9.4195 16.5298 9.55869C15.3213 10.7869 14.9161 17.2124 12.4999 19.6682C11.1604 21.0296 9.70298 21.0296 8.7915 21.0296Z" fill="url(#paint30_radial)"/>
</g>
<defs>
<linearGradient id="paint0_linear" x1="12.9951" y1="0.1875" x2="12.9951" y2="25.8125" gradientUnits="userSpaceOnUse">
<stop stop-color="#313131"/>
<stop offset="1" stop-color="#070707"/>
<stop offset="1" stop-color="#020202"/>
</linearGradient>
<linearGradient id="paint1_linear" x1="20.3437" y1="9.63684" x2="5.79667" y2="14.4076" gradientUnits="userSpaceOnUse">
<stop stop-color="#5CEE64"/>
<stop offset="1" stop-color="#00BBFF"/>
</linearGradient>
<radialGradient id="paint2_radial" cx="0" cy="0" r="1" gradientUnits="userSpaceOnUse" gradientTransform="translate(10.356 13.5045) rotate(-120.86) scale(9.52986 8.00023)">
<stop stop-color="#007383"/>
<stop offset="0.407867" stop-color="#00717E" stop-opacity="0.75"/>
<stop offset="0.874482" stop-color="#007281" stop-opacity="0"/>
</radialGradient>
<radialGradient id="paint3_radial" cx="0" cy="0" r="1" gradientUnits="userSpaceOnUse" gradientTransform="translate(16.6174 11.7313) rotate(-126.734) scale(7.77198 5.10659)">
<stop stop-color="#218970"/>
<stop offset="0.459527" stop-color="#267E6A"/>
<stop offset="1" stop-color="#026C51" stop-opacity="0"/>
</radialGradient>
<radialGradient id="paint4_radial" cx="0" cy="0" r="1" gradientUnits="userSpaceOnUse" gradientTransform="translate(9.80717 13.9548) rotate(-107.468) scale(6.32985 3.29767)">
<stop stop-color="#178697"/>
<stop offset="0.407867" stop-color="#17838F" stop-opacity="0.79"/>
<stop offset="0.874482" stop-color="#007281" stop-opacity="0"/>
</radialGradient>
<radialGradient id="paint5_radial" cx="0" cy="0" r="1" gradientUnits="userSpaceOnUse" gradientTransform="translate(12.6214 13.921) rotate(-120.86) scale(16.0745 4.95842)">
<stop stop-color="#25342F" stop-opacity="0.3"/>
<stop offset="1" stop-color="#25342F" stop-opacity="0"/>
</radialGradient>
<radialGradient id="paint6_radial" cx="0" cy="0" r="1" gradientUnits="userSpaceOnUse" gradientTransform="translate(15.4887 11.9075) rotate(85.0979) scale(6.05411 3.43381)">
<stop stop-color="#056D4F"/>
<stop offset="0.232593" stop-color="#056C4E" stop-opacity="0.75"/>
<stop offset="0.598902" stop-color="#056C4E" stop-opacity="0.300824"/>
<stop offset="0.874482" stop-color="#056C4F" stop-opacity="0"/>
</radialGradient>
<radialGradient id="paint7_radial" cx="0" cy="0" r="1" gradientUnits="userSpaceOnUse" gradientTransform="translate(15.7565 2.11644) rotate(57.0774) scale(7.11672 3.73272)">
<stop stop-color="#22B67B"/>
<stop offset="0.407867" stop-color="#24BE82"/>
<stop offset="1" stop-color="#24BE82" stop-opacity="0.07"/>
</radialGradient>
<linearGradient id="paint8_linear" x1="-3.5807" y1="12.8273" x2="6.72845" y2="12.912" gradientUnits="userSpaceOnUse">
<stop stop-color="#09F8FF"/>
<stop offset="1" stop-color="#0BF7F9" stop-opacity="0"/>
</linearGradient>
<radialGradient id="paint9_radial" cx="0" cy="0" r="1" gradientUnits="userSpaceOnUse" gradientTransform="translate(-1.36598 3.54173) rotate(49.6506) scale(9.29482 9.2716)">
<stop stop-color="#09F8FF"/>
<stop offset="1" stop-color="#0BF7F9" stop-opacity="0"/>
</radialGradient>
<radialGradient id="paint10_radial" cx="0" cy="0" r="1" gradientUnits="userSpaceOnUse" gradientTransform="translate(6.07962 -1.13796) rotate(48.0118) scale(18.8518 18.8221)">
<stop stop-color="#00B8FF"/>
<stop offset="0.745423" stop-color="#00B9FC" stop-opacity="0"/>
</radialGradient>
<radialGradient id="paint11_radial" cx="0" cy="0" r="1" gradientUnits="userSpaceOnUse" gradientTransform="translate(7.07758 13.0017) rotate(-107.468) scale(9.08678 6.29613)">
<stop stop-color="#00BCFF" stop-opacity="0.76"/>
<stop offset="0.57273" stop-color="#00BAFC" stop-opacity="0"/>
</radialGradient>
<radialGradient id="paint12_radial" cx="0" cy="0" r="1" gradientUnits="userSpaceOnUse" gradientTransform="translate(20.892 9.55052) rotate(-129.551) scale(6.42563 4.49858)">
<stop stop-color="#5FEC50"/>
<stop offset="1" stop-color="#3CC08E" stop-opacity="0"/>
</radialGradient>
<radialGradient id="paint13_radial" cx="0" cy="0" r="1" gradientUnits="userSpaceOnUse" gradientTransform="translate(19.9722 13.6892) rotate(-79.0944) scale(1.94534 1.34549)">
<stop stop-color="#28855B"/>
<stop offset="1" stop-color="#14795C" stop-opacity="0"/>
</radialGradient>
<radialGradient id="paint14_radial" cx="0" cy="0" r="1" gradientUnits="userSpaceOnUse" gradientTransform="translate(19.8784 13.546) rotate(-77.8798) scale(1.60371 2.24124)">
<stop stop-color="#28855B"/>
<stop offset="1" stop-color="#14795C" stop-opacity="0"/>
</radialGradient>
<radialGradient id="paint15_radial" cx="0" cy="0" r="1" gradientUnits="userSpaceOnUse" gradientTransform="translate(21.7889 10.6569) rotate(-132.79) scale(5.31989 3.73728)">
<stop stop-color="#5FF05B"/>
<stop offset="0.813285" stop-color="#5DE955" stop-opacity="0"/>
</radialGradient>
<radialGradient id="paint16_radial" cx="0" cy="0" r="1" gradientUnits="userSpaceOnUse" gradientTransform="translate(20.1248 12.1849) rotate(37.4559) scale(4.73114 6.57619)">
<stop stop-color="#123AA8"/>
<stop offset="0.966119" stop-color="#123AA8" stop-opacity="0"/>
</radialGradient>
<radialGradient id="paint17_radial" cx="0" cy="0" r="1" gradientUnits="userSpaceOnUse" gradientTransform="translate(18.9478 12.7182) rotate(8.48611) scale(5.5823 8.33241)">
<stop stop-color="#123AA8"/>
<stop offset="0.592487" stop-color="#123AA8" stop-opacity="0"/>
</radialGradient>
<radialGradient id="paint18_radial" cx="0" cy="0" r="1" gradientUnits="userSpaceOnUse" gradientTransform="translate(19.4008 13.4107) rotate(24.6631) scale(4.76848 8.49695)">
<stop stop-color="#123AA8"/>
<stop offset="0.756788" stop-color="#123AA8" stop-opacity="0"/>
</radialGradient>
<radialGradient id="paint19_radial" cx="0" cy="0" r="1" gradientUnits="userSpaceOnUse" gradientTransform="translate(18.8408 13.6932) rotate(95.8028) scale(8.57222 4.69765)">
<stop stop-color="#123AA8"/>
<stop offset="0.592487" stop-color="#123AA8" stop-opacity="0"/>
<stop offset="1" stop-color="#123AA8" stop-opacity="0"/>
</radialGradient>
<radialGradient id="paint20_radial" cx="0" cy="0" r="1" gradientUnits="userSpaceOnUse" gradientTransform="translate(20.1248 9.90862) rotate(93.6671) scale(10.3164 3.68167)">
<stop stop-color="#123AA8"/>
<stop offset="0.884611" stop-color="#123AA8" stop-opacity="0"/>
</radialGradient>
<radialGradient id="paint21_radial" cx="0" cy="0" r="1" gradientUnits="userSpaceOnUse" gradientTransform="translate(8.4335 12.0536) rotate(84.8296) scale(5.47432 2.90024)">
<stop stop-color="#123AA8"/>
<stop offset="0.884611" stop-color="#123AA8" stop-opacity="0"/>
</radialGradient>
<radialGradient id="paint22_radial" cx="0" cy="0" r="1" gradientUnits="userSpaceOnUse" gradientTransform="translate(8.42958 12.2009) rotate(87.2504) scale(5.71332 4.71685)">
<stop stop-color="#123AA8"/>
<stop offset="0.884611" stop-color="#123AA8" stop-opacity="0"/>
</radialGradient>
<radialGradient id="paint23_radial" cx="0" cy="0" r="1" gradientUnits="userSpaceOnUse" gradientTransform="translate(9.72946 17.5693) rotate(-23.1725) scale(6.37138 12.4538)">
<stop stop-color="#123AA8"/>
<stop offset="0.708977" stop-color="#123AA8" stop-opacity="0"/>
</radialGradient>
<radialGradient id="paint24_radial" cx="0" cy="0" r="1" gradientUnits="userSpaceOnUse" gradientTransform="translate(7.46247 10.804) rotate(-159.526) scale(4.22114 7.22774)">
<stop stop-color="#1A3DA0"/>
<stop offset="0.708977" stop-color="#123AA8" stop-opacity="0"/>
</radialGradient>
<radialGradient id="paint25_radial" cx="0" cy="0" r="1" gradientUnits="userSpaceOnUse" gradientTransform="translate(3.74681 12.2407) rotate(16.749) scale(8.05089 8.12731)">
<stop stop-color="#1E3882"/>
<stop offset="0.761404" stop-color="#123AA8" stop-opacity="0"/>
</radialGradient>
<linearGradient id="paint26_linear" x1="1.22159" y1="7.7876" x2="9.15497" y2="12.8511" gradientUnits="userSpaceOnUse">
<stop offset="0.229329" stop-color="#1DC4FF"/>
<stop offset="1" stop-color="#1CC1FF" stop-opacity="0"/>
</linearGradient>
<radialGradient id="paint27_radial" cx="0" cy="0" r="1" gradientUnits="userSpaceOnUse" gradientTransform="translate(-1.36646 3.54136) rotate(49.6506) scale(9.29482 9.2716)">
<stop stop-color="#09F8FF"/>
<stop offset="1" stop-color="#0BF7F9" stop-opacity="0"/>
</radialGradient>
<linearGradient id="paint28_linear" x1="1.66011" y1="8.04627" x2="3.88543" y2="10.0636" gradientUnits="userSpaceOnUse">
<stop stop-color="#26FBFF"/>
<stop offset="0.637346" stop-color="#0BF7F9" stop-opacity="0"/>
</linearGradient>
<linearGradient id="paint29_linear" x1="1.06889" y1="9.59036" x2="4.14688" y2="9.80996" gradientUnits="userSpaceOnUse">
<stop stop-color="#26FBFF"/>
<stop offset="0.637346" stop-color="#0BF7F9" stop-opacity="0"/>
</linearGradient>
<radialGradient id="paint30_radial" cx="0" cy="0" r="1" gradientUnits="userSpaceOnUse" gradientTransform="translate(7.07731 13.0018) rotate(-107.468) scale(9.08678 6.29613)">
<stop stop-color="#00BCFF" stop-opacity="0.76"/>
<stop offset="0.57273" stop-color="#00BAFC" stop-opacity="0"/>
</radialGradient>
<clipPath id="clip0">
<rect width="22.2393" height="16.1875" fill="white" transform="translate(1.89111 4.90625)"/>
</clipPath>
</defs>
</svg>
