<svg width="685" height="312" viewBox="0 0 685 312" fill="none" xmlns="http://www.w3.org/2000/svg">
<path d="M621.648 260.531C620.805 260.969 619.755 261.188 618.5 261.188C616.875 261.188 615.573 260.674 614.594 259.648C613.615 258.622 613.125 257.276 613.125 255.609C613.125 253.818 613.674 252.37 614.773 251.266C615.878 250.161 617.271 249.609 618.953 249.609C620.036 249.609 620.935 249.763 621.648 250.07V251.914C620.893 251.466 620.06 251.242 619.148 251.242C617.935 251.242 616.951 251.63 616.195 252.406C615.445 253.182 615.07 254.219 615.07 255.516C615.07 256.75 615.422 257.734 616.125 258.469C616.828 259.198 617.753 259.562 618.898 259.562C619.956 259.562 620.872 259.312 621.648 258.812V260.531ZM625.391 261H623.57V249.156H625.391V261ZM631.305 261.188C630.07 261.188 629.083 260.815 628.344 260.07C627.609 259.32 627.242 258.328 627.242 257.094C627.242 255.75 627.625 254.701 628.391 253.945C629.161 253.19 630.198 252.812 631.5 252.812C632.75 252.812 633.724 253.18 634.422 253.914C635.12 254.648 635.469 255.667 635.469 256.969C635.469 258.245 635.091 259.268 634.336 260.039C633.586 260.805 632.576 261.188 631.305 261.188ZM631.391 254.258C630.682 254.258 630.122 254.505 629.711 255C629.299 255.495 629.094 256.177 629.094 257.047C629.094 257.885 629.302 258.547 629.719 259.031C630.135 259.51 630.693 259.75 631.391 259.75C632.104 259.75 632.651 259.513 633.031 259.039C633.417 258.565 633.609 257.891 633.609 257.016C633.609 256.135 633.417 255.456 633.031 254.977C632.651 254.497 632.104 254.258 631.391 254.258ZM636.82 260.75V259.07C637.497 259.586 638.245 259.844 639.062 259.844C640.156 259.844 640.703 259.521 640.703 258.875C640.703 258.693 640.656 258.539 640.562 258.414C640.469 258.284 640.341 258.169 640.18 258.07C640.023 257.971 639.836 257.883 639.617 257.805C639.404 257.727 639.164 257.638 638.898 257.539C638.57 257.409 638.273 257.271 638.008 257.125C637.747 256.979 637.529 256.815 637.352 256.633C637.18 256.445 637.049 256.234 636.961 256C636.872 255.766 636.828 255.492 636.828 255.18C636.828 254.794 636.919 254.456 637.102 254.164C637.284 253.867 637.529 253.62 637.836 253.422C638.143 253.219 638.492 253.068 638.883 252.969C639.273 252.865 639.677 252.812 640.094 252.812C640.833 252.812 641.495 252.924 642.078 253.148V254.734C641.516 254.349 640.87 254.156 640.141 254.156C639.911 254.156 639.703 254.18 639.516 254.227C639.333 254.273 639.177 254.339 639.047 254.422C638.917 254.505 638.815 254.607 638.742 254.727C638.669 254.841 638.633 254.969 638.633 255.109C638.633 255.281 638.669 255.427 638.742 255.547C638.815 255.667 638.922 255.773 639.062 255.867C639.208 255.956 639.38 256.039 639.578 256.117C639.781 256.19 640.013 256.271 640.273 256.359C640.617 256.5 640.924 256.643 641.195 256.789C641.471 256.935 641.706 257.102 641.898 257.289C642.091 257.471 642.24 257.685 642.344 257.93C642.448 258.169 642.5 258.456 642.5 258.789C642.5 259.195 642.406 259.549 642.219 259.852C642.031 260.154 641.781 260.404 641.469 260.602C641.156 260.799 640.794 260.945 640.383 261.039C639.977 261.138 639.547 261.188 639.094 261.188C638.219 261.188 637.461 261.042 636.82 260.75ZM651 257.492H645.547C645.568 258.232 645.794 258.802 646.227 259.203C646.664 259.604 647.263 259.805 648.023 259.805C648.878 259.805 649.661 259.549 650.375 259.039V260.5C649.646 260.958 648.682 261.188 647.484 261.188C646.307 261.188 645.383 260.826 644.711 260.102C644.044 259.372 643.711 258.349 643.711 257.031C643.711 255.786 644.078 254.773 644.812 253.992C645.552 253.206 646.469 252.812 647.562 252.812C648.656 252.812 649.503 253.164 650.102 253.867C650.701 254.57 651 255.547 651 256.797V257.492ZM649.25 256.211C649.245 255.56 649.091 255.055 648.789 254.695C648.487 254.331 648.07 254.148 647.539 254.148C647.018 254.148 646.576 254.339 646.211 254.719C645.852 255.099 645.63 255.596 645.547 256.211H649.25Z" fill="white" fill-opacity="0.95"/>
<rect x="600.5" y="238.5" width="63" height="31" rx="15.5" stroke="white" stroke-opacity="0.3"/>
<rect x="507" y="238" width="85" height="32" rx="16" fill="white" fill-opacity="0.2"/>
<path d="M526.914 251.375H522.727V254.742H526.586V256.312H522.727V261H520.867V249.797H526.914V251.375ZM532.258 261.188C531.023 261.188 530.036 260.815 529.297 260.07C528.562 259.32 528.195 258.328 528.195 257.094C528.195 255.75 528.578 254.701 529.344 253.945C530.115 253.19 531.151 252.812 532.453 252.812C533.703 252.812 534.677 253.18 535.375 253.914C536.073 254.648 536.422 255.667 536.422 256.969C536.422 258.245 536.044 259.268 535.289 260.039C534.539 260.805 533.529 261.188 532.258 261.188ZM532.344 254.258C531.635 254.258 531.076 254.505 530.664 255C530.253 255.495 530.047 256.177 530.047 257.047C530.047 257.885 530.255 258.547 530.672 259.031C531.089 259.51 531.646 259.75 532.344 259.75C533.057 259.75 533.604 259.513 533.984 259.039C534.37 258.565 534.562 257.891 534.562 257.016C534.562 256.135 534.37 255.456 533.984 254.977C533.604 254.497 533.057 254.258 532.344 254.258ZM542.914 254.727C542.695 254.555 542.38 254.469 541.969 254.469C541.432 254.469 540.984 254.711 540.625 255.195C540.266 255.68 540.086 256.339 540.086 257.172V261H538.273V253H540.086V254.648H540.117C540.294 254.086 540.565 253.648 540.93 253.336C541.299 253.018 541.711 252.859 542.164 252.859C542.492 252.859 542.742 252.909 542.914 253.008V254.727ZM555.562 253L553.203 261H551.305L549.852 255.578C549.794 255.37 549.758 255.135 549.742 254.875H549.711C549.701 255.052 549.654 255.281 549.57 255.562L547.992 261H546.133L543.781 253H545.656L547.109 258.766C547.156 258.938 547.188 259.167 547.203 259.453H547.258C547.273 259.234 547.315 259 547.383 258.75L549 253H550.703L552.141 258.789C552.188 258.971 552.221 259.201 552.242 259.477H552.297C552.307 259.284 552.346 259.055 552.414 258.789L553.836 253H555.562ZM563.055 261H561.297V259.75H561.266C560.714 260.708 559.904 261.188 558.836 261.188C558.049 261.188 557.432 260.974 556.984 260.547C556.542 260.12 556.32 259.555 556.32 258.852C556.32 257.341 557.19 256.461 558.93 256.211L561.305 255.875C561.305 254.734 560.763 254.164 559.68 254.164C558.727 254.164 557.867 254.492 557.102 255.148V253.562C557.945 253.062 558.919 252.812 560.023 252.812C562.044 252.812 563.055 253.807 563.055 255.797V261ZM561.305 257.07L559.625 257.305C559.104 257.372 558.711 257.5 558.445 257.688C558.185 257.87 558.055 258.193 558.055 258.656C558.055 258.995 558.174 259.273 558.414 259.492C558.659 259.706 558.984 259.812 559.391 259.812C559.943 259.812 560.398 259.62 560.758 259.234C561.122 258.844 561.305 258.354 561.305 257.766V257.07ZM569.914 254.727C569.695 254.555 569.38 254.469 568.969 254.469C568.432 254.469 567.984 254.711 567.625 255.195C567.266 255.68 567.086 256.339 567.086 257.172V261H565.273V253H567.086V254.648H567.117C567.294 254.086 567.565 253.648 567.93 253.336C568.299 253.018 568.711 252.859 569.164 252.859C569.492 252.859 569.742 252.909 569.914 253.008V254.727ZM578.328 261H576.516V259.641H576.484C575.901 260.672 575.003 261.188 573.789 261.188C572.805 261.188 572.016 260.831 571.422 260.117C570.833 259.398 570.539 258.422 570.539 257.188C570.539 255.865 570.865 254.805 571.516 254.008C572.172 253.211 573.044 252.812 574.133 252.812C575.211 252.812 575.995 253.245 576.484 254.109H576.516V249.156H578.328V261ZM576.539 257.344V256.297C576.539 255.729 576.354 255.247 575.984 254.852C575.615 254.456 575.143 254.258 574.57 254.258C573.893 254.258 573.359 254.51 572.969 255.016C572.583 255.521 572.391 256.221 572.391 257.117C572.391 257.93 572.576 258.573 572.945 259.047C573.32 259.516 573.823 259.75 574.453 259.75C575.073 259.75 575.576 259.523 575.961 259.07C576.346 258.612 576.539 258.036 576.539 257.344Z" fill="white" fill-opacity="0.4"/>
<rect x="264" y="182" width="400" height="32" rx="8" fill="black"/>
<rect x="264.5" y="182.5" width="399" height="31" rx="7.5" stroke="white" stroke-opacity="0.5"/>
<path d="M296.945 203.547V202C297.279 202.302 297.698 202.547 298.203 202.734C298.714 202.917 299.195 203.008 299.648 203.008C301.091 203.008 301.812 202.448 301.812 201.328C301.812 200.896 301.667 200.508 301.375 200.164C301.089 199.815 300.448 199.359 299.453 198.797C298.562 198.292 297.924 197.799 297.539 197.32C297.154 196.841 296.961 196.268 296.961 195.602C296.961 194.727 297.286 194.01 297.938 193.453C298.589 192.891 299.448 192.609 300.516 192.609C301.521 192.609 302.255 192.742 302.719 193.008V194.484C302.125 194.026 301.37 193.797 300.453 193.797C299.802 193.797 299.286 193.953 298.906 194.266C298.526 194.578 298.336 194.984 298.336 195.484C298.336 195.896 298.448 196.268 298.672 196.602C298.901 196.93 299.516 197.37 300.516 197.922C301.484 198.464 302.172 198.984 302.578 199.484C302.984 199.984 303.188 200.547 303.188 201.172C303.188 202.094 302.865 202.828 302.219 203.375C301.573 203.917 300.656 204.188 299.469 204.188C299.052 204.188 298.589 204.125 298.078 204C297.568 203.87 297.19 203.719 296.945 203.547ZM311.68 200.32H306.031C306.052 201.211 306.292 201.898 306.75 202.383C307.208 202.867 307.839 203.109 308.641 203.109C309.542 203.109 310.37 202.812 311.125 202.219V203.422C310.422 203.932 309.492 204.188 308.336 204.188C307.206 204.188 306.318 203.826 305.672 203.102C305.026 202.372 304.703 201.349 304.703 200.031C304.703 198.786 305.055 197.773 305.758 196.992C306.466 196.206 307.344 195.812 308.391 195.812C309.438 195.812 310.247 196.151 310.82 196.828C311.393 197.505 311.68 198.445 311.68 199.648V200.32ZM310.367 199.234C310.362 198.495 310.182 197.919 309.828 197.508C309.479 197.096 308.992 196.891 308.367 196.891C307.763 196.891 307.25 197.107 306.828 197.539C306.406 197.971 306.146 198.536 306.047 199.234H310.367ZM319.352 204H318.07V202.75H318.039C317.482 203.708 316.661 204.188 315.578 204.188C314.781 204.188 314.156 203.977 313.703 203.555C313.255 203.133 313.031 202.573 313.031 201.875C313.031 200.38 313.911 199.51 315.672 199.266L318.07 198.93C318.07 197.57 317.521 196.891 316.422 196.891C315.458 196.891 314.589 197.219 313.812 197.875V196.562C314.599 196.062 315.505 195.812 316.531 195.812C318.411 195.812 319.352 196.807 319.352 198.797V204ZM318.07 199.953L316.141 200.219C315.547 200.302 315.099 200.451 314.797 200.664C314.495 200.872 314.344 201.245 314.344 201.781C314.344 202.172 314.482 202.492 314.758 202.742C315.039 202.987 315.411 203.109 315.875 203.109C316.51 203.109 317.034 202.888 317.445 202.445C317.862 201.997 318.07 201.432 318.07 200.75V199.953ZM325.938 197.297C325.714 197.125 325.391 197.039 324.969 197.039C324.422 197.039 323.964 197.297 323.594 197.812C323.229 198.328 323.047 199.031 323.047 199.922V204H321.766V196H323.047V197.648H323.078C323.26 197.086 323.539 196.648 323.914 196.336C324.289 196.018 324.708 195.859 325.172 195.859C325.505 195.859 325.76 195.896 325.938 195.969V197.297ZM332.562 203.633C331.948 204.003 331.219 204.188 330.375 204.188C329.234 204.188 328.312 203.818 327.609 203.078C326.911 202.333 326.562 201.37 326.562 200.188C326.562 198.87 326.94 197.812 327.695 197.016C328.451 196.214 329.458 195.812 330.719 195.812C331.422 195.812 332.042 195.943 332.578 196.203V197.516C331.984 197.099 331.349 196.891 330.672 196.891C329.854 196.891 329.182 197.185 328.656 197.773C328.135 198.357 327.875 199.125 327.875 200.078C327.875 201.016 328.12 201.755 328.609 202.297C329.104 202.839 329.766 203.109 330.594 203.109C331.292 203.109 331.948 202.878 332.562 202.414V203.633ZM341.141 204H339.859V199.391C339.859 197.724 339.24 196.891 338 196.891C337.375 196.891 336.849 197.133 336.422 197.617C335.995 198.096 335.781 198.714 335.781 199.469V204H334.5V192.156H335.781V197.328H335.812C336.427 196.318 337.302 195.812 338.438 195.812C340.24 195.812 341.141 196.898 341.141 199.07V204ZM351.906 193.281C351.656 193.141 351.372 193.07 351.055 193.07C350.159 193.07 349.711 193.635 349.711 194.766V196H351.586V197.094H349.711V204H348.438V197.094H347.07V196H348.438V194.703C348.438 193.865 348.68 193.203 349.164 192.719C349.648 192.229 350.253 191.984 350.977 191.984C351.367 191.984 351.677 192.031 351.906 192.125V193.281ZM356.312 204.188C355.13 204.188 354.185 203.815 353.477 203.07C352.773 202.32 352.422 201.328 352.422 200.094C352.422 198.75 352.789 197.701 353.523 196.945C354.258 196.19 355.25 195.812 356.5 195.812C357.693 195.812 358.622 196.18 359.289 196.914C359.961 197.648 360.297 198.667 360.297 199.969C360.297 201.245 359.935 202.268 359.211 203.039C358.492 203.805 357.526 204.188 356.312 204.188ZM356.406 196.891C355.583 196.891 354.932 197.172 354.453 197.734C353.974 198.292 353.734 199.062 353.734 200.047C353.734 200.995 353.977 201.742 354.461 202.289C354.945 202.836 355.594 203.109 356.406 203.109C357.234 203.109 357.87 202.841 358.312 202.305C358.76 201.768 358.984 201.005 358.984 200.016C358.984 199.016 358.76 198.245 358.312 197.703C357.87 197.161 357.234 196.891 356.406 196.891ZM366.516 197.297C366.292 197.125 365.969 197.039 365.547 197.039C365 197.039 364.542 197.297 364.172 197.812C363.807 198.328 363.625 199.031 363.625 199.922V204H362.344V196H363.625V197.648H363.656C363.839 197.086 364.117 196.648 364.492 196.336C364.867 196.018 365.286 195.859 365.75 195.859C366.083 195.859 366.339 195.896 366.516 195.969V197.297ZM378.023 204H376.742V202.75H376.711C376.154 203.708 375.333 204.188 374.25 204.188C373.453 204.188 372.828 203.977 372.375 203.555C371.927 203.133 371.703 202.573 371.703 201.875C371.703 200.38 372.583 199.51 374.344 199.266L376.742 198.93C376.742 197.57 376.193 196.891 375.094 196.891C374.13 196.891 373.26 197.219 372.484 197.875V196.562C373.271 196.062 374.177 195.812 375.203 195.812C377.083 195.812 378.023 196.807 378.023 198.797V204ZM376.742 199.953L374.812 200.219C374.219 200.302 373.771 200.451 373.469 200.664C373.167 200.872 373.016 201.245 373.016 201.781C373.016 202.172 373.154 202.492 373.43 202.742C373.711 202.987 374.083 203.109 374.547 203.109C375.182 203.109 375.706 202.888 376.117 202.445C376.534 201.997 376.742 201.432 376.742 200.75V199.953ZM386.141 202.844H386.109V207.68H384.828V196H386.109V197.406H386.141C386.771 196.344 387.693 195.812 388.906 195.812C389.938 195.812 390.742 196.172 391.32 196.891C391.898 197.604 392.188 198.562 392.188 199.766C392.188 201.104 391.862 202.177 391.211 202.984C390.56 203.786 389.669 204.188 388.539 204.188C387.503 204.188 386.703 203.74 386.141 202.844ZM386.109 199.617V200.734C386.109 201.396 386.323 201.958 386.75 202.422C387.182 202.88 387.729 203.109 388.391 203.109C389.167 203.109 389.773 202.812 390.211 202.219C390.654 201.625 390.875 200.799 390.875 199.742C390.875 198.852 390.669 198.154 390.258 197.648C389.846 197.143 389.289 196.891 388.586 196.891C387.841 196.891 387.242 197.151 386.789 197.672C386.336 198.188 386.109 198.836 386.109 199.617ZM400.664 200.32H395.016C395.036 201.211 395.276 201.898 395.734 202.383C396.193 202.867 396.823 203.109 397.625 203.109C398.526 203.109 399.354 202.812 400.109 202.219V203.422C399.406 203.932 398.477 204.188 397.32 204.188C396.19 204.188 395.302 203.826 394.656 203.102C394.01 202.372 393.688 201.349 393.688 200.031C393.688 198.786 394.039 197.773 394.742 196.992C395.451 196.206 396.328 195.812 397.375 195.812C398.422 195.812 399.232 196.151 399.805 196.828C400.378 197.505 400.664 198.445 400.664 199.648V200.32ZM399.352 199.234C399.346 198.495 399.167 197.919 398.812 197.508C398.464 197.096 397.977 196.891 397.352 196.891C396.747 196.891 396.234 197.107 395.812 197.539C395.391 197.971 395.13 198.536 395.031 199.234H399.352ZM406.781 197.297C406.557 197.125 406.234 197.039 405.812 197.039C405.266 197.039 404.807 197.297 404.438 197.812C404.073 198.328 403.891 199.031 403.891 199.922V204H402.609V196H403.891V197.648H403.922C404.104 197.086 404.383 196.648 404.758 196.336C405.133 196.018 405.552 195.859 406.016 195.859C406.349 195.859 406.604 195.896 406.781 195.969V197.297ZM407.797 203.711V202.336C408.422 202.852 409.115 203.109 409.875 203.109C410.891 203.109 411.398 202.734 411.398 201.984C411.398 201.672 411.286 201.414 411.062 201.211C410.839 201.008 410.401 200.766 409.75 200.484C408.984 200.146 408.469 199.799 408.203 199.445C407.943 199.086 407.812 198.646 407.812 198.125C407.812 197.458 408.076 196.906 408.602 196.469C409.128 196.031 409.805 195.812 410.633 195.812C411.268 195.812 411.839 195.932 412.344 196.172V197.469C411.818 197.083 411.214 196.891 410.531 196.891C410.104 196.891 409.763 196.995 409.508 197.203C409.253 197.411 409.125 197.682 409.125 198.016C409.125 198.339 409.216 198.599 409.398 198.797C409.586 198.995 410.003 199.229 410.648 199.5C411.435 199.833 411.974 200.182 412.266 200.547C412.562 200.911 412.711 201.349 412.711 201.859C412.711 202.542 412.448 203.102 411.922 203.539C411.396 203.971 410.682 204.188 409.781 204.188C409.021 204.188 408.359 204.029 407.797 203.711ZM418 204.188C416.818 204.188 415.872 203.815 415.164 203.07C414.461 202.32 414.109 201.328 414.109 200.094C414.109 198.75 414.477 197.701 415.211 196.945C415.945 196.19 416.938 195.812 418.188 195.812C419.38 195.812 420.31 196.18 420.977 196.914C421.648 197.648 421.984 198.667 421.984 199.969C421.984 201.245 421.622 202.268 420.898 203.039C420.18 203.805 419.214 204.188 418 204.188ZM418.094 196.891C417.271 196.891 416.62 197.172 416.141 197.734C415.661 198.292 415.422 199.062 415.422 200.047C415.422 200.995 415.664 201.742 416.148 202.289C416.633 202.836 417.281 203.109 418.094 203.109C418.922 203.109 419.557 202.841 420 202.305C420.448 201.768 420.672 201.005 420.672 200.016C420.672 199.016 420.448 198.245 420 197.703C419.557 197.161 418.922 196.891 418.094 196.891ZM430.672 204H429.391V199.438C429.391 197.74 428.771 196.891 427.531 196.891C426.891 196.891 426.359 197.133 425.938 197.617C425.521 198.096 425.312 198.703 425.312 199.438V204H424.031V196H425.312V197.328H425.344C425.948 196.318 426.823 195.812 427.969 195.812C428.844 195.812 429.513 196.096 429.977 196.664C430.44 197.227 430.672 198.042 430.672 199.109V204ZM440.828 204.188C439.646 204.188 438.701 203.815 437.992 203.07C437.289 202.32 436.938 201.328 436.938 200.094C436.938 198.75 437.305 197.701 438.039 196.945C438.773 196.19 439.766 195.812 441.016 195.812C442.208 195.812 443.138 196.18 443.805 196.914C444.477 197.648 444.812 198.667 444.812 199.969C444.812 201.245 444.451 202.268 443.727 203.039C443.008 203.805 442.042 204.188 440.828 204.188ZM440.922 196.891C440.099 196.891 439.448 197.172 438.969 197.734C438.49 198.292 438.25 199.062 438.25 200.047C438.25 200.995 438.492 201.742 438.977 202.289C439.461 202.836 440.109 203.109 440.922 203.109C441.75 203.109 442.385 202.841 442.828 202.305C443.276 201.768 443.5 201.005 443.5 200.016C443.5 199.016 443.276 198.245 442.828 197.703C442.385 197.161 441.75 196.891 440.922 196.891ZM451.031 197.297C450.807 197.125 450.484 197.039 450.062 197.039C449.516 197.039 449.057 197.297 448.688 197.812C448.323 198.328 448.141 199.031 448.141 199.922V204H446.859V196H448.141V197.648H448.172C448.354 197.086 448.633 196.648 449.008 196.336C449.383 196.018 449.802 195.859 450.266 195.859C450.599 195.859 450.854 195.896 451.031 195.969V197.297ZM456.328 203.711V202.336C456.953 202.852 457.646 203.109 458.406 203.109C459.422 203.109 459.93 202.734 459.93 201.984C459.93 201.672 459.818 201.414 459.594 201.211C459.37 201.008 458.932 200.766 458.281 200.484C457.516 200.146 457 199.799 456.734 199.445C456.474 199.086 456.344 198.646 456.344 198.125C456.344 197.458 456.607 196.906 457.133 196.469C457.659 196.031 458.336 195.812 459.164 195.812C459.799 195.812 460.37 195.932 460.875 196.172V197.469C460.349 197.083 459.745 196.891 459.062 196.891C458.635 196.891 458.294 196.995 458.039 197.203C457.784 197.411 457.656 197.682 457.656 198.016C457.656 198.339 457.747 198.599 457.93 198.797C458.117 198.995 458.534 199.229 459.18 199.5C459.966 199.833 460.505 200.182 460.797 200.547C461.094 200.911 461.242 201.349 461.242 201.859C461.242 202.542 460.979 203.102 460.453 203.539C459.927 203.971 459.214 204.188 458.312 204.188C457.552 204.188 456.891 204.029 456.328 203.711ZM464.5 202.844H464.469V207.68H463.188V196H464.469V197.406H464.5C465.13 196.344 466.052 195.812 467.266 195.812C468.297 195.812 469.102 196.172 469.68 196.891C470.258 197.604 470.547 198.562 470.547 199.766C470.547 201.104 470.221 202.177 469.57 202.984C468.919 203.786 468.029 204.188 466.898 204.188C465.862 204.188 465.062 203.74 464.5 202.844ZM464.469 199.617V200.734C464.469 201.396 464.682 201.958 465.109 202.422C465.542 202.88 466.089 203.109 466.75 203.109C467.526 203.109 468.133 202.812 468.57 202.219C469.013 201.625 469.234 200.799 469.234 199.742C469.234 198.852 469.029 198.154 468.617 197.648C468.206 197.143 467.648 196.891 466.945 196.891C466.201 196.891 465.602 197.151 465.148 197.672C464.695 198.188 464.469 198.836 464.469 199.617ZM478.102 204H476.82V202.75H476.789C476.232 203.708 475.411 204.188 474.328 204.188C473.531 204.188 472.906 203.977 472.453 203.555C472.005 203.133 471.781 202.573 471.781 201.875C471.781 200.38 472.661 199.51 474.422 199.266L476.82 198.93C476.82 197.57 476.271 196.891 475.172 196.891C474.208 196.891 473.339 197.219 472.562 197.875V196.562C473.349 196.062 474.255 195.812 475.281 195.812C477.161 195.812 478.102 196.807 478.102 198.797V204ZM476.82 199.953L474.891 200.219C474.297 200.302 473.849 200.451 473.547 200.664C473.245 200.872 473.094 201.245 473.094 201.781C473.094 202.172 473.232 202.492 473.508 202.742C473.789 202.987 474.161 203.109 474.625 203.109C475.26 203.109 475.784 202.888 476.195 202.445C476.612 201.997 476.82 201.432 476.82 200.75V199.953ZM485.969 203.633C485.354 204.003 484.625 204.188 483.781 204.188C482.641 204.188 481.719 203.818 481.016 203.078C480.318 202.333 479.969 201.37 479.969 200.188C479.969 198.87 480.346 197.812 481.102 197.016C481.857 196.214 482.865 195.812 484.125 195.812C484.828 195.812 485.448 195.943 485.984 196.203V197.516C485.391 197.099 484.755 196.891 484.078 196.891C483.26 196.891 482.589 197.185 482.062 197.773C481.542 198.357 481.281 199.125 481.281 200.078C481.281 201.016 481.526 201.755 482.016 202.297C482.51 202.839 483.172 203.109 484 203.109C484.698 203.109 485.354 202.878 485.969 202.414V203.633ZM494.336 200.32H488.688C488.708 201.211 488.948 201.898 489.406 202.383C489.865 202.867 490.495 203.109 491.297 203.109C492.198 203.109 493.026 202.812 493.781 202.219V203.422C493.078 203.932 492.148 204.188 490.992 204.188C489.862 204.188 488.974 203.826 488.328 203.102C487.682 202.372 487.359 201.349 487.359 200.031C487.359 198.786 487.711 197.773 488.414 196.992C489.122 196.206 490 195.812 491.047 195.812C492.094 195.812 492.904 196.151 493.477 196.828C494.049 197.505 494.336 198.445 494.336 199.648V200.32ZM493.023 199.234C493.018 198.495 492.839 197.919 492.484 197.508C492.135 197.096 491.648 196.891 491.023 196.891C490.419 196.891 489.906 197.107 489.484 197.539C489.062 197.971 488.802 198.536 488.703 199.234H493.023ZM501.984 202.844H501.953V204H500.672V192.156H501.953V197.406H501.984C502.615 196.344 503.536 195.812 504.75 195.812C505.776 195.812 506.578 196.172 507.156 196.891C507.74 197.604 508.031 198.562 508.031 199.766C508.031 201.104 507.706 202.177 507.055 202.984C506.404 203.786 505.513 204.188 504.383 204.188C503.326 204.188 502.526 203.74 501.984 202.844ZM501.953 199.617V200.734C501.953 201.396 502.167 201.958 502.594 202.422C503.026 202.88 503.573 203.109 504.234 203.109C505.01 203.109 505.617 202.812 506.055 202.219C506.497 201.625 506.719 200.799 506.719 199.742C506.719 198.852 506.513 198.154 506.102 197.648C505.69 197.143 505.133 196.891 504.43 196.891C503.685 196.891 503.086 197.151 502.633 197.672C502.18 198.188 501.953 198.836 501.953 199.617ZM516.445 196L512.766 205.281C512.109 206.938 511.188 207.766 510 207.766C509.667 207.766 509.388 207.732 509.164 207.664V206.516C509.44 206.609 509.693 206.656 509.922 206.656C510.568 206.656 511.052 206.271 511.375 205.5L512.016 203.984L508.891 196H510.312L512.477 202.156C512.503 202.234 512.557 202.438 512.641 202.766H512.688C512.714 202.641 512.766 202.443 512.844 202.172L515.117 196H516.445ZM528.859 204H527.578V199.438C527.578 197.74 526.958 196.891 525.719 196.891C525.078 196.891 524.547 197.133 524.125 197.617C523.708 198.096 523.5 198.703 523.5 199.438V204H522.219V196H523.5V197.328H523.531C524.135 196.318 525.01 195.812 526.156 195.812C527.031 195.812 527.701 196.096 528.164 196.664C528.628 197.227 528.859 198.042 528.859 199.109V204ZM537.008 204H535.727V202.75H535.695C535.138 203.708 534.318 204.188 533.234 204.188C532.438 204.188 531.812 203.977 531.359 203.555C530.911 203.133 530.688 202.573 530.688 201.875C530.688 200.38 531.568 199.51 533.328 199.266L535.727 198.93C535.727 197.57 535.177 196.891 534.078 196.891C533.115 196.891 532.245 197.219 531.469 197.875V196.562C532.255 196.062 533.161 195.812 534.188 195.812C536.068 195.812 537.008 196.807 537.008 198.797V204ZM535.727 199.953L533.797 200.219C533.203 200.302 532.755 200.451 532.453 200.664C532.151 200.872 532 201.245 532 201.781C532 202.172 532.138 202.492 532.414 202.742C532.695 202.987 533.068 203.109 533.531 203.109C534.167 203.109 534.69 202.888 535.102 202.445C535.518 201.997 535.727 201.432 535.727 200.75V199.953ZM550.781 204H549.5V199.406C549.5 198.521 549.362 197.88 549.086 197.484C548.815 197.089 548.357 196.891 547.711 196.891C547.164 196.891 546.698 197.141 546.312 197.641C545.932 198.141 545.742 198.74 545.742 199.438V204H544.461V199.25C544.461 197.677 543.854 196.891 542.641 196.891C542.078 196.891 541.615 197.128 541.25 197.602C540.885 198.07 540.703 198.682 540.703 199.438V204H539.422V196H540.703V197.266H540.734C541.302 196.297 542.13 195.812 543.219 195.812C543.766 195.812 544.242 195.966 544.648 196.273C545.055 196.576 545.333 196.974 545.484 197.469C546.078 196.365 546.964 195.812 548.141 195.812C549.901 195.812 550.781 196.898 550.781 199.07V204ZM559.633 200.32H553.984C554.005 201.211 554.245 201.898 554.703 202.383C555.161 202.867 555.792 203.109 556.594 203.109C557.495 203.109 558.323 202.812 559.078 202.219V203.422C558.375 203.932 557.445 204.188 556.289 204.188C555.159 204.188 554.271 203.826 553.625 203.102C552.979 202.372 552.656 201.349 552.656 200.031C552.656 198.786 553.008 197.773 553.711 196.992C554.419 196.206 555.297 195.812 556.344 195.812C557.391 195.812 558.201 196.151 558.773 196.828C559.346 197.505 559.633 198.445 559.633 199.648V200.32ZM558.32 199.234C558.315 198.495 558.135 197.919 557.781 197.508C557.432 197.096 556.945 196.891 556.32 196.891C555.716 196.891 555.203 197.107 554.781 197.539C554.359 197.971 554.099 198.536 554 199.234H558.32Z" fill="white" fill-opacity="0.7"/>
<path d="M286.853 204.146L284.932 202.225C286.026 200.947 286.583 199.296 286.486 197.617C286.389 195.938 285.646 194.362 284.411 193.219C283.177 192.076 281.549 191.456 279.867 191.489C278.185 191.521 276.582 192.203 275.393 193.393C274.203 194.582 273.521 196.185 273.489 197.867C273.456 199.549 274.076 201.177 275.219 202.411C276.362 203.645 277.938 204.389 279.617 204.486C281.296 204.583 282.947 204.026 284.225 202.932L286.146 204.853C286.193 204.9 286.248 204.937 286.308 204.962C286.369 204.987 286.434 205 286.5 205C286.565 205 286.63 204.987 286.691 204.962C286.752 204.937 286.807 204.9 286.853 204.853C286.9 204.807 286.937 204.752 286.962 204.691C286.987 204.63 287 204.565 287 204.5C287 204.434 286.987 204.369 286.962 204.308C286.937 204.248 286.9 204.193 286.853 204.146ZM276.111 201.889C275.341 201.12 274.818 200.14 274.605 199.073C274.393 198.006 274.502 196.9 274.918 195.895C275.335 194.89 276.04 194.031 276.944 193.427C277.849 192.822 278.912 192.5 280 192.5C281.088 192.5 282.151 192.822 283.055 193.427C283.96 194.031 284.665 194.89 285.081 195.895C285.498 196.9 285.606 198.006 285.394 199.073C285.182 200.14 284.658 201.12 283.889 201.889C282.857 202.919 281.458 203.497 280 203.497C278.542 203.497 277.143 202.919 276.111 201.889Z" fill="white" fill-opacity="0.95"/>
<path d="M270.262 136.236H266.434V139.627H269.975V140.659H266.434V145H265.285V135.197H270.262V136.236ZM274.896 145.164C273.862 145.164 273.035 144.838 272.415 144.187C271.8 143.53 271.492 142.662 271.492 141.582C271.492 140.406 271.813 139.488 272.456 138.827C273.099 138.166 273.967 137.836 275.061 137.836C276.104 137.836 276.918 138.157 277.501 138.8C278.089 139.442 278.383 140.333 278.383 141.473C278.383 142.589 278.066 143.485 277.433 144.159C276.804 144.829 275.958 145.164 274.896 145.164ZM274.979 138.779C274.258 138.779 273.689 139.025 273.27 139.518C272.85 140.005 272.641 140.68 272.641 141.541C272.641 142.37 272.853 143.024 273.276 143.503C273.7 143.981 274.268 144.221 274.979 144.221C275.703 144.221 276.259 143.986 276.646 143.517C277.038 143.047 277.234 142.38 277.234 141.514C277.234 140.639 277.038 139.964 276.646 139.49C276.259 139.016 275.703 138.779 274.979 138.779ZM283.824 139.135C283.628 138.984 283.346 138.909 282.977 138.909C282.498 138.909 282.097 139.135 281.773 139.586C281.454 140.037 281.295 140.652 281.295 141.432V145H280.174V138H281.295V139.442H281.322C281.482 138.95 281.726 138.567 282.054 138.294C282.382 138.016 282.749 137.877 283.154 137.877C283.446 137.877 283.669 137.909 283.824 137.973V139.135ZM294.42 138L292.321 145H291.159L289.717 139.989C289.662 139.798 289.626 139.581 289.607 139.34H289.58C289.566 139.504 289.519 139.716 289.437 139.976L287.871 145H286.75L284.631 138H285.807L287.256 143.264C287.301 143.423 287.333 143.633 287.352 143.893H287.406C287.42 143.692 287.461 143.478 287.529 143.25L289.143 138H290.168L291.617 143.277C291.663 143.446 291.697 143.656 291.72 143.906H291.774C291.784 143.729 291.822 143.519 291.891 143.277L293.312 138H294.42ZM300.729 145H299.608V143.906H299.581C299.093 144.745 298.376 145.164 297.428 145.164C296.73 145.164 296.184 144.979 295.787 144.61C295.395 144.241 295.199 143.751 295.199 143.141C295.199 141.833 295.969 141.072 297.51 140.857L299.608 140.563C299.608 139.374 299.128 138.779 298.166 138.779C297.323 138.779 296.562 139.066 295.883 139.641V138.492C296.571 138.055 297.364 137.836 298.262 137.836C299.907 137.836 300.729 138.706 300.729 140.447V145ZM299.608 141.459L297.92 141.691C297.4 141.764 297.008 141.894 296.744 142.081C296.48 142.263 296.348 142.589 296.348 143.059C296.348 143.4 296.468 143.681 296.71 143.899C296.956 144.114 297.282 144.221 297.688 144.221C298.243 144.221 298.701 144.027 299.062 143.64C299.426 143.248 299.608 142.753 299.608 142.156V141.459ZM306.492 139.135C306.296 138.984 306.014 138.909 305.645 138.909C305.166 138.909 304.765 139.135 304.441 139.586C304.122 140.037 303.963 140.652 303.963 141.432V145H302.842V138H303.963V139.442H303.99C304.15 138.95 304.394 138.567 304.722 138.294C305.05 138.016 305.417 137.877 305.822 137.877C306.114 137.877 306.337 137.909 306.492 137.973V139.135ZM313.492 145H312.371V143.811H312.344C311.824 144.713 311.022 145.164 309.938 145.164C309.058 145.164 308.354 144.852 307.825 144.228C307.301 143.599 307.039 142.744 307.039 141.664C307.039 140.507 307.331 139.579 307.914 138.882C308.497 138.185 309.274 137.836 310.245 137.836C311.207 137.836 311.906 138.214 312.344 138.971H312.371V134.637H313.492V145ZM312.371 141.835V140.803C312.371 140.238 312.184 139.759 311.811 139.367C311.437 138.975 310.963 138.779 310.389 138.779C309.705 138.779 309.167 139.03 308.775 139.531C308.383 140.033 308.188 140.725 308.188 141.609C308.188 142.416 308.374 143.054 308.748 143.523C309.126 143.988 309.632 144.221 310.266 144.221C310.89 144.221 311.396 143.995 311.783 143.544C312.175 143.093 312.371 142.523 312.371 141.835ZM322.851 144.932C322.586 145.077 322.238 145.15 321.805 145.15C320.579 145.15 319.966 144.467 319.966 143.1V138.957H318.763V138H319.966V136.291L321.087 135.929V138H322.851V138.957H321.087V142.901C321.087 143.371 321.167 143.706 321.326 143.906C321.486 144.107 321.75 144.207 322.119 144.207C322.402 144.207 322.646 144.13 322.851 143.975V144.932ZM327.164 145.164C326.13 145.164 325.302 144.838 324.683 144.187C324.067 143.53 323.76 142.662 323.76 141.582C323.76 140.406 324.081 139.488 324.724 138.827C325.366 138.166 326.234 137.836 327.328 137.836C328.372 137.836 329.185 138.157 329.769 138.8C330.356 139.442 330.65 140.333 330.65 141.473C330.65 142.589 330.334 143.485 329.7 144.159C329.071 144.829 328.226 145.164 327.164 145.164ZM327.246 138.779C326.526 138.779 325.956 139.025 325.537 139.518C325.118 140.005 324.908 140.68 324.908 141.541C324.908 142.37 325.12 143.024 325.544 143.503C325.968 143.981 326.535 144.221 327.246 144.221C327.971 144.221 328.527 143.986 328.914 143.517C329.306 143.047 329.502 142.38 329.502 141.514C329.502 140.639 329.306 139.964 328.914 139.49C328.527 139.016 327.971 138.779 327.246 138.779ZM341.294 145H340.173V143.906H340.146C339.658 144.745 338.94 145.164 337.992 145.164C337.295 145.164 336.748 144.979 336.352 144.61C335.96 144.241 335.764 143.751 335.764 143.141C335.764 141.833 336.534 141.072 338.074 140.857L340.173 140.563C340.173 139.374 339.692 138.779 338.73 138.779C337.887 138.779 337.126 139.066 336.447 139.641V138.492C337.135 138.055 337.928 137.836 338.826 137.836C340.471 137.836 341.294 138.706 341.294 140.447V145ZM340.173 141.459L338.484 141.691C337.965 141.764 337.573 141.894 337.309 142.081C337.044 142.263 336.912 142.589 336.912 143.059C336.912 143.4 337.033 143.681 337.274 143.899C337.521 144.114 337.846 144.221 338.252 144.221C338.808 144.221 339.266 144.027 339.626 143.64C339.991 143.248 340.173 142.753 340.173 142.156V141.459ZM348.396 143.988H348.369V148.22H347.248V138H348.369V139.23H348.396C348.948 138.301 349.755 137.836 350.816 137.836C351.719 137.836 352.423 138.15 352.929 138.779C353.435 139.404 353.688 140.242 353.688 141.295C353.688 142.466 353.403 143.405 352.833 144.111C352.263 144.813 351.484 145.164 350.495 145.164C349.588 145.164 348.889 144.772 348.396 143.988ZM348.369 141.165V142.143C348.369 142.721 348.556 143.214 348.93 143.619C349.308 144.02 349.786 144.221 350.365 144.221C351.044 144.221 351.575 143.961 351.958 143.441C352.345 142.922 352.539 142.2 352.539 141.274C352.539 140.495 352.359 139.884 351.999 139.442C351.639 139 351.151 138.779 350.536 138.779C349.884 138.779 349.36 139.007 348.964 139.463C348.567 139.914 348.369 140.481 348.369 141.165ZM361.104 141.78H356.162C356.18 142.56 356.39 143.161 356.791 143.585C357.192 144.009 357.743 144.221 358.445 144.221C359.234 144.221 359.958 143.961 360.619 143.441V144.494C360.004 144.941 359.19 145.164 358.179 145.164C357.19 145.164 356.413 144.847 355.848 144.214C355.283 143.576 355 142.68 355 141.527C355 140.438 355.308 139.552 355.923 138.868C356.543 138.18 357.311 137.836 358.227 137.836C359.143 137.836 359.851 138.132 360.353 138.725C360.854 139.317 361.104 140.14 361.104 141.192V141.78ZM359.956 140.83C359.951 140.183 359.794 139.679 359.484 139.319C359.179 138.959 358.753 138.779 358.206 138.779C357.677 138.779 357.229 138.968 356.859 139.347C356.49 139.725 356.262 140.219 356.176 140.83H359.956ZM366.457 139.135C366.261 138.984 365.979 138.909 365.609 138.909C365.131 138.909 364.73 139.135 364.406 139.586C364.087 140.037 363.928 140.652 363.928 141.432V145H362.807V138H363.928V139.442H363.955C364.115 138.95 364.358 138.567 364.687 138.294C365.015 138.016 365.382 137.877 365.787 137.877C366.079 137.877 366.302 137.909 366.457 137.973V139.135ZM367.346 144.747V143.544C367.893 143.995 368.499 144.221 369.164 144.221C370.053 144.221 370.497 143.893 370.497 143.236C370.497 142.963 370.399 142.737 370.203 142.56C370.007 142.382 369.624 142.17 369.055 141.924C368.385 141.628 367.934 141.325 367.701 141.015C367.473 140.7 367.359 140.315 367.359 139.859C367.359 139.276 367.59 138.793 368.05 138.41C368.51 138.027 369.103 137.836 369.827 137.836C370.383 137.836 370.882 137.941 371.324 138.15V139.285C370.864 138.948 370.335 138.779 369.738 138.779C369.365 138.779 369.066 138.87 368.843 139.053C368.619 139.235 368.508 139.472 368.508 139.764C368.508 140.046 368.588 140.274 368.747 140.447C368.911 140.62 369.276 140.826 369.841 141.062C370.529 141.354 371.001 141.66 371.256 141.979C371.516 142.298 371.646 142.68 371.646 143.127C371.646 143.724 371.415 144.214 370.955 144.597C370.495 144.975 369.87 145.164 369.082 145.164C368.417 145.164 367.838 145.025 367.346 144.747ZM376.273 145.164C375.239 145.164 374.412 144.838 373.792 144.187C373.177 143.53 372.869 142.662 372.869 141.582C372.869 140.406 373.19 139.488 373.833 138.827C374.476 138.166 375.344 137.836 376.438 137.836C377.481 137.836 378.295 138.157 378.878 138.8C379.466 139.442 379.76 140.333 379.76 141.473C379.76 142.589 379.443 143.485 378.81 144.159C378.181 144.829 377.335 145.164 376.273 145.164ZM376.355 138.779C375.635 138.779 375.066 139.025 374.646 139.518C374.227 140.005 374.018 140.68 374.018 141.541C374.018 142.37 374.229 143.024 374.653 143.503C375.077 143.981 375.645 144.221 376.355 144.221C377.08 144.221 377.636 143.986 378.023 143.517C378.415 143.047 378.611 142.38 378.611 141.514C378.611 140.639 378.415 139.964 378.023 139.49C377.636 139.016 377.08 138.779 376.355 138.779ZM387.361 145H386.24V141.008C386.24 139.522 385.698 138.779 384.613 138.779C384.053 138.779 383.588 138.991 383.219 139.415C382.854 139.834 382.672 140.365 382.672 141.008V145H381.551V138H382.672V139.162H382.699C383.228 138.278 383.993 137.836 384.996 137.836C385.762 137.836 386.347 138.084 386.753 138.581C387.159 139.073 387.361 139.786 387.361 140.721V145ZM396.248 145.164C395.214 145.164 394.386 144.838 393.767 144.187C393.151 143.53 392.844 142.662 392.844 141.582C392.844 140.406 393.165 139.488 393.808 138.827C394.45 138.166 395.318 137.836 396.412 137.836C397.456 137.836 398.269 138.157 398.853 138.8C399.44 139.442 399.734 140.333 399.734 141.473C399.734 142.589 399.418 143.485 398.784 144.159C398.155 144.829 397.31 145.164 396.248 145.164ZM396.33 138.779C395.61 138.779 395.04 139.025 394.621 139.518C394.202 140.005 393.992 140.68 393.992 141.541C393.992 142.37 394.204 143.024 394.628 143.503C395.052 143.981 395.619 144.221 396.33 144.221C397.055 144.221 397.611 143.986 397.998 143.517C398.39 143.047 398.586 142.38 398.586 141.514C398.586 140.639 398.39 139.964 397.998 139.49C397.611 139.016 397.055 138.779 396.33 138.779ZM405.176 139.135C404.98 138.984 404.697 138.909 404.328 138.909C403.85 138.909 403.449 139.135 403.125 139.586C402.806 140.037 402.646 140.652 402.646 141.432V145H401.525V138H402.646V139.442H402.674C402.833 138.95 403.077 138.567 403.405 138.294C403.733 138.016 404.1 137.877 404.506 137.877C404.798 137.877 405.021 137.909 405.176 137.973V139.135ZM415.245 145H414.124V143.906H414.097C413.609 144.745 412.891 145.164 411.943 145.164C411.246 145.164 410.699 144.979 410.303 144.61C409.911 144.241 409.715 143.751 409.715 143.141C409.715 141.833 410.485 141.072 412.025 140.857L414.124 140.563C414.124 139.374 413.643 138.779 412.682 138.779C411.839 138.779 411.077 139.066 410.398 139.641V138.492C411.087 138.055 411.88 137.836 412.777 137.836C414.423 137.836 415.245 138.706 415.245 140.447V145ZM414.124 141.459L412.436 141.691C411.916 141.764 411.524 141.894 411.26 142.081C410.995 142.263 410.863 142.589 410.863 143.059C410.863 143.4 410.984 143.681 411.226 143.899C411.472 144.114 411.798 144.221 412.203 144.221C412.759 144.221 413.217 144.027 413.577 143.64C413.942 143.248 414.124 142.753 414.124 142.156V141.459ZM423.168 145H422.047V141.008C422.047 139.522 421.505 138.779 420.42 138.779C419.859 138.779 419.395 138.991 419.025 139.415C418.661 139.834 418.479 140.365 418.479 141.008V145H417.357V138H418.479V139.162H418.506C419.035 138.278 419.8 137.836 420.803 137.836C421.568 137.836 422.154 138.084 422.56 138.581C422.965 139.073 423.168 139.786 423.168 140.721V145ZM434.755 141.78H429.812C429.831 142.56 430.04 143.161 430.441 143.585C430.842 144.009 431.394 144.221 432.096 144.221C432.884 144.221 433.609 143.961 434.27 143.441V144.494C433.654 144.941 432.841 145.164 431.829 145.164C430.84 145.164 430.063 144.847 429.498 144.214C428.933 143.576 428.65 142.68 428.65 141.527C428.65 140.438 428.958 139.552 429.573 138.868C430.193 138.18 430.961 137.836 431.877 137.836C432.793 137.836 433.502 138.132 434.003 138.725C434.504 139.317 434.755 140.14 434.755 141.192V141.78ZM433.606 140.83C433.602 140.183 433.445 139.679 433.135 139.319C432.829 138.959 432.403 138.779 431.856 138.779C431.328 138.779 430.879 138.968 430.51 139.347C430.141 139.725 429.913 140.219 429.826 140.83H433.606ZM441.57 138L439.219 141.541L441.529 145H440.224L438.85 142.73C438.763 142.589 438.66 142.411 438.542 142.197H438.515C438.492 142.238 438.385 142.416 438.193 142.73L436.792 145H435.5L437.886 141.568L435.603 138H436.908L438.262 140.393C438.362 140.57 438.46 140.753 438.556 140.939H438.583L440.333 138H441.57ZM443.457 136.223C443.257 136.223 443.086 136.154 442.944 136.018C442.803 135.881 442.732 135.708 442.732 135.498C442.732 135.288 442.803 135.115 442.944 134.979C443.086 134.837 443.257 134.767 443.457 134.767C443.662 134.767 443.835 134.837 443.977 134.979C444.122 135.115 444.195 135.288 444.195 135.498C444.195 135.699 444.122 135.869 443.977 136.011C443.835 136.152 443.662 136.223 443.457 136.223ZM444.004 145H442.883V138H444.004V145ZM445.85 144.747V143.544C446.396 143.995 447.003 144.221 447.668 144.221C448.557 144.221 449.001 143.893 449.001 143.236C449.001 142.963 448.903 142.737 448.707 142.56C448.511 142.382 448.128 142.17 447.559 141.924C446.889 141.628 446.438 141.325 446.205 141.015C445.977 140.7 445.863 140.315 445.863 139.859C445.863 139.276 446.093 138.793 446.554 138.41C447.014 138.027 447.606 137.836 448.331 137.836C448.887 137.836 449.386 137.941 449.828 138.15V139.285C449.368 138.948 448.839 138.779 448.242 138.779C447.868 138.779 447.57 138.87 447.347 139.053C447.123 139.235 447.012 139.472 447.012 139.764C447.012 140.046 447.091 140.274 447.251 140.447C447.415 140.62 447.78 140.826 448.345 141.062C449.033 141.354 449.505 141.66 449.76 141.979C450.02 142.298 450.149 142.68 450.149 143.127C450.149 143.724 449.919 144.214 449.459 144.597C448.999 144.975 448.374 145.164 447.586 145.164C446.921 145.164 446.342 145.025 445.85 144.747ZM455.099 144.932C454.834 145.077 454.486 145.15 454.053 145.15C452.827 145.15 452.214 144.467 452.214 143.1V138.957H451.011V138H452.214V136.291L453.335 135.929V138H455.099V138.957H453.335V142.901C453.335 143.371 453.415 143.706 453.574 143.906C453.734 144.107 453.998 144.207 454.367 144.207C454.65 144.207 454.894 144.13 455.099 143.975V144.932ZM457.17 136.223C456.969 136.223 456.799 136.154 456.657 136.018C456.516 135.881 456.445 135.708 456.445 135.498C456.445 135.288 456.516 135.115 456.657 134.979C456.799 134.837 456.969 134.767 457.17 134.767C457.375 134.767 457.548 134.837 457.689 134.979C457.835 135.115 457.908 135.288 457.908 135.498C457.908 135.699 457.835 135.869 457.689 136.011C457.548 136.152 457.375 136.223 457.17 136.223ZM457.717 145H456.596V138H457.717V145ZM465.797 145H464.676V141.008C464.676 139.522 464.133 138.779 463.049 138.779C462.488 138.779 462.023 138.991 461.654 139.415C461.29 139.834 461.107 140.365 461.107 141.008V145H459.986V138H461.107V139.162H461.135C461.663 138.278 462.429 137.836 463.432 137.836C464.197 137.836 464.783 138.084 465.188 138.581C465.594 139.073 465.797 139.786 465.797 140.721V145ZM473.891 144.439C473.891 147.01 472.66 148.295 470.199 148.295C469.333 148.295 468.577 148.131 467.93 147.803V146.682C468.718 147.119 469.47 147.338 470.186 147.338C471.908 147.338 472.77 146.422 472.77 144.59V143.824H472.742C472.209 144.717 471.407 145.164 470.336 145.164C469.465 145.164 468.764 144.854 468.23 144.234C467.702 143.61 467.438 142.774 467.438 141.726C467.438 140.536 467.722 139.59 468.292 138.889C468.866 138.187 469.65 137.836 470.644 137.836C471.587 137.836 472.286 138.214 472.742 138.971H472.77V138H473.891V144.439ZM472.77 141.835V140.803C472.77 140.247 472.58 139.771 472.202 139.374C471.828 138.978 471.361 138.779 470.801 138.779C470.108 138.779 469.566 139.032 469.174 139.538C468.782 140.039 468.586 140.743 468.586 141.65C468.586 142.43 468.773 143.054 469.146 143.523C469.525 143.988 470.024 144.221 470.644 144.221C471.272 144.221 471.783 143.997 472.175 143.551C472.571 143.104 472.77 142.532 472.77 141.835ZM479.578 144.747V143.544C480.125 143.995 480.731 144.221 481.396 144.221C482.285 144.221 482.729 143.893 482.729 143.236C482.729 142.963 482.632 142.737 482.436 142.56C482.24 142.382 481.857 142.17 481.287 141.924C480.617 141.628 480.166 141.325 479.934 141.015C479.706 140.7 479.592 140.315 479.592 139.859C479.592 139.276 479.822 138.793 480.282 138.41C480.743 138.027 481.335 137.836 482.06 137.836C482.616 137.836 483.115 137.941 483.557 138.15V139.285C483.096 138.948 482.568 138.779 481.971 138.779C481.597 138.779 481.299 138.87 481.075 139.053C480.852 139.235 480.74 139.472 480.74 139.764C480.74 140.046 480.82 140.274 480.979 140.447C481.144 140.62 481.508 140.826 482.073 141.062C482.761 141.354 483.233 141.66 483.488 141.979C483.748 142.298 483.878 142.68 483.878 143.127C483.878 143.724 483.648 144.214 483.188 144.597C482.727 144.975 482.103 145.164 481.314 145.164C480.649 145.164 480.07 145.025 479.578 144.747ZM486.729 143.988H486.701V148.22H485.58V138H486.701V139.23H486.729C487.28 138.301 488.087 137.836 489.148 137.836C490.051 137.836 490.755 138.15 491.261 138.779C491.767 139.404 492.02 140.242 492.02 141.295C492.02 142.466 491.735 143.405 491.165 144.111C490.595 144.813 489.816 145.164 488.827 145.164C487.92 145.164 487.221 144.772 486.729 143.988ZM486.701 141.165V142.143C486.701 142.721 486.888 143.214 487.262 143.619C487.64 144.02 488.118 144.221 488.697 144.221C489.376 144.221 489.907 143.961 490.29 143.441C490.677 142.922 490.871 142.2 490.871 141.274C490.871 140.495 490.691 139.884 490.331 139.442C489.971 139 489.483 138.779 488.868 138.779C488.216 138.779 487.692 139.007 487.296 139.463C486.899 139.914 486.701 140.481 486.701 141.165ZM498.63 145H497.509V143.906H497.481C496.994 144.745 496.276 145.164 495.328 145.164C494.631 145.164 494.084 144.979 493.688 144.61C493.296 144.241 493.1 143.751 493.1 143.141C493.1 141.833 493.87 141.072 495.41 140.857L497.509 140.563C497.509 139.374 497.028 138.779 496.066 138.779C495.223 138.779 494.462 139.066 493.783 139.641V138.492C494.471 138.055 495.264 137.836 496.162 137.836C497.807 137.836 498.63 138.706 498.63 140.447V145ZM497.509 141.459L495.82 141.691C495.301 141.764 494.909 141.894 494.645 142.081C494.38 142.263 494.248 142.589 494.248 143.059C494.248 143.4 494.369 143.681 494.61 143.899C494.856 144.114 495.182 144.221 495.588 144.221C496.144 144.221 496.602 144.027 496.962 143.64C497.326 143.248 497.509 142.753 497.509 142.156V141.459ZM505.514 144.679C504.976 145.002 504.338 145.164 503.6 145.164C502.602 145.164 501.795 144.84 501.18 144.193C500.569 143.542 500.264 142.699 500.264 141.664C500.264 140.511 500.594 139.586 501.255 138.889C501.916 138.187 502.798 137.836 503.9 137.836C504.516 137.836 505.058 137.95 505.527 138.178V139.326C505.008 138.962 504.452 138.779 503.859 138.779C503.144 138.779 502.556 139.037 502.096 139.552C501.64 140.062 501.412 140.734 501.412 141.568C501.412 142.389 501.626 143.036 502.055 143.51C502.488 143.984 503.066 144.221 503.791 144.221C504.402 144.221 504.976 144.018 505.514 143.612V144.679ZM512.835 141.78H507.893C507.911 142.56 508.12 143.161 508.521 143.585C508.923 144.009 509.474 144.221 510.176 144.221C510.964 144.221 511.689 143.961 512.35 143.441V144.494C511.734 144.941 510.921 145.164 509.909 145.164C508.92 145.164 508.143 144.847 507.578 144.214C507.013 143.576 506.73 142.68 506.73 141.527C506.73 140.438 507.038 139.552 507.653 138.868C508.273 138.18 509.041 137.836 509.957 137.836C510.873 137.836 511.582 138.132 512.083 138.725C512.584 139.317 512.835 140.14 512.835 141.192V141.78ZM511.687 140.83C511.682 140.183 511.525 139.679 511.215 139.319C510.91 138.959 510.483 138.779 509.937 138.779C509.408 138.779 508.959 138.968 508.59 139.347C508.221 139.725 507.993 140.219 507.906 140.83H511.687ZM514.927 145.15C514.717 145.15 514.537 145.075 514.387 144.925C514.241 144.774 514.168 144.594 514.168 144.385C514.168 144.175 514.241 143.995 514.387 143.845C514.537 143.69 514.717 143.612 514.927 143.612C515.141 143.612 515.323 143.69 515.474 143.845C515.624 143.995 515.699 144.175 515.699 144.385C515.699 144.594 515.624 144.774 515.474 144.925C515.323 145.075 515.141 145.15 514.927 145.15ZM527.936 135.197L524.702 141.377V145H523.554V141.404L520.402 135.197H521.708L523.902 139.627C523.93 139.682 524.009 139.882 524.142 140.229H524.162C524.208 140.074 524.294 139.873 524.422 139.627L526.719 135.197H527.936ZM530.848 145.164C529.813 145.164 528.986 144.838 528.366 144.187C527.751 143.53 527.443 142.662 527.443 141.582C527.443 140.406 527.765 139.488 528.407 138.827C529.05 138.166 529.918 137.836 531.012 137.836C532.055 137.836 532.869 138.157 533.452 138.8C534.04 139.442 534.334 140.333 534.334 141.473C534.334 142.589 534.017 143.485 533.384 144.159C532.755 144.829 531.91 145.164 530.848 145.164ZM530.93 138.779C530.21 138.779 529.64 139.025 529.221 139.518C528.801 140.005 528.592 140.68 528.592 141.541C528.592 142.37 528.804 143.024 529.228 143.503C529.651 143.981 530.219 144.221 530.93 144.221C531.654 144.221 532.21 143.986 532.598 143.517C532.99 143.047 533.186 142.38 533.186 141.514C533.186 140.639 532.99 139.964 532.598 139.49C532.21 139.016 531.654 138.779 530.93 138.779ZM541.785 145H540.664V143.893H540.637C540.172 144.74 539.452 145.164 538.477 145.164C536.809 145.164 535.975 144.171 535.975 142.184V138H537.089V142.006C537.089 143.482 537.654 144.221 538.784 144.221C539.331 144.221 539.78 144.02 540.131 143.619C540.486 143.214 540.664 142.685 540.664 142.033V138H541.785V145ZM552.668 144.679C552.13 145.002 551.492 145.164 550.754 145.164C549.756 145.164 548.949 144.84 548.334 144.193C547.723 143.542 547.418 142.699 547.418 141.664C547.418 140.511 547.748 139.586 548.409 138.889C549.07 138.187 549.952 137.836 551.055 137.836C551.67 137.836 552.212 137.95 552.682 138.178V139.326C552.162 138.962 551.606 138.779 551.014 138.779C550.298 138.779 549.71 139.037 549.25 139.552C548.794 140.062 548.566 140.734 548.566 141.568C548.566 142.389 548.781 143.036 549.209 143.51C549.642 143.984 550.221 144.221 550.945 144.221C551.556 144.221 552.13 144.018 552.668 143.612V144.679ZM559.374 145H558.253V143.906H558.226C557.738 144.745 557.02 145.164 556.072 145.164C555.375 145.164 554.828 144.979 554.432 144.61C554.04 144.241 553.844 143.751 553.844 143.141C553.844 141.833 554.614 141.072 556.154 140.857L558.253 140.563C558.253 139.374 557.772 138.779 556.811 138.779C555.967 138.779 555.206 139.066 554.527 139.641V138.492C555.215 138.055 556.008 137.836 556.906 137.836C558.551 137.836 559.374 138.706 559.374 140.447V145ZM558.253 141.459L556.564 141.691C556.045 141.764 555.653 141.894 555.389 142.081C555.124 142.263 554.992 142.589 554.992 143.059C554.992 143.4 555.113 143.681 555.354 143.899C555.601 144.114 555.926 144.221 556.332 144.221C556.888 144.221 557.346 144.027 557.706 143.64C558.071 143.248 558.253 142.753 558.253 142.156V141.459ZM567.297 145H566.176V141.008C566.176 139.522 565.633 138.779 564.549 138.779C563.988 138.779 563.523 138.991 563.154 139.415C562.79 139.834 562.607 140.365 562.607 141.008V145H561.486V138H562.607V139.162H562.635C563.163 138.278 563.929 137.836 564.932 137.836C565.697 137.836 566.283 138.084 566.688 138.581C567.094 139.073 567.297 139.786 567.297 140.721V145ZM578.269 145H577.147V143.906H577.12C576.632 144.745 575.915 145.164 574.967 145.164C574.27 145.164 573.723 144.979 573.326 144.61C572.934 144.241 572.738 143.751 572.738 143.141C572.738 141.833 573.508 141.072 575.049 140.857L577.147 140.563C577.147 139.374 576.667 138.779 575.705 138.779C574.862 138.779 574.101 139.066 573.422 139.641V138.492C574.11 138.055 574.903 137.836 575.801 137.836C577.446 137.836 578.269 138.706 578.269 140.447V145ZM577.147 141.459L575.459 141.691C574.939 141.764 574.548 141.894 574.283 142.081C574.019 142.263 573.887 142.589 573.887 143.059C573.887 143.4 574.007 143.681 574.249 143.899C574.495 144.114 574.821 144.221 575.227 144.221C575.783 144.221 576.241 144.027 576.601 143.64C576.965 143.248 577.147 142.753 577.147 142.156V141.459ZM581.502 145H580.381V134.637H581.502V145ZM583.348 144.747V143.544C583.895 143.995 584.501 144.221 585.166 144.221C586.055 144.221 586.499 143.893 586.499 143.236C586.499 142.963 586.401 142.737 586.205 142.56C586.009 142.382 585.626 142.17 585.057 141.924C584.387 141.628 583.936 141.325 583.703 141.015C583.475 140.7 583.361 140.315 583.361 139.859C583.361 139.276 583.591 138.793 584.052 138.41C584.512 138.027 585.104 137.836 585.829 137.836C586.385 137.836 586.884 137.941 587.326 138.15V139.285C586.866 138.948 586.337 138.779 585.74 138.779C585.367 138.779 585.068 138.87 584.845 139.053C584.621 139.235 584.51 139.472 584.51 139.764C584.51 140.046 584.59 140.274 584.749 140.447C584.913 140.62 585.278 140.826 585.843 141.062C586.531 141.354 587.003 141.66 587.258 141.979C587.518 142.298 587.647 142.68 587.647 143.127C587.647 143.724 587.417 144.214 586.957 144.597C586.497 144.975 585.872 145.164 585.084 145.164C584.419 145.164 583.84 145.025 583.348 144.747ZM592.275 145.164C591.241 145.164 590.414 144.838 589.794 144.187C589.179 143.53 588.871 142.662 588.871 141.582C588.871 140.406 589.192 139.488 589.835 138.827C590.478 138.166 591.346 137.836 592.439 137.836C593.483 137.836 594.297 138.157 594.88 138.8C595.468 139.442 595.762 140.333 595.762 141.473C595.762 142.589 595.445 143.485 594.812 144.159C594.183 144.829 593.337 145.164 592.275 145.164ZM592.357 138.779C591.637 138.779 591.068 139.025 590.648 139.518C590.229 140.005 590.02 140.68 590.02 141.541C590.02 142.37 590.231 143.024 590.655 143.503C591.079 143.981 591.646 144.221 592.357 144.221C593.082 144.221 593.638 143.986 594.025 143.517C594.417 143.047 594.613 142.38 594.613 141.514C594.613 140.639 594.417 139.964 594.025 139.49C593.638 139.016 593.082 138.779 592.357 138.779ZM597.942 139.367C597.733 139.367 597.553 139.292 597.402 139.142C597.257 138.991 597.184 138.811 597.184 138.602C597.184 138.392 597.257 138.214 597.402 138.068C597.553 137.923 597.733 137.85 597.942 137.85C598.157 137.85 598.339 137.923 598.489 138.068C598.64 138.214 598.715 138.392 598.715 138.602C598.715 138.811 598.64 138.991 598.489 139.142C598.339 139.292 598.157 139.367 597.942 139.367ZM597.942 145.15C597.733 145.15 597.553 145.075 597.402 144.925C597.257 144.774 597.184 144.594 597.184 144.385C597.184 144.175 597.257 143.995 597.402 143.845C597.553 143.69 597.733 143.612 597.942 143.612C598.157 143.612 598.339 143.69 598.489 143.845C598.64 143.995 598.715 144.175 598.715 144.385C598.715 144.594 598.64 144.774 598.489 144.925C598.339 145.075 598.157 145.15 597.942 145.15Z" fill="white" fill-opacity="0.95"/>
<path d="M271.957 166.59C271.232 166.973 270.33 167.164 269.25 167.164C267.855 167.164 266.739 166.715 265.9 165.817C265.062 164.92 264.643 163.742 264.643 162.283C264.643 160.715 265.114 159.449 266.058 158.482C267.001 157.516 268.197 157.033 269.646 157.033C270.576 157.033 271.346 157.168 271.957 157.437V158.66C271.255 158.268 270.48 158.072 269.633 158.072C268.507 158.072 267.593 158.448 266.892 159.2C266.194 159.952 265.846 160.957 265.846 162.215C265.846 163.409 266.172 164.361 266.823 165.072C267.479 165.779 268.339 166.132 269.4 166.132C270.385 166.132 271.237 165.913 271.957 165.476V166.59ZM277.453 161.135C277.257 160.984 276.975 160.909 276.605 160.909C276.127 160.909 275.726 161.135 275.402 161.586C275.083 162.037 274.924 162.652 274.924 163.432V167H273.803V160H274.924V161.442H274.951C275.111 160.95 275.354 160.567 275.683 160.294C276.011 160.016 276.378 159.877 276.783 159.877C277.075 159.877 277.298 159.909 277.453 159.973V161.135ZM284.104 163.78H279.162C279.18 164.56 279.39 165.161 279.791 165.585C280.192 166.009 280.743 166.221 281.445 166.221C282.234 166.221 282.958 165.961 283.619 165.441V166.494C283.004 166.941 282.19 167.164 281.179 167.164C280.19 167.164 279.413 166.847 278.848 166.214C278.283 165.576 278 164.68 278 163.527C278 162.438 278.308 161.552 278.923 160.868C279.543 160.18 280.311 159.836 281.227 159.836C282.143 159.836 282.851 160.132 283.353 160.725C283.854 161.317 284.104 162.14 284.104 163.192V163.78ZM282.956 162.83C282.951 162.183 282.794 161.679 282.484 161.319C282.179 160.959 281.753 160.779 281.206 160.779C280.677 160.779 280.229 160.968 279.859 161.347C279.49 161.725 279.262 162.219 279.176 162.83H282.956ZM290.817 167H289.696V165.906H289.669C289.181 166.745 288.464 167.164 287.516 167.164C286.818 167.164 286.271 166.979 285.875 166.61C285.483 166.241 285.287 165.751 285.287 165.141C285.287 163.833 286.057 163.072 287.598 162.857L289.696 162.563C289.696 161.374 289.215 160.779 288.254 160.779C287.411 160.779 286.65 161.066 285.971 161.641V160.492C286.659 160.055 287.452 159.836 288.35 159.836C289.995 159.836 290.817 160.706 290.817 162.447V167ZM289.696 163.459L288.008 163.691C287.488 163.764 287.096 163.894 286.832 164.081C286.568 164.263 286.436 164.589 286.436 165.059C286.436 165.4 286.556 165.681 286.798 165.899C287.044 166.114 287.37 166.221 287.775 166.221C288.331 166.221 288.789 166.027 289.149 165.64C289.514 165.248 289.696 164.753 289.696 164.156V163.459ZM296.177 166.932C295.912 167.077 295.564 167.15 295.131 167.15C293.905 167.15 293.292 166.467 293.292 165.1V160.957H292.089V160H293.292V158.291L294.413 157.929V160H296.177V160.957H294.413V164.901C294.413 165.371 294.493 165.706 294.652 165.906C294.812 166.107 295.076 166.207 295.445 166.207C295.728 166.207 295.972 166.13 296.177 165.975V166.932ZM303.19 163.78H298.248C298.266 164.56 298.476 165.161 298.877 165.585C299.278 166.009 299.829 166.221 300.531 166.221C301.32 166.221 302.044 165.961 302.705 165.441V166.494C302.09 166.941 301.276 167.164 300.265 167.164C299.276 167.164 298.499 166.847 297.934 166.214C297.368 165.576 297.086 164.68 297.086 163.527C297.086 162.438 297.394 161.552 298.009 160.868C298.629 160.18 299.396 159.836 300.312 159.836C301.229 159.836 301.937 160.132 302.438 160.725C302.94 161.317 303.19 162.14 303.19 163.192V163.78ZM302.042 162.83C302.037 162.183 301.88 161.679 301.57 161.319C301.265 160.959 300.839 160.779 300.292 160.779C299.763 160.779 299.314 160.968 298.945 161.347C298.576 161.725 298.348 162.219 298.262 162.83H302.042ZM313.745 167H312.624V165.906H312.597C312.109 166.745 311.391 167.164 310.443 167.164C309.746 167.164 309.199 166.979 308.803 166.61C308.411 166.241 308.215 165.751 308.215 165.141C308.215 163.833 308.985 163.072 310.525 162.857L312.624 162.563C312.624 161.374 312.143 160.779 311.182 160.779C310.339 160.779 309.577 161.066 308.898 161.641V160.492C309.587 160.055 310.38 159.836 311.277 159.836C312.923 159.836 313.745 160.706 313.745 162.447V167ZM312.624 163.459L310.936 163.691C310.416 163.764 310.024 163.894 309.76 164.081C309.495 164.263 309.363 164.589 309.363 165.059C309.363 165.4 309.484 165.681 309.726 165.899C309.972 166.114 310.298 166.221 310.703 166.221C311.259 166.221 311.717 166.027 312.077 165.64C312.442 165.248 312.624 164.753 312.624 164.156V163.459ZM319.275 166.747V165.544C319.822 165.995 320.428 166.221 321.094 166.221C321.982 166.221 322.427 165.893 322.427 165.236C322.427 164.963 322.329 164.737 322.133 164.56C321.937 164.382 321.554 164.17 320.984 163.924C320.314 163.628 319.863 163.325 319.631 163.015C319.403 162.7 319.289 162.315 319.289 161.859C319.289 161.276 319.519 160.793 319.979 160.41C320.44 160.027 321.032 159.836 321.757 159.836C322.313 159.836 322.812 159.941 323.254 160.15V161.285C322.794 160.948 322.265 160.779 321.668 160.779C321.294 160.779 320.996 160.87 320.772 161.053C320.549 161.235 320.438 161.472 320.438 161.764C320.438 162.046 320.517 162.274 320.677 162.447C320.841 162.62 321.205 162.826 321.771 163.062C322.459 163.354 322.93 163.66 323.186 163.979C323.445 164.298 323.575 164.68 323.575 165.127C323.575 165.724 323.345 166.214 322.885 166.597C322.424 166.975 321.8 167.164 321.012 167.164C320.346 167.164 319.768 167.025 319.275 166.747ZM326.426 165.988H326.398V170.22H325.277V160H326.398V161.23H326.426C326.977 160.301 327.784 159.836 328.846 159.836C329.748 159.836 330.452 160.15 330.958 160.779C331.464 161.404 331.717 162.242 331.717 163.295C331.717 164.466 331.432 165.405 330.862 166.111C330.293 166.813 329.513 167.164 328.524 167.164C327.618 167.164 326.918 166.772 326.426 165.988ZM326.398 163.165V164.143C326.398 164.721 326.585 165.214 326.959 165.619C327.337 166.02 327.816 166.221 328.395 166.221C329.074 166.221 329.604 165.961 329.987 165.441C330.375 164.922 330.568 164.2 330.568 163.274C330.568 162.495 330.388 161.884 330.028 161.442C329.668 161 329.181 160.779 328.565 160.779C327.914 160.779 327.39 161.007 326.993 161.463C326.597 161.914 326.398 162.481 326.398 163.165ZM338.327 167H337.206V165.906H337.179C336.691 166.745 335.973 167.164 335.025 167.164C334.328 167.164 333.781 166.979 333.385 166.61C332.993 166.241 332.797 165.751 332.797 165.141C332.797 163.833 333.567 163.072 335.107 162.857L337.206 162.563C337.206 161.374 336.725 160.779 335.764 160.779C334.921 160.779 334.16 161.066 333.48 161.641V160.492C334.169 160.055 334.962 159.836 335.859 159.836C337.505 159.836 338.327 160.706 338.327 162.447V167ZM337.206 163.459L335.518 163.691C334.998 163.764 334.606 163.894 334.342 164.081C334.077 164.263 333.945 164.589 333.945 165.059C333.945 165.4 334.066 165.681 334.308 165.899C334.554 166.114 334.88 166.221 335.285 166.221C335.841 166.221 336.299 166.027 336.659 165.64C337.024 165.248 337.206 164.753 337.206 164.156V163.459ZM345.211 166.679C344.673 167.002 344.035 167.164 343.297 167.164C342.299 167.164 341.492 166.84 340.877 166.193C340.266 165.542 339.961 164.699 339.961 163.664C339.961 162.511 340.291 161.586 340.952 160.889C341.613 160.187 342.495 159.836 343.598 159.836C344.213 159.836 344.755 159.95 345.225 160.178V161.326C344.705 160.962 344.149 160.779 343.557 160.779C342.841 160.779 342.253 161.037 341.793 161.552C341.337 162.062 341.109 162.734 341.109 163.568C341.109 164.389 341.324 165.036 341.752 165.51C342.185 165.984 342.764 166.221 343.488 166.221C344.099 166.221 344.673 166.018 345.211 165.612V166.679ZM352.532 163.78H347.59C347.608 164.56 347.818 165.161 348.219 165.585C348.62 166.009 349.171 166.221 349.873 166.221C350.661 166.221 351.386 165.961 352.047 165.441V166.494C351.432 166.941 350.618 167.164 349.606 167.164C348.618 167.164 347.84 166.847 347.275 166.214C346.71 165.576 346.428 164.68 346.428 163.527C346.428 162.438 346.735 161.552 347.351 160.868C347.97 160.18 348.738 159.836 349.654 159.836C350.57 159.836 351.279 160.132 351.78 160.725C352.282 161.317 352.532 162.14 352.532 163.192V163.78ZM351.384 162.83C351.379 162.183 351.222 161.679 350.912 161.319C350.607 160.959 350.181 160.779 349.634 160.779C349.105 160.779 348.656 160.968 348.287 161.347C347.918 161.725 347.69 162.219 347.604 162.83H351.384Z" fill="#64B4FA"/>
<path d="M264 168.62H353.093V169.434H264V168.62Z" fill="#64B4FA"/>
<path d="M276.073 105.359H269.269V110.831H275.54V113.383H269.269V121H266.247V102.795H276.073V105.359ZM284.757 121.305C282.751 121.305 281.147 120.7 279.945 119.489C278.752 118.271 278.155 116.658 278.155 114.652C278.155 112.469 278.777 110.763 280.021 109.536C281.274 108.309 282.958 107.695 285.074 107.695C287.105 107.695 288.688 108.292 289.822 109.485C290.956 110.679 291.523 112.333 291.523 114.449C291.523 116.523 290.91 118.186 289.683 119.438C288.464 120.683 286.822 121.305 284.757 121.305ZM284.896 110.044C283.745 110.044 282.836 110.446 282.167 111.25C281.498 112.054 281.164 113.163 281.164 114.576C281.164 115.939 281.503 117.014 282.18 117.801C282.857 118.579 283.762 118.969 284.896 118.969C286.056 118.969 286.945 118.584 287.562 117.813C288.189 117.043 288.502 115.947 288.502 114.525C288.502 113.095 288.189 111.991 287.562 111.212C286.945 110.433 286.056 110.044 284.896 110.044ZM302.073 110.806C301.718 110.526 301.206 110.387 300.537 110.387C299.665 110.387 298.938 110.78 298.354 111.567C297.77 112.354 297.478 113.425 297.478 114.779V121H294.532V108H297.478V110.679H297.528C297.816 109.765 298.256 109.054 298.849 108.546C299.45 108.03 300.118 107.771 300.854 107.771C301.388 107.771 301.794 107.852 302.073 108.013V110.806ZM322.627 108L318.793 121H315.708L313.347 112.189C313.254 111.851 313.194 111.47 313.169 111.047H313.118C313.101 111.335 313.025 111.707 312.89 112.164L310.325 121H307.304L303.482 108H306.529L308.891 117.369C308.967 117.648 309.018 118.021 309.043 118.486H309.132C309.157 118.131 309.225 117.75 309.335 117.344L311.963 108H314.73L317.066 117.407C317.143 117.703 317.198 118.076 317.231 118.524H317.32C317.337 118.211 317.401 117.839 317.511 117.407L319.821 108H322.627ZM334.802 121H331.945V118.969H331.895C330.997 120.526 329.681 121.305 327.946 121.305C326.668 121.305 325.665 120.958 324.938 120.264C324.218 119.57 323.858 118.651 323.858 117.509C323.858 115.054 325.272 113.624 328.099 113.218L331.958 112.672C331.958 110.818 331.078 109.892 329.317 109.892C327.769 109.892 326.372 110.425 325.128 111.491V108.914C326.499 108.102 328.082 107.695 329.876 107.695C333.16 107.695 334.802 109.312 334.802 112.545V121ZM331.958 114.614L329.229 114.995C328.382 115.105 327.743 115.312 327.312 115.617C326.888 115.913 326.677 116.438 326.677 117.191C326.677 117.742 326.871 118.194 327.261 118.55C327.659 118.897 328.188 119.07 328.848 119.07C329.745 119.07 330.485 118.757 331.069 118.131C331.662 117.496 331.958 116.701 331.958 115.744V114.614ZM345.948 110.806C345.593 110.526 345.081 110.387 344.412 110.387C343.54 110.387 342.812 110.78 342.229 111.567C341.645 112.354 341.353 113.425 341.353 114.779V121H338.407V108H341.353V110.679H341.403C341.691 109.765 342.131 109.054 342.724 108.546C343.325 108.03 343.993 107.771 344.729 107.771C345.263 107.771 345.669 107.852 345.948 108.013V110.806ZM359.621 121H356.676V118.791H356.625C355.677 120.467 354.217 121.305 352.245 121.305C350.646 121.305 349.363 120.725 348.398 119.565C347.442 118.397 346.964 116.811 346.964 114.805C346.964 112.655 347.493 110.933 348.551 109.638C349.617 108.343 351.035 107.695 352.804 107.695C354.556 107.695 355.829 108.398 356.625 109.803H356.676V101.754H359.621V121ZM356.714 115.059V113.357C356.714 112.435 356.413 111.652 355.812 111.009C355.212 110.366 354.446 110.044 353.515 110.044C352.414 110.044 351.547 110.454 350.912 111.275C350.286 112.096 349.973 113.235 349.973 114.69C349.973 116.011 350.273 117.056 350.874 117.826C351.483 118.588 352.3 118.969 353.324 118.969C354.331 118.969 355.148 118.601 355.774 117.864C356.401 117.119 356.714 116.184 356.714 115.059ZM377.483 120.86C376.908 121.148 376.15 121.292 375.211 121.292C372.689 121.292 371.428 120.082 371.428 117.661V110.311H369.257V108H371.428V104.991L374.373 104.153V108H377.483V110.311H374.373V116.811C374.373 117.581 374.513 118.131 374.792 118.461C375.071 118.791 375.537 118.956 376.188 118.956C376.688 118.956 377.119 118.812 377.483 118.524V120.86ZM391.575 121H388.63V113.891C388.63 111.318 387.771 110.031 386.053 110.031C385.189 110.031 384.462 110.404 383.869 111.148C383.277 111.893 382.98 112.845 382.98 114.005V121H380.022V101.754H382.98V110.158H383.031C384.013 108.516 385.418 107.695 387.246 107.695C390.132 107.695 391.575 109.46 391.575 112.989V121ZM406.162 115.3H397.301C397.335 116.502 397.703 117.428 398.405 118.08C399.116 118.732 400.09 119.058 401.325 119.058C402.713 119.058 403.987 118.643 405.146 117.813V120.188C403.962 120.932 402.396 121.305 400.449 121.305C398.536 121.305 397.034 120.716 395.942 119.54C394.859 118.355 394.317 116.692 394.317 114.551C394.317 112.528 394.914 110.882 396.107 109.612C397.309 108.334 398.799 107.695 400.576 107.695C402.354 107.695 403.729 108.267 404.702 109.409C405.675 110.552 406.162 112.139 406.162 114.17V115.3ZM403.318 113.218C403.31 112.16 403.06 111.339 402.569 110.755C402.078 110.162 401.401 109.866 400.538 109.866C399.692 109.866 398.972 110.175 398.38 110.793C397.796 111.411 397.436 112.219 397.301 113.218H403.318ZM435.564 121H432.619V113.916C432.619 112.553 432.424 111.567 432.035 110.958C431.654 110.349 431.007 110.044 430.093 110.044C429.323 110.044 428.667 110.429 428.125 111.199C427.592 111.969 427.325 112.892 427.325 113.967V121H424.367V113.675C424.367 111.254 423.512 110.044 421.803 110.044C421.007 110.044 420.351 110.408 419.835 111.136C419.327 111.864 419.073 112.807 419.073 113.967V121H416.128V108H419.073V110.057H419.124C420.063 108.482 421.43 107.695 423.225 107.695C424.122 107.695 424.905 107.945 425.573 108.444C426.25 108.935 426.712 109.583 426.957 110.387C427.922 108.592 429.361 107.695 431.273 107.695C434.134 107.695 435.564 109.46 435.564 112.989V121ZM450.164 115.3H441.303C441.337 116.502 441.705 117.428 442.407 118.08C443.118 118.732 444.091 119.058 445.327 119.058C446.715 119.058 447.989 118.643 449.148 117.813V120.188C447.964 120.932 446.398 121.305 444.451 121.305C442.538 121.305 441.036 120.716 439.944 119.54C438.861 118.355 438.319 116.692 438.319 114.551C438.319 112.528 438.916 110.882 440.109 109.612C441.311 108.334 442.801 107.695 444.578 107.695C446.355 107.695 447.731 108.267 448.704 109.409C449.677 110.552 450.164 112.139 450.164 114.17V115.3ZM447.32 113.218C447.312 112.16 447.062 111.339 446.571 110.755C446.08 110.162 445.403 109.866 444.54 109.866C443.694 109.866 442.974 110.175 442.382 110.793C441.798 111.411 441.438 112.219 441.303 113.218H447.32ZM463.977 115.3H455.115C455.149 116.502 455.517 117.428 456.22 118.08C456.931 118.732 457.904 119.058 459.14 119.058C460.528 119.058 461.801 118.643 462.961 117.813V120.188C461.776 120.932 460.21 121.305 458.264 121.305C456.351 121.305 454.849 120.716 453.757 119.54C452.674 118.355 452.132 116.692 452.132 114.551C452.132 112.528 452.729 110.882 453.922 109.612C455.124 108.334 456.613 107.695 458.391 107.695C460.168 107.695 461.543 108.267 462.517 109.409C463.49 110.552 463.977 112.139 463.977 114.17V115.3ZM461.133 113.218C461.124 112.16 460.875 111.339 460.384 110.755C459.893 110.162 459.216 109.866 458.353 109.866C457.506 109.866 456.787 110.175 456.194 110.793C455.61 111.411 455.251 112.219 455.115 113.218H461.133ZM473.638 120.86C473.062 121.148 472.305 121.292 471.365 121.292C468.843 121.292 467.582 120.082 467.582 117.661V110.311H465.411V108H467.582V104.991L470.527 104.153V108H473.638V110.311H470.527V116.811C470.527 117.581 470.667 118.131 470.946 118.461C471.226 118.791 471.691 118.956 472.343 118.956C472.842 118.956 473.274 118.812 473.638 118.524V120.86ZM477.662 105.271C477.18 105.271 476.765 105.114 476.418 104.801C476.079 104.488 475.91 104.09 475.91 103.607C475.91 103.125 476.079 102.723 476.418 102.401C476.765 102.08 477.18 101.919 477.662 101.919C478.161 101.919 478.585 102.08 478.932 102.401C479.279 102.723 479.452 103.125 479.452 103.607C479.452 104.064 479.279 104.458 478.932 104.788C478.585 105.11 478.161 105.271 477.662 105.271ZM479.122 121H476.177V108H479.122V121ZM494.56 121H491.614V113.675C491.614 111.246 490.755 110.031 489.037 110.031C488.14 110.031 487.399 110.37 486.815 111.047C486.231 111.715 485.939 112.562 485.939 113.586V121H482.981V108H485.939V110.158H485.99C486.964 108.516 488.368 107.695 490.205 107.695C491.618 107.695 492.698 108.157 493.442 109.079C494.187 109.993 494.56 111.318 494.56 113.053V121ZM509.997 119.959C509.997 124.732 507.598 127.119 502.799 127.119C501.106 127.119 499.629 126.836 498.368 126.269V123.577C499.79 124.39 501.14 124.796 502.418 124.796C505.507 124.796 507.052 123.277 507.052 120.238V118.816H507.001C506.028 120.475 504.563 121.305 502.608 121.305C501.026 121.305 499.748 120.729 498.774 119.578C497.81 118.419 497.327 116.866 497.327 114.919C497.327 112.71 497.848 110.954 498.889 109.65C499.93 108.347 501.36 107.695 503.18 107.695C504.898 107.695 506.172 108.398 507.001 109.803H507.052V108H509.997V119.959ZM507.077 115.046V113.357C507.077 112.443 506.772 111.665 506.163 111.021C505.562 110.37 504.809 110.044 503.903 110.044C502.786 110.044 501.91 110.459 501.275 111.288C500.649 112.109 500.336 113.26 500.336 114.741C500.336 116.019 500.636 117.043 501.237 117.813C501.847 118.575 502.651 118.956 503.649 118.956C504.665 118.956 505.49 118.592 506.125 117.864C506.76 117.128 507.077 116.188 507.077 115.046ZM532.569 121H529.624V113.675C529.624 111.246 528.765 110.031 527.047 110.031C526.15 110.031 525.409 110.37 524.825 111.047C524.241 111.715 523.949 112.562 523.949 113.586V121H520.991V108H523.949V110.158H524C524.973 108.516 526.378 107.695 528.215 107.695C529.628 107.695 530.707 108.157 531.452 109.079C532.197 109.993 532.569 111.318 532.569 113.053V121ZM541.938 121.305C539.933 121.305 538.329 120.7 537.127 119.489C535.934 118.271 535.337 116.658 535.337 114.652C535.337 112.469 535.959 110.763 537.203 109.536C538.456 108.309 540.14 107.695 542.256 107.695C544.287 107.695 545.87 108.292 547.004 109.485C548.138 110.679 548.705 112.333 548.705 114.449C548.705 116.523 548.091 118.186 546.864 119.438C545.646 120.683 544.004 121.305 541.938 121.305ZM542.078 110.044C540.927 110.044 540.017 110.446 539.349 111.25C538.68 112.054 538.346 113.163 538.346 114.576C538.346 115.939 538.684 117.014 539.361 117.801C540.038 118.579 540.944 118.969 542.078 118.969C543.238 118.969 544.126 118.584 544.744 117.813C545.37 117.043 545.684 115.947 545.684 114.525C545.684 113.095 545.37 111.991 544.744 111.212C544.126 110.433 543.238 110.044 542.078 110.044ZM558.569 120.86C557.994 121.148 557.236 121.292 556.297 121.292C553.775 121.292 552.514 120.082 552.514 117.661V110.311H550.343V108H552.514V104.991L555.459 104.153V108H558.569V110.311H555.459V116.811C555.459 117.581 555.599 118.131 555.878 118.461C556.157 118.791 556.623 118.956 557.274 118.956C557.774 118.956 558.205 118.812 558.569 118.524V120.86ZM571.963 115.3H563.102C563.135 116.502 563.504 117.428 564.206 118.08C564.917 118.732 565.89 119.058 567.126 119.058C568.514 119.058 569.788 118.643 570.947 117.813V120.188C569.762 120.932 568.197 121.305 566.25 121.305C564.337 121.305 562.835 120.716 561.743 119.54C560.66 118.355 560.118 116.692 560.118 114.551C560.118 112.528 560.715 110.882 561.908 109.612C563.11 108.334 564.6 107.695 566.377 107.695C568.154 107.695 569.53 108.267 570.503 109.409C571.476 110.552 571.963 112.139 571.963 114.17V115.3ZM569.119 113.218C569.111 112.16 568.861 111.339 568.37 110.755C567.879 110.162 567.202 109.866 566.339 109.866C565.493 109.866 564.773 110.175 564.181 110.793C563.597 111.411 563.237 112.219 563.102 113.218H569.119ZM573.956 120.594V117.864C575.056 118.702 576.271 119.121 577.6 119.121C579.377 119.121 580.266 118.596 580.266 117.547C580.266 117.251 580.189 117.001 580.037 116.798C579.885 116.586 579.677 116.4 579.415 116.239C579.161 116.078 578.856 115.935 578.501 115.808C578.154 115.681 577.765 115.537 577.333 115.376C576.8 115.164 576.317 114.94 575.886 114.703C575.463 114.466 575.107 114.2 574.819 113.903C574.54 113.599 574.328 113.256 574.185 112.875C574.041 112.494 573.969 112.05 573.969 111.542C573.969 110.916 574.117 110.366 574.413 109.892C574.709 109.409 575.107 109.007 575.606 108.686C576.106 108.355 576.673 108.11 577.308 107.949C577.942 107.78 578.598 107.695 579.275 107.695C580.477 107.695 581.552 107.877 582.5 108.241V110.818C581.586 110.192 580.536 109.879 579.352 109.879C578.979 109.879 578.641 109.917 578.336 109.993C578.04 110.069 577.786 110.175 577.574 110.311C577.363 110.446 577.198 110.611 577.079 110.806C576.961 110.992 576.901 111.199 576.901 111.428C576.901 111.707 576.961 111.944 577.079 112.139C577.198 112.333 577.371 112.507 577.6 112.659C577.837 112.803 578.116 112.938 578.438 113.065C578.768 113.184 579.144 113.315 579.567 113.459C580.126 113.688 580.625 113.92 581.065 114.157C581.514 114.394 581.895 114.665 582.208 114.97C582.521 115.266 582.762 115.613 582.932 116.011C583.101 116.4 583.186 116.866 583.186 117.407C583.186 118.067 583.033 118.643 582.729 119.134C582.424 119.625 582.018 120.031 581.51 120.353C581.002 120.674 580.414 120.911 579.745 121.063C579.085 121.224 578.387 121.305 577.65 121.305C576.229 121.305 574.997 121.068 573.956 120.594Z" fill="white" fill-opacity="0.95"/>
<path d="M35.1714 128.374H51.9714C54.9714 131.374 58.5714 132.574 62.7714 132.574H83.1714C83.8314 132.574 84.3714 132.034 84.3714 131.374C84.3714 128.074 81.6714 125.374 78.3714 125.374H73.1514C71.8914 125.374 70.6314 124.894 69.7314 123.994L67.0314 121.294C65.8914 120.154 65.5914 118.414 66.3114 116.974M63.3714 100.774C66.0114 98.1339 70.3314 98.1339 72.9714 100.774L92.5314 120.334C93.0114 120.814 93.0114 121.534 92.5314 122.014C90.3714 124.174 86.8314 124.174 84.6114 122.014L57.9714 95.3739C56.9514 94.3539 55.3914 94.3539 54.3714 95.3739C53.3514 96.3939 53.3514 97.9539 54.3714 98.9739L77.1714 121.774M35.1714 110.974H47.2314C51.0714 110.974 54.7314 109.474 57.4314 106.774L59.8314 104.374M87.9714 132.574L91.7514 136.354C91.9914 136.594 92.3514 136.834 92.7114 136.954L97.5714 138.574M97.5714 138.574L95.9514 133.714C95.8314 133.354 95.6514 133.054 95.3514 132.754L90.3714 127.774M97.5714 138.574C102.971 131.974 113.351 126.574 123.971 126.574C142.511 126.574 157.571 141.634 157.571 160.174C157.571 176.974 146.771 188.974 133.571 188.974C121.571 188.974 111.971 179.314 111.971 167.374C111.971 159.394 117.371 152.974 123.971 152.974C130.571 152.974 135.971 159.394 135.971 167.374C135.971 183.634 113.531 198.214 106.691 202.234C106.151 202.534 106.391 203.374 106.991 203.374H135.791C138.371 203.374 140.591 205.294 140.771 207.874C140.951 210.694 138.731 212.974 135.971 212.974H119.351C116.771 212.974 114.551 214.894 114.371 217.474C114.191 220.294 116.411 222.574 119.171 222.574H145.571M207.971 212.374H191.171C188.171 215.374 184.571 216.574 180.371 216.574H159.971C159.311 216.574 158.771 216.034 158.771 215.374C158.771 212.074 161.471 209.374 164.771 209.374H169.991C171.251 209.374 172.511 208.894 173.411 207.994L176.111 205.294C177.251 204.154 177.551 202.414 176.831 200.974M179.771 184.774C177.131 182.134 172.811 182.134 170.171 184.774L150.611 204.334C150.131 204.814 150.131 205.534 150.611 206.014C152.771 208.174 156.311 208.174 158.531 206.014L185.171 179.374C186.191 178.354 187.751 178.354 188.771 179.374C189.791 180.394 189.791 181.954 188.771 182.974L165.971 205.774M207.971 194.974H195.911C192.071 194.974 188.411 193.474 185.711 190.774L183.311 188.374M155.171 216.574L151.391 220.354C151.151 220.594 150.791 220.834 150.431 220.954L145.571 222.574M145.571 222.574L147.191 217.714C147.311 217.354 147.491 217.054 147.791 216.754L152.771 211.774" stroke="url(#paint0_linear_3848_3489)" stroke-width="1.5" stroke-miterlimit="10" stroke-linecap="round" stroke-linejoin="round"/>
<defs>
<linearGradient id="paint0_linear_3848_3489" x1="121.571" y1="94.6089" x2="121.571" y2="222.574" gradientUnits="userSpaceOnUse">
<stop stop-color="#279BE8"/>
<stop offset="1" stop-color="#875AE0"/>
</linearGradient>
</defs>
</svg>
