<svg width="174" height="57" viewBox="0 0 174 57" fill="none" xmlns="http://www.w3.org/2000/svg">
<path d="M68.3844 5.27949e-05C67.526 -0.00498771 66.6751 0.157418 65.881 0.477861C65.0869 0.798305 64.3654 1.27042 63.7583 1.86685C63.1511 2.46328 62.6705 3.17217 62.3441 3.95246C62.0178 4.73275 61.8522 5.56893 61.857 6.41255C61.8515 7.25637 62.0166 8.09287 62.3425 8.87355C62.6684 9.65423 63.1488 10.3636 63.7557 10.9605C64.3626 11.5574 65.084 12.03 65.8782 12.3509C66.6723 12.6717 67.5234 12.8345 68.382 12.8298C72.0191 12.8298 74.9094 9.98693 74.9094 6.41493C74.9094 2.84293 72.0167 5.27949e-05 68.3844 5.27949e-05ZM44.9476 55.8339H54.3653V1.8953H44.95V55.8339H44.9476ZM113.032 22.0139C111.355 20.1865 109.308 18.7236 107.022 17.7191C104.736 16.7147 102.262 16.1907 99.7576 16.1809C90.2625 16.1809 80.6224 23.3986 80.6224 36.5917C80.62 49.6376 90.2625 57.0001 99.7576 57.0001C102.269 56.9927 104.75 56.4628 107.038 55.4451C109.326 54.4275 111.369 52.9452 113.032 51.0958V55.8339H122.452V1.8953H113.032V22.0116V22.0139ZM9.79233 28.7922C9.79233 26.0942 13.0548 24.1277 18.2458 24.1277C23.809 24.1277 27.0715 27.4788 27.0715 30.7587H36.4917C36.4917 22.1588 28.9275 16.1809 18.2458 16.1809C7.63908 16.1809 0.222333 21.9403 0.222333 28.7922C0.222333 44.3912 27.4412 38.0476 27.4412 44.4624C27.4412 46.9419 24.0313 49.0557 18.9877 49.0557C13.4995 49.0557 9.41775 46.284 9.41775 42.9329H0C0 51.5328 8.30608 57.0001 18.9877 57.0001C29.5921 57.0001 37.381 51.6064 37.381 44.4624C37.381 29.3028 9.78992 35.5704 9.78992 28.7922H9.79233ZM151.675 16.1809C139.14 16.1809 129.944 24.5647 129.944 36.5917C129.944 47.8159 139.14 57.0001 151.675 57.0001C164.21 57.0001 173.333 47.8159 173.333 36.5917C173.333 24.5647 164.21 16.1809 151.675 16.1809ZM63.6357 55.8363H73.0558V17.2758H63.6357V55.8339V55.8363ZM151.675 48.5451C144.853 48.5451 139.512 43.6644 139.512 36.5941C139.512 29.3028 144.853 24.5671 151.675 24.5671C158.35 24.5671 163.765 29.3764 163.765 36.5941C163.765 43.6644 158.352 48.5474 151.675 48.5474V48.5451ZM101.536 48.4738C95.5284 48.4738 90.0402 43.9542 90.0402 36.5941C90.0402 29.0843 95.5284 24.6383 101.536 24.6383C107.472 24.6383 113.032 29.1579 113.032 36.5941C113.032 43.9566 107.472 48.4738 101.536 48.4738Z" fill="#39AC37"/>
</svg>
