<svg width="460" height="282" viewBox="0 0 460 282" fill="none" xmlns="http://www.w3.org/2000/svg">
<rect width="460" height="230" rx="8" fill="#1A1A1A"/>
<path d="M126.678 88H118.816V73.9961H126.365V75.9688H121.141V79.9336H125.955V81.8965H121.141V86.0371H126.678V88ZM137.82 88H135.555V82.3652C135.555 80.4967 134.894 79.5625 133.572 79.5625C132.882 79.5625 132.312 79.8229 131.863 80.3438C131.414 80.8581 131.189 81.5091 131.189 82.2969V88H128.914V78H131.189V79.6602H131.229C131.977 78.3971 133.058 77.7656 134.471 77.7656C135.558 77.7656 136.388 78.1204 136.961 78.8301C137.534 79.5332 137.82 80.5521 137.82 81.8867V88ZM149.695 87.1992C149.695 90.8711 147.85 92.707 144.158 92.707C142.856 92.707 141.72 92.4889 140.75 92.0527V89.9824C141.844 90.6074 142.882 90.9199 143.865 90.9199C146.242 90.9199 147.43 89.7513 147.43 87.4141V86.3203H147.391C146.642 87.5964 145.516 88.2344 144.012 88.2344C142.794 88.2344 141.811 87.7917 141.062 86.9062C140.32 86.0143 139.949 84.8197 139.949 83.3223C139.949 81.623 140.35 80.2721 141.15 79.2695C141.951 78.2669 143.051 77.7656 144.451 77.7656C145.773 77.7656 146.753 78.306 147.391 79.3867H147.43V78H149.695V87.1992ZM147.449 83.4199V82.1211C147.449 81.418 147.215 80.819 146.746 80.3242C146.284 79.8229 145.704 79.5723 145.008 79.5723C144.148 79.5723 143.475 79.8913 142.986 80.5293C142.505 81.1608 142.264 82.0462 142.264 83.1855C142.264 84.1686 142.495 84.9564 142.957 85.5488C143.426 86.1348 144.044 86.4277 144.812 86.4277C145.594 86.4277 146.229 86.1478 146.717 85.5879C147.205 85.0215 147.449 84.2988 147.449 83.4199ZM154.92 88H152.645V73.1953H154.92V88ZM159.021 75.9004C158.65 75.9004 158.331 75.7799 158.064 75.5391C157.804 75.2982 157.674 74.9922 157.674 74.6211C157.674 74.25 157.804 73.9408 158.064 73.6934C158.331 73.446 158.65 73.3223 159.021 73.3223C159.406 73.3223 159.731 73.446 159.998 73.6934C160.265 73.9408 160.398 74.25 160.398 74.6211C160.398 74.9727 160.265 75.2754 159.998 75.5293C159.731 75.7767 159.406 75.9004 159.021 75.9004ZM160.145 88H157.879V78H160.145V88ZM162.488 87.6875V85.5879C163.335 86.2324 164.269 86.5547 165.291 86.5547C166.658 86.5547 167.342 86.151 167.342 85.3438C167.342 85.1159 167.283 84.9238 167.166 84.7676C167.049 84.6048 166.889 84.4616 166.688 84.3379C166.492 84.2142 166.258 84.1035 165.984 84.0059C165.717 83.9082 165.418 83.7975 165.086 83.6738C164.676 83.5111 164.305 83.3385 163.973 83.1562C163.647 82.974 163.374 82.7689 163.152 82.541C162.938 82.3066 162.775 82.043 162.664 81.75C162.553 81.457 162.498 81.1152 162.498 80.7246C162.498 80.2428 162.612 79.8197 162.84 79.4551C163.068 79.084 163.374 78.7747 163.758 78.5273C164.142 78.2734 164.578 78.0846 165.066 77.9609C165.555 77.8307 166.059 77.7656 166.58 77.7656C167.505 77.7656 168.331 77.9056 169.061 78.1855V80.168C168.357 79.6862 167.55 79.4453 166.639 79.4453C166.352 79.4453 166.092 79.4746 165.857 79.5332C165.63 79.5918 165.434 79.6732 165.271 79.7773C165.109 79.8815 164.982 80.0085 164.891 80.1582C164.799 80.3014 164.754 80.4609 164.754 80.6367C164.754 80.8516 164.799 81.0339 164.891 81.1836C164.982 81.3333 165.115 81.4668 165.291 81.584C165.473 81.6947 165.688 81.7988 165.936 81.8965C166.189 81.9876 166.479 82.0885 166.805 82.1992C167.234 82.375 167.618 82.554 167.957 82.7363C168.302 82.9186 168.595 83.127 168.836 83.3613C169.077 83.5892 169.262 83.8561 169.393 84.1621C169.523 84.4616 169.588 84.8197 169.588 85.2363C169.588 85.7441 169.471 86.1868 169.236 86.5645C169.002 86.9421 168.689 87.2546 168.299 87.502C167.908 87.7493 167.456 87.9316 166.941 88.0488C166.434 88.1725 165.896 88.2344 165.33 88.2344C164.236 88.2344 163.289 88.0521 162.488 87.6875ZM180.633 88H178.367V82.5312C178.367 80.5521 177.706 79.5625 176.385 79.5625C175.721 79.5625 175.161 79.849 174.705 80.4219C174.249 80.9948 174.021 81.7272 174.021 82.6191V88H171.746V73.1953H174.021V79.6602H174.061C174.816 78.3971 175.896 77.7656 177.303 77.7656C179.523 77.7656 180.633 79.123 180.633 81.8379V88Z" fill="white" fill-opacity="0.95"/>
<path d="M289.564 87.4141C288.51 87.9609 287.198 88.2344 285.629 88.2344C283.598 88.2344 281.97 87.5931 280.746 86.3105C279.522 85.028 278.91 83.3451 278.91 81.2617C278.91 79.0221 279.597 77.2122 280.971 75.832C282.351 74.4518 284.092 73.7617 286.195 73.7617C287.549 73.7617 288.673 73.9538 289.564 74.3379V76.6426C288.62 76.0827 287.579 75.8027 286.439 75.8027C284.923 75.8027 283.692 76.2878 282.748 77.2578C281.811 78.2279 281.342 79.5234 281.342 81.1445C281.342 82.6875 281.781 83.918 282.66 84.8359C283.539 85.7474 284.695 86.2031 286.127 86.2031C287.449 86.2031 288.594 85.8906 289.564 85.2656V87.4141ZM300.854 88H298.588V82.5312C298.588 80.5521 297.927 79.5625 296.605 79.5625C295.941 79.5625 295.382 79.849 294.926 80.4219C294.47 80.9948 294.242 81.7272 294.242 82.6191V88H291.967V73.1953H294.242V79.6602H294.281C295.036 78.3971 296.117 77.7656 297.523 77.7656C299.743 77.7656 300.854 79.123 300.854 81.8379V88ZM304.75 75.9004C304.379 75.9004 304.06 75.7799 303.793 75.5391C303.533 75.2982 303.402 74.9922 303.402 74.6211C303.402 74.25 303.533 73.9408 303.793 73.6934C304.06 73.446 304.379 73.3223 304.75 73.3223C305.134 73.3223 305.46 73.446 305.727 73.6934C305.993 73.9408 306.127 74.25 306.127 74.6211C306.127 74.9727 305.993 75.2754 305.727 75.5293C305.46 75.7767 305.134 75.9004 304.75 75.9004ZM305.873 88H303.607V78H305.873V88ZM317.748 88H315.482V82.3652C315.482 80.4967 314.822 79.5625 313.5 79.5625C312.81 79.5625 312.24 79.8229 311.791 80.3438C311.342 80.8581 311.117 81.5091 311.117 82.2969V88H308.842V78H311.117V79.6602H311.156C311.905 78.3971 312.986 77.7656 314.398 77.7656C315.486 77.7656 316.316 78.1204 316.889 78.8301C317.462 79.5332 317.748 80.5521 317.748 81.8867V88ZM328.988 83.6152H322.172C322.198 84.5397 322.481 85.2526 323.021 85.7539C323.568 86.2552 324.317 86.5059 325.268 86.5059C326.335 86.5059 327.315 86.1868 328.207 85.5488V87.375C327.296 87.9479 326.091 88.2344 324.594 88.2344C323.122 88.2344 321.967 87.7819 321.127 86.877C320.294 85.9655 319.877 84.6862 319.877 83.0391C319.877 81.4831 320.336 80.2168 321.254 79.2402C322.178 78.2572 323.324 77.7656 324.691 77.7656C326.059 77.7656 327.117 78.2051 327.865 79.084C328.614 79.9629 328.988 81.1836 328.988 82.7461V83.6152ZM326.801 82.0137C326.794 81.1999 326.602 80.5684 326.225 80.1191C325.847 79.6634 325.326 79.4355 324.662 79.4355C324.011 79.4355 323.458 79.6732 323.002 80.1484C322.553 80.6237 322.276 81.2454 322.172 82.0137H326.801ZM330.521 87.6875V85.5879C331.368 86.2324 332.302 86.5547 333.324 86.5547C334.691 86.5547 335.375 86.151 335.375 85.3438C335.375 85.1159 335.316 84.9238 335.199 84.7676C335.082 84.6048 334.923 84.4616 334.721 84.3379C334.525 84.2142 334.291 84.1035 334.018 84.0059C333.751 83.9082 333.451 83.7975 333.119 83.6738C332.709 83.5111 332.338 83.3385 332.006 83.1562C331.68 82.974 331.407 82.7689 331.186 82.541C330.971 82.3066 330.808 82.043 330.697 81.75C330.587 81.457 330.531 81.1152 330.531 80.7246C330.531 80.2428 330.645 79.8197 330.873 79.4551C331.101 79.084 331.407 78.7747 331.791 78.5273C332.175 78.2734 332.611 78.0846 333.1 77.9609C333.588 77.8307 334.092 77.7656 334.613 77.7656C335.538 77.7656 336.365 77.9056 337.094 78.1855V80.168C336.391 79.6862 335.583 79.4453 334.672 79.4453C334.385 79.4453 334.125 79.4746 333.891 79.5332C333.663 79.5918 333.467 79.6732 333.305 79.7773C333.142 79.8815 333.015 80.0085 332.924 80.1582C332.833 80.3014 332.787 80.4609 332.787 80.6367C332.787 80.8516 332.833 81.0339 332.924 81.1836C333.015 81.3333 333.148 81.4668 333.324 81.584C333.507 81.6947 333.721 81.7988 333.969 81.8965C334.223 81.9876 334.512 82.0885 334.838 82.1992C335.268 82.375 335.652 82.554 335.99 82.7363C336.335 82.9186 336.628 83.127 336.869 83.3613C337.11 83.5892 337.296 83.8561 337.426 84.1621C337.556 84.4616 337.621 84.8197 337.621 85.2363C337.621 85.7441 337.504 86.1868 337.27 86.5645C337.035 86.9421 336.723 87.2546 336.332 87.502C335.941 87.7493 335.489 87.9316 334.975 88.0488C334.467 88.1725 333.93 88.2344 333.363 88.2344C332.27 88.2344 331.322 88.0521 330.521 87.6875ZM348.246 83.6152H341.43C341.456 84.5397 341.739 85.2526 342.279 85.7539C342.826 86.2552 343.575 86.5059 344.525 86.5059C345.593 86.5059 346.573 86.1868 347.465 85.5488V87.375C346.553 87.9479 345.349 88.2344 343.852 88.2344C342.38 88.2344 341.225 87.7819 340.385 86.877C339.551 85.9655 339.135 84.6862 339.135 83.0391C339.135 81.4831 339.594 80.2168 340.512 79.2402C341.436 78.2572 342.582 77.7656 343.949 77.7656C345.316 77.7656 346.374 78.2051 347.123 79.084C347.872 79.9629 348.246 81.1836 348.246 82.7461V83.6152ZM346.059 82.0137C346.052 81.1999 345.86 80.5684 345.482 80.1191C345.105 79.6634 344.584 79.4355 343.92 79.4355C343.269 79.4355 342.715 79.6732 342.26 80.1484C341.811 80.6237 341.534 81.2454 341.43 82.0137H346.059Z" fill="white" fill-opacity="0.95"/>
<path d="M36 207.5H34.5V206C34.5 205.867 34.4473 205.74 34.3536 205.646C34.2598 205.552 34.1326 205.5 34 205.5C33.8674 205.5 33.7402 205.552 33.6464 205.646C33.5527 205.74 33.5 205.867 33.5 206V207.5H32C31.8674 207.5 31.7402 207.552 31.6464 207.646C31.5527 207.74 31.5 207.867 31.5 208C31.5 208.132 31.5527 208.26 31.6464 208.353C31.7402 208.447 31.8674 208.5 32 208.5H33.5V210C33.5 210.132 33.5527 210.26 33.6464 210.353C33.7402 210.447 33.8674 210.5 34 210.5C34.1326 210.5 34.2598 210.447 34.3536 210.353C34.4473 210.26 34.5 210.132 34.5 210V208.5H36C36.1326 208.5 36.2598 208.447 36.3536 208.353C36.4473 208.26 36.5 208.132 36.5 208C36.5 207.867 36.4473 207.74 36.3536 207.646C36.2598 207.552 36.1326 207.5 36 207.5Z" fill="white" fill-opacity="0.95"/>
<path d="M31.4233 209.856C28.8989 210.255 26.0561 209.825 24.9512 208.88C24.8175 208.783 24.7075 208.657 24.6293 208.511C24.5512 208.366 24.507 208.205 24.5 208.04C24.5 205.579 26.7896 203.5 29.5 203.5C30.6549 203.5 31.7777 203.88 32.6953 204.581C32.8003 204.662 32.9332 204.698 33.0647 204.681C33.1962 204.664 33.3155 204.595 33.3965 204.49C33.4774 204.385 33.5133 204.252 33.4963 204.121C33.4793 203.989 33.4107 203.87 33.3057 203.789C32.755 203.367 32.1374 203.04 31.4785 202.822C32.0175 202.409 32.4134 201.837 32.6104 201.186C32.8075 200.536 32.7958 199.841 32.5771 199.197C32.3583 198.554 31.9435 197.996 31.3909 197.6C30.8384 197.205 30.1758 196.993 29.4964 196.994C28.817 196.994 28.1549 197.208 27.6032 197.605C27.0515 198.001 26.638 198.561 26.4207 199.204C26.2034 199.848 26.1933 200.544 26.3918 201.193C26.5903 201.843 26.9875 202.414 27.5274 202.827C25.2107 203.6 23.5 205.672 23.5 208.04C23.5066 208.349 23.5819 208.653 23.7205 208.93C23.8591 209.207 24.0575 209.449 24.3013 209.64C25.4097 210.588 27.5239 210.997 29.521 210.997C30.2098 210.999 30.8977 210.948 31.5786 210.845C31.6435 210.834 31.7057 210.811 31.7618 210.777C31.8179 210.743 31.8666 210.698 31.9053 210.645C31.944 210.592 31.9718 210.532 31.9872 210.468C32.0026 210.404 32.0053 210.338 31.9951 210.273C31.9849 210.208 31.962 210.146 31.9278 210.09C31.8935 210.034 31.8486 209.985 31.7955 209.946C31.7424 209.907 31.6822 209.88 31.6183 209.864C31.5545 209.849 31.4882 209.846 31.4233 209.856ZM27.25 200.25C27.25 199.805 27.382 199.37 27.6292 199C27.8764 198.63 28.2278 198.341 28.639 198.171C29.0501 198.001 29.5025 197.956 29.939 198.043C30.3754 198.13 30.7763 198.344 31.091 198.659C31.4057 198.973 31.62 199.374 31.7068 199.811C31.7936 200.247 31.749 200.7 31.5787 201.111C31.4084 201.522 31.12 201.873 30.75 202.121C30.38 202.368 29.945 202.5 29.5 202.5C28.9035 202.499 28.3315 202.262 27.9097 201.84C27.4879 201.418 27.2507 200.846 27.25 200.25Z" fill="white" fill-opacity="0.95"/>
<path d="M51.7148 210H49.9307L49.0488 207.505H45.1934L44.3457 210H42.5684L46.2393 200.197H48.0713L51.7148 210ZM48.6182 206.179L47.2578 202.269C47.2168 202.141 47.1735 201.936 47.1279 201.653H47.1006C47.0596 201.913 47.014 202.118 46.9639 202.269L45.6172 206.179H48.6182ZM59.2549 210H57.6689V208.811H57.6416C57.1312 209.713 56.3451 210.164 55.2832 210.164C54.4219 210.164 53.7314 209.852 53.2119 209.228C52.6969 208.599 52.4395 207.744 52.4395 206.664C52.4395 205.507 52.7243 204.579 53.2939 203.882C53.8682 203.185 54.6315 202.836 55.584 202.836C56.5273 202.836 57.2132 203.214 57.6416 203.971H57.6689V199.637H59.2549V210ZM57.6895 206.801V205.885C57.6895 205.388 57.5277 204.966 57.2041 204.62C56.8805 204.274 56.4681 204.101 55.9668 204.101C55.3743 204.101 54.9072 204.322 54.5654 204.764C54.2282 205.206 54.0596 205.819 54.0596 206.603C54.0596 207.313 54.2214 207.876 54.5449 208.291C54.873 208.701 55.3128 208.906 55.8643 208.906C56.4066 208.906 56.8464 208.708 57.1836 208.312C57.5208 207.91 57.6895 207.407 57.6895 206.801ZM67.6904 210H66.1045V208.811H66.0771C65.5667 209.713 64.7806 210.164 63.7188 210.164C62.8574 210.164 62.167 209.852 61.6475 209.228C61.1325 208.599 60.875 207.744 60.875 206.664C60.875 205.507 61.1598 204.579 61.7295 203.882C62.3037 203.185 63.0671 202.836 64.0195 202.836C64.9629 202.836 65.6488 203.214 66.0771 203.971H66.1045V199.637H67.6904V210ZM66.125 206.801V205.885C66.125 205.388 65.9632 204.966 65.6396 204.62C65.3161 204.274 64.9036 204.101 64.4023 204.101C63.8099 204.101 63.3428 204.322 63.001 204.764C62.6637 205.206 62.4951 205.819 62.4951 206.603C62.4951 207.313 62.6569 207.876 62.9805 208.291C63.3086 208.701 63.7484 208.906 64.2998 208.906C64.8421 208.906 65.2819 208.708 65.6191 208.312C65.9564 207.91 66.125 207.407 66.125 206.801ZM74.417 201.53C74.1572 201.53 73.9339 201.446 73.7471 201.277C73.5648 201.109 73.4736 200.895 73.4736 200.635C73.4736 200.375 73.5648 200.159 73.7471 199.985C73.9339 199.812 74.1572 199.726 74.417 199.726C74.6859 199.726 74.9137 199.812 75.1006 199.985C75.2874 200.159 75.3809 200.375 75.3809 200.635C75.3809 200.881 75.2874 201.093 75.1006 201.271C74.9137 201.444 74.6859 201.53 74.417 201.53ZM75.2031 210H73.6172V203H75.2031V210ZM83.5156 210H81.9297V206.056C81.9297 204.748 81.4671 204.094 80.542 204.094C80.0589 204.094 79.6602 204.276 79.3457 204.641C79.0312 205.001 78.874 205.456 78.874 206.008V210H77.2812V203H78.874V204.162H78.9014C79.4255 203.278 80.182 202.836 81.1709 202.836C81.932 202.836 82.513 203.084 82.9141 203.581C83.3151 204.073 83.5156 204.786 83.5156 205.721V210ZM89.1484 209.925C88.8385 210.08 88.4307 210.157 87.9248 210.157C86.5667 210.157 85.8877 209.506 85.8877 208.202V204.244H84.7188V203H85.8877V201.38L87.4736 200.929V203H89.1484V204.244H87.4736V207.744C87.4736 208.159 87.5488 208.455 87.6992 208.633C87.8496 208.811 88.1003 208.899 88.4512 208.899C88.7201 208.899 88.9525 208.822 89.1484 208.667V209.925ZM96.3604 206.931H91.5889C91.6071 207.578 91.8053 208.077 92.1836 208.428C92.5664 208.779 93.0905 208.954 93.7559 208.954C94.5033 208.954 95.1891 208.731 95.8135 208.284V209.562C95.1755 209.964 94.3324 210.164 93.2842 210.164C92.2542 210.164 91.4453 209.847 90.8574 209.214C90.2741 208.576 89.9824 207.68 89.9824 206.527C89.9824 205.438 90.3037 204.552 90.9463 203.868C91.5934 203.18 92.3955 202.836 93.3525 202.836C94.3096 202.836 95.0501 203.144 95.5742 203.759C96.0983 204.374 96.3604 205.229 96.3604 206.322V206.931ZM94.8291 205.81C94.8245 205.24 94.6901 204.798 94.4258 204.483C94.1615 204.164 93.7969 204.005 93.332 204.005C92.8763 204.005 92.4889 204.171 92.1699 204.504C91.8555 204.837 91.6618 205.272 91.5889 205.81H94.8291ZM101.932 204.511C101.74 204.36 101.465 204.285 101.104 204.285C100.635 204.285 100.243 204.497 99.9287 204.921C99.6143 205.345 99.457 205.921 99.457 206.65V210H97.8711V203H99.457V204.442H99.4844C99.6393 203.95 99.8763 203.567 100.195 203.294C100.519 203.016 100.879 202.877 101.275 202.877C101.562 202.877 101.781 202.92 101.932 203.007V204.511ZM104.666 208.968H104.639V213.22H103.053V203H104.639V204.23H104.666C105.208 203.301 106.001 202.836 107.045 202.836C107.934 202.836 108.626 203.148 109.123 203.772C109.62 204.397 109.868 205.235 109.868 206.288C109.868 207.455 109.588 208.389 109.027 209.091C108.467 209.793 107.701 210.144 106.73 210.144C105.837 210.144 105.149 209.752 104.666 208.968ZM104.625 206.206V207.074C104.625 207.585 104.787 208.018 105.11 208.373C105.438 208.729 105.853 208.906 106.354 208.906C106.942 208.906 107.403 208.678 107.735 208.223C108.073 207.762 108.241 207.122 108.241 206.302C108.241 205.614 108.084 205.076 107.77 204.688C107.46 204.297 107.038 204.101 106.505 204.101C105.94 204.101 105.484 204.301 105.138 204.702C104.796 205.103 104.625 205.604 104.625 206.206ZM115.549 204.511C115.357 204.36 115.082 204.285 114.722 204.285C114.252 204.285 113.86 204.497 113.546 204.921C113.231 205.345 113.074 205.921 113.074 206.65V210H111.488V203H113.074V204.442H113.102C113.257 203.95 113.493 203.567 113.812 203.294C114.136 203.016 114.496 202.877 114.893 202.877C115.18 202.877 115.398 202.92 115.549 203.007V204.511ZM122.474 206.931H117.702C117.72 207.578 117.919 208.077 118.297 208.428C118.68 208.779 119.204 208.954 119.869 208.954C120.617 208.954 121.302 208.731 121.927 208.284V209.562C121.289 209.964 120.446 210.164 119.397 210.164C118.368 210.164 117.559 209.847 116.971 209.214C116.387 208.576 116.096 207.68 116.096 206.527C116.096 205.438 116.417 204.552 117.06 203.868C117.707 203.18 118.509 202.836 119.466 202.836C120.423 202.836 121.163 203.144 121.688 203.759C122.212 204.374 122.474 205.229 122.474 206.322V206.931ZM120.942 205.81C120.938 205.24 120.803 204.798 120.539 204.483C120.275 204.164 119.91 204.005 119.445 204.005C118.99 204.005 118.602 204.171 118.283 204.504C117.969 204.837 117.775 205.272 117.702 205.81H120.942ZM127.676 209.925C127.366 210.08 126.958 210.157 126.452 210.157C125.094 210.157 124.415 209.506 124.415 208.202V204.244H123.246V203H124.415V201.38L126.001 200.929V203H127.676V204.244H126.001V207.744C126.001 208.159 126.076 208.455 126.227 208.633C126.377 208.811 126.628 208.899 126.979 208.899C127.247 208.899 127.48 208.822 127.676 208.667V209.925ZM134.888 206.931H130.116C130.134 207.578 130.333 208.077 130.711 208.428C131.094 208.779 131.618 208.954 132.283 208.954C133.031 208.954 133.716 208.731 134.341 208.284V209.562C133.703 209.964 132.86 210.164 131.812 210.164C130.782 210.164 129.973 209.847 129.385 209.214C128.801 208.576 128.51 207.68 128.51 206.527C128.51 205.438 128.831 204.552 129.474 203.868C130.121 203.18 130.923 202.836 131.88 202.836C132.837 202.836 133.577 203.144 134.102 203.759C134.626 204.374 134.888 205.229 134.888 206.322V206.931ZM133.356 205.81C133.352 205.24 133.217 204.798 132.953 204.483C132.689 204.164 132.324 204.005 131.859 204.005C131.404 204.005 131.016 204.171 130.697 204.504C130.383 204.837 130.189 205.272 130.116 205.81H133.356ZM140.459 204.511C140.268 204.36 139.992 204.285 139.632 204.285C139.162 204.285 138.771 204.497 138.456 204.921C138.142 205.345 137.984 205.921 137.984 206.65V210H136.398V203H137.984V204.442H138.012C138.167 203.95 138.404 203.567 138.723 203.294C139.046 203.016 139.406 202.877 139.803 202.877C140.09 202.877 140.309 202.92 140.459 203.007V204.511Z" fill="white" fill-opacity="0.95"/>
<path d="M26.4336 137H25.2852V127.197H26.4336V137ZM34.6777 137H33.5566V133.008C33.5566 131.522 33.0143 130.779 31.9297 130.779C31.3691 130.779 30.9043 130.991 30.5352 131.415C30.1706 131.834 29.9883 132.365 29.9883 133.008V137H28.8672V130H29.9883V131.162H30.0156C30.5443 130.278 31.3099 129.836 32.3125 129.836C33.0781 129.836 33.6637 130.084 34.0693 130.581C34.4749 131.073 34.6777 131.786 34.6777 132.721V137ZM40.0439 136.932C39.7796 137.077 39.431 137.15 38.998 137.15C37.7721 137.15 37.1592 136.467 37.1592 135.1V130.957H35.9561V130H37.1592V128.291L38.2803 127.929V130H40.0439V130.957H38.2803V134.901C38.2803 135.371 38.36 135.706 38.5195 135.906C38.679 136.107 38.9434 136.207 39.3125 136.207C39.5951 136.207 39.8389 136.13 40.0439 135.975V136.932ZM47.0576 133.78H42.1152C42.1335 134.56 42.3431 135.161 42.7441 135.585C43.1452 136.009 43.6966 136.221 44.3984 136.221C45.1868 136.221 45.9115 135.961 46.5723 135.441V136.494C45.957 136.941 45.1436 137.164 44.1318 137.164C43.1429 137.164 42.3659 136.847 41.8008 136.214C41.2357 135.576 40.9531 134.68 40.9531 133.527C40.9531 132.438 41.2607 131.552 41.876 130.868C42.4958 130.18 43.2637 129.836 44.1797 129.836C45.0957 129.836 45.8044 130.132 46.3057 130.725C46.807 131.317 47.0576 132.14 47.0576 133.192V133.78ZM45.9092 132.83C45.9046 132.183 45.7474 131.679 45.4375 131.319C45.1322 130.959 44.7061 130.779 44.1592 130.779C43.6305 130.779 43.1816 130.968 42.8125 131.347C42.4434 131.725 42.2155 132.219 42.1289 132.83H45.9092ZM52.4102 131.135C52.2142 130.984 51.9316 130.909 51.5625 130.909C51.084 130.909 50.6829 131.135 50.3594 131.586C50.0404 132.037 49.8809 132.652 49.8809 133.432V137H48.7598V130H49.8809V131.442H49.9082C50.0677 130.95 50.3115 130.567 50.6396 130.294C50.9678 130.016 51.3346 129.877 51.7402 129.877C52.0319 129.877 52.2552 129.909 52.4102 129.973V131.135ZM54.7754 135.988H54.748V140.22H53.627V130H54.748V131.23H54.7754C55.3268 130.301 56.1335 129.836 57.1953 129.836C58.0977 129.836 58.8018 130.15 59.3076 130.779C59.8135 131.404 60.0664 132.242 60.0664 133.295C60.0664 134.466 59.7816 135.405 59.2119 136.111C58.6423 136.813 57.863 137.164 56.874 137.164C55.9671 137.164 55.2676 136.772 54.7754 135.988ZM54.748 133.165V134.143C54.748 134.721 54.9349 135.214 55.3086 135.619C55.6868 136.02 56.1654 136.221 56.7441 136.221C57.4232 136.221 57.9541 135.961 58.3369 135.441C58.7243 134.922 58.918 134.2 58.918 133.274C58.918 132.495 58.738 131.884 58.3779 131.442C58.0179 131 57.5303 130.779 56.915 130.779C56.2633 130.779 55.7393 131.007 55.3428 131.463C54.9463 131.914 54.748 132.481 54.748 133.165ZM65.5078 131.135C65.3118 130.984 65.0293 130.909 64.6602 130.909C64.1816 130.909 63.7806 131.135 63.457 131.586C63.138 132.037 62.9785 132.652 62.9785 133.432V137H61.8574V130H62.9785V131.442H63.0059C63.1654 130.95 63.4092 130.567 63.7373 130.294C64.0654 130.016 64.4323 129.877 64.8379 129.877C65.1296 129.877 65.3529 129.909 65.5078 129.973V131.135ZM72.1592 133.78H67.2168C67.235 134.56 67.4447 135.161 67.8457 135.585C68.2467 136.009 68.7982 136.221 69.5 136.221C70.2884 136.221 71.013 135.961 71.6738 135.441V136.494C71.0586 136.941 70.2451 137.164 69.2334 137.164C68.2445 137.164 67.4674 136.847 66.9023 136.214C66.3372 135.576 66.0547 134.68 66.0547 133.527C66.0547 132.438 66.3623 131.552 66.9775 130.868C67.5973 130.18 68.3652 129.836 69.2812 129.836C70.1973 129.836 70.9059 130.132 71.4072 130.725C71.9085 131.317 72.1592 132.14 72.1592 133.192V133.78ZM71.0107 132.83C71.0062 132.183 70.849 131.679 70.5391 131.319C70.2337 130.959 69.8076 130.779 69.2607 130.779C68.7321 130.779 68.2832 130.968 67.9141 131.347C67.5449 131.725 67.3171 132.219 67.2305 132.83H71.0107ZM77.1084 136.932C76.8441 137.077 76.4954 137.15 76.0625 137.15C74.8366 137.15 74.2236 136.467 74.2236 135.1V130.957H73.0205V130H74.2236V128.291L75.3447 127.929V130H77.1084V130.957H75.3447V134.901C75.3447 135.371 75.4245 135.706 75.584 135.906C75.7435 136.107 76.0078 136.207 76.377 136.207C76.6595 136.207 76.9033 136.13 77.1084 135.975V136.932ZM84.1221 133.78H79.1797C79.1979 134.56 79.4076 135.161 79.8086 135.585C80.2096 136.009 80.7611 136.221 81.4629 136.221C82.2513 136.221 82.9759 135.961 83.6367 135.441V136.494C83.0215 136.941 82.208 137.164 81.1963 137.164C80.2074 137.164 79.4303 136.847 78.8652 136.214C78.3001 135.576 78.0176 134.68 78.0176 133.527C78.0176 132.438 78.3252 131.552 78.9404 130.868C79.5602 130.18 80.3281 129.836 81.2441 129.836C82.1602 129.836 82.8688 130.132 83.3701 130.725C83.8714 131.317 84.1221 132.14 84.1221 133.192V133.78ZM82.9736 132.83C82.9691 132.183 82.8118 131.679 82.502 131.319C82.1966 130.959 81.7705 130.779 81.2236 130.779C80.695 130.779 80.2461 130.968 79.877 131.347C79.5078 131.725 79.2799 132.219 79.1934 132.83H82.9736ZM89.4746 131.135C89.2786 130.984 88.9961 130.909 88.627 130.909C88.1484 130.909 87.7474 131.135 87.4238 131.586C87.1048 132.037 86.9453 132.652 86.9453 133.432V137H85.8242V130H86.9453V131.442H86.9727C87.1322 130.95 87.376 130.567 87.7041 130.294C88.0322 130.016 88.3991 129.877 88.8047 129.877C89.0964 129.877 89.3197 129.909 89.4746 129.973V131.135Z" fill="white" fill-opacity="0.95"/>
<rect x="12" y="146" width="436" height="32" rx="8" fill="black"/>
<rect x="12.5" y="146.5" width="435" height="31" rx="7.5" stroke="white" stroke-opacity="0.5"/>
<path d="M25.4688 168V156.797H28.6562C29.625 156.797 30.3932 157.034 30.9609 157.508C31.5286 157.982 31.8125 158.599 31.8125 159.359C31.8125 159.995 31.6406 160.547 31.2969 161.016C30.9531 161.484 30.4792 161.818 29.875 162.016V162.047C30.6302 162.135 31.2344 162.422 31.6875 162.906C32.1406 163.385 32.3672 164.01 32.3672 164.781C32.3672 165.74 32.0234 166.516 31.3359 167.109C30.6484 167.703 29.7812 168 28.7344 168H25.4688ZM26.7812 157.984V161.602H28.125C28.8438 161.602 29.4089 161.43 29.8203 161.086C30.2318 160.737 30.4375 160.247 30.4375 159.617C30.4375 158.529 29.7214 157.984 28.2891 157.984H26.7812ZM26.7812 162.781V166.812H28.5625C29.3333 166.812 29.9297 166.63 30.3516 166.266C30.7786 165.901 30.9922 165.401 30.9922 164.766C30.9922 163.443 30.0911 162.781 28.2891 162.781H26.7812ZM40.1953 168H38.9141V166.75H38.8828C38.3255 167.708 37.5052 168.188 36.4219 168.188C35.625 168.188 35 167.977 34.5469 167.555C34.099 167.133 33.875 166.573 33.875 165.875C33.875 164.38 34.7552 163.51 36.5156 163.266L38.9141 162.93C38.9141 161.57 38.3646 160.891 37.2656 160.891C36.3021 160.891 35.4323 161.219 34.6562 161.875V160.562C35.4427 160.062 36.349 159.812 37.375 159.812C39.2552 159.812 40.1953 160.807 40.1953 162.797V168ZM38.9141 163.953L36.9844 164.219C36.3906 164.302 35.9427 164.451 35.6406 164.664C35.3385 164.872 35.1875 165.245 35.1875 165.781C35.1875 166.172 35.3255 166.492 35.6016 166.742C35.8828 166.987 36.2552 167.109 36.7188 167.109C37.3542 167.109 37.8776 166.888 38.2891 166.445C38.7057 165.997 38.9141 165.432 38.9141 164.75V163.953ZM46.7812 161.297C46.5573 161.125 46.2344 161.039 45.8125 161.039C45.2656 161.039 44.8073 161.297 44.4375 161.812C44.0729 162.328 43.8906 163.031 43.8906 163.922V168H42.6094V160H43.8906V161.648H43.9219C44.1042 161.086 44.3828 160.648 44.7578 160.336C45.1328 160.018 45.5521 159.859 46.0156 159.859C46.349 159.859 46.6042 159.896 46.7812 159.969V161.297ZM49.4844 166.844H49.4531V168H48.1719V156.156H49.4531V161.406H49.4844C50.1146 160.344 51.0365 159.812 52.25 159.812C53.276 159.812 54.0781 160.172 54.6562 160.891C55.2396 161.604 55.5312 162.562 55.5312 163.766C55.5312 165.104 55.2057 166.177 54.5547 166.984C53.9036 167.786 53.013 168.188 51.8828 168.188C50.8255 168.188 50.026 167.74 49.4844 166.844ZM49.4531 163.617V164.734C49.4531 165.396 49.6667 165.958 50.0938 166.422C50.526 166.88 51.0729 167.109 51.7344 167.109C52.5104 167.109 53.1172 166.812 53.5547 166.219C53.9974 165.625 54.2188 164.799 54.2188 163.742C54.2188 162.852 54.013 162.154 53.6016 161.648C53.1901 161.143 52.6328 160.891 51.9297 160.891C51.1849 160.891 50.5859 161.151 50.1328 161.672C49.6797 162.188 49.4531 162.836 49.4531 163.617ZM63.0859 168H61.8047V166.75H61.7734C61.2161 167.708 60.3958 168.188 59.3125 168.188C58.5156 168.188 57.8906 167.977 57.4375 167.555C56.9896 167.133 56.7656 166.573 56.7656 165.875C56.7656 164.38 57.6458 163.51 59.4062 163.266L61.8047 162.93C61.8047 161.57 61.2552 160.891 60.1562 160.891C59.1927 160.891 58.3229 161.219 57.5469 161.875V160.562C58.3333 160.062 59.2396 159.812 60.2656 159.812C62.1458 159.812 63.0859 160.807 63.0859 162.797V168ZM61.8047 163.953L59.875 164.219C59.2812 164.302 58.8333 164.451 58.5312 164.664C58.2292 164.872 58.0781 165.245 58.0781 165.781C58.0781 166.172 58.2161 166.492 58.4922 166.742C58.7734 166.987 59.1458 167.109 59.6094 167.109C60.2448 167.109 60.7682 166.888 61.1797 166.445C61.5964 165.997 61.8047 165.432 61.8047 164.75V163.953ZM69.6719 161.297C69.4479 161.125 69.125 161.039 68.7031 161.039C68.1562 161.039 67.6979 161.297 67.3281 161.812C66.9635 162.328 66.7812 163.031 66.7812 163.922V168H65.5V160H66.7812V161.648H66.8125C66.9948 161.086 67.2734 160.648 67.6484 160.336C68.0234 160.018 68.4427 159.859 68.9062 159.859C69.2396 159.859 69.4948 159.896 69.6719 159.969V161.297ZM76.7891 168H75.5078V166.75H75.4766C74.9193 167.708 74.099 168.188 73.0156 168.188C72.2188 168.188 71.5938 167.977 71.1406 167.555C70.6927 167.133 70.4688 166.573 70.4688 165.875C70.4688 164.38 71.349 163.51 73.1094 163.266L75.5078 162.93C75.5078 161.57 74.9583 160.891 73.8594 160.891C72.8958 160.891 72.026 161.219 71.25 161.875V160.562C72.0365 160.062 72.9427 159.812 73.9688 159.812C75.849 159.812 76.7891 160.807 76.7891 162.797V168ZM75.5078 163.953L73.5781 164.219C72.9844 164.302 72.5365 164.451 72.2344 164.664C71.9323 164.872 71.7812 165.245 71.7812 165.781C71.7812 166.172 71.9193 166.492 72.1953 166.742C72.4766 166.987 72.849 167.109 73.3125 167.109C73.9479 167.109 74.4714 166.888 74.8828 166.445C75.2995 165.997 75.5078 165.432 75.5078 164.75V163.953ZM92.1406 167.234C91.0156 167.87 89.7656 168.188 88.3906 168.188C86.7917 168.188 85.4974 167.672 84.5078 166.641C83.5234 165.609 83.0312 164.245 83.0312 162.547C83.0312 160.812 83.5781 159.391 84.6719 158.281C85.7708 157.167 87.1615 156.609 88.8438 156.609C90.0625 156.609 91.0859 156.807 91.9141 157.203V158.656C91.0078 158.083 89.9349 157.797 88.6953 157.797C87.4401 157.797 86.4115 158.229 85.6094 159.094C84.8073 159.958 84.4062 161.078 84.4062 162.453C84.4062 163.87 84.7786 164.984 85.5234 165.797C86.2682 166.604 87.2786 167.008 88.5547 167.008C89.4297 167.008 90.1875 166.833 90.8281 166.484V163.344H88.375V162.156H92.1406V167.234ZM101.008 164.32H95.3594C95.3802 165.211 95.6198 165.898 96.0781 166.383C96.5365 166.867 97.1667 167.109 97.9688 167.109C98.8698 167.109 99.6979 166.812 100.453 166.219V167.422C99.75 167.932 98.8203 168.188 97.6641 168.188C96.5339 168.188 95.6458 167.826 95 167.102C94.3542 166.372 94.0312 165.349 94.0312 164.031C94.0312 162.786 94.3828 161.773 95.0859 160.992C95.7943 160.206 96.6719 159.812 97.7188 159.812C98.7656 159.812 99.5755 160.151 100.148 160.828C100.721 161.505 101.008 162.445 101.008 163.648V164.32ZM99.6953 163.234C99.6901 162.495 99.5104 161.919 99.1562 161.508C98.8073 161.096 98.3203 160.891 97.6953 160.891C97.0911 160.891 96.5781 161.107 96.1562 161.539C95.7344 161.971 95.474 162.536 95.375 163.234H99.6953ZM107.125 161.297C106.901 161.125 106.578 161.039 106.156 161.039C105.609 161.039 105.151 161.297 104.781 161.812C104.417 162.328 104.234 163.031 104.234 163.922V168H102.953V160H104.234V161.648H104.266C104.448 161.086 104.727 160.648 105.102 160.336C105.477 160.018 105.896 159.859 106.359 159.859C106.693 159.859 106.948 159.896 107.125 159.969V161.297ZM119.844 168H118.562V163.406C118.562 162.521 118.424 161.88 118.148 161.484C117.878 161.089 117.419 160.891 116.773 160.891C116.227 160.891 115.76 161.141 115.375 161.641C114.995 162.141 114.805 162.74 114.805 163.438V168H113.523V163.25C113.523 161.677 112.917 160.891 111.703 160.891C111.141 160.891 110.677 161.128 110.312 161.602C109.948 162.07 109.766 162.682 109.766 163.438V168H108.484V160H109.766V161.266H109.797C110.365 160.297 111.193 159.812 112.281 159.812C112.828 159.812 113.305 159.966 113.711 160.273C114.117 160.576 114.396 160.974 114.547 161.469C115.141 160.365 116.026 159.812 117.203 159.812C118.964 159.812 119.844 160.898 119.844 163.07V168ZM127.992 168H126.711V166.75H126.68C126.122 167.708 125.302 168.188 124.219 168.188C123.422 168.188 122.797 167.977 122.344 167.555C121.896 167.133 121.672 166.573 121.672 165.875C121.672 164.38 122.552 163.51 124.312 163.266L126.711 162.93C126.711 161.57 126.161 160.891 125.062 160.891C124.099 160.891 123.229 161.219 122.453 161.875V160.562C123.24 160.062 124.146 159.812 125.172 159.812C127.052 159.812 127.992 160.807 127.992 162.797V168ZM126.711 163.953L124.781 164.219C124.188 164.302 123.74 164.451 123.438 164.664C123.135 164.872 122.984 165.245 122.984 165.781C122.984 166.172 123.122 166.492 123.398 166.742C123.68 166.987 124.052 167.109 124.516 167.109C125.151 167.109 125.674 166.888 126.086 166.445C126.503 165.997 126.711 165.432 126.711 164.75V163.953ZM137.047 168H135.766V163.438C135.766 161.74 135.146 160.891 133.906 160.891C133.266 160.891 132.734 161.133 132.312 161.617C131.896 162.096 131.688 162.703 131.688 163.438V168H130.406V160H131.688V161.328H131.719C132.323 160.318 133.198 159.812 134.344 159.812C135.219 159.812 135.888 160.096 136.352 160.664C136.815 161.227 137.047 162.042 137.047 163.109V168Z" fill="white" fill-opacity="0.95"/>
<path d="M438.354 158.647C438.26 158.553 438.133 158.5 438 158.5C437.868 158.5 437.74 158.553 437.647 158.647L432 164.293L426.353 158.647C426.259 158.555 426.133 158.504 426.002 158.505C425.87 158.506 425.745 158.559 425.652 158.652C425.559 158.745 425.506 158.87 425.505 159.002C425.504 159.133 425.555 159.259 425.646 159.354L431.646 165.354C431.74 165.447 431.867 165.5 432 165.5C432.133 165.5 432.26 165.447 432.353 165.354L438.353 159.354C438.447 159.26 438.5 159.133 438.5 159C438.5 158.868 438.447 158.74 438.354 158.647Z" fill="white" fill-opacity="0.95"/>
<rect x="415" y="147" width="1" height="30" fill="white" fill-opacity="0.5"/>
<path d="M16.8672 30.5547V28.6406C17.0391 28.7969 17.2422 28.9375 17.4766 29.0625C17.7161 29.1875 17.9688 29.2943 18.2344 29.3828C18.5 29.4661 18.7656 29.5312 19.0312 29.5781C19.2969 29.625 19.5417 29.6484 19.7656 29.6484C20.5469 29.6484 21.1276 29.5182 21.5078 29.2578C21.8932 28.9974 22.0859 28.6198 22.0859 28.125C22.0859 27.8594 22.0208 27.6302 21.8906 27.4375C21.7656 27.2396 21.5885 27.0599 21.3594 26.8984C21.1302 26.737 20.8594 26.5833 20.5469 26.4375C20.2396 26.2865 19.9089 26.1302 19.5547 25.9688C19.1745 25.7656 18.8203 25.5599 18.4922 25.3516C18.1641 25.1432 17.8776 24.9141 17.6328 24.6641C17.3932 24.4089 17.2031 24.1224 17.0625 23.8047C16.9271 23.487 16.8594 23.1146 16.8594 22.6875C16.8594 22.1615 16.9766 21.7057 17.2109 21.3203C17.4505 20.9297 17.763 20.6094 18.1484 20.3594C18.5391 20.1042 18.9818 19.9167 19.4766 19.7969C19.9714 19.6719 20.4766 19.6094 20.9922 19.6094C22.1641 19.6094 23.0182 19.7422 23.5547 20.0078V21.8438C22.9193 21.3854 22.1016 21.1562 21.1016 21.1562C20.8255 21.1562 20.5495 21.1823 20.2734 21.2344C20.0026 21.2865 19.7578 21.3724 19.5391 21.4922C19.3255 21.612 19.151 21.7656 19.0156 21.9531C18.8802 22.1406 18.8125 22.3672 18.8125 22.6328C18.8125 22.8828 18.8646 23.099 18.9688 23.2812C19.0729 23.4635 19.224 23.6302 19.4219 23.7812C19.625 23.9323 19.8698 24.0807 20.1562 24.2266C20.4479 24.3672 20.7839 24.5208 21.1641 24.6875C21.5547 24.8906 21.9219 25.1042 22.2656 25.3281C22.6146 25.5521 22.9193 25.7995 23.1797 26.0703C23.4453 26.3411 23.6536 26.6432 23.8047 26.9766C23.9609 27.3047 24.0391 27.6797 24.0391 28.1016C24.0391 28.6693 23.9245 29.1484 23.6953 29.5391C23.4661 29.9297 23.1562 30.2474 22.7656 30.4922C22.3802 30.737 21.9349 30.9141 21.4297 31.0234C20.9245 31.1328 20.3906 31.1875 19.8281 31.1875C19.6406 31.1875 19.4089 31.1719 19.1328 31.1406C18.862 31.1146 18.5833 31.0729 18.2969 31.0156C18.0104 30.9635 17.7396 30.8984 17.4844 30.8203C17.2292 30.7422 17.0234 30.6536 16.8672 30.5547ZM26.8125 21.3203C26.5156 21.3203 26.2604 21.224 26.0469 21.0312C25.8385 20.8385 25.7344 20.5938 25.7344 20.2969C25.7344 20 25.8385 19.7526 26.0469 19.5547C26.2604 19.3568 26.5156 19.2578 26.8125 19.2578C27.1198 19.2578 27.3802 19.3568 27.5938 19.5547C27.8073 19.7526 27.9141 20 27.9141 20.2969C27.9141 20.5781 27.8073 20.8203 27.5938 21.0234C27.3802 21.2214 27.1198 21.3203 26.8125 21.3203ZM27.7109 31H25.8984V23H27.7109V31ZM42.0469 31H40.2344V26.6406C40.2344 25.8021 40.1146 25.1953 39.875 24.8203C39.6406 24.4453 39.2422 24.2578 38.6797 24.2578C38.2057 24.2578 37.8021 24.4948 37.4688 24.9688C37.1406 25.4427 36.9766 26.0104 36.9766 26.6719V31H35.1562V26.4922C35.1562 25.0026 34.6302 24.2578 33.5781 24.2578C33.0885 24.2578 32.6849 24.4818 32.3672 24.9297C32.0547 25.3776 31.8984 25.9583 31.8984 26.6719V31H30.0859V23H31.8984V24.2656H31.9297C32.5078 23.2969 33.349 22.8125 34.4531 22.8125C35.0052 22.8125 35.487 22.9661 35.8984 23.2734C36.3151 23.5755 36.599 23.974 36.75 24.4688C37.3438 23.3646 38.2292 22.8125 39.4062 22.8125C41.1667 22.8125 42.0469 23.8984 42.0469 26.0703V31ZM51.2344 31H49.4219V29.7344H49.3906C48.8646 30.7031 48.0469 31.1875 46.9375 31.1875C45.0469 31.1875 44.1016 30.0521 44.1016 27.7812V23H45.9141V27.5938C45.9141 29.0312 46.4688 29.75 47.5781 29.75C48.1146 29.75 48.5547 29.5521 48.8984 29.1562C49.2474 28.7604 49.4219 28.2422 49.4219 27.6016V23H51.2344V31ZM55.4219 31H53.6016V19.1562H55.4219V31ZM62.0078 30.9141C61.6536 31.0911 61.1875 31.1797 60.6094 31.1797C59.0573 31.1797 58.2812 30.4349 58.2812 28.9453V24.4219H56.9453V23H58.2812V21.1484L60.0938 20.6328V23H62.0078V24.4219H60.0938V28.4219C60.0938 28.8958 60.1797 29.2344 60.3516 29.4375C60.5234 29.6406 60.8099 29.7422 61.2109 29.7422C61.5182 29.7422 61.7839 29.6536 62.0078 29.4766V30.9141ZM69.7109 31H67.9531V29.75H67.9219C67.3698 30.7083 66.5599 31.1875 65.4922 31.1875C64.7057 31.1875 64.0885 30.974 63.6406 30.5469C63.1979 30.1198 62.9766 29.5547 62.9766 28.8516C62.9766 27.3411 63.8464 26.4609 65.5859 26.2109L67.9609 25.875C67.9609 24.7344 67.4193 24.1641 66.3359 24.1641C65.3828 24.1641 64.5234 24.4922 63.7578 25.1484V23.5625C64.6016 23.0625 65.5755 22.8125 66.6797 22.8125C68.7005 22.8125 69.7109 23.8073 69.7109 25.7969V31ZM67.9609 27.0703L66.2812 27.3047C65.7604 27.3724 65.3672 27.5 65.1016 27.6875C64.8411 27.8698 64.7109 28.1927 64.7109 28.6562C64.7109 28.9948 64.8307 29.2734 65.0703 29.4922C65.3151 29.7057 65.6406 29.8125 66.0469 29.8125C66.599 29.8125 67.0547 29.6198 67.4141 29.2344C67.7786 28.8438 67.9609 28.3542 67.9609 27.7656V27.0703ZM79.0547 31H77.2422V26.4922C77.2422 24.9974 76.7135 24.25 75.6562 24.25C75.1042 24.25 74.6484 24.4583 74.2891 24.875C73.9297 25.2865 73.75 25.8073 73.75 26.4375V31H71.9297V23H73.75V24.3281H73.7812C74.3802 23.3177 75.2448 22.8125 76.375 22.8125C77.2448 22.8125 77.9089 23.0964 78.3672 23.6641C78.8255 24.2266 79.0547 25.0417 79.0547 26.1094V31ZM88.0469 27.4922H82.5938C82.6146 28.2318 82.8411 28.8021 83.2734 29.2031C83.7109 29.6042 84.3099 29.8047 85.0703 29.8047C85.9245 29.8047 86.7083 29.5495 87.4219 29.0391V30.5C86.6927 30.9583 85.7292 31.1875 84.5312 31.1875C83.3542 31.1875 82.4297 30.8255 81.7578 30.1016C81.0911 29.3724 80.7578 28.349 80.7578 27.0312C80.7578 25.7865 81.125 24.7734 81.8594 23.9922C82.599 23.2057 83.5156 22.8125 84.6094 22.8125C85.7031 22.8125 86.5495 23.1641 87.1484 23.8672C87.7474 24.5703 88.0469 25.5469 88.0469 26.7969V27.4922ZM86.2969 26.2109C86.2917 25.5599 86.138 25.0547 85.8359 24.6953C85.5339 24.3307 85.1172 24.1484 84.5859 24.1484C84.0651 24.1484 83.6224 24.3385 83.2578 24.7188C82.8984 25.099 82.6771 25.5964 82.5938 26.2109H86.2969ZM93.3203 31.1875C92.0859 31.1875 91.099 30.8151 90.3594 30.0703C89.625 29.3203 89.2578 28.3281 89.2578 27.0938C89.2578 25.75 89.6406 24.7005 90.4062 23.9453C91.1771 23.1901 92.2135 22.8125 93.5156 22.8125C94.7656 22.8125 95.7396 23.1797 96.4375 23.9141C97.1354 24.6484 97.4844 25.6667 97.4844 26.9688C97.4844 28.2448 97.1068 29.2682 96.3516 30.0391C95.6016 30.8047 94.5911 31.1875 93.3203 31.1875ZM93.4062 24.2578C92.6979 24.2578 92.138 24.5052 91.7266 25C91.3151 25.4948 91.1094 26.1771 91.1094 27.0469C91.1094 27.8854 91.3177 28.5469 91.7344 29.0312C92.151 29.5104 92.7083 29.75 93.4062 29.75C94.1198 29.75 94.6667 29.513 95.0469 29.0391C95.4323 28.5651 95.625 27.8906 95.625 27.0156C95.625 26.1354 95.4323 25.4557 95.0469 24.9766C94.6667 24.4974 94.1198 24.2578 93.4062 24.2578ZM106.312 31H104.5V29.7344H104.469C103.943 30.7031 103.125 31.1875 102.016 31.1875C100.125 31.1875 99.1797 30.0521 99.1797 27.7812V23H100.992V27.5938C100.992 29.0312 101.547 29.75 102.656 29.75C103.193 29.75 103.633 29.5521 103.977 29.1562C104.326 28.7604 104.5 28.2422 104.5 27.6016V23H106.312V31ZM108.18 30.75V29.0703C108.857 29.5859 109.604 29.8438 110.422 29.8438C111.516 29.8438 112.062 29.5208 112.062 28.875C112.062 28.6927 112.016 28.5391 111.922 28.4141C111.828 28.2839 111.701 28.1693 111.539 28.0703C111.383 27.9714 111.195 27.8828 110.977 27.8047C110.763 27.7266 110.523 27.638 110.258 27.5391C109.93 27.4089 109.633 27.2708 109.367 27.125C109.107 26.9792 108.888 26.8151 108.711 26.6328C108.539 26.4453 108.409 26.2344 108.32 26C108.232 25.7656 108.188 25.4922 108.188 25.1797C108.188 24.7943 108.279 24.4557 108.461 24.1641C108.643 23.8672 108.888 23.6198 109.195 23.4219C109.503 23.2188 109.852 23.0677 110.242 22.9688C110.633 22.8646 111.036 22.8125 111.453 22.8125C112.193 22.8125 112.854 22.9245 113.438 23.1484V24.7344C112.875 24.349 112.229 24.1562 111.5 24.1562C111.271 24.1562 111.062 24.1797 110.875 24.2266C110.693 24.2734 110.536 24.3385 110.406 24.4219C110.276 24.5052 110.174 24.6068 110.102 24.7266C110.029 24.8411 109.992 24.9688 109.992 25.1094C109.992 25.2812 110.029 25.4271 110.102 25.5469C110.174 25.6667 110.281 25.7734 110.422 25.8672C110.568 25.9557 110.74 26.0391 110.938 26.1172C111.141 26.1901 111.372 26.2708 111.633 26.3594C111.977 26.5 112.284 26.6432 112.555 26.7891C112.831 26.9349 113.065 27.1016 113.258 27.2891C113.451 27.4714 113.599 27.6849 113.703 27.9297C113.807 28.1693 113.859 28.4557 113.859 28.7891C113.859 29.1953 113.766 29.5495 113.578 29.8516C113.391 30.1536 113.141 30.4036 112.828 30.6016C112.516 30.7995 112.154 30.9453 111.742 31.0391C111.336 31.138 110.906 31.1875 110.453 31.1875C109.578 31.1875 108.82 31.0417 108.18 30.75ZM121.812 31H119.992V19.1562H121.812V31ZM130.32 31H128.562V29.75H128.531C127.979 30.7083 127.169 31.1875 126.102 31.1875C125.315 31.1875 124.698 30.974 124.25 30.5469C123.807 30.1198 123.586 29.5547 123.586 28.8516C123.586 27.3411 124.456 26.4609 126.195 26.2109L128.57 25.875C128.57 24.7344 128.029 24.1641 126.945 24.1641C125.992 24.1641 125.133 24.4922 124.367 25.1484V23.5625C125.211 23.0625 126.185 22.8125 127.289 22.8125C129.31 22.8125 130.32 23.8073 130.32 25.7969V31ZM128.57 27.0703L126.891 27.3047C126.37 27.3724 125.977 27.5 125.711 27.6875C125.451 27.8698 125.32 28.1927 125.32 28.6562C125.32 28.9948 125.44 29.2734 125.68 29.4922C125.924 29.7057 126.25 29.8125 126.656 29.8125C127.208 29.8125 127.664 29.6198 128.023 29.2344C128.388 28.8438 128.57 28.3542 128.57 27.7656V27.0703ZM139.664 31H137.852V26.4922C137.852 24.9974 137.323 24.25 136.266 24.25C135.714 24.25 135.258 24.4583 134.898 24.875C134.539 25.2865 134.359 25.8073 134.359 26.4375V31H132.539V23H134.359V24.3281H134.391C134.99 23.3177 135.854 22.8125 136.984 22.8125C137.854 22.8125 138.518 23.0964 138.977 23.6641C139.435 24.2266 139.664 25.0417 139.664 26.1094V31ZM149.164 30.3594C149.164 33.2969 147.688 34.7656 144.734 34.7656C143.693 34.7656 142.784 34.5911 142.008 34.2422V32.5859C142.883 33.0859 143.714 33.3359 144.5 33.3359C146.401 33.3359 147.352 32.401 147.352 30.5312V29.6562H147.32C146.721 30.6771 145.82 31.1875 144.617 31.1875C143.643 31.1875 142.857 30.8333 142.258 30.125C141.664 29.4115 141.367 28.4557 141.367 27.2578C141.367 25.8984 141.688 24.8177 142.328 24.0156C142.969 23.2135 143.849 22.8125 144.969 22.8125C146.026 22.8125 146.81 23.2448 147.32 24.1094H147.352V23H149.164V30.3594ZM147.367 27.3359V26.2969C147.367 25.7344 147.18 25.2552 146.805 24.8594C146.435 24.4583 145.971 24.2578 145.414 24.2578C144.727 24.2578 144.188 24.513 143.797 25.0234C143.411 25.5286 143.219 26.237 143.219 27.1484C143.219 27.9349 143.404 28.5651 143.773 29.0391C144.148 29.5078 144.643 29.7422 145.258 29.7422C145.883 29.7422 146.391 29.5182 146.781 29.0703C147.172 28.6172 147.367 28.0391 147.367 27.3359ZM158.5 31H156.688V29.7344H156.656C156.13 30.7031 155.312 31.1875 154.203 31.1875C152.312 31.1875 151.367 30.0521 151.367 27.7812V23H153.18V27.5938C153.18 29.0312 153.734 29.75 154.844 29.75C155.38 29.75 155.82 29.5521 156.164 29.1562C156.513 28.7604 156.688 28.2422 156.688 27.6016V23H158.5V31ZM167.008 31H165.25V29.75H165.219C164.667 30.7083 163.857 31.1875 162.789 31.1875C162.003 31.1875 161.385 30.974 160.938 30.5469C160.495 30.1198 160.273 29.5547 160.273 28.8516C160.273 27.3411 161.143 26.4609 162.883 26.2109L165.258 25.875C165.258 24.7344 164.716 24.1641 163.633 24.1641C162.68 24.1641 161.82 24.4922 161.055 25.1484V23.5625C161.898 23.0625 162.872 22.8125 163.977 22.8125C165.997 22.8125 167.008 23.8073 167.008 25.7969V31ZM165.258 27.0703L163.578 27.3047C163.057 27.3724 162.664 27.5 162.398 27.6875C162.138 27.8698 162.008 28.1927 162.008 28.6562C162.008 28.9948 162.128 29.2734 162.367 29.4922C162.612 29.7057 162.938 29.8125 163.344 29.8125C163.896 29.8125 164.352 29.6198 164.711 29.2344C165.076 28.8438 165.258 28.3542 165.258 27.7656V27.0703ZM176.508 30.3594C176.508 33.2969 175.031 34.7656 172.078 34.7656C171.036 34.7656 170.128 34.5911 169.352 34.2422V32.5859C170.227 33.0859 171.057 33.3359 171.844 33.3359C173.745 33.3359 174.695 32.401 174.695 30.5312V29.6562H174.664C174.065 30.6771 173.164 31.1875 171.961 31.1875C170.987 31.1875 170.201 30.8333 169.602 30.125C169.008 29.4115 168.711 28.4557 168.711 27.2578C168.711 25.8984 169.031 24.8177 169.672 24.0156C170.312 23.2135 171.193 22.8125 172.312 22.8125C173.37 22.8125 174.154 23.2448 174.664 24.1094H174.695V23H176.508V30.3594ZM174.711 27.3359V26.2969C174.711 25.7344 174.523 25.2552 174.148 24.8594C173.779 24.4583 173.315 24.2578 172.758 24.2578C172.07 24.2578 171.531 24.513 171.141 25.0234C170.755 25.5286 170.562 26.237 170.562 27.1484C170.562 27.9349 170.747 28.5651 171.117 29.0391C171.492 29.5078 171.987 29.7422 172.602 29.7422C173.227 29.7422 173.734 29.5182 174.125 29.0703C174.516 28.6172 174.711 28.0391 174.711 27.3359ZM185.641 27.4922H180.188C180.208 28.2318 180.435 28.8021 180.867 29.2031C181.305 29.6042 181.904 29.8047 182.664 29.8047C183.518 29.8047 184.302 29.5495 185.016 29.0391V30.5C184.286 30.9583 183.323 31.1875 182.125 31.1875C180.948 31.1875 180.023 30.8255 179.352 30.1016C178.685 29.3724 178.352 28.349 178.352 27.0312C178.352 25.7865 178.719 24.7734 179.453 23.9922C180.193 23.2057 181.109 22.8125 182.203 22.8125C183.297 22.8125 184.143 23.1641 184.742 23.8672C185.341 24.5703 185.641 25.5469 185.641 26.7969V27.4922ZM183.891 26.2109C183.885 25.5599 183.732 25.0547 183.43 24.6953C183.128 24.3307 182.711 24.1484 182.18 24.1484C181.659 24.1484 181.216 24.3385 180.852 24.7188C180.492 25.099 180.271 25.5964 180.188 26.2109H183.891ZM195.398 19.5469V31H193.586V21.7656C193.258 22 192.904 22.2005 192.523 22.3672C192.148 22.5286 191.719 22.6719 191.234 22.7969V21.25C191.536 21.151 191.828 21.0469 192.109 20.9375C192.391 20.8281 192.667 20.7057 192.938 20.5703C193.214 20.4349 193.49 20.2839 193.766 20.1172C194.047 19.9505 194.336 19.7604 194.633 19.5469H195.398Z" fill="white" fill-opacity="0.7"/>
<path d="M227.146 73.1466L224.146 76.1466C224.1 76.193 224.063 76.2482 224.038 76.3088C224.013 76.3695 224 76.4345 224 76.5001C224 76.5658 224.013 76.6308 224.038 76.6915C224.063 76.7521 224.1 76.8072 224.146 76.8537L227.146 79.8537C227.193 79.9001 227.248 79.9369 227.309 79.962C227.369 79.9872 227.434 80.0001 227.5 80.0001C227.566 80.0001 227.631 79.9872 227.691 79.962C227.752 79.9369 227.807 79.9001 227.854 79.8537C227.947 79.7599 228 79.6327 228 79.5001C228 79.4345 227.987 79.3695 227.962 79.3088C227.937 79.2482 227.9 79.1931 227.854 79.1466L225.707 77.0001L235.5 77.0001C235.633 77.0001 235.76 76.9475 235.854 76.8537C235.947 76.7599 236 76.6327 236 76.5001C236 76.3675 235.947 76.2403 235.854 76.1466C235.76 76.0528 235.633 76.0001 235.5 76.0001L225.707 76.0001L227.854 73.8536C227.947 73.7599 228 73.6327 228 73.5001C228 73.3675 227.947 73.2404 227.854 73.1466C227.76 73.0528 227.633 73.0002 227.5 73.0002C227.367 73.0002 227.24 73.0529 227.146 73.1466Z" fill="white" fill-opacity="0.95"/>
<path d="M232.146 80.8537L234.293 83.0002L224.5 83.0002C224.367 83.0002 224.24 83.0528 224.146 83.1466C224.053 83.2404 224 83.3676 224 83.5002C224 83.6328 224.053 83.7599 224.146 83.8537C224.24 83.9475 224.367 84.0002 224.5 84.0002L234.293 84.0002L232.146 86.1467C232.053 86.2404 232 86.3676 232 86.5002C232 86.6328 232.053 86.7599 232.146 86.8537C232.24 86.9474 232.367 87.0001 232.5 87.0001C232.633 87.0001 232.76 86.9474 232.854 86.8537L235.854 83.8537C235.9 83.8073 235.937 83.7522 235.962 83.6915C235.987 83.6308 236 83.5658 236 83.5002C236 83.4345 235.987 83.3695 235.962 83.3088C235.937 83.2482 235.9 83.1931 235.854 83.1467L232.854 80.1467C232.76 80.0529 232.633 80.0002 232.5 80.0002C232.367 80.0002 232.24 80.0529 232.146 80.1467C232.053 80.2404 232 80.3676 232 80.5002C232 80.6328 232.053 80.7599 232.146 80.8537Z" fill="white" fill-opacity="0.95"/>
<path d="M172.5 273H170.461L169.453 270.148H165.047L164.078 273H162.047L166.242 261.797H168.336L172.5 273ZM168.961 268.633L167.406 264.164C167.359 264.018 167.31 263.784 167.258 263.461H167.227C167.18 263.758 167.128 263.992 167.07 264.164L165.531 268.633H168.961ZM181.117 273H179.305V271.641H179.273C178.69 272.672 177.792 273.188 176.578 273.188C175.594 273.188 174.805 272.831 174.211 272.117C173.622 271.398 173.328 270.422 173.328 269.188C173.328 267.865 173.654 266.805 174.305 266.008C174.961 265.211 175.833 264.812 176.922 264.812C178 264.812 178.784 265.245 179.273 266.109H179.305V261.156H181.117V273ZM179.328 269.344V268.297C179.328 267.729 179.143 267.247 178.773 266.852C178.404 266.456 177.932 266.258 177.359 266.258C176.682 266.258 176.148 266.51 175.758 267.016C175.372 267.521 175.18 268.221 175.18 269.117C175.18 269.93 175.365 270.573 175.734 271.047C176.109 271.516 176.612 271.75 177.242 271.75C177.862 271.75 178.365 271.523 178.75 271.07C179.135 270.612 179.328 270.036 179.328 269.344ZM190.758 273H188.945V271.641H188.914C188.331 272.672 187.432 273.188 186.219 273.188C185.234 273.188 184.445 272.831 183.852 272.117C183.263 271.398 182.969 270.422 182.969 269.188C182.969 267.865 183.294 266.805 183.945 266.008C184.602 265.211 185.474 264.812 186.562 264.812C187.641 264.812 188.424 265.245 188.914 266.109H188.945V261.156H190.758V273ZM188.969 269.344V268.297C188.969 267.729 188.784 267.247 188.414 266.852C188.044 266.456 187.573 266.258 187 266.258C186.323 266.258 185.789 266.51 185.398 267.016C185.013 267.521 184.82 268.221 184.82 269.117C184.82 269.93 185.005 270.573 185.375 271.047C185.75 271.516 186.253 271.75 186.883 271.75C187.503 271.75 188.005 271.523 188.391 271.07C188.776 270.612 188.969 270.036 188.969 269.344ZM204.656 273H202.844V268.492C202.844 266.997 202.315 266.25 201.258 266.25C200.706 266.25 200.25 266.458 199.891 266.875C199.531 267.286 199.352 267.807 199.352 268.438V273H197.531V265H199.352V266.328H199.383C199.982 265.318 200.846 264.812 201.977 264.812C202.846 264.812 203.51 265.096 203.969 265.664C204.427 266.227 204.656 267.042 204.656 268.109V273ZM213.648 269.492H208.195C208.216 270.232 208.443 270.802 208.875 271.203C209.312 271.604 209.911 271.805 210.672 271.805C211.526 271.805 212.31 271.549 213.023 271.039V272.5C212.294 272.958 211.331 273.188 210.133 273.188C208.956 273.188 208.031 272.826 207.359 272.102C206.693 271.372 206.359 270.349 206.359 269.031C206.359 267.786 206.727 266.773 207.461 265.992C208.201 265.206 209.117 264.812 210.211 264.812C211.305 264.812 212.151 265.164 212.75 265.867C213.349 266.57 213.648 267.547 213.648 268.797V269.492ZM211.898 268.211C211.893 267.56 211.74 267.055 211.438 266.695C211.135 266.331 210.719 266.148 210.188 266.148C209.667 266.148 209.224 266.339 208.859 266.719C208.5 267.099 208.279 267.596 208.195 268.211H211.898ZM226.133 265L223.773 273H221.875L220.422 267.578C220.365 267.37 220.328 267.135 220.312 266.875H220.281C220.271 267.052 220.224 267.281 220.141 267.562L218.562 273H216.703L214.352 265H216.227L217.68 270.766C217.727 270.938 217.758 271.167 217.773 271.453H217.828C217.844 271.234 217.885 271 217.953 270.75L219.57 265H221.273L222.711 270.789C222.758 270.971 222.792 271.201 222.812 271.477H222.867C222.878 271.284 222.917 271.055 222.984 270.789L224.406 265H226.133ZM233.711 273H231.891V261.156H233.711V273ZM242.219 273H240.461V271.75H240.43C239.878 272.708 239.068 273.188 238 273.188C237.214 273.188 236.596 272.974 236.148 272.547C235.706 272.12 235.484 271.555 235.484 270.852C235.484 269.341 236.354 268.461 238.094 268.211L240.469 267.875C240.469 266.734 239.927 266.164 238.844 266.164C237.891 266.164 237.031 266.492 236.266 267.148V265.562C237.109 265.062 238.083 264.812 239.188 264.812C241.208 264.812 242.219 265.807 242.219 267.797V273ZM240.469 269.07L238.789 269.305C238.268 269.372 237.875 269.5 237.609 269.688C237.349 269.87 237.219 270.193 237.219 270.656C237.219 270.995 237.339 271.273 237.578 271.492C237.823 271.706 238.148 271.812 238.555 271.812C239.107 271.812 239.562 271.62 239.922 271.234C240.286 270.844 240.469 270.354 240.469 269.766V269.07ZM251.562 273H249.75V268.492C249.75 266.997 249.221 266.25 248.164 266.25C247.612 266.25 247.156 266.458 246.797 266.875C246.438 267.286 246.258 267.807 246.258 268.438V273H244.438V265H246.258V266.328H246.289C246.888 265.318 247.753 264.812 248.883 264.812C249.753 264.812 250.417 265.096 250.875 265.664C251.333 266.227 251.562 267.042 251.562 268.109V273ZM261.062 272.359C261.062 275.297 259.586 276.766 256.633 276.766C255.591 276.766 254.682 276.591 253.906 276.242V274.586C254.781 275.086 255.612 275.336 256.398 275.336C258.299 275.336 259.25 274.401 259.25 272.531V271.656H259.219C258.62 272.677 257.719 273.188 256.516 273.188C255.542 273.188 254.755 272.833 254.156 272.125C253.562 271.411 253.266 270.456 253.266 269.258C253.266 267.898 253.586 266.818 254.227 266.016C254.867 265.214 255.747 264.812 256.867 264.812C257.924 264.812 258.708 265.245 259.219 266.109H259.25V265H261.062V272.359ZM259.266 269.336V268.297C259.266 267.734 259.078 267.255 258.703 266.859C258.333 266.458 257.87 266.258 257.312 266.258C256.625 266.258 256.086 266.513 255.695 267.023C255.31 267.529 255.117 268.237 255.117 269.148C255.117 269.935 255.302 270.565 255.672 271.039C256.047 271.508 256.542 271.742 257.156 271.742C257.781 271.742 258.289 271.518 258.68 271.07C259.07 270.617 259.266 270.039 259.266 269.336ZM270.398 273H268.586V271.734H268.555C268.029 272.703 267.211 273.188 266.102 273.188C264.211 273.188 263.266 272.052 263.266 269.781V265H265.078V269.594C265.078 271.031 265.633 271.75 266.742 271.75C267.279 271.75 267.719 271.552 268.062 271.156C268.411 270.76 268.586 270.242 268.586 269.602V265H270.398V273ZM278.906 273H277.148V271.75H277.117C276.565 272.708 275.755 273.188 274.688 273.188C273.901 273.188 273.284 272.974 272.836 272.547C272.393 272.12 272.172 271.555 272.172 270.852C272.172 269.341 273.042 268.461 274.781 268.211L277.156 267.875C277.156 266.734 276.615 266.164 275.531 266.164C274.578 266.164 273.719 266.492 272.953 267.148V265.562C273.797 265.062 274.771 264.812 275.875 264.812C277.896 264.812 278.906 265.807 278.906 267.797V273ZM277.156 269.07L275.477 269.305C274.956 269.372 274.562 269.5 274.297 269.688C274.036 269.87 273.906 270.193 273.906 270.656C273.906 270.995 274.026 271.273 274.266 271.492C274.51 271.706 274.836 271.812 275.242 271.812C275.794 271.812 276.25 271.62 276.609 271.234C276.974 270.844 277.156 270.354 277.156 269.766V269.07ZM288.406 272.359C288.406 275.297 286.93 276.766 283.977 276.766C282.935 276.766 282.026 276.591 281.25 276.242V274.586C282.125 275.086 282.956 275.336 283.742 275.336C285.643 275.336 286.594 274.401 286.594 272.531V271.656H286.562C285.964 272.677 285.062 273.188 283.859 273.188C282.885 273.188 282.099 272.833 281.5 272.125C280.906 271.411 280.609 270.456 280.609 269.258C280.609 267.898 280.93 266.818 281.57 266.016C282.211 265.214 283.091 264.812 284.211 264.812C285.268 264.812 286.052 265.245 286.562 266.109H286.594V265H288.406V272.359ZM286.609 269.336V268.297C286.609 267.734 286.422 267.255 286.047 266.859C285.677 266.458 285.214 266.258 284.656 266.258C283.969 266.258 283.43 266.513 283.039 267.023C282.654 267.529 282.461 268.237 282.461 269.148C282.461 269.935 282.646 270.565 283.016 271.039C283.391 271.508 283.885 271.742 284.5 271.742C285.125 271.742 285.633 271.518 286.023 271.07C286.414 270.617 286.609 270.039 286.609 269.336ZM297.539 269.492H292.086C292.107 270.232 292.333 270.802 292.766 271.203C293.203 271.604 293.802 271.805 294.562 271.805C295.417 271.805 296.201 271.549 296.914 271.039V272.5C296.185 272.958 295.221 273.188 294.023 273.188C292.846 273.188 291.922 272.826 291.25 272.102C290.583 271.372 290.25 270.349 290.25 269.031C290.25 267.786 290.617 266.773 291.352 265.992C292.091 265.206 293.008 264.812 294.102 264.812C295.195 264.812 296.042 265.164 296.641 265.867C297.24 266.57 297.539 267.547 297.539 268.797V269.492ZM295.789 268.211C295.784 267.56 295.63 267.055 295.328 266.695C295.026 266.331 294.609 266.148 294.078 266.148C293.557 266.148 293.115 266.339 292.75 266.719C292.391 267.099 292.169 267.596 292.086 268.211H295.789Z" fill="white" fill-opacity="0.95"/>
<rect x="110.5" y="250.5" width="239" height="31" rx="15.5" stroke="white" stroke-opacity="0.3"/>
</svg>
