<svg width="512" height="376" viewBox="0 0 512 376" fill="none" xmlns="http://www.w3.org/2000/svg">
<rect width="512" height="376" fill="#1A1A1A"/>
<path d="M487.707 23.9998L491.854 19.8533C491.9 19.8068 491.937 19.7517 491.962 19.6911C491.987 19.6304 492 19.5654 492 19.4997C492 19.4341 491.987 19.3691 491.962 19.3084C491.937 19.2478 491.9 19.1927 491.854 19.1462C491.807 19.0998 491.752 19.063 491.691 19.0379C491.631 19.0127 491.566 18.9998 491.5 18.9998C491.434 18.9998 491.369 19.0127 491.309 19.0379C491.248 19.063 491.193 19.0998 491.147 19.1462L487 23.2927L482.854 19.1462C482.807 19.0994 482.752 19.0622 482.691 19.0367C482.631 19.0112 482.565 18.998 482.499 18.9978C482.434 18.9976 482.368 19.0105 482.307 19.0356C482.246 19.0607 482.191 19.0976 482.144 19.1442C482.098 19.1908 482.061 19.2462 482.036 19.3071C482.011 19.368 481.998 19.4333 481.998 19.4992C481.998 19.5651 482.011 19.6303 482.037 19.6911C482.062 19.7518 482.1 19.807 482.147 19.8533L486.293 23.9998L482.147 28.1463C482.1 28.1927 482.063 28.2478 482.038 28.3085C482.013 28.3691 482 28.4341 482 28.4998C482 28.5655 482.013 28.6305 482.038 28.6911C482.063 28.7518 482.1 28.8069 482.147 28.8533C482.193 28.8997 482.248 28.9366 482.309 28.9617C482.369 28.9868 482.434 28.9997 482.5 28.9997C482.566 28.9997 482.631 28.9868 482.691 28.9617C482.752 28.9366 482.807 28.8997 482.854 28.8533L487 24.7068L491.147 28.8533C491.24 28.9471 491.367 28.9997 491.5 28.9997C491.633 28.9997 491.76 28.9471 491.854 28.8533C491.947 28.7596 492 28.6324 492 28.4998C492 28.3672 491.947 28.24 491.854 28.1463L487.707 23.9998Z" fill="white"/>
<rect x="13" y="10" width="107" height="28" rx="14" fill="white" fill-opacity="0.2"/>
<path d="M34.886 17.92H36.566L34.06 28H31.96L29.846 19.768L27.718 28H25.604L23.042 17.92H24.89L26.78 25.928L28.852 17.92H30.966L33.01 25.928L34.886 17.92ZM42.086 25.9H43.85C43.654 26.6467 43.248 27.2253 42.632 27.636C42.044 28.0187 41.3207 28.21 40.462 28.21C39.2767 28.21 38.3527 27.8367 37.69 27.09C37.0834 26.4087 36.78 25.4987 36.78 24.36C36.78 23.0533 37.158 22.0547 37.914 21.364C38.5487 20.7947 39.3747 20.51 40.392 20.51C41.5774 20.51 42.4734 20.8973 43.08 21.672C43.6494 22.3907 43.934 23.4173 43.934 24.752H38.488C38.5534 25.536 38.796 26.11 39.216 26.474C39.552 26.7727 39.9907 26.922 40.532 26.922C40.9147 26.922 41.246 26.8287 41.526 26.642C41.806 26.4553 41.9927 26.208 42.086 25.9ZM42.212 23.604C42.1747 22.9227 41.9694 22.4233 41.596 22.106C41.288 21.8353 40.8867 21.7 40.392 21.7C39.8507 21.7 39.4167 21.8773 39.09 22.232C38.7914 22.5493 38.6 23.0067 38.516 23.604H42.212ZM45.3745 17.92H47.0545V21.602C47.6332 20.874 48.4125 20.51 49.3925 20.51C50.4472 20.51 51.2592 20.8693 51.8285 21.588C52.3512 22.2413 52.6125 23.1187 52.6125 24.22C52.6125 25.564 52.2532 26.5953 51.5345 27.314C50.9465 27.9113 50.1858 28.21 49.2525 28.21C48.2912 28.21 47.5352 27.846 46.9845 27.118L46.7185 28H45.3745V17.92ZM50.8905 24.29C50.8905 23.4127 50.6898 22.764 50.2885 22.344C49.9618 22.008 49.5232 21.84 48.9725 21.84C48.3472 21.84 47.8525 22.0687 47.4885 22.526C47.1525 22.9647 46.9845 23.548 46.9845 24.276C46.9845 25.1907 47.1898 25.872 47.6005 26.32C47.9458 26.6933 48.3938 26.88 48.9445 26.88C49.5885 26.88 50.0785 26.642 50.4145 26.166C50.7318 25.718 50.8905 25.0927 50.8905 24.29ZM58.9845 25.9H60.7485C60.5525 26.6467 60.1465 27.2253 59.5305 27.636C58.9425 28.0187 58.2192 28.21 57.3605 28.21C56.1752 28.21 55.2512 27.8367 54.5885 27.09C53.9818 26.4087 53.6785 25.4987 53.6785 24.36C53.6785 23.0533 54.0565 22.0547 54.8125 21.364C55.4472 20.7947 56.2732 20.51 57.2905 20.51C58.4758 20.51 59.3718 20.8973 59.9785 21.672C60.5478 22.3907 60.8325 23.4173 60.8325 24.752H55.3865C55.4518 25.536 55.6945 26.11 56.1145 26.474C56.4505 26.7727 56.8892 26.922 57.4305 26.922C57.8132 26.922 58.1445 26.8287 58.4245 26.642C58.7045 26.4553 58.8912 26.208 58.9845 25.9ZM59.1105 23.604C59.0732 22.9227 58.8678 22.4233 58.4945 22.106C58.1865 21.8353 57.7852 21.7 57.2905 21.7C56.7492 21.7 56.3152 21.8773 55.9885 22.232C55.6898 22.5493 55.4985 23.0067 55.4145 23.604H59.1105ZM68.517 20.72L66.095 24.122L68.923 28H66.893L65.129 25.41L63.365 28H61.489L64.205 24.192L61.643 20.72H63.631L65.185 22.946L66.683 20.72H68.517ZM75.1117 25.928C75.2424 26.628 75.7697 26.978 76.6937 26.978C77.2071 26.978 77.5944 26.88 77.8557 26.684C78.0704 26.516 78.1777 26.2967 78.1777 26.026C78.1777 25.6807 77.9911 25.424 77.6177 25.256C77.4031 25.1627 76.9317 25.032 76.2037 24.864C75.3077 24.6587 74.6684 24.3787 74.2857 24.024C73.9031 23.6787 73.7117 23.226 73.7117 22.666C73.7117 21.9567 74.0011 21.4107 74.5797 21.028C75.0931 20.6827 75.7977 20.51 76.6937 20.51C77.6177 20.51 78.3597 20.7293 78.9197 21.168C79.4051 21.5413 79.7084 22.0453 79.8297 22.68H78.1217C77.9817 22.0547 77.4964 21.742 76.6657 21.742C75.8257 21.742 75.4057 21.9987 75.4057 22.512C75.4057 22.7733 75.5131 22.9693 75.7277 23.1C75.9424 23.2307 76.3764 23.3753 77.0297 23.534C78.0377 23.7673 78.7377 24.0287 79.1297 24.318C79.6244 24.682 79.8717 25.1953 79.8717 25.858C79.8717 26.614 79.5637 27.2067 78.9477 27.636C78.3877 28.0187 77.6317 28.21 76.6797 28.21C75.6811 28.21 74.8831 27.972 74.2857 27.496C73.7817 27.0947 73.4877 26.572 73.4037 25.928H75.1117ZM82.9842 28H81.3042V17.92H82.9842V21.476C83.5069 20.832 84.2115 20.51 85.0982 20.51C85.9755 20.51 86.6429 20.7807 87.1002 21.322C87.5109 21.798 87.7162 22.4467 87.7162 23.268V28H86.0362V23.31C86.0362 22.3113 85.5742 21.812 84.6502 21.812C84.1369 21.812 83.7262 21.9893 83.4182 22.344C83.1289 22.6707 82.9842 23.086 82.9842 23.59V28ZM90.965 22.778H89.215C89.3363 22.022 89.7143 21.4433 90.349 21.042C90.9183 20.6873 91.6323 20.51 92.491 20.51C93.527 20.51 94.3203 20.776 94.871 21.308C95.347 21.7653 95.585 22.358 95.585 23.086V28H94.241L94.031 27.104C93.4616 27.8413 92.6543 28.21 91.609 28.21C90.7783 28.21 90.1343 27.986 89.677 27.538C89.2756 27.146 89.075 26.6467 89.075 26.04C89.075 25.3587 89.3223 24.8267 89.817 24.444C90.265 24.0893 90.9603 23.8327 91.903 23.674L93.905 23.338V22.988C93.905 22.5493 93.7603 22.2227 93.471 22.008C93.219 21.812 92.8736 21.714 92.435 21.714C91.567 21.714 91.077 22.0687 90.965 22.778ZM93.905 24.444L92.323 24.724C91.7816 24.8267 91.3943 24.9713 91.161 25.158C90.9276 25.3353 90.811 25.5873 90.811 25.914C90.811 26.5953 91.2263 26.936 92.057 26.936C92.5983 26.936 93.0556 26.7587 93.429 26.404C93.7463 26.096 93.905 25.7367 93.905 25.326V24.444ZM101.57 20.608V22.232C101.262 22.1387 100.968 22.092 100.688 22.092C100.166 22.092 99.7456 22.3207 99.4283 22.778C99.1296 23.2167 98.9803 23.8233 98.9803 24.598V28H97.3003V20.72H98.6863L98.8963 21.812C99.307 20.944 99.9276 20.51 100.758 20.51C101.057 20.51 101.328 20.5427 101.57 20.608ZM107.315 25.9H109.079C108.883 26.6467 108.477 27.2253 107.861 27.636C107.273 28.0187 106.549 28.21 105.691 28.21C104.505 28.21 103.581 27.8367 102.919 27.09C102.312 26.4087 102.009 25.4987 102.009 24.36C102.009 23.0533 102.387 22.0547 103.143 21.364C103.777 20.7947 104.603 20.51 105.621 20.51C106.806 20.51 107.702 20.8973 108.309 21.672C108.878 22.3907 109.163 23.4173 109.163 24.752H103.717C103.782 25.536 104.025 26.11 104.445 26.474C104.781 26.7727 105.219 26.922 105.761 26.922C106.143 26.922 106.475 26.8287 106.755 26.642C107.035 26.4553 107.221 26.208 107.315 25.9ZM107.441 23.604C107.403 22.9227 107.198 22.4233 106.825 22.106C106.517 21.8353 106.115 21.7 105.621 21.7C105.079 21.7 104.645 21.8773 104.319 22.232C104.02 22.5493 103.829 23.0067 103.745 23.604H107.441Z" fill="white" fill-opacity="0.95"/>
<path d="M145.056 22.218V23.576H140.758V26.6H145.462V28H138.966V17.92H145.462V19.334H140.758V22.218H145.056ZM148.656 28H146.976V20.72H148.25L148.488 21.546C149.001 20.8553 149.725 20.51 150.658 20.51C151.675 20.51 152.399 20.874 152.828 21.602C153.351 20.874 154.144 20.51 155.208 20.51C156.048 20.51 156.692 20.7573 157.14 21.252C157.551 21.7093 157.756 22.3533 157.756 23.184V28H156.076V23.226C156.076 22.2833 155.637 21.812 154.76 21.812C154.256 21.812 153.855 22.008 153.556 22.4C153.323 22.7267 153.206 23.114 153.206 23.562V28H151.526V23.226C151.526 22.2833 151.087 21.812 150.21 21.812C149.734 21.812 149.347 21.9987 149.048 22.372C148.787 22.6893 148.656 23.0627 148.656 23.492V28ZM160.998 22.778H159.248C159.37 22.022 159.748 21.4433 160.382 21.042C160.952 20.6873 161.666 20.51 162.524 20.51C163.56 20.51 164.354 20.776 164.904 21.308C165.38 21.7653 165.618 22.358 165.618 23.086V28H164.274L164.064 27.104C163.495 27.8413 162.688 28.21 161.642 28.21C160.812 28.21 160.168 27.986 159.71 27.538C159.309 27.146 159.108 26.6467 159.108 26.04C159.108 25.3587 159.356 24.8267 159.85 24.444C160.298 24.0893 160.994 23.8327 161.936 23.674L163.938 23.338V22.988C163.938 22.5493 163.794 22.2227 163.504 22.008C163.252 21.812 162.907 21.714 162.468 21.714C161.6 21.714 161.11 22.0687 160.998 22.778ZM163.938 24.444L162.356 24.724C161.815 24.8267 161.428 24.9713 161.194 25.158C160.961 25.3353 160.844 25.5873 160.844 25.914C160.844 26.5953 161.26 26.936 162.09 26.936C162.632 26.936 163.089 26.7587 163.462 26.404C163.78 26.096 163.938 25.7367 163.938 25.326V24.444ZM169.098 19.614H167.25V17.92H169.098V19.614ZM169.014 28H167.334V20.72H169.014V28ZM172.486 17.92V28H170.806V17.92H172.486ZM179.461 25.928C179.592 26.628 180.119 26.978 181.043 26.978C181.557 26.978 181.944 26.88 182.205 26.684C182.42 26.516 182.527 26.2967 182.527 26.026C182.527 25.6807 182.341 25.424 181.967 25.256C181.753 25.1627 181.281 25.032 180.553 24.864C179.657 24.6587 179.018 24.3787 178.635 24.024C178.253 23.6787 178.061 23.226 178.061 22.666C178.061 21.9567 178.351 21.4107 178.929 21.028C179.443 20.6827 180.147 20.51 181.043 20.51C181.967 20.51 182.709 20.7293 183.269 21.168C183.755 21.5413 184.058 22.0453 184.179 22.68H182.471C182.331 22.0547 181.846 21.742 181.015 21.742C180.175 21.742 179.755 21.9987 179.755 22.512C179.755 22.7733 179.863 22.9693 180.077 23.1C180.292 23.2307 180.726 23.3753 181.379 23.534C182.387 23.7673 183.087 24.0287 183.479 24.318C183.974 24.682 184.221 25.1953 184.221 25.858C184.221 26.614 183.913 27.2067 183.297 27.636C182.737 28.0187 181.981 28.21 181.029 28.21C180.031 28.21 179.233 27.972 178.635 27.496C178.131 27.0947 177.837 26.572 177.753 25.928H179.461ZM187.334 28H185.654V17.92H187.334V21.476C187.856 20.832 188.561 20.51 189.448 20.51C190.325 20.51 190.992 20.7807 191.45 21.322C191.86 21.798 192.066 22.4467 192.066 23.268V28H190.386V23.31C190.386 22.3113 189.924 21.812 189 21.812C188.486 21.812 188.076 21.9893 187.768 22.344C187.478 22.6707 187.334 23.086 187.334 23.59V28ZM195.315 22.778H193.565C193.686 22.022 194.064 21.4433 194.699 21.042C195.268 20.6873 195.982 20.51 196.841 20.51C197.877 20.51 198.67 20.776 199.221 21.308C199.697 21.7653 199.935 22.358 199.935 23.086V28H198.591L198.381 27.104C197.811 27.8413 197.004 28.21 195.959 28.21C195.128 28.21 194.484 27.986 194.027 27.538C193.625 27.146 193.425 26.6467 193.425 26.04C193.425 25.3587 193.672 24.8267 194.167 24.444C194.615 24.0893 195.31 23.8327 196.253 23.674L198.255 23.338V22.988C198.255 22.5493 198.11 22.2227 197.821 22.008C197.569 21.812 197.223 21.714 196.785 21.714C195.917 21.714 195.427 22.0687 195.315 22.778ZM198.255 24.444L196.673 24.724C196.131 24.8267 195.744 24.9713 195.511 25.158C195.277 25.3353 195.161 25.5873 195.161 25.914C195.161 26.5953 195.576 26.936 196.407 26.936C196.948 26.936 197.405 26.7587 197.779 26.404C198.096 26.096 198.255 25.7367 198.255 25.326V24.444ZM205.92 20.608V22.232C205.612 22.1387 205.318 22.092 205.038 22.092C204.515 22.092 204.095 22.3207 203.778 22.778C203.479 23.2167 203.33 23.8233 203.33 24.598V28H201.65V20.72H203.036L203.246 21.812C203.657 20.944 204.277 20.51 205.108 20.51C205.407 20.51 205.677 20.5427 205.92 20.608ZM211.664 25.9H213.428C213.232 26.6467 212.826 27.2253 212.21 27.636C211.622 28.0187 210.899 28.21 210.04 28.21C208.855 28.21 207.931 27.8367 207.268 27.09C206.662 26.4087 206.358 25.4987 206.358 24.36C206.358 23.0533 206.736 22.0547 207.492 21.364C208.127 20.7947 208.953 20.51 209.97 20.51C211.156 20.51 212.052 20.8973 212.658 21.672C213.228 22.3907 213.512 23.4173 213.512 24.752H208.066C208.132 25.536 208.374 26.11 208.794 26.474C209.13 26.7727 209.569 26.922 210.11 26.922C210.493 26.922 210.824 26.8287 211.104 26.642C211.384 26.4553 211.571 26.208 211.664 25.9ZM211.79 23.604C211.753 22.9227 211.548 22.4233 211.174 22.106C210.866 21.8353 210.465 21.7 209.97 21.7C209.429 21.7 208.995 21.8773 208.668 22.232C208.37 22.5493 208.178 23.0067 208.094 23.604H211.79Z" fill="white" fill-opacity="0.7"/>
<path d="M1 47H511" stroke="white" stroke-opacity="0.4"/>
<path d="M511 48H1V46H511V48Z" fill="white" fill-opacity="0.2" mask="url(#path-9-inside-1_3846_6338)"/>
<rect x="20" y="67" width="472" height="32" rx="8" fill="black"/>
<rect x="20.5" y="67.5" width="471" height="31" rx="7.5" stroke="white" stroke-opacity="0.5"/>
<path d="M52.9453 88.5469V87C53.2786 87.3021 53.6979 87.5469 54.2031 87.7344C54.7135 87.9167 55.1953 88.0078 55.6484 88.0078C57.0911 88.0078 57.8125 87.4479 57.8125 86.3281C57.8125 85.8958 57.6667 85.5078 57.375 85.1641C57.0885 84.8151 56.4479 84.3594 55.4531 83.7969C54.5625 83.2917 53.9245 82.7995 53.5391 82.3203C53.1536 81.8411 52.9609 81.2682 52.9609 80.6016C52.9609 79.7266 53.2865 79.0104 53.9375 78.4531C54.5885 77.8906 55.4479 77.6094 56.5156 77.6094C57.5208 77.6094 58.2552 77.7422 58.7188 78.0078V79.4844C58.125 79.026 57.3698 78.7969 56.4531 78.7969C55.8021 78.7969 55.2865 78.9531 54.9062 79.2656C54.526 79.5781 54.3359 79.9844 54.3359 80.4844C54.3359 80.8958 54.4479 81.2682 54.6719 81.6016C54.901 81.9297 55.5156 82.3698 56.5156 82.9219C57.4844 83.4635 58.1719 83.9844 58.5781 84.4844C58.9844 84.9844 59.1875 85.5469 59.1875 86.1719C59.1875 87.0938 58.8646 87.8281 58.2188 88.375C57.5729 88.9167 56.6562 89.1875 55.4688 89.1875C55.0521 89.1875 54.5885 89.125 54.0781 89C53.5677 88.8698 53.1901 88.7188 52.9453 88.5469ZM67.6797 85.3203H62.0312C62.0521 86.2109 62.2917 86.8984 62.75 87.3828C63.2083 87.8672 63.8385 88.1094 64.6406 88.1094C65.5417 88.1094 66.3698 87.8125 67.125 87.2188V88.4219C66.4219 88.9323 65.4922 89.1875 64.3359 89.1875C63.2057 89.1875 62.3177 88.8255 61.6719 88.1016C61.026 87.3724 60.7031 86.349 60.7031 85.0312C60.7031 83.7865 61.0547 82.7734 61.7578 81.9922C62.4661 81.2057 63.3438 80.8125 64.3906 80.8125C65.4375 80.8125 66.2474 81.151 66.8203 81.8281C67.3932 82.5052 67.6797 83.4453 67.6797 84.6484V85.3203ZM66.3672 84.2344C66.362 83.4948 66.1823 82.9193 65.8281 82.5078C65.4792 82.0964 64.9922 81.8906 64.3672 81.8906C63.763 81.8906 63.25 82.1068 62.8281 82.5391C62.4062 82.9714 62.1458 83.5365 62.0469 84.2344H66.3672ZM75.3516 89H74.0703V87.75H74.0391C73.4818 88.7083 72.6615 89.1875 71.5781 89.1875C70.7812 89.1875 70.1562 88.9766 69.7031 88.5547C69.2552 88.1328 69.0312 87.5729 69.0312 86.875C69.0312 85.3802 69.9115 84.5104 71.6719 84.2656L74.0703 83.9297C74.0703 82.5703 73.5208 81.8906 72.4219 81.8906C71.4583 81.8906 70.5885 82.2188 69.8125 82.875V81.5625C70.599 81.0625 71.5052 80.8125 72.5312 80.8125C74.4115 80.8125 75.3516 81.8073 75.3516 83.7969V89ZM74.0703 84.9531L72.1406 85.2188C71.5469 85.3021 71.099 85.4505 70.7969 85.6641C70.4948 85.8724 70.3438 86.2448 70.3438 86.7812C70.3438 87.1719 70.4818 87.4922 70.7578 87.7422C71.0391 87.987 71.4115 88.1094 71.875 88.1094C72.5104 88.1094 73.0339 87.888 73.4453 87.4453C73.862 86.9974 74.0703 86.4323 74.0703 85.75V84.9531ZM81.9375 82.2969C81.7135 82.125 81.3906 82.0391 80.9688 82.0391C80.4219 82.0391 79.9635 82.2969 79.5938 82.8125C79.2292 83.3281 79.0469 84.0312 79.0469 84.9219V89H77.7656V81H79.0469V82.6484H79.0781C79.2604 82.0859 79.5391 81.6484 79.9141 81.3359C80.2891 81.0182 80.7083 80.8594 81.1719 80.8594C81.5052 80.8594 81.7604 80.8958 81.9375 80.9688V82.2969ZM88.5625 88.6328C87.9479 89.0026 87.2188 89.1875 86.375 89.1875C85.2344 89.1875 84.3125 88.8177 83.6094 88.0781C82.9115 87.3333 82.5625 86.3698 82.5625 85.1875C82.5625 83.8698 82.9401 82.8125 83.6953 82.0156C84.4505 81.2135 85.4583 80.8125 86.7188 80.8125C87.4219 80.8125 88.0417 80.9427 88.5781 81.2031V82.5156C87.9844 82.099 87.349 81.8906 86.6719 81.8906C85.8542 81.8906 85.1823 82.1849 84.6562 82.7734C84.1354 83.3568 83.875 84.125 83.875 85.0781C83.875 86.0156 84.1198 86.7552 84.6094 87.2969C85.1042 87.8385 85.7656 88.1094 86.5938 88.1094C87.2917 88.1094 87.9479 87.8776 88.5625 87.4141V88.6328ZM97.1406 89H95.8594V84.3906C95.8594 82.724 95.2396 81.8906 94 81.8906C93.375 81.8906 92.849 82.1328 92.4219 82.6172C91.9948 83.0964 91.7812 83.7135 91.7812 84.4688V89H90.5V77.1562H91.7812V82.3281H91.8125C92.4271 81.3177 93.3021 80.8125 94.4375 80.8125C96.2396 80.8125 97.1406 81.8984 97.1406 84.0703V89ZM107.906 78.2812C107.656 78.1406 107.372 78.0703 107.055 78.0703C106.159 78.0703 105.711 78.6354 105.711 79.7656V81H107.586V82.0938H105.711V89H104.438V82.0938H103.07V81H104.438V79.7031C104.438 78.8646 104.68 78.2031 105.164 77.7188C105.648 77.2292 106.253 76.9844 106.977 76.9844C107.367 76.9844 107.677 77.0312 107.906 77.125V78.2812ZM112.312 89.1875C111.13 89.1875 110.185 88.8151 109.477 88.0703C108.773 87.3203 108.422 86.3281 108.422 85.0938C108.422 83.75 108.789 82.7005 109.523 81.9453C110.258 81.1901 111.25 80.8125 112.5 80.8125C113.693 80.8125 114.622 81.1797 115.289 81.9141C115.961 82.6484 116.297 83.6667 116.297 84.9688C116.297 86.2448 115.935 87.2682 115.211 88.0391C114.492 88.8047 113.526 89.1875 112.312 89.1875ZM112.406 81.8906C111.583 81.8906 110.932 82.1719 110.453 82.7344C109.974 83.2917 109.734 84.0625 109.734 85.0469C109.734 85.9948 109.977 86.7422 110.461 87.2891C110.945 87.8359 111.594 88.1094 112.406 88.1094C113.234 88.1094 113.87 87.8411 114.312 87.3047C114.76 86.7682 114.984 86.0052 114.984 85.0156C114.984 84.0156 114.76 83.2448 114.312 82.7031C113.87 82.1615 113.234 81.8906 112.406 81.8906ZM122.516 82.2969C122.292 82.125 121.969 82.0391 121.547 82.0391C121 82.0391 120.542 82.2969 120.172 82.8125C119.807 83.3281 119.625 84.0312 119.625 84.9219V89H118.344V81H119.625V82.6484H119.656C119.839 82.0859 120.117 81.6484 120.492 81.3359C120.867 81.0182 121.286 80.8594 121.75 80.8594C122.083 80.8594 122.339 80.8958 122.516 80.9688V82.2969ZM134.023 89H132.742V87.75H132.711C132.154 88.7083 131.333 89.1875 130.25 89.1875C129.453 89.1875 128.828 88.9766 128.375 88.5547C127.927 88.1328 127.703 87.5729 127.703 86.875C127.703 85.3802 128.583 84.5104 130.344 84.2656L132.742 83.9297C132.742 82.5703 132.193 81.8906 131.094 81.8906C130.13 81.8906 129.26 82.2188 128.484 82.875V81.5625C129.271 81.0625 130.177 80.8125 131.203 80.8125C133.083 80.8125 134.023 81.8073 134.023 83.7969V89ZM132.742 84.9531L130.812 85.2188C130.219 85.3021 129.771 85.4505 129.469 85.6641C129.167 85.8724 129.016 86.2448 129.016 86.7812C129.016 87.1719 129.154 87.4922 129.43 87.7422C129.711 87.987 130.083 88.1094 130.547 88.1094C131.182 88.1094 131.706 87.888 132.117 87.4453C132.534 86.9974 132.742 86.4323 132.742 85.75V84.9531ZM142.141 87.8438H142.109V92.6797H140.828V81H142.109V82.4062H142.141C142.771 81.3438 143.693 80.8125 144.906 80.8125C145.938 80.8125 146.742 81.1719 147.32 81.8906C147.898 82.6042 148.188 83.5625 148.188 84.7656C148.188 86.1042 147.862 87.1771 147.211 87.9844C146.56 88.7865 145.669 89.1875 144.539 89.1875C143.503 89.1875 142.703 88.7396 142.141 87.8438ZM142.109 84.6172V85.7344C142.109 86.3958 142.323 86.9583 142.75 87.4219C143.182 87.8802 143.729 88.1094 144.391 88.1094C145.167 88.1094 145.773 87.8125 146.211 87.2188C146.654 86.625 146.875 85.7995 146.875 84.7422C146.875 83.8516 146.669 83.1536 146.258 82.6484C145.846 82.1432 145.289 81.8906 144.586 81.8906C143.841 81.8906 143.242 82.151 142.789 82.6719C142.336 83.1875 142.109 83.8359 142.109 84.6172ZM156.664 85.3203H151.016C151.036 86.2109 151.276 86.8984 151.734 87.3828C152.193 87.8672 152.823 88.1094 153.625 88.1094C154.526 88.1094 155.354 87.8125 156.109 87.2188V88.4219C155.406 88.9323 154.477 89.1875 153.32 89.1875C152.19 89.1875 151.302 88.8255 150.656 88.1016C150.01 87.3724 149.688 86.349 149.688 85.0312C149.688 83.7865 150.039 82.7734 150.742 81.9922C151.451 81.2057 152.328 80.8125 153.375 80.8125C154.422 80.8125 155.232 81.151 155.805 81.8281C156.378 82.5052 156.664 83.4453 156.664 84.6484V85.3203ZM155.352 84.2344C155.346 83.4948 155.167 82.9193 154.812 82.5078C154.464 82.0964 153.977 81.8906 153.352 81.8906C152.747 81.8906 152.234 82.1068 151.812 82.5391C151.391 82.9714 151.13 83.5365 151.031 84.2344H155.352ZM162.781 82.2969C162.557 82.125 162.234 82.0391 161.812 82.0391C161.266 82.0391 160.807 82.2969 160.438 82.8125C160.073 83.3281 159.891 84.0312 159.891 84.9219V89H158.609V81H159.891V82.6484H159.922C160.104 82.0859 160.383 81.6484 160.758 81.3359C161.133 81.0182 161.552 80.8594 162.016 80.8594C162.349 80.8594 162.604 80.8958 162.781 80.9688V82.2969ZM163.797 88.7109V87.3359C164.422 87.8516 165.115 88.1094 165.875 88.1094C166.891 88.1094 167.398 87.7344 167.398 86.9844C167.398 86.6719 167.286 86.4141 167.062 86.2109C166.839 86.0078 166.401 85.7656 165.75 85.4844C164.984 85.1458 164.469 84.7995 164.203 84.4453C163.943 84.0859 163.812 83.6458 163.812 83.125C163.812 82.4583 164.076 81.9062 164.602 81.4688C165.128 81.0312 165.805 80.8125 166.633 80.8125C167.268 80.8125 167.839 80.9323 168.344 81.1719V82.4688C167.818 82.0833 167.214 81.8906 166.531 81.8906C166.104 81.8906 165.763 81.9948 165.508 82.2031C165.253 82.4115 165.125 82.6823 165.125 83.0156C165.125 83.3385 165.216 83.599 165.398 83.7969C165.586 83.9948 166.003 84.2292 166.648 84.5C167.435 84.8333 167.974 85.1823 168.266 85.5469C168.562 85.9115 168.711 86.349 168.711 86.8594C168.711 87.5417 168.448 88.1016 167.922 88.5391C167.396 88.9714 166.682 89.1875 165.781 89.1875C165.021 89.1875 164.359 89.0286 163.797 88.7109ZM174 89.1875C172.818 89.1875 171.872 88.8151 171.164 88.0703C170.461 87.3203 170.109 86.3281 170.109 85.0938C170.109 83.75 170.477 82.7005 171.211 81.9453C171.945 81.1901 172.938 80.8125 174.188 80.8125C175.38 80.8125 176.31 81.1797 176.977 81.9141C177.648 82.6484 177.984 83.6667 177.984 84.9688C177.984 86.2448 177.622 87.2682 176.898 88.0391C176.18 88.8047 175.214 89.1875 174 89.1875ZM174.094 81.8906C173.271 81.8906 172.62 82.1719 172.141 82.7344C171.661 83.2917 171.422 84.0625 171.422 85.0469C171.422 85.9948 171.664 86.7422 172.148 87.2891C172.633 87.8359 173.281 88.1094 174.094 88.1094C174.922 88.1094 175.557 87.8411 176 87.3047C176.448 86.7682 176.672 86.0052 176.672 85.0156C176.672 84.0156 176.448 83.2448 176 82.7031C175.557 82.1615 174.922 81.8906 174.094 81.8906ZM186.672 89H185.391V84.4375C185.391 82.7396 184.771 81.8906 183.531 81.8906C182.891 81.8906 182.359 82.1328 181.938 82.6172C181.521 83.0964 181.312 83.7031 181.312 84.4375V89H180.031V81H181.312V82.3281H181.344C181.948 81.3177 182.823 80.8125 183.969 80.8125C184.844 80.8125 185.513 81.0964 185.977 81.6641C186.44 82.2266 186.672 83.0417 186.672 84.1094V89ZM196.828 89.1875C195.646 89.1875 194.701 88.8151 193.992 88.0703C193.289 87.3203 192.938 86.3281 192.938 85.0938C192.938 83.75 193.305 82.7005 194.039 81.9453C194.773 81.1901 195.766 80.8125 197.016 80.8125C198.208 80.8125 199.138 81.1797 199.805 81.9141C200.477 82.6484 200.812 83.6667 200.812 84.9688C200.812 86.2448 200.451 87.2682 199.727 88.0391C199.008 88.8047 198.042 89.1875 196.828 89.1875ZM196.922 81.8906C196.099 81.8906 195.448 82.1719 194.969 82.7344C194.49 83.2917 194.25 84.0625 194.25 85.0469C194.25 85.9948 194.492 86.7422 194.977 87.2891C195.461 87.8359 196.109 88.1094 196.922 88.1094C197.75 88.1094 198.385 87.8411 198.828 87.3047C199.276 86.7682 199.5 86.0052 199.5 85.0156C199.5 84.0156 199.276 83.2448 198.828 82.7031C198.385 82.1615 197.75 81.8906 196.922 81.8906ZM207.031 82.2969C206.807 82.125 206.484 82.0391 206.062 82.0391C205.516 82.0391 205.057 82.2969 204.688 82.8125C204.323 83.3281 204.141 84.0312 204.141 84.9219V89H202.859V81H204.141V82.6484H204.172C204.354 82.0859 204.633 81.6484 205.008 81.3359C205.383 81.0182 205.802 80.8594 206.266 80.8594C206.599 80.8594 206.854 80.8958 207.031 80.9688V82.2969ZM212.328 88.7109V87.3359C212.953 87.8516 213.646 88.1094 214.406 88.1094C215.422 88.1094 215.93 87.7344 215.93 86.9844C215.93 86.6719 215.818 86.4141 215.594 86.2109C215.37 86.0078 214.932 85.7656 214.281 85.4844C213.516 85.1458 213 84.7995 212.734 84.4453C212.474 84.0859 212.344 83.6458 212.344 83.125C212.344 82.4583 212.607 81.9062 213.133 81.4688C213.659 81.0312 214.336 80.8125 215.164 80.8125C215.799 80.8125 216.37 80.9323 216.875 81.1719V82.4688C216.349 82.0833 215.745 81.8906 215.062 81.8906C214.635 81.8906 214.294 81.9948 214.039 82.2031C213.784 82.4115 213.656 82.6823 213.656 83.0156C213.656 83.3385 213.747 83.599 213.93 83.7969C214.117 83.9948 214.534 84.2292 215.18 84.5C215.966 84.8333 216.505 85.1823 216.797 85.5469C217.094 85.9115 217.242 86.349 217.242 86.8594C217.242 87.5417 216.979 88.1016 216.453 88.5391C215.927 88.9714 215.214 89.1875 214.312 89.1875C213.552 89.1875 212.891 89.0286 212.328 88.7109ZM220.5 87.8438H220.469V92.6797H219.188V81H220.469V82.4062H220.5C221.13 81.3438 222.052 80.8125 223.266 80.8125C224.297 80.8125 225.102 81.1719 225.68 81.8906C226.258 82.6042 226.547 83.5625 226.547 84.7656C226.547 86.1042 226.221 87.1771 225.57 87.9844C224.919 88.7865 224.029 89.1875 222.898 89.1875C221.862 89.1875 221.062 88.7396 220.5 87.8438ZM220.469 84.6172V85.7344C220.469 86.3958 220.682 86.9583 221.109 87.4219C221.542 87.8802 222.089 88.1094 222.75 88.1094C223.526 88.1094 224.133 87.8125 224.57 87.2188C225.013 86.625 225.234 85.7995 225.234 84.7422C225.234 83.8516 225.029 83.1536 224.617 82.6484C224.206 82.1432 223.648 81.8906 222.945 81.8906C222.201 81.8906 221.602 82.151 221.148 82.6719C220.695 83.1875 220.469 83.8359 220.469 84.6172ZM234.102 89H232.82V87.75H232.789C232.232 88.7083 231.411 89.1875 230.328 89.1875C229.531 89.1875 228.906 88.9766 228.453 88.5547C228.005 88.1328 227.781 87.5729 227.781 86.875C227.781 85.3802 228.661 84.5104 230.422 84.2656L232.82 83.9297C232.82 82.5703 232.271 81.8906 231.172 81.8906C230.208 81.8906 229.339 82.2188 228.562 82.875V81.5625C229.349 81.0625 230.255 80.8125 231.281 80.8125C233.161 80.8125 234.102 81.8073 234.102 83.7969V89ZM232.82 84.9531L230.891 85.2188C230.297 85.3021 229.849 85.4505 229.547 85.6641C229.245 85.8724 229.094 86.2448 229.094 86.7812C229.094 87.1719 229.232 87.4922 229.508 87.7422C229.789 87.987 230.161 88.1094 230.625 88.1094C231.26 88.1094 231.784 87.888 232.195 87.4453C232.612 86.9974 232.82 86.4323 232.82 85.75V84.9531ZM241.969 88.6328C241.354 89.0026 240.625 89.1875 239.781 89.1875C238.641 89.1875 237.719 88.8177 237.016 88.0781C236.318 87.3333 235.969 86.3698 235.969 85.1875C235.969 83.8698 236.346 82.8125 237.102 82.0156C237.857 81.2135 238.865 80.8125 240.125 80.8125C240.828 80.8125 241.448 80.9427 241.984 81.2031V82.5156C241.391 82.099 240.755 81.8906 240.078 81.8906C239.26 81.8906 238.589 82.1849 238.062 82.7734C237.542 83.3568 237.281 84.125 237.281 85.0781C237.281 86.0156 237.526 86.7552 238.016 87.2969C238.51 87.8385 239.172 88.1094 240 88.1094C240.698 88.1094 241.354 87.8776 241.969 87.4141V88.6328ZM250.336 85.3203H244.688C244.708 86.2109 244.948 86.8984 245.406 87.3828C245.865 87.8672 246.495 88.1094 247.297 88.1094C248.198 88.1094 249.026 87.8125 249.781 87.2188V88.4219C249.078 88.9323 248.148 89.1875 246.992 89.1875C245.862 89.1875 244.974 88.8255 244.328 88.1016C243.682 87.3724 243.359 86.349 243.359 85.0312C243.359 83.7865 243.711 82.7734 244.414 81.9922C245.122 81.2057 246 80.8125 247.047 80.8125C248.094 80.8125 248.904 81.151 249.477 81.8281C250.049 82.5052 250.336 83.4453 250.336 84.6484V85.3203ZM249.023 84.2344C249.018 83.4948 248.839 82.9193 248.484 82.5078C248.135 82.0964 247.648 81.8906 247.023 81.8906C246.419 81.8906 245.906 82.1068 245.484 82.5391C245.062 82.9714 244.802 83.5365 244.703 84.2344H249.023ZM257.984 87.8438H257.953V89H256.672V77.1562H257.953V82.4062H257.984C258.615 81.3438 259.536 80.8125 260.75 80.8125C261.776 80.8125 262.578 81.1719 263.156 81.8906C263.74 82.6042 264.031 83.5625 264.031 84.7656C264.031 86.1042 263.706 87.1771 263.055 87.9844C262.404 88.7865 261.513 89.1875 260.383 89.1875C259.326 89.1875 258.526 88.7396 257.984 87.8438ZM257.953 84.6172V85.7344C257.953 86.3958 258.167 86.9583 258.594 87.4219C259.026 87.8802 259.573 88.1094 260.234 88.1094C261.01 88.1094 261.617 87.8125 262.055 87.2188C262.497 86.625 262.719 85.7995 262.719 84.7422C262.719 83.8516 262.513 83.1536 262.102 82.6484C261.69 82.1432 261.133 81.8906 260.43 81.8906C259.685 81.8906 259.086 82.151 258.633 82.6719C258.18 83.1875 257.953 83.8359 257.953 84.6172ZM272.445 81L268.766 90.2812C268.109 91.9375 267.188 92.7656 266 92.7656C265.667 92.7656 265.388 92.7318 265.164 92.6641V91.5156C265.44 91.6094 265.693 91.6562 265.922 91.6562C266.568 91.6562 267.052 91.2708 267.375 90.5L268.016 88.9844L264.891 81H266.312L268.477 87.1562C268.503 87.2344 268.557 87.4375 268.641 87.7656H268.688C268.714 87.6406 268.766 87.4427 268.844 87.1719L271.117 81H272.445ZM284.859 89H283.578V84.4375C283.578 82.7396 282.958 81.8906 281.719 81.8906C281.078 81.8906 280.547 82.1328 280.125 82.6172C279.708 83.0964 279.5 83.7031 279.5 84.4375V89H278.219V81H279.5V82.3281H279.531C280.135 81.3177 281.01 80.8125 282.156 80.8125C283.031 80.8125 283.701 81.0964 284.164 81.6641C284.628 82.2266 284.859 83.0417 284.859 84.1094V89ZM293.008 89H291.727V87.75H291.695C291.138 88.7083 290.318 89.1875 289.234 89.1875C288.438 89.1875 287.812 88.9766 287.359 88.5547C286.911 88.1328 286.688 87.5729 286.688 86.875C286.688 85.3802 287.568 84.5104 289.328 84.2656L291.727 83.9297C291.727 82.5703 291.177 81.8906 290.078 81.8906C289.115 81.8906 288.245 82.2188 287.469 82.875V81.5625C288.255 81.0625 289.161 80.8125 290.188 80.8125C292.068 80.8125 293.008 81.8073 293.008 83.7969V89ZM291.727 84.9531L289.797 85.2188C289.203 85.3021 288.755 85.4505 288.453 85.6641C288.151 85.8724 288 86.2448 288 86.7812C288 87.1719 288.138 87.4922 288.414 87.7422C288.695 87.987 289.068 88.1094 289.531 88.1094C290.167 88.1094 290.69 87.888 291.102 87.4453C291.518 86.9974 291.727 86.4323 291.727 85.75V84.9531ZM306.781 89H305.5V84.4062C305.5 83.5208 305.362 82.8802 305.086 82.4844C304.815 82.0885 304.357 81.8906 303.711 81.8906C303.164 81.8906 302.698 82.1406 302.312 82.6406C301.932 83.1406 301.742 83.7396 301.742 84.4375V89H300.461V84.25C300.461 82.6771 299.854 81.8906 298.641 81.8906C298.078 81.8906 297.615 82.1276 297.25 82.6016C296.885 83.0703 296.703 83.6823 296.703 84.4375V89H295.422V81H296.703V82.2656H296.734C297.302 81.2969 298.13 80.8125 299.219 80.8125C299.766 80.8125 300.242 80.9661 300.648 81.2734C301.055 81.5755 301.333 81.974 301.484 82.4688C302.078 81.3646 302.964 80.8125 304.141 80.8125C305.901 80.8125 306.781 81.8984 306.781 84.0703V89ZM315.633 85.3203H309.984C310.005 86.2109 310.245 86.8984 310.703 87.3828C311.161 87.8672 311.792 88.1094 312.594 88.1094C313.495 88.1094 314.323 87.8125 315.078 87.2188V88.4219C314.375 88.9323 313.445 89.1875 312.289 89.1875C311.159 89.1875 310.271 88.8255 309.625 88.1016C308.979 87.3724 308.656 86.349 308.656 85.0312C308.656 83.7865 309.008 82.7734 309.711 81.9922C310.419 81.2057 311.297 80.8125 312.344 80.8125C313.391 80.8125 314.201 81.151 314.773 81.8281C315.346 82.5052 315.633 83.4453 315.633 84.6484V85.3203ZM314.32 84.2344C314.315 83.4948 314.135 82.9193 313.781 82.5078C313.432 82.0964 312.945 81.8906 312.32 81.8906C311.716 81.8906 311.203 82.1068 310.781 82.5391C310.359 82.9714 310.099 83.5365 310 84.2344H314.32Z" fill="white" fill-opacity="0.7"/>
<path d="M42.8533 89.1463L40.9316 87.2246C42.0259 85.9474 42.5831 84.2961 42.4861 82.617C42.3891 80.9379 41.6455 79.3617 40.4114 78.219C39.1773 77.0764 37.5486 76.4562 35.867 76.4885C34.1855 76.5208 32.5818 77.2032 31.3925 78.3925C30.2033 79.5818 29.5209 81.1854 29.4885 82.867C29.4562 84.5485 30.0764 86.1773 31.219 87.4114C32.3617 88.6455 33.9379 89.3891 35.617 89.4861C37.296 89.5831 38.9474 89.0259 40.2245 87.9316L42.1463 89.8533C42.1927 89.8998 42.2478 89.9366 42.3085 89.9617C42.3691 89.9868 42.4341 89.9998 42.4998 89.9998C42.5654 89.9998 42.6305 89.9868 42.6911 89.9617C42.7518 89.9366 42.8069 89.8998 42.8533 89.8533C42.8997 89.8069 42.9366 89.7518 42.9617 89.6911C42.9868 89.6305 42.9997 89.5655 42.9997 89.4998C42.9997 89.4342 42.9868 89.3692 42.9617 89.3085C42.9366 89.2478 42.8997 89.1927 42.8533 89.1463ZM32.1106 86.889C31.3414 86.1198 30.8176 85.1397 30.6054 84.0728C30.3931 83.0059 30.5021 81.9 30.9184 80.895C31.3346 79.89 32.0396 79.031 32.9441 78.4266C33.8486 77.8223 34.912 77.4997 35.9998 77.4997C37.0876 77.4997 38.151 77.8223 39.0555 78.4266C39.96 79.031 40.6649 79.89 41.0812 80.895C41.4975 81.9 41.6064 83.0059 41.3942 84.0728C41.182 85.1397 40.6582 86.1198 39.8889 86.889C38.8566 87.9187 37.4579 88.497 35.9998 88.497C34.5416 88.497 33.143 87.9187 32.1106 86.889Z" fill="white" fill-opacity="0.95"/>
<path d="M287.838 336.208H285.774C285.646 335.397 285.294 334.779 284.718 334.352C284.217 333.989 283.603 333.808 282.878 333.808C281.779 333.808 280.942 334.219 280.366 335.04C279.822 335.797 279.55 336.859 279.55 338.224C279.55 339.771 279.897 340.933 280.59 341.712C281.145 342.341 281.875 342.656 282.782 342.656C283.71 342.656 284.451 342.373 285.006 341.808C285.486 341.317 285.753 340.672 285.806 339.872H287.886C287.769 341.248 287.198 342.341 286.174 343.152C285.257 343.877 284.115 344.24 282.75 344.24C281.022 344.24 279.683 343.659 278.734 342.496C277.87 341.44 277.438 340.016 277.438 338.224C277.438 336.187 278.003 334.64 279.134 333.584C280.083 332.688 281.331 332.24 282.878 332.24C284.329 332.24 285.523 332.661 286.462 333.504C287.262 334.219 287.721 335.12 287.838 336.208ZM291.268 338.032H289.268C289.407 337.168 289.839 336.507 290.564 336.048C291.215 335.643 292.031 335.44 293.012 335.44C294.196 335.44 295.103 335.744 295.732 336.352C296.276 336.875 296.548 337.552 296.548 338.384V344H295.012L294.772 342.976C294.121 343.819 293.199 344.24 292.004 344.24C291.055 344.24 290.319 343.984 289.796 343.472C289.337 343.024 289.108 342.453 289.108 341.76C289.108 340.981 289.391 340.373 289.956 339.936C290.468 339.531 291.263 339.237 292.34 339.056L294.628 338.672V338.272C294.628 337.771 294.463 337.397 294.132 337.152C293.844 336.928 293.449 336.816 292.948 336.816C291.956 336.816 291.396 337.221 291.268 338.032ZM294.628 339.936L292.82 340.256C292.201 340.373 291.759 340.539 291.492 340.752C291.225 340.955 291.092 341.243 291.092 341.616C291.092 342.395 291.567 342.784 292.516 342.784C293.135 342.784 293.657 342.581 294.084 342.176C294.447 341.824 294.628 341.413 294.628 340.944V339.936ZM300.428 344H298.508V335.68H300.092L300.3 336.672C300.908 335.851 301.751 335.44 302.828 335.44C303.831 335.44 304.599 335.749 305.132 336.368C305.602 336.912 305.836 337.653 305.836 338.592V344H303.916V338.64C303.916 337.499 303.388 336.928 302.332 336.928C301.756 336.928 301.287 337.131 300.924 337.536C300.594 337.909 300.428 338.379 300.428 338.944V344ZM313.245 341.296H315.293C315.133 342.224 314.691 342.955 313.965 343.488C313.283 343.989 312.44 344.24 311.437 344.24C310.115 344.24 309.091 343.819 308.365 342.976C307.715 342.219 307.389 341.2 307.389 339.92C307.389 338.427 307.805 337.28 308.637 336.48C309.363 335.787 310.301 335.44 311.453 335.44C312.531 335.44 313.421 335.717 314.125 336.272C314.744 336.763 315.123 337.397 315.261 338.176H313.181C313.085 337.781 312.888 337.472 312.589 337.248C312.291 337.013 311.928 336.896 311.501 336.896C310.808 336.896 310.28 337.173 309.917 337.728C309.576 338.251 309.405 338.997 309.405 339.968C309.405 340.949 309.635 341.691 310.093 342.192C310.456 342.587 310.915 342.784 311.469 342.784C311.939 342.784 312.323 342.656 312.621 342.4C312.931 342.144 313.139 341.776 313.245 341.296ZM322.547 341.6H324.563C324.339 342.453 323.875 343.115 323.171 343.584C322.499 344.021 321.672 344.24 320.691 344.24C319.336 344.24 318.28 343.813 317.523 342.96C316.83 342.181 316.483 341.141 316.483 339.84C316.483 338.347 316.915 337.205 317.779 336.416C318.504 335.765 319.448 335.44 320.611 335.44C321.966 335.44 322.99 335.883 323.683 336.768C324.334 337.589 324.659 338.763 324.659 340.288H318.435C318.51 341.184 318.787 341.84 319.267 342.256C319.651 342.597 320.152 342.768 320.771 342.768C321.208 342.768 321.587 342.661 321.907 342.448C322.227 342.235 322.44 341.952 322.547 341.6ZM322.691 338.976C322.648 338.197 322.414 337.627 321.987 337.264C321.635 336.955 321.176 336.8 320.611 336.8C319.992 336.8 319.496 337.003 319.123 337.408C318.782 337.771 318.563 338.293 318.467 338.976H322.691ZM328.225 332.48V344H326.305V332.48H328.225Z" fill="white" fill-opacity="0.4"/>
<rect x="243.5" y="323.5" width="119" height="31" rx="15.5" stroke="white" stroke-opacity="0.2"/>
<rect x="371" y="323" width="120" height="32" rx="16" fill="white" fill-opacity="0.2"/>
<path d="M409.497 340.704H411.529C411.625 341.355 411.934 341.856 412.457 342.208C412.937 342.528 413.55 342.688 414.297 342.688C415.203 342.688 415.886 342.501 416.345 342.128C416.707 341.819 416.889 341.424 416.889 340.944C416.889 340.368 416.611 339.925 416.057 339.616C415.609 339.349 414.777 339.056 413.561 338.736C412.217 338.384 411.267 337.947 410.713 337.424C410.169 336.901 409.897 336.208 409.897 335.344C409.897 334.341 410.318 333.563 411.161 333.008C411.929 332.496 412.953 332.24 414.233 332.24C415.598 332.24 416.691 332.555 417.513 333.184C418.227 333.739 418.654 334.475 418.793 335.392H416.777C416.702 334.848 416.414 334.432 415.913 334.144C415.465 333.899 414.894 333.776 414.201 333.776C413.39 333.776 412.793 333.925 412.409 334.224C412.11 334.459 411.961 334.773 411.961 335.168C411.961 335.659 412.169 336.032 412.585 336.288C412.958 336.523 413.667 336.773 414.713 337.04C416.281 337.456 417.385 337.952 418.025 338.528C418.643 339.093 418.953 339.845 418.953 340.784C418.953 341.829 418.51 342.672 417.625 343.312C416.782 343.931 415.678 344.24 414.313 344.24C412.894 344.24 411.742 343.877 410.857 343.152C410.099 342.523 409.646 341.707 409.497 340.704ZM422.491 344H420.571V332.48H422.491V336.544C423.088 335.808 423.894 335.44 424.907 335.44C425.91 335.44 426.672 335.749 427.195 336.368C427.664 336.912 427.899 337.653 427.899 338.592V344H425.979V338.64C425.979 337.499 425.451 336.928 424.395 336.928C423.808 336.928 423.339 337.131 422.987 337.536C422.656 337.909 422.491 338.384 422.491 338.96V344ZM431.612 338.032H429.612C429.75 337.168 430.182 336.507 430.908 336.048C431.558 335.643 432.374 335.44 433.356 335.44C434.54 335.44 435.446 335.744 436.076 336.352C436.62 336.875 436.892 337.552 436.892 338.384V344H435.356L435.116 342.976C434.465 343.819 433.542 344.24 432.348 344.24C431.398 344.24 430.662 343.984 430.14 343.472C429.681 343.024 429.452 342.453 429.452 341.76C429.452 340.981 429.734 340.373 430.3 339.936C430.812 339.531 431.606 339.237 432.684 339.056L434.972 338.672V338.272C434.972 337.771 434.806 337.397 434.476 337.152C434.188 336.928 433.793 336.816 433.292 336.816C432.3 336.816 431.74 337.221 431.612 338.032ZM434.972 339.936L433.164 340.256C432.545 340.373 432.102 340.539 431.836 340.752C431.569 340.955 431.436 341.243 431.436 341.616C431.436 342.395 431.91 342.784 432.86 342.784C433.478 342.784 434.001 342.581 434.428 342.176C434.79 341.824 434.972 341.413 434.972 340.944V339.936ZM443.732 335.552V337.408C443.38 337.301 443.044 337.248 442.724 337.248C442.127 337.248 441.647 337.509 441.284 338.032C440.943 338.533 440.772 339.227 440.772 340.112V344H438.852V335.68H440.436L440.676 336.928C441.145 335.936 441.855 335.44 442.804 335.44C443.145 335.44 443.455 335.477 443.732 335.552ZM450.297 341.6H452.313C452.089 342.453 451.625 343.115 450.921 343.584C450.249 344.021 449.422 344.24 448.441 344.24C447.086 344.24 446.03 343.813 445.273 342.96C444.58 342.181 444.233 341.141 444.233 339.84C444.233 338.347 444.665 337.205 445.529 336.416C446.254 335.765 447.198 335.44 448.361 335.44C449.716 335.44 450.74 335.883 451.433 336.768C452.084 337.589 452.409 338.763 452.409 340.288H446.185C446.26 341.184 446.537 341.84 447.017 342.256C447.401 342.597 447.902 342.768 448.521 342.768C448.958 342.768 449.337 342.661 449.657 342.448C449.977 342.235 450.19 341.952 450.297 341.6ZM450.441 338.976C450.398 338.197 450.164 337.627 449.737 337.264C449.385 336.955 448.926 336.8 448.361 336.8C447.742 336.8 447.246 337.003 446.873 337.408C446.532 337.771 446.313 338.293 446.217 338.976H450.441Z" fill="white" fill-opacity="0.4"/>
<path d="M511 304H1V302H511V304Z" fill="white" fill-opacity="0.2" mask="url(#path-15-inside-2_3846_6338)"/>
<path d="M406.033 276.208H403.969C403.841 275.397 403.489 274.779 402.913 274.352C402.412 273.989 401.799 273.808 401.073 273.808C399.975 273.808 399.137 274.219 398.561 275.04C398.017 275.797 397.745 276.859 397.745 278.224C397.745 279.771 398.092 280.933 398.785 281.712C399.34 282.341 400.071 282.656 400.977 282.656C401.905 282.656 402.647 282.373 403.201 281.808C403.681 281.317 403.948 280.672 404.001 279.872H406.081C405.964 281.248 405.393 282.341 404.369 283.152C403.452 283.877 402.311 284.24 400.945 284.24C399.217 284.24 397.879 283.659 396.929 282.496C396.065 281.44 395.633 280.016 395.633 278.224C395.633 276.187 396.199 274.64 397.329 273.584C398.279 272.688 399.527 272.24 401.073 272.24C402.524 272.24 403.719 272.661 404.657 273.504C405.457 274.219 405.916 275.12 406.033 276.208ZM407.303 279.824C407.303 278.309 407.751 277.163 408.647 276.384C409.383 275.755 410.343 275.44 411.527 275.44C412.903 275.44 413.965 275.856 414.711 276.688C415.405 277.445 415.751 278.491 415.751 279.824C415.751 281.339 415.314 282.485 414.439 283.264C413.703 283.915 412.733 284.24 411.527 284.24C410.162 284.24 409.101 283.813 408.343 282.96C407.65 282.181 407.303 281.136 407.303 279.824ZM411.543 282.816C412.301 282.816 412.866 282.539 413.239 281.984C413.591 281.483 413.767 280.763 413.767 279.824C413.767 278.757 413.533 277.973 413.063 277.472C412.69 277.067 412.178 276.864 411.527 276.864C410.781 276.864 410.215 277.136 409.831 277.68C409.469 278.181 409.287 278.896 409.287 279.824C409.287 280.88 409.522 281.664 409.991 282.176C410.386 282.603 410.903 282.816 411.543 282.816ZM417.376 275.68H418.896L419.232 276.704C419.904 275.861 420.816 275.44 421.968 275.44C423.162 275.44 424.09 275.861 424.752 276.704C425.349 277.472 425.648 278.485 425.648 279.744C425.648 281.248 425.237 282.405 424.416 283.216C423.733 283.899 422.864 284.24 421.808 284.24C420.741 284.24 419.904 283.851 419.296 283.072V286.88H417.376V275.68ZM423.68 279.76C423.68 278.768 423.445 278.027 422.976 277.536C422.602 277.152 422.106 276.96 421.488 276.96C420.773 276.96 420.208 277.221 419.792 277.744C419.408 278.245 419.216 278.912 419.216 279.744C419.216 280.789 419.45 281.568 419.92 282.08C420.314 282.507 420.826 282.72 421.456 282.72C422.192 282.72 422.752 282.448 423.136 281.904C423.498 281.392 423.68 280.677 423.68 279.76ZM434.409 275.68L431.481 284.144C431.097 285.264 430.692 286.037 430.265 286.464C429.839 286.901 429.284 287.12 428.601 287.12C428.26 287.12 427.881 287.067 427.465 286.96V285.52C427.796 285.605 428.095 285.648 428.361 285.648C428.703 285.648 428.975 285.499 429.177 285.2C429.327 284.976 429.497 284.576 429.689 284H429.097L426.073 275.68H428.137L430.281 282.528L432.489 275.68H434.409ZM442.03 272.48V284H440.11V272.48H442.03ZM446.095 274.416H443.983V272.48H446.095V274.416ZM445.999 284H444.079V275.68H445.999V284ZM449.967 284H448.047V275.68H449.631L449.839 276.672C450.447 275.851 451.29 275.44 452.367 275.44C453.37 275.44 454.138 275.749 454.671 276.368C455.141 276.912 455.375 277.653 455.375 278.592V284H453.455V278.64C453.455 277.499 452.927 276.928 451.871 276.928C451.295 276.928 450.826 277.131 450.463 277.536C450.133 277.909 449.967 278.379 449.967 278.944V284ZM459.264 284H457.344V272.48H459.264V278.816L462.352 275.68H464.72L461.12 279.232L465.168 284H462.656L459.264 279.952V284Z" fill="white" fill-opacity="0.95"/>
<rect x="370.5" y="263.5" width="119" height="31" rx="15.5" stroke="white" stroke-opacity="0.3"/>
<g clip-path="url(#clip0_3846_6338)">
<rect x="20" y="271" width="16" height="16" rx="2" fill="#64B4FA"/>
<path fill-rule="evenodd" clip-rule="evenodd" d="M24.8537 279.147C24.6585 278.951 24.3419 278.951 24.1466 279.146C23.9512 279.342 23.9511 279.658 24.1463 279.853L26.6449 282.353C26.8401 282.549 27.1568 282.549 27.3521 282.354L32.8521 276.854C33.0474 276.658 33.0474 276.342 32.8521 276.146C32.6568 275.951 32.3402 275.951 32.145 276.146L26.9986 281.293L24.8537 279.147Z" fill="black" fill-opacity="0.95"/>
</g>
<path d="M45.2 272.48H48.944C50.4907 272.48 51.6533 272.843 52.432 273.568C53.1147 274.208 53.456 275.093 53.456 276.224C53.456 277.483 53.0187 278.427 52.144 279.056C51.3653 279.611 50.2773 279.888 48.88 279.888H46.832V284H45.2V272.48ZM48.976 273.808H46.832V278.56H48.912C49.968 278.56 50.7253 278.331 51.184 277.872C51.568 277.499 51.76 276.949 51.76 276.224C51.76 275.403 51.488 274.784 50.944 274.368C50.464 273.995 49.808 273.808 48.976 273.808ZM55.1338 275.68H56.6698V281.136C56.6698 282.331 57.2458 282.928 58.3978 282.928C59.1018 282.928 59.6404 282.677 60.0138 282.176C60.3018 281.792 60.4458 281.317 60.4458 280.752V275.68H61.9818V284H60.7178L60.5418 283.04C59.9551 283.84 59.1231 284.24 58.0458 284.24C57.0964 284.24 56.3658 283.947 55.8538 283.36C55.3738 282.816 55.1338 282.064 55.1338 281.104V275.68ZM65.4934 284H64.2294V272.48H65.7654V276.832C66.416 275.904 67.344 275.44 68.5494 275.44C69.744 275.44 70.672 275.867 71.3334 276.72C71.92 277.488 72.2134 278.507 72.2134 279.776C72.2134 281.28 71.8134 282.432 71.0134 283.232C70.3414 283.904 69.4827 284.24 68.4374 284.24C67.2534 284.24 66.352 283.792 65.7334 282.896L65.4934 284ZM70.6134 279.744C70.6134 278.699 70.352 277.915 69.8294 277.392C69.4134 276.965 68.8694 276.752 68.1974 276.752C67.4187 276.752 66.8 277.035 66.3414 277.6C65.904 278.144 65.6854 278.859 65.6854 279.744C65.6854 280.811 65.9467 281.627 66.4694 282.192C66.9067 282.683 67.4827 282.928 68.1974 282.928C68.9974 282.928 69.6054 282.635 70.0214 282.048C70.416 281.504 70.6134 280.736 70.6134 279.744ZM75.5154 272.48V284H73.9794V272.48H75.5154ZM79.3926 274.288H77.6646V272.48H79.3926V274.288ZM79.2966 284H77.7606V275.68H79.2966V284ZM86.9659 281.328H88.6459C88.5179 282.224 88.0965 282.944 87.3819 283.488C86.7312 283.989 85.9365 284.24 84.9979 284.24C83.7712 284.24 82.7952 283.819 82.0699 282.976C81.3979 282.197 81.0619 281.173 81.0619 279.904C81.0619 278.432 81.4672 277.291 82.2779 276.48C82.9712 275.787 83.8725 275.44 84.9819 275.44C86.0059 275.44 86.8485 275.712 87.5099 276.256C88.0965 276.736 88.4539 277.365 88.5819 278.144H86.8859C86.7792 277.696 86.5605 277.349 86.2299 277.104C85.9099 276.859 85.5045 276.736 85.0139 276.736C84.2565 276.736 83.6752 277.035 83.2699 277.632C82.8859 278.187 82.6939 278.96 82.6939 279.952C82.6939 280.987 82.9499 281.771 83.4619 282.304C83.8672 282.731 84.3899 282.944 85.0299 282.944C85.5845 282.944 86.0379 282.784 86.3899 282.464C86.6992 282.187 86.8912 281.808 86.9659 281.328ZM96.7341 272.48V284H95.1981V272.48H96.7341ZM100.611 274.288H98.8834V272.48H100.611V274.288ZM100.515 284H98.9794V275.68H100.515V284ZM104.297 284H102.761V275.68H104.025L104.201 276.736C104.819 275.872 105.662 275.44 106.729 275.44C107.71 275.44 108.462 275.744 108.985 276.352C109.443 276.896 109.673 277.637 109.673 278.576V284H108.137V278.592C108.137 277.365 107.545 276.752 106.361 276.752C105.742 276.752 105.235 276.965 104.841 277.392C104.478 277.776 104.297 278.267 104.297 278.864V284ZM113.375 284H111.839V272.48H113.375V278.912L116.639 275.68H118.655L114.911 279.296L119.119 284H117.071L113.375 279.808V284Z" fill="white" fill-opacity="0.95"/>
<path d="M140.354 275.647C140.26 275.553 140.133 275.5 140 275.5C139.868 275.5 139.74 275.553 139.647 275.647L134 281.293L128.353 275.647C128.259 275.555 128.133 275.505 128.002 275.506C127.87 275.507 127.745 275.559 127.652 275.652C127.559 275.745 127.506 275.87 127.505 276.002C127.504 276.133 127.555 276.259 127.646 276.354L133.646 282.354C133.74 282.447 133.867 282.5 134 282.5C134.133 282.5 134.26 282.447 134.353 282.354L140.353 276.354C140.447 276.26 140.5 276.133 140.5 276C140.5 275.868 140.447 275.74 140.354 275.647Z" fill="white"/>
<path d="M510 256H0V254H510V256Z" fill="white" fill-opacity="0.2" mask="url(#path-22-inside-3_3846_6338)"/>
<g clip-path="url(#clip1_3846_6338)">
<rect x="21.5" y="223.5" width="15" height="15" rx="1.5" stroke="white" stroke-opacity="0.5"/>
</g>
<path d="M53.096 232.88C53.096 232.496 53.0107 232.192 52.84 231.968C52.648 231.701 52.296 231.456 51.784 231.232C51.272 231.008 50.4987 230.752 49.464 230.464C48.0773 230.08 47.1227 229.605 46.6 229.04C46.1733 228.581 45.96 227.968 45.96 227.2C45.96 226.272 46.3653 225.536 47.176 224.992C47.9227 224.491 48.8933 224.24 50.088 224.24C51.4213 224.24 52.504 224.555 53.336 225.184C54.0827 225.739 54.52 226.464 54.648 227.36H52.968C52.872 226.752 52.552 226.299 52.008 226C51.528 225.723 50.888 225.584 50.088 225.584C49.192 225.584 48.5307 225.755 48.104 226.096C47.7627 226.363 47.592 226.709 47.592 227.136C47.592 227.413 47.6347 227.643 47.72 227.824C47.816 227.995 47.976 228.149 48.2 228.288C48.616 228.565 49.4213 228.869 50.616 229.2C52.28 229.669 53.4053 230.203 53.992 230.8C54.4827 231.291 54.728 231.963 54.728 232.816C54.728 233.829 54.2853 234.667 53.4 235.328C52.568 235.936 51.512 236.24 50.232 236.24C48.8987 236.24 47.7947 235.883 46.92 235.168C46.1627 234.549 45.7093 233.749 45.56 232.768H47.24C47.3467 233.472 47.6827 234.011 48.248 234.384C48.76 234.725 49.4107 234.896 50.2 234.896C51.1813 234.896 51.9333 234.672 52.456 234.224C52.8827 233.861 53.096 233.413 53.096 232.88ZM60.2851 234.768V236.08C59.8905 236.187 59.5118 236.24 59.1491 236.24C58.3811 236.24 57.8051 236 57.4211 235.52C57.0905 235.125 56.9251 234.597 56.9251 233.936V228.992H55.6931V227.68H56.9251L57.0211 225.68H58.4611V227.68H60.2531V228.992H58.4611V233.968C58.4611 234.587 58.7545 234.896 59.3411 234.896C59.6185 234.896 59.9331 234.853 60.2851 234.768ZM63.0414 230H61.4094C61.4947 229.168 61.8894 228.523 62.5934 228.064C63.2227 227.648 64.0174 227.44 64.9774 227.44C66.1187 227.44 66.9934 227.739 67.6014 228.336C68.1134 228.848 68.3694 229.509 68.3694 230.32V236H67.1054L66.9134 234.864C66.2627 235.781 65.3347 236.24 64.1294 236.24C63.18 236.24 62.4387 235.984 61.9054 235.472C61.468 235.045 61.2494 234.507 61.2494 233.856C61.2494 233.035 61.532 232.4 62.0974 231.952C62.5987 231.557 63.3667 231.269 64.4014 231.088L66.8334 230.672V230.256C66.8334 229.712 66.6467 229.301 66.2734 229.024C65.9427 228.779 65.4894 228.656 64.9134 228.656C63.7827 228.656 63.1587 229.104 63.0414 230ZM64.4974 234.944C65.148 234.944 65.7134 234.731 66.1934 234.304C66.62 233.909 66.8334 233.456 66.8334 232.944V231.872L64.7694 232.24C64.012 232.368 63.4947 232.565 63.2174 232.832C62.9934 233.045 62.8814 233.333 62.8814 233.696C62.8814 234.101 63.02 234.411 63.2974 234.624C63.5747 234.837 63.9747 234.944 64.4974 234.944ZM72.0623 236H70.5263V227.68H71.7903L71.9983 228.912C72.4676 227.931 73.1716 227.44 74.1102 227.44C74.4196 227.44 74.7236 227.477 75.0223 227.552V229.088C74.6596 228.992 74.3343 228.944 74.0463 228.944C73.4276 228.944 72.9423 229.195 72.5903 229.696C72.2383 230.197 72.0623 230.907 72.0623 231.824V236ZM79.9414 234.768V236.08C79.5467 236.187 79.168 236.24 78.8054 236.24C78.0374 236.24 77.4614 236 77.0774 235.52C76.7467 235.125 76.5814 234.597 76.5814 233.936V228.992H75.3494V227.68H76.5814L76.6774 225.68H78.1174V227.68H79.9094V228.992H78.1174V233.968C78.1174 234.587 78.4107 234.896 78.9974 234.896C79.2747 234.896 79.5894 234.853 79.9414 234.768ZM87.4945 230H85.8625C85.9478 229.168 86.3425 228.523 87.0465 228.064C87.6758 227.648 88.4705 227.44 89.4305 227.44C90.5718 227.44 91.4465 227.739 92.0545 228.336C92.5665 228.848 92.8225 229.509 92.8225 230.32V236H91.5585L91.3665 234.864C90.7158 235.781 89.7878 236.24 88.5825 236.24C87.6332 236.24 86.8918 235.984 86.3585 235.472C85.9212 235.045 85.7025 234.507 85.7025 233.856C85.7025 233.035 85.9852 232.4 86.5505 231.952C87.0518 231.557 87.8198 231.269 88.8545 231.088L91.2865 230.672V230.256C91.2865 229.712 91.0998 229.301 90.7265 229.024C90.3958 228.779 89.9425 228.656 89.3665 228.656C88.2358 228.656 87.6118 229.104 87.4945 230ZM88.9505 234.944C89.6012 234.944 90.1665 234.731 90.6465 234.304C91.0732 233.909 91.2865 233.456 91.2865 232.944V231.872L89.2225 232.24C88.4652 232.368 87.9478 232.565 87.6705 232.832C87.4465 233.045 87.3345 233.333 87.3345 233.696C87.3345 234.101 87.4732 234.411 87.7505 234.624C88.0278 234.837 88.4278 234.944 88.9505 234.944ZM98.6914 234.768V236.08C98.2967 236.187 97.918 236.24 97.5554 236.24C96.7874 236.24 96.2114 236 95.8274 235.52C95.4967 235.125 95.3314 234.597 95.3314 233.936V228.992H94.0994V227.68H95.3314L95.4274 225.68H96.8674V227.68H98.6594V228.992H96.8674V233.968C96.8674 234.587 97.1607 234.896 97.7474 234.896C98.0247 234.896 98.3394 234.853 98.6914 234.768ZM102.344 236H100.488V234.144H102.344V236ZM102.344 229.536H100.488V227.68H102.344V229.536Z" fill="white" fill-opacity="0.95"/>
<rect x="112" y="215" width="381" height="32" rx="8" fill="black"/>
<g clip-path="url(#clip2_3846_6338)">
<g filter="url(#filter0_ddd_3846_6338)">
<path d="M462 215H485C489.418 215 493 218.582 493 223V239C493 243.418 489.418 247 485 247H462V215Z" fill="white" fill-opacity="0.11" shape-rendering="crispEdges"/>
</g>
<path d="M483.354 227.647C483.26 227.553 483.133 227.5 483 227.5C482.868 227.5 482.74 227.553 482.647 227.647L477 233.293L471.353 227.647C471.259 227.555 471.133 227.505 471.002 227.506C470.87 227.507 470.745 227.559 470.652 227.652C470.559 227.745 470.506 227.87 470.505 228.002C470.504 228.133 470.555 228.259 470.646 228.354L476.646 234.354C476.74 234.447 476.867 234.5 477 234.5C477.133 234.5 477.26 234.447 477.353 234.354L483.353 228.354C483.447 228.26 483.5 228.133 483.5 228C483.5 227.868 483.447 227.74 483.354 227.647Z" fill="white" fill-opacity="0.95"/>
</g>
<path d="M112 223C112 218.582 115.582 215 120 215H462V247H120C115.582 247 112 243.418 112 239V223Z" fill="black"/>
<path d="M130.032 234.864C131.024 234.864 131.84 234.549 132.48 233.92C133.035 233.376 133.333 232.715 133.376 231.936H135.024C134.981 232.693 134.747 233.397 134.32 234.048C133.883 234.709 133.301 235.232 132.576 235.616C131.797 236.032 130.939 236.24 130 236.24C128.261 236.24 126.917 235.648 125.968 234.464C125.136 233.419 124.72 232.011 124.72 230.24C124.72 228.213 125.291 226.661 126.432 225.584C127.381 224.688 128.613 224.24 130.128 224.24C131.568 224.24 132.763 224.683 133.712 225.568C134.501 226.293 134.933 227.163 135.008 228.176H133.36C133.253 227.333 132.875 226.677 132.224 226.208C131.648 225.803 130.949 225.6 130.128 225.6C128.901 225.6 127.957 226.037 127.296 226.912C126.688 227.712 126.384 228.821 126.384 230.24C126.384 231.797 126.768 232.992 127.536 233.824C128.176 234.517 129.008 234.864 130.032 234.864ZM138.312 236H136.776V224.48H138.312V228.624C138.92 227.835 139.731 227.44 140.744 227.44C141.726 227.44 142.478 227.744 143 228.352C143.459 228.896 143.688 229.637 143.688 230.576V236H142.152V230.592C142.152 229.365 141.56 228.752 140.376 228.752C139.747 228.752 139.235 228.971 138.84 229.408C138.488 229.803 138.312 230.309 138.312 230.928V236ZM147.166 230H145.534C145.62 229.168 146.014 228.523 146.718 228.064C147.348 227.648 148.142 227.44 149.102 227.44C150.244 227.44 151.118 227.739 151.726 228.336C152.238 228.848 152.494 229.509 152.494 230.32V236H151.23L151.038 234.864C150.388 235.781 149.46 236.24 148.254 236.24C147.305 236.24 146.564 235.984 146.03 235.472C145.593 235.045 145.374 234.507 145.374 233.856C145.374 233.035 145.657 232.4 146.222 231.952C146.724 231.557 147.492 231.269 148.526 231.088L150.958 230.672V230.256C150.958 229.712 150.772 229.301 150.398 229.024C150.068 228.779 149.614 228.656 149.038 228.656C147.908 228.656 147.284 229.104 147.166 230ZM148.622 234.944C149.273 234.944 149.838 234.731 150.318 234.304C150.745 233.909 150.958 233.456 150.958 232.944V231.872L148.894 232.24C148.137 232.368 147.62 232.565 147.342 232.832C147.118 233.045 147.006 233.333 147.006 233.696C147.006 234.101 147.145 234.411 147.422 234.624C147.7 234.837 148.1 234.944 148.622 234.944ZM154.651 227.68H155.915L156.155 228.768C156.838 227.883 157.777 227.44 158.971 227.44C160.166 227.44 161.094 227.867 161.755 228.72C162.342 229.488 162.635 230.507 162.635 231.776C162.635 233.28 162.235 234.432 161.435 235.232C160.763 235.904 159.905 236.24 158.859 236.24C157.675 236.24 156.785 235.803 156.187 234.928V238.88H154.651V227.68ZM161.035 231.744C161.035 230.699 160.774 229.915 160.251 229.392C159.835 228.965 159.291 228.752 158.619 228.752C157.841 228.752 157.222 229.035 156.763 229.6C156.326 230.144 156.107 230.859 156.107 231.744C156.107 232.811 156.369 233.627 156.891 234.192C157.329 234.683 157.905 234.928 158.619 234.928C159.419 234.928 160.027 234.635 160.443 234.048C160.838 233.504 161.035 232.736 161.035 231.744ZM168.113 234.768V236.08C167.719 236.187 167.34 236.24 166.977 236.24C166.209 236.24 165.633 236 165.249 235.52C164.919 235.125 164.753 234.597 164.753 233.936V228.992H163.521V227.68H164.753L164.849 225.68H166.289V227.68H168.081V228.992H166.289V233.968C166.289 234.587 166.583 234.896 167.169 234.896C167.447 234.896 167.761 234.853 168.113 234.768ZM175.143 233.6H176.807C176.573 234.443 176.109 235.104 175.415 235.584C174.765 236.021 173.986 236.24 173.079 236.24C171.767 236.24 170.743 235.824 170.007 234.992C169.335 234.213 168.999 233.163 168.999 231.84C168.999 230.336 169.426 229.195 170.279 228.416C170.983 227.765 171.89 227.44 172.999 227.44C174.301 227.44 175.282 227.861 175.943 228.704C176.583 229.515 176.903 230.672 176.903 232.176H170.567C170.631 233.157 170.93 233.888 171.463 234.368C171.901 234.752 172.455 234.944 173.127 234.944C173.65 234.944 174.103 234.8 174.487 234.512C174.807 234.267 175.026 233.963 175.143 233.6ZM173.031 228.672C172.349 228.672 171.799 228.885 171.383 229.312C170.989 229.707 170.738 230.256 170.631 230.96H175.335C175.282 230.16 175.015 229.563 174.535 229.168C174.151 228.837 173.65 228.672 173.031 228.672ZM180.281 236H178.745V227.68H180.009L180.217 228.912C180.686 227.931 181.39 227.44 182.329 227.44C182.638 227.44 182.942 227.477 183.241 227.552V229.088C182.878 228.992 182.553 228.944 182.265 228.944C181.646 228.944 181.161 229.195 180.809 229.696C180.457 230.197 180.281 230.907 180.281 231.824V236ZM194.285 236H192.765V226.4L190.253 227.696V226.112L192.781 224.8H194.285V236Z" fill="white" fill-opacity="0.7"/>
<line x1="461.5" y1="216.5" x2="461.5" y2="245.5" stroke="white" stroke-opacity="0.5" stroke-linecap="square"/>
<rect x="112.5" y="215.5" width="380" height="31" rx="7.5" stroke="white" stroke-opacity="0.5"/>
<path d="M511 208H1V206H511V208Z" fill="white" fill-opacity="0.2" mask="url(#path-32-inside-4_3846_6338)"/>
<path d="M175.084 153.27C175.084 152.934 175.009 152.668 174.86 152.472C174.692 152.239 174.384 152.024 173.936 151.828C173.488 151.632 172.811 151.408 171.906 151.156C170.693 150.82 169.857 150.405 169.4 149.91C169.027 149.509 168.84 148.972 168.84 148.3C168.84 147.488 169.195 146.844 169.904 146.368C170.557 145.929 171.407 145.71 172.452 145.71C173.619 145.71 174.566 145.985 175.294 146.536C175.947 147.021 176.33 147.656 176.442 148.44H174.972C174.888 147.908 174.608 147.511 174.132 147.25C173.712 147.007 173.152 146.886 172.452 146.886C171.668 146.886 171.089 147.035 170.716 147.334C170.417 147.567 170.268 147.871 170.268 148.244C170.268 148.487 170.305 148.687 170.38 148.846C170.464 148.995 170.604 149.131 170.8 149.252C171.164 149.495 171.869 149.761 172.914 150.05C174.37 150.461 175.355 150.927 175.868 151.45C176.297 151.879 176.512 152.467 176.512 153.214C176.512 154.101 176.125 154.833 175.35 155.412C174.622 155.944 173.698 156.21 172.578 156.21C171.411 156.21 170.445 155.897 169.68 155.272C169.017 154.731 168.621 154.031 168.49 153.172H169.96C170.053 153.788 170.347 154.259 170.842 154.586C171.29 154.885 171.859 155.034 172.55 155.034C173.409 155.034 174.067 154.838 174.524 154.446C174.897 154.129 175.084 153.737 175.084 153.27ZM179.47 156H178.126V145.92H179.47V149.546C180.002 148.855 180.712 148.51 181.598 148.51C182.457 148.51 183.115 148.776 183.572 149.308C183.974 149.784 184.174 150.433 184.174 151.254V156H182.83V151.268C182.83 150.195 182.312 149.658 181.276 149.658C180.726 149.658 180.278 149.849 179.932 150.232C179.624 150.577 179.47 151.021 179.47 151.562V156ZM187.218 150.75H185.79C185.865 150.022 186.21 149.457 186.826 149.056C187.377 148.692 188.072 148.51 188.912 148.51C189.911 148.51 190.676 148.771 191.208 149.294C191.656 149.742 191.88 150.321 191.88 151.03V156H190.774L190.606 155.006C190.037 155.809 189.225 156.21 188.17 156.21C187.339 156.21 186.691 155.986 186.224 155.538C185.841 155.165 185.65 154.693 185.65 154.124C185.65 153.405 185.897 152.85 186.392 152.458C186.831 152.113 187.503 151.861 188.408 151.702L190.536 151.338V150.974C190.536 150.498 190.373 150.139 190.046 149.896C189.757 149.681 189.36 149.574 188.856 149.574C187.867 149.574 187.321 149.966 187.218 150.75ZM188.492 155.076C189.061 155.076 189.556 154.889 189.976 154.516C190.349 154.171 190.536 153.774 190.536 153.326V152.388L188.73 152.71C188.067 152.822 187.615 152.995 187.372 153.228C187.176 153.415 187.078 153.667 187.078 153.984C187.078 154.339 187.199 154.609 187.442 154.796C187.685 154.983 188.035 155.076 188.492 155.076ZM195.111 156H193.767V148.72H194.873L195.055 149.798C195.466 148.939 196.082 148.51 196.903 148.51C197.174 148.51 197.44 148.543 197.701 148.608V149.952C197.384 149.868 197.099 149.826 196.847 149.826C196.306 149.826 195.881 150.045 195.573 150.484C195.265 150.923 195.111 151.543 195.111 152.346V156ZM203.577 153.9H205.033C204.827 154.637 204.421 155.216 203.815 155.636C203.245 156.019 202.564 156.21 201.771 156.21C200.623 156.21 199.727 155.846 199.083 155.118C198.495 154.437 198.201 153.517 198.201 152.36C198.201 151.044 198.574 150.045 199.321 149.364C199.937 148.795 200.73 148.51 201.701 148.51C202.839 148.51 203.698 148.879 204.277 149.616C204.837 150.325 205.117 151.338 205.117 152.654H199.573C199.629 153.513 199.89 154.152 200.357 154.572C200.739 154.908 201.225 155.076 201.813 155.076C202.27 155.076 202.667 154.95 203.003 154.698C203.283 154.483 203.474 154.217 203.577 153.9ZM201.729 149.588C201.131 149.588 200.651 149.775 200.287 150.148C199.941 150.493 199.722 150.974 199.629 151.59H203.745C203.698 150.89 203.465 150.367 203.045 150.022C202.709 149.733 202.27 149.588 201.729 149.588ZM215.181 154.026C215.181 153.615 214.967 153.307 214.537 153.102C214.285 152.99 213.795 152.85 213.067 152.682C212.171 152.486 211.532 152.201 211.149 151.828C210.832 151.511 210.673 151.095 210.673 150.582C210.673 149.901 210.949 149.378 211.499 149.014C211.994 148.678 212.661 148.51 213.501 148.51C214.369 148.51 215.074 148.725 215.615 149.154C216.082 149.527 216.371 150.022 216.483 150.638H215.111C214.953 149.929 214.411 149.574 213.487 149.574C212.974 149.574 212.591 149.667 212.339 149.854C212.134 150.013 212.031 150.213 212.031 150.456C212.031 150.755 212.143 150.979 212.367 151.128C212.601 151.277 213.053 151.427 213.725 151.576C214.752 151.8 215.466 152.075 215.867 152.402C216.315 152.766 216.539 153.275 216.539 153.928C216.539 154.656 216.241 155.23 215.643 155.65C215.102 156.023 214.388 156.21 213.501 156.21C212.531 156.21 211.761 155.977 211.191 155.51C210.697 155.099 210.421 154.567 210.365 153.914H211.737C211.887 154.735 212.479 155.146 213.515 155.146C214.075 155.146 214.509 155.025 214.817 154.782C215.06 154.586 215.181 154.334 215.181 154.026ZM218.076 148.72H219.182L219.392 149.672C219.989 148.897 220.81 148.51 221.856 148.51C222.901 148.51 223.713 148.883 224.292 149.63C224.805 150.302 225.062 151.193 225.062 152.304C225.062 153.62 224.712 154.628 224.012 155.328C223.424 155.916 222.672 156.21 221.758 156.21C220.722 156.21 219.942 155.827 219.42 155.062V158.52H218.076V148.72ZM223.662 152.276C223.662 151.361 223.433 150.675 222.976 150.218C222.612 149.845 222.136 149.658 221.548 149.658C220.866 149.658 220.325 149.905 219.924 150.4C219.541 150.876 219.35 151.501 219.35 152.276C219.35 153.209 219.578 153.923 220.036 154.418C220.418 154.847 220.922 155.062 221.548 155.062C222.248 155.062 222.78 154.805 223.144 154.292C223.489 153.816 223.662 153.144 223.662 152.276ZM227.755 150.75H226.327C226.402 150.022 226.747 149.457 227.363 149.056C227.914 148.692 228.609 148.51 229.449 148.51C230.448 148.51 231.213 148.771 231.745 149.294C232.193 149.742 232.417 150.321 232.417 151.03V156H231.311L231.143 155.006C230.574 155.809 229.762 156.21 228.707 156.21C227.876 156.21 227.228 155.986 226.761 155.538C226.378 155.165 226.187 154.693 226.187 154.124C226.187 153.405 226.434 152.85 226.929 152.458C227.368 152.113 228.04 151.861 228.945 151.702L231.073 151.338V150.974C231.073 150.498 230.91 150.139 230.583 149.896C230.294 149.681 229.897 149.574 229.393 149.574C228.404 149.574 227.858 149.966 227.755 150.75ZM229.029 155.076C229.598 155.076 230.093 154.889 230.513 154.516C230.886 154.171 231.073 153.774 231.073 153.326V152.388L229.267 152.71C228.604 152.822 228.152 152.995 227.909 153.228C227.713 153.415 227.615 153.667 227.615 153.984C227.615 154.339 227.736 154.609 227.979 154.796C228.222 154.983 228.572 155.076 229.029 155.076ZM239.05 153.662H240.52C240.408 154.446 240.04 155.076 239.414 155.552C238.845 155.991 238.15 156.21 237.328 156.21C236.255 156.21 235.401 155.841 234.766 155.104C234.178 154.423 233.884 153.527 233.884 152.416C233.884 151.128 234.239 150.129 234.948 149.42C235.555 148.813 236.344 148.51 237.314 148.51C238.21 148.51 238.948 148.748 239.526 149.224C240.04 149.644 240.352 150.195 240.464 150.876H238.98C238.887 150.484 238.696 150.181 238.406 149.966C238.126 149.751 237.772 149.644 237.342 149.644C236.68 149.644 236.171 149.905 235.816 150.428C235.48 150.913 235.312 151.59 235.312 152.458C235.312 153.363 235.536 154.049 235.984 154.516C236.339 154.889 236.796 155.076 237.356 155.076C237.842 155.076 238.238 154.936 238.546 154.656C238.817 154.413 238.985 154.082 239.05 153.662ZM247.012 153.9H248.468C248.263 154.637 247.857 155.216 247.25 155.636C246.681 156.019 246 156.21 245.206 156.21C244.058 156.21 243.162 155.846 242.518 155.118C241.93 154.437 241.636 153.517 241.636 152.36C241.636 151.044 242.01 150.045 242.756 149.364C243.372 148.795 244.166 148.51 245.136 148.51C246.275 148.51 247.134 148.879 247.712 149.616C248.272 150.325 248.552 151.338 248.552 152.654H243.008C243.064 153.513 243.326 154.152 243.792 154.572C244.175 154.908 244.66 155.076 245.248 155.076C245.706 155.076 246.102 154.95 246.438 154.698C246.718 154.483 246.91 154.217 247.012 153.9ZM245.164 149.588C244.567 149.588 244.086 149.775 243.722 150.148C243.377 150.493 243.158 150.974 243.064 151.59H247.18C247.134 150.89 246.9 150.367 246.48 150.022C246.144 149.733 245.706 149.588 245.164 149.588ZM253.941 152.36C253.941 151.025 254.338 150.017 255.131 149.336C255.766 148.785 256.568 148.51 257.539 148.51C258.668 148.51 259.555 148.869 260.199 149.588C260.815 150.26 261.123 151.184 261.123 152.36C261.123 153.676 260.736 154.679 259.961 155.37C259.326 155.93 258.514 156.21 257.525 156.21C256.396 156.21 255.504 155.837 254.851 155.09C254.244 154.409 253.941 153.499 253.941 152.36ZM255.341 152.36C255.341 153.293 255.579 154.007 256.055 154.502C256.447 154.913 256.946 155.118 257.553 155.118C258.262 155.118 258.808 154.852 259.191 154.32C259.546 153.835 259.723 153.181 259.723 152.36C259.723 151.408 259.49 150.689 259.023 150.204C258.64 149.803 258.146 149.602 257.539 149.602C256.839 149.602 256.293 149.868 255.901 150.4C255.528 150.885 255.341 151.539 255.341 152.36ZM264.004 156H262.66V148.72H263.766L263.948 149.798C264.358 148.939 264.974 148.51 265.796 148.51C266.066 148.51 266.332 148.543 266.594 148.608V149.952C266.276 149.868 265.992 149.826 265.74 149.826C265.198 149.826 264.774 150.045 264.466 150.484C264.158 150.923 264.004 151.543 264.004 152.346V156ZM272.995 150.75H271.567C271.642 150.022 271.987 149.457 272.603 149.056C273.154 148.692 273.849 148.51 274.689 148.51C275.688 148.51 276.453 148.771 276.985 149.294C277.433 149.742 277.657 150.321 277.657 151.03V156H276.551L276.383 155.006C275.814 155.809 275.002 156.21 273.947 156.21C273.117 156.21 272.468 155.986 272.001 155.538C271.619 155.165 271.427 154.693 271.427 154.124C271.427 153.405 271.675 152.85 272.169 152.458C272.608 152.113 273.28 151.861 274.185 151.702L276.313 151.338V150.974C276.313 150.498 276.15 150.139 275.823 149.896C275.534 149.681 275.137 149.574 274.633 149.574C273.644 149.574 273.098 149.966 272.995 150.75ZM274.269 155.076C274.839 155.076 275.333 154.889 275.753 154.516C276.127 154.171 276.313 153.774 276.313 153.326V152.388L274.507 152.71C273.845 152.822 273.392 152.995 273.149 153.228C272.953 153.415 272.855 153.667 272.855 153.984C272.855 154.339 272.977 154.609 273.219 154.796C273.462 154.983 273.812 155.076 274.269 155.076ZM287.998 154.026C287.998 153.615 287.783 153.307 287.354 153.102C287.102 152.99 286.612 152.85 285.884 152.682C284.988 152.486 284.348 152.201 283.966 151.828C283.648 151.511 283.49 151.095 283.49 150.582C283.49 149.901 283.765 149.378 284.316 149.014C284.81 148.678 285.478 148.51 286.318 148.51C287.186 148.51 287.89 148.725 288.432 149.154C288.898 149.527 289.188 150.022 289.3 150.638H287.928C287.769 149.929 287.228 149.574 286.304 149.574C285.79 149.574 285.408 149.667 285.156 149.854C284.95 150.013 284.848 150.213 284.848 150.456C284.848 150.755 284.96 150.979 285.184 151.128C285.417 151.277 285.87 151.427 286.542 151.576C287.568 151.8 288.282 152.075 288.684 152.402C289.132 152.766 289.356 153.275 289.356 153.928C289.356 154.656 289.057 155.23 288.46 155.65C287.918 156.023 287.204 156.21 286.318 156.21C285.347 156.21 284.577 155.977 284.008 155.51C283.513 155.099 283.238 154.567 283.182 153.914H284.554C284.703 154.735 285.296 155.146 286.332 155.146C286.892 155.146 287.326 155.025 287.634 154.782C287.876 154.586 287.998 154.334 287.998 154.026ZM290.892 148.72H291.998L292.208 149.672C292.805 148.897 293.627 148.51 294.672 148.51C295.717 148.51 296.529 148.883 297.108 149.63C297.621 150.302 297.878 151.193 297.878 152.304C297.878 153.62 297.528 154.628 296.828 155.328C296.24 155.916 295.489 156.21 294.574 156.21C293.538 156.21 292.759 155.827 292.236 155.062V158.52H290.892V148.72ZM296.478 152.276C296.478 151.361 296.249 150.675 295.792 150.218C295.428 149.845 294.952 149.658 294.364 149.658C293.683 149.658 293.141 149.905 292.74 150.4C292.357 150.876 292.166 151.501 292.166 152.276C292.166 153.209 292.395 153.923 292.852 154.418C293.235 154.847 293.739 155.062 294.364 155.062C295.064 155.062 295.596 154.805 295.96 154.292C296.305 153.816 296.478 153.144 296.478 152.276ZM304.379 153.9H305.835C305.63 154.637 305.224 155.216 304.617 155.636C304.048 156.019 303.367 156.21 302.573 156.21C301.425 156.21 300.529 155.846 299.885 155.118C299.297 154.437 299.003 153.517 299.003 152.36C299.003 151.044 299.377 150.045 300.123 149.364C300.739 148.795 301.533 148.51 302.503 148.51C303.642 148.51 304.501 148.879 305.079 149.616C305.639 150.325 305.919 151.338 305.919 152.654H300.375C300.431 153.513 300.693 154.152 301.159 154.572C301.542 154.908 302.027 155.076 302.615 155.076C303.073 155.076 303.469 154.95 303.805 154.698C304.085 154.483 304.277 154.217 304.379 153.9ZM302.531 149.588C301.934 149.588 301.453 149.775 301.089 150.148C300.744 150.493 300.525 150.974 300.431 151.59H304.547C304.501 150.89 304.267 150.367 303.847 150.022C303.511 149.733 303.073 149.588 302.531 149.588ZM312.277 153.662H313.747C313.635 154.446 313.266 155.076 312.641 155.552C312.071 155.991 311.376 156.21 310.555 156.21C309.481 156.21 308.627 155.841 307.993 155.104C307.405 154.423 307.111 153.527 307.111 152.416C307.111 151.128 307.465 150.129 308.175 149.42C308.781 148.813 309.57 148.51 310.541 148.51C311.437 148.51 312.174 148.748 312.753 149.224C313.266 149.644 313.579 150.195 313.691 150.876H312.207C312.113 150.484 311.922 150.181 311.633 149.966C311.353 149.751 310.998 149.644 310.569 149.644C309.906 149.644 309.397 149.905 309.043 150.428C308.707 150.913 308.539 151.59 308.539 152.458C308.539 153.363 308.763 154.049 309.211 154.516C309.565 154.889 310.023 155.076 310.583 155.076C311.068 155.076 311.465 154.936 311.773 154.656C312.043 154.413 312.211 154.082 312.277 153.662ZM316.711 147.502H315.199V145.92H316.711V147.502ZM316.627 156H315.283V148.72H316.627V156ZM322.189 145.878V147.04C321.741 146.928 321.373 146.872 321.083 146.872C320.841 146.872 320.649 146.937 320.509 147.068C320.379 147.199 320.313 147.381 320.313 147.614V148.72H321.881V149.868H320.313V156H318.969V149.868H317.891V148.72H318.969V147.698C318.969 147.054 319.179 146.55 319.599 146.186C319.973 145.869 320.439 145.71 320.999 145.71C321.363 145.71 321.76 145.766 322.189 145.878ZM324.531 147.502H323.019V145.92H324.531V147.502ZM324.447 156H323.103V148.72H324.447V156ZM331.158 153.662H332.628C332.516 154.446 332.147 155.076 331.522 155.552C330.952 155.991 330.257 156.21 329.436 156.21C328.362 156.21 327.508 155.841 326.874 155.104C326.286 154.423 325.992 153.527 325.992 152.416C325.992 151.128 326.346 150.129 327.056 149.42C327.662 148.813 328.451 148.51 329.422 148.51C330.318 148.51 331.055 148.748 331.634 149.224C332.147 149.644 332.46 150.195 332.572 150.876H331.088C330.994 150.484 330.803 150.181 330.514 149.966C330.234 149.751 329.879 149.644 329.45 149.644C328.787 149.644 328.278 149.905 327.924 150.428C327.588 150.913 327.42 151.59 327.42 152.458C327.42 153.363 327.644 154.049 328.092 154.516C328.446 154.889 328.904 155.076 329.464 155.076C329.949 155.076 330.346 154.936 330.654 154.656C330.924 154.413 331.092 154.082 331.158 153.662ZM338.361 148.72H339.467L339.677 149.672C340.274 148.897 341.096 148.51 342.141 148.51C343.186 148.51 343.998 148.883 344.577 149.63C345.09 150.302 345.347 151.193 345.347 152.304C345.347 153.62 344.997 154.628 344.297 155.328C343.709 155.916 342.958 156.21 342.043 156.21C341.007 156.21 340.228 155.827 339.705 155.062V158.52H338.361V148.72ZM343.947 152.276C343.947 151.361 343.718 150.675 343.261 150.218C342.897 149.845 342.421 149.658 341.833 149.658C341.152 149.658 340.61 149.905 340.209 150.4C339.826 150.876 339.635 151.501 339.635 152.276C339.635 153.209 339.864 153.923 340.321 154.418C340.704 154.847 341.208 155.062 341.833 155.062C342.533 155.062 343.065 154.805 343.429 154.292C343.774 153.816 343.947 153.144 343.947 152.276ZM351.848 153.9H353.304C353.099 154.637 352.693 155.216 352.086 155.636C351.517 156.019 350.835 156.21 350.042 156.21C348.894 156.21 347.998 155.846 347.354 155.118C346.766 154.437 346.472 153.517 346.472 152.36C346.472 151.044 346.845 150.045 347.592 149.364C348.208 148.795 349.001 148.51 349.972 148.51C351.111 148.51 351.969 148.879 352.548 149.616C353.108 150.325 353.388 151.338 353.388 152.654H347.844C347.9 153.513 348.161 154.152 348.628 154.572C349.011 154.908 349.496 155.076 350.084 155.076C350.541 155.076 350.938 154.95 351.274 154.698C351.554 154.483 351.745 154.217 351.848 153.9ZM350 149.588C349.403 149.588 348.922 149.775 348.558 150.148C348.213 150.493 347.993 150.974 347.9 151.59H352.016C351.969 150.89 351.736 150.367 351.316 150.022C350.98 149.733 350.541 149.588 350 149.588ZM356.344 156H355V148.72H356.106L356.288 149.798C356.698 148.939 357.314 148.51 358.136 148.51C358.406 148.51 358.672 148.543 358.934 148.608V149.952C358.616 149.868 358.332 149.826 358.08 149.826C357.538 149.826 357.114 150.045 356.806 150.484C356.498 150.923 356.344 151.543 356.344 152.346V156ZM364.246 154.026C364.246 153.615 364.031 153.307 363.602 153.102C363.35 152.99 362.86 152.85 362.132 152.682C361.236 152.486 360.596 152.201 360.214 151.828C359.896 151.511 359.738 151.095 359.738 150.582C359.738 149.901 360.013 149.378 360.564 149.014C361.058 148.678 361.726 148.51 362.566 148.51C363.434 148.51 364.138 148.725 364.68 149.154C365.146 149.527 365.436 150.022 365.548 150.638H364.176C364.017 149.929 363.476 149.574 362.552 149.574C362.038 149.574 361.656 149.667 361.404 149.854C361.198 150.013 361.096 150.213 361.096 150.456C361.096 150.755 361.208 150.979 361.432 151.128C361.665 151.277 362.118 151.427 362.79 151.576C363.816 151.8 364.53 152.075 364.932 152.402C365.38 152.766 365.604 153.275 365.604 153.928C365.604 154.656 365.305 155.23 364.708 155.65C364.166 156.023 363.452 156.21 362.566 156.21C361.595 156.21 360.825 155.977 360.256 155.51C359.761 155.099 359.486 154.567 359.43 153.914H360.802C360.951 154.735 361.544 155.146 362.58 155.146C363.14 155.146 363.574 155.025 363.882 154.782C364.124 154.586 364.246 154.334 364.246 154.026ZM366.72 152.36C366.72 151.025 367.117 150.017 367.91 149.336C368.545 148.785 369.347 148.51 370.318 148.51C371.447 148.51 372.334 148.869 372.978 149.588C373.594 150.26 373.902 151.184 373.902 152.36C373.902 153.676 373.515 154.679 372.74 155.37C372.105 155.93 371.293 156.21 370.304 156.21C369.175 156.21 368.283 155.837 367.63 155.09C367.023 154.409 366.72 153.499 366.72 152.36ZM368.12 152.36C368.12 153.293 368.358 154.007 368.834 154.502C369.226 154.913 369.725 155.118 370.332 155.118C371.041 155.118 371.587 154.852 371.97 154.32C372.325 153.835 372.502 153.181 372.502 152.36C372.502 151.408 372.269 150.689 371.802 150.204C371.419 149.803 370.925 149.602 370.318 149.602C369.618 149.602 369.072 149.868 368.68 150.4C368.307 150.885 368.12 151.539 368.12 152.36ZM376.783 156H375.439V148.72H376.545L376.699 149.644C377.24 148.888 377.978 148.51 378.911 148.51C379.77 148.51 380.428 148.776 380.885 149.308C381.286 149.784 381.487 150.433 381.487 151.254V156H380.143V151.268C380.143 150.195 379.625 149.658 378.589 149.658C378.048 149.658 377.604 149.845 377.259 150.218C376.942 150.554 376.783 150.983 376.783 151.506V156ZM389.008 147.502H387.496V145.92H389.008V147.502ZM388.924 156H387.58V148.72H388.924V156ZM392.232 156H390.888V148.72H391.994L392.148 149.644C392.69 148.888 393.427 148.51 394.36 148.51C395.219 148.51 395.877 148.776 396.334 149.308C396.736 149.784 396.936 150.433 396.936 151.254V156H395.592V151.268C395.592 150.195 395.074 149.658 394.038 149.658C393.497 149.658 393.054 149.845 392.708 150.218C392.391 150.554 392.232 150.983 392.232 151.506V156ZM411.835 148.72H413.179L411.051 156H409.497L407.733 150.246L405.997 156H404.387L402.259 148.72H403.659L405.227 154.572L406.963 148.72H408.573L410.281 154.544L411.835 148.72ZM419.155 153.9H420.611C420.405 154.637 419.999 155.216 419.393 155.636C418.823 156.019 418.142 156.21 417.349 156.21C416.201 156.21 415.305 155.846 414.661 155.118C414.073 154.437 413.779 153.517 413.779 152.36C413.779 151.044 414.152 150.045 414.899 149.364C415.515 148.795 416.308 148.51 417.279 148.51C418.417 148.51 419.276 148.879 419.855 149.616C420.415 150.325 420.695 151.338 420.695 152.654H415.151C415.207 153.513 415.468 154.152 415.935 154.572C416.317 154.908 416.803 155.076 417.391 155.076C417.848 155.076 418.245 154.95 418.581 154.698C418.861 154.483 419.052 154.217 419.155 153.9ZM417.307 149.588C416.709 149.588 416.229 149.775 415.865 150.148C415.519 150.493 415.3 150.974 415.207 151.59H419.323C419.276 150.89 419.043 150.367 418.623 150.022C418.287 149.733 417.848 149.588 417.307 149.588ZM423.412 156H422.306V145.92H423.65V149.728C424.22 148.916 425.032 148.51 426.086 148.51C427.132 148.51 427.944 148.883 428.522 149.63C429.036 150.302 429.292 151.193 429.292 152.304C429.292 153.62 428.942 154.628 428.242 155.328C427.654 155.916 426.903 156.21 425.988 156.21C424.952 156.21 424.164 155.818 423.622 155.034L423.412 156ZM427.892 152.276C427.892 151.361 427.664 150.675 427.206 150.218C426.842 149.845 426.366 149.658 425.778 149.658C425.097 149.658 424.556 149.905 424.154 150.4C423.772 150.876 423.58 151.501 423.58 152.276C423.58 153.209 423.809 153.923 424.266 154.418C424.649 154.847 425.153 155.062 425.778 155.062C426.478 155.062 427.01 154.805 427.374 154.292C427.72 153.816 427.892 153.144 427.892 152.276ZM435.793 153.9H437.249C437.044 154.637 436.638 155.216 436.031 155.636C435.462 156.019 434.781 156.21 433.987 156.21C432.839 156.21 431.943 155.846 431.299 155.118C430.711 154.437 430.417 153.517 430.417 152.36C430.417 151.044 430.791 150.045 431.537 149.364C432.153 148.795 432.947 148.51 433.917 148.51C435.056 148.51 435.915 148.879 436.493 149.616C437.053 150.325 437.333 151.338 437.333 152.654H431.789C431.845 153.513 432.107 154.152 432.573 154.572C432.956 154.908 433.441 155.076 434.029 155.076C434.487 155.076 434.883 154.95 435.219 154.698C435.499 154.483 435.691 154.217 435.793 153.9ZM433.945 149.588C433.348 149.588 432.867 149.775 432.503 150.148C432.158 150.493 431.939 150.974 431.845 151.59H435.961C435.915 150.89 435.681 150.367 435.261 150.022C434.925 149.733 434.487 149.588 433.945 149.588ZM444.811 148.72L442.375 152.122L445.231 156H443.593L441.619 153.186L439.687 156H438.105L440.821 152.22L438.273 148.72H439.883L441.619 151.17L443.271 148.72H444.811Z" fill="white" fill-opacity="0.4"/>
<path d="M149.25 125.634L137.831 151.594C137.325 152.775 135.919 153.281 134.766 152.691L121.856 146.222C121.519 146.053 121.097 146.278 121.041 146.672L120.141 154.716C120.084 155.194 120.647 155.531 121.041 155.222L126.75 150.947M124.5 141.384L147.816 123.131C148.322 122.737 147.9 121.95 147.281 122.147L107.006 135.591C105.572 136.069 105.431 138.037 106.781 138.712L116.175 143.409C116.456 143.55 116.681 143.831 116.766 144.141L118.622 151.509M113.25 157.134C106.5 166.134 96.9375 172.884 88.5 172.884C82.2844 172.884 77.25 167.85 77.25 161.634C77.25 155.419 82.2844 150.384 88.5 150.384C94.7156 150.384 99.75 155.419 99.75 161.634C99.75 175.134 84 181.884 72.75 184.134" stroke="url(#paint0_linear_3846_6338)" stroke-width="1.5" stroke-miterlimit="10" stroke-linecap="round" stroke-linejoin="round"/>
<rect x="0.5" y="0.5" width="511" height="375" stroke="white" stroke-opacity="0.4"/>
<defs>
<filter id="filter0_ddd_3846_6338" x="457" y="210" width="41" height="42" filterUnits="userSpaceOnUse" color-interpolation-filters="sRGB">
<feFlood flood-opacity="0" result="BackgroundImageFix"/>
<feColorMatrix in="SourceAlpha" type="matrix" values="0 0 0 0 0 0 0 0 0 0 0 0 0 0 0 0 0 0 127 0" result="hardAlpha"/>
<feMorphology radius="4" operator="dilate" in="SourceAlpha" result="effect1_dropShadow_3846_6338"/>
<feOffset/>
<feComposite in2="hardAlpha" operator="out"/>
<feColorMatrix type="matrix" values="0 0 0 0 0.392157 0 0 0 0 0.705882 0 0 0 0 0.980392 0 0 0 1 0"/>
<feBlend mode="normal" in2="BackgroundImageFix" result="effect1_dropShadow_3846_6338"/>
<feColorMatrix in="SourceAlpha" type="matrix" values="0 0 0 0 0 0 0 0 0 0 0 0 0 0 0 0 0 0 127 0" result="hardAlpha"/>
<feMorphology radius="5" operator="dilate" in="SourceAlpha" result="effect2_dropShadow_3846_6338"/>
<feOffset/>
<feComposite in2="hardAlpha" operator="out"/>
<feColorMatrix type="matrix" values="0 0 0 0 0.392157 0 0 0 0 0.705882 0 0 0 0 0.980392 0 0 0 0.3 0"/>
<feBlend mode="normal" in2="effect1_dropShadow_3846_6338" result="effect2_dropShadow_3846_6338"/>
<feColorMatrix in="SourceAlpha" type="matrix" values="0 0 0 0 0 0 0 0 0 0 0 0 0 0 0 0 0 0 127 0" result="hardAlpha"/>
<feMorphology radius="2" operator="dilate" in="SourceAlpha" result="effect3_dropShadow_3846_6338"/>
<feOffset/>
<feComposite in2="hardAlpha" operator="out"/>
<feColorMatrix type="matrix" values="0 0 0 0 0 0 0 0 0 0 0 0 0 0 0 0 0 0 1 0"/>
<feBlend mode="normal" in2="effect2_dropShadow_3846_6338" result="effect3_dropShadow_3846_6338"/>
<feBlend mode="normal" in="SourceGraphic" in2="effect3_dropShadow_3846_6338" result="shape"/>
</filter>
<linearGradient id="paint0_linear_3846_6338" x1="111" y1="122.116" x2="111" y2="184.134" gradientUnits="userSpaceOnUse">
<stop stop-color="#93C437"/>
<stop offset="1" stop-color="#279BE8"/>
</linearGradient>
<clipPath id="clip0_3846_6338">
<rect width="16" height="16" fill="white" transform="translate(20 271)"/>
</clipPath>
<clipPath id="clip1_3846_6338">
<rect width="16" height="16" fill="white" transform="translate(21 223)"/>
</clipPath>
<clipPath id="clip2_3846_6338">
<rect width="31" height="32" fill="white" transform="translate(462 215)"/>
</clipPath>
</defs>
</svg>
