<svg width="32" height="32" viewBox="0 0 32 32" fill="none" xmlns="http://www.w3.org/2000/svg">
<g clip-path="url(#clip0_2655_3766)">
<path d="M-0.000732422 7.02439C-0.000732422 3.14493 3.1442 0 7.02366 0H24.9749C28.8543 0 31.9993 3.14493 31.9993 7.02439V24.9756C31.9993 28.8551 28.8543 32 24.9749 32H7.02366C3.1442 32 -0.000732422 28.8551 -0.000732422 24.9756V7.02439Z" fill="url(#paint0_linear_2655_3766)"/>
<g filter="url(#filter0_d_2655_3766)">
<path d="M22.5759 20.0018C22.3399 20.2188 22.0838 20.4133 21.8109 20.5829C21.962 20.2357 22.1505 19.8503 22.3016 19.5437C23.1318 17.8481 24.072 15.9258 22.8273 14.6956C21.4568 13.3413 19.5994 14.8317 17.4507 16.5606C17.1751 16.7826 16.838 17.0522 16.4936 17.3195C16.7667 16.9317 17.0519 16.5427 17.2948 16.211C19.2272 13.574 21.2248 10.8475 19.4109 9.20569C19.1975 9.01644 18.9476 8.87165 18.6762 8.78C18.4048 8.68835 18.1175 8.65173 17.8314 8.67232C14.8972 8.80119 9.3067 14.6193 7.66315 16.3995C7.55186 16.5178 7.46541 16.6567 7.4088 16.8082C7.3522 16.9597 7.32655 17.1208 7.33334 17.2821C7.34014 17.4434 7.37924 17.6018 7.4484 17.7481C7.51755 17.8944 7.61538 18.0258 7.73624 18.1345C7.85709 18.2433 7.99858 18.3274 8.15253 18.3818C8.30647 18.4363 8.46983 18.4601 8.63314 18.4519C8.79646 18.4437 8.95651 18.4036 9.10405 18.3339C9.25158 18.2643 9.38368 18.1665 9.49271 18.0461C12.6191 14.6598 16.1491 11.6875 17.5727 11.1864C16.9431 12.4606 16.1779 13.665 15.2898 14.7791C13.5291 17.1798 12.1393 19.077 13.4541 20.3764C14.8729 21.7796 16.885 20.1664 19.0132 18.4554C19.4809 18.0795 20.1298 17.5581 20.6809 17.1679C20.4912 17.6249 20.2434 18.132 20.0731 18.4804C19.2718 20.1163 18.5153 21.6615 19.5836 22.7163C19.7793 22.9151 20.014 23.0723 20.2733 23.1783C20.5326 23.2844 20.8111 23.3371 21.0918 23.3332C22.3089 23.2063 23.4397 22.6535 24.2798 21.7749C24.518 21.5518 24.6566 21.2444 24.6652 20.9204C24.6738 20.5964 24.5517 20.2822 24.3257 20.0471C24.0997 19.812 23.7884 19.6751 23.4602 19.6666C23.1321 19.6581 22.814 19.7787 22.5759 20.0018Z" fill="url(#paint1_linear_2655_3766)"/>
<path d="M22.5759 20.0018C22.3399 20.2188 21.8109 21.221 20.9989 21.0001C20.3323 20.6667 20.8479 19.9734 20.9989 19.6667C21.8292 17.9712 22.6656 16.6667 21.8109 15.6667C21.3323 15.3334 19.481 14.9378 17.3323 16.6667C17.0567 16.8887 15.7658 18.2132 15.4214 18.4804C13.6656 19.0001 15.1785 15.0273 15.4214 14.6956C17.3537 12.0586 19.4109 11.6667 19.4109 9.20569C19.1975 9.01644 18.9476 8.87165 18.6762 8.78C18.4048 8.68835 18.1175 8.65173 17.8314 8.67232C13.9989 11.1864 10.3323 15.3334 7.66315 16.3995C7.55186 16.5178 7.46541 16.6567 7.4088 16.8082C7.3522 16.9597 7.32655 17.1208 7.33334 17.2821C7.34014 17.4434 7.37924 17.6018 7.4484 17.7481C7.51755 17.8944 7.61538 18.0258 7.73624 18.1345C7.8571 18.2433 7.99858 18.3274 8.15253 18.3818C8.30647 18.4363 8.46983 18.4601 8.63314 18.4519C8.79646 18.4437 8.95651 18.4036 9.10405 18.3339C9.25158 18.2643 9.38368 18.1665 9.49271 18.0461C12.6191 14.6598 16.1491 11.6875 17.5727 11.1864C16.9431 12.4606 16.1779 13.665 15.2898 14.7791C13.5291 17.1798 12.1393 19.077 13.4541 20.3764C14.8729 21.7796 16.2041 19.3778 18.3323 17.6667C18.7999 17.2909 19.9989 17.0001 20.6656 17.0001C20.9989 17.0001 20.301 18.132 20.1306 18.4804C19.3293 20.1163 18.5153 21.6615 19.5836 22.7163C19.7793 22.9151 20.014 23.0723 20.2733 23.1783C20.5326 23.2844 20.8111 23.3371 21.0918 23.3332C22.3089 23.2063 23.4397 22.6535 24.2798 21.7749C24.5179 21.5518 24.6566 21.2444 24.6652 20.9204C24.6738 20.5964 24.5517 20.2822 24.3257 20.0471C24.0997 19.812 23.7884 19.6751 23.4602 19.6666C23.1321 19.6581 22.814 19.7787 22.5759 20.0018Z" fill="url(#paint2_linear_2655_3766)"/>
</g>
</g>
<defs>
<filter id="filter0_d_2655_3766" x="-0.000732422" y="4" width="32" height="32" filterUnits="userSpaceOnUse" color-interpolation-filters="sRGB">
<feFlood flood-opacity="0" result="BackgroundImageFix"/>
<feColorMatrix in="SourceAlpha" type="matrix" values="0 0 0 0 0 0 0 0 0 0 0 0 0 0 0 0 0 0 127 0" result="hardAlpha"/>
<feOffset dy="4"/>
<feGaussianBlur stdDeviation="2"/>
<feComposite in2="hardAlpha" operator="out"/>
<feColorMatrix type="matrix" values="0 0 0 0 0 0 0 0 0 0 0 0 0 0 0 0 0 0 0.25 0"/>
<feBlend mode="normal" in2="BackgroundImageFix" result="effect1_dropShadow_2655_3766"/>
<feBlend mode="normal" in="SourceGraphic" in2="effect1_dropShadow_2655_3766" result="shape"/>
</filter>
<linearGradient id="paint0_linear_2655_3766" x1="15.9993" y1="0" x2="15.9993" y2="32" gradientUnits="userSpaceOnUse">
<stop stop-color="#313131"/>
<stop offset="1" stop-color="#070707"/>
<stop offset="1" stop-color="#020202"/>
</linearGradient>
<linearGradient id="paint1_linear_2655_3766" x1="15.9989" y1="8.66675" x2="15.9989" y2="23.3334" gradientUnits="userSpaceOnUse">
<stop stop-color="#F55868"/>
<stop offset="1" stop-color="#875AE0"/>
</linearGradient>
<linearGradient id="paint2_linear_2655_3766" x1="15.9989" y1="8.66675" x2="15.9989" y2="23.3334" gradientUnits="userSpaceOnUse">
<stop stop-color="#DD4F5E"/>
<stop offset="1" stop-color="#6643AA"/>
</linearGradient>
<clipPath id="clip0_2655_3766">
<rect width="32" height="32" fill="white" transform="translate(-0.000732422)"/>
</clipPath>
</defs>
</svg>
