<svg width="460" height="440" viewBox="0 0 460 440" fill="none" xmlns="http://www.w3.org/2000/svg">
<rect width="460" height="301" rx="8" fill="#1A1A1A"/>
<path d="M130.43 88H127.881L126.621 84.4355H121.113L119.902 88H117.363L122.607 73.9961H125.225L130.43 88ZM126.006 82.541L124.062 76.9551C124.004 76.7728 123.942 76.4798 123.877 76.0762H123.838C123.779 76.4473 123.714 76.7402 123.643 76.9551L121.719 82.541H126.006ZM147.061 88H144.795V82.5508C144.795 81.5026 144.645 80.7441 144.346 80.2754C144.053 79.8066 143.555 79.5723 142.852 79.5723C142.259 79.5723 141.755 79.8685 141.338 80.4609C140.928 81.0534 140.723 81.763 140.723 82.5898V88H138.447V82.3652C138.447 80.5033 137.79 79.5723 136.475 79.5723C135.863 79.5723 135.358 79.8522 134.961 80.4121C134.57 80.972 134.375 81.6979 134.375 82.5898V88H132.109V78H134.375V79.582H134.414C135.137 78.3711 136.188 77.7656 137.568 77.7656C138.258 77.7656 138.861 77.9577 139.375 78.3418C139.896 78.7194 140.251 79.2174 140.439 79.8359C141.182 78.4557 142.288 77.7656 143.76 77.7656C145.96 77.7656 147.061 79.123 147.061 81.8379V88ZM158.291 83.6152H151.475C151.501 84.5397 151.784 85.2526 152.324 85.7539C152.871 86.2552 153.62 86.5059 154.57 86.5059C155.638 86.5059 156.618 86.1868 157.51 85.5488V87.375C156.598 87.9479 155.394 88.2344 153.896 88.2344C152.425 88.2344 151.27 87.7819 150.43 86.877C149.596 85.9655 149.18 84.6862 149.18 83.0391C149.18 81.4831 149.639 80.2168 150.557 79.2402C151.481 78.2572 152.627 77.7656 153.994 77.7656C155.361 77.7656 156.419 78.2051 157.168 79.084C157.917 79.9629 158.291 81.1836 158.291 82.7461V83.6152ZM156.104 82.0137C156.097 81.1999 155.905 80.5684 155.527 80.1191C155.15 79.6634 154.629 79.4355 153.965 79.4355C153.314 79.4355 152.76 79.6732 152.305 80.1484C151.855 80.6237 151.579 81.2454 151.475 82.0137H156.104ZM166.25 80.1582C165.977 79.9434 165.583 79.8359 165.068 79.8359C164.398 79.8359 163.838 80.1387 163.389 80.7441C162.939 81.3496 162.715 82.1732 162.715 83.2148V88H160.449V78H162.715V80.0605H162.754C162.975 79.3574 163.314 78.8105 163.77 78.4199C164.232 78.0228 164.746 77.8242 165.312 77.8242C165.723 77.8242 166.035 77.8861 166.25 78.0098V80.1582ZM168.994 75.9004C168.623 75.9004 168.304 75.7799 168.037 75.5391C167.777 75.2982 167.646 74.9922 167.646 74.6211C167.646 74.25 167.777 73.9408 168.037 73.6934C168.304 73.446 168.623 73.3223 168.994 73.3223C169.378 73.3223 169.704 73.446 169.971 73.6934C170.238 73.9408 170.371 74.25 170.371 74.6211C170.371 74.9727 170.238 75.2754 169.971 75.5293C169.704 75.7767 169.378 75.9004 168.994 75.9004ZM170.117 88H167.852V78H170.117V88ZM180.244 87.541C179.443 88.0033 178.496 88.2344 177.402 88.2344C175.918 88.2344 174.72 87.7721 173.809 86.8477C172.897 85.9167 172.441 84.7122 172.441 83.2344C172.441 81.5872 172.93 80.2656 173.906 79.2695C174.889 78.2669 176.201 77.7656 177.842 77.7656C178.753 77.7656 179.557 77.9251 180.254 78.2441V80.3535C179.557 79.8327 178.815 79.5723 178.027 79.5723C177.07 79.5723 176.286 79.8978 175.674 80.5488C175.062 81.1934 174.756 82.0397 174.756 83.0879C174.756 84.123 175.042 84.9401 175.615 85.5391C176.195 86.138 176.969 86.4375 177.939 86.4375C178.753 86.4375 179.521 86.1478 180.244 85.5684V87.541ZM190.176 88H187.979V86.4375H187.939C187.249 87.6354 186.237 88.2344 184.902 88.2344C183.919 88.2344 183.148 87.9674 182.588 87.4336C182.035 86.8997 181.758 86.1934 181.758 85.3145C181.758 83.4264 182.845 82.3262 185.02 82.0137L187.988 81.5938C187.988 80.168 187.311 79.4551 185.957 79.4551C184.766 79.4551 183.691 79.8652 182.734 80.6855V78.7031C183.789 78.0781 185.007 77.7656 186.387 77.7656C188.913 77.7656 190.176 79.0091 190.176 81.4961V88ZM187.988 83.0879L185.889 83.3809C185.238 83.4655 184.746 83.625 184.414 83.8594C184.089 84.0872 183.926 84.4909 183.926 85.0703C183.926 85.4935 184.076 85.8418 184.375 86.1152C184.681 86.3822 185.088 86.5156 185.596 86.5156C186.286 86.5156 186.855 86.2747 187.305 85.793C187.76 85.3047 187.988 84.6927 187.988 83.957V83.0879ZM201.855 88H199.59V82.3652C199.59 80.4967 198.929 79.5625 197.607 79.5625C196.917 79.5625 196.348 79.8229 195.898 80.3438C195.449 80.8581 195.225 81.5091 195.225 82.2969V88H192.949V78H195.225V79.6602H195.264C196.012 78.3971 197.093 77.7656 198.506 77.7656C199.593 77.7656 200.423 78.1204 200.996 78.8301C201.569 79.5332 201.855 80.5521 201.855 81.8867V88ZM209.746 87.4434V85.0508C209.961 85.2461 210.215 85.4219 210.508 85.5781C210.807 85.7344 211.123 85.8678 211.455 85.9785C211.787 86.0827 212.119 86.1641 212.451 86.2227C212.783 86.2812 213.089 86.3105 213.369 86.3105C214.346 86.3105 215.072 86.1478 215.547 85.8223C216.029 85.4967 216.27 85.0247 216.27 84.4062C216.27 84.0742 216.188 83.7878 216.025 83.5469C215.869 83.2995 215.648 83.0749 215.361 82.873C215.075 82.6712 214.736 82.4792 214.346 82.2969C213.962 82.1081 213.548 81.9128 213.105 81.7109C212.63 81.457 212.188 81.1999 211.777 80.9395C211.367 80.679 211.009 80.3926 210.703 80.0801C210.404 79.7611 210.166 79.403 209.99 79.0059C209.821 78.6087 209.736 78.1432 209.736 77.6094C209.736 76.9518 209.883 76.3822 210.176 75.9004C210.475 75.4121 210.866 75.0117 211.348 74.6992C211.836 74.3802 212.389 74.1458 213.008 73.9961C213.626 73.8398 214.258 73.7617 214.902 73.7617C216.367 73.7617 217.435 73.9277 218.105 74.2598V76.5547C217.311 75.9818 216.289 75.6953 215.039 75.6953C214.694 75.6953 214.349 75.7279 214.004 75.793C213.665 75.8581 213.359 75.9655 213.086 76.1152C212.819 76.265 212.601 76.457 212.432 76.6914C212.262 76.9258 212.178 77.209 212.178 77.541C212.178 77.8535 212.243 78.1237 212.373 78.3516C212.503 78.5794 212.692 78.7878 212.939 78.9766C213.193 79.1654 213.499 79.3509 213.857 79.5332C214.222 79.709 214.642 79.901 215.117 80.1094C215.605 80.3633 216.064 80.6302 216.494 80.9102C216.93 81.1901 217.311 81.4993 217.637 81.8379C217.969 82.1764 218.229 82.554 218.418 82.9707C218.613 83.3809 218.711 83.8496 218.711 84.377C218.711 85.0866 218.568 85.6855 218.281 86.1738C217.995 86.6621 217.607 87.0592 217.119 87.3652C216.637 87.6712 216.081 87.8926 215.449 88.0293C214.818 88.166 214.15 88.2344 213.447 88.2344C213.213 88.2344 212.923 88.2148 212.578 88.1758C212.24 88.1432 211.891 88.0911 211.533 88.0195C211.175 87.9544 210.837 87.873 210.518 87.7754C210.199 87.6777 209.941 87.5671 209.746 87.4434ZM222.178 75.9004C221.807 75.9004 221.488 75.7799 221.221 75.5391C220.96 75.2982 220.83 74.9922 220.83 74.6211C220.83 74.25 220.96 73.9408 221.221 73.6934C221.488 73.446 221.807 73.3223 222.178 73.3223C222.562 73.3223 222.887 73.446 223.154 73.6934C223.421 73.9408 223.555 74.25 223.555 74.6211C223.555 74.9727 223.421 75.2754 223.154 75.5293C222.887 75.7767 222.562 75.9004 222.178 75.9004ZM223.301 88H221.035V78H223.301V88ZM235.371 87.1992C235.371 90.8711 233.525 92.707 229.834 92.707C228.532 92.707 227.396 92.4889 226.426 92.0527V89.9824C227.52 90.6074 228.558 90.9199 229.541 90.9199C231.917 90.9199 233.105 89.7513 233.105 87.4141V86.3203H233.066C232.318 87.5964 231.191 88.2344 229.688 88.2344C228.47 88.2344 227.487 87.7917 226.738 86.9062C225.996 86.0143 225.625 84.8197 225.625 83.3223C225.625 81.623 226.025 80.2721 226.826 79.2695C227.627 78.2669 228.727 77.7656 230.127 77.7656C231.449 77.7656 232.428 78.306 233.066 79.3867H233.105V78H235.371V87.1992ZM233.125 83.4199V82.1211C233.125 81.418 232.891 80.819 232.422 80.3242C231.96 79.8229 231.38 79.5723 230.684 79.5723C229.824 79.5723 229.15 79.8913 228.662 80.5293C228.18 81.1608 227.939 82.0462 227.939 83.1855C227.939 84.1686 228.171 84.9564 228.633 85.5488C229.102 86.1348 229.72 86.4277 230.488 86.4277C231.27 86.4277 231.904 86.1478 232.393 85.5879C232.881 85.0215 233.125 84.2988 233.125 83.4199ZM247.227 88H244.961V82.3652C244.961 80.4967 244.3 79.5625 242.979 79.5625C242.288 79.5625 241.719 79.8229 241.27 80.3438C240.82 80.8581 240.596 81.5091 240.596 82.2969V88H238.32V78H240.596V79.6602H240.635C241.383 78.3971 242.464 77.7656 243.877 77.7656C244.964 77.7656 245.794 78.1204 246.367 78.8301C246.94 79.5332 247.227 80.5521 247.227 81.8867V88ZM263.516 88H255.762V73.9961H258.086V86.0371H263.516V88ZM272.969 88H270.771V86.4375H270.732C270.042 87.6354 269.03 88.2344 267.695 88.2344C266.712 88.2344 265.941 87.9674 265.381 87.4336C264.827 86.8997 264.551 86.1934 264.551 85.3145C264.551 83.4264 265.638 82.3262 267.812 82.0137L270.781 81.5938C270.781 80.168 270.104 79.4551 268.75 79.4551C267.559 79.4551 266.484 79.8652 265.527 80.6855V78.7031C266.582 78.0781 267.799 77.7656 269.18 77.7656C271.706 77.7656 272.969 79.0091 272.969 81.4961V88ZM270.781 83.0879L268.682 83.3809C268.031 83.4655 267.539 83.625 267.207 83.8594C266.882 84.0872 266.719 84.4909 266.719 85.0703C266.719 85.4935 266.868 85.8418 267.168 86.1152C267.474 86.3822 267.881 86.5156 268.389 86.5156C269.079 86.5156 269.648 86.2747 270.098 85.793C270.553 85.3047 270.781 84.6927 270.781 83.957V83.0879ZM284.648 88H282.383V82.3652C282.383 80.4967 281.722 79.5625 280.4 79.5625C279.71 79.5625 279.141 79.8229 278.691 80.3438C278.242 80.8581 278.018 81.5091 278.018 82.2969V88H275.742V78H278.018V79.6602H278.057C278.805 78.3971 279.886 77.7656 281.299 77.7656C282.386 77.7656 283.216 78.1204 283.789 78.8301C284.362 79.5332 284.648 80.5521 284.648 81.8867V88ZM296.523 87.1992C296.523 90.8711 294.678 92.707 290.986 92.707C289.684 92.707 288.548 92.4889 287.578 92.0527V89.9824C288.672 90.6074 289.71 90.9199 290.693 90.9199C293.07 90.9199 294.258 89.7513 294.258 87.4141V86.3203H294.219C293.47 87.5964 292.344 88.2344 290.84 88.2344C289.622 88.2344 288.639 87.7917 287.891 86.9062C287.148 86.0143 286.777 84.8197 286.777 83.3223C286.777 81.623 287.178 80.2721 287.979 79.2695C288.779 78.2669 289.88 77.7656 291.279 77.7656C292.601 77.7656 293.581 78.306 294.219 79.3867H294.258V78H296.523V87.1992ZM294.277 83.4199V82.1211C294.277 81.418 294.043 80.819 293.574 80.3242C293.112 79.8229 292.533 79.5723 291.836 79.5723C290.977 79.5723 290.303 79.8913 289.814 80.5293C289.333 81.1608 289.092 82.0462 289.092 83.1855C289.092 84.1686 289.323 84.9564 289.785 85.5488C290.254 86.1348 290.872 86.4277 291.641 86.4277C292.422 86.4277 293.057 86.1478 293.545 85.5879C294.033 85.0215 294.277 84.2988 294.277 83.4199ZM308.193 88H305.928V86.418H305.889C305.231 87.6289 304.209 88.2344 302.822 88.2344C300.459 88.2344 299.277 86.8151 299.277 83.9766V78H301.543V83.7422C301.543 85.5391 302.236 86.4375 303.623 86.4375C304.294 86.4375 304.844 86.1901 305.273 85.6953C305.71 85.2005 305.928 84.5527 305.928 83.752V78H308.193V88ZM318.828 88H316.631V86.4375H316.592C315.902 87.6354 314.889 88.2344 313.555 88.2344C312.572 88.2344 311.8 87.9674 311.24 87.4336C310.687 86.8997 310.41 86.1934 310.41 85.3145C310.41 83.4264 311.497 82.3262 313.672 82.0137L316.641 81.5938C316.641 80.168 315.964 79.4551 314.609 79.4551C313.418 79.4551 312.344 79.8652 311.387 80.6855V78.7031C312.441 78.0781 313.659 77.7656 315.039 77.7656C317.565 77.7656 318.828 79.0091 318.828 81.4961V88ZM316.641 83.0879L314.541 83.3809C313.89 83.4655 313.398 83.625 313.066 83.8594C312.741 84.0872 312.578 84.4909 312.578 85.0703C312.578 85.4935 312.728 85.8418 313.027 86.1152C313.333 86.3822 313.74 86.5156 314.248 86.5156C314.938 86.5156 315.508 86.2747 315.957 85.793C316.413 85.3047 316.641 84.6927 316.641 83.957V83.0879ZM330.703 87.1992C330.703 90.8711 328.857 92.707 325.166 92.707C323.864 92.707 322.728 92.4889 321.758 92.0527V89.9824C322.852 90.6074 323.89 90.9199 324.873 90.9199C327.249 90.9199 328.438 89.7513 328.438 87.4141V86.3203H328.398C327.65 87.5964 326.523 88.2344 325.02 88.2344C323.802 88.2344 322.819 87.7917 322.07 86.9062C321.328 86.0143 320.957 84.8197 320.957 83.3223C320.957 81.623 321.357 80.2721 322.158 79.2695C322.959 78.2669 324.059 77.7656 325.459 77.7656C326.781 77.7656 327.76 78.306 328.398 79.3867H328.438V78H330.703V87.1992ZM328.457 83.4199V82.1211C328.457 81.418 328.223 80.819 327.754 80.3242C327.292 79.8229 326.712 79.5723 326.016 79.5723C325.156 79.5723 324.482 79.8913 323.994 80.5293C323.512 81.1608 323.271 82.0462 323.271 83.1855C323.271 84.1686 323.503 84.9564 323.965 85.5488C324.434 86.1348 325.052 86.4277 325.82 86.4277C326.602 86.4277 327.236 86.1478 327.725 85.5879C328.213 85.0215 328.457 84.2988 328.457 83.4199ZM342.119 83.6152H335.303C335.329 84.5397 335.612 85.2526 336.152 85.7539C336.699 86.2552 337.448 86.5059 338.398 86.5059C339.466 86.5059 340.446 86.1868 341.338 85.5488V87.375C340.426 87.9479 339.222 88.2344 337.725 88.2344C336.253 88.2344 335.098 87.7819 334.258 86.877C333.424 85.9655 333.008 84.6862 333.008 83.0391C333.008 81.4831 333.467 80.2168 334.385 79.2402C335.309 78.2572 336.455 77.7656 337.822 77.7656C339.189 77.7656 340.247 78.2051 340.996 79.084C341.745 79.9629 342.119 81.1836 342.119 82.7461V83.6152ZM339.932 82.0137C339.925 81.1999 339.733 80.5684 339.355 80.1191C338.978 79.6634 338.457 79.4355 337.793 79.4355C337.142 79.4355 336.589 79.6732 336.133 80.1484C335.684 80.6237 335.407 81.2454 335.303 82.0137H339.932Z" fill="white" fill-opacity="0.95"/>
<path d="M36 277.5H34.5V276C34.5 275.867 34.4473 275.74 34.3536 275.646C34.2598 275.552 34.1326 275.5 34 275.5C33.8674 275.5 33.7402 275.552 33.6464 275.646C33.5527 275.74 33.5 275.867 33.5 276V277.5H32C31.8674 277.5 31.7402 277.552 31.6464 277.646C31.5527 277.74 31.5 277.867 31.5 278C31.5 278.132 31.5527 278.26 31.6464 278.353C31.7402 278.447 31.8674 278.5 32 278.5H33.5V280C33.5 280.132 33.5527 280.26 33.6464 280.353C33.7402 280.447 33.8674 280.5 34 280.5C34.1326 280.5 34.2598 280.447 34.3536 280.353C34.4473 280.26 34.5 280.132 34.5 280V278.5H36C36.1326 278.5 36.2598 278.447 36.3536 278.353C36.4473 278.26 36.5 278.132 36.5 278C36.5 277.867 36.4473 277.74 36.3536 277.646C36.2598 277.552 36.1326 277.5 36 277.5Z" fill="white" fill-opacity="0.95"/>
<path d="M31.4233 279.856C28.8989 280.255 26.0561 279.825 24.9512 278.88C24.8175 278.783 24.7075 278.657 24.6293 278.511C24.5512 278.366 24.507 278.205 24.5 278.04C24.5 275.579 26.7896 273.5 29.5 273.5C30.6549 273.5 31.7777 273.88 32.6953 274.581C32.8003 274.662 32.9332 274.698 33.0647 274.681C33.1962 274.664 33.3155 274.595 33.3965 274.49C33.4774 274.385 33.5133 274.252 33.4963 274.121C33.4793 273.989 33.4107 273.87 33.3057 273.789C32.755 273.367 32.1374 273.04 31.4785 272.822C32.0175 272.409 32.4134 271.837 32.6104 271.186C32.8075 270.536 32.7958 269.841 32.5771 269.197C32.3583 268.554 31.9435 267.996 31.3909 267.6C30.8384 267.205 30.1758 266.993 29.4964 266.994C28.817 266.994 28.1549 267.208 27.6032 267.605C27.0515 268.001 26.638 268.561 26.4207 269.204C26.2034 269.848 26.1933 270.544 26.3918 271.193C26.5903 271.843 26.9875 272.414 27.5274 272.827C25.2107 273.6 23.5 275.672 23.5 278.04C23.5066 278.349 23.5819 278.653 23.7205 278.93C23.8591 279.207 24.0575 279.449 24.3013 279.64C25.4097 280.588 27.5239 280.997 29.521 280.997C30.2098 280.999 30.8977 280.948 31.5786 280.845C31.6435 280.834 31.7057 280.811 31.7618 280.777C31.8179 280.743 31.8666 280.698 31.9053 280.645C31.944 280.592 31.9718 280.532 31.9872 280.468C32.0026 280.404 32.0053 280.338 31.9951 280.273C31.9849 280.208 31.962 280.146 31.9278 280.09C31.8935 280.034 31.8486 279.985 31.7955 279.946C31.7424 279.907 31.6822 279.88 31.6183 279.864C31.5545 279.849 31.4882 279.846 31.4233 279.856ZM27.25 270.25C27.25 269.805 27.382 269.37 27.6292 269C27.8764 268.63 28.2278 268.341 28.639 268.171C29.0501 268.001 29.5025 267.956 29.939 268.043C30.3754 268.13 30.7763 268.344 31.091 268.659C31.4057 268.973 31.62 269.374 31.7068 269.811C31.7936 270.247 31.749 270.7 31.5787 271.111C31.4084 271.522 31.12 271.873 30.75 272.121C30.38 272.368 29.945 272.5 29.5 272.5C28.9035 272.499 28.3315 272.262 27.9097 271.84C27.4879 271.418 27.2507 270.846 27.25 270.25Z" fill="white" fill-opacity="0.95"/>
<path d="M51.7148 280H49.9307L49.0488 277.505H45.1934L44.3457 280H42.5684L46.2393 270.197H48.0713L51.7148 280ZM48.6182 276.179L47.2578 272.269C47.2168 272.141 47.1735 271.936 47.1279 271.653H47.1006C47.0596 271.913 47.014 272.118 46.9639 272.269L45.6172 276.179H48.6182ZM59.2549 280H57.6689V278.811H57.6416C57.1312 279.713 56.3451 280.164 55.2832 280.164C54.4219 280.164 53.7314 279.852 53.2119 279.228C52.6969 278.599 52.4395 277.744 52.4395 276.664C52.4395 275.507 52.7243 274.579 53.2939 273.882C53.8682 273.185 54.6315 272.836 55.584 272.836C56.5273 272.836 57.2132 273.214 57.6416 273.971H57.6689V269.637H59.2549V280ZM57.6895 276.801V275.885C57.6895 275.388 57.5277 274.966 57.2041 274.62C56.8805 274.274 56.4681 274.101 55.9668 274.101C55.3743 274.101 54.9072 274.322 54.5654 274.764C54.2282 275.206 54.0596 275.819 54.0596 276.603C54.0596 277.313 54.2214 277.876 54.5449 278.291C54.873 278.701 55.3128 278.906 55.8643 278.906C56.4066 278.906 56.8464 278.708 57.1836 278.312C57.5208 277.91 57.6895 277.407 57.6895 276.801ZM67.6904 280H66.1045V278.811H66.0771C65.5667 279.713 64.7806 280.164 63.7188 280.164C62.8574 280.164 62.167 279.852 61.6475 279.228C61.1325 278.599 60.875 277.744 60.875 276.664C60.875 275.507 61.1598 274.579 61.7295 273.882C62.3037 273.185 63.0671 272.836 64.0195 272.836C64.9629 272.836 65.6488 273.214 66.0771 273.971H66.1045V269.637H67.6904V280ZM66.125 276.801V275.885C66.125 275.388 65.9632 274.966 65.6396 274.62C65.3161 274.274 64.9036 274.101 64.4023 274.101C63.8099 274.101 63.3428 274.322 63.001 274.764C62.6637 275.206 62.4951 275.819 62.4951 276.603C62.4951 277.313 62.6569 277.876 62.9805 278.291C63.3086 278.701 63.7484 278.906 64.2998 278.906C64.8421 278.906 65.2819 278.708 65.6191 278.312C65.9564 277.91 66.125 277.407 66.125 276.801ZM74.417 271.53C74.1572 271.53 73.9339 271.446 73.7471 271.277C73.5648 271.109 73.4736 270.895 73.4736 270.635C73.4736 270.375 73.5648 270.159 73.7471 269.985C73.9339 269.812 74.1572 269.726 74.417 269.726C74.6859 269.726 74.9137 269.812 75.1006 269.985C75.2874 270.159 75.3809 270.375 75.3809 270.635C75.3809 270.881 75.2874 271.093 75.1006 271.271C74.9137 271.444 74.6859 271.53 74.417 271.53ZM75.2031 280H73.6172V273H75.2031V280ZM83.5156 280H81.9297V276.056C81.9297 274.748 81.4671 274.094 80.542 274.094C80.0589 274.094 79.6602 274.276 79.3457 274.641C79.0312 275.001 78.874 275.456 78.874 276.008V280H77.2812V273H78.874V274.162H78.9014C79.4255 273.278 80.182 272.836 81.1709 272.836C81.932 272.836 82.513 273.084 82.9141 273.581C83.3151 274.073 83.5156 274.786 83.5156 275.721V280ZM89.1484 279.925C88.8385 280.08 88.4307 280.157 87.9248 280.157C86.5667 280.157 85.8877 279.506 85.8877 278.202V274.244H84.7188V273H85.8877V271.38L87.4736 270.929V273H89.1484V274.244H87.4736V277.744C87.4736 278.159 87.5488 278.455 87.6992 278.633C87.8496 278.811 88.1003 278.899 88.4512 278.899C88.7201 278.899 88.9525 278.822 89.1484 278.667V279.925ZM96.3604 276.931H91.5889C91.6071 277.578 91.8053 278.077 92.1836 278.428C92.5664 278.779 93.0905 278.954 93.7559 278.954C94.5033 278.954 95.1891 278.731 95.8135 278.284V279.562C95.1755 279.964 94.3324 280.164 93.2842 280.164C92.2542 280.164 91.4453 279.847 90.8574 279.214C90.2741 278.576 89.9824 277.68 89.9824 276.527C89.9824 275.438 90.3037 274.552 90.9463 273.868C91.5934 273.18 92.3955 272.836 93.3525 272.836C94.3096 272.836 95.0501 273.144 95.5742 273.759C96.0983 274.374 96.3604 275.229 96.3604 276.322V276.931ZM94.8291 275.81C94.8245 275.24 94.6901 274.798 94.4258 274.483C94.1615 274.164 93.7969 274.005 93.332 274.005C92.8763 274.005 92.4889 274.171 92.1699 274.504C91.8555 274.837 91.6618 275.272 91.5889 275.81H94.8291ZM101.932 274.511C101.74 274.36 101.465 274.285 101.104 274.285C100.635 274.285 100.243 274.497 99.9287 274.921C99.6143 275.345 99.457 275.921 99.457 276.65V280H97.8711V273H99.457V274.442H99.4844C99.6393 273.95 99.8763 273.567 100.195 273.294C100.519 273.016 100.879 272.877 101.275 272.877C101.562 272.877 101.781 272.92 101.932 273.007V274.511ZM104.666 278.968H104.639V283.22H103.053V273H104.639V274.23H104.666C105.208 273.301 106.001 272.836 107.045 272.836C107.934 272.836 108.626 273.148 109.123 273.772C109.62 274.397 109.868 275.235 109.868 276.288C109.868 277.455 109.588 278.389 109.027 279.091C108.467 279.793 107.701 280.144 106.73 280.144C105.837 280.144 105.149 279.752 104.666 278.968ZM104.625 276.206V277.074C104.625 277.585 104.787 278.018 105.11 278.373C105.438 278.729 105.853 278.906 106.354 278.906C106.942 278.906 107.403 278.678 107.735 278.223C108.073 277.762 108.241 277.122 108.241 276.302C108.241 275.614 108.084 275.076 107.77 274.688C107.46 274.297 107.038 274.101 106.505 274.101C105.94 274.101 105.484 274.301 105.138 274.702C104.796 275.103 104.625 275.604 104.625 276.206ZM115.549 274.511C115.357 274.36 115.082 274.285 114.722 274.285C114.252 274.285 113.86 274.497 113.546 274.921C113.231 275.345 113.074 275.921 113.074 276.65V280H111.488V273H113.074V274.442H113.102C113.257 273.95 113.493 273.567 113.812 273.294C114.136 273.016 114.496 272.877 114.893 272.877C115.18 272.877 115.398 272.92 115.549 273.007V274.511ZM122.474 276.931H117.702C117.72 277.578 117.919 278.077 118.297 278.428C118.68 278.779 119.204 278.954 119.869 278.954C120.617 278.954 121.302 278.731 121.927 278.284V279.562C121.289 279.964 120.446 280.164 119.397 280.164C118.368 280.164 117.559 279.847 116.971 279.214C116.387 278.576 116.096 277.68 116.096 276.527C116.096 275.438 116.417 274.552 117.06 273.868C117.707 273.18 118.509 272.836 119.466 272.836C120.423 272.836 121.163 273.144 121.688 273.759C122.212 274.374 122.474 275.229 122.474 276.322V276.931ZM120.942 275.81C120.938 275.24 120.803 274.798 120.539 274.483C120.275 274.164 119.91 274.005 119.445 274.005C118.99 274.005 118.602 274.171 118.283 274.504C117.969 274.837 117.775 275.272 117.702 275.81H120.942ZM127.676 279.925C127.366 280.08 126.958 280.157 126.452 280.157C125.094 280.157 124.415 279.506 124.415 278.202V274.244H123.246V273H124.415V271.38L126.001 270.929V273H127.676V274.244H126.001V277.744C126.001 278.159 126.076 278.455 126.227 278.633C126.377 278.811 126.628 278.899 126.979 278.899C127.247 278.899 127.48 278.822 127.676 278.667V279.925ZM134.888 276.931H130.116C130.134 277.578 130.333 278.077 130.711 278.428C131.094 278.779 131.618 278.954 132.283 278.954C133.031 278.954 133.716 278.731 134.341 278.284V279.562C133.703 279.964 132.86 280.164 131.812 280.164C130.782 280.164 129.973 279.847 129.385 279.214C128.801 278.576 128.51 277.68 128.51 276.527C128.51 275.438 128.831 274.552 129.474 273.868C130.121 273.18 130.923 272.836 131.88 272.836C132.837 272.836 133.577 273.144 134.102 273.759C134.626 274.374 134.888 275.229 134.888 276.322V276.931ZM133.356 275.81C133.352 275.24 133.217 274.798 132.953 274.483C132.689 274.164 132.324 274.005 131.859 274.005C131.404 274.005 131.016 274.171 130.697 274.504C130.383 274.837 130.189 275.272 130.116 275.81H133.356ZM140.459 274.511C140.268 274.36 139.992 274.285 139.632 274.285C139.162 274.285 138.771 274.497 138.456 274.921C138.142 275.345 137.984 275.921 137.984 276.65V280H136.398V273H137.984V274.442H138.012C138.167 273.95 138.404 273.567 138.723 273.294C139.046 273.016 139.406 272.877 139.803 272.877C140.09 272.877 140.309 272.92 140.459 273.007V274.511Z" fill="white" fill-opacity="0.95"/>
<path d="M26.4336 137H25.2852V127.197H26.4336V137ZM34.6777 137H33.5566V133.008C33.5566 131.522 33.0143 130.779 31.9297 130.779C31.3691 130.779 30.9043 130.991 30.5352 131.415C30.1706 131.834 29.9883 132.365 29.9883 133.008V137H28.8672V130H29.9883V131.162H30.0156C30.5443 130.278 31.3099 129.836 32.3125 129.836C33.0781 129.836 33.6637 130.084 34.0693 130.581C34.4749 131.073 34.6777 131.786 34.6777 132.721V137ZM40.0439 136.932C39.7796 137.077 39.431 137.15 38.998 137.15C37.7721 137.15 37.1592 136.467 37.1592 135.1V130.957H35.9561V130H37.1592V128.291L38.2803 127.929V130H40.0439V130.957H38.2803V134.901C38.2803 135.371 38.36 135.706 38.5195 135.906C38.679 136.107 38.9434 136.207 39.3125 136.207C39.5951 136.207 39.8389 136.13 40.0439 135.975V136.932ZM47.0576 133.78H42.1152C42.1335 134.56 42.3431 135.161 42.7441 135.585C43.1452 136.009 43.6966 136.221 44.3984 136.221C45.1868 136.221 45.9115 135.961 46.5723 135.441V136.494C45.957 136.941 45.1436 137.164 44.1318 137.164C43.1429 137.164 42.3659 136.847 41.8008 136.214C41.2357 135.576 40.9531 134.68 40.9531 133.527C40.9531 132.438 41.2607 131.552 41.876 130.868C42.4958 130.18 43.2637 129.836 44.1797 129.836C45.0957 129.836 45.8044 130.132 46.3057 130.725C46.807 131.317 47.0576 132.14 47.0576 133.192V133.78ZM45.9092 132.83C45.9046 132.183 45.7474 131.679 45.4375 131.319C45.1322 130.959 44.7061 130.779 44.1592 130.779C43.6305 130.779 43.1816 130.968 42.8125 131.347C42.4434 131.725 42.2155 132.219 42.1289 132.83H45.9092ZM52.4102 131.135C52.2142 130.984 51.9316 130.909 51.5625 130.909C51.084 130.909 50.6829 131.135 50.3594 131.586C50.0404 132.037 49.8809 132.652 49.8809 133.432V137H48.7598V130H49.8809V131.442H49.9082C50.0677 130.95 50.3115 130.567 50.6396 130.294C50.9678 130.016 51.3346 129.877 51.7402 129.877C52.0319 129.877 52.2552 129.909 52.4102 129.973V131.135ZM54.7754 135.988H54.748V140.22H53.627V130H54.748V131.23H54.7754C55.3268 130.301 56.1335 129.836 57.1953 129.836C58.0977 129.836 58.8018 130.15 59.3076 130.779C59.8135 131.404 60.0664 132.242 60.0664 133.295C60.0664 134.466 59.7816 135.405 59.2119 136.111C58.6423 136.813 57.863 137.164 56.874 137.164C55.9671 137.164 55.2676 136.772 54.7754 135.988ZM54.748 133.165V134.143C54.748 134.721 54.9349 135.214 55.3086 135.619C55.6868 136.02 56.1654 136.221 56.7441 136.221C57.4232 136.221 57.9541 135.961 58.3369 135.441C58.7243 134.922 58.918 134.2 58.918 133.274C58.918 132.495 58.738 131.884 58.3779 131.442C58.0179 131 57.5303 130.779 56.915 130.779C56.2633 130.779 55.7393 131.007 55.3428 131.463C54.9463 131.914 54.748 132.481 54.748 133.165ZM65.5078 131.135C65.3118 130.984 65.0293 130.909 64.6602 130.909C64.1816 130.909 63.7806 131.135 63.457 131.586C63.138 132.037 62.9785 132.652 62.9785 133.432V137H61.8574V130H62.9785V131.442H63.0059C63.1654 130.95 63.4092 130.567 63.7373 130.294C64.0654 130.016 64.4323 129.877 64.8379 129.877C65.1296 129.877 65.3529 129.909 65.5078 129.973V131.135ZM72.1592 133.78H67.2168C67.235 134.56 67.4447 135.161 67.8457 135.585C68.2467 136.009 68.7982 136.221 69.5 136.221C70.2884 136.221 71.013 135.961 71.6738 135.441V136.494C71.0586 136.941 70.2451 137.164 69.2334 137.164C68.2445 137.164 67.4674 136.847 66.9023 136.214C66.3372 135.576 66.0547 134.68 66.0547 133.527C66.0547 132.438 66.3623 131.552 66.9775 130.868C67.5973 130.18 68.3652 129.836 69.2812 129.836C70.1973 129.836 70.9059 130.132 71.4072 130.725C71.9085 131.317 72.1592 132.14 72.1592 133.192V133.78ZM71.0107 132.83C71.0062 132.183 70.849 131.679 70.5391 131.319C70.2337 130.959 69.8076 130.779 69.2607 130.779C68.7321 130.779 68.2832 130.968 67.9141 131.347C67.5449 131.725 67.3171 132.219 67.2305 132.83H71.0107ZM77.1084 136.932C76.8441 137.077 76.4954 137.15 76.0625 137.15C74.8366 137.15 74.2236 136.467 74.2236 135.1V130.957H73.0205V130H74.2236V128.291L75.3447 127.929V130H77.1084V130.957H75.3447V134.901C75.3447 135.371 75.4245 135.706 75.584 135.906C75.7435 136.107 76.0078 136.207 76.377 136.207C76.6595 136.207 76.9033 136.13 77.1084 135.975V136.932ZM84.1221 133.78H79.1797C79.1979 134.56 79.4076 135.161 79.8086 135.585C80.2096 136.009 80.7611 136.221 81.4629 136.221C82.2513 136.221 82.9759 135.961 83.6367 135.441V136.494C83.0215 136.941 82.208 137.164 81.1963 137.164C80.2074 137.164 79.4303 136.847 78.8652 136.214C78.3001 135.576 78.0176 134.68 78.0176 133.527C78.0176 132.438 78.3252 131.552 78.9404 130.868C79.5602 130.18 80.3281 129.836 81.2441 129.836C82.1602 129.836 82.8688 130.132 83.3701 130.725C83.8714 131.317 84.1221 132.14 84.1221 133.192V133.78ZM82.9736 132.83C82.9691 132.183 82.8118 131.679 82.502 131.319C82.1966 130.959 81.7705 130.779 81.2236 130.779C80.695 130.779 80.2461 130.968 79.877 131.347C79.5078 131.725 79.2799 132.219 79.1934 132.83H82.9736ZM89.4746 131.135C89.2786 130.984 88.9961 130.909 88.627 130.909C88.1484 130.909 87.7474 131.135 87.4238 131.586C87.1048 132.037 86.9453 132.652 86.9453 133.432V137H85.8242V130H86.9453V131.442H86.9727C87.1322 130.95 87.376 130.567 87.7041 130.294C88.0322 130.016 88.3991 129.877 88.8047 129.877C89.0964 129.877 89.3197 129.909 89.4746 129.973V131.135ZM100.146 137H94.6016V136.016H96.8164V128.4L94.5469 129.077V128.011L97.9375 126.979V136.016H100.146V137Z" fill="white" fill-opacity="0.95"/>
<rect x="12" y="146" width="436" height="32" rx="8" fill="black"/>
<rect x="12.5" y="146.5" width="435" height="31" rx="7.5" stroke="white" stroke-opacity="0.5"/>
<path d="M31.4062 168H25.4688V156.797H31.1562V157.984H26.7812V161.711H30.8281V162.891H26.7812V166.812H31.4062V168ZM44.75 168H43.4688V163.406C43.4688 162.521 43.3307 161.88 43.0547 161.484C42.7839 161.089 42.3255 160.891 41.6797 160.891C41.1328 160.891 40.6667 161.141 40.2812 161.641C39.901 162.141 39.7109 162.74 39.7109 163.438V168H38.4297V163.25C38.4297 161.677 37.8229 160.891 36.6094 160.891C36.0469 160.891 35.5833 161.128 35.2188 161.602C34.8542 162.07 34.6719 162.682 34.6719 163.438V168H33.3906V160H34.6719V161.266H34.7031C35.2708 160.297 36.099 159.812 37.1875 159.812C37.7344 159.812 38.2109 159.966 38.6172 160.273C39.0234 160.576 39.3021 160.974 39.4531 161.469C40.0469 160.365 40.9323 159.812 42.1094 159.812C43.8698 159.812 44.75 160.898 44.75 163.07V168ZM47.8281 157.969C47.599 157.969 47.4036 157.891 47.2422 157.734C47.0807 157.578 47 157.38 47 157.141C47 156.901 47.0807 156.703 47.2422 156.547C47.4036 156.385 47.599 156.305 47.8281 156.305C48.0625 156.305 48.2604 156.385 48.4219 156.547C48.5885 156.703 48.6719 156.901 48.6719 157.141C48.6719 157.37 48.5885 157.565 48.4219 157.727C48.2604 157.888 48.0625 157.969 47.8281 157.969ZM48.4531 168H47.1719V160H48.4531V168ZM52.3281 168H51.0469V156.156H52.3281V168ZM61.2891 160L57.6094 169.281C56.9531 170.938 56.0312 171.766 54.8438 171.766C54.5104 171.766 54.2318 171.732 54.0078 171.664V170.516C54.2839 170.609 54.5365 170.656 54.7656 170.656C55.4115 170.656 55.8958 170.271 56.2188 169.5L56.8594 167.984L53.7344 160H55.1562L57.3203 166.156C57.3464 166.234 57.401 166.438 57.4844 166.766H57.5312C57.5573 166.641 57.6094 166.443 57.6875 166.172L59.9609 160H61.2891ZM76.2656 168H74.6562L68.8906 159.07C68.7448 158.846 68.625 158.612 68.5312 158.367H68.4844C68.526 158.607 68.5469 159.12 68.5469 159.906V168H67.2344V156.797H68.9375L74.5469 165.586C74.7812 165.951 74.9323 166.201 75 166.336H75.0312C74.9792 166.013 74.9531 165.464 74.9531 164.688V156.797H76.2656V168ZM84.7578 168H83.4766V166.75H83.4453C82.888 167.708 82.0677 168.188 80.9844 168.188C80.1875 168.188 79.5625 167.977 79.1094 167.555C78.6615 167.133 78.4375 166.573 78.4375 165.875C78.4375 164.38 79.3177 163.51 81.0781 163.266L83.4766 162.93C83.4766 161.57 82.9271 160.891 81.8281 160.891C80.8646 160.891 79.9948 161.219 79.2188 161.875V160.562C80.0052 160.062 80.9115 159.812 81.9375 159.812C83.8177 159.812 84.7578 160.807 84.7578 162.797V168ZM83.4766 163.953L81.5469 164.219C80.9531 164.302 80.5052 164.451 80.2031 164.664C79.901 164.872 79.75 165.245 79.75 165.781C79.75 166.172 79.888 166.492 80.1641 166.742C80.4453 166.987 80.8177 167.109 81.2812 167.109C81.9167 167.109 82.4401 166.888 82.8516 166.445C83.2682 165.997 83.4766 165.432 83.4766 164.75V163.953ZM93.8125 168H92.0156L88.4844 164.156H88.4531V168H87.1719V156.156H88.4531V163.664H88.4844L91.8438 160H93.5234L89.8125 163.859L93.8125 168ZM100.852 168H99.5703V166.75H99.5391C98.9818 167.708 98.1615 168.188 97.0781 168.188C96.2812 168.188 95.6562 167.977 95.2031 167.555C94.7552 167.133 94.5312 166.573 94.5312 165.875C94.5312 164.38 95.4115 163.51 97.1719 163.266L99.5703 162.93C99.5703 161.57 99.0208 160.891 97.9219 160.891C96.9583 160.891 96.0885 161.219 95.3125 161.875V160.562C96.099 160.062 97.0052 159.812 98.0312 159.812C99.9115 159.812 100.852 160.807 100.852 162.797V168ZM99.5703 163.953L97.6406 164.219C97.0469 164.302 96.599 164.451 96.2969 164.664C95.9948 164.872 95.8438 165.245 95.8438 165.781C95.8438 166.172 95.9818 166.492 96.2578 166.742C96.5391 166.987 96.9115 167.109 97.375 167.109C98.0104 167.109 98.5339 166.888 98.9453 166.445C99.362 165.997 99.5703 165.432 99.5703 164.75V163.953ZM110.094 167.359C110.094 170.297 108.688 171.766 105.875 171.766C104.885 171.766 104.021 171.578 103.281 171.203V169.922C104.182 170.422 105.042 170.672 105.859 170.672C107.828 170.672 108.812 169.625 108.812 167.531V166.656H108.781C108.172 167.677 107.255 168.188 106.031 168.188C105.036 168.188 104.234 167.833 103.625 167.125C103.021 166.411 102.719 165.456 102.719 164.258C102.719 162.898 103.044 161.818 103.695 161.016C104.352 160.214 105.247 159.812 106.383 159.812C107.461 159.812 108.26 160.245 108.781 161.109H108.812V160H110.094V167.359ZM108.812 164.383V163.203C108.812 162.568 108.596 162.023 108.164 161.57C107.737 161.117 107.203 160.891 106.562 160.891C105.771 160.891 105.151 161.18 104.703 161.758C104.255 162.331 104.031 163.135 104.031 164.172C104.031 165.062 104.245 165.776 104.672 166.312C105.104 166.844 105.674 167.109 106.383 167.109C107.102 167.109 107.685 166.854 108.133 166.344C108.586 165.833 108.812 165.18 108.812 164.383ZM118.414 168H117.133V166.75H117.102C116.544 167.708 115.724 168.188 114.641 168.188C113.844 168.188 113.219 167.977 112.766 167.555C112.318 167.133 112.094 166.573 112.094 165.875C112.094 164.38 112.974 163.51 114.734 163.266L117.133 162.93C117.133 161.57 116.583 160.891 115.484 160.891C114.521 160.891 113.651 161.219 112.875 161.875V160.562C113.661 160.062 114.568 159.812 115.594 159.812C117.474 159.812 118.414 160.807 118.414 162.797V168ZM117.133 163.953L115.203 164.219C114.609 164.302 114.161 164.451 113.859 164.664C113.557 164.872 113.406 165.245 113.406 165.781C113.406 166.172 113.544 166.492 113.82 166.742C114.102 166.987 114.474 167.109 114.938 167.109C115.573 167.109 116.096 166.888 116.508 166.445C116.924 165.997 117.133 165.432 117.133 164.75V163.953ZM130.906 160L128.508 168H127.18L125.531 162.273C125.469 162.055 125.427 161.807 125.406 161.531H125.375C125.359 161.719 125.305 161.961 125.211 162.258L123.422 168H122.141L119.719 160H121.062L122.719 166.016C122.771 166.198 122.807 166.438 122.828 166.734H122.891C122.906 166.505 122.953 166.26 123.031 166L124.875 160H126.047L127.703 166.031C127.755 166.224 127.794 166.464 127.82 166.75H127.883C127.893 166.547 127.938 166.307 128.016 166.031L129.641 160H130.906ZM138.117 168H136.836V166.75H136.805C136.247 167.708 135.427 168.188 134.344 168.188C133.547 168.188 132.922 167.977 132.469 167.555C132.021 167.133 131.797 166.573 131.797 165.875C131.797 164.38 132.677 163.51 134.438 163.266L136.836 162.93C136.836 161.57 136.286 160.891 135.188 160.891C134.224 160.891 133.354 161.219 132.578 161.875V160.562C133.365 160.062 134.271 159.812 135.297 159.812C137.177 159.812 138.117 160.807 138.117 162.797V168ZM136.836 163.953L134.906 164.219C134.312 164.302 133.865 164.451 133.562 164.664C133.26 164.872 133.109 165.245 133.109 165.781C133.109 166.172 133.247 166.492 133.523 166.742C133.805 166.987 134.177 167.109 134.641 167.109C135.276 167.109 135.799 166.888 136.211 166.445C136.628 165.997 136.836 165.432 136.836 164.75V163.953Z" fill="white" fill-opacity="0.95"/>
<path d="M438.354 158.647C438.26 158.553 438.133 158.5 438 158.5C437.868 158.5 437.74 158.553 437.647 158.647L432 164.293L426.353 158.647C426.259 158.555 426.133 158.504 426.002 158.505C425.87 158.506 425.745 158.559 425.652 158.652C425.559 158.745 425.506 158.87 425.505 159.002C425.504 159.133 425.555 159.259 425.646 159.354L431.646 165.354C431.74 165.447 431.867 165.5 432 165.5C432.133 165.5 432.26 165.447 432.353 165.354L438.353 159.354C438.447 159.26 438.5 159.133 438.5 159C438.5 158.868 438.447 158.74 438.354 158.647Z" fill="white" fill-opacity="0.95"/>
<path d="M436 129H427.999C427.859 129 427.72 129.03 427.591 129.087C427.463 129.144 427.348 129.228 427.254 129.333C427.16 129.438 427.09 129.561 427.047 129.695C427.004 129.829 426.99 129.97 427.005 130.11L427.746 136.776C427.814 137.388 428.104 137.953 428.563 138.363C429.021 138.774 429.615 139 430.231 139H433.768C434.384 139 434.978 138.774 435.436 138.363C435.895 137.953 436.185 137.388 436.253 136.776L436.993 130.11C437.009 129.97 436.995 129.829 436.952 129.695C436.909 129.561 436.839 129.438 436.745 129.333C436.651 129.228 436.536 129.144 436.408 129.087C436.279 129.029 436.14 129 436 129ZM435.259 136.666C435.219 137.033 435.044 137.372 434.769 137.618C434.494 137.864 434.137 138 433.768 138H430.231C429.861 138 429.505 137.864 429.23 137.618C428.955 137.372 428.78 137.033 428.74 136.666L427.999 130H436L435.259 136.666Z" fill="white" fill-opacity="0.95"/>
<path d="M427.5 128H436.5C436.633 128 436.76 127.947 436.854 127.853C436.947 127.76 437 127.632 437 127.5C437 127.367 436.947 127.24 436.854 127.146C436.76 127.053 436.633 127 436.5 127H434.5V126.5C434.5 126.102 434.341 125.721 434.06 125.44C433.779 125.158 433.398 125 433 125H431C430.602 125 430.221 125.158 429.94 125.44C429.659 125.721 429.5 126.102 429.5 126.5V127H427.5C427.367 127 427.24 127.053 427.146 127.146C427.053 127.24 427 127.367 427 127.5C427 127.632 427.053 127.76 427.146 127.853C427.24 127.947 427.367 128 427.5 128ZM430.5 126.5C430.5 126.367 430.553 126.24 430.647 126.146C430.74 126.053 430.867 126 431 126H433C433.133 126 433.26 126.053 433.353 126.146C433.447 126.24 433.5 126.367 433.5 126.5V127H430.5V126.5Z" fill="white" fill-opacity="0.95"/>
<path d="M26.4336 207H25.2852V197.197H26.4336V207ZM34.6777 207H33.5566V203.008C33.5566 201.522 33.0143 200.779 31.9297 200.779C31.3691 200.779 30.9043 200.991 30.5352 201.415C30.1706 201.834 29.9883 202.365 29.9883 203.008V207H28.8672V200H29.9883V201.162H30.0156C30.5443 200.278 31.3099 199.836 32.3125 199.836C33.0781 199.836 33.6637 200.084 34.0693 200.581C34.4749 201.073 34.6777 201.786 34.6777 202.721V207ZM40.0439 206.932C39.7796 207.077 39.431 207.15 38.998 207.15C37.7721 207.15 37.1592 206.467 37.1592 205.1V200.957H35.9561V200H37.1592V198.291L38.2803 197.929V200H40.0439V200.957H38.2803V204.901C38.2803 205.371 38.36 205.706 38.5195 205.906C38.679 206.107 38.9434 206.207 39.3125 206.207C39.5951 206.207 39.8389 206.13 40.0439 205.975V206.932ZM47.0576 203.78H42.1152C42.1335 204.56 42.3431 205.161 42.7441 205.585C43.1452 206.009 43.6966 206.221 44.3984 206.221C45.1868 206.221 45.9115 205.961 46.5723 205.441V206.494C45.957 206.941 45.1436 207.164 44.1318 207.164C43.1429 207.164 42.3659 206.847 41.8008 206.214C41.2357 205.576 40.9531 204.68 40.9531 203.527C40.9531 202.438 41.2607 201.552 41.876 200.868C42.4958 200.18 43.2637 199.836 44.1797 199.836C45.0957 199.836 45.8044 200.132 46.3057 200.725C46.807 201.317 47.0576 202.14 47.0576 203.192V203.78ZM45.9092 202.83C45.9046 202.183 45.7474 201.679 45.4375 201.319C45.1322 200.959 44.7061 200.779 44.1592 200.779C43.6305 200.779 43.1816 200.968 42.8125 201.347C42.4434 201.725 42.2155 202.219 42.1289 202.83H45.9092ZM52.4102 201.135C52.2142 200.984 51.9316 200.909 51.5625 200.909C51.084 200.909 50.6829 201.135 50.3594 201.586C50.0404 202.037 49.8809 202.652 49.8809 203.432V207H48.7598V200H49.8809V201.442H49.9082C50.0677 200.95 50.3115 200.567 50.6396 200.294C50.9678 200.016 51.3346 199.877 51.7402 199.877C52.0319 199.877 52.2552 199.909 52.4102 199.973V201.135ZM54.7754 205.988H54.748V210.22H53.627V200H54.748V201.23H54.7754C55.3268 200.301 56.1335 199.836 57.1953 199.836C58.0977 199.836 58.8018 200.15 59.3076 200.779C59.8135 201.404 60.0664 202.242 60.0664 203.295C60.0664 204.466 59.7816 205.405 59.2119 206.111C58.6423 206.813 57.863 207.164 56.874 207.164C55.9671 207.164 55.2676 206.772 54.7754 205.988ZM54.748 203.165V204.143C54.748 204.721 54.9349 205.214 55.3086 205.619C55.6868 206.02 56.1654 206.221 56.7441 206.221C57.4232 206.221 57.9541 205.961 58.3369 205.441C58.7243 204.922 58.918 204.2 58.918 203.274C58.918 202.495 58.738 201.884 58.3779 201.442C58.0179 201 57.5303 200.779 56.915 200.779C56.2633 200.779 55.7393 201.007 55.3428 201.463C54.9463 201.914 54.748 202.481 54.748 203.165ZM65.5078 201.135C65.3118 200.984 65.0293 200.909 64.6602 200.909C64.1816 200.909 63.7806 201.135 63.457 201.586C63.138 202.037 62.9785 202.652 62.9785 203.432V207H61.8574V200H62.9785V201.442H63.0059C63.1654 200.95 63.4092 200.567 63.7373 200.294C64.0654 200.016 64.4323 199.877 64.8379 199.877C65.1296 199.877 65.3529 199.909 65.5078 199.973V201.135ZM72.1592 203.78H67.2168C67.235 204.56 67.4447 205.161 67.8457 205.585C68.2467 206.009 68.7982 206.221 69.5 206.221C70.2884 206.221 71.013 205.961 71.6738 205.441V206.494C71.0586 206.941 70.2451 207.164 69.2334 207.164C68.2445 207.164 67.4674 206.847 66.9023 206.214C66.3372 205.576 66.0547 204.68 66.0547 203.527C66.0547 202.438 66.3623 201.552 66.9775 200.868C67.5973 200.18 68.3652 199.836 69.2812 199.836C70.1973 199.836 70.9059 200.132 71.4072 200.725C71.9085 201.317 72.1592 202.14 72.1592 203.192V203.78ZM71.0107 202.83C71.0062 202.183 70.849 201.679 70.5391 201.319C70.2337 200.959 69.8076 200.779 69.2607 200.779C68.7321 200.779 68.2832 200.968 67.9141 201.347C67.5449 201.725 67.3171 202.219 67.2305 202.83H71.0107ZM77.1084 206.932C76.8441 207.077 76.4954 207.15 76.0625 207.15C74.8366 207.15 74.2236 206.467 74.2236 205.1V200.957H73.0205V200H74.2236V198.291L75.3447 197.929V200H77.1084V200.957H75.3447V204.901C75.3447 205.371 75.4245 205.706 75.584 205.906C75.7435 206.107 76.0078 206.207 76.377 206.207C76.6595 206.207 76.9033 206.13 77.1084 205.975V206.932ZM84.1221 203.78H79.1797C79.1979 204.56 79.4076 205.161 79.8086 205.585C80.2096 206.009 80.7611 206.221 81.4629 206.221C82.2513 206.221 82.9759 205.961 83.6367 205.441V206.494C83.0215 206.941 82.208 207.164 81.1963 207.164C80.2074 207.164 79.4303 206.847 78.8652 206.214C78.3001 205.576 78.0176 204.68 78.0176 203.527C78.0176 202.438 78.3252 201.552 78.9404 200.868C79.5602 200.18 80.3281 199.836 81.2441 199.836C82.1602 199.836 82.8688 200.132 83.3701 200.725C83.8714 201.317 84.1221 202.14 84.1221 203.192V203.78ZM82.9736 202.83C82.9691 202.183 82.8118 201.679 82.502 201.319C82.1966 200.959 81.7705 200.779 81.2236 200.779C80.695 200.779 80.2461 200.968 79.877 201.347C79.5078 201.725 79.2799 202.219 79.1934 202.83H82.9736ZM89.4746 201.135C89.2786 200.984 88.9961 200.909 88.627 200.909C88.1484 200.909 87.7474 201.135 87.4238 201.586C87.1048 202.037 86.9453 202.652 86.9453 203.432V207H85.8242V200H86.9453V201.442H86.9727C87.1322 200.95 87.376 200.567 87.7041 200.294C88.0322 200.016 88.3991 199.877 88.8047 199.877C89.0964 199.877 89.3197 199.909 89.4746 199.973V201.135ZM99.9609 207H94.0547V206.002L96.9121 203.138C97.6413 202.409 98.1608 201.802 98.4707 201.319C98.7852 200.832 98.9424 200.312 98.9424 199.761C98.9424 199.196 98.7806 198.758 98.457 198.448C98.1335 198.138 97.6732 197.983 97.0762 197.983C96.2012 197.983 95.3626 198.357 94.5605 199.104V197.929C95.3262 197.332 96.2171 197.033 97.2334 197.033C98.1084 197.033 98.7965 197.27 99.2979 197.744C99.7992 198.218 100.05 198.854 100.05 199.651C100.05 200.28 99.8766 200.896 99.5303 201.497C99.1839 202.094 98.5618 202.837 97.6641 203.726L95.4014 205.961V205.988H99.9609V207Z" fill="white" fill-opacity="0.95"/>
<rect x="12" y="216" width="436" height="32" rx="8" fill="black"/>
<rect x="12.5" y="216.5" width="435" height="31" rx="7.5" stroke="white" stroke-opacity="0.5"/>
<path d="M33.2656 238H31.4375L27.1094 232.875C26.9479 232.682 26.849 232.552 26.8125 232.484H26.7812V238H25.4688V226.797H26.7812V232.062H26.8125C26.8854 231.948 26.9844 231.82 27.1094 231.68L31.2969 226.797H32.9297L28.125 232.172L33.2656 238ZM38.75 231.297C38.526 231.125 38.2031 231.039 37.7812 231.039C37.2344 231.039 36.776 231.297 36.4062 231.812C36.0417 232.328 35.8594 233.031 35.8594 233.922V238H34.5781V230H35.8594V231.648H35.8906C36.0729 231.086 36.3516 230.648 36.7266 230.336C37.1016 230.018 37.5208 229.859 37.9844 229.859C38.3177 229.859 38.5729 229.896 38.75 229.969V231.297ZM40.7969 227.969C40.5677 227.969 40.3724 227.891 40.2109 227.734C40.0495 227.578 39.9688 227.38 39.9688 227.141C39.9688 226.901 40.0495 226.703 40.2109 226.547C40.3724 226.385 40.5677 226.305 40.7969 226.305C41.0312 226.305 41.2292 226.385 41.3906 226.547C41.5573 226.703 41.6406 226.901 41.6406 227.141C41.6406 227.37 41.5573 227.565 41.3906 227.727C41.2292 227.888 41.0312 227.969 40.7969 227.969ZM41.4219 238H40.1406V230H41.4219V238ZM43.5312 237.711V236.336C44.1562 236.852 44.849 237.109 45.6094 237.109C46.625 237.109 47.1328 236.734 47.1328 235.984C47.1328 235.672 47.0208 235.414 46.7969 235.211C46.5729 235.008 46.1354 234.766 45.4844 234.484C44.7188 234.146 44.2031 233.799 43.9375 233.445C43.6771 233.086 43.5469 232.646 43.5469 232.125C43.5469 231.458 43.8099 230.906 44.3359 230.469C44.862 230.031 45.5391 229.812 46.3672 229.812C47.0026 229.812 47.5729 229.932 48.0781 230.172V231.469C47.5521 231.083 46.9479 230.891 46.2656 230.891C45.8385 230.891 45.4974 230.995 45.2422 231.203C44.987 231.411 44.8594 231.682 44.8594 232.016C44.8594 232.339 44.9505 232.599 45.1328 232.797C45.3203 232.995 45.737 233.229 46.3828 233.5C47.1693 233.833 47.7083 234.182 48 234.547C48.2969 234.911 48.4453 235.349 48.4453 235.859C48.4453 236.542 48.1823 237.102 47.6562 237.539C47.1302 237.971 46.4167 238.188 45.5156 238.188C44.7552 238.188 44.0938 238.029 43.5312 237.711ZM54.1016 237.922C53.7995 238.089 53.401 238.172 52.9062 238.172C51.5052 238.172 50.8047 237.391 50.8047 235.828V231.094H49.4297V230H50.8047V228.047L52.0859 227.633V230H54.1016V231.094H52.0859V235.602C52.0859 236.138 52.1771 236.521 52.3594 236.75C52.5417 236.979 52.8438 237.094 53.2656 237.094C53.5885 237.094 53.8672 237.005 54.1016 236.828V237.922ZM56.4688 227.969C56.2396 227.969 56.0443 227.891 55.8828 227.734C55.7214 227.578 55.6406 227.38 55.6406 227.141C55.6406 226.901 55.7214 226.703 55.8828 226.547C56.0443 226.385 56.2396 226.305 56.4688 226.305C56.7031 226.305 56.901 226.385 57.0625 226.547C57.2292 226.703 57.3125 226.901 57.3125 227.141C57.3125 227.37 57.2292 227.565 57.0625 227.727C56.901 227.888 56.7031 227.969 56.4688 227.969ZM57.0938 238H55.8125V230H57.0938V238ZM66.3281 238H65.0469V233.438C65.0469 231.74 64.4271 230.891 63.1875 230.891C62.5469 230.891 62.0156 231.133 61.5938 231.617C61.1771 232.096 60.9688 232.703 60.9688 233.438V238H59.6875V230H60.9688V231.328H61C61.6042 230.318 62.4792 229.812 63.625 229.812C64.5 229.812 65.1693 230.096 65.6328 230.664C66.0964 231.227 66.3281 232.042 66.3281 233.109V238ZM72.7891 237.547V236C73.1224 236.302 73.5417 236.547 74.0469 236.734C74.5573 236.917 75.0391 237.008 75.4922 237.008C76.9349 237.008 77.6562 236.448 77.6562 235.328C77.6562 234.896 77.5104 234.508 77.2188 234.164C76.9323 233.815 76.2917 233.359 75.2969 232.797C74.4062 232.292 73.7682 231.799 73.3828 231.32C72.9974 230.841 72.8047 230.268 72.8047 229.602C72.8047 228.727 73.1302 228.01 73.7812 227.453C74.4323 226.891 75.2917 226.609 76.3594 226.609C77.3646 226.609 78.099 226.742 78.5625 227.008V228.484C77.9688 228.026 77.2135 227.797 76.2969 227.797C75.6458 227.797 75.1302 227.953 74.75 228.266C74.3698 228.578 74.1797 228.984 74.1797 229.484C74.1797 229.896 74.2917 230.268 74.5156 230.602C74.7448 230.93 75.3594 231.37 76.3594 231.922C77.3281 232.464 78.0156 232.984 78.4219 233.484C78.8281 233.984 79.0312 234.547 79.0312 235.172C79.0312 236.094 78.7083 236.828 78.0625 237.375C77.4167 237.917 76.5 238.188 75.3125 238.188C74.8958 238.188 74.4323 238.125 73.9219 238C73.4115 237.87 73.0339 237.719 72.7891 237.547ZM84.2891 237.922C83.987 238.089 83.5885 238.172 83.0938 238.172C81.6927 238.172 80.9922 237.391 80.9922 235.828V231.094H79.6172V230H80.9922V228.047L82.2734 227.633V230H84.2891V231.094H82.2734V235.602C82.2734 236.138 82.3646 236.521 82.5469 236.75C82.7292 236.979 83.0312 237.094 83.4531 237.094C83.776 237.094 84.0547 237.005 84.2891 236.828V237.922ZM89.2188 238.188C88.0365 238.188 87.0911 237.815 86.3828 237.07C85.6797 236.32 85.3281 235.328 85.3281 234.094C85.3281 232.75 85.6953 231.701 86.4297 230.945C87.1641 230.19 88.1562 229.812 89.4062 229.812C90.599 229.812 91.5286 230.18 92.1953 230.914C92.8672 231.648 93.2031 232.667 93.2031 233.969C93.2031 235.245 92.8411 236.268 92.1172 237.039C91.3984 237.805 90.4323 238.188 89.2188 238.188ZM89.3125 230.891C88.4896 230.891 87.8385 231.172 87.3594 231.734C86.8802 232.292 86.6406 233.062 86.6406 234.047C86.6406 234.995 86.8828 235.742 87.3672 236.289C87.8516 236.836 88.5 237.109 89.3125 237.109C90.1406 237.109 90.776 236.841 91.2188 236.305C91.6667 235.768 91.8906 235.005 91.8906 234.016C91.8906 233.016 91.6667 232.245 91.2188 231.703C90.776 231.161 90.1406 230.891 89.3125 230.891ZM101.891 238H100.609V233.438C100.609 231.74 99.9896 230.891 98.75 230.891C98.1094 230.891 97.5781 231.133 97.1562 231.617C96.7396 232.096 96.5312 232.703 96.5312 233.438V238H95.25V230H96.5312V231.328H96.5625C97.1667 230.318 98.0417 229.812 99.1875 229.812C100.062 229.812 100.732 230.096 101.195 230.664C101.659 231.227 101.891 232.042 101.891 233.109V238ZM110.742 234.32H105.094C105.115 235.211 105.354 235.898 105.812 236.383C106.271 236.867 106.901 237.109 107.703 237.109C108.604 237.109 109.432 236.812 110.188 236.219V237.422C109.484 237.932 108.555 238.188 107.398 238.188C106.268 238.188 105.38 237.826 104.734 237.102C104.089 236.372 103.766 235.349 103.766 234.031C103.766 232.786 104.117 231.773 104.82 230.992C105.529 230.206 106.406 229.812 107.453 229.812C108.5 229.812 109.31 230.151 109.883 230.828C110.456 231.505 110.742 232.445 110.742 233.648V234.32ZM109.43 233.234C109.424 232.495 109.245 231.919 108.891 231.508C108.542 231.096 108.055 230.891 107.43 230.891C106.826 230.891 106.312 231.107 105.891 231.539C105.469 231.971 105.208 232.536 105.109 233.234H109.43Z" fill="white" fill-opacity="0.95"/>
<path d="M438.354 228.647C438.26 228.553 438.133 228.5 438 228.5C437.868 228.5 437.74 228.553 437.647 228.647L432 234.293L426.353 228.647C426.259 228.555 426.133 228.504 426.002 228.505C425.87 228.506 425.745 228.559 425.652 228.652C425.559 228.745 425.506 228.87 425.505 229.002C425.504 229.133 425.555 229.259 425.646 229.354L431.646 235.354C431.74 235.447 431.867 235.5 432 235.5C432.133 235.5 432.26 235.447 432.353 235.354L438.353 229.354C438.447 229.26 438.5 229.133 438.5 229C438.5 228.868 438.447 228.74 438.354 228.647Z" fill="white" fill-opacity="0.95"/>
<path d="M436 199H427.999C427.859 199 427.72 199.03 427.591 199.087C427.463 199.144 427.348 199.228 427.254 199.333C427.16 199.438 427.09 199.561 427.047 199.695C427.004 199.829 426.99 199.97 427.005 200.11L427.746 206.776C427.814 207.388 428.104 207.953 428.563 208.363C429.021 208.774 429.615 209 430.231 209H433.768C434.384 209 434.978 208.774 435.436 208.363C435.895 207.953 436.185 207.388 436.253 206.776L436.993 200.11C437.009 199.97 436.995 199.829 436.952 199.695C436.909 199.561 436.839 199.438 436.745 199.333C436.651 199.228 436.536 199.144 436.408 199.087C436.279 199.029 436.14 199 436 199ZM435.259 206.666C435.219 207.033 435.044 207.372 434.769 207.618C434.494 207.864 434.137 208 433.768 208H430.231C429.861 208 429.505 207.864 429.23 207.618C428.955 207.372 428.78 207.033 428.74 206.666L427.999 200H436L435.259 206.666Z" fill="white" fill-opacity="0.95"/>
<path d="M427.5 198H436.5C436.633 198 436.76 197.947 436.854 197.853C436.947 197.76 437 197.632 437 197.5C437 197.367 436.947 197.24 436.854 197.146C436.76 197.053 436.633 197 436.5 197H434.5V196.5C434.5 196.102 434.341 195.721 434.06 195.44C433.779 195.158 433.398 195 433 195H431C430.602 195 430.221 195.158 429.94 195.44C429.659 195.721 429.5 196.102 429.5 196.5V197H427.5C427.367 197 427.24 197.053 427.146 197.146C427.053 197.24 427 197.367 427 197.5C427 197.632 427.053 197.76 427.146 197.853C427.24 197.947 427.367 198 427.5 198ZM430.5 196.5C430.5 196.367 430.553 196.24 430.647 196.146C430.74 196.053 430.867 196 431 196H433C433.133 196 433.26 196.053 433.353 196.146C433.447 196.24 433.5 196.367 433.5 196.5V197H430.5V196.5Z" fill="white" fill-opacity="0.95"/>
<path d="M16.8672 30.5547V28.6406C17.0391 28.7969 17.2422 28.9375 17.4766 29.0625C17.7161 29.1875 17.9688 29.2943 18.2344 29.3828C18.5 29.4661 18.7656 29.5312 19.0312 29.5781C19.2969 29.625 19.5417 29.6484 19.7656 29.6484C20.5469 29.6484 21.1276 29.5182 21.5078 29.2578C21.8932 28.9974 22.0859 28.6198 22.0859 28.125C22.0859 27.8594 22.0208 27.6302 21.8906 27.4375C21.7656 27.2396 21.5885 27.0599 21.3594 26.8984C21.1302 26.737 20.8594 26.5833 20.5469 26.4375C20.2396 26.2865 19.9089 26.1302 19.5547 25.9688C19.1745 25.7656 18.8203 25.5599 18.4922 25.3516C18.1641 25.1432 17.8776 24.9141 17.6328 24.6641C17.3932 24.4089 17.2031 24.1224 17.0625 23.8047C16.9271 23.487 16.8594 23.1146 16.8594 22.6875C16.8594 22.1615 16.9766 21.7057 17.2109 21.3203C17.4505 20.9297 17.763 20.6094 18.1484 20.3594C18.5391 20.1042 18.9818 19.9167 19.4766 19.7969C19.9714 19.6719 20.4766 19.6094 20.9922 19.6094C22.1641 19.6094 23.0182 19.7422 23.5547 20.0078V21.8438C22.9193 21.3854 22.1016 21.1562 21.1016 21.1562C20.8255 21.1562 20.5495 21.1823 20.2734 21.2344C20.0026 21.2865 19.7578 21.3724 19.5391 21.4922C19.3255 21.612 19.151 21.7656 19.0156 21.9531C18.8802 22.1406 18.8125 22.3672 18.8125 22.6328C18.8125 22.8828 18.8646 23.099 18.9688 23.2812C19.0729 23.4635 19.224 23.6302 19.4219 23.7812C19.625 23.9323 19.8698 24.0807 20.1562 24.2266C20.4479 24.3672 20.7839 24.5208 21.1641 24.6875C21.5547 24.8906 21.9219 25.1042 22.2656 25.3281C22.6146 25.5521 22.9193 25.7995 23.1797 26.0703C23.4453 26.3411 23.6536 26.6432 23.8047 26.9766C23.9609 27.3047 24.0391 27.6797 24.0391 28.1016C24.0391 28.6693 23.9245 29.1484 23.6953 29.5391C23.4661 29.9297 23.1562 30.2474 22.7656 30.4922C22.3802 30.737 21.9349 30.9141 21.4297 31.0234C20.9245 31.1328 20.3906 31.1875 19.8281 31.1875C19.6406 31.1875 19.4089 31.1719 19.1328 31.1406C18.862 31.1146 18.5833 31.0729 18.2969 31.0156C18.0104 30.9635 17.7396 30.8984 17.4844 30.8203C17.2292 30.7422 17.0234 30.6536 16.8672 30.5547ZM26.8125 21.3203C26.5156 21.3203 26.2604 21.224 26.0469 21.0312C25.8385 20.8385 25.7344 20.5938 25.7344 20.2969C25.7344 20 25.8385 19.7526 26.0469 19.5547C26.2604 19.3568 26.5156 19.2578 26.8125 19.2578C27.1198 19.2578 27.3802 19.3568 27.5938 19.5547C27.8073 19.7526 27.9141 20 27.9141 20.2969C27.9141 20.5781 27.8073 20.8203 27.5938 21.0234C27.3802 21.2214 27.1198 21.3203 26.8125 21.3203ZM27.7109 31H25.8984V23H27.7109V31ZM37.3672 30.3594C37.3672 33.2969 35.8906 34.7656 32.9375 34.7656C31.8958 34.7656 30.987 34.5911 30.2109 34.2422V32.5859C31.0859 33.0859 31.9167 33.3359 32.7031 33.3359C34.6042 33.3359 35.5547 32.401 35.5547 30.5312V29.6562H35.5234C34.9245 30.6771 34.0234 31.1875 32.8203 31.1875C31.8464 31.1875 31.0599 30.8333 30.4609 30.125C29.8672 29.4115 29.5703 28.4557 29.5703 27.2578C29.5703 25.8984 29.8906 24.8177 30.5312 24.0156C31.1719 23.2135 32.0521 22.8125 33.1719 22.8125C34.2292 22.8125 35.013 23.2448 35.5234 24.1094H35.5547V23H37.3672V30.3594ZM35.5703 27.3359V26.2969C35.5703 25.7344 35.3828 25.2552 35.0078 24.8594C34.638 24.4583 34.1745 24.2578 33.6172 24.2578C32.9297 24.2578 32.3906 24.513 32 25.0234C31.6146 25.5286 31.4219 26.237 31.4219 27.1484C31.4219 27.9349 31.6068 28.5651 31.9766 29.0391C32.3516 29.5078 32.8464 29.7422 33.4609 29.7422C34.0859 29.7422 34.5938 29.5182 34.9844 29.0703C35.375 28.6172 35.5703 28.0391 35.5703 27.3359ZM46.8516 31H45.0391V26.4922C45.0391 24.9974 44.5104 24.25 43.4531 24.25C42.901 24.25 42.4453 24.4583 42.0859 24.875C41.7266 25.2865 41.5469 25.8073 41.5469 26.4375V31H39.7266V23H41.5469V24.3281H41.5781C42.1771 23.3177 43.0417 22.8125 44.1719 22.8125C45.0417 22.8125 45.7057 23.0964 46.1641 23.6641C46.6224 24.2266 46.8516 25.0417 46.8516 26.1094V31ZM55.2969 31H53.4766V19.1562H55.2969V31ZM63.8047 31H62.0469V29.75H62.0156C61.4635 30.7083 60.6536 31.1875 59.5859 31.1875C58.7995 31.1875 58.1823 30.974 57.7344 30.5469C57.2917 30.1198 57.0703 29.5547 57.0703 28.8516C57.0703 27.3411 57.9401 26.4609 59.6797 26.2109L62.0547 25.875C62.0547 24.7344 61.513 24.1641 60.4297 24.1641C59.4766 24.1641 58.6172 24.4922 57.8516 25.1484V23.5625C58.6953 23.0625 59.6693 22.8125 60.7734 22.8125C62.7943 22.8125 63.8047 23.8073 63.8047 25.7969V31ZM62.0547 27.0703L60.375 27.3047C59.8542 27.3724 59.4609 27.5 59.1953 27.6875C58.9349 27.8698 58.8047 28.1927 58.8047 28.6562C58.8047 28.9948 58.9245 29.2734 59.1641 29.4922C59.4089 29.7057 59.7344 29.8125 60.1406 29.8125C60.6927 29.8125 61.1484 29.6198 61.5078 29.2344C61.8724 28.8438 62.0547 28.3542 62.0547 27.7656V27.0703ZM73.1484 31H71.3359V26.4922C71.3359 24.9974 70.8073 24.25 69.75 24.25C69.1979 24.25 68.7422 24.4583 68.3828 24.875C68.0234 25.2865 67.8438 25.8073 67.8438 26.4375V31H66.0234V23H67.8438V24.3281H67.875C68.474 23.3177 69.3385 22.8125 70.4688 22.8125C71.3385 22.8125 72.0026 23.0964 72.4609 23.6641C72.9193 24.2266 73.1484 25.0417 73.1484 26.1094V31ZM82.6484 30.3594C82.6484 33.2969 81.1719 34.7656 78.2188 34.7656C77.1771 34.7656 76.2682 34.5911 75.4922 34.2422V32.5859C76.3672 33.0859 77.1979 33.3359 77.9844 33.3359C79.8854 33.3359 80.8359 32.401 80.8359 30.5312V29.6562H80.8047C80.2057 30.6771 79.3047 31.1875 78.1016 31.1875C77.1276 31.1875 76.3411 30.8333 75.7422 30.125C75.1484 29.4115 74.8516 28.4557 74.8516 27.2578C74.8516 25.8984 75.1719 24.8177 75.8125 24.0156C76.4531 23.2135 77.3333 22.8125 78.4531 22.8125C79.5104 22.8125 80.2943 23.2448 80.8047 24.1094H80.8359V23H82.6484V30.3594ZM80.8516 27.3359V26.2969C80.8516 25.7344 80.6641 25.2552 80.2891 24.8594C79.9193 24.4583 79.4557 24.2578 78.8984 24.2578C78.2109 24.2578 77.6719 24.513 77.2812 25.0234C76.8958 25.5286 76.7031 26.237 76.7031 27.1484C76.7031 27.9349 76.888 28.5651 77.2578 29.0391C77.6328 29.5078 78.1276 29.7422 78.7422 29.7422C79.3672 29.7422 79.875 29.5182 80.2656 29.0703C80.6562 28.6172 80.8516 28.0391 80.8516 27.3359ZM91.9844 31H90.1719V29.7344H90.1406C89.6146 30.7031 88.7969 31.1875 87.6875 31.1875C85.7969 31.1875 84.8516 30.0521 84.8516 27.7812V23H86.6641V27.5938C86.6641 29.0312 87.2188 29.75 88.3281 29.75C88.8646 29.75 89.3047 29.5521 89.6484 29.1562C89.9974 28.7604 90.1719 28.2422 90.1719 27.6016V23H91.9844V31ZM100.492 31H98.7344V29.75H98.7031C98.151 30.7083 97.3411 31.1875 96.2734 31.1875C95.487 31.1875 94.8698 30.974 94.4219 30.5469C93.9792 30.1198 93.7578 29.5547 93.7578 28.8516C93.7578 27.3411 94.6276 26.4609 96.3672 26.2109L98.7422 25.875C98.7422 24.7344 98.2005 24.1641 97.1172 24.1641C96.1641 24.1641 95.3047 24.4922 94.5391 25.1484V23.5625C95.3828 23.0625 96.3568 22.8125 97.4609 22.8125C99.4818 22.8125 100.492 23.8073 100.492 25.7969V31ZM98.7422 27.0703L97.0625 27.3047C96.5417 27.3724 96.1484 27.5 95.8828 27.6875C95.6224 27.8698 95.4922 28.1927 95.4922 28.6562C95.4922 28.9948 95.612 29.2734 95.8516 29.4922C96.0964 29.7057 96.4219 29.8125 96.8281 29.8125C97.3802 29.8125 97.8359 29.6198 98.1953 29.2344C98.5599 28.8438 98.7422 28.3542 98.7422 27.7656V27.0703ZM109.992 30.3594C109.992 33.2969 108.516 34.7656 105.562 34.7656C104.521 34.7656 103.612 34.5911 102.836 34.2422V32.5859C103.711 33.0859 104.542 33.3359 105.328 33.3359C107.229 33.3359 108.18 32.401 108.18 30.5312V29.6562H108.148C107.549 30.6771 106.648 31.1875 105.445 31.1875C104.471 31.1875 103.685 30.8333 103.086 30.125C102.492 29.4115 102.195 28.4557 102.195 27.2578C102.195 25.8984 102.516 24.8177 103.156 24.0156C103.797 23.2135 104.677 22.8125 105.797 22.8125C106.854 22.8125 107.638 23.2448 108.148 24.1094H108.18V23H109.992V30.3594ZM108.195 27.3359V26.2969C108.195 25.7344 108.008 25.2552 107.633 24.8594C107.263 24.4583 106.799 24.2578 106.242 24.2578C105.555 24.2578 105.016 24.513 104.625 25.0234C104.24 25.5286 104.047 26.237 104.047 27.1484C104.047 27.9349 104.232 28.5651 104.602 29.0391C104.977 29.5078 105.471 29.7422 106.086 29.7422C106.711 29.7422 107.219 29.5182 107.609 29.0703C108 28.6172 108.195 28.0391 108.195 27.3359ZM119.125 27.4922H113.672C113.693 28.2318 113.919 28.8021 114.352 29.2031C114.789 29.6042 115.388 29.8047 116.148 29.8047C117.003 29.8047 117.786 29.5495 118.5 29.0391V30.5C117.771 30.9583 116.807 31.1875 115.609 31.1875C114.432 31.1875 113.508 30.8255 112.836 30.1016C112.169 29.3724 111.836 28.349 111.836 27.0312C111.836 25.7865 112.203 24.7734 112.938 23.9922C113.677 23.2057 114.594 22.8125 115.688 22.8125C116.781 22.8125 117.628 23.1641 118.227 23.8672C118.826 24.5703 119.125 25.5469 119.125 26.7969V27.4922ZM117.375 26.2109C117.37 25.5599 117.216 25.0547 116.914 24.6953C116.612 24.3307 116.195 24.1484 115.664 24.1484C115.143 24.1484 114.701 24.3385 114.336 24.7188C113.977 25.099 113.755 25.5964 113.672 26.2109H117.375ZM128.883 19.5469V31H127.07V21.7656C126.742 22 126.388 22.2005 126.008 22.3672C125.633 22.5286 125.203 22.6719 124.719 22.7969V21.25C125.021 21.151 125.312 21.0469 125.594 20.9375C125.875 20.8281 126.151 20.7057 126.422 20.5703C126.698 20.4349 126.974 20.2839 127.25 20.1172C127.531 19.9505 127.82 19.7604 128.117 19.5469H128.883Z" fill="white" fill-opacity="0.7"/>
<path d="M172.5 343H170.461L169.453 340.148H165.047L164.078 343H162.047L166.242 331.797H168.336L172.5 343ZM168.961 338.633L167.406 334.164C167.359 334.018 167.31 333.784 167.258 333.461H167.227C167.18 333.758 167.128 333.992 167.07 334.164L165.531 338.633H168.961ZM181.117 343H179.305V341.641H179.273C178.69 342.672 177.792 343.188 176.578 343.188C175.594 343.188 174.805 342.831 174.211 342.117C173.622 341.398 173.328 340.422 173.328 339.188C173.328 337.865 173.654 336.805 174.305 336.008C174.961 335.211 175.833 334.812 176.922 334.812C178 334.812 178.784 335.245 179.273 336.109H179.305V331.156H181.117V343ZM179.328 339.344V338.297C179.328 337.729 179.143 337.247 178.773 336.852C178.404 336.456 177.932 336.258 177.359 336.258C176.682 336.258 176.148 336.51 175.758 337.016C175.372 337.521 175.18 338.221 175.18 339.117C175.18 339.93 175.365 340.573 175.734 341.047C176.109 341.516 176.612 341.75 177.242 341.75C177.862 341.75 178.365 341.523 178.75 341.07C179.135 340.612 179.328 340.036 179.328 339.344ZM190.758 343H188.945V341.641H188.914C188.331 342.672 187.432 343.188 186.219 343.188C185.234 343.188 184.445 342.831 183.852 342.117C183.263 341.398 182.969 340.422 182.969 339.188C182.969 337.865 183.294 336.805 183.945 336.008C184.602 335.211 185.474 334.812 186.562 334.812C187.641 334.812 188.424 335.245 188.914 336.109H188.945V331.156H190.758V343ZM188.969 339.344V338.297C188.969 337.729 188.784 337.247 188.414 336.852C188.044 336.456 187.573 336.258 187 336.258C186.323 336.258 185.789 336.51 185.398 337.016C185.013 337.521 184.82 338.221 184.82 339.117C184.82 339.93 185.005 340.573 185.375 341.047C185.75 341.516 186.253 341.75 186.883 341.75C187.503 341.75 188.005 341.523 188.391 341.07C188.776 340.612 188.969 340.036 188.969 339.344ZM204.656 343H202.844V338.492C202.844 336.997 202.315 336.25 201.258 336.25C200.706 336.25 200.25 336.458 199.891 336.875C199.531 337.286 199.352 337.807 199.352 338.438V343H197.531V335H199.352V336.328H199.383C199.982 335.318 200.846 334.812 201.977 334.812C202.846 334.812 203.51 335.096 203.969 335.664C204.427 336.227 204.656 337.042 204.656 338.109V343ZM213.648 339.492H208.195C208.216 340.232 208.443 340.802 208.875 341.203C209.312 341.604 209.911 341.805 210.672 341.805C211.526 341.805 212.31 341.549 213.023 341.039V342.5C212.294 342.958 211.331 343.188 210.133 343.188C208.956 343.188 208.031 342.826 207.359 342.102C206.693 341.372 206.359 340.349 206.359 339.031C206.359 337.786 206.727 336.773 207.461 335.992C208.201 335.206 209.117 334.812 210.211 334.812C211.305 334.812 212.151 335.164 212.75 335.867C213.349 336.57 213.648 337.547 213.648 338.797V339.492ZM211.898 338.211C211.893 337.56 211.74 337.055 211.438 336.695C211.135 336.331 210.719 336.148 210.188 336.148C209.667 336.148 209.224 336.339 208.859 336.719C208.5 337.099 208.279 337.596 208.195 338.211H211.898ZM226.133 335L223.773 343H221.875L220.422 337.578C220.365 337.37 220.328 337.135 220.312 336.875H220.281C220.271 337.052 220.224 337.281 220.141 337.562L218.562 343H216.703L214.352 335H216.227L217.68 340.766C217.727 340.938 217.758 341.167 217.773 341.453H217.828C217.844 341.234 217.885 341 217.953 340.75L219.57 335H221.273L222.711 340.789C222.758 340.971 222.792 341.201 222.812 341.477H222.867C222.878 341.284 222.917 341.055 222.984 340.789L224.406 335H226.133ZM233.711 343H231.891V331.156H233.711V343ZM242.219 343H240.461V341.75H240.43C239.878 342.708 239.068 343.188 238 343.188C237.214 343.188 236.596 342.974 236.148 342.547C235.706 342.12 235.484 341.555 235.484 340.852C235.484 339.341 236.354 338.461 238.094 338.211L240.469 337.875C240.469 336.734 239.927 336.164 238.844 336.164C237.891 336.164 237.031 336.492 236.266 337.148V335.562C237.109 335.062 238.083 334.812 239.188 334.812C241.208 334.812 242.219 335.807 242.219 337.797V343ZM240.469 339.07L238.789 339.305C238.268 339.372 237.875 339.5 237.609 339.688C237.349 339.87 237.219 340.193 237.219 340.656C237.219 340.995 237.339 341.273 237.578 341.492C237.823 341.706 238.148 341.812 238.555 341.812C239.107 341.812 239.562 341.62 239.922 341.234C240.286 340.844 240.469 340.354 240.469 339.766V339.07ZM251.562 343H249.75V338.492C249.75 336.997 249.221 336.25 248.164 336.25C247.612 336.25 247.156 336.458 246.797 336.875C246.438 337.286 246.258 337.807 246.258 338.438V343H244.438V335H246.258V336.328H246.289C246.888 335.318 247.753 334.812 248.883 334.812C249.753 334.812 250.417 335.096 250.875 335.664C251.333 336.227 251.562 337.042 251.562 338.109V343ZM261.062 342.359C261.062 345.297 259.586 346.766 256.633 346.766C255.591 346.766 254.682 346.591 253.906 346.242V344.586C254.781 345.086 255.612 345.336 256.398 345.336C258.299 345.336 259.25 344.401 259.25 342.531V341.656H259.219C258.62 342.677 257.719 343.188 256.516 343.188C255.542 343.188 254.755 342.833 254.156 342.125C253.562 341.411 253.266 340.456 253.266 339.258C253.266 337.898 253.586 336.818 254.227 336.016C254.867 335.214 255.747 334.812 256.867 334.812C257.924 334.812 258.708 335.245 259.219 336.109H259.25V335H261.062V342.359ZM259.266 339.336V338.297C259.266 337.734 259.078 337.255 258.703 336.859C258.333 336.458 257.87 336.258 257.312 336.258C256.625 336.258 256.086 336.513 255.695 337.023C255.31 337.529 255.117 338.237 255.117 339.148C255.117 339.935 255.302 340.565 255.672 341.039C256.047 341.508 256.542 341.742 257.156 341.742C257.781 341.742 258.289 341.518 258.68 341.07C259.07 340.617 259.266 340.039 259.266 339.336ZM270.398 343H268.586V341.734H268.555C268.029 342.703 267.211 343.188 266.102 343.188C264.211 343.188 263.266 342.052 263.266 339.781V335H265.078V339.594C265.078 341.031 265.633 341.75 266.742 341.75C267.279 341.75 267.719 341.552 268.062 341.156C268.411 340.76 268.586 340.242 268.586 339.602V335H270.398V343ZM278.906 343H277.148V341.75H277.117C276.565 342.708 275.755 343.188 274.688 343.188C273.901 343.188 273.284 342.974 272.836 342.547C272.393 342.12 272.172 341.555 272.172 340.852C272.172 339.341 273.042 338.461 274.781 338.211L277.156 337.875C277.156 336.734 276.615 336.164 275.531 336.164C274.578 336.164 273.719 336.492 272.953 337.148V335.562C273.797 335.062 274.771 334.812 275.875 334.812C277.896 334.812 278.906 335.807 278.906 337.797V343ZM277.156 339.07L275.477 339.305C274.956 339.372 274.562 339.5 274.297 339.688C274.036 339.87 273.906 340.193 273.906 340.656C273.906 340.995 274.026 341.273 274.266 341.492C274.51 341.706 274.836 341.812 275.242 341.812C275.794 341.812 276.25 341.62 276.609 341.234C276.974 340.844 277.156 340.354 277.156 339.766V339.07ZM288.406 342.359C288.406 345.297 286.93 346.766 283.977 346.766C282.935 346.766 282.026 346.591 281.25 346.242V344.586C282.125 345.086 282.956 345.336 283.742 345.336C285.643 345.336 286.594 344.401 286.594 342.531V341.656H286.562C285.964 342.677 285.062 343.188 283.859 343.188C282.885 343.188 282.099 342.833 281.5 342.125C280.906 341.411 280.609 340.456 280.609 339.258C280.609 337.898 280.93 336.818 281.57 336.016C282.211 335.214 283.091 334.812 284.211 334.812C285.268 334.812 286.052 335.245 286.562 336.109H286.594V335H288.406V342.359ZM286.609 339.336V338.297C286.609 337.734 286.422 337.255 286.047 336.859C285.677 336.458 285.214 336.258 284.656 336.258C283.969 336.258 283.43 336.513 283.039 337.023C282.654 337.529 282.461 338.237 282.461 339.148C282.461 339.935 282.646 340.565 283.016 341.039C283.391 341.508 283.885 341.742 284.5 341.742C285.125 341.742 285.633 341.518 286.023 341.07C286.414 340.617 286.609 340.039 286.609 339.336ZM297.539 339.492H292.086C292.107 340.232 292.333 340.802 292.766 341.203C293.203 341.604 293.802 341.805 294.562 341.805C295.417 341.805 296.201 341.549 296.914 341.039V342.5C296.185 342.958 295.221 343.188 294.023 343.188C292.846 343.188 291.922 342.826 291.25 342.102C290.583 341.372 290.25 340.349 290.25 339.031C290.25 337.786 290.617 336.773 291.352 335.992C292.091 335.206 293.008 334.812 294.102 334.812C295.195 334.812 296.042 335.164 296.641 335.867C297.24 336.57 297.539 337.547 297.539 338.797V339.492ZM295.789 338.211C295.784 337.56 295.63 337.055 295.328 336.695C295.026 336.331 294.609 336.148 294.078 336.148C293.557 336.148 293.115 336.339 292.75 336.719C292.391 337.099 292.169 337.596 292.086 338.211H295.789Z" fill="white" fill-opacity="0.95"/>
<rect x="110.5" y="320.5" width="239" height="31" rx="15.5" stroke="white" stroke-opacity="0.3"/>
</svg>
