<svg width="361" height="48" viewBox="0 0 361 48" fill="none" xmlns="http://www.w3.org/2000/svg">
<rect width="361" height="48" fill="#0F0F0F"/>
<path d="M61.9985 21C61.9978 20.3372 61.7341 19.7018 61.2654 19.2331C60.7968 18.7644 60.1613 18.5008 59.4985 18.5H50.4985C49.8357 18.5008 49.2003 18.7644 48.7316 19.2331C48.263 19.7018 47.9993 20.3372 47.9985 21V27C47.9993 27.6628 48.263 28.2982 48.7316 28.7669C49.2003 29.2356 49.8357 29.4992 50.4985 29.5H51.5C51.6326 29.5 51.7598 29.4473 51.8536 29.3536C51.9473 29.2598 52 29.1326 52 29C52 28.8674 51.9473 28.7402 51.8536 28.6464C51.7598 28.5527 51.6326 28.5 51.5 28.5H50.4985C50.1008 28.4996 49.7196 28.3414 49.4384 28.0602C49.1571 27.779 48.999 27.3977 48.9985 27V22H60.9985V27C60.9981 27.3977 60.8399 27.779 60.5587 28.0602C60.2775 28.3414 59.8962 28.4996 59.4985 28.5H58.5C58.3674 28.5 58.2402 28.5527 58.1464 28.6464C58.0527 28.7402 58 28.8674 58 29C58 29.1326 58.0527 29.2598 58.1464 29.3536C58.2402 29.4473 58.3674 29.5 58.5 29.5H59.4985C60.1613 29.4992 60.7968 29.2356 61.2654 28.7669C61.7341 28.2982 61.9978 27.6628 61.9985 27V21ZM48.9985 21C48.999 20.6023 49.1571 20.221 49.4384 19.9398C49.7196 19.6586 50.1008 19.5004 50.4985 19.5H59.4985C59.8962 19.5004 60.2775 19.6586 60.5587 19.9398C60.8399 20.221 60.9981 20.6023 60.9985 21H48.9985Z" fill="white" fill-opacity="0.95"/>
<path d="M57.6797 27.2607L53.4548 24.0996C53.3765 24.041 53.2827 24.0066 53.185 24.0008C53.0873 23.995 52.99 24.018 52.9053 24.0669C52.8205 24.1158 52.752 24.1885 52.7082 24.276C52.6643 24.3635 52.6471 24.4619 52.6587 24.5591L53.2835 29.7983C53.2933 29.8805 53.3233 29.959 53.3709 30.0267C53.4185 30.0944 53.4821 30.1492 53.5561 30.1863C53.6301 30.2233 53.7121 30.2414 53.7948 30.239C53.8775 30.2366 53.9584 30.2137 54.03 30.1723L55.3971 29.3833L56.1863 30.75C56.2191 30.8069 56.2628 30.8568 56.3149 30.8968C56.367 30.9368 56.4265 30.9662 56.4899 30.9832C56.5534 31.0002 56.6195 31.0046 56.6847 30.996C56.7498 30.9875 56.8126 30.9661 56.8695 30.9333C56.9264 30.9005 56.9763 30.8567 57.0163 30.8046C57.0563 30.7525 57.0856 30.693 57.1026 30.6296C57.1196 30.5661 57.1239 30.4999 57.1153 30.4348C57.1067 30.3697 57.0854 30.3069 57.0525 30.25L56.2632 28.8832L57.6301 28.0942C57.7018 28.0528 57.762 27.9943 57.8055 27.9239C57.8489 27.8535 57.8742 27.7734 57.8792 27.6908C57.8841 27.6082 57.8684 27.5257 57.8336 27.4506C57.7988 27.3756 57.7459 27.3103 57.6797 27.2607ZM55.3311 28.2667L55.3301 28.2671L55.3293 28.2678L54.1868 28.9272L53.7898 25.5991L56.4734 27.6074L55.3311 28.2667Z" fill="white" fill-opacity="0.95"/>
<path d="M72.4854 30.1641C71.0726 30.1641 69.9401 29.7061 69.0879 28.79C68.2402 27.874 67.8164 26.6823 67.8164 25.2148C67.8164 23.638 68.2493 22.3802 69.1152 21.4414C69.9811 20.5026 71.1569 20.0332 72.6426 20.0332C74.0189 20.0332 75.1263 20.4889 75.9648 21.4004C76.8079 22.3118 77.2295 23.5036 77.2295 24.9756C77.2295 26.5752 76.7988 27.8398 75.9375 28.7695C75.0762 29.6992 73.9255 30.1641 72.4854 30.1641ZM72.5605 21.4619C71.6628 21.4619 70.9313 21.7969 70.3662 22.4668C69.8057 23.1367 69.5254 24.0186 69.5254 25.1123C69.5254 26.2015 69.7988 27.0788 70.3457 27.7441C70.8926 28.4095 71.6081 28.7422 72.4922 28.7422C73.431 28.7422 74.1715 28.4255 74.7139 27.792C75.2562 27.1585 75.5273 26.2721 75.5273 25.1328C75.5273 23.9616 75.263 23.057 74.7344 22.4189C74.2103 21.7809 73.4857 21.4619 72.5605 21.4619ZM80.4629 28.9678H80.4355V33.2197H78.8496V23H80.4355V24.2305H80.4629C81.0052 23.3008 81.7982 22.8359 82.8418 22.8359C83.7305 22.8359 84.4232 23.1481 84.9199 23.7725C85.4167 24.3968 85.665 25.2354 85.665 26.2881C85.665 27.4548 85.3848 28.389 84.8242 29.0908C84.2637 29.7926 83.498 30.1436 82.5273 30.1436C81.6341 30.1436 80.946 29.7516 80.4629 28.9678ZM80.4219 26.2061V27.0742C80.4219 27.5846 80.5837 28.0176 80.9072 28.373C81.2354 28.7285 81.6501 28.9062 82.1514 28.9062C82.7393 28.9062 83.1995 28.6784 83.5322 28.2227C83.8695 27.7624 84.0381 27.1221 84.0381 26.3018C84.0381 25.6136 83.8809 25.0758 83.5664 24.6885C83.2565 24.2965 82.835 24.1006 82.3018 24.1006C81.7367 24.1006 81.2809 24.3011 80.9346 24.7021C80.5928 25.1032 80.4219 25.6045 80.4219 26.2061ZM93.2119 26.9307H88.4404C88.4587 27.5778 88.6569 28.0768 89.0352 28.4277C89.418 28.7786 89.9421 28.9541 90.6074 28.9541C91.3548 28.9541 92.0407 28.7308 92.665 28.2842V29.5625C92.027 29.9635 91.1839 30.1641 90.1357 30.1641C89.1058 30.1641 88.2969 29.8473 87.709 29.2139C87.1257 28.5758 86.834 27.6803 86.834 26.5273C86.834 25.4382 87.1553 24.5518 87.7979 23.8682C88.445 23.18 89.2471 22.8359 90.2041 22.8359C91.1611 22.8359 91.9017 23.1436 92.4258 23.7588C92.9499 24.374 93.2119 25.2285 93.2119 26.3223V26.9307ZM91.6807 25.8096C91.6761 25.2399 91.5417 24.7979 91.2773 24.4834C91.013 24.1644 90.6484 24.0049 90.1836 24.0049C89.7279 24.0049 89.3405 24.1712 89.0215 24.5039C88.707 24.8366 88.5133 25.2718 88.4404 25.8096H91.6807ZM100.957 30H99.3711V26.0557C99.3711 24.7477 98.9085 24.0938 97.9834 24.0938C97.5003 24.0938 97.1016 24.276 96.7871 24.6406C96.4727 25.0007 96.3154 25.4564 96.3154 26.0078V30H94.7227V23H96.3154V24.1621H96.3428C96.8669 23.278 97.6234 22.8359 98.6123 22.8359C99.3734 22.8359 99.9544 23.0843 100.355 23.5811C100.757 24.0732 100.957 24.7865 100.957 25.7207V30ZM110.445 29.9248C110.135 30.0798 109.728 30.1572 109.222 30.1572C107.864 30.1572 107.185 29.5055 107.185 28.2021V24.2441H106.016V23H107.185V21.3799L108.771 20.9287V23H110.445V24.2441H108.771V27.7441C108.771 28.1589 108.846 28.4551 108.996 28.6328C109.146 28.8105 109.397 28.8994 109.748 28.8994C110.017 28.8994 110.249 28.8219 110.445 28.667V29.9248ZM114.834 30.1641C113.754 30.1641 112.89 29.8382 112.243 29.1865C111.601 28.5303 111.279 27.6621 111.279 26.582C111.279 25.4062 111.614 24.488 112.284 23.8271C112.959 23.1663 113.866 22.8359 115.005 22.8359C116.099 22.8359 116.951 23.1572 117.562 23.7998C118.172 24.4424 118.478 25.3333 118.478 26.4727C118.478 27.5892 118.147 28.4847 117.486 29.1592C116.83 29.8291 115.946 30.1641 114.834 30.1641ZM114.909 24.1006C114.289 24.1006 113.799 24.3171 113.439 24.75C113.079 25.1829 112.899 25.7799 112.899 26.541C112.899 27.2747 113.082 27.8535 113.446 28.2773C113.811 28.6966 114.299 28.9062 114.909 28.9062C115.534 28.9062 116.012 28.6989 116.345 28.2842C116.682 27.8695 116.851 27.2793 116.851 26.5137C116.851 25.7435 116.682 25.1488 116.345 24.7295C116.012 24.3102 115.534 24.1006 114.909 24.1006ZM126.469 29.4395C126.469 32.0098 125.177 33.2949 122.593 33.2949C121.681 33.2949 120.886 33.1423 120.207 32.8369V31.3877C120.973 31.8252 121.7 32.0439 122.388 32.0439C124.051 32.0439 124.883 31.2259 124.883 29.5898V28.8242H124.855C124.331 29.7174 123.543 30.1641 122.49 30.1641C121.638 30.1641 120.95 29.8542 120.426 29.2344C119.906 28.61 119.646 27.7738 119.646 26.7256C119.646 25.5361 119.927 24.5905 120.487 23.8887C121.048 23.1868 121.818 22.8359 122.798 22.8359C123.723 22.8359 124.409 23.2142 124.855 23.9707H124.883V23H126.469V29.4395ZM124.896 26.7939V25.8848C124.896 25.3926 124.732 24.9733 124.404 24.627C124.081 24.276 123.675 24.1006 123.188 24.1006C122.586 24.1006 122.114 24.3239 121.772 24.7705C121.435 25.2126 121.267 25.8324 121.267 26.6299C121.267 27.318 121.428 27.8695 121.752 28.2842C122.08 28.6943 122.513 28.8994 123.051 28.8994C123.598 28.8994 124.042 28.7035 124.384 28.3115C124.726 27.915 124.896 27.4092 124.896 26.7939ZM134.46 26.9307H129.688C129.707 27.5778 129.905 28.0768 130.283 28.4277C130.666 28.7786 131.19 28.9541 131.855 28.9541C132.603 28.9541 133.289 28.7308 133.913 28.2842V29.5625C133.275 29.9635 132.432 30.1641 131.384 30.1641C130.354 30.1641 129.545 29.8473 128.957 29.2139C128.374 28.5758 128.082 27.6803 128.082 26.5273C128.082 25.4382 128.403 24.5518 129.046 23.8682C129.693 23.18 130.495 22.8359 131.452 22.8359C132.409 22.8359 133.15 23.1436 133.674 23.7588C134.198 24.374 134.46 25.2285 134.46 26.3223V26.9307ZM132.929 25.8096C132.924 25.2399 132.79 24.7979 132.525 24.4834C132.261 24.1644 131.896 24.0049 131.432 24.0049C130.976 24.0049 130.589 24.1712 130.27 24.5039C129.955 24.8366 129.761 25.2718 129.688 25.8096H132.929ZM139.662 29.9248C139.352 30.0798 138.944 30.1572 138.438 30.1572C137.08 30.1572 136.401 29.5055 136.401 28.2021V24.2441H135.232V23H136.401V21.3799L137.987 20.9287V23H139.662V24.2441H137.987V27.7441C137.987 28.1589 138.062 28.4551 138.213 28.6328C138.363 28.8105 138.614 28.8994 138.965 28.8994C139.234 28.8994 139.466 28.8219 139.662 28.667V29.9248ZM147.25 30H145.664V26.1719C145.664 24.7865 145.201 24.0938 144.276 24.0938C143.812 24.0938 143.42 24.2943 143.101 24.6953C142.782 25.0964 142.622 25.609 142.622 26.2334V30H141.029V19.6367H142.622V24.1621H142.649C143.178 23.278 143.935 22.8359 144.919 22.8359C146.473 22.8359 147.25 23.7861 147.25 25.6865V30ZM155.104 26.9307H150.333C150.351 27.5778 150.549 28.0768 150.928 28.4277C151.311 28.7786 151.835 28.9541 152.5 28.9541C153.247 28.9541 153.933 28.7308 154.558 28.2842V29.5625C153.92 29.9635 153.076 30.1641 152.028 30.1641C150.998 30.1641 150.189 29.8473 149.602 29.2139C149.018 28.5758 148.727 27.6803 148.727 26.5273C148.727 25.4382 149.048 24.5518 149.69 23.8682C150.338 23.18 151.14 22.8359 152.097 22.8359C153.054 22.8359 153.794 23.1436 154.318 23.7588C154.842 24.374 155.104 25.2285 155.104 26.3223V26.9307ZM153.573 25.8096C153.569 25.2399 153.434 24.7979 153.17 24.4834C152.906 24.1644 152.541 24.0049 152.076 24.0049C151.62 24.0049 151.233 24.1712 150.914 24.5039C150.6 24.8366 150.406 25.2718 150.333 25.8096H153.573ZM160.676 24.5107C160.484 24.3604 160.209 24.2852 159.849 24.2852C159.379 24.2852 158.987 24.4971 158.673 24.9209C158.358 25.3447 158.201 25.9212 158.201 26.6504V30H156.615V23H158.201V24.4424H158.229C158.383 23.9502 158.62 23.5674 158.939 23.2939C159.263 23.016 159.623 22.877 160.02 22.877C160.307 22.877 160.525 22.9202 160.676 23.0068V24.5107Z" fill="white" fill-opacity="0.95"/>
<path d="M220.489 30.5001C219.958 30.5071 219.432 30.4063 218.942 30.2037C218.822 30.1492 218.719 30.0645 218.642 29.9579C218.565 29.8513 218.518 29.7264 218.504 29.5958C218.49 29.4665 218.511 29.3359 218.563 29.2171C218.616 29.0984 218.7 28.9958 218.805 28.9197C218.866 28.8753 218.936 28.8303 219.013 28.7815C219.494 28.503 219.861 28.0631 220.048 27.5398C219.26 26.3275 218.9 24.8872 219.022 23.4468C219.145 22.0064 219.745 20.648 220.726 19.5864C221.707 18.5248 223.014 17.8205 224.44 17.585C225.867 17.3494 227.331 17.5959 228.601 18.2856C229.872 18.9754 230.876 20.0689 231.455 21.3933C232.035 22.7177 232.156 24.1975 231.801 25.5987C231.445 26.9998 230.632 28.2424 229.491 29.13C228.35 30.0176 226.946 30.4996 225.5 30.4997C224.54 30.4992 223.592 30.287 222.723 29.8781C222.05 30.2877 221.276 30.503 220.489 30.5001ZM219.832 29.4371C220.274 29.5263 220.73 29.5241 221.172 29.4307C221.613 29.3374 222.031 29.1547 222.399 28.8941C222.475 28.8404 222.564 28.8089 222.656 28.8029C222.749 28.797 222.841 28.8169 222.923 28.8604C224.115 29.4928 225.497 29.6654 226.807 29.3456C228.118 29.0258 229.265 28.2358 230.031 27.1256C230.798 26.0155 231.129 24.6625 230.964 23.3238C230.798 21.9852 230.146 20.754 229.132 19.8642C228.119 18.9744 226.813 18.488 225.464 18.4975C224.116 18.5069 222.817 19.0114 221.816 19.9152C220.814 20.8191 220.18 22.0592 220.033 23.4001C219.886 24.741 220.237 26.0892 221.018 27.1885C221.066 27.2551 221.096 27.3324 221.107 27.4136C221.117 27.4947 221.108 27.5772 221.079 27.6539C220.857 28.3624 220.421 28.985 219.832 29.4371Z" fill="white" fill-opacity="0.95"/>
<path d="M238.562 29.6104V27.9355C238.713 28.0723 238.891 28.1953 239.096 28.3047C239.305 28.4141 239.526 28.5075 239.759 28.585C239.991 28.6579 240.224 28.7148 240.456 28.7559C240.688 28.7969 240.903 28.8174 241.099 28.8174C241.782 28.8174 242.29 28.7035 242.623 28.4756C242.96 28.2477 243.129 27.9173 243.129 27.4844C243.129 27.252 243.072 27.0514 242.958 26.8828C242.849 26.7096 242.694 26.5524 242.493 26.4111C242.293 26.2699 242.056 26.1354 241.782 26.0078C241.513 25.8757 241.224 25.7389 240.914 25.5977C240.581 25.4199 240.271 25.2399 239.984 25.0576C239.697 24.8753 239.447 24.6748 239.232 24.4561C239.023 24.2327 238.856 23.9821 238.733 23.7041C238.615 23.4261 238.556 23.1003 238.556 22.7266C238.556 22.2663 238.658 21.8675 238.863 21.5303C239.073 21.1885 239.346 20.9082 239.684 20.6895C240.025 20.4661 240.413 20.3021 240.846 20.1973C241.279 20.0879 241.721 20.0332 242.172 20.0332C243.197 20.0332 243.945 20.1494 244.414 20.3818V21.9883C243.858 21.5872 243.143 21.3867 242.268 21.3867C242.026 21.3867 241.785 21.4095 241.543 21.4551C241.306 21.5007 241.092 21.5758 240.9 21.6807C240.714 21.7855 240.561 21.9199 240.442 22.084C240.324 22.248 240.265 22.4463 240.265 22.6787C240.265 22.8975 240.31 23.0866 240.401 23.2461C240.493 23.4056 240.625 23.5514 240.798 23.6836C240.976 23.8158 241.19 23.9456 241.44 24.0732C241.696 24.1963 241.99 24.3307 242.322 24.4766C242.664 24.6543 242.985 24.8411 243.286 25.0371C243.591 25.2331 243.858 25.4495 244.086 25.6865C244.318 25.9235 244.501 26.1878 244.633 26.4795C244.77 26.7666 244.838 27.0947 244.838 27.4639C244.838 27.9606 244.738 28.3799 244.537 28.7217C244.337 29.0635 244.065 29.3415 243.724 29.5557C243.386 29.7699 242.997 29.9248 242.555 30.0205C242.113 30.1162 241.646 30.1641 241.153 30.1641C240.989 30.1641 240.786 30.1504 240.545 30.123C240.308 30.1003 240.064 30.0638 239.813 30.0137C239.563 29.9681 239.326 29.9111 239.103 29.8428C238.879 29.7744 238.699 29.6969 238.562 29.6104ZM252.392 26.9307H247.62C247.638 27.5778 247.837 28.0768 248.215 28.4277C248.598 28.7786 249.122 28.9541 249.787 28.9541C250.535 28.9541 251.22 28.7308 251.845 28.2842V29.5625C251.207 29.9635 250.364 30.1641 249.315 30.1641C248.285 30.1641 247.477 29.8473 246.889 29.2139C246.305 28.5758 246.014 27.6803 246.014 26.5273C246.014 25.4382 246.335 24.5518 246.978 23.8682C247.625 23.18 248.427 22.8359 249.384 22.8359C250.341 22.8359 251.081 23.1436 251.605 23.7588C252.13 24.374 252.392 25.2285 252.392 26.3223V26.9307ZM250.86 25.8096C250.856 25.2399 250.721 24.7979 250.457 24.4834C250.193 24.1644 249.828 24.0049 249.363 24.0049C248.908 24.0049 248.52 24.1712 248.201 24.5039C247.887 24.8366 247.693 25.2718 247.62 25.8096H250.86ZM260.137 30H258.551V26.0557C258.551 24.7477 258.088 24.0938 257.163 24.0938C256.68 24.0938 256.281 24.276 255.967 24.6406C255.652 25.0007 255.495 25.4564 255.495 26.0078V30H253.902V23H255.495V24.1621H255.522C256.047 23.278 256.803 22.8359 257.792 22.8359C258.553 22.8359 259.134 23.0843 259.535 23.5811C259.936 24.0732 260.137 24.7865 260.137 25.7207V30ZM268.442 30H266.856V28.8105H266.829C266.319 29.7129 265.533 30.1641 264.471 30.1641C263.609 30.1641 262.919 29.8519 262.399 29.2275C261.884 28.5986 261.627 27.7441 261.627 26.6641C261.627 25.5065 261.912 24.5791 262.481 23.8818C263.056 23.1846 263.819 22.8359 264.771 22.8359C265.715 22.8359 266.401 23.2142 266.829 23.9707H266.856V19.6367H268.442V30ZM266.877 26.8008V25.8848C266.877 25.388 266.715 24.9665 266.392 24.6201C266.068 24.2738 265.656 24.1006 265.154 24.1006C264.562 24.1006 264.095 24.3216 263.753 24.7637C263.416 25.2057 263.247 25.8187 263.247 26.6025C263.247 27.3135 263.409 27.8763 263.732 28.291C264.061 28.7012 264.5 28.9062 265.052 28.9062C265.594 28.9062 266.034 28.708 266.371 28.3115C266.708 27.9105 266.877 27.4069 266.877 26.8008ZM275.962 30H274.369V19.6367H275.962V30ZM278.833 21.5303C278.573 21.5303 278.35 21.446 278.163 21.2773C277.981 21.1087 277.89 20.8945 277.89 20.6348C277.89 20.375 277.981 20.1585 278.163 19.9854C278.35 19.8122 278.573 19.7256 278.833 19.7256C279.102 19.7256 279.33 19.8122 279.517 19.9854C279.703 20.1585 279.797 20.375 279.797 20.6348C279.797 20.8809 279.703 21.0928 279.517 21.2705C279.33 21.4437 279.102 21.5303 278.833 21.5303ZM279.619 30H278.033V23H279.619V30ZM287.932 30H286.346V26.0557C286.346 24.7477 285.883 24.0938 284.958 24.0938C284.475 24.0938 284.076 24.276 283.762 24.6406C283.447 25.0007 283.29 25.4564 283.29 26.0078V30H281.697V23H283.29V24.1621H283.317C283.841 23.278 284.598 22.8359 285.587 22.8359C286.348 22.8359 286.929 23.0843 287.33 23.5811C287.731 24.0732 287.932 24.7865 287.932 25.7207V30ZM296.224 30H294.214L291.493 26.6367H291.466V30H289.873V19.6367H291.466V26.2061H291.493L294.063 23H295.971L293.079 26.377L296.224 30Z" fill="white" fill-opacity="0.95"/>
</svg>
