<svg width="361" height="624" viewBox="0 0 361 624" fill="none" xmlns="http://www.w3.org/2000/svg">
<g clip-path="url(#clip0_11_22243)">
<path d="M0.166016 12C0.166016 5.37259 5.5386 0 12.166 0H360.166V624H0.166016V12Z" fill="url(#paint0_linear_11_22243)"/>
<path d="M28.5637 61.0025L25.0647 58.4855C24.6593 58.1895 24.1705 58.03 23.6686 58.0298C23.1667 58.0296 22.6777 58.1888 22.2722 58.4845L18.7707 61.0035C18.4683 61.2244 18.2221 61.5134 18.0522 61.8471C17.8824 62.1809 17.7935 62.55 17.793 62.9244V68.4058C17.7937 69.0355 18.0442 69.6392 18.4894 70.0844C18.9346 70.5297 19.5383 70.7801 20.168 70.7808H21.668C21.8999 70.7806 22.1223 70.6883 22.2864 70.5243C22.4504 70.3602 22.5427 70.1378 22.543 69.9058V66.9058C22.543 66.8727 22.5561 66.8409 22.5796 66.8175C22.603 66.794 22.6348 66.7808 22.668 66.7808H24.668C24.7011 66.7808 24.7329 66.794 24.7564 66.8175C24.7798 66.8409 24.793 66.8727 24.793 66.9058V69.9058C24.7933 70.1378 24.8855 70.3602 25.0496 70.5242C25.2136 70.6883 25.436 70.7806 25.668 70.7808H27.168C27.7976 70.7801 28.4013 70.5297 28.8466 70.0844C29.2918 69.6392 29.5423 69.0355 29.543 68.4058V62.9244C29.5424 62.5497 29.4534 62.1803 29.2832 61.8463C29.1131 61.5124 28.8665 61.2233 28.5637 61.0025ZM28.793 68.4058C28.7925 68.8367 28.6211 69.2497 28.3165 69.5543C28.0118 69.859 27.5988 70.0303 27.168 70.0308H25.668C25.6348 70.0308 25.603 70.0177 25.5796 69.9942C25.5561 69.9708 25.543 69.939 25.543 69.9058V66.9058C25.5427 66.6739 25.4504 66.4515 25.2864 66.2874C25.1223 66.1234 24.8999 66.0311 24.668 66.0308H22.668C22.436 66.0311 22.2136 66.1234 22.0496 66.2874C21.8855 66.4515 21.7932 66.6739 21.793 66.9058V69.9058C21.793 69.939 21.7798 69.9708 21.7564 69.9942C21.7329 70.0177 21.7011 70.0308 21.668 70.0308H20.168C19.7371 70.0303 19.3241 69.859 19.0195 69.5543C18.7148 69.2497 18.5435 68.8367 18.543 68.4058V62.9244C18.5433 62.6685 18.6039 62.4162 18.7198 62.188C18.8358 61.9598 19.0039 61.7621 19.2105 61.6109L22.7114 59.0919C22.9894 58.8896 23.3245 58.7806 23.6684 58.7808C24.0123 58.7809 24.3472 58.8902 24.625 59.0929L28.1236 61.61C28.3307 61.761 28.4992 61.9587 28.6155 62.1871C28.7318 62.4155 28.7926 62.6681 28.793 62.9244V68.4058Z" fill="#F7F7F7"/>
<g opacity="0.5">
<path d="M49.3749 64.4059L55.0214 58.7595C55.1128 58.6653 55.1635 58.5389 55.1625 58.4076C55.1615 58.2763 55.1089 58.1507 55.0161 58.0578C54.9232 57.965 54.7976 57.9124 54.6663 57.9114C54.535 57.9104 54.4086 57.9611 54.3144 58.0525L48.3144 64.0525C48.2206 64.1462 48.168 64.2734 48.168 64.406C48.168 64.5386 48.2206 64.6658 48.3144 64.7595L54.3144 70.7595C54.3606 70.8071 54.4157 70.845 54.4767 70.8711C54.5376 70.8972 54.6032 70.9109 54.6695 70.9114C54.7358 70.9119 54.8015 70.8992 54.8629 70.874C54.9242 70.8489 54.98 70.8118 55.0268 70.7649C55.0737 70.718 55.1108 70.6623 55.1359 70.6009C55.1611 70.5396 55.1738 70.4739 55.1733 70.4076C55.1727 70.3413 55.1591 70.2757 55.133 70.2148C55.1069 70.1538 55.069 70.0986 55.0214 70.0525L49.3749 64.4059Z" fill="white" fill-opacity="0.95"/>
</g>
<g opacity="0.5">
<path d="M81.961 64.4056L76.3146 70.052C76.2231 70.1462 76.1724 70.2726 76.1734 70.4039C76.1744 70.5352 76.227 70.6608 76.3199 70.7537C76.4127 70.8465 76.5383 70.8991 76.6696 70.9001C76.8009 70.9011 76.9273 70.8505 77.0216 70.759L83.0216 64.759C83.1153 64.6653 83.168 64.5381 83.168 64.4055C83.168 64.2729 83.1153 64.1458 83.0216 64.052L77.0216 58.052C76.9754 58.0044 76.9202 57.9665 76.8593 57.9404C76.7983 57.9143 76.7328 57.9007 76.6665 57.9002C76.6002 57.8997 76.5344 57.9123 76.4731 57.9375C76.4117 57.9626 76.356 57.9997 76.3091 58.0466C76.2622 58.0935 76.2251 58.1492 76.2 58.2106C76.1749 58.2719 76.1622 58.3377 76.1627 58.404C76.1632 58.4703 76.1769 58.5358 76.203 58.5968C76.229 58.6577 76.267 58.7129 76.3146 58.759L81.961 64.4056Z" fill="white" fill-opacity="0.95"/>
</g>
<path d="M338.834 65.7183C339.559 65.7183 340.146 65.1306 340.146 64.4058C340.146 63.6809 339.559 63.0933 338.834 63.0933C338.109 63.0933 337.521 63.6809 337.521 64.4058C337.521 65.1306 338.109 65.7183 338.834 65.7183Z" fill="#F7F7F7"/>
<path d="M332.271 65.7183C332.996 65.7183 333.584 65.1306 333.584 64.4058C333.584 63.6809 332.996 63.0933 332.271 63.0933C331.547 63.0933 330.959 63.6809 330.959 64.4058C330.959 65.1306 331.547 65.7183 332.271 65.7183Z" fill="#F7F7F7"/>
<path d="M345.396 65.7183C346.121 65.7183 346.709 65.1306 346.709 64.4058C346.709 63.6809 346.121 63.0933 345.396 63.0933C344.672 63.0933 344.084 63.6809 344.084 64.4058C344.084 65.1306 344.672 65.7183 345.396 65.7183Z" fill="#F7F7F7"/>
<circle cx="22.668" cy="25.4058" r="8" fill="white" fill-opacity="0.11"/>
<g clip-path="url(#clip1_11_22243)">
<path d="M25.1992 21.7495C24.9756 21.7497 24.7611 21.8387 24.6029 21.9968C24.4448 22.1549 24.3558 22.3693 24.3555 22.593V28.2185C24.3558 28.4422 24.4448 28.6566 24.6029 28.8147C24.7611 28.9729 24.9756 29.0618 25.1992 29.062C25.4228 29.0617 25.6375 28.9728 25.7956 28.8146C25.9537 28.6565 26.0427 28.4422 26.043 28.2185V22.593C26.0427 22.3693 25.9537 22.1549 25.7955 21.9968C25.6373 21.8387 25.4229 21.7497 25.1992 21.7495Z" fill="white"/>
<path d="M22.6674 23.9995C22.4439 23.9997 22.2295 24.0887 22.0715 24.2467C21.9134 24.4048 21.8245 24.6191 21.8242 24.8427V28.2188C21.8245 28.4424 21.9134 28.6567 22.0715 28.8148C22.2295 28.9728 22.4439 29.0617 22.6674 29.062H22.6685C22.8921 29.0617 23.1064 28.9728 23.2645 28.8148C23.4226 28.6567 23.5115 28.4423 23.5117 28.2188V24.8427C23.5114 24.619 23.4223 24.4045 23.264 24.2464C23.1057 24.0883 22.8911 23.9995 22.6674 23.9995Z" fill="white"/>
<path d="M20.1367 22.5933C19.913 22.5935 19.6985 22.6825 19.5404 22.8407C19.3822 22.9988 19.2932 23.2133 19.293 23.437V28.2183C19.293 28.442 19.3819 28.6566 19.5401 28.8149C19.6983 28.9731 19.9129 29.062 20.1367 29.062C20.3605 29.062 20.5751 28.9731 20.7333 28.8149C20.8916 28.6566 20.9805 28.442 20.9805 28.2183V23.437C20.9802 23.2133 20.8913 22.9988 20.7331 22.8407C20.5749 22.6825 20.3604 22.5935 20.1367 22.5933Z" fill="white"/>
</g>
<path d="M37.4336 31.9761V29.4761C37.8867 29.8563 38.3789 30.1427 38.9102 30.3354C39.4414 30.5229 39.9779 30.6167 40.5195 30.6167C40.8372 30.6167 41.1133 30.5881 41.3477 30.5308C41.5872 30.4735 41.7852 30.3953 41.9414 30.2964C42.1029 30.1922 42.2227 30.0724 42.3008 29.937C42.3789 29.7964 42.418 29.6453 42.418 29.4839C42.418 29.2651 42.3555 29.0698 42.2305 28.8979C42.1055 28.7261 41.9336 28.5672 41.7148 28.4214C41.5013 28.2756 41.2461 28.1349 40.9492 27.9995C40.6523 27.8641 40.332 27.7261 39.9883 27.5854C39.1133 27.2209 38.4596 26.7756 38.0273 26.2495C37.6003 25.7235 37.3867 25.0881 37.3867 24.3433C37.3867 23.7599 37.5039 23.2599 37.7383 22.8433C37.9727 22.4214 38.2904 22.075 38.6914 21.8042C39.0977 21.5334 39.5664 21.3354 40.0977 21.2104C40.6289 21.0802 41.1914 21.0151 41.7852 21.0151C42.3685 21.0151 42.8841 21.0516 43.332 21.1245C43.7852 21.1922 44.2018 21.299 44.582 21.4448V23.7808C44.3945 23.6506 44.1888 23.536 43.9648 23.437C43.7461 23.3381 43.5195 23.2573 43.2852 23.1948C43.0508 23.1271 42.8164 23.0776 42.582 23.0464C42.3529 23.0151 42.1341 22.9995 41.9258 22.9995C41.6393 22.9995 41.3789 23.0282 41.1445 23.0854C40.9102 23.1375 40.7122 23.2131 40.5508 23.312C40.3893 23.411 40.2643 23.5308 40.1758 23.6714C40.0872 23.8068 40.043 23.9604 40.043 24.1323C40.043 24.3198 40.0924 24.4891 40.1914 24.6401C40.2904 24.786 40.431 24.9266 40.6133 25.062C40.7956 25.1922 41.0169 25.3224 41.2773 25.4526C41.5378 25.5776 41.832 25.7078 42.1602 25.8433C42.6081 26.0308 43.0091 26.2313 43.3633 26.4448C43.7227 26.6532 44.0299 26.8901 44.2852 27.1558C44.5404 27.4214 44.7357 27.7261 44.8711 28.0698C45.0065 28.4084 45.0742 28.8042 45.0742 29.2573C45.0742 29.8823 44.9544 30.4084 44.7148 30.8354C44.4805 31.2573 44.1602 31.6011 43.7539 31.8667C43.3477 32.1271 42.8737 32.3146 42.332 32.4292C41.7956 32.5438 41.2279 32.6011 40.6289 32.6011C40.0143 32.6011 39.4284 32.549 38.8711 32.4448C38.319 32.3407 37.8398 32.1844 37.4336 31.9761ZM49.1445 32.4058H46.6758V20.562H49.1445V32.4058ZM52.4727 23.1401C52.056 23.1401 51.7148 23.0177 51.4492 22.7729C51.1836 22.5229 51.0508 22.2183 51.0508 21.8589C51.0508 21.4891 51.1836 21.187 51.4492 20.9526C51.7148 20.7183 52.056 20.6011 52.4727 20.6011C52.8945 20.6011 53.2357 20.7183 53.4961 20.9526C53.7617 21.187 53.8945 21.4891 53.8945 21.8589C53.8945 22.2339 53.7617 22.5412 53.4961 22.7808C53.2357 23.0203 52.8945 23.1401 52.4727 23.1401ZM53.6914 32.4058H51.2227V24.4058H53.6914V32.4058ZM63.5977 32.4058H61.1289V31.3042H61.0977C60.5352 32.1688 59.7096 32.6011 58.6211 32.6011C57.6211 32.6011 56.8164 32.2495 56.207 31.5464C55.5977 30.8381 55.293 29.8511 55.293 28.5854C55.293 27.2625 55.6289 26.2026 56.3008 25.4058C56.9727 24.6089 57.8529 24.2104 58.9414 24.2104C59.9727 24.2104 60.6914 24.5802 61.0977 25.3198H61.1289V20.562H63.5977V32.4058ZM61.1758 28.5151V27.9136C61.1758 27.3927 61.0247 26.9604 60.7227 26.6167C60.4206 26.2729 60.0273 26.1011 59.543 26.1011C58.9961 26.1011 58.569 26.3172 58.2617 26.7495C57.9544 27.1766 57.8008 27.7651 57.8008 28.5151C57.8008 29.2183 57.9492 29.7599 58.2461 30.1401C58.543 30.5203 58.9544 30.7104 59.4805 30.7104C59.9805 30.7104 60.3867 30.5099 60.6992 30.1089C61.0169 29.7078 61.1758 29.1766 61.1758 28.5151ZM69.4883 32.6011C68.1549 32.6011 67.1055 32.2287 66.3398 31.4839C65.5794 30.7339 65.1992 29.7183 65.1992 28.437C65.1992 27.1141 65.5951 26.0802 66.3867 25.3354C67.1784 24.5854 68.2487 24.2104 69.5977 24.2104C70.9258 24.2104 71.9674 24.5854 72.7227 25.3354C73.4779 26.0802 73.8555 27.0672 73.8555 28.2964C73.8555 29.6245 73.4648 30.674 72.6836 31.4448C71.9076 32.2157 70.8424 32.6011 69.4883 32.6011ZM69.5508 26.1011C68.9674 26.1011 68.5143 26.3016 68.1914 26.7026C67.8685 27.1037 67.707 27.6714 67.707 28.4058C67.707 29.9422 68.3268 30.7104 69.5664 30.7104C70.7487 30.7104 71.3398 29.9214 71.3398 28.3433C71.3398 26.8485 70.7435 26.1011 69.5508 26.1011ZM82.6445 28.5464V32.4058H80.1211V21.2026H84.0742C86.8971 21.2026 88.3086 22.3927 88.3086 24.7729C88.3086 25.8979 87.9023 26.8094 87.0898 27.5073C86.2826 28.2 85.2018 28.5464 83.8477 28.5464H82.6445ZM82.6445 23.1401V26.6323H83.6367C84.9805 26.6323 85.6523 26.0438 85.6523 24.8667C85.6523 23.7157 84.9805 23.1401 83.6367 23.1401H82.6445ZM93.0352 32.6011C91.7018 32.6011 90.6523 32.2287 89.8867 31.4839C89.1263 30.7339 88.7461 29.7183 88.7461 28.437C88.7461 27.1141 89.1419 26.0802 89.9336 25.3354C90.7253 24.5854 91.7956 24.2104 93.1445 24.2104C94.4727 24.2104 95.5143 24.5854 96.2695 25.3354C97.0247 26.0802 97.4023 27.0672 97.4023 28.2964C97.4023 29.6245 97.0117 30.674 96.2305 31.4448C95.4544 32.2157 94.3893 32.6011 93.0352 32.6011ZM93.0977 26.1011C92.5143 26.1011 92.0612 26.3016 91.7383 26.7026C91.4154 27.1037 91.2539 27.6714 91.2539 28.4058C91.2539 29.9422 91.8737 30.7104 93.1133 30.7104C94.2956 30.7104 94.8867 29.9214 94.8867 28.3433C94.8867 26.8485 94.2904 26.1011 93.0977 26.1011ZM101.473 32.4058H99.0039V20.562H101.473V32.4058ZM106.02 32.4058H103.551V20.562H106.02V32.4058ZM109.348 23.1401C108.931 23.1401 108.59 23.0177 108.324 22.7729C108.059 22.5229 107.926 22.2183 107.926 21.8589C107.926 21.4891 108.059 21.187 108.324 20.9526C108.59 20.7183 108.931 20.6011 109.348 20.6011C109.77 20.6011 110.111 20.7183 110.371 20.9526C110.637 21.187 110.77 21.4891 110.77 21.8589C110.77 22.2339 110.637 22.5412 110.371 22.7808C110.111 23.0203 109.77 23.1401 109.348 23.1401ZM110.566 32.4058H108.098V24.4058H110.566V32.4058ZM120.371 32.4058H117.91V27.9604C117.91 26.7209 117.467 26.1011 116.582 26.1011C116.155 26.1011 115.803 26.2651 115.527 26.5933C115.251 26.9214 115.113 27.3381 115.113 27.8433V32.4058H112.645V24.4058H115.113V25.6714H115.145C115.733 24.6974 116.59 24.2104 117.715 24.2104C119.486 24.2104 120.371 25.3094 120.371 27.5073V32.4058ZM130.176 31.4917C130.176 32.9761 129.746 34.1245 128.887 34.937C128.027 35.7547 126.783 36.1636 125.152 36.1636C124.074 36.1636 123.22 36.0099 122.59 35.7026V33.6245C123.413 34.1037 124.243 34.3433 125.082 34.3433C125.915 34.3433 126.561 34.1219 127.02 33.6792C127.478 33.2417 127.707 32.6453 127.707 31.8901V31.2573H127.676C127.113 32.1532 126.283 32.6011 125.184 32.6011C124.163 32.6011 123.353 32.2417 122.754 31.5229C122.155 30.8042 121.855 29.8407 121.855 28.6323C121.855 27.2782 122.189 26.2026 122.855 25.4058C123.522 24.6089 124.4 24.2104 125.488 24.2104C126.462 24.2104 127.191 24.5854 127.676 25.3354H127.707V24.4058H130.176V31.4917ZM127.738 28.562V27.9292C127.738 27.424 127.587 26.9943 127.285 26.6401C126.988 26.2808 126.6 26.1011 126.121 26.1011C125.574 26.1011 125.145 26.3146 124.832 26.7417C124.52 27.1688 124.363 27.7703 124.363 28.5464C124.363 29.2131 124.512 29.7417 124.809 30.1323C125.105 30.5177 125.512 30.7104 126.027 30.7104C126.538 30.7104 126.949 30.5151 127.262 30.1245C127.579 29.7287 127.738 29.2078 127.738 28.562ZM143.316 32.4058H140.98V31.2573H140.949C140.413 32.1532 139.618 32.6011 138.566 32.6011C137.79 32.6011 137.178 32.3823 136.73 31.9448C136.288 31.5021 136.066 30.9136 136.066 30.1792C136.066 28.6271 136.986 27.7313 138.824 27.4917L140.996 27.2026C140.996 26.3276 140.522 25.8901 139.574 25.8901C138.621 25.8901 137.715 26.174 136.855 26.7417V24.8823C137.199 24.7052 137.668 24.549 138.262 24.4136C138.861 24.2782 139.405 24.2104 139.895 24.2104C142.176 24.2104 143.316 25.3485 143.316 27.6245V32.4058ZM140.996 29.1558V28.6167L139.543 28.8042C138.741 28.9084 138.34 29.2703 138.34 29.8901C138.34 30.1714 138.436 30.4032 138.629 30.5854C138.827 30.7625 139.092 30.8511 139.426 30.8511C139.889 30.8511 140.267 30.6922 140.559 30.3745C140.85 30.0516 140.996 29.6453 140.996 29.1558ZM152.996 32.4058H150.535V27.9604C150.535 26.7209 150.092 26.1011 149.207 26.1011C148.78 26.1011 148.428 26.2651 148.152 26.5933C147.876 26.9214 147.738 27.3381 147.738 27.8433V32.4058H145.27V24.4058H147.738V25.6714H147.77C148.358 24.6974 149.215 24.2104 150.34 24.2104C152.111 24.2104 152.996 25.3094 152.996 27.5073V32.4058ZM162.785 32.4058H160.316V31.3042H160.285C159.723 32.1688 158.897 32.6011 157.809 32.6011C156.809 32.6011 156.004 32.2495 155.395 31.5464C154.785 30.8381 154.48 29.8511 154.48 28.5854C154.48 27.2625 154.816 26.2026 155.488 25.4058C156.16 24.6089 157.04 24.2104 158.129 24.2104C159.16 24.2104 159.879 24.5802 160.285 25.3198H160.316V20.562H162.785V32.4058ZM160.363 28.5151V27.9136C160.363 27.3927 160.212 26.9604 159.91 26.6167C159.608 26.2729 159.215 26.1011 158.73 26.1011C158.184 26.1011 157.757 26.3172 157.449 26.7495C157.142 27.1766 156.988 27.7651 156.988 28.5151C156.988 29.2183 157.137 29.7599 157.434 30.1401C157.73 30.5203 158.142 30.7104 158.668 30.7104C159.168 30.7104 159.574 30.5099 159.887 30.1089C160.204 29.7078 160.363 29.1766 160.363 28.5151ZM174.262 32.6011C172.658 32.6011 171.35 32.0802 170.34 31.0386C169.329 29.9865 168.824 28.6245 168.824 26.9526C168.824 25.187 169.337 23.7547 170.363 22.6558C171.384 21.562 172.743 21.0151 174.441 21.0151C176.04 21.0151 177.332 21.5386 178.316 22.5854C179.306 23.6271 179.801 25.0073 179.801 26.7261C179.801 28.4813 179.288 29.9006 178.262 30.9839C178.225 31.0203 178.191 31.0568 178.16 31.0933C178.129 31.1245 178.095 31.1558 178.059 31.187L180.895 33.9136H177.363L175.879 32.4058C175.389 32.536 174.85 32.6011 174.262 32.6011ZM174.371 23.187C173.491 23.187 172.788 23.5203 172.262 24.187C171.741 24.8485 171.48 25.7261 171.48 26.8198C171.48 27.9292 171.741 28.8068 172.262 29.4526C172.783 30.0985 173.465 30.4214 174.309 30.4214C175.178 30.4214 175.868 30.1089 176.379 29.4839C176.889 28.8485 177.145 27.9761 177.145 26.8667C177.145 25.7104 176.897 24.8068 176.402 24.1558C175.913 23.5099 175.236 23.187 174.371 23.187ZM191.941 32.5854C191.665 32.5854 191.402 32.549 191.152 32.4761C190.908 32.4032 190.673 32.3042 190.449 32.1792C190.23 32.0542 190.022 31.9084 189.824 31.7417C189.626 31.5698 189.439 31.3875 189.262 31.1948C189.069 31.3511 188.837 31.5125 188.566 31.6792C188.296 31.8459 187.988 31.9969 187.645 32.1323C187.306 32.2625 186.931 32.3693 186.52 32.4526C186.108 32.5412 185.668 32.5854 185.199 32.5854C184.59 32.5854 184.025 32.5125 183.504 32.3667C182.988 32.2209 182.543 32.0047 182.168 31.7183C181.793 31.4266 181.499 31.0672 181.285 30.6401C181.077 30.2131 180.973 29.7183 180.973 29.1558C180.973 28.7131 181.051 28.3198 181.207 27.9761C181.368 27.6271 181.577 27.3224 181.832 27.062C182.087 26.8016 182.376 26.5776 182.699 26.3901C183.022 26.2026 183.35 26.0464 183.684 25.9214C183.522 25.7964 183.358 25.6532 183.191 25.4917C183.03 25.325 182.884 25.1453 182.754 24.9526C182.624 24.7547 182.517 24.5412 182.434 24.312C182.355 24.0828 182.316 23.8407 182.316 23.5854C182.316 23.174 182.4 22.8094 182.566 22.4917C182.733 22.174 182.965 21.9058 183.262 21.687C183.564 21.4683 183.923 21.3016 184.34 21.187C184.757 21.0724 185.215 21.0151 185.715 21.0151C186.194 21.0151 186.632 21.075 187.027 21.1948C187.428 21.3146 187.772 21.4813 188.059 21.6948C188.345 21.9084 188.566 22.1662 188.723 22.4683C188.879 22.7651 188.957 23.0933 188.957 23.4526C188.957 24.0308 188.783 24.5334 188.434 24.9604C188.09 25.3823 187.603 25.7261 186.973 25.9917C187.223 26.1063 187.462 26.2365 187.691 26.3823C187.921 26.5282 188.145 26.6948 188.363 26.8823C188.582 27.0698 188.796 27.2834 189.004 27.5229C189.212 27.7573 189.418 28.0282 189.621 28.3354C190.048 27.799 190.353 27.2287 190.535 26.6245C190.723 26.0151 190.816 25.3823 190.816 24.7261C190.816 24.5282 190.803 24.3381 190.777 24.1558C190.757 23.9735 190.72 23.8042 190.668 23.6479H192.77C192.827 23.8146 192.868 23.9761 192.895 24.1323C192.921 24.2886 192.934 24.4735 192.934 24.687C192.934 25.1922 192.879 25.6844 192.77 26.1636C192.665 26.6427 192.517 27.1011 192.324 27.5386C192.132 27.9761 191.897 28.3901 191.621 28.7808C191.35 29.1714 191.051 29.536 190.723 29.8745C190.978 30.1401 191.241 30.3459 191.512 30.4917C191.783 30.6323 192.038 30.7026 192.277 30.7026C192.527 30.7026 192.783 30.6766 193.043 30.6245C193.303 30.5672 193.53 30.4891 193.723 30.3901V32.2495C193.436 32.3641 193.152 32.4474 192.871 32.4995C192.595 32.5568 192.285 32.5854 191.941 32.5854ZM185.324 30.7183C185.632 30.7183 185.921 30.6896 186.191 30.6323C186.462 30.5698 186.717 30.4891 186.957 30.3901C187.197 30.2912 187.418 30.1766 187.621 30.0464C187.829 29.9162 188.02 29.7808 188.191 29.6401C187.926 29.2235 187.663 28.8719 187.402 28.5854C187.142 28.2938 186.884 28.0464 186.629 27.8433C186.374 27.6349 186.118 27.4604 185.863 27.3198C185.613 27.1792 185.361 27.0516 185.105 26.937C184.892 27.0412 184.686 27.1584 184.488 27.2886C184.296 27.4136 184.124 27.562 183.973 27.7339C183.822 27.9006 183.699 28.0933 183.605 28.312C183.517 28.5256 183.473 28.7729 183.473 29.0542C183.473 29.3042 183.517 29.5308 183.605 29.7339C183.694 29.937 183.819 30.1115 183.98 30.2573C184.147 30.4032 184.342 30.5177 184.566 30.6011C184.796 30.6792 185.048 30.7183 185.324 30.7183ZM186.77 23.6245C186.77 23.4735 186.741 23.3381 186.684 23.2183C186.626 23.0985 186.548 22.9995 186.449 22.9214C186.35 22.8381 186.238 22.7756 186.113 22.7339C185.988 22.687 185.855 22.6636 185.715 22.6636C185.543 22.6636 185.384 22.6896 185.238 22.7417C185.098 22.7938 184.973 22.8641 184.863 22.9526C184.759 23.0412 184.678 23.1479 184.621 23.2729C184.564 23.3927 184.535 23.5229 184.535 23.6636C184.535 23.9552 184.626 24.2235 184.809 24.4683C184.991 24.7131 185.217 24.911 185.488 25.062C185.66 24.9995 185.822 24.9266 185.973 24.8433C186.129 24.7599 186.264 24.661 186.379 24.5464C186.499 24.4318 186.592 24.299 186.66 24.1479C186.733 23.9969 186.77 23.8224 186.77 23.6245ZM205.113 32.4058H202.363L201.566 29.9136H197.582L196.793 32.4058H194.059L198.137 21.2026H201.129L205.113 32.4058ZM200.988 27.9761L199.785 24.2104C199.697 23.9292 199.634 23.5933 199.598 23.2026H199.535C199.509 23.5308 199.444 23.8563 199.34 24.1792L198.121 27.9761H200.988Z" fill="white" fill-opacity="0.95"/>
<path d="M318.168 26.9058C318.102 26.9057 318.037 26.9186 317.977 26.9437C317.916 26.9689 317.861 27.0057 317.814 27.0521C317.768 27.0986 317.731 27.1537 317.706 27.2144C317.681 27.2751 317.668 27.3401 317.668 27.4058V28.8863C317.668 29.2891 317.507 29.6754 317.222 29.9602C316.938 30.2451 316.551 30.4053 316.148 30.4058H309.187C308.785 30.4053 308.398 30.2451 308.114 29.9602C307.829 29.6754 307.668 29.2891 307.668 28.8863V21.9253C307.668 21.5224 307.829 21.1362 308.114 20.8513C308.398 20.5664 308.785 20.4062 309.187 20.4058H310.668C310.801 20.4058 310.928 20.3531 311.022 20.2593C311.115 20.1655 311.168 20.0384 311.168 19.9058C311.168 19.7732 311.115 19.646 311.022 19.5522C310.928 19.4584 310.801 19.4058 310.668 19.4058H309.187C308.52 19.4066 307.879 19.6723 307.407 20.1446C306.934 20.6169 306.669 21.2573 306.668 21.9253V28.8863C306.669 29.5542 306.934 30.1946 307.407 30.6669C307.879 31.1393 308.52 31.405 309.187 31.4058H316.148C316.816 31.405 317.457 31.1393 317.929 30.6669C318.401 30.1946 318.667 29.5542 318.668 28.8863V27.4058C318.668 27.3401 318.655 27.2751 318.63 27.2144C318.605 27.1537 318.568 27.0986 318.522 27.0521C318.475 27.0057 318.42 26.9689 318.359 26.9437C318.299 26.9186 318.234 26.9057 318.168 26.9058Z" fill="white" fill-opacity="0.95"/>
<path d="M318.168 19.4068L314.168 19.4058C314.035 19.4058 313.908 19.4584 313.814 19.5522C313.721 19.646 313.668 19.7732 313.668 19.9058C313.668 20.0384 313.721 20.1655 313.814 20.2593C313.908 20.3531 314.035 20.4058 314.168 20.4058L316.96 20.4066L313.814 23.5523C313.768 23.5987 313.731 23.6538 313.706 23.7145C313.681 23.7751 313.668 23.8401 313.668 23.9058C313.668 23.9714 313.681 24.0364 313.706 24.0971C313.731 24.1578 313.768 24.2129 313.814 24.2593C313.861 24.3057 313.916 24.3425 313.977 24.3677C314.037 24.3928 314.102 24.4057 314.168 24.4057C314.234 24.4057 314.299 24.3928 314.359 24.3677C314.42 24.3425 314.475 24.3057 314.521 24.2593L317.668 21.1124V23.9058C317.668 24.0384 317.721 24.1655 317.814 24.2593C317.908 24.3531 318.035 24.4058 318.168 24.4058C318.301 24.4058 318.428 24.3531 318.522 24.2593C318.615 24.1655 318.668 24.0384 318.668 23.9058V19.9068C318.668 19.7742 318.615 19.647 318.522 19.5532C318.428 19.4594 318.301 19.4068 318.168 19.4068Z" fill="white" fill-opacity="0.95"/>
<path d="M341.375 25.4055L345.522 21.259C345.568 21.2126 345.605 21.1575 345.63 21.0968C345.655 21.0362 345.668 20.9712 345.668 20.9055C345.668 20.8399 345.655 20.7748 345.63 20.7142C345.605 20.6535 345.568 20.5984 345.522 20.552C345.475 20.5056 345.42 20.4687 345.359 20.4436C345.299 20.4185 345.234 20.4056 345.168 20.4056C345.102 20.4056 345.037 20.4185 344.977 20.4436C344.916 20.4688 344.861 20.5056 344.814 20.552L340.668 24.6985L336.521 20.552C336.475 20.5052 336.42 20.4679 336.359 20.4424C336.298 20.417 336.233 20.4038 336.167 20.4036C336.101 20.4034 336.036 20.4162 335.975 20.4414C335.914 20.4665 335.859 20.5034 335.812 20.55C335.766 20.5966 335.729 20.6519 335.704 20.7129C335.679 20.7738 335.666 20.8391 335.666 20.9049C335.666 20.9708 335.679 21.036 335.705 21.0968C335.73 21.1576 335.768 21.2127 335.814 21.259L339.961 25.4055L335.814 29.552C335.768 29.5985 335.731 29.6536 335.706 29.7142C335.681 29.7749 335.668 29.8399 335.668 29.9056C335.668 29.9712 335.681 30.0362 335.706 30.0969C335.731 30.1575 335.768 30.2127 335.814 30.2591C335.861 30.3055 335.916 30.3423 335.977 30.3675C336.037 30.3926 336.102 30.4055 336.168 30.4055C336.234 30.4055 336.299 30.3926 336.359 30.3675C336.42 30.3423 336.475 30.3055 336.522 30.2591L340.668 26.1126L344.815 30.2591C344.908 30.3528 345.035 30.4055 345.168 30.4055C345.301 30.4055 345.428 30.3528 345.522 30.2591C345.615 30.1653 345.668 30.0382 345.668 29.9056C345.668 29.773 345.615 29.6458 345.522 29.552L341.375 25.4055Z" fill="white" fill-opacity="0.95"/>
<g clip-path="url(#clip2_11_22243)">
<rect width="360" height="566" transform="translate(0.5 84.4058)" fill="white"/>
<rect width="360" height="566" transform="translate(0.5 84.4058)" fill="black" fill-opacity="0.02"/>
<path d="M20.5 92.4058H340.5V752.216H20.5V92.4058Z" fill="white"/>
<rect width="365" height="570" transform="translate(-4.5 92.4058)" fill="#18191A"/>
<rect x="112" y="477.406" width="75" height="38" rx="5" fill="#159688" fill-opacity="0.08"/>
<path d="M129.371 500.929C129.371 500.265 129.137 499.757 128.668 499.406C128.199 499.046 127.355 498.671 126.137 498.281C124.918 497.882 123.953 497.492 123.242 497.109C121.305 496.062 120.336 494.652 120.336 492.878C120.336 491.957 120.594 491.136 121.109 490.417C121.633 489.691 122.379 489.125 123.348 488.718C124.324 488.312 125.418 488.109 126.629 488.109C127.848 488.109 128.934 488.332 129.887 488.777C130.84 489.214 131.578 489.835 132.102 490.64C132.633 491.445 132.898 492.359 132.898 493.382H129.383C129.383 492.601 129.137 491.996 128.645 491.566C128.152 491.128 127.461 490.91 126.57 490.91C125.711 490.91 125.043 491.093 124.566 491.46C124.09 491.82 123.852 492.296 123.852 492.89C123.852 493.445 124.129 493.91 124.684 494.285C125.246 494.66 126.07 495.011 127.156 495.339C129.156 495.941 130.613 496.687 131.527 497.578C132.441 498.468 132.898 499.578 132.898 500.906C132.898 502.382 132.34 503.542 131.223 504.386C130.105 505.222 128.602 505.64 126.711 505.64C125.398 505.64 124.203 505.402 123.125 504.925C122.047 504.441 121.223 503.781 120.652 502.945C120.09 502.109 119.809 501.14 119.809 500.039H123.336C123.336 501.921 124.461 502.863 126.711 502.863C127.547 502.863 128.199 502.695 128.668 502.359C129.137 502.015 129.371 501.539 129.371 500.929ZM146.48 499.183C146.48 501.136 146.035 502.703 145.145 503.882C144.262 505.054 143.066 505.64 141.559 505.64C140.277 505.64 139.242 505.195 138.453 504.304V510.281H135.066V492.726H138.207L138.324 493.968C139.145 492.984 140.215 492.492 141.535 492.492C143.098 492.492 144.312 493.07 145.18 494.226C146.047 495.382 146.48 496.976 146.48 499.007V499.183ZM143.094 498.937C143.094 497.757 142.883 496.847 142.461 496.207C142.047 495.566 141.441 495.246 140.645 495.246C139.582 495.246 138.852 495.652 138.453 496.464V501.656C138.867 502.492 139.605 502.91 140.668 502.91C142.285 502.91 143.094 501.585 143.094 498.937ZM155.938 505.406C155.781 505.101 155.668 504.722 155.598 504.269C154.777 505.183 153.711 505.64 152.398 505.64C151.156 505.64 150.125 505.281 149.305 504.562C148.492 503.843 148.086 502.937 148.086 501.843C148.086 500.5 148.582 499.468 149.574 498.75C150.574 498.031 152.016 497.667 153.898 497.66H155.457V496.933C155.457 496.347 155.305 495.878 155 495.527C154.703 495.175 154.23 495 153.582 495C153.012 495 152.562 495.136 152.234 495.41C151.914 495.683 151.754 496.058 151.754 496.535H148.367C148.367 495.8 148.594 495.121 149.047 494.496C149.5 493.871 150.141 493.382 150.969 493.031C151.797 492.671 152.727 492.492 153.758 492.492C155.32 492.492 156.559 492.886 157.473 493.675C158.395 494.457 158.855 495.558 158.855 496.98V502.476C158.863 503.679 159.031 504.589 159.359 505.207V505.406H155.938ZM153.137 503.05C153.637 503.05 154.098 502.941 154.52 502.722C154.941 502.496 155.254 502.195 155.457 501.82V499.64H154.191C152.496 499.64 151.594 500.226 151.484 501.398L151.473 501.597C151.473 502.019 151.621 502.367 151.918 502.64C152.215 502.914 152.621 503.05 153.137 503.05ZM165.031 505.406H161.633V492.726H165.031V505.406ZM161.434 489.445C161.434 488.937 161.602 488.519 161.938 488.191C162.281 487.863 162.746 487.699 163.332 487.699C163.91 487.699 164.371 487.863 164.715 488.191C165.059 488.519 165.23 488.937 165.23 489.445C165.23 489.96 165.055 490.382 164.703 490.71C164.359 491.039 163.902 491.203 163.332 491.203C162.762 491.203 162.301 491.039 161.949 490.71C161.605 490.382 161.434 489.96 161.434 489.445ZM170.949 492.726L171.055 494.191C171.961 493.058 173.176 492.492 174.699 492.492C176.043 492.492 177.043 492.886 177.699 493.675C178.355 494.464 178.691 495.644 178.707 497.214V505.406H175.32V497.296C175.32 496.578 175.164 496.058 174.852 495.738C174.539 495.41 174.02 495.246 173.293 495.246C172.34 495.246 171.625 495.652 171.148 496.464V505.406H167.762V492.726H170.949Z" fill="#159688"/>
<rect x="70" y="377.406" width="102" height="42" rx="5" fill="#4A768F" fill-opacity="0.08"/>
<path d="M83.1387 408.406H79.0371V388.5H83.1387V408.406ZM95.0059 397.318C94.4681 397.245 93.9941 397.208 93.584 397.208C92.0892 397.208 91.1094 397.714 90.6445 398.726V408.406H86.6934V393.613H90.4258L90.5352 395.376C91.3281 394.018 92.4264 393.339 93.8301 393.339C94.2676 393.339 94.6777 393.399 95.0605 393.517L95.0059 397.318ZM103.455 408.679C101.286 408.679 99.5176 408.014 98.1504 406.683C96.7923 405.352 96.1133 403.58 96.1133 401.365V400.982C96.1133 399.496 96.4004 398.17 96.9746 397.003C97.5488 395.828 98.36 394.925 99.4082 394.296C100.465 393.658 101.669 393.339 103.018 393.339C105.041 393.339 106.632 393.977 107.789 395.253C108.956 396.529 109.539 398.339 109.539 400.681V402.294H100.119C100.247 403.261 100.63 404.035 101.268 404.619C101.915 405.202 102.73 405.494 103.715 405.494C105.237 405.494 106.426 404.942 107.283 403.839L109.225 406.013C108.632 406.852 107.83 407.508 106.818 407.982C105.807 408.447 104.686 408.679 103.455 408.679ZM103.004 396.539C102.22 396.539 101.582 396.803 101.09 397.332C100.607 397.86 100.297 398.617 100.16 399.601H105.656V399.287C105.638 398.412 105.401 397.737 104.945 397.263C104.49 396.78 103.842 396.539 103.004 396.539ZM115.965 408.406H112V387.406H115.965V408.406ZM127.805 408.406C127.622 408.05 127.49 407.608 127.408 407.08C126.451 408.146 125.207 408.679 123.676 408.679C122.227 408.679 121.023 408.26 120.066 407.421C119.118 406.583 118.645 405.526 118.645 404.25C118.645 402.682 119.223 401.479 120.381 400.64C121.548 399.802 123.229 399.378 125.426 399.369H127.244V398.521C127.244 397.837 127.066 397.291 126.711 396.88C126.365 396.47 125.813 396.265 125.057 396.265C124.391 396.265 123.867 396.425 123.484 396.744C123.111 397.063 122.924 397.5 122.924 398.056H118.973C118.973 397.199 119.237 396.406 119.766 395.677C120.294 394.948 121.042 394.378 122.008 393.968C122.974 393.549 124.059 393.339 125.262 393.339C127.085 393.339 128.529 393.8 129.596 394.72C130.671 395.632 131.209 396.917 131.209 398.576V404.988C131.218 406.391 131.414 407.453 131.797 408.173V408.406H127.805ZM124.537 405.658C125.12 405.658 125.658 405.53 126.15 405.275C126.643 405.011 127.007 404.66 127.244 404.222V401.679H125.768C123.79 401.679 122.737 402.363 122.609 403.73L122.596 403.962C122.596 404.455 122.769 404.86 123.115 405.179C123.462 405.498 123.936 405.658 124.537 405.658ZM137.881 393.613L138.004 395.322C139.061 394 140.479 393.339 142.256 393.339C143.824 393.339 144.99 393.8 145.756 394.72C146.521 395.641 146.913 397.017 146.932 398.849V408.406H142.98V398.945C142.98 398.106 142.798 397.5 142.434 397.126C142.069 396.744 141.463 396.552 140.615 396.552C139.503 396.552 138.669 397.026 138.113 397.974V408.406H134.162V393.613H137.881ZM149.324 400.9C149.324 398.594 149.839 396.757 150.869 395.39C151.908 394.023 153.326 393.339 155.121 393.339C156.561 393.339 157.751 393.877 158.689 394.953V387.406H162.654V408.406H159.086L158.895 406.833C157.91 408.064 156.643 408.679 155.094 408.679C153.353 408.679 151.954 407.996 150.896 406.628C149.848 405.252 149.324 403.343 149.324 400.9ZM153.275 401.187C153.275 402.572 153.517 403.634 154 404.373C154.483 405.111 155.185 405.48 156.105 405.48C157.327 405.48 158.188 404.965 158.689 403.935V398.097C158.197 397.067 157.345 396.552 156.133 396.552C154.228 396.552 153.275 398.097 153.275 401.187Z" fill="#4A768F"/>
<rect x="136" y="423.406" width="85" height="50" rx="5" fill="#91D8E3" fill-opacity="0.1"/>
<path d="M164.656 436.812V453.669C164.656 456.47 163.777 458.685 162.02 460.314C160.273 461.943 157.883 462.757 154.848 462.757C151.859 462.757 149.486 461.966 147.729 460.384C145.971 458.802 145.074 456.628 145.039 453.863V436.812H150.312V453.705C150.312 455.38 150.711 456.605 151.508 457.378C152.316 458.14 153.43 458.521 154.848 458.521C157.812 458.521 159.318 456.962 159.365 453.845V436.812H164.656ZM182.252 455.691C182.252 454.695 181.9 453.933 181.197 453.406C180.494 452.867 179.229 452.304 177.4 451.718C175.572 451.121 174.125 450.535 173.059 449.96C170.152 448.39 168.699 446.275 168.699 443.615C168.699 442.232 169.086 441.001 169.859 439.923C170.645 438.833 171.764 437.984 173.217 437.375C174.682 436.765 176.322 436.46 178.139 436.46C179.967 436.46 181.596 436.794 183.025 437.462C184.455 438.119 185.562 439.05 186.348 440.257C187.145 441.464 187.543 442.835 187.543 444.371H182.27C182.27 443.199 181.9 442.291 181.162 441.646C180.424 440.99 179.387 440.662 178.051 440.662C176.762 440.662 175.76 440.937 175.045 441.488C174.33 442.027 173.973 442.742 173.973 443.632C173.973 444.464 174.389 445.162 175.221 445.724C176.064 446.287 177.301 446.814 178.93 447.306C181.93 448.208 184.115 449.328 185.486 450.664C186.857 452 187.543 453.664 187.543 455.656C187.543 457.871 186.705 459.611 185.029 460.876C183.354 462.13 181.098 462.757 178.262 462.757C176.293 462.757 174.5 462.4 172.883 461.685C171.266 460.958 170.029 459.968 169.174 458.714C168.33 457.46 167.908 456.007 167.908 454.355H173.199C173.199 457.179 174.887 458.591 178.262 458.591C179.516 458.591 180.494 458.339 181.197 457.835C181.9 457.32 182.252 456.605 182.252 455.691ZM205.578 457.132H196.332L194.574 462.406H188.967L198.494 436.812H203.381L212.961 462.406H207.354L205.578 457.132ZM197.756 452.861H204.154L200.938 443.281L197.756 452.861Z" fill="#91D8E3"/>
<rect x="193" y="485.406" width="63" height="26" rx="5" fill="#818282" fill-opacity="0.1"/>
<path d="M205.578 501.648H202.496L201.91 503.406H200.041L203.217 494.875H204.846L208.039 503.406H206.17L205.578 501.648ZM202.971 500.224H205.104L204.031 497.031L202.971 500.224ZM212.451 502.761C212.033 503.269 211.455 503.523 210.717 503.523C210.037 503.523 209.518 503.328 209.158 502.937C208.803 502.546 208.621 501.974 208.613 501.22V497.066H210.307V501.162C210.307 501.822 210.607 502.152 211.209 502.152C211.783 502.152 212.178 501.953 212.393 501.554V497.066H214.092V503.406H212.498L212.451 502.761ZM218.803 501.654C218.803 501.447 218.699 501.285 218.492 501.167C218.289 501.046 217.961 500.939 217.508 500.845C216 500.529 215.246 499.888 215.246 498.923C215.246 498.361 215.479 497.892 215.943 497.517C216.412 497.138 217.023 496.949 217.777 496.949C218.582 496.949 219.225 497.138 219.705 497.517C220.189 497.896 220.432 498.388 220.432 498.994H218.738C218.738 498.751 218.66 498.552 218.504 498.396C218.348 498.236 218.104 498.156 217.771 498.156C217.486 498.156 217.266 498.22 217.109 498.349C216.953 498.478 216.875 498.642 216.875 498.841C216.875 499.029 216.963 499.181 217.139 499.298C217.318 499.412 217.619 499.511 218.041 499.597C218.463 499.679 218.818 499.773 219.107 499.878C220.002 500.207 220.449 500.775 220.449 501.583C220.449 502.162 220.201 502.63 219.705 502.99C219.209 503.345 218.568 503.523 217.783 503.523C217.252 503.523 216.779 503.429 216.365 503.242C215.955 503.05 215.633 502.791 215.398 502.462C215.164 502.13 215.047 501.773 215.047 501.39H216.652C216.668 501.691 216.779 501.921 216.986 502.082C217.193 502.242 217.471 502.322 217.818 502.322C218.143 502.322 218.387 502.261 218.551 502.14C218.719 502.015 218.803 501.853 218.803 501.654ZM223.572 495.507V497.066H224.656V498.308H223.572V501.472C223.572 501.707 223.617 501.875 223.707 501.976C223.797 502.078 223.969 502.128 224.223 502.128C224.41 502.128 224.576 502.115 224.721 502.087V503.371C224.389 503.472 224.047 503.523 223.695 503.523C222.508 503.523 221.902 502.923 221.879 501.724V498.308H220.953V497.066H221.879V495.507H223.572ZM229.162 498.654C228.932 498.623 228.729 498.607 228.553 498.607C227.912 498.607 227.492 498.824 227.293 499.257V503.406H225.6V497.066H227.199L227.246 497.822C227.586 497.24 228.057 496.949 228.658 496.949C228.846 496.949 229.021 496.974 229.186 497.025L229.162 498.654ZM233.48 503.406C233.402 503.253 233.346 503.064 233.311 502.837C232.9 503.294 232.367 503.523 231.711 503.523C231.09 503.523 230.574 503.343 230.164 502.984C229.758 502.625 229.555 502.171 229.555 501.625C229.555 500.953 229.803 500.437 230.299 500.078C230.799 499.718 231.52 499.537 232.461 499.533H233.24V499.169C233.24 498.876 233.164 498.642 233.012 498.466C232.863 498.291 232.627 498.203 232.303 498.203C232.018 498.203 231.793 498.271 231.629 498.408C231.469 498.544 231.389 498.732 231.389 498.97H229.695C229.695 498.603 229.809 498.263 230.035 497.951C230.262 497.638 230.582 497.394 230.996 497.218C231.41 497.039 231.875 496.949 232.391 496.949C233.172 496.949 233.791 497.146 234.248 497.541C234.709 497.931 234.939 498.482 234.939 499.193V501.941C234.943 502.542 235.027 502.998 235.191 503.306V503.406H233.48ZM232.08 502.228C232.33 502.228 232.561 502.173 232.771 502.064C232.982 501.951 233.139 501.8 233.24 501.613V500.523H232.607C231.76 500.523 231.309 500.816 231.254 501.402L231.248 501.501C231.248 501.712 231.322 501.886 231.471 502.023C231.619 502.16 231.822 502.228 232.08 502.228ZM238.027 503.406H236.328V494.406H238.027V503.406ZM241.215 503.406H239.516V497.066H241.215V503.406ZM239.416 495.425C239.416 495.171 239.5 494.962 239.668 494.798C239.84 494.634 240.072 494.552 240.365 494.552C240.654 494.552 240.885 494.634 241.057 494.798C241.229 494.962 241.314 495.171 241.314 495.425C241.314 495.683 241.227 495.894 241.051 496.058C240.879 496.222 240.65 496.304 240.365 496.304C240.08 496.304 239.85 496.222 239.674 496.058C239.502 495.894 239.416 495.683 239.416 495.425ZM246.289 503.406C246.211 503.253 246.154 503.064 246.119 502.837C245.709 503.294 245.176 503.523 244.52 503.523C243.898 503.523 243.383 503.343 242.973 502.984C242.566 502.625 242.363 502.171 242.363 501.625C242.363 500.953 242.611 500.437 243.107 500.078C243.607 499.718 244.328 499.537 245.27 499.533H246.049V499.169C246.049 498.876 245.973 498.642 245.82 498.466C245.672 498.291 245.436 498.203 245.111 498.203C244.826 498.203 244.602 498.271 244.438 498.408C244.277 498.544 244.197 498.732 244.197 498.97H242.504C242.504 498.603 242.617 498.263 242.844 497.951C243.07 497.638 243.391 497.394 243.805 497.218C244.219 497.039 244.684 496.949 245.199 496.949C245.98 496.949 246.6 497.146 247.057 497.541C247.518 497.931 247.748 498.482 247.748 499.193V501.941C247.752 502.542 247.836 502.998 248 503.306V503.406H246.289ZM244.889 502.228C245.139 502.228 245.369 502.173 245.58 502.064C245.791 501.951 245.947 501.8 246.049 501.613V500.523H245.416C244.568 500.523 244.117 500.816 244.062 501.402L244.057 501.501C244.057 501.712 244.131 501.886 244.279 502.023C244.428 502.16 244.631 502.228 244.889 502.228Z" fill="#818282"/>
<rect x="227" y="419.406" width="30" height="26" rx="5" fill="#818282" fill-opacity="0.1"/>
<path d="M241.219 428.875V434.494C241.219 435.427 240.926 436.166 240.34 436.708C239.758 437.251 238.961 437.523 237.949 437.523C236.953 437.523 236.162 437.259 235.576 436.732C234.99 436.205 234.691 435.48 234.68 434.558V428.875H236.438V434.505C236.438 435.064 236.57 435.472 236.836 435.73C237.105 435.984 237.477 436.111 237.949 436.111C238.938 436.111 239.439 435.591 239.455 434.552V428.875H241.219ZM245.332 433.984L244.418 434.968V437.406H242.66V428.875H244.418V432.742L245.191 431.681L247.365 428.875H249.527L246.498 432.666L249.615 437.406H247.523L245.332 433.984Z" fill="#818282"/>
<rect x="82" y="435.406" width="48" height="26" rx="5" fill="#818282" fill-opacity="0.1"/>
<path d="M93.2012 444.875H94.959V450.781C94.959 451.324 94.8379 451.804 94.5957 452.222C94.3574 452.636 94.0195 452.957 93.582 453.183C93.1445 453.41 92.6504 453.523 92.0996 453.523C91.1973 453.523 90.4941 453.294 89.9902 452.837C89.4863 452.376 89.2344 451.726 89.2344 450.886H91.0039C91.0039 451.304 91.0918 451.613 91.2676 451.812C91.4434 452.011 91.7207 452.111 92.0996 452.111C92.4355 452.111 92.7031 451.996 92.9023 451.765C93.1016 451.535 93.2012 451.207 93.2012 450.781V444.875ZM100.027 453.406C99.9492 453.253 99.8926 453.064 99.8574 452.837C99.4473 453.294 98.9141 453.523 98.2578 453.523C97.6367 453.523 97.1211 453.343 96.7109 452.984C96.3047 452.625 96.1016 452.171 96.1016 451.625C96.1016 450.953 96.3496 450.437 96.8457 450.078C97.3457 449.718 98.0664 449.537 99.0078 449.533H99.7871V449.169C99.7871 448.876 99.7109 448.642 99.5586 448.466C99.4102 448.291 99.1738 448.203 98.8496 448.203C98.5645 448.203 98.3398 448.271 98.1758 448.408C98.0156 448.544 97.9355 448.732 97.9355 448.97H96.2422C96.2422 448.603 96.3555 448.263 96.582 447.951C96.8086 447.638 97.1289 447.394 97.543 447.218C97.957 447.039 98.4219 446.949 98.9375 446.949C99.7188 446.949 100.338 447.146 100.795 447.541C101.256 447.931 101.486 448.482 101.486 449.193V451.941C101.49 452.542 101.574 452.998 101.738 453.306V453.406H100.027ZM98.627 452.228C98.877 452.228 99.1074 452.173 99.3184 452.064C99.5293 451.951 99.6855 451.8 99.7871 451.613V450.523H99.1543C98.3066 450.523 97.8555 450.816 97.8008 451.402L97.7949 451.501C97.7949 451.712 97.8691 451.886 98.0176 452.023C98.166 452.16 98.3691 452.228 98.627 452.228ZM108.494 450.294C108.494 451.271 108.271 452.054 107.826 452.644C107.385 453.23 106.787 453.523 106.033 453.523C105.393 453.523 104.875 453.3 104.48 452.855V455.843H102.787V447.066H104.357L104.416 447.687C104.826 447.195 105.361 446.949 106.021 446.949C106.803 446.949 107.41 447.238 107.844 447.816C108.277 448.394 108.494 449.191 108.494 450.207V450.294ZM106.801 450.171C106.801 449.582 106.695 449.126 106.484 448.806C106.277 448.486 105.975 448.326 105.576 448.326C105.045 448.326 104.68 448.529 104.48 448.935V451.531C104.688 451.949 105.057 452.158 105.588 452.158C106.396 452.158 106.801 451.496 106.801 450.171ZM113.223 453.406C113.145 453.253 113.088 453.064 113.053 452.837C112.643 453.294 112.109 453.523 111.453 453.523C110.832 453.523 110.316 453.343 109.906 452.984C109.5 452.625 109.297 452.171 109.297 451.625C109.297 450.953 109.545 450.437 110.041 450.078C110.541 449.718 111.262 449.537 112.203 449.533H112.982V449.169C112.982 448.876 112.906 448.642 112.754 448.466C112.605 448.291 112.369 448.203 112.045 448.203C111.76 448.203 111.535 448.271 111.371 448.408C111.211 448.544 111.131 448.732 111.131 448.97H109.438C109.438 448.603 109.551 448.263 109.777 447.951C110.004 447.638 110.324 447.394 110.738 447.218C111.152 447.039 111.617 446.949 112.133 446.949C112.914 446.949 113.533 447.146 113.99 447.541C114.451 447.931 114.682 448.482 114.682 449.193V451.941C114.686 452.542 114.77 452.998 114.934 453.306V453.406H113.223ZM111.822 452.228C112.072 452.228 112.303 452.173 112.514 452.064C112.725 451.951 112.881 451.8 112.982 451.613V450.523H112.35C111.502 450.523 111.051 450.816 110.996 451.402L110.99 451.501C110.99 451.712 111.064 451.886 111.213 452.023C111.361 452.16 111.564 452.228 111.822 452.228ZM117.541 447.066L117.594 447.798C118.047 447.232 118.654 446.949 119.416 446.949C120.088 446.949 120.588 447.146 120.916 447.541C121.244 447.935 121.412 448.525 121.42 449.31V453.406H119.727V449.351C119.727 448.992 119.648 448.732 119.492 448.572C119.336 448.408 119.076 448.326 118.713 448.326C118.236 448.326 117.879 448.529 117.641 448.935V453.406H115.947V447.066H117.541Z" fill="#818282"/>
<rect x="227" y="449.406" width="74" height="30" rx="5" fill="#4589FF" fill-opacity="0.1"/>
<path d="M235.016 470.406V459.031H239C240.38 459.031 241.427 459.296 242.141 459.828C242.854 460.354 243.211 461.127 243.211 462.148C243.211 462.705 243.068 463.197 242.781 463.625C242.495 464.046 242.096 464.356 241.586 464.554C242.169 464.7 242.628 464.994 242.961 465.437C243.299 465.88 243.469 466.421 243.469 467.062C243.469 468.156 243.12 468.984 242.422 469.546C241.724 470.109 240.729 470.395 239.438 470.406H235.016ZM237.359 465.453V468.523H239.367C239.919 468.523 240.349 468.393 240.656 468.132C240.969 467.867 241.125 467.502 241.125 467.039C241.125 465.997 240.586 465.468 239.508 465.453H237.359ZM237.359 463.796H239.094C240.276 463.776 240.867 463.304 240.867 462.382C240.867 461.867 240.716 461.497 240.414 461.273C240.117 461.044 239.646 460.929 239 460.929H237.359V463.796ZM248.977 470.562C247.737 470.562 246.727 470.182 245.945 469.421C245.169 468.661 244.781 467.648 244.781 466.382V466.164C244.781 465.315 244.945 464.557 245.273 463.89C245.602 463.218 246.065 462.703 246.664 462.343C247.268 461.979 247.956 461.796 248.727 461.796C249.883 461.796 250.792 462.161 251.453 462.89C252.12 463.619 252.453 464.653 252.453 465.992V466.914H247.07C247.143 467.466 247.362 467.908 247.727 468.242C248.096 468.575 248.562 468.742 249.125 468.742C249.995 468.742 250.674 468.427 251.164 467.796L252.273 469.039C251.935 469.518 251.477 469.893 250.898 470.164C250.32 470.429 249.68 470.562 248.977 470.562ZM248.719 463.625C248.271 463.625 247.906 463.776 247.625 464.078C247.349 464.38 247.172 464.812 247.094 465.375H250.234V465.195C250.224 464.695 250.089 464.309 249.828 464.039C249.568 463.763 249.198 463.625 248.719 463.625ZM256.125 470.406H253.859V458.406H256.125V470.406ZM257.664 466.117C257.664 464.82 257.971 463.776 258.586 462.984C259.206 462.192 260.039 461.796 261.086 461.796C262.013 461.796 262.734 462.114 263.25 462.75L263.344 461.953H265.391V470.125C265.391 470.864 265.221 471.507 264.883 472.054C264.549 472.601 264.078 473.018 263.469 473.304C262.859 473.591 262.146 473.734 261.328 473.734C260.708 473.734 260.104 473.609 259.516 473.359C258.927 473.114 258.482 472.796 258.18 472.406L259.18 471.031C259.742 471.661 260.424 471.976 261.227 471.976C261.826 471.976 262.292 471.815 262.625 471.492C262.958 471.174 263.125 470.721 263.125 470.132V469.679C262.604 470.268 261.919 470.562 261.07 470.562C260.055 470.562 259.232 470.166 258.602 469.375C257.977 468.578 257.664 467.523 257.664 466.21V466.117ZM259.922 466.281C259.922 467.046 260.076 467.648 260.383 468.085C260.69 468.518 261.112 468.734 261.648 468.734C262.336 468.734 262.828 468.476 263.125 467.96V464.406C262.823 463.89 262.336 463.632 261.664 463.632C261.122 463.632 260.695 463.854 260.383 464.296C260.076 464.739 259.922 465.401 259.922 466.281ZM269.516 470.406H267.25V461.953H269.516V470.406ZM267.117 459.765C267.117 459.427 267.229 459.148 267.453 458.929C267.682 458.71 267.992 458.601 268.383 458.601C268.768 458.601 269.076 458.71 269.305 458.929C269.534 459.148 269.648 459.427 269.648 459.765C269.648 460.109 269.531 460.39 269.297 460.609C269.068 460.828 268.763 460.937 268.383 460.937C268.003 460.937 267.695 460.828 267.461 460.609C267.232 460.39 267.117 460.109 267.117 459.765ZM276.445 469.546C275.888 470.223 275.117 470.562 274.133 470.562C273.227 470.562 272.534 470.302 272.055 469.781C271.581 469.26 271.339 468.497 271.328 467.492V461.953H273.586V467.414C273.586 468.294 273.987 468.734 274.789 468.734C275.555 468.734 276.081 468.468 276.367 467.937V461.953H278.633V470.406H276.508L276.445 469.546ZM282.453 461.953L282.523 462.898C283.122 462.164 283.932 461.796 284.953 461.796C286.042 461.796 286.789 462.226 287.195 463.085C287.789 462.226 288.635 461.796 289.734 461.796C290.651 461.796 291.333 462.065 291.781 462.601C292.229 463.132 292.453 463.934 292.453 465.007V470.406H290.188V465.015C290.188 464.536 290.094 464.187 289.906 463.968C289.719 463.744 289.388 463.632 288.914 463.632C288.237 463.632 287.768 463.955 287.508 464.601L287.516 470.406H285.258V465.023C285.258 464.533 285.161 464.179 284.969 463.96C284.776 463.742 284.448 463.632 283.984 463.632C283.344 463.632 282.88 463.898 282.594 464.429V470.406H280.336V461.953H282.453Z" fill="#4589FF"/>
<rect x="176" y="381.406" width="94" height="34" rx="5" fill="#36AAB9" fill-opacity="0.08"/>
<path d="M195.52 403.609C194.992 404.24 194.247 404.732 193.283 405.083C192.32 405.429 191.252 405.601 190.08 405.601C188.85 405.601 187.769 405.334 186.838 404.8C185.913 404.26 185.197 403.479 184.689 402.457C184.188 401.434 183.931 400.233 183.918 398.853V397.886C183.918 396.467 184.156 395.24 184.631 394.205C185.113 393.163 185.803 392.369 186.701 391.822C187.606 391.268 188.664 390.992 189.875 390.992C191.561 390.992 192.88 391.395 193.83 392.203C194.781 393.003 195.344 394.172 195.52 395.708H192.668C192.538 394.895 192.248 394.299 191.799 393.921C191.356 393.544 190.744 393.355 189.963 393.355C188.967 393.355 188.208 393.729 187.688 394.478C187.167 395.227 186.903 396.34 186.896 397.818V398.726C186.896 400.217 187.18 401.343 187.746 402.105C188.312 402.867 189.143 403.248 190.236 403.248C191.337 403.248 192.121 403.013 192.59 402.544V400.093H189.924V397.935H195.52V403.609ZM202.58 405.601C201.031 405.601 199.768 405.126 198.791 404.175C197.821 403.225 197.336 401.958 197.336 400.376V400.103C197.336 399.042 197.541 398.095 197.951 397.261C198.361 396.421 198.941 395.777 199.689 395.328C200.445 394.872 201.304 394.644 202.268 394.644C203.713 394.644 204.849 395.1 205.676 396.011C206.509 396.923 206.926 398.215 206.926 399.888V401.041H200.197C200.288 401.731 200.562 402.284 201.018 402.701C201.48 403.117 202.062 403.326 202.766 403.326C203.853 403.326 204.702 402.932 205.314 402.144L206.701 403.697C206.278 404.296 205.705 404.764 204.982 405.103C204.26 405.435 203.459 405.601 202.58 405.601ZM202.258 396.929C201.698 396.929 201.242 397.118 200.891 397.496C200.546 397.873 200.324 398.414 200.227 399.117H204.152V398.892C204.139 398.267 203.97 397.785 203.645 397.447C203.319 397.102 202.857 396.929 202.258 396.929ZM214.475 397.486C214.09 397.434 213.752 397.408 213.459 397.408C212.391 397.408 211.691 397.769 211.359 398.492V405.406H208.537V394.839H211.203L211.281 396.099C211.848 395.129 212.632 394.644 213.635 394.644C213.947 394.644 214.24 394.686 214.514 394.771L214.475 397.486ZM218.488 394.839L218.576 396.021C219.325 395.103 220.337 394.644 221.613 394.644C222.974 394.644 223.908 395.181 224.416 396.255C225.158 395.181 226.216 394.644 227.59 394.644C228.736 394.644 229.589 394.979 230.148 395.65C230.708 396.314 230.988 397.317 230.988 398.658V405.406H228.156V398.667C228.156 398.069 228.039 397.632 227.805 397.359C227.57 397.079 227.157 396.939 226.564 396.939C225.718 396.939 225.132 397.343 224.807 398.15L224.816 405.406H221.994V398.677C221.994 398.065 221.874 397.623 221.633 397.349C221.392 397.076 220.982 396.939 220.402 396.939C219.602 396.939 219.022 397.271 218.664 397.935V405.406H215.842V394.839H218.488ZM239.289 405.406C239.159 405.152 239.064 404.836 239.006 404.458C238.322 405.22 237.434 405.601 236.34 405.601C235.305 405.601 234.445 405.302 233.762 404.703C233.085 404.104 232.746 403.348 232.746 402.437C232.746 401.317 233.16 400.458 233.986 399.859C234.82 399.26 236.021 398.957 237.59 398.951H238.889V398.345C238.889 397.857 238.762 397.466 238.508 397.173C238.26 396.88 237.867 396.734 237.326 396.734C236.851 396.734 236.477 396.848 236.203 397.076C235.936 397.304 235.803 397.616 235.803 398.013H232.98C232.98 397.401 233.169 396.835 233.547 396.314C233.924 395.793 234.458 395.386 235.148 395.093C235.839 394.794 236.613 394.644 237.473 394.644C238.775 394.644 239.807 394.973 240.568 395.63C241.337 396.281 241.721 397.199 241.721 398.384V402.964C241.727 403.967 241.867 404.725 242.141 405.24V405.406H239.289ZM236.955 403.443C237.372 403.443 237.756 403.352 238.107 403.169C238.459 402.981 238.719 402.73 238.889 402.417V400.601H237.834C236.421 400.601 235.669 401.089 235.578 402.066L235.568 402.232C235.568 402.583 235.692 402.873 235.939 403.101C236.187 403.329 236.525 403.443 236.955 403.443ZM246.486 394.839L246.574 396.06C247.329 395.116 248.342 394.644 249.611 394.644C250.731 394.644 251.564 394.973 252.111 395.63C252.658 396.288 252.938 397.271 252.951 398.58V405.406H250.129V398.648C250.129 398.049 249.999 397.616 249.738 397.349C249.478 397.076 249.045 396.939 248.439 396.939C247.645 396.939 247.049 397.278 246.652 397.955V405.406H243.83V394.839H246.486ZM259.045 401.412L260.998 394.839H264.025L259.777 407.046L259.543 407.603C258.911 408.983 257.87 409.673 256.418 409.673C256.008 409.673 255.591 409.611 255.168 409.488V407.349L255.598 407.359C256.132 407.359 256.529 407.278 256.789 407.115C257.056 406.952 257.264 406.682 257.414 406.304L257.746 405.435L254.045 394.839H257.082L259.045 401.412Z" fill="#36AAB9"/>
<path d="M45.1094 265.714L46.832 256.609H49.46L46.6211 269.406H43.9668L41.8838 260.845L39.8008 269.406H37.1465L34.3076 256.609H36.9355L38.667 265.697L40.7764 256.609H43.0088L45.1094 265.714ZM53.2041 260.933C53.8779 260.125 54.7246 259.72 55.7441 259.72C57.8066 259.72 58.8525 260.918 58.8818 263.315V269.406H56.3418V263.385C56.3418 262.84 56.2246 262.439 55.9902 262.181C55.7559 261.917 55.3662 261.786 54.8213 261.786C54.0771 261.786 53.5381 262.073 53.2041 262.647V269.406H50.6641V255.906H53.2041V260.933ZM65.1748 269.582C63.7803 269.582 62.6436 269.154 61.7646 268.298C60.8916 267.443 60.4551 266.303 60.4551 264.879V264.633C60.4551 263.678 60.6396 262.826 61.0088 262.076C61.3779 261.32 61.8994 260.74 62.5732 260.335C63.2529 259.925 64.0264 259.72 64.8936 259.72C66.1943 259.72 67.2168 260.13 67.9609 260.951C68.7109 261.771 69.0859 262.934 69.0859 264.44V265.477H63.0303C63.1123 266.098 63.3584 266.596 63.7686 266.971C64.1846 267.346 64.709 267.534 65.3418 267.534C66.3203 267.534 67.085 267.179 67.6357 266.47L68.8838 267.868C68.5029 268.407 67.9873 268.829 67.3369 269.133C66.6865 269.432 65.9658 269.582 65.1748 269.582ZM64.8848 261.777C64.3809 261.777 63.9707 261.947 63.6543 262.287C63.3438 262.626 63.1445 263.113 63.0566 263.746H66.5898V263.543C66.5781 262.981 66.4258 262.547 66.1328 262.243C65.8398 261.932 65.4238 261.777 64.8848 261.777ZM75.8799 262.278C75.5342 262.231 75.2295 262.208 74.9658 262.208C74.0049 262.208 73.375 262.533 73.0762 263.183V269.406H70.5361V259.896H72.9355L73.0059 261.03C73.5156 260.157 74.2217 259.72 75.124 259.72C75.4053 259.72 75.6689 259.758 75.915 259.834L75.8799 262.278ZM81.3115 269.582C79.917 269.582 78.7803 269.154 77.9014 268.298C77.0283 267.443 76.5918 266.303 76.5918 264.879V264.633C76.5918 263.678 76.7764 262.826 77.1455 262.076C77.5146 261.32 78.0361 260.74 78.71 260.335C79.3896 259.925 80.1631 259.72 81.0303 259.72C82.3311 259.72 83.3535 260.13 84.0977 260.951C84.8477 261.771 85.2227 262.934 85.2227 264.44V265.477H79.167C79.249 266.098 79.4951 266.596 79.9053 266.971C80.3213 267.346 80.8457 267.534 81.4785 267.534C82.457 267.534 83.2217 267.179 83.7725 266.47L85.0205 267.868C84.6396 268.407 84.124 268.829 83.4736 269.133C82.8232 269.432 82.1025 269.582 81.3115 269.582ZM81.0215 261.777C80.5176 261.777 80.1074 261.947 79.791 262.287C79.4805 262.626 79.2812 263.113 79.1934 263.746H82.7266V263.543C82.7148 262.981 82.5625 262.547 82.2695 262.243C81.9766 261.932 81.5605 261.777 81.0215 261.777ZM96.666 269.406C96.5488 269.177 96.4639 268.893 96.4111 268.553C95.7959 269.239 94.9961 269.582 94.0117 269.582C93.0801 269.582 92.3066 269.312 91.6914 268.773C91.082 268.234 90.7773 267.554 90.7773 266.734C90.7773 265.726 91.1494 264.953 91.8936 264.414C92.6436 263.875 93.7246 263.602 95.1367 263.596H96.3057V263.051C96.3057 262.612 96.1914 262.26 95.9629 261.997C95.7402 261.733 95.3857 261.601 94.8994 261.601C94.4717 261.601 94.1348 261.704 93.8887 261.909C93.6484 262.114 93.5283 262.395 93.5283 262.752H90.9883C90.9883 262.202 91.1582 261.692 91.498 261.223C91.8379 260.754 92.3184 260.388 92.9395 260.125C93.5605 259.855 94.2578 259.72 95.0312 259.72C96.2031 259.72 97.1318 260.016 97.8174 260.608C98.5088 261.194 98.8545 262.02 98.8545 263.086V267.208C98.8604 268.111 98.9863 268.793 99.2324 269.256V269.406H96.666ZM94.5654 267.639C94.9404 267.639 95.2861 267.557 95.6025 267.393C95.9189 267.223 96.1533 266.998 96.3057 266.716V265.082H95.3564C94.085 265.082 93.4082 265.521 93.3262 266.4L93.3174 266.549C93.3174 266.866 93.4287 267.126 93.6514 267.332C93.874 267.537 94.1787 267.639 94.5654 267.639ZM106.149 262.278C105.804 262.231 105.499 262.208 105.235 262.208C104.274 262.208 103.645 262.533 103.346 263.183V269.406H100.806V259.896H103.205L103.275 261.03C103.785 260.157 104.491 259.72 105.394 259.72C105.675 259.72 105.938 259.758 106.185 259.834L106.149 262.278ZM111.581 269.582C110.187 269.582 109.05 269.154 108.171 268.298C107.298 267.443 106.861 266.303 106.861 264.879V264.633C106.861 263.678 107.046 262.826 107.415 262.076C107.784 261.32 108.306 260.74 108.979 260.335C109.659 259.925 110.433 259.72 111.3 259.72C112.601 259.72 113.623 260.13 114.367 260.951C115.117 261.771 115.492 262.934 115.492 264.44V265.477H109.437C109.519 266.098 109.765 266.596 110.175 266.971C110.591 267.346 111.115 267.534 111.748 267.534C112.727 267.534 113.491 267.179 114.042 266.47L115.29 267.868C114.909 268.407 114.394 268.829 113.743 269.133C113.093 269.432 112.372 269.582 111.581 269.582ZM111.291 261.777C110.787 261.777 110.377 261.947 110.061 262.287C109.75 262.626 109.551 263.113 109.463 263.746H112.996V263.543C112.984 262.981 112.832 262.547 112.539 262.243C112.246 261.932 111.83 261.777 111.291 261.777ZM124.976 265.811L126.733 259.896H129.458L125.635 270.882L125.424 271.383C124.855 272.625 123.918 273.247 122.611 273.247C122.242 273.247 121.867 273.191 121.486 273.08V271.155L121.873 271.164C122.354 271.164 122.711 271.09 122.945 270.944C123.186 270.797 123.373 270.554 123.508 270.214L123.807 269.432L120.476 259.896H123.209L124.976 265.811ZM129.924 264.563C129.924 263.62 130.105 262.779 130.469 262.041C130.832 261.302 131.354 260.731 132.033 260.327C132.719 259.922 133.513 259.72 134.415 259.72C135.698 259.72 136.744 260.113 137.553 260.898C138.367 261.683 138.821 262.75 138.915 264.097L138.933 264.748C138.933 266.207 138.525 267.378 137.711 268.263C136.896 269.142 135.804 269.582 134.433 269.582C133.062 269.582 131.966 269.142 131.146 268.263C130.331 267.384 129.924 266.189 129.924 264.677V264.563ZM132.464 264.748C132.464 265.65 132.634 266.341 132.974 266.822C133.313 267.296 133.8 267.534 134.433 267.534C135.048 267.534 135.528 267.299 135.874 266.831C136.22 266.356 136.393 265.6 136.393 264.563C136.393 263.678 136.22 262.993 135.874 262.506C135.528 262.02 135.042 261.777 134.415 261.777C133.794 261.777 133.313 262.02 132.974 262.506C132.634 262.987 132.464 263.734 132.464 264.748ZM146.192 268.439C145.565 269.201 144.698 269.582 143.591 269.582C142.571 269.582 141.792 269.289 141.253 268.703C140.72 268.117 140.447 267.258 140.436 266.127V259.896H142.976V266.04C142.976 267.03 143.427 267.525 144.329 267.525C145.19 267.525 145.782 267.226 146.104 266.628V259.896H148.653V269.406H146.263L146.192 268.439ZM157.741 259.896V269.924C157.741 270.973 157.463 271.788 156.906 272.368C156.35 272.954 155.547 273.247 154.498 273.247C154.059 273.247 153.64 273.197 153.241 273.097V271.084C153.546 271.137 153.812 271.164 154.041 271.164C154.809 271.164 155.192 270.756 155.192 269.942V259.896H157.741ZM154.99 257.435C154.99 257.054 155.116 256.741 155.368 256.495C155.626 256.249 155.975 256.125 156.414 256.125C156.854 256.125 157.199 256.249 157.451 256.495C157.709 256.741 157.838 257.054 157.838 257.435C157.838 257.822 157.706 258.138 157.442 258.384C157.185 258.63 156.842 258.753 156.414 258.753C155.986 258.753 155.641 258.63 155.377 258.384C155.119 258.138 154.99 257.822 154.99 257.435ZM159.332 264.563C159.332 263.62 159.514 262.779 159.877 262.041C160.24 261.302 160.762 260.731 161.441 260.327C162.127 259.922 162.921 259.72 163.823 259.72C165.106 259.72 166.152 260.113 166.961 260.898C167.775 261.683 168.229 262.75 168.323 264.097L168.341 264.748C168.341 266.207 167.934 267.378 167.119 268.263C166.305 269.142 165.212 269.582 163.841 269.582C162.47 269.582 161.374 269.142 160.554 268.263C159.739 267.384 159.332 266.189 159.332 264.677V264.563ZM161.872 264.748C161.872 265.65 162.042 266.341 162.382 266.822C162.722 267.296 163.208 267.534 163.841 267.534C164.456 267.534 164.937 267.299 165.282 266.831C165.628 266.356 165.801 265.6 165.801 264.563C165.801 263.678 165.628 262.993 165.282 262.506C164.937 262.02 164.45 261.777 163.823 261.777C163.202 261.777 162.722 262.02 162.382 262.506C162.042 262.987 161.872 263.734 161.872 264.748ZM172.586 269.406H170.037V259.896H172.586V269.406ZM169.888 257.435C169.888 257.054 170.014 256.741 170.266 256.495C170.523 256.249 170.872 256.125 171.312 256.125C171.745 256.125 172.091 256.249 172.349 256.495C172.606 256.741 172.735 257.054 172.735 257.435C172.735 257.822 172.604 258.138 172.34 258.384C172.082 258.63 171.739 258.753 171.312 258.753C170.884 258.753 170.538 258.63 170.274 258.384C170.017 258.138 169.888 257.822 169.888 257.435ZM177.024 259.896L177.104 260.995C177.783 260.145 178.694 259.72 179.837 259.72C180.845 259.72 181.595 260.016 182.087 260.608C182.579 261.2 182.831 262.084 182.843 263.262V269.406H180.303V263.324C180.303 262.785 180.186 262.395 179.951 262.155C179.717 261.909 179.327 261.786 178.782 261.786C178.067 261.786 177.531 262.09 177.174 262.7V269.406H174.634V259.896H177.024ZM187.457 269.406H184.908V259.896H187.457V269.406ZM184.759 257.435C184.759 257.054 184.885 256.741 185.137 256.495C185.395 256.249 185.743 256.125 186.183 256.125C186.616 256.125 186.962 256.249 187.22 256.495C187.478 256.741 187.606 257.054 187.606 257.435C187.606 257.822 187.475 258.138 187.211 258.384C186.953 258.63 186.61 258.753 186.183 258.753C185.755 258.753 185.409 258.63 185.146 258.384C184.888 258.138 184.759 257.822 184.759 257.435ZM191.896 259.896L191.975 260.995C192.654 260.145 193.565 259.72 194.708 259.72C195.716 259.72 196.466 260.016 196.958 260.608C197.45 261.2 197.702 262.084 197.714 263.262V269.406H195.174V263.324C195.174 262.785 195.057 262.395 194.822 262.155C194.588 261.909 194.198 261.786 193.653 261.786C192.938 261.786 192.402 262.09 192.045 262.7V269.406H189.505V259.896H191.896ZM199.278 264.581C199.278 263.122 199.624 261.947 200.315 261.056C201.013 260.166 201.95 259.72 203.128 259.72C204.171 259.72 204.982 260.078 205.562 260.792L205.668 259.896H207.971V269.089C207.971 269.921 207.78 270.645 207.399 271.26C207.024 271.875 206.494 272.344 205.809 272.667C205.123 272.989 204.32 273.15 203.4 273.15C202.703 273.15 202.023 273.009 201.361 272.728C200.699 272.453 200.198 272.095 199.858 271.656L200.983 270.109C201.616 270.818 202.384 271.172 203.286 271.172C203.96 271.172 204.484 270.991 204.859 270.627C205.234 270.27 205.422 269.76 205.422 269.098V268.588C204.836 269.25 204.065 269.582 203.11 269.582C201.968 269.582 201.042 269.136 200.333 268.246C199.63 267.349 199.278 266.163 199.278 264.686V264.581ZM201.818 264.765C201.818 265.626 201.991 266.303 202.337 266.795C202.683 267.282 203.157 267.525 203.761 267.525C204.534 267.525 205.088 267.235 205.422 266.655V262.656C205.082 262.076 204.534 261.786 203.778 261.786C203.169 261.786 202.688 262.035 202.337 262.533C201.991 263.031 201.818 263.775 201.818 264.765ZM220.108 268.439C219.481 269.201 218.614 269.582 217.507 269.582C216.487 269.582 215.708 269.289 215.169 268.703C214.636 268.117 214.363 267.258 214.352 266.127V259.896H216.892V266.04C216.892 267.03 217.343 267.525 218.245 267.525C219.106 267.525 219.698 267.226 220.021 266.628V259.896H222.569V269.406H220.179L220.108 268.439ZM229.636 266.778C229.636 266.467 229.48 266.224 229.17 266.048C228.865 265.867 228.373 265.706 227.693 265.565C225.432 265.09 224.301 264.129 224.301 262.682C224.301 261.838 224.649 261.135 225.347 260.573C226.05 260.004 226.967 259.72 228.098 259.72C229.305 259.72 230.269 260.004 230.989 260.573C231.716 261.141 232.079 261.879 232.079 262.788H229.539C229.539 262.424 229.422 262.125 229.188 261.891C228.953 261.651 228.587 261.531 228.089 261.531C227.661 261.531 227.33 261.627 227.096 261.821C226.861 262.014 226.744 262.26 226.744 262.559C226.744 262.84 226.876 263.069 227.14 263.245C227.409 263.415 227.86 263.564 228.493 263.693C229.126 263.816 229.659 263.957 230.093 264.115C231.435 264.607 232.105 265.459 232.105 266.672C232.105 267.54 231.733 268.243 230.989 268.782C230.245 269.315 229.284 269.582 228.106 269.582C227.31 269.582 226.601 269.441 225.979 269.16C225.364 268.873 224.881 268.483 224.529 267.991C224.178 267.493 224.002 266.957 224.002 266.382H226.41C226.434 266.833 226.601 267.179 226.911 267.419C227.222 267.66 227.638 267.78 228.159 267.78C228.646 267.78 229.012 267.689 229.258 267.507C229.51 267.32 229.636 267.077 229.636 266.778ZM35.6699 293.406V285.759H34.2549V283.896H35.6699V283.087C35.6699 282.021 35.9746 281.195 36.584 280.609C37.1992 280.017 38.0576 279.721 39.1592 279.721C39.5107 279.721 39.9414 279.78 40.4512 279.897L40.4248 281.866C40.2139 281.813 39.9561 281.787 39.6514 281.787C38.6963 281.787 38.2188 282.235 38.2188 283.131V283.896H40.1084V285.759H38.2188V293.406H35.6699ZM46.7705 286.278C46.4248 286.231 46.1201 286.208 45.8564 286.208C44.8955 286.208 44.2656 286.533 43.9668 287.183V293.406H41.4268V283.896H43.8262L43.8965 285.03C44.4062 284.157 45.1123 283.72 46.0146 283.72C46.2959 283.72 46.5596 283.758 46.8057 283.834L46.7705 286.278ZM47.2891 288.563C47.2891 287.62 47.4707 286.779 47.834 286.041C48.1973 285.302 48.7188 284.731 49.3984 284.327C50.084 283.922 50.8779 283.72 51.7803 283.72C53.0635 283.72 54.1094 284.113 54.918 284.898C55.7324 285.683 56.1865 286.75 56.2803 288.097L56.2979 288.748C56.2979 290.207 55.8906 291.378 55.0762 292.263C54.2617 293.142 53.1689 293.582 51.7979 293.582C50.4268 293.582 49.3311 293.142 48.5107 292.263C47.6963 291.384 47.2891 290.189 47.2891 288.677V288.563ZM49.8291 288.748C49.8291 289.65 49.999 290.341 50.3389 290.822C50.6787 291.296 51.165 291.534 51.7979 291.534C52.4131 291.534 52.8936 291.299 53.2393 290.831C53.585 290.356 53.7578 289.6 53.7578 288.563C53.7578 287.678 53.585 286.993 53.2393 286.506C52.8936 286.02 52.4072 285.777 51.7803 285.777C51.1592 285.777 50.6787 286.02 50.3389 286.506C49.999 286.987 49.8291 287.734 49.8291 288.748ZM60.2441 283.896L60.3232 284.959C60.9971 284.133 61.9082 283.72 63.0566 283.72C64.2812 283.72 65.1221 284.204 65.5791 285.17C66.2471 284.204 67.1992 283.72 68.4355 283.72C69.4668 283.72 70.2344 284.022 70.7383 284.625C71.2422 285.223 71.4941 286.125 71.4941 287.333V293.406H68.9453V287.341C68.9453 286.802 68.8398 286.41 68.6289 286.164C68.418 285.912 68.0459 285.786 67.5127 285.786C66.751 285.786 66.2236 286.149 65.9307 286.875L65.9395 293.406H63.3994V287.35C63.3994 286.799 63.291 286.401 63.0742 286.155C62.8574 285.909 62.4883 285.786 61.9668 285.786C61.2461 285.786 60.7246 286.084 60.4023 286.682V293.406H57.8623V283.896H60.2441ZM75.5283 289.477C75.5283 288.657 75.6279 288.003 75.8271 287.517C76.0264 287.031 76.3896 286.553 76.917 286.084C77.4502 285.61 77.8047 285.226 77.9805 284.933C78.1562 284.634 78.2441 284.321 78.2441 283.993C78.2441 283.002 77.7871 282.507 76.873 282.507C76.4395 282.507 76.0908 282.642 75.8271 282.912C75.5693 283.175 75.4346 283.542 75.4229 284.01H72.874C72.8857 282.891 73.2461 282.015 73.9551 281.382C74.6699 280.75 75.6426 280.433 76.873 280.433C78.1152 280.433 79.0791 280.735 79.7646 281.338C80.4502 281.936 80.793 282.783 80.793 283.878C80.793 284.376 80.6816 284.848 80.459 285.293C80.2363 285.733 79.8467 286.222 79.29 286.761L78.5781 287.438C78.1328 287.866 77.8779 288.367 77.8135 288.941L77.7783 289.477H75.5283ZM75.2734 292.175C75.2734 291.783 75.4053 291.46 75.6689 291.208C75.9385 290.951 76.2812 290.822 76.6973 290.822C77.1133 290.822 77.4531 290.951 77.7168 291.208C77.9863 291.46 78.1211 291.783 78.1211 292.175C78.1211 292.562 77.9893 292.881 77.7256 293.133C77.4678 293.385 77.125 293.511 76.6973 293.511C76.2695 293.511 75.9238 293.385 75.6602 293.133C75.4023 292.881 75.2734 292.562 75.2734 292.175Z" fill="white" fill-opacity="0.64"/>
<rect x="254" y="251.406" width="20" height="32" rx="2" fill="#6F6F6F"/>
<path d="M268.315 268.115C268.315 269.884 267.949 271.238 267.217 272.175C266.484 273.113 265.412 273.582 264 273.582C262.605 273.582 261.539 273.122 260.801 272.202C260.062 271.282 259.685 269.963 259.667 268.247V265.891C259.667 264.104 260.036 262.748 260.774 261.822C261.519 260.896 262.588 260.433 263.982 260.433C265.377 260.433 266.443 260.893 267.182 261.813C267.92 262.727 268.298 264.042 268.315 265.759V268.115ZM265.775 265.531C265.775 264.47 265.629 263.7 265.336 263.219C265.049 262.733 264.598 262.49 263.982 262.49C263.385 262.49 262.942 262.721 262.655 263.184C262.374 263.641 262.225 264.359 262.207 265.337V268.449C262.207 269.492 262.348 270.268 262.629 270.778C262.916 271.282 263.373 271.534 264 271.534C264.621 271.534 265.069 271.291 265.345 270.804C265.62 270.318 265.764 269.574 265.775 268.572V265.531Z" fill="white"/>
<rect x="278" y="251.406" width="20" height="32" rx="2" fill="#6F6F6F"/>
<path d="M289.872 273.406H287.332V263.615L284.3 264.555V262.49L289.6 260.591H289.872V273.406Z" fill="white"/>
<rect x="302" y="251.406" width="20" height="32" rx="2" fill="#6F6F6F"/>
<path d="M315.217 268.589H316.667V270.637H315.217V273.406H312.677V270.637H307.43L307.315 269.038L312.65 260.609H315.217V268.589ZM309.847 268.589H312.677V264.072L312.51 264.362L309.847 268.589Z" fill="white"/>
<rect width="361" height="73" transform="translate(-0.5 553.406)" fill="#242526"/>
<path d="M14.5 590.406C14.5 581.569 21.6634 574.406 30.5 574.406C39.3366 574.406 46.5 581.569 46.5 590.406C46.5 599.242 39.3366 606.406 30.5 606.406C21.6634 606.406 14.5 599.242 14.5 590.406Z" fill="#1A73E8"/>
<path d="M26.3326 585.406C26.7906 585.406 27.1653 585.781 27.1653 586.239V594.572C27.1653 595.031 26.7906 595.406 26.3326 595.406C25.8747 595.406 25.5 595.031 25.5 594.572V586.239C25.5 585.781 25.8747 585.406 26.3326 585.406ZM29.3801 591.089L34.1844 594.481C34.734 594.872 35.5 594.472 35.5 593.797V587.014C35.5 586.339 34.7423 585.947 34.1844 586.331L29.3801 589.722C28.9055 590.056 28.9055 590.756 29.3801 591.089Z" fill="white"/>
<path d="M342.5 590.406C342.5 599.242 335.337 606.406 326.5 606.406C317.663 606.406 310.5 599.242 310.5 590.406C310.5 581.569 317.663 574.406 326.5 574.406C335.337 574.406 342.5 581.569 342.5 590.406Z" fill="#6F6F6F"/>
<path d="M330.667 595.406C330.209 595.406 329.835 595.031 329.835 594.572L329.835 586.239C329.835 585.781 330.209 585.406 330.667 585.406C331.125 585.406 331.5 585.781 331.5 586.239L331.5 594.572C331.5 595.031 331.125 595.406 330.667 595.406ZM327.62 589.722L322.816 586.331C322.266 585.939 321.5 586.339 321.5 587.014L321.5 593.797C321.5 594.472 322.258 594.864 322.816 594.481L327.62 591.089C328.095 590.756 328.095 590.056 327.62 589.722Z" fill="#8D8D8D"/>
<path d="M62.5 590.406C62.5 580.465 70.5589 572.406 80.5 572.406C90.4411 572.406 98.5 580.465 98.5 590.406C98.5 600.347 90.4411 608.406 80.5 608.406C70.5589 608.406 62.5 600.347 62.5 590.406Z" fill="#DA1E28"/>
<path d="M76.6114 584.573H84.3892C85.4587 584.573 86.3337 585.448 86.3337 586.517V594.295C86.3337 595.364 85.4587 596.239 84.3892 596.239H76.6114C75.542 596.239 74.667 595.364 74.667 594.295V586.517C74.667 585.448 75.542 584.573 76.6114 584.573Z" fill="white"/>
<circle cx="130.5" cy="590.406" r="16" fill="white" fill-opacity="0.04"/>
<path d="M130.5 593.739C131.234 593.739 131.834 593.139 131.834 592.406C131.834 591.673 131.234 591.073 130.5 591.073C129.767 591.073 129.167 591.673 129.167 592.406C129.167 593.139 129.767 593.739 130.5 593.739ZM134.5 587.739H133.834V586.406C133.834 584.566 132.34 583.073 130.5 583.073C128.66 583.073 127.167 584.566 127.167 586.406H128.434C128.434 585.266 129.36 584.339 130.5 584.339C131.64 584.339 132.567 585.266 132.567 586.406V587.739H126.5C125.767 587.739 125.167 588.339 125.167 589.073V595.739C125.167 596.473 125.767 597.073 126.5 597.073H134.5C135.234 597.073 135.834 596.473 135.834 595.739V589.073C135.834 588.339 135.234 587.739 134.5 587.739ZM134.5 595.739H126.5V589.073H134.5V595.739Z" fill="white" fill-opacity="0.56"/>
<circle cx="178.5" cy="590.406" r="16" fill="#1A73E8" fill-opacity="0.08"/>
<path d="M173.167 587.072C173.167 586.704 173.465 586.406 173.834 586.406H183.167C183.535 586.406 183.834 586.704 183.834 587.072C183.834 587.441 183.535 587.739 183.167 587.739H173.834C173.465 587.739 173.167 587.441 173.167 587.072Z" fill="#1A73E8"/>
<path d="M173.167 590.406C173.167 590.038 173.465 589.739 173.834 589.739H180.5C180.869 589.739 181.167 590.038 181.167 590.406C181.167 590.774 180.869 591.072 180.5 591.072H173.834C173.465 591.072 173.167 590.774 173.167 590.406Z" fill="#1A73E8"/>
<path d="M173.167 593.739C173.167 593.371 173.465 593.072 173.834 593.072H177.834C178.202 593.072 178.5 593.371 178.5 593.739C178.5 594.107 178.202 594.406 177.834 594.406H173.834C173.465 594.406 173.167 594.107 173.167 593.739Z" fill="#1A73E8"/>
<rect x="-4" y="81" width="371" height="99" fill="#18191A"/>
<path d="M84 151.667C84.5523 151.667 85 152.114 85 152.667V161.333C85 161.886 84.5523 162.333 84 162.333C83.4477 162.333 83 161.886 83 161.333V152.667C83 152.114 83.4477 151.667 84 151.667ZM88 154.333C88.5523 154.333 89 154.781 89 155.333V161.333C89 161.886 88.5523 162.333 88 162.333C87.4477 162.333 87 161.886 87 161.333V155.333C87 154.781 87.4477 154.333 88 154.333ZM80 155.667C80.5523 155.667 81 156.114 81 156.667V161.333C81 161.886 80.5523 162.333 80 162.333C79.4477 162.333 79 161.886 79 161.333V156.667C79 156.114 79.4477 155.667 80 155.667Z" fill="white"/>
<path d="M99.1279 158.302V162H97.3984V152.047H101.206C102.318 152.047 103.2 152.336 103.852 152.915C104.508 153.494 104.836 154.259 104.836 155.212C104.836 156.187 104.515 156.946 103.872 157.488C103.234 158.031 102.339 158.302 101.186 158.302H99.1279ZM99.1279 156.914H101.206C101.821 156.914 102.291 156.771 102.614 156.483C102.938 156.192 103.1 155.772 103.1 155.226C103.1 154.688 102.936 154.259 102.607 153.94C102.279 153.617 101.828 153.451 101.254 153.441H99.1279V156.914ZM105.786 158.233C105.786 157.509 105.93 156.857 106.217 156.278C106.504 155.695 106.907 155.248 107.427 154.938C107.946 154.624 108.543 154.467 109.218 154.467C110.216 154.467 111.025 154.788 111.645 155.431C112.269 156.073 112.606 156.925 112.656 157.987L112.663 158.377C112.663 159.106 112.522 159.758 112.239 160.332C111.961 160.906 111.56 161.351 111.036 161.665C110.517 161.979 109.915 162.137 109.231 162.137C108.188 162.137 107.352 161.79 106.723 161.098C106.098 160.4 105.786 159.473 105.786 158.315V158.233ZM107.447 158.377C107.447 159.138 107.604 159.735 107.919 160.168C108.233 160.596 108.671 160.811 109.231 160.811C109.792 160.811 110.227 160.592 110.537 160.154C110.852 159.717 111.009 159.076 111.009 158.233C111.009 157.486 110.847 156.894 110.523 156.456C110.204 156.019 109.769 155.8 109.218 155.8C108.675 155.8 108.245 156.016 107.926 156.449C107.607 156.878 107.447 157.52 107.447 158.377ZM115.835 162H114.174V151.5H115.835V162ZM119.417 162H117.756V151.5H119.417V162ZM125.378 159.99C125.378 159.694 125.255 159.468 125.009 159.313C124.767 159.159 124.364 159.022 123.799 158.903C123.234 158.785 122.762 158.634 122.384 158.452C121.554 158.051 121.14 157.47 121.14 156.709C121.14 156.071 121.409 155.538 121.946 155.109C122.484 154.681 123.168 154.467 123.997 154.467C124.881 154.467 125.594 154.686 126.137 155.123C126.684 155.561 126.957 156.128 126.957 156.825H125.296C125.296 156.506 125.177 156.242 124.94 156.032C124.703 155.818 124.389 155.711 123.997 155.711C123.632 155.711 123.334 155.795 123.102 155.964C122.874 156.132 122.76 156.358 122.76 156.641C122.76 156.896 122.867 157.094 123.081 157.235C123.295 157.377 123.728 157.52 124.38 157.666C125.032 157.807 125.542 157.978 125.911 158.179C126.285 158.375 126.561 158.612 126.738 158.89C126.921 159.168 127.012 159.505 127.012 159.901C127.012 160.567 126.736 161.107 126.185 161.521C125.633 161.932 124.911 162.137 124.018 162.137C123.411 162.137 122.871 162.027 122.397 161.809C121.924 161.59 121.554 161.289 121.29 160.906C121.026 160.523 120.894 160.111 120.894 159.669H122.507C122.53 160.061 122.678 160.364 122.951 160.578C123.225 160.788 123.587 160.893 124.038 160.893C124.476 160.893 124.808 160.811 125.036 160.646C125.264 160.478 125.378 160.259 125.378 159.99Z" fill="white"/>
<rect x="26" y="177" width="150" height="3" fill="white"/>
<path d="M232.333 163V161H230.333C229.597 161 229 160.403 229 159.667V154.333C229 153.593 229.6 153 230.333 153H238.333C239.069 153 239.666 153.597 239.666 154.333V159.667C239.666 160.403 239.069 161 238.333 161H236.266L233.8 163.473C233.666 163.6 233.5 163.667 233.333 163.667H233C232.631 163.667 232.333 163.368 232.333 163ZM233.666 161.72L235.72 159.667H238.333V154.333H230.333V159.667H233.666V161.72ZM227 158.333C226.631 158.333 226.333 158.035 226.333 157.667V151.667C226.333 150.93 226.93 150.333 227.666 150.333H236.333C236.701 150.333 237 150.632 237 151C237 151.368 236.701 151.667 236.333 151.667H228.333C227.965 151.667 227.666 151.965 227.666 152.333V157.667C227.666 158.035 227.368 158.333 227 158.333Z" fill="white"/>
<path d="M253.948 157.283C253.948 158.227 253.798 159.045 253.497 159.737C253.201 160.425 252.784 160.972 252.246 161.378L253.955 162.711L252.834 163.723L250.715 162.048C250.437 162.107 250.138 162.137 249.819 162.137C249.017 162.137 248.299 161.941 247.666 161.549C247.037 161.152 246.549 160.59 246.203 159.86C245.861 159.131 245.688 158.29 245.684 157.338V156.777C245.684 155.807 245.854 154.95 246.196 154.207C246.543 153.464 247.028 152.897 247.652 152.505C248.281 152.108 248.999 151.91 249.806 151.91C250.626 151.91 251.348 152.106 251.973 152.498C252.602 152.885 253.087 153.446 253.429 154.18C253.771 154.909 253.944 155.759 253.948 156.729V157.283ZM252.212 156.764C252.212 155.643 252.002 154.793 251.583 154.214C251.164 153.635 250.571 153.346 249.806 153.346C249.063 153.346 248.479 153.64 248.056 154.228C247.636 154.811 247.422 155.636 247.413 156.702V157.283C247.413 158.359 247.623 159.2 248.042 159.806C248.466 160.412 249.058 160.715 249.819 160.715C250.59 160.715 251.18 160.423 251.59 159.84C252.005 159.257 252.212 158.404 252.212 157.283V156.764ZM255.281 159.313C255.281 158.853 255.407 158.432 255.657 158.049C255.908 157.661 256.402 157.203 257.141 156.675C256.753 156.187 256.482 155.772 256.327 155.431C256.177 155.089 256.102 154.758 256.102 154.439C256.102 153.66 256.339 153.045 256.812 152.594C257.286 152.138 257.924 151.91 258.727 151.91C259.451 151.91 260.044 152.124 260.504 152.553C260.969 152.977 261.201 153.503 261.201 154.132C261.201 154.547 261.096 154.929 260.887 155.28C260.677 155.627 260.333 155.973 259.854 156.319L259.178 156.812L261.099 159.081C261.377 158.534 261.516 157.926 261.516 157.256H262.958C262.958 158.482 262.671 159.487 262.097 160.271L263.56 162H261.632L261.071 161.337C260.36 161.87 259.513 162.137 258.528 162.137C257.544 162.137 256.756 161.877 256.163 161.357C255.575 160.833 255.281 160.152 255.281 159.313ZM258.576 160.811C259.137 160.811 259.661 160.624 260.148 160.25L257.975 157.687L257.763 157.837C257.216 158.252 256.942 158.726 256.942 159.259C256.942 159.719 257.09 160.093 257.387 160.38C257.683 160.667 258.079 160.811 258.576 160.811ZM257.66 154.398C257.66 154.781 257.895 155.262 258.364 155.841L259.123 155.321L259.335 155.15C259.618 154.9 259.759 154.578 259.759 154.187C259.759 153.927 259.661 153.706 259.465 153.523C259.269 153.337 259.021 153.243 258.72 153.243C258.396 153.243 258.139 153.353 257.947 153.571C257.756 153.79 257.66 154.066 257.66 154.398ZM270.231 159.683H266.376L265.569 162H263.771L267.531 152.047H269.083L272.85 162H271.045L270.231 159.683ZM266.861 158.288H269.746L268.304 154.159L266.861 158.288Z" fill="white"/>
<path d="M116.555 119.352H112.148L111.227 122H109.172L113.469 110.625H115.242L119.547 122H117.484L116.555 119.352ZM112.703 117.758H116L114.352 113.039L112.703 117.758ZM122.68 122H120.781V110H122.68V122ZM126.773 122H124.875V110H126.773V122ZM142.047 122H140.078V116.945H134.992V122H133.016V110.625H134.992V115.359H140.078V110.625H142.047V122ZM149.258 122C149.174 121.839 149.102 121.576 149.039 121.211C148.435 121.841 147.695 122.156 146.82 122.156C145.971 122.156 145.279 121.914 144.742 121.43C144.206 120.945 143.938 120.346 143.938 119.633C143.938 118.732 144.271 118.042 144.938 117.562C145.609 117.078 146.568 116.836 147.812 116.836H148.977V116.281C148.977 115.844 148.854 115.495 148.609 115.234C148.365 114.969 147.992 114.836 147.492 114.836C147.06 114.836 146.706 114.945 146.43 115.164C146.154 115.378 146.016 115.651 146.016 115.984H144.117C144.117 115.521 144.271 115.089 144.578 114.688C144.885 114.281 145.302 113.964 145.828 113.734C146.359 113.505 146.951 113.391 147.602 113.391C148.591 113.391 149.38 113.641 149.969 114.141C150.557 114.635 150.859 115.333 150.875 116.234V120.047C150.875 120.807 150.982 121.414 151.195 121.867V122H149.258ZM147.172 120.633C147.547 120.633 147.898 120.542 148.227 120.359C148.56 120.177 148.81 119.932 148.977 119.625V118.031H147.953C147.25 118.031 146.721 118.154 146.367 118.398C146.013 118.643 145.836 118.99 145.836 119.438C145.836 119.802 145.956 120.094 146.195 120.312C146.44 120.526 146.766 120.633 147.172 120.633ZM154.625 113.547L154.68 114.523C155.305 113.768 156.125 113.391 157.141 113.391C158.901 113.391 159.797 114.398 159.828 116.414V122H157.93V116.523C157.93 115.987 157.812 115.591 157.578 115.336C157.349 115.076 156.971 114.945 156.445 114.945C155.68 114.945 155.109 115.292 154.734 115.984V122H152.836V113.547H154.625ZM161.414 117.711C161.414 116.409 161.716 115.365 162.32 114.578C162.924 113.786 163.734 113.391 164.75 113.391C165.646 113.391 166.37 113.703 166.922 114.328V110H168.82V122H167.102L167.008 121.125C166.44 121.812 165.682 122.156 164.734 122.156C163.745 122.156 162.943 121.758 162.328 120.961C161.719 120.164 161.414 119.081 161.414 117.711ZM163.312 117.875C163.312 118.734 163.477 119.406 163.805 119.891C164.138 120.37 164.609 120.609 165.219 120.609C165.995 120.609 166.562 120.263 166.922 119.57V115.961C166.573 115.284 166.01 114.945 165.234 114.945C164.62 114.945 164.146 115.19 163.812 115.68C163.479 116.164 163.312 116.896 163.312 117.875ZM175.539 119.703C175.539 119.365 175.398 119.107 175.117 118.93C174.841 118.753 174.38 118.596 173.734 118.461C173.089 118.326 172.549 118.154 172.117 117.945C171.169 117.487 170.695 116.823 170.695 115.953C170.695 115.224 171.003 114.615 171.617 114.125C172.232 113.635 173.013 113.391 173.961 113.391C174.971 113.391 175.786 113.641 176.406 114.141C177.031 114.641 177.344 115.289 177.344 116.086H175.445C175.445 115.721 175.31 115.419 175.039 115.18C174.768 114.935 174.409 114.812 173.961 114.812C173.544 114.812 173.203 114.909 172.938 115.102C172.677 115.294 172.547 115.552 172.547 115.875C172.547 116.167 172.669 116.393 172.914 116.555C173.159 116.716 173.654 116.88 174.398 117.047C175.143 117.208 175.727 117.404 176.148 117.633C176.576 117.857 176.891 118.128 177.094 118.445C177.302 118.763 177.406 119.148 177.406 119.602C177.406 120.362 177.091 120.979 176.461 121.453C175.831 121.922 175.005 122.156 173.984 122.156C173.292 122.156 172.674 122.031 172.133 121.781C171.591 121.531 171.169 121.188 170.867 120.75C170.565 120.312 170.414 119.841 170.414 119.336H172.258C172.284 119.784 172.453 120.13 172.766 120.375C173.078 120.615 173.492 120.734 174.008 120.734C174.508 120.734 174.888 120.641 175.148 120.453C175.409 120.26 175.539 120.01 175.539 119.703ZM190.344 117.211C190.344 118.846 190.036 120.081 189.422 120.914C188.812 121.742 187.883 122.156 186.633 122.156C185.404 122.156 184.477 121.753 183.852 120.945C183.232 120.133 182.914 118.932 182.898 117.344V115.375C182.898 113.74 183.203 112.513 183.812 111.695C184.427 110.878 185.362 110.469 186.617 110.469C187.862 110.469 188.789 110.867 189.398 111.664C190.013 112.461 190.328 113.654 190.344 115.242V117.211ZM188.445 115.086C188.445 114.018 188.299 113.237 188.008 112.742C187.716 112.242 187.253 111.992 186.617 111.992C185.997 111.992 185.542 112.229 185.25 112.703C184.958 113.172 184.805 113.906 184.789 114.906V117.484C184.789 118.547 184.938 119.339 185.234 119.859C185.531 120.38 185.997 120.641 186.633 120.641C187.242 120.641 187.693 120.401 187.984 119.922C188.276 119.438 188.43 118.682 188.445 117.656V115.086ZM197.406 117.242C196.771 117.914 196.029 118.25 195.18 118.25C194.18 118.25 193.383 117.901 192.789 117.203C192.195 116.5 191.898 115.578 191.898 114.438C191.898 113.688 192.049 113.008 192.352 112.398C192.654 111.789 193.083 111.315 193.641 110.977C194.198 110.638 194.844 110.469 195.578 110.469C196.724 110.469 197.633 110.896 198.305 111.75C198.977 112.604 199.312 113.747 199.312 115.18V115.711C199.312 117.763 198.849 119.328 197.922 120.406C196.995 121.484 195.612 122.031 193.773 122.047H193.547V120.477H193.82C194.94 120.461 195.799 120.193 196.398 119.672C196.997 119.146 197.333 118.336 197.406 117.242ZM195.578 116.766C195.958 116.766 196.315 116.656 196.648 116.438C196.982 116.219 197.24 115.917 197.422 115.531V114.789C197.422 113.951 197.25 113.276 196.906 112.766C196.562 112.255 196.117 112 195.57 112C195.023 112 194.586 112.227 194.258 112.68C193.935 113.128 193.773 113.695 193.773 114.383C193.773 115.096 193.938 115.672 194.266 116.109C194.594 116.547 195.031 116.766 195.578 116.766ZM201.773 122.977H200.281L204.758 110.625H206.25L201.773 122.977ZM215.094 122H207.445V120.695L211.234 116.562C211.781 115.953 212.169 115.445 212.398 115.039C212.633 114.628 212.75 114.216 212.75 113.805C212.75 113.263 212.596 112.826 212.289 112.492C211.987 112.159 211.578 111.992 211.062 111.992C210.448 111.992 209.971 112.18 209.633 112.555C209.294 112.93 209.125 113.443 209.125 114.094H207.227C207.227 113.401 207.383 112.779 207.695 112.227C208.013 111.669 208.464 111.237 209.047 110.93C209.635 110.622 210.312 110.469 211.078 110.469C212.182 110.469 213.052 110.747 213.688 111.305C214.328 111.857 214.648 112.622 214.648 113.602C214.648 114.169 214.487 114.766 214.164 115.391C213.846 116.01 213.323 116.716 212.594 117.508L209.812 120.484H215.094V122ZM223.953 117.211C223.953 118.846 223.646 120.081 223.031 120.914C222.422 121.742 221.492 122.156 220.242 122.156C219.013 122.156 218.086 121.753 217.461 120.945C216.841 120.133 216.523 118.932 216.508 117.344V115.375C216.508 113.74 216.812 112.513 217.422 111.695C218.036 110.878 218.971 110.469 220.227 110.469C221.471 110.469 222.398 110.867 223.008 111.664C223.622 112.461 223.938 113.654 223.953 115.242V117.211ZM222.055 115.086C222.055 114.018 221.909 113.237 221.617 112.742C221.326 112.242 220.862 111.992 220.227 111.992C219.607 111.992 219.151 112.229 218.859 112.703C218.568 113.172 218.414 113.906 218.398 114.906V117.484C218.398 118.547 218.547 119.339 218.844 119.859C219.141 120.38 219.607 120.641 220.242 120.641C220.852 120.641 221.302 120.401 221.594 119.922C221.885 119.438 222.039 118.682 222.055 117.656V115.086ZM233.281 122H225.633V120.695L229.422 116.562C229.969 115.953 230.357 115.445 230.586 115.039C230.82 114.628 230.938 114.216 230.938 113.805C230.938 113.263 230.784 112.826 230.477 112.492C230.174 112.159 229.766 111.992 229.25 111.992C228.635 111.992 228.159 112.18 227.82 112.555C227.482 112.93 227.312 113.443 227.312 114.094H225.414C225.414 113.401 225.57 112.779 225.883 112.227C226.201 111.669 226.651 111.237 227.234 110.93C227.823 110.622 228.5 110.469 229.266 110.469C230.37 110.469 231.24 110.747 231.875 111.305C232.516 111.857 232.836 112.622 232.836 113.602C232.836 114.169 232.674 114.766 232.352 115.391C232.034 116.01 231.51 116.716 230.781 117.508L228 120.484H233.281V122ZM242.141 117.211C242.141 118.846 241.833 120.081 241.219 120.914C240.609 121.742 239.68 122.156 238.43 122.156C237.201 122.156 236.273 121.753 235.648 120.945C235.029 120.133 234.711 118.932 234.695 117.344V115.375C234.695 113.74 235 112.513 235.609 111.695C236.224 110.878 237.159 110.469 238.414 110.469C239.659 110.469 240.586 110.867 241.195 111.664C241.81 112.461 242.125 113.654 242.141 115.242V117.211ZM240.242 115.086C240.242 114.018 240.096 113.237 239.805 112.742C239.513 112.242 239.049 111.992 238.414 111.992C237.794 111.992 237.339 112.229 237.047 112.703C236.755 113.172 236.602 113.906 236.586 114.906V117.484C236.586 118.547 236.734 119.339 237.031 119.859C237.328 120.38 237.794 120.641 238.43 120.641C239.039 120.641 239.49 120.401 239.781 119.922C240.073 119.438 240.227 118.682 240.242 117.656V115.086Z" fill="white"/>
<path d="M11 123H27C27.55 123 28 122.55 28 122C28 121.45 27.55 121 27 121H11C10.45 121 10 121.45 10 122C10 122.55 10.45 123 11 123ZM11 118H27C27.55 118 28 117.55 28 117C28 116.45 27.55 116 27 116H11C10.45 116 10 116.45 10 117C10 117.55 10.45 118 11 118ZM10 112C10 112.55 10.45 113 11 113H27C27.55 113 28 112.55 28 112C28 111.45 27.55 111 27 111H11C10.45 111 10 111.45 10 112Z" fill="white"/>
<path d="M20.2412 213.025H24.7598V214.406H18.5117V204.453H20.2412V213.025ZM27.6924 214.406H26.0312V207.009H27.6924V214.406ZM25.9287 205.088C25.9287 204.833 26.0085 204.621 26.168 204.453C26.332 204.284 26.5645 204.2 26.8652 204.2C27.166 204.2 27.3984 204.284 27.5625 204.453C27.7266 204.621 27.8086 204.833 27.8086 205.088C27.8086 205.339 27.7266 205.549 27.5625 205.717C27.3984 205.881 27.166 205.963 26.8652 205.963C26.5645 205.963 26.332 205.881 26.168 205.717C26.0085 205.549 25.9287 205.339 25.9287 205.088ZM33.6533 212.396C33.6533 212.1 33.5303 211.874 33.2842 211.719C33.0426 211.564 32.6393 211.428 32.0742 211.309C31.5091 211.191 31.0374 211.04 30.6592 210.858C29.8298 210.457 29.415 209.876 29.415 209.115C29.415 208.477 29.6839 207.944 30.2217 207.515C30.7594 207.087 31.443 206.873 32.2725 206.873C33.1566 206.873 33.8698 207.091 34.4121 207.529C34.959 207.966 35.2324 208.534 35.2324 209.231H33.5713C33.5713 208.912 33.4528 208.648 33.2158 208.438C32.9788 208.224 32.6644 208.117 32.2725 208.117C31.9079 208.117 31.6094 208.201 31.377 208.37C31.1491 208.538 31.0352 208.764 31.0352 209.046C31.0352 209.302 31.1423 209.5 31.3564 209.641C31.5706 209.782 32.0036 209.926 32.6553 210.072C33.307 210.213 33.8174 210.384 34.1865 210.584C34.5602 210.78 34.8359 211.017 35.0137 211.295C35.196 211.573 35.2871 211.911 35.2871 212.307C35.2871 212.972 35.0114 213.513 34.46 213.927C33.9085 214.337 33.1862 214.542 32.293 214.542C31.6868 214.542 31.1468 214.433 30.6729 214.214C30.1989 213.996 29.8298 213.695 29.5654 213.312C29.3011 212.929 29.1689 212.517 29.1689 212.075H30.7822C30.805 212.467 30.9531 212.77 31.2266 212.984C31.5 213.194 31.8623 213.298 32.3135 213.298C32.751 213.298 33.0837 213.216 33.3115 213.052C33.5394 212.884 33.6533 212.665 33.6533 212.396ZM38.8213 205.211V207.009H40.127V208.24H38.8213V212.369C38.8213 212.651 38.876 212.856 38.9854 212.984C39.0993 213.107 39.2998 213.168 39.5869 213.168C39.7783 213.168 39.972 213.146 40.168 213.1V214.385C39.7897 214.49 39.4251 214.542 39.0742 214.542C37.7982 214.542 37.1602 213.838 37.1602 212.43V208.24H35.9434V207.009H37.1602V205.211H38.8213Z" fill="#1A73E8"/>
<path d="M9.5 233.406H49.5V235.406H9.5V233.406Z" fill="#1A73E8"/>
<path d="M60.2412 213.025H64.7598V214.406H58.5117V204.453H60.2412V213.025ZM67.6924 214.406H66.0312V207.009H67.6924V214.406ZM65.9287 205.088C65.9287 204.833 66.0085 204.621 66.168 204.453C66.332 204.284 66.5645 204.2 66.8652 204.2C67.166 204.2 67.3984 204.284 67.5625 204.453C67.7266 204.621 67.8086 204.833 67.8086 205.088C67.8086 205.339 67.7266 205.549 67.5625 205.717C67.3984 205.881 67.166 205.963 66.8652 205.963C66.5645 205.963 66.332 205.881 66.168 205.717C66.0085 205.549 65.9287 205.339 65.9287 205.088ZM72.1152 212.3L73.6807 207.009H75.3965L72.833 214.406H71.3906L68.8066 207.009H70.5293L72.1152 212.3ZM79.6006 214.542C78.5479 214.542 77.6934 214.212 77.0371 213.551C76.3854 212.886 76.0596 212.002 76.0596 210.899V210.694C76.0596 209.956 76.2008 209.297 76.4834 208.718C76.7705 208.135 77.1715 207.681 77.6865 207.358C78.2015 207.034 78.7757 206.873 79.4092 206.873C80.4163 206.873 81.1934 207.194 81.7402 207.836C82.2917 208.479 82.5674 209.388 82.5674 210.564V211.234H77.7344C77.7845 211.845 77.9873 212.328 78.3428 212.683C78.7028 213.039 79.154 213.216 79.6963 213.216C80.4574 213.216 81.0771 212.909 81.5557 212.293L82.4512 213.148C82.1549 213.59 81.7585 213.934 81.2617 214.18C80.7695 214.422 80.2158 214.542 79.6006 214.542ZM79.4023 208.206C78.9466 208.206 78.5775 208.365 78.2949 208.684C78.0169 209.003 77.8392 209.447 77.7617 210.017H80.9268V209.894C80.8903 209.338 80.7422 208.919 80.4824 208.636C80.2227 208.349 79.8626 208.206 79.4023 208.206Z" fill="white" fill-opacity="0.64"/>
</g>
</g>
<defs>
<linearGradient id="paint0_linear_11_22243" x1="180.166" y1="0" x2="180.166" y2="624" gradientUnits="userSpaceOnUse">
<stop stop-color="#262626"/>
<stop offset="1" stop-color="#0F0F0F"/>
</linearGradient>
<clipPath id="clip0_11_22243">
<path d="M0.166016 12C0.166016 5.37259 5.5386 0 12.166 0H360.166V624H0.166016V12Z" fill="white"/>
</clipPath>
<clipPath id="clip1_11_22243">
<rect width="9" height="9" fill="white" transform="translate(18.168 20.9058)"/>
</clipPath>
<clipPath id="clip2_11_22243">
<rect width="360" height="566" fill="white" transform="translate(0.5 84.4058)"/>
</clipPath>
</defs>
</svg>
