<svg width="336" height="41" viewBox="0 0 336 41" fill="none" xmlns="http://www.w3.org/2000/svg">
<rect x="0.254395" y="0.938477" width="335" height="40" rx="20" fill="#333333"/>
<circle cx="20.5035" cy="21.1875" r="14.5" fill="white"/>
<path d="M25.6866 20.0766L16.054 16.1222C15.9168 16.067 15.7665 16.0535 15.6217 16.0833C15.4769 16.1132 15.3441 16.185 15.2399 16.2898C15.1357 16.3947 15.0647 16.5279 15.0358 16.6729C15.0069 16.8178 15.0213 16.9681 15.0773 17.1049L19.0461 26.7247C19.0826 26.813 19.1437 26.889 19.2222 26.9435C19.3007 26.9981 19.3932 27.0289 19.4888 27.0323C19.4948 27.0328 19.5009 27.0328 19.5068 27.0328C19.5993 27.0328 19.6901 27.0071 19.7688 26.9584C19.8476 26.9098 19.9112 26.8401 19.9526 26.7573L21.6346 23.3934L24.6389 26.3913C24.7326 26.4842 24.8593 26.5362 24.9912 26.5358C25.1232 26.5355 25.2496 26.4828 25.3428 26.3894C25.436 26.296 25.4884 26.1695 25.4885 26.0375C25.4885 25.9056 25.4363 25.779 25.3432 25.6855L22.3361 22.6847L25.7212 20.9829C25.8066 20.94 25.8779 20.8734 25.9265 20.7911C25.9752 20.7088 25.9991 20.6142 25.9955 20.5187C25.9918 20.4231 25.9608 20.3306 25.906 20.2523C25.8512 20.1739 25.7751 20.1129 25.6866 20.0766ZM21.2766 22.1015C21.1807 22.1499 21.1028 22.2279 21.0547 22.3239L19.5503 25.333L16.2236 17.2695L24.2964 20.5833L21.2766 22.1015Z" fill="#333333"/>
<path d="M61.5864 20.8353L59.5926 18.8415C59.5464 18.7952 59.4914 18.7585 59.431 18.7335C59.3705 18.7084 59.3057 18.6955 59.2402 18.6955C59.1748 18.6955 59.11 18.7084 59.0495 18.7335C58.989 18.7585 58.9341 18.7952 58.8878 18.8415C58.8415 18.8878 58.8048 18.9427 58.7798 19.0032C58.7547 19.0637 58.7419 19.1285 58.7419 19.1939C58.7419 19.2594 58.7547 19.3242 58.7798 19.3847C58.8048 19.4451 58.8415 19.5001 58.8878 19.5463L60.0304 20.6889L55.7512 20.6874V16.4097L56.8941 17.5526C56.9876 17.6461 57.1143 17.6986 57.2465 17.6986C57.3787 17.6986 57.5054 17.6461 57.5989 17.5526C57.6924 17.4591 57.7449 17.3324 57.7449 17.2002C57.7449 17.068 57.6924 16.9413 57.5989 16.8478L55.6052 14.854C55.5589 14.8077 55.504 14.771 55.4435 14.746C55.383 14.7209 55.3182 14.708 55.2527 14.708C55.1873 14.708 55.1225 14.7209 55.062 14.746C55.0015 14.771 54.9466 14.8077 54.9003 14.854L52.9068 16.8473C52.8136 16.9408 52.7614 17.0675 52.7615 17.1995C52.7616 17.3316 52.8141 17.4581 52.9074 17.5515C53.0008 17.6449 53.1274 17.6974 53.2594 17.6975C53.3915 17.6976 53.5181 17.6453 53.6117 17.5521L54.7543 16.4096V20.6875L50.4752 20.6888L51.6177 19.5463C51.7111 19.4529 51.7636 19.3261 51.7636 19.1939C51.7636 19.0618 51.7111 18.935 51.6177 18.8415C51.5242 18.7481 51.3974 18.6955 51.2653 18.6955C51.1331 18.6955 51.0063 18.7481 50.9128 18.8415L48.9191 20.8353C48.8728 20.8815 48.8361 20.9365 48.811 20.9969C48.786 21.0574 48.7731 21.1222 48.7731 21.1877C48.7731 21.2531 48.786 21.3179 48.811 21.3784C48.8361 21.4389 48.8728 21.4938 48.9191 21.5401L50.9128 23.5338C50.9591 23.5801 51.0141 23.6168 51.0745 23.6419C51.135 23.6669 51.1998 23.6798 51.2653 23.6798C51.3307 23.6798 51.3955 23.6669 51.456 23.6419C51.5165 23.6168 51.5714 23.5801 51.6177 23.5338C51.6639 23.4876 51.7007 23.4326 51.7257 23.3722C51.7508 23.3117 51.7636 23.2469 51.7636 23.1814C51.7636 23.116 51.7508 23.0512 51.7257 22.9907C51.7007 22.9302 51.6639 22.8753 51.6177 22.829L50.4743 21.6857L54.7543 21.6844V25.9657L53.6114 24.8228C53.5179 24.7293 53.3911 24.6768 53.259 24.6768C53.1268 24.6768 53 24.7293 52.9066 24.8228C52.8131 24.9162 52.7606 25.043 52.7606 25.1752C52.7606 25.3073 52.8131 25.4341 52.9066 25.5276L54.9003 27.5213C54.9466 27.5676 55.0015 27.6043 55.062 27.6294C55.1225 27.6545 55.1873 27.6674 55.2527 27.6674C55.3182 27.6674 55.383 27.6545 55.4435 27.6294C55.5039 27.6043 55.5589 27.5676 55.6051 27.5213L57.5989 25.5276C57.6923 25.4341 57.7449 25.3073 57.7449 25.1752C57.7449 25.043 57.6923 24.9162 57.5989 24.8228C57.5054 24.7293 57.3786 24.6768 57.2465 24.6768C57.1143 24.6768 56.9875 24.7293 56.8941 24.8228L55.7511 25.9657V21.6843L60.0311 21.6858L58.8878 22.829C58.7943 22.9225 58.7418 23.0493 58.7418 23.1814C58.7418 23.3136 58.7943 23.4404 58.8878 23.5338C58.9813 23.6273 59.108 23.6798 59.2402 23.6798C59.3724 23.6798 59.4991 23.6273 59.5926 23.5338L61.5864 21.5401C61.6327 21.4938 61.6694 21.4389 61.6944 21.3784C61.7195 21.318 61.7324 21.2531 61.7324 21.1877C61.7324 21.1222 61.7195 21.0574 61.6945 20.997C61.6694 20.9365 61.6327 20.8815 61.5864 20.8353Z" fill="white"/>
<path fill-rule="evenodd" clip-rule="evenodd" d="M95.4599 17.7287L86.6668 26.521L84.9074 24.7616L93.7005 15.969C94.1856 15.485 94.9747 15.485 95.4599 15.969C95.6955 16.204 95.8245 16.5162 95.8245 16.849C95.8245 17.1814 95.6955 17.4934 95.4599 17.7287V17.7287ZM84.1221 27.3071L84.4165 25.9512L85.4774 27.0124L84.1221 27.3071ZM96.3001 15.1287C95.3508 14.1804 93.8095 14.1804 92.8602 15.1287L83.6473 24.3414C83.5674 24.4223 83.5115 24.5245 83.4872 24.6359L82.7652 27.9583C82.7224 28.1556 82.7827 28.3618 82.9257 28.5044C83.038 28.617 83.1901 28.6785 83.3458 28.6785C83.3874 28.6785 83.4304 28.6737 83.472 28.6651L86.7937 27.9426C86.9051 27.9182 87.0073 27.8624 87.0872 27.7818L96.3001 18.5688C96.7597 18.1092 97.0128 17.4987 97.0128 16.8489C97.0128 16.1989 96.7597 15.5877 96.3001 15.1287V15.1287Z" fill="white"/>
<path fill-rule="evenodd" clip-rule="evenodd" d="M124.659 27.9073C123.631 28.9356 121.964 28.9356 120.935 27.9073L118.634 25.6061C117.606 24.5778 117.606 22.9107 118.634 21.8828L125.328 15.1887C126.357 14.1604 128.024 14.1604 129.052 15.1887L131.353 17.4898C132.381 18.5181 132.381 20.1852 131.353 21.2135L124.659 27.9073ZM119.475 24.7659L121.776 27.067C122.34 27.6311 123.255 27.6311 123.819 27.067L124.756 26.1295L120.412 21.7855L119.475 22.7231C118.911 23.287 118.911 24.2018 119.475 24.7659ZM121.253 20.9452L126.169 16.0291C126.733 15.4649 127.648 15.4649 128.212 16.0291L130.513 18.3301C131.077 18.8943 131.077 19.809 130.513 20.3732L125.597 25.2891L121.253 20.9452Z" fill="white"/>
<path fill-rule="evenodd" clip-rule="evenodd" d="M152.844 23.9251H156.424C156.579 26.5717 158.775 28.6787 161.46 28.6787C164.245 28.6787 166.511 26.413 166.511 23.628C166.511 20.8435 164.245 18.5778 161.46 18.5778C161.092 18.5778 160.733 18.62 160.387 18.6948L158.114 14.7172C158.008 14.5324 157.811 14.4177 157.598 14.4177C157.385 14.4177 157.188 14.5324 157.082 14.7172L152.328 23.0361C152.276 23.1282 152.249 23.2304 152.25 23.3332C152.25 23.4354 152.277 23.5382 152.33 23.6291C152.436 23.8122 152.633 23.9251 152.844 23.9251ZM161.46 19.7662C163.59 19.7662 165.323 21.4983 165.323 23.628C165.323 25.7576 163.59 27.4903 161.46 27.4903C159.43 27.4903 157.765 25.9163 157.613 23.9251H162.352C162.563 23.9251 162.76 23.8122 162.865 23.6291C162.972 23.4461 162.973 23.2203 162.867 23.0361L161.015 19.7941C161.161 19.7769 161.309 19.7662 161.46 19.7662ZM161.327 22.7366H157.706C157.982 21.5773 158.779 20.6213 159.837 20.1287L161.327 22.7366ZM157.598 16.2099L159.246 19.0953C157.827 19.7917 156.78 21.1323 156.493 22.7366H153.868L157.598 16.2099Z" fill="white"/>
<line x1="185.22" y1="6.6875" x2="185.22" y2="35.6875" stroke="#666666" stroke-width="1.43728"/>
<path fill-rule="evenodd" clip-rule="evenodd" d="M217.476 20.0593C217.204 20.097 217.013 20.3487 217.051 20.6212C217.094 20.933 217.116 21.2453 217.116 21.55C217.116 25.3977 213.985 28.5281 210.137 28.5281C206.29 28.5281 203.159 25.3977 203.159 21.55C203.159 17.7022 206.29 14.5718 210.137 14.5718C211.102 14.5718 212.042 14.7675 212.93 15.1535C213.183 15.2647 213.475 15.1474 213.585 14.895C213.695 14.6426 213.579 14.3491 213.327 14.2394C212.313 13.7984 211.239 13.575 210.137 13.575C205.74 13.575 202.162 17.1526 202.162 21.55C202.162 25.9473 205.74 29.525 210.137 29.525C214.535 29.525 218.112 25.9473 218.112 21.55C218.112 21.1997 218.088 20.8415 218.038 20.4849C218 20.2123 217.748 20.0191 217.476 20.0593ZM206.336 23.9725C206.121 24.1453 206.088 24.4588 206.26 24.6734C207.212 25.8562 208.625 26.5343 210.138 26.5343C211.65 26.5343 213.063 25.8562 214.015 24.6734C214.187 24.4588 214.154 24.1453 213.939 23.9725C213.725 23.8002 213.411 23.8348 213.238 24.0484C212.477 24.9947 211.347 25.5374 210.138 25.5374C208.928 25.5374 207.798 24.9947 207.037 24.0484C206.864 23.8343 206.55 23.7992 206.336 23.9725ZM213.128 17.064C213.128 16.7888 213.351 16.5656 213.627 16.5656H215.122V15.0703C215.122 14.795 215.345 14.5718 215.62 14.5718C215.896 14.5718 216.119 14.795 216.119 15.0703V16.5656H217.614C217.89 16.5656 218.113 16.7888 218.113 17.064C218.113 17.3393 217.89 17.5625 217.614 17.5625H216.119V19.0578C216.119 19.333 215.896 19.5562 215.62 19.5562C215.345 19.5562 215.122 19.333 215.122 19.0578V17.5625H213.627C213.351 17.5625 213.128 17.3393 213.128 17.064ZM207.74 21.0415C207.775 21.0364 207.804 21.0264 207.835 21.0115C207.864 21.0016 207.894 20.9865 207.924 20.9665L207.949 20.9468L207.999 20.9069C208.089 20.8122 208.144 20.6876 208.144 20.553C208.144 20.488 208.129 20.4233 208.104 20.3634C208.079 20.3038 208.044 20.2488 207.999 20.1991L207.924 20.1393C207.894 20.1193 207.864 20.1042 207.835 20.0943C207.804 20.0794 207.775 20.0694 207.74 20.0646C207.58 20.0346 207.406 20.0845 207.291 20.1991C207.247 20.2488 207.212 20.3038 207.187 20.3634C207.162 20.4233 207.147 20.488 207.147 20.553C207.147 20.6876 207.201 20.8122 207.291 20.9069C207.386 20.9964 207.516 21.0515 207.645 21.0515C207.675 21.0515 207.71 21.0463 207.74 21.0415ZM212.53 21.0415C212.5 21.0364 212.47 21.0264 212.44 21.0115C212.41 21.0016 212.38 20.9865 212.35 20.9665C212.329 20.9497 212.308 20.9326 212.287 20.9156L212.276 20.9069C212.186 20.8122 212.131 20.6825 212.131 20.553C212.131 20.488 212.141 20.4233 212.171 20.3634C212.196 20.3038 212.231 20.2488 212.276 20.1991L212.35 20.1393C212.38 20.1193 212.41 20.1042 212.44 20.0943C212.47 20.0794 212.5 20.0694 212.53 20.0646C212.694 20.0346 212.864 20.0845 212.984 20.1991C213.028 20.2488 213.063 20.3038 213.088 20.3634C213.113 20.4233 213.128 20.488 213.128 20.553C213.128 20.6825 213.073 20.8122 212.984 20.9069C212.889 20.9964 212.759 21.0515 212.63 21.0515C212.602 21.0515 212.57 21.0471 212.538 21.0426L212.53 21.0415Z" fill="white"/>
<path fill-rule="evenodd" clip-rule="evenodd" d="M248.288 27.1417V25.6033C248.288 24.9471 248.822 24.4135 249.478 24.4135H251.016L248.288 27.1417ZM239.365 26.1983V16.6798C239.365 16.0236 239.898 15.49 240.554 15.49H250.073C250.729 15.49 251.263 16.0236 251.263 16.6798V23.2237H249.478C248.166 23.2237 247.098 24.2916 247.098 25.6034V27.3881H240.554C239.898 27.3881 239.365 26.8551 239.365 26.1983V26.1983ZM250.073 14.3H240.554C239.242 14.3 238.175 15.3679 238.175 16.6797V26.1982C238.175 27.51 239.242 28.5778 240.554 28.5778H247.919C248.31 28.5778 248.694 28.4184 248.971 28.1423L252.017 25.0958C252.298 24.8144 252.453 24.4408 252.453 24.044V16.6797C252.453 15.3679 251.385 14.3 250.073 14.3V14.3Z" fill="white"/>
<path fill-rule="evenodd" clip-rule="evenodd" d="M283.984 18.6499C284.317 18.6499 284.588 18.9206 284.588 19.2541C284.588 19.5876 284.317 19.8582 283.984 19.8582C283.651 19.8582 283.38 19.5876 283.38 19.2541C283.38 18.9206 283.651 18.6499 283.984 18.6499M283.986 21.0666C284.985 21.0666 285.798 20.2535 285.798 19.2542C285.798 18.255 284.985 17.4418 283.986 17.4418C282.986 17.4418 282.173 18.255 282.173 19.2542C282.173 20.2535 282.986 21.0666 283.986 21.0666M274.317 25.3309V23.9897L277.449 20.8578C277.975 20.3322 278.833 20.3316 279.359 20.8578L284.401 25.8994H274.886C274.572 25.8994 274.317 25.645 274.317 25.3309M274.886 16.2329H285.832C286.145 16.2329 286.4 16.4879 286.4 16.802V25.3307C286.4 25.5633 286.259 25.7615 286.06 25.8497L280.213 20.0034C279.216 19.006 277.592 19.006 276.595 20.0034L274.317 22.281V16.802C274.317 16.4879 274.572 16.2329 274.886 16.2329M285.833 15.0251H274.888C273.908 15.0251 273.111 15.8226 273.111 16.8025V25.3312C273.111 26.3111 273.908 27.108 274.888 27.108H285.833C286.813 27.108 287.61 26.3111 287.61 25.3312V16.8025C287.61 15.8226 286.813 15.0251 285.833 15.0251" fill="white"/>
<path d="M311.894 17.834C311.848 17.8804 311.811 17.9355 311.786 17.9962C311.76 18.0568 311.748 18.1218 311.748 18.1875C311.748 18.2532 311.76 18.3182 311.786 18.3788C311.811 18.4395 311.848 18.4946 311.894 18.541L313.894 20.542C313.94 20.5885 313.996 20.6253 314.056 20.6504C314.117 20.6756 314.182 20.6885 314.248 20.6885C314.313 20.6885 314.378 20.6756 314.439 20.6504C314.5 20.6253 314.555 20.5885 314.601 20.542L316.601 18.541C316.695 18.4473 316.748 18.3201 316.748 18.1875C316.748 18.0549 316.695 17.9277 316.601 17.834C316.507 17.7402 316.38 17.6876 316.248 17.6876C316.115 17.6876 315.988 17.7402 315.894 17.834L314.748 18.9808V15.1875C314.748 15.0549 314.695 14.9277 314.601 14.8339C314.507 14.7402 314.38 14.6875 314.248 14.6875C314.115 14.6875 313.988 14.7402 313.894 14.8339C313.8 14.9277 313.748 15.0549 313.748 15.1875V18.9808L312.601 17.834C312.555 17.7876 312.5 17.7507 312.439 17.7256C312.378 17.7005 312.313 17.6875 312.248 17.6875C312.182 17.6875 312.117 17.7005 312.056 17.7256C311.996 17.7507 311.94 17.7876 311.894 17.834Z" fill="#F7F7F7"/>
<path d="M317.748 14.6875H316.748C316.615 14.6875 316.488 14.7402 316.394 14.8339C316.3 14.9277 316.248 15.0549 316.248 15.1875C316.248 15.3201 316.3 15.4473 316.394 15.5411C316.488 15.6348 316.615 15.6875 316.748 15.6875H317.748C318.145 15.6879 318.527 15.8461 318.808 16.1273C319.089 16.4085 319.247 16.7898 319.248 17.1875V24.1875C319.247 24.5852 319.089 24.9665 318.808 25.2477C318.527 25.5289 318.145 25.6871 317.748 25.6875H310.748C310.35 25.6871 309.969 25.5289 309.687 25.2477C309.406 24.9665 309.248 24.5852 309.248 24.1875V17.1875C309.248 16.7898 309.406 16.4085 309.687 16.1273C309.969 15.8461 310.35 15.6879 310.748 15.6875H311.748C311.88 15.6875 312.007 15.6348 312.101 15.5411C312.195 15.4473 312.248 15.3201 312.248 15.1875C312.248 15.0549 312.195 14.9277 312.101 14.8339C312.007 14.7402 311.88 14.6875 311.748 14.6875H310.748C310.085 14.6883 309.449 14.9519 308.981 15.4206C308.512 15.8893 308.248 16.5247 308.248 17.1875V24.1875C308.248 24.8503 308.512 25.4857 308.981 25.9544C309.449 26.4231 310.085 26.6867 310.748 26.6875H317.748C318.41 26.6867 319.046 26.4231 319.514 25.9544C319.983 25.4857 320.247 24.8503 320.248 24.1875V17.1875C320.247 16.5247 319.983 15.8893 319.514 15.4206C319.046 14.9519 318.41 14.6883 317.748 14.6875Z" fill="#F7F7F7"/>
</svg>
