<svg width="100" height="74" viewBox="0 0 100 74" fill="none" xmlns="http://www.w3.org/2000/svg">
<g clip-path="url(#clip0_4142_8784)">
<path d="M31.2985 72.8387C12.9438 72.8387 6.69674 49.5943 5.29695 45.0724C1.78172 33.7174 0.713094 23.489 0.59997 22.4155C-0.0527782 16.2217 4.908 11.9116 10.3525 11.9116C14.475 11.9116 19.2595 14.3828 19.8932 20.3783C20.0033 21.3868 20.8413 30.0841 23.8062 39.5608C26.9003 49.4512 30.1827 53.2548 32.5465 53.2548C36.3637 53.2548 38.6928 43.4368 40.7518 34.0883C42.2687 27.201 43.9085 20.2607 47.1457 14.0958C52.7781 3.37071 61.2888 0.875 68.6412 0.875C84.7633 0.875 92.8322 19.5798 92.8322 24.426C92.8322 32.5247 86.2359 34.5905 83.3769 34.5905C77.1237 34.5905 75.004 30.3948 73.2198 26.7172C71.615 23.4088 69.9388 20.6578 67.7717 20.6578C67.0597 20.6578 66.3997 21.0191 65.7896 21.6403C60.4034 27.1223 58.5971 55.8011 47.8278 66.7623C41.8572 72.8387 35.3611 72.8387 31.2985 72.8387Z" fill="url(#paint0_linear_4142_8784)"/>
<path d="M31.2985 72.8387C12.9438 72.8387 6.69674 49.5943 5.29695 45.0724C1.78172 33.7174 0.713094 23.489 0.59997 22.4155C-0.0527782 16.2217 4.908 11.9116 10.3525 11.9116C14.475 11.9116 19.2595 14.3828 19.8932 20.3783C20.0033 21.3868 20.8413 30.0841 23.8062 39.5608C26.9003 49.4512 30.1827 53.2548 32.5465 53.2548C36.3637 53.2548 38.6928 43.4368 40.7518 34.0883C42.2687 27.201 43.9085 20.2607 47.1457 14.0958C52.7781 3.37071 61.2888 0.875 68.6412 0.875C84.7633 0.875 92.8322 19.5798 92.8322 24.426C92.8322 32.5247 86.2359 34.5905 83.3769 34.5905C77.1237 34.5905 75.004 30.3948 73.2198 26.7172C71.615 23.4088 69.9388 20.6578 67.7717 20.6578C67.0597 20.6578 66.3997 21.0191 65.7896 21.6403C60.4034 27.1223 58.5971 55.8011 47.8278 66.7623C41.8572 72.8387 35.3611 72.8387 31.2985 72.8387Z" fill="url(#paint1_radial_4142_8784)"/>
<path d="M31.2985 72.8387C12.9438 72.8387 6.69674 49.5943 5.29695 45.0724C1.78172 33.7174 0.713094 23.489 0.59997 22.4155C-0.0527782 16.2217 4.908 11.9116 10.3525 11.9116C14.475 11.9116 19.2595 14.3828 19.8932 20.3783C20.0033 21.3868 20.8413 30.0841 23.8062 39.5608C26.9003 49.4512 30.1827 53.2548 32.5465 53.2548C36.3637 53.2548 38.6928 43.4368 40.7518 34.0883C42.2687 27.201 43.9085 20.2607 47.1457 14.0958C52.7781 3.37071 61.2888 0.875 68.6412 0.875C84.7633 0.875 92.8322 19.5798 92.8322 24.426C92.8322 32.5247 86.2359 34.5905 83.3769 34.5905C77.1237 34.5905 75.004 30.3948 73.2198 26.7172C71.615 23.4088 69.9388 20.6578 67.7717 20.6578C67.0597 20.6578 66.3997 21.0191 65.7896 21.6403C60.4034 27.1223 58.5971 55.8011 47.8278 66.7623C41.8572 72.8387 35.3611 72.8387 31.2985 72.8387Z" fill="url(#paint2_radial_4142_8784)"/>
<path d="M31.2985 72.8387C12.9438 72.8387 6.69674 49.5943 5.29695 45.0724C1.78172 33.7174 0.713094 23.489 0.59997 22.4155C-0.0527782 16.2217 4.908 11.9116 10.3525 11.9116C14.475 11.9116 19.2595 14.3828 19.8932 20.3783C20.0033 21.3868 20.8413 30.0841 23.8062 39.5608C26.9003 49.4512 30.1827 53.2548 32.5465 53.2548C36.3637 53.2548 38.6928 43.4368 40.7518 34.0883C42.2687 27.201 43.9085 20.2607 47.1457 14.0958C52.7781 3.37071 61.2888 0.875 68.6412 0.875C84.7633 0.875 92.8322 19.5798 92.8322 24.426C92.8322 32.5247 86.2359 34.5905 83.3769 34.5905C77.1237 34.5905 75.004 30.3948 73.2198 26.7172C71.615 23.4088 69.9388 20.6578 67.7717 20.6578C67.0597 20.6578 66.3997 21.0191 65.7896 21.6403C60.4034 27.1223 58.5971 55.8011 47.8278 66.7623C41.8572 72.8387 35.3611 72.8387 31.2985 72.8387Z" fill="url(#paint3_radial_4142_8784)"/>
<path d="M31.2985 72.8387C12.9438 72.8387 6.69674 49.5943 5.29695 45.0724C1.78172 33.7174 0.713094 23.489 0.59997 22.4155C-0.0527782 16.2217 4.908 11.9116 10.3525 11.9116C14.475 11.9116 19.2595 14.3828 19.8932 20.3783C20.0033 21.3868 20.8413 30.0841 23.8062 39.5608C26.9003 49.4512 30.1827 53.2548 32.5465 53.2548C36.3637 53.2548 38.6928 43.4368 40.7518 34.0883C42.2687 27.201 43.9085 20.2607 47.1457 14.0958C52.7781 3.37071 61.2888 0.875 68.6412 0.875C84.7633 0.875 92.8322 19.5798 92.8322 24.426C92.8322 32.5247 86.2359 34.5905 83.3769 34.5905C77.1237 34.5905 75.004 30.3948 73.2198 26.7172C71.615 23.4088 69.9388 20.6578 67.7717 20.6578C67.0597 20.6578 66.3997 21.0191 65.7896 21.6403C60.4034 27.1223 58.5971 55.8011 47.8278 66.7623C41.8572 72.8387 35.3611 72.8387 31.2985 72.8387Z" fill="url(#paint4_radial_4142_8784)"/>
<path d="M31.2985 72.8387C12.9438 72.8387 6.69674 49.5943 5.29695 45.0724C1.78172 33.7174 0.713094 23.489 0.59997 22.4155C-0.0527782 16.2217 4.908 11.9116 10.3525 11.9116C14.475 11.9116 19.2595 14.3828 19.8932 20.3783C20.0033 21.3868 20.8413 30.0841 23.8062 39.5608C26.9003 49.4512 30.1827 53.2548 32.5465 53.2548C36.3637 53.2548 38.6928 43.4368 40.7518 34.0883C42.2687 27.201 43.9085 20.2607 47.1457 14.0958C52.7781 3.37071 61.2888 0.875 68.6412 0.875C84.7633 0.875 92.8322 19.5798 92.8322 24.426C92.8322 32.5247 86.2359 34.5905 83.3769 34.5905C77.1237 34.5905 75.004 30.3948 73.2198 26.7172C71.615 23.4088 69.9388 20.6578 67.7717 20.6578C67.0597 20.6578 66.3997 21.0191 65.7896 21.6403C60.4034 27.1223 58.5971 55.8011 47.8278 66.7623C41.8572 72.8387 35.3611 72.8387 31.2985 72.8387Z" fill="url(#paint5_radial_4142_8784)"/>
<path d="M31.2985 72.8387C12.9438 72.8387 6.69674 49.5943 5.29695 45.0724C1.78172 33.7174 0.713094 23.489 0.59997 22.4155C-0.0527782 16.2217 4.908 11.9116 10.3525 11.9116C14.475 11.9116 19.2595 14.3828 19.8932 20.3783C20.0033 21.3868 20.8413 30.0841 23.8062 39.5608C26.9003 49.4512 30.1827 53.2548 32.5465 53.2548C36.3637 53.2548 38.6928 43.4368 40.7518 34.0883C42.2687 27.201 43.9085 20.2607 47.1457 14.0958C52.7781 3.37071 61.2888 0.875 68.6412 0.875C84.7633 0.875 92.8322 19.5798 92.8322 24.426C92.8322 32.5247 86.2359 34.5905 83.3769 34.5905C77.1237 34.5905 75.004 30.3948 73.2198 26.7172C71.615 23.4088 69.9388 20.6578 67.7717 20.6578C67.0597 20.6578 66.3997 21.0191 65.7896 21.6403C60.4034 27.1223 58.5971 55.8011 47.8278 66.7623C41.8572 72.8387 35.3611 72.8387 31.2985 72.8387Z" fill="url(#paint6_radial_4142_8784)"/>
<path d="M31.2985 72.8387C12.9438 72.8387 6.69674 49.5943 5.29695 45.0724C1.78172 33.7174 0.713094 23.489 0.59997 22.4155C-0.0527782 16.2217 4.908 11.9116 10.3525 11.9116C14.475 11.9116 19.2595 14.3828 19.8932 20.3783C20.0033 21.3868 20.8413 30.0841 23.8062 39.5608C26.9003 49.4512 30.1827 53.2548 32.5465 53.2548C36.3637 53.2548 38.6928 43.4368 40.7518 34.0883C42.2687 27.201 43.9085 20.2607 47.1457 14.0958C52.7781 3.37071 61.2888 0.875 68.6412 0.875C84.7633 0.875 92.8322 19.5798 92.8322 24.426C92.8322 32.5247 86.2359 34.5905 83.3769 34.5905C77.1237 34.5905 75.004 30.3948 73.2198 26.7172C71.615 23.4088 69.9388 20.6578 67.7717 20.6578C67.0597 20.6578 66.3997 21.0191 65.7896 21.6403C60.4034 27.1223 58.5971 55.8011 47.8278 66.7623C41.8572 72.8387 35.3611 72.8387 31.2985 72.8387Z" fill="url(#paint7_linear_4142_8784)"/>
<path d="M31.2985 72.8387C12.9438 72.8387 6.69674 49.5943 5.29695 45.0724C1.78172 33.7174 0.713094 23.489 0.59997 22.4155C-0.0527782 16.2217 4.908 11.9116 10.3525 11.9116C14.475 11.9116 19.2595 14.3828 19.8932 20.3783C20.0033 21.3868 20.8413 30.0841 23.8062 39.5608C26.9003 49.4512 30.1827 53.2548 32.5465 53.2548C36.3637 53.2548 38.6928 43.4368 40.7518 34.0883C42.2687 27.201 43.9085 20.2607 47.1457 14.0958C52.7781 3.37071 61.2888 0.875 68.6412 0.875C84.7633 0.875 92.8322 19.5798 92.8322 24.426C92.8322 32.5247 86.2359 34.5905 83.3769 34.5905C77.1237 34.5905 75.004 30.3948 73.2198 26.7172C71.615 23.4088 69.9388 20.6578 67.7717 20.6578C67.0597 20.6578 66.3997 21.0191 65.7896 21.6403C60.4034 27.1223 58.5971 55.8011 47.8278 66.7623C41.8572 72.8387 35.3611 72.8387 31.2985 72.8387Z" fill="url(#paint8_radial_4142_8784)"/>
<path d="M68.6425 0.875C61.2901 0.875 52.7793 3.37072 47.147 14.0958C43.9097 20.2607 42.2699 27.201 40.7531 34.0883C40.2537 36.3548 39.7384 38.6485 39.1904 40.8237V71.9854C41.9726 71.1971 44.9614 69.6806 47.8291 66.7623C58.5984 55.8011 60.4046 27.1223 65.7908 21.6403C66.401 21.0191 67.061 20.6578 67.773 20.6578C69.9401 20.6578 71.6162 23.4088 73.2211 26.7172C75.0053 30.3948 77.125 34.5905 83.3782 34.5905C86.2372 34.5905 92.8335 32.5247 92.8335 24.426C92.8335 19.5798 84.7646 0.875 68.6425 0.875Z" fill="url(#paint9_radial_4142_8784)"/>
<path d="M31.2985 72.8387C12.9438 72.8387 6.69674 49.5943 5.29695 45.0724C1.78172 33.7174 0.713094 23.489 0.59997 22.4155C-0.0527782 16.2217 4.908 11.9116 10.3525 11.9116C14.475 11.9116 19.2595 14.3828 19.8932 20.3783C20.0033 21.3868 20.8413 30.0841 23.8062 39.5608C26.9003 49.4512 30.1827 53.2548 32.5465 53.2548C36.3637 53.2548 38.6928 43.4368 40.7518 34.0883C42.2687 27.201 43.9085 20.2607 47.1457 14.0958C52.7781 3.37071 61.2888 0.875 68.6412 0.875C84.7633 0.875 92.8322 19.5798 92.8322 24.426C92.8322 32.5247 86.2359 34.5905 83.3769 34.5905C77.1237 34.5905 75.004 30.3948 73.2198 26.7172C71.615 23.4088 69.9388 20.6578 67.7717 20.6578C67.0597 20.6578 66.3997 21.0191 65.7896 21.6403C60.4034 27.1223 58.5971 55.8011 47.8278 66.7623C41.8572 72.8387 35.3611 72.8387 31.2985 72.8387Z" fill="url(#paint10_radial_4142_8784)"/>
<path d="M31.2985 72.8387C12.9438 72.8387 6.69674 49.5943 5.29695 45.0724C1.78172 33.7174 0.713094 23.489 0.59997 22.4155C-0.0527782 16.2217 4.908 11.9116 10.3525 11.9116C14.475 11.9116 19.2595 14.3828 19.8932 20.3783C20.0033 21.3868 20.8413 30.0841 23.8062 39.5608C26.9003 49.4512 30.1827 53.2548 32.5465 53.2548C36.3637 53.2548 38.6928 43.4368 40.7518 34.0883C42.2687 27.201 43.9085 20.2607 47.1457 14.0958C52.7781 3.37071 61.2888 0.875 68.6412 0.875C84.7633 0.875 92.8322 19.5798 92.8322 24.426C92.8322 32.5247 86.2359 34.5905 83.3769 34.5905C77.1237 34.5905 75.004 30.3948 73.2198 26.7172C71.615 23.4088 69.9388 20.6578 67.7717 20.6578C67.0597 20.6578 66.3997 21.0191 65.7896 21.6403C60.4034 27.1223 58.5971 55.8011 47.8278 66.7623C41.8572 72.8387 35.3611 72.8387 31.2985 72.8387Z" fill="url(#paint11_radial_4142_8784)"/>
<path d="M31.2985 72.8387C12.9438 72.8387 6.69674 49.5943 5.29695 45.0724C1.78172 33.7174 0.713094 23.489 0.59997 22.4155C-0.0527782 16.2217 4.908 11.9116 10.3525 11.9116C14.475 11.9116 19.2595 14.3828 19.8932 20.3783C20.0033 21.3868 20.8413 30.0841 23.8062 39.5608C26.9003 49.4512 30.1827 53.2548 32.5465 53.2548C36.3637 53.2548 38.6928 43.4368 40.7518 34.0883C42.2687 27.201 43.9085 20.2607 47.1457 14.0958C52.7781 3.37071 61.2888 0.875 68.6412 0.875C84.7633 0.875 92.8322 19.5798 92.8322 24.426C92.8322 32.5247 86.2359 34.5905 83.3769 34.5905C77.1237 34.5905 75.004 30.3948 73.2198 26.7172C71.615 23.4088 69.9388 20.6578 67.7717 20.6578C67.0597 20.6578 66.3997 21.0191 65.7896 21.6403C60.4034 27.1223 58.5971 55.8011 47.8278 66.7623C41.8572 72.8387 35.3611 72.8387 31.2985 72.8387Z" fill="url(#paint12_radial_4142_8784)"/>
<path d="M31.2985 72.8387C12.9438 72.8387 6.69674 49.5943 5.29695 45.0724C1.78172 33.7174 0.713094 23.489 0.59997 22.4155C-0.0527782 16.2217 4.908 11.9116 10.3525 11.9116C14.475 11.9116 19.2595 14.3828 19.8932 20.3783C20.0033 21.3868 20.8413 30.0841 23.8062 39.5608C26.9003 49.4512 30.1827 53.2548 32.5465 53.2548C36.3637 53.2548 38.6928 43.4368 40.7518 34.0883C42.2687 27.201 43.9085 20.2607 47.1457 14.0958C52.7781 3.37071 61.2888 0.875 68.6412 0.875C84.7633 0.875 92.8322 19.5798 92.8322 24.426C92.8322 32.5247 86.2359 34.5905 83.3769 34.5905C77.1237 34.5905 75.004 30.3948 73.2198 26.7172C71.615 23.4088 69.9388 20.6578 67.7717 20.6578C67.0597 20.6578 66.3997 21.0191 65.7896 21.6403C60.4034 27.1223 58.5971 55.8011 47.8278 66.7623C41.8572 72.8387 35.3611 72.8387 31.2985 72.8387Z" fill="url(#paint13_radial_4142_8784)"/>
<path d="M31.2985 72.8387C12.9438 72.8387 6.69674 49.5943 5.29695 45.0724C1.78172 33.7174 0.713094 23.489 0.59997 22.4155C-0.0527782 16.2217 4.908 11.9116 10.3525 11.9116C14.475 11.9116 19.2595 14.3828 19.8932 20.3783C20.0033 21.3868 20.8413 30.0841 23.8062 39.5608C26.9003 49.4512 30.1827 53.2548 32.5465 53.2548C36.3637 53.2548 38.6928 43.4368 40.7518 34.0883C42.2687 27.201 43.9085 20.2607 47.1457 14.0958C52.7781 3.37071 61.2888 0.875 68.6412 0.875C84.7633 0.875 92.8322 19.5798 92.8322 24.426C92.8322 32.5247 86.2359 34.5905 83.3769 34.5905C77.1237 34.5905 75.004 30.3948 73.2198 26.7172C71.615 23.4088 69.9388 20.6578 67.7717 20.6578C67.0597 20.6578 66.3997 21.0191 65.7896 21.6403C60.4034 27.1223 58.5971 55.8011 47.8278 66.7623C41.8572 72.8387 35.3611 72.8387 31.2985 72.8387Z" fill="url(#paint14_radial_4142_8784)"/>
<path d="M89.8596 11.9116C89.133 11.9116 88.4019 11.9803 87.6849 12.1217C91.0929 17.0427 92.7981 22.198 92.7981 24.4255C92.7981 32.5242 86.2017 34.59 83.3428 34.59C81.1117 34.59 79.4071 34.0556 78.056 33.2015C78.0434 33.252 78.031 33.3024 78.0183 33.3531C77.6165 34.9604 77.2993 36.7196 76.7503 38.4315C75.6949 41.7231 74.2712 45.4831 72.7507 48.3925C71.112 51.529 69.4894 53.3642 67.5555 53.2679C65.3561 53.1585 63.573 50.3197 61.3567 42.2965C60.6418 39.7096 59.9801 36.8733 59.3667 34.0883C57.8454 27.1805 55.978 20.2342 52.7851 14.0958C47.5698 4.0704 38.6734 0.875 31.571 0.875C24.9842 0.875 20.0631 3.99785 16.1973 7.93236C15.1291 9.01971 13.9621 10.4846 12.79 12.2062C16.1618 13.0195 19.35 15.5611 19.8591 20.3778C19.9594 21.2961 20.6633 28.5903 23.0272 37.043C23.7055 34.9237 24.6945 31.7854 26.9922 26.7172C28.1183 24.3962 29.1344 22.8658 30.0513 21.9326C30.8922 21.0768 31.6495 20.7233 32.3312 20.7233C33.0665 20.7233 35.5772 21.3973 38.0214 29.9863C41.0527 40.6368 43.3086 57.587 51.9034 66.5867C55.6943 70.5566 60.9993 73.125 68.3515 73.125C74.8027 73.125 80.1813 70.2798 84.0161 66.3221C90.3213 59.814 93.7764 49.054 95.0088 45.0724C98.5156 33.7446 99.498 23.4995 99.6123 22.4155C100.265 16.2217 95.0542 11.9116 89.8596 11.9116Z" fill="#316AFF"/>
<path d="M89.8596 11.9116C89.133 11.9116 88.4019 11.9803 87.6849 12.1217C91.0929 17.0427 92.7981 22.198 92.7981 24.4255C92.7981 32.5242 86.2017 34.59 83.3428 34.59C81.1117 34.59 79.4071 34.0556 78.056 33.2015C78.0434 33.252 78.031 33.3024 78.0183 33.3531C77.6165 34.9604 77.2993 36.7196 76.7503 38.4315C75.6949 41.7231 74.2712 45.4831 72.7507 48.3925C71.112 51.529 69.4894 53.3642 67.5555 53.2679C65.3561 53.1585 63.573 50.3197 61.3567 42.2965C60.6418 39.7096 59.9801 36.8733 59.3667 34.0883C57.8454 27.1805 55.978 20.2342 52.7851 14.0958C47.5698 4.0704 38.6734 0.875 31.571 0.875C24.9842 0.875 20.0631 3.99785 16.1973 7.93236C15.1291 9.01971 13.9621 10.4846 12.79 12.2062C16.1618 13.0195 19.35 15.5611 19.8591 20.3778C19.9594 21.2961 20.6633 28.5903 23.0272 37.043C23.7055 34.9237 24.6945 31.7854 26.9922 26.7172C28.1183 24.3962 29.1344 22.8658 30.0513 21.9326C30.8922 21.0768 31.6495 20.7233 32.3312 20.7233C33.0665 20.7233 35.5772 21.3973 38.0214 29.9863C41.0527 40.6368 43.3086 57.587 51.9034 66.5867C55.6943 70.5566 60.9993 73.125 68.3515 73.125C74.8027 73.125 80.1813 70.2798 84.0161 66.3221C90.3213 59.814 93.7764 49.054 95.0088 45.0724C98.5156 33.7446 99.498 23.4995 99.6123 22.4155C100.265 16.2217 95.0542 11.9116 89.8596 11.9116Z" fill="url(#paint15_radial_4142_8784)"/>
<path d="M89.8596 11.9116C89.133 11.9116 88.4019 11.9803 87.6849 12.1217C91.0929 17.0427 92.7981 22.198 92.7981 24.4255C92.7981 32.5242 86.2017 34.59 83.3428 34.59C81.1117 34.59 79.4071 34.0556 78.056 33.2015C78.0434 33.252 78.031 33.3024 78.0183 33.3531C77.6165 34.9604 77.2993 36.7196 76.7503 38.4315C75.6949 41.7231 74.2712 45.4831 72.7507 48.3925C71.112 51.529 69.4894 53.3642 67.5555 53.2679C65.3561 53.1585 63.573 50.3197 61.3567 42.2965C60.6418 39.7096 59.9801 36.8733 59.3667 34.0883C57.8454 27.1805 55.978 20.2342 52.7851 14.0958C47.5698 4.0704 38.6734 0.875 31.571 0.875C24.9842 0.875 20.0631 3.99785 16.1973 7.93236C15.1291 9.01971 13.9621 10.4846 12.79 12.2062C16.1618 13.0195 19.35 15.5611 19.8591 20.3778C19.9594 21.2961 20.6633 28.5903 23.0272 37.043C23.7055 34.9237 24.6945 31.7854 26.9922 26.7172C28.1183 24.3962 29.1344 22.8658 30.0513 21.9326C30.8922 21.0768 31.6495 20.7233 32.3312 20.7233C33.0665 20.7233 35.5772 21.3973 38.0214 29.9863C41.0527 40.6368 43.3086 57.587 51.9034 66.5867C55.6943 70.5566 60.9993 73.125 68.3515 73.125C74.8027 73.125 80.1813 70.2798 84.0161 66.3221C90.3213 59.814 93.7764 49.054 95.0088 45.0724C98.5156 33.7446 99.498 23.4995 99.6123 22.4155C100.265 16.2217 95.0542 11.9116 89.8596 11.9116Z" fill="url(#paint16_radial_4142_8784)"/>
<path d="M89.8596 11.9116C89.133 11.9116 88.4019 11.9803 87.6849 12.1217C91.0929 17.0427 92.7981 22.198 92.7981 24.4255C92.7981 32.5242 86.2017 34.59 83.3428 34.59C81.1117 34.59 79.4071 34.0556 78.056 33.2015C78.0434 33.252 78.031 33.3024 78.0183 33.3531C77.6165 34.9604 77.2993 36.7196 76.7503 38.4315C75.6949 41.7231 74.2712 45.4831 72.7507 48.3925C71.112 51.529 69.4894 53.3642 67.5555 53.2679C65.3561 53.1585 63.573 50.3197 61.3567 42.2965C60.6418 39.7096 59.9801 36.8733 59.3667 34.0883C57.8454 27.1805 55.978 20.2342 52.7851 14.0958C47.5698 4.0704 38.6734 0.875 31.571 0.875C24.9842 0.875 20.0631 3.99785 16.1973 7.93236C15.1291 9.01971 13.9621 10.4846 12.79 12.2062C16.1618 13.0195 19.35 15.5611 19.8591 20.3778C19.9594 21.2961 20.6633 28.5903 23.0272 37.043C23.7055 34.9237 24.6945 31.7854 26.9922 26.7172C28.1183 24.3962 29.1344 22.8658 30.0513 21.9326C30.8922 21.0768 31.6495 20.7233 32.3312 20.7233C33.0665 20.7233 35.5772 21.3973 38.0214 29.9863C41.0527 40.6368 43.3086 57.587 51.9034 66.5867C55.6943 70.5566 60.9993 73.125 68.3515 73.125C74.8027 73.125 80.1813 70.2798 84.0161 66.3221C90.3213 59.814 93.7764 49.054 95.0088 45.0724C98.5156 33.7446 99.498 23.4995 99.6123 22.4155C100.265 16.2217 95.0542 11.9116 89.8596 11.9116Z" fill="url(#paint17_radial_4142_8784)"/>
<path d="M89.8596 11.9116C89.133 11.9116 88.4019 11.9803 87.6849 12.1217C91.0929 17.0427 92.7981 22.198 92.7981 24.4255C92.7981 32.5242 86.2017 34.59 83.3428 34.59C81.1117 34.59 79.4071 34.0556 78.056 33.2015C78.0434 33.252 78.031 33.3024 78.0183 33.3531C77.6165 34.9604 77.2993 36.7196 76.7503 38.4315C75.6949 41.7231 74.2712 45.4831 72.7507 48.3925C71.112 51.529 69.4894 53.3642 67.5555 53.2679C65.3561 53.1585 63.573 50.3197 61.3567 42.2965C60.6418 39.7096 59.9801 36.8733 59.3667 34.0883C57.8454 27.1805 55.978 20.2342 52.7851 14.0958C47.5698 4.0704 38.6734 0.875 31.571 0.875C24.9842 0.875 20.0631 3.99785 16.1973 7.93236C15.1291 9.01971 13.9621 10.4846 12.79 12.2062C16.1618 13.0195 19.35 15.5611 19.8591 20.3778C19.9594 21.2961 20.6633 28.5903 23.0272 37.043C23.7055 34.9237 24.6945 31.7854 26.9922 26.7172C28.1183 24.3962 29.1344 22.8658 30.0513 21.9326C30.8922 21.0768 31.6495 20.7233 32.3312 20.7233C33.0665 20.7233 35.5772 21.3973 38.0214 29.9863C41.0527 40.6368 43.3086 57.587 51.9034 66.5867C55.6943 70.5566 60.9993 73.125 68.3515 73.125C74.8027 73.125 80.1813 70.2798 84.0161 66.3221C90.3213 59.814 93.7764 49.054 95.0088 45.0724C98.5156 33.7446 99.498 23.4995 99.6123 22.4155C100.265 16.2217 95.0542 11.9116 89.8596 11.9116Z" fill="url(#paint18_radial_4142_8784)"/>
<path d="M89.8596 11.9116C89.133 11.9116 88.4019 11.9803 87.6849 12.1217C91.0929 17.0427 92.7981 22.198 92.7981 24.4255C92.7981 32.5242 86.2017 34.59 83.3428 34.59C81.1117 34.59 79.4071 34.0556 78.056 33.2015C78.0434 33.252 78.031 33.3024 78.0183 33.3531C77.6165 34.9604 77.2993 36.7196 76.7503 38.4315C75.6949 41.7231 74.2712 45.4831 72.7507 48.3925C71.112 51.529 69.4894 53.3642 67.5555 53.2679C65.3561 53.1585 63.573 50.3197 61.3567 42.2965C60.6418 39.7096 59.9801 36.8733 59.3667 34.0883C57.8454 27.1805 55.978 20.2342 52.7851 14.0958C47.5698 4.0704 38.6734 0.875 31.571 0.875C24.9842 0.875 20.0631 3.99785 16.1973 7.93236C15.1291 9.01971 13.9621 10.4846 12.79 12.2062C16.1618 13.0195 19.35 15.5611 19.8591 20.3778C19.9594 21.2961 20.6633 28.5903 23.0272 37.043C23.7055 34.9237 24.6945 31.7854 26.9922 26.7172C28.1183 24.3962 29.1344 22.8658 30.0513 21.9326C30.8922 21.0768 31.6495 20.7233 32.3312 20.7233C33.0665 20.7233 35.5772 21.3973 38.0214 29.9863C41.0527 40.6368 43.3086 57.587 51.9034 66.5867C55.6943 70.5566 60.9993 73.125 68.3515 73.125C74.8027 73.125 80.1813 70.2798 84.0161 66.3221C90.3213 59.814 93.7764 49.054 95.0088 45.0724C98.5156 33.7446 99.498 23.4995 99.6123 22.4155C100.265 16.2217 95.0542 11.9116 89.8596 11.9116Z" fill="url(#paint19_radial_4142_8784)"/>
<path d="M89.8596 11.9116C89.133 11.9116 88.4019 11.9803 87.6849 12.1217C91.0929 17.0427 92.7981 22.198 92.7981 24.4255C92.7981 32.5242 86.2017 34.59 83.3428 34.59C81.1117 34.59 79.4071 34.0556 78.056 33.2015C78.0434 33.252 78.031 33.3024 78.0183 33.3531C77.6165 34.9604 77.2993 36.7196 76.7503 38.4315C75.6949 41.7231 74.2712 45.4831 72.7507 48.3925C71.112 51.529 69.4894 53.3642 67.5555 53.2679C65.3561 53.1585 63.573 50.3197 61.3567 42.2965C60.6418 39.7096 59.9801 36.8733 59.3667 34.0883C57.8454 27.1805 55.978 20.2342 52.7851 14.0958C47.5698 4.0704 38.6734 0.875 31.571 0.875C24.9842 0.875 20.0631 3.99785 16.1973 7.93236C15.1291 9.01971 13.9621 10.4846 12.79 12.2062C16.1618 13.0195 19.35 15.5611 19.8591 20.3778C19.9594 21.2961 20.6633 28.5903 23.0272 37.043C23.7055 34.9237 24.6945 31.7854 26.9922 26.7172C28.1183 24.3962 29.1344 22.8658 30.0513 21.9326C30.8922 21.0768 31.6495 20.7233 32.3312 20.7233C33.0665 20.7233 35.5772 21.3973 38.0214 29.9863C41.0527 40.6368 43.3086 57.587 51.9034 66.5867C55.6943 70.5566 60.9993 73.125 68.3515 73.125C74.8027 73.125 80.1813 70.2798 84.0161 66.3221C90.3213 59.814 93.7764 49.054 95.0088 45.0724C98.5156 33.7446 99.498 23.4995 99.6123 22.4155C100.265 16.2217 95.0542 11.9116 89.8596 11.9116Z" fill="url(#paint20_radial_4142_8784)"/>
<path d="M89.8596 11.9116C89.133 11.9116 88.4019 11.9803 87.6849 12.1217C91.0929 17.0427 92.7981 22.198 92.7981 24.4255C92.7981 32.5242 86.2017 34.59 83.3428 34.59C81.1117 34.59 79.4071 34.0556 78.056 33.2015C78.0434 33.252 78.031 33.3024 78.0183 33.3531C77.6165 34.9604 77.2993 36.7196 76.7503 38.4315C75.6949 41.7231 74.2712 45.4831 72.7507 48.3925C71.112 51.529 69.4894 53.3642 67.5555 53.2679C65.3561 53.1585 63.573 50.3197 61.3567 42.2965C60.6418 39.7096 59.9801 36.8733 59.3667 34.0883C57.8454 27.1805 55.978 20.2342 52.7851 14.0958C47.5698 4.0704 38.6734 0.875 31.571 0.875C24.9842 0.875 20.0631 3.99785 16.1973 7.93236C15.1291 9.01971 13.9621 10.4846 12.79 12.2062C16.1618 13.0195 19.35 15.5611 19.8591 20.3778C19.9594 21.2961 20.6633 28.5903 23.0272 37.043C23.7055 34.9237 24.6945 31.7854 26.9922 26.7172C28.1183 24.3962 29.1344 22.8658 30.0513 21.9326C30.8922 21.0768 31.6495 20.7233 32.3312 20.7233C33.0665 20.7233 35.5772 21.3973 38.0214 29.9863C41.0527 40.6368 43.3086 57.587 51.9034 66.5867C55.6943 70.5566 60.9993 73.125 68.3515 73.125C74.8027 73.125 80.1813 70.2798 84.0161 66.3221C90.3213 59.814 93.7764 49.054 95.0088 45.0724C98.5156 33.7446 99.498 23.4995 99.6123 22.4155C100.265 16.2217 95.0542 11.9116 89.8596 11.9116Z" fill="url(#paint21_radial_4142_8784)"/>
<path d="M89.8596 11.9116C89.133 11.9116 88.4019 11.9803 87.6849 12.1217C91.0929 17.0427 92.7981 22.198 92.7981 24.4255C92.7981 32.5242 86.2017 34.59 83.3428 34.59C81.1117 34.59 79.4071 34.0556 78.056 33.2015C78.0434 33.252 78.031 33.3024 78.0183 33.3531C77.6165 34.9604 77.2993 36.7196 76.7503 38.4315C75.6949 41.7231 74.2712 45.4831 72.7507 48.3925C71.112 51.529 69.4894 53.3642 67.5555 53.2679C65.3561 53.1585 63.573 50.3197 61.3567 42.2965C60.6418 39.7096 59.9801 36.8733 59.3667 34.0883C57.8454 27.1805 55.978 20.2342 52.7851 14.0958C47.5698 4.0704 38.6734 0.875 31.571 0.875C24.9842 0.875 20.0631 3.99785 16.1973 7.93236C15.1291 9.01971 13.9621 10.4846 12.79 12.2062C16.1618 13.0195 19.35 15.5611 19.8591 20.3778C19.9594 21.2961 20.6633 28.5903 23.0272 37.043C23.7055 34.9237 24.6945 31.7854 26.9922 26.7172C28.1183 24.3962 29.1344 22.8658 30.0513 21.9326C30.8922 21.0768 31.6495 20.7233 32.3312 20.7233C33.0665 20.7233 35.5772 21.3973 38.0214 29.9863C41.0527 40.6368 43.3086 57.587 51.9034 66.5867C55.6943 70.5566 60.9993 73.125 68.3515 73.125C74.8027 73.125 80.1813 70.2798 84.0161 66.3221C90.3213 59.814 93.7764 49.054 95.0088 45.0724C98.5156 33.7446 99.498 23.4995 99.6123 22.4155C100.265 16.2217 95.0542 11.9116 89.8596 11.9116Z" fill="url(#paint22_radial_4142_8784)"/>
<path d="M89.8596 11.9116C89.133 11.9116 88.4019 11.9803 87.6849 12.1217C91.0929 17.0427 92.7981 22.198 92.7981 24.4255C92.7981 32.5242 86.2017 34.59 83.3428 34.59C81.1117 34.59 79.4071 34.0556 78.056 33.2015C78.0434 33.252 78.031 33.3024 78.0183 33.3531C77.6165 34.9604 77.2993 36.7196 76.7503 38.4315C75.6949 41.7231 74.2712 45.4831 72.7507 48.3925C71.112 51.529 69.4894 53.3642 67.5555 53.2679C65.3561 53.1585 63.573 50.3197 61.3567 42.2965C60.6418 39.7096 59.9801 36.8733 59.3667 34.0883C57.8454 27.1805 55.978 20.2342 52.7851 14.0958C47.5698 4.0704 38.6734 0.875 31.571 0.875C24.9842 0.875 20.0631 3.99785 16.1973 7.93236C15.1291 9.01971 13.9621 10.4846 12.79 12.2062C16.1618 13.0195 19.35 15.5611 19.8591 20.3778C19.9594 21.2961 20.6633 28.5903 23.0272 37.043C23.7055 34.9237 24.6945 31.7854 26.9922 26.7172C28.1183 24.3962 29.1344 22.8658 30.0513 21.9326C30.8922 21.0768 31.6495 20.7233 32.3312 20.7233C33.0665 20.7233 35.5772 21.3973 38.0214 29.9863C41.0527 40.6368 43.3086 57.587 51.9034 66.5867C55.6943 70.5566 60.9993 73.125 68.3515 73.125C74.8027 73.125 80.1813 70.2798 84.0161 66.3221C90.3213 59.814 93.7764 49.054 95.0088 45.0724C98.5156 33.7446 99.498 23.4995 99.6123 22.4155C100.265 16.2217 95.0542 11.9116 89.8596 11.9116Z" fill="url(#paint23_radial_4142_8784)"/>
<path d="M89.8596 11.9116C89.133 11.9116 88.4019 11.9803 87.6849 12.1217C91.0929 17.0427 92.7981 22.198 92.7981 24.4255C92.7981 32.5242 86.2017 34.59 83.3428 34.59C81.1117 34.59 79.4071 34.0556 78.056 33.2015C78.0434 33.252 78.031 33.3024 78.0183 33.3531C77.6165 34.9604 77.2993 36.7196 76.7503 38.4315C75.6949 41.7231 74.2712 45.4831 72.7507 48.3925C71.112 51.529 69.4894 53.3642 67.5555 53.2679C65.3561 53.1585 63.573 50.3197 61.3567 42.2965C60.6418 39.7096 59.9801 36.8733 59.3667 34.0883C57.8454 27.1805 55.978 20.2342 52.7851 14.0958C47.5698 4.0704 38.6734 0.875 31.571 0.875C24.9842 0.875 20.0631 3.99785 16.1973 7.93236C15.1291 9.01971 13.9621 10.4846 12.79 12.2062C16.1618 13.0195 19.35 15.5611 19.8591 20.3778C19.9594 21.2961 20.6633 28.5903 23.0272 37.043C23.7055 34.9237 24.6945 31.7854 26.9922 26.7172C28.1183 24.3962 29.1344 22.8658 30.0513 21.9326C30.8922 21.0768 31.6495 20.7233 32.3312 20.7233C33.0665 20.7233 35.5772 21.3973 38.0214 29.9863C41.0527 40.6368 43.3086 57.587 51.9034 66.5867C55.6943 70.5566 60.9993 73.125 68.3515 73.125C74.8027 73.125 80.1813 70.2798 84.0161 66.3221C90.3213 59.814 93.7764 49.054 95.0088 45.0724C98.5156 33.7446 99.498 23.4995 99.6123 22.4155C100.265 16.2217 95.0542 11.9116 89.8596 11.9116Z" fill="url(#paint24_radial_4142_8784)"/>
<path d="M31.2985 72.8387C12.9438 72.8387 6.69674 49.5943 5.29695 45.0724C1.78172 33.7174 0.713094 23.489 0.59997 22.4155C-0.0527782 16.2217 4.908 11.9116 10.3525 11.9116C14.475 11.9116 19.2595 14.3828 19.8932 20.3783C20.0034 21.3868 20.8413 30.0841 23.8062 39.5608C26.9003 49.4512 30.1827 53.2548 32.5465 53.2548C36.3637 53.2548 38.6928 43.4368 40.7518 34.0883C42.2687 27.201 43.9085 20.2607 47.1457 14.0958C52.7781 3.37071 61.2888 0.875 68.6412 0.875C84.7633 0.875 92.8322 19.5798 92.8322 24.426C92.8322 32.5247 86.2359 34.5905 83.3769 34.5905C77.1237 34.5905 75.004 30.3948 73.2198 26.7172C71.615 23.4088 69.9388 20.6578 67.7717 20.6578C67.0597 20.6578 66.3997 21.0191 65.7896 21.6403C60.4034 27.1223 58.5971 55.8011 47.8278 66.7623C41.8572 72.8387 35.3611 72.8387 31.2985 72.8387Z" fill="url(#paint25_linear_4142_8784)"/>
<path d="M31.2985 72.8387C12.9438 72.8387 6.69674 49.5943 5.29695 45.0724C1.78172 33.7174 0.713094 23.489 0.59997 22.4155C-0.0527782 16.2217 4.908 11.9116 10.3525 11.9116C14.475 11.9116 19.2595 14.3828 19.8932 20.3783C20.0034 21.3868 20.8413 30.0841 23.8062 39.5608C26.9003 49.4512 30.1827 53.2548 32.5465 53.2548C36.3637 53.2548 38.6928 43.4368 40.7518 34.0883C42.2687 27.201 43.9085 20.2607 47.1457 14.0958C52.7781 3.37071 61.2888 0.875 68.6412 0.875C84.7633 0.875 92.8322 19.5798 92.8322 24.426C92.8322 32.5247 86.2359 34.5905 83.3769 34.5905C77.1237 34.5905 75.004 30.3948 73.2198 26.7172C71.615 23.4088 69.9388 20.6578 67.7717 20.6578C67.0597 20.6578 66.3997 21.0191 65.7896 21.6403C60.4034 27.1223 58.5971 55.8011 47.8278 66.7623C41.8572 72.8387 35.3611 72.8387 31.2985 72.8387Z" fill="url(#paint26_radial_4142_8784)"/>
<path d="M31.2985 72.8387C12.9438 72.8387 6.69674 49.5943 5.29695 45.0724C1.78172 33.7174 0.713094 23.489 0.59997 22.4155C-0.0527782 16.2217 4.908 11.9116 10.3525 11.9116C14.475 11.9116 19.2595 14.3828 19.8932 20.3783C20.0034 21.3868 20.8413 30.0841 23.8062 39.5608C26.9003 49.4512 30.1827 53.2548 32.5465 53.2548C36.3637 53.2548 38.6928 43.4368 40.7518 34.0883C42.2687 27.201 43.9085 20.2607 47.1457 14.0958C52.7781 3.37071 61.2888 0.875 68.6412 0.875C84.7633 0.875 92.8322 19.5798 92.8322 24.426C92.8322 32.5247 86.2359 34.5905 83.3769 34.5905C77.1237 34.5905 75.004 30.3948 73.2198 26.7172C71.615 23.4088 69.9388 20.6578 67.7717 20.6578C67.0597 20.6578 66.3997 21.0191 65.7896 21.6403C60.4034 27.1223 58.5971 55.8011 47.8278 66.7623C41.8572 72.8387 35.3611 72.8387 31.2985 72.8387Z" fill="url(#paint27_linear_4142_8784)"/>
<path d="M31.2985 72.8387C12.9438 72.8387 6.69674 49.5943 5.29695 45.0724C1.78172 33.7174 0.713094 23.489 0.59997 22.4155C-0.0527782 16.2217 4.908 11.9116 10.3525 11.9116C14.475 11.9116 19.2595 14.3828 19.8932 20.3783C20.0034 21.3868 20.8413 30.0841 23.8062 39.5608C26.9003 49.4512 30.1827 53.2548 32.5465 53.2548C36.3637 53.2548 38.6928 43.4368 40.7518 34.0883C42.2687 27.201 43.9085 20.2607 47.1457 14.0958C52.7781 3.37071 61.2888 0.875 68.6412 0.875C84.7633 0.875 92.8322 19.5798 92.8322 24.426C92.8322 32.5247 86.2359 34.5905 83.3769 34.5905C77.1237 34.5905 75.004 30.3948 73.2198 26.7172C71.615 23.4088 69.9388 20.6578 67.7717 20.6578C67.0597 20.6578 66.3997 21.0191 65.7896 21.6403C60.4034 27.1223 58.5971 55.8011 47.8278 66.7623C41.8572 72.8387 35.3611 72.8387 31.2985 72.8387Z" fill="url(#paint28_linear_4142_8784)"/>
<path d="M31.2985 72.8387C12.9438 72.8387 6.69674 49.5943 5.29695 45.0724C1.78172 33.7174 0.713094 23.489 0.59997 22.4155C-0.0527782 16.2217 4.908 11.9116 10.3525 11.9116C14.475 11.9116 19.2595 14.3828 19.8932 20.3783C20.0034 21.3868 20.8413 30.0841 23.8062 39.5608C26.9003 49.4512 30.1827 53.2548 32.5465 53.2548C36.3637 53.2548 38.6928 43.4368 40.7518 34.0883C42.2687 27.201 43.9085 20.2607 47.1457 14.0958C52.7781 3.37071 61.2888 0.875 68.6412 0.875C84.7633 0.875 92.8322 19.5798 92.8322 24.426C92.8322 32.5247 86.2359 34.5905 83.3769 34.5905C77.1237 34.5905 75.004 30.3948 73.2198 26.7172C71.615 23.4088 69.9388 20.6578 67.7717 20.6578C67.0597 20.6578 66.3997 21.0191 65.7896 21.6403C60.4034 27.1223 58.5971 55.8011 47.8278 66.7623C41.8572 72.8387 35.3611 72.8387 31.2985 72.8387Z" fill="url(#paint29_radial_4142_8784)"/>
</g>
<defs>
<linearGradient id="paint0_linear_4142_8784" x1="82.7892" y1="21.9892" x2="17.9326" y2="43.2298" gradientUnits="userSpaceOnUse">
<stop stop-color="#5CEE64"/>
<stop offset="1" stop-color="#00BBFF"/>
</linearGradient>
<radialGradient id="paint1_radial_4142_8784" cx="0" cy="0" r="1" gradientUnits="userSpaceOnUse" gradientTransform="translate(38.2716 39.2518) rotate(-120.825) scale(42.5195 35.6715)">
<stop stop-color="#007383"/>
<stop offset="0.407867" stop-color="#00717E" stop-opacity="0.75"/>
<stop offset="0.874482" stop-color="#007281" stop-opacity="0"/>
</radialGradient>
<radialGradient id="paint2_radial_4142_8784" cx="0" cy="0" r="1" gradientUnits="userSpaceOnUse" gradientTransform="translate(66.18 31.3373) rotate(-126.696) scale(34.6718 22.7723)">
<stop stop-color="#218970"/>
<stop offset="0.459527" stop-color="#267E6A"/>
<stop offset="1" stop-color="#026C51" stop-opacity="0"/>
</radialGradient>
<radialGradient id="paint3_radial_4142_8784" cx="0" cy="0" r="1" gradientUnits="userSpaceOnUse" gradientTransform="translate(35.8255 41.2614) rotate(-107.446) scale(28.2487 14.7002)">
<stop stop-color="#178697"/>
<stop offset="0.407867" stop-color="#17838F" stop-opacity="0.79"/>
<stop offset="0.874482" stop-color="#007281" stop-opacity="0"/>
</radialGradient>
<radialGradient id="paint4_radial_4142_8784" cx="0" cy="0" r="1" gradientUnits="userSpaceOnUse" gradientTransform="translate(48.369 41.1108) rotate(-120.825) scale(71.7197 22.1087)">
<stop stop-color="#25342F" stop-opacity="0.3"/>
<stop offset="1" stop-color="#25342F" stop-opacity="0"/>
</radialGradient>
<radialGradient id="paint5_radial_4142_8784" cx="0" cy="0" r="1" gradientUnits="userSpaceOnUse" gradientTransform="translate(61.1494 32.124) rotate(85.1046) scale(27.0212 15.3054)">
<stop stop-color="#056D4F"/>
<stop offset="0.232593" stop-color="#056C4E" stop-opacity="0.75"/>
<stop offset="0.598902" stop-color="#056C4E" stop-opacity="0.300824"/>
<stop offset="0.874482" stop-color="#056C4F" stop-opacity="0"/>
</radialGradient>
<radialGradient id="paint6_radial_4142_8784" cx="0" cy="0" r="1" gradientUnits="userSpaceOnUse" gradientTransform="translate(62.343 -11.5768) rotate(57.1132) scale(31.7514 16.6442)">
<stop stop-color="#22B67B"/>
<stop offset="0.407867" stop-color="#24BE82"/>
<stop offset="1" stop-color="#24BE82" stop-opacity="0.07"/>
</radialGradient>
<linearGradient id="paint7_linear_4142_8784" x1="-23.847" y1="36.2291" x2="22.103" y2="36.6064" gradientUnits="userSpaceOnUse">
<stop stop-color="#09F8FF"/>
<stop offset="1" stop-color="#0BF7F9" stop-opacity="0"/>
</linearGradient>
<radialGradient id="paint8_radial_4142_8784" cx="0" cy="0" r="1" gradientUnits="userSpaceOnUse" gradientTransform="translate(-13.9755 -5.21529) rotate(49.6893) scale(41.462 41.3492)">
<stop stop-color="#09F8FF"/>
<stop offset="1" stop-color="#0BF7F9" stop-opacity="0"/>
</radialGradient>
<radialGradient id="paint9_radial_4142_8784" cx="0" cy="0" r="1" gradientUnits="userSpaceOnUse" gradientTransform="translate(19.2115 -26.1022) rotate(48.0508) scale(84.09 83.9453)">
<stop stop-color="#00B8FF"/>
<stop offset="0.745423" stop-color="#00B9FC" stop-opacity="0"/>
</radialGradient>
<radialGradient id="paint10_radial_4142_8784" cx="0" cy="0" r="1" gradientUnits="userSpaceOnUse" gradientTransform="translate(23.6592 37.0076) rotate(-107.446) scale(40.5522 28.0666)">
<stop stop-color="#00BCFF" stop-opacity="0.76"/>
<stop offset="0.57273" stop-color="#00BAFC" stop-opacity="0"/>
</radialGradient>
<radialGradient id="paint11_radial_4142_8784" cx="0" cy="0" r="1" gradientUnits="userSpaceOnUse" gradientTransform="translate(85.2328 21.6039) rotate(-129.512) scale(28.6637 20.0622)">
<stop stop-color="#5FEC50"/>
<stop offset="1" stop-color="#3CC08E" stop-opacity="0"/>
</radialGradient>
<radialGradient id="paint12_radial_4142_8784" cx="0" cy="0" r="1" gradientUnits="userSpaceOnUse" gradientTransform="translate(81.1333 40.0763) rotate(-79.109) scale(8.68226 5.99741)">
<stop stop-color="#28855B"/>
<stop offset="1" stop-color="#14795C" stop-opacity="0"/>
</radialGradient>
<radialGradient id="paint13_radial_4142_8784" cx="0" cy="0" r="1" gradientUnits="userSpaceOnUse" gradientTransform="translate(80.7153 39.4371) rotate(-77.8959) scale(7.15743 9.99028)">
<stop stop-color="#28855B"/>
<stop offset="1" stop-color="#14795C" stop-opacity="0"/>
</radialGradient>
<radialGradient id="paint14_radial_4142_8784" cx="0" cy="0" r="1" gradientUnits="userSpaceOnUse" gradientTransform="translate(89.2308 26.5419) rotate(-132.751) scale(23.7294 16.6684)">
<stop stop-color="#5FF05B"/>
<stop offset="0.813285" stop-color="#5DE955" stop-opacity="0"/>
</radialGradient>
<radialGradient id="paint15_radial_4142_8784" cx="0" cy="0" r="1" gradientUnits="userSpaceOnUse" gradientTransform="translate(81.815 33.3621) rotate(37.4938) scale(21.0984 29.3368)">
<stop stop-color="#123AA8"/>
<stop offset="0.966119" stop-color="#123AA8" stop-opacity="0"/>
</radialGradient>
<radialGradient id="paint16_radial_4142_8784" cx="0" cy="0" r="1" gradientUnits="userSpaceOnUse" gradientTransform="translate(76.5689 35.7423) rotate(8.49757) scale(24.8822 37.1891)">
<stop stop-color="#123AA8"/>
<stop offset="0.592487" stop-color="#123AA8" stop-opacity="0"/>
</radialGradient>
<radialGradient id="paint17_radial_4142_8784" cx="0" cy="0" r="1" gradientUnits="userSpaceOnUse" gradientTransform="translate(78.5879 38.8329) rotate(24.6929) scale(21.2592 37.9156)">
<stop stop-color="#123AA8"/>
<stop offset="0.756788" stop-color="#123AA8" stop-opacity="0"/>
</radialGradient>
<radialGradient id="paint18_radial_4142_8784" cx="0" cy="0" r="1" gradientUnits="userSpaceOnUse" gradientTransform="translate(76.092 40.094) rotate(95.7949) scale(38.26 20.9387)">
<stop stop-color="#123AA8"/>
<stop offset="0.592487" stop-color="#123AA8" stop-opacity="0"/>
<stop offset="1" stop-color="#123AA8" stop-opacity="0"/>
</radialGradient>
<radialGradient id="paint19_radial_4142_8784" cx="0" cy="0" r="1" gradientUnits="userSpaceOnUse" gradientTransform="translate(81.8151 23.2022) rotate(93.6621) scale(46.045 16.4101)">
<stop stop-color="#123AA8"/>
<stop offset="0.884611" stop-color="#123AA8" stop-opacity="0"/>
</radialGradient>
<radialGradient id="paint20_radial_4142_8784" cx="0" cy="0" r="1" gradientUnits="userSpaceOnUse" gradientTransform="translate(29.7044 32.776) rotate(84.8366) scale(24.4334 12.9271)">
<stop stop-color="#123AA8"/>
<stop offset="0.884611" stop-color="#123AA8" stop-opacity="0"/>
</radialGradient>
<radialGradient id="paint21_radial_4142_8784" cx="0" cy="0" r="1" gradientUnits="userSpaceOnUse" gradientTransform="translate(29.6869 33.4332) rotate(87.2542) scale(25.5003 21.0241)">
<stop stop-color="#123AA8"/>
<stop offset="0.884611" stop-color="#123AA8" stop-opacity="0"/>
</radialGradient>
<radialGradient id="paint22_radial_4142_8784" cx="0" cy="0" r="1" gradientUnits="userSpaceOnUse" gradientTransform="translate(35.4808 57.3944) rotate(-23.2009) scale(28.4046 55.5737)">
<stop stop-color="#123AA8"/>
<stop offset="0.708977" stop-color="#123AA8" stop-opacity="0"/>
</radialGradient>
<radialGradient id="paint23_radial_4142_8784" cx="0" cy="0" r="1" gradientUnits="userSpaceOnUse" gradientTransform="translate(25.3763 27.1986) rotate(-159.501) scale(18.8176 32.2543)">
<stop stop-color="#1A3DA0"/>
<stop offset="0.708977" stop-color="#123AA8" stop-opacity="0"/>
</radialGradient>
<radialGradient id="paint24_radial_4142_8784" cx="0" cy="0" r="1" gradientUnits="userSpaceOnUse" gradientTransform="translate(8.81481 33.6108) rotate(16.7707) scale(35.8886 36.2706)">
<stop stop-color="#1E3882"/>
<stop offset="0.761404" stop-color="#123AA8" stop-opacity="0"/>
</radialGradient>
<linearGradient id="paint25_linear_4142_8784" x1="-2.44222" y1="13.7354" x2="32.9466" y2="36.2915" gradientUnits="userSpaceOnUse">
<stop offset="0.229329" stop-color="#1DC4FF"/>
<stop offset="1" stop-color="#1CC1FF" stop-opacity="0"/>
</linearGradient>
<radialGradient id="paint26_radial_4142_8784" cx="0" cy="0" r="1" gradientUnits="userSpaceOnUse" gradientTransform="translate(-13.9777 -5.21696) rotate(49.6893) scale(41.462 41.3492)">
<stop stop-color="#09F8FF"/>
<stop offset="1" stop-color="#0BF7F9" stop-opacity="0"/>
</radialGradient>
<linearGradient id="paint27_linear_4142_8784" x1="-0.487651" y1="14.8899" x2="9.44334" y2="23.8805" gradientUnits="userSpaceOnUse">
<stop stop-color="#26FBFF"/>
<stop offset="0.637346" stop-color="#0BF7F9" stop-opacity="0"/>
</linearGradient>
<linearGradient id="paint28_linear_4142_8784" x1="-3.12284" y1="21.7817" x2="10.5966" y2="22.7592" gradientUnits="userSpaceOnUse">
<stop stop-color="#26FBFF"/>
<stop offset="0.637346" stop-color="#0BF7F9" stop-opacity="0"/>
</linearGradient>
<radialGradient id="paint29_radial_4142_8784" cx="0" cy="0" r="1" gradientUnits="userSpaceOnUse" gradientTransform="translate(23.6579 37.008) rotate(-107.446) scale(40.5522 28.0666)">
<stop stop-color="#00BCFF" stop-opacity="0.76"/>
<stop offset="0.57273" stop-color="#00BAFC" stop-opacity="0"/>
</radialGradient>
<clipPath id="clip0_4142_8784">
<rect width="99.125" height="72.25" fill="white" transform="translate(0.542969 0.875)"/>
</clipPath>
</defs>
</svg>
