<svg width="72" height="28" viewBox="0 0 72 28" fill="none" xmlns="http://www.w3.org/2000/svg">
<g clip-path="url(#clip0_491_88960)">
<path d="M17.4954 5.00732H20.2484L16.2456 16.767H13.0837L10.0854 7.88926L7.08702 16.767H3.98099L0 5.00732H2.81573L5.65598 13.9433L8.63662 5.00732H11.6282L14.6456 13.9923L17.4954 5.00732Z" fill="black"/>
<path d="M32.0514 11.8325H23.1245C23.2072 12.4386 23.4412 13.0159 23.8059 13.514C24.1305 13.949 24.5684 14.2919 25.0748 14.5077C25.5909 14.7241 26.148 14.8329 26.7102 14.8271C27.3333 14.8239 27.9511 14.7141 28.5351 14.5024C29.1405 14.2881 29.7058 13.9788 30.2088 13.5869L31.5212 15.4167C30.8524 15.9848 30.0734 16.4168 29.2302 16.6874C28.3618 16.9514 27.4564 17.0815 26.5467 17.073C25.4272 17.0934 24.3216 16.8289 23.3398 16.3058C22.4106 15.8011 21.6502 15.0473 21.1496 14.1341C20.6226 13.1977 20.3592 12.1152 20.3592 10.8864C20.3374 9.76734 20.6005 8.66037 21.1251 7.66397C21.608 6.75618 22.345 5.99963 23.2512 5.48165C24.2041 4.95078 25.2876 4.68148 26.3859 4.70253C27.4316 4.68393 28.4614 4.95409 29.3556 5.48165C30.2257 6.01022 30.9258 6.76535 31.3767 7.66132C31.8761 8.66259 32.1246 9.76461 32.1018 10.8772C32.1018 11.121 32.0849 11.4394 32.0514 11.8325ZM29.4006 9.88075C29.2569 8.96383 28.9181 8.25185 28.3838 7.7448C27.8496 7.23775 27.1681 6.98379 26.3395 6.98291C25.4391 6.98291 24.7171 7.24261 24.1739 7.76202C23.6305 8.28144 23.283 8.98811 23.1313 9.88207L29.4006 9.88075Z" fill="black"/>
<path d="M43.3398 5.49754C44.2589 6.02892 45.0125 6.79276 45.5204 7.70769C46.0637 8.68333 46.3397 9.77845 46.3218 10.8878C46.3395 11.9971 46.0635 13.0922 45.5204 14.0678C45.0129 14.9826 44.2591 15.7461 43.3398 16.2767C42.4135 16.8091 41.3546 17.0841 40.2788 17.0717C39.5262 17.0865 38.7801 16.9334 38.0981 16.6238C37.4716 16.3291 36.9229 15.899 36.494 15.3664V16.7656H33.8555V0H36.494V6.40916C36.9229 5.87607 37.4716 5.44548 38.0981 5.15039C38.7804 4.84152 39.5262 4.68834 40.2788 4.70253C41.3546 4.69069 42.4133 4.96565 43.3398 5.49754ZM41.8938 14.1526C42.4427 13.8243 42.885 13.3515 43.1694 12.7892C43.4687 12.1976 43.6204 11.5457 43.6124 10.8864C43.6207 10.2273 43.4694 9.57547 43.1708 8.9837C42.8865 8.42153 42.4442 7.94922 41.8951 7.62157C41.3135 7.27903 40.6437 7.10441 39.9639 7.11806C39.2957 7.10579 38.6374 7.27611 38.0641 7.60964C37.5139 7.9345 37.0679 8.40209 36.7761 8.95985C36.4628 9.55578 36.3047 10.2173 36.3155 10.8864C36.3044 11.556 36.4627 12.218 36.7761 12.8144C37.0683 13.3718 37.5143 13.8393 38.0641 14.1646C38.6376 14.4977 39.2958 14.6676 39.9639 14.6548C40.645 14.6697 41.3163 14.4954 41.8992 14.1526H41.8938Z" fill="black"/>
<path d="M59.4131 11.8325H50.4862C50.5689 12.4386 50.8029 13.0159 51.1677 13.514C51.4926 13.9486 51.9305 14.2915 52.4365 14.5078C52.9528 14.7238 53.5099 14.8325 54.072 14.8271C54.6952 14.8239 55.3129 14.714 55.8969 14.5025C56.5021 14.2884 57.067 13.979 57.5691 13.5869L58.8775 15.4194C58.2082 15.9874 57.4288 16.4195 56.5851 16.6901C55.7172 16.954 54.8123 17.0842 53.903 17.0757C52.7846 17.0948 51.6805 16.8294 50.7002 16.3058C49.7708 15.8009 49.0102 15.0471 48.5087 14.1341C47.9826 13.1978 47.7195 12.1152 47.7195 10.8865C47.6975 9.76747 47.9601 8.6605 48.4841 7.664C48.9673 6.75555 49.7054 5.99886 50.613 5.48168C51.5659 4.95054 52.6494 4.68124 53.7476 4.70256C54.7933 4.68402 55.8231 4.95418 56.7173 5.48168C57.5885 6.00864 58.2897 6.76298 58.7412 7.6587C59.2411 8.65985 59.49 9.76187 59.4676 10.8745C59.4649 11.1201 59.4468 11.4394 59.4131 11.8325ZM56.7609 9.88078C56.6174 8.96386 56.2789 8.25186 55.7456 7.74483C55.2123 7.23778 54.5299 6.98381 53.6985 6.98294C52.7981 6.98294 52.0763 7.24264 51.5329 7.76205C50.9895 8.28146 50.6425 8.98814 50.4917 9.8821L56.7609 9.88078Z" fill="black"/>
<path d="M72.0004 16.767H68.7554L65.6916 12.6792L62.6619 16.767H59.5586L64.1161 10.7646L59.6349 5.00732H62.88L65.8333 8.9347L68.7881 5.00732H71.9077L67.4374 10.7394L72.0004 16.767Z" fill="black"/>
<path d="M55.4693 21.7703H54.2427V26.5205H55.4693V21.7703Z" fill="black"/>
<path d="M65.4108 23.1311C65.0935 22.9631 64.7377 22.876 64.3764 22.878C63.5777 22.878 63.0244 23.4173 63.0244 24.1447C63.0244 24.851 63.5546 25.4128 64.3764 25.4128C64.7374 25.4141 65.093 25.3276 65.4108 25.161V26.4357C65.0469 26.5448 64.6686 26.6015 64.2878 26.604C62.9017 26.604 61.686 25.6765 61.686 24.1447C61.686 22.7269 62.7872 21.6868 64.2878 21.6868C64.6687 21.6877 65.0475 21.745 65.4108 21.8564V23.1311Z" fill="black"/>
<path d="M52.543 23.1311C52.2253 22.9629 51.8689 22.8759 51.5072 22.878C50.7086 22.878 50.1566 23.4173 50.1566 24.1447C50.1566 24.851 50.6854 25.4128 51.5072 25.4128C51.8687 25.4136 52.2245 25.3271 52.543 25.161V26.4357C52.1786 26.5448 51.7998 26.6015 51.4186 26.604C50.0326 26.604 48.8169 25.6765 48.8169 24.1447C48.8169 22.7269 49.9181 21.6868 51.4186 21.6868C51.8001 21.6877 52.1793 21.7448 52.543 21.8564V23.1311Z" fill="black"/>
<path d="M69.2894 22.8952C69.1207 22.8938 68.9535 22.9252 68.7976 22.9876C68.6415 23.05 68.4999 23.1422 68.3812 23.2587C68.2625 23.3751 68.1689 23.5135 68.106 23.6657C68.0431 23.8178 68.0123 23.9808 68.0151 24.1447C68.0119 24.3089 68.0425 24.472 68.1052 24.6244C68.1679 24.7768 68.2614 24.9155 68.3802 25.0321C68.4991 25.1487 68.6408 25.2411 68.797 25.3035C68.9532 25.3659 69.1206 25.3971 69.2894 25.3956C69.4583 25.397 69.6258 25.3656 69.7818 25.3031C69.938 25.2405 70.0798 25.1483 70.1986 25.0317C70.3176 24.9152 70.4112 24.7766 70.4742 24.6243C70.5371 24.4719 70.5681 24.3089 70.5651 24.1447C70.5678 23.9807 70.5367 23.8178 70.4738 23.6656C70.4108 23.5134 70.317 23.375 70.1982 23.2585C70.0792 23.1421 69.9376 23.05 69.7816 22.9876C69.6255 22.9252 69.4582 22.8938 69.2894 22.8952ZM71.8707 24.1447C71.8707 25.5042 70.7927 26.604 69.2894 26.604C67.7862 26.604 66.7095 25.5042 66.7095 24.1447C66.7095 22.7852 67.7875 21.6868 69.2894 21.6868C70.7913 21.6868 71.8707 22.7879 71.8707 24.1447Z" fill="black"/>
<path d="M60.1454 22.8502C59.8309 22.7662 59.5077 22.7178 59.1818 22.7057C58.6884 22.7057 58.4199 22.8661 58.4199 23.094C58.4199 23.3841 58.7825 23.4915 58.9842 23.5471L59.3249 23.6518C60.1249 23.8996 60.4888 24.4322 60.4888 25.0113C60.4888 26.2038 59.4108 26.6013 58.4663 26.6013C58.0198 26.5962 57.5745 26.5518 57.1361 26.4688V25.3757C57.5149 25.4823 57.906 25.5416 58.3 25.5519C58.9133 25.5519 59.1954 25.3783 59.1954 25.108C59.1954 24.8682 58.9515 24.7291 58.6503 24.635L58.3872 24.5528C57.7058 24.3421 57.1279 23.9499 57.1279 23.1629C57.1279 22.2751 57.8094 21.6788 58.9487 21.6788C59.3537 21.6843 59.7565 21.735 60.1494 21.8299L60.1454 22.8502Z" fill="black"/>
<path d="M40.205 26.5046H39.6694V21.765H40.3195V23.5551C40.4495 23.3699 40.6262 23.2201 40.8324 23.12C41.0387 23.0198 41.268 22.9725 41.4984 22.9827C41.7241 22.9722 41.949 23.015 42.154 23.1074C42.359 23.1996 42.538 23.3387 42.676 23.5127C42.924 23.829 43.048 24.2481 43.048 24.7702C43.048 25.3885 42.879 25.8624 42.541 26.1919C42.3979 26.3296 42.2274 26.4374 42.0399 26.5087C41.8524 26.58 41.6519 26.6134 41.4507 26.6066C41.2271 26.6178 41.0044 26.5729 40.8039 26.476C40.6034 26.3793 40.4318 26.2339 40.3059 26.0541L40.205 26.5046ZM42.3707 24.7529C42.3707 24.3227 42.2603 24.0003 42.0395 23.7857C41.9495 23.6971 41.8417 23.6278 41.7228 23.5823C41.6038 23.5365 41.4762 23.5156 41.3485 23.5206C41.1986 23.5147 41.0495 23.543 40.9131 23.6036C40.7768 23.6641 40.657 23.7552 40.5635 23.8691C40.3701 24.1237 40.2737 24.4356 40.2909 24.7516C40.2909 25.1902 40.4013 25.5267 40.6235 25.7586C40.7145 25.8587 40.8272 25.9376 40.9535 25.9901C41.0799 26.0426 41.2166 26.0672 41.354 26.0621C41.5039 26.0703 41.6534 26.0413 41.7886 25.9778C41.9238 25.9142 42.0402 25.8182 42.1267 25.699C42.2911 25.4764 42.3734 25.161 42.3734 24.7529H42.3707Z" fill="black"/>
<path d="M46.5311 23.0807L45.3045 26.5496C45.141 27.0108 44.9852 27.3248 44.8371 27.4917C44.7535 27.5875 44.649 27.6639 44.531 27.715C44.4131 27.7661 44.2847 27.7908 44.1556 27.7872C44.0139 27.7838 43.873 27.7642 43.7359 27.7289V27.2122C43.8467 27.2408 43.9606 27.2563 44.0752 27.2585C44.137 27.2614 44.1986 27.2502 44.255 27.2255C44.3113 27.2009 44.3609 27.1637 44.3996 27.1168C44.5239 26.925 44.6219 26.7183 44.6912 26.5019H44.4814L43.188 23.0781H43.8844L44.8807 25.9931L45.8756 23.0781L46.5311 23.0807Z" fill="black"/>
</g>
<defs>
<clipPath id="clip0_491_88960">
<rect width="72" height="28" fill="white"/>
</clipPath>
</defs>
</svg>
