<svg width="192" height="62" viewBox="0 0 192 62" fill="none" xmlns="http://www.w3.org/2000/svg">
<path d="M91.7137 15.1338H96.7791L89.4193 37.3465H83.6067L78.09 20.5775L72.5858 37.3465H66.8811L59.5163 15.1338H64.697L69.9228 32.0129L75.4069 15.1338H80.911L86.4653 32.1055L91.7137 15.1338Z" fill="white"/>
<path d="M118.508 28.0258H102.073C102.225 29.1707 102.656 30.2611 103.327 31.202C103.924 32.0236 104.73 32.6714 105.661 33.0791C106.611 33.4875 107.636 33.693 108.67 33.6823C109.816 33.676 110.952 33.4685 112.026 33.0691C113.14 32.6641 114.18 32.0799 115.105 31.3396L117.52 34.801C116.29 35.8745 114.856 36.6907 113.304 37.2013C111.707 37.6998 110.041 37.9456 108.367 37.9296C106.304 37.9676 104.268 37.4663 102.459 36.4754C100.756 35.5188 99.3643 34.0952 98.447 32.3733C97.4791 30.6046 96.9951 28.5598 96.9951 26.2388C96.9537 24.1254 97.4362 22.0344 98.3994 20.1519C99.2858 18.4382 100.639 17.0093 102.304 16.0297C104.057 15.027 106.051 14.5183 108.071 14.5581C109.996 14.5233 111.891 15.0335 113.538 16.0297C115.138 17.0262 116.425 18.451 117.254 20.1419C118.174 22.033 118.632 24.1146 118.59 26.2163C118.59 26.6802 118.563 27.2833 118.508 28.0258ZM113.618 24.3392C113.356 22.6072 112.732 21.2624 111.747 20.3046C110.763 19.3468 109.509 18.8671 107.986 18.8655C106.328 18.8655 104.999 19.356 104.001 20.3371C103.003 21.3182 102.365 22.6531 102.086 24.3417L113.618 24.3392Z" fill="white"/>
<path d="M139.275 16.0598C140.966 17.0635 142.353 18.5063 143.287 20.2345C144.287 22.0774 144.795 24.1459 144.762 26.2413C144.795 28.3367 144.287 30.4052 143.287 32.2481C142.354 33.9761 140.967 35.4182 139.275 36.4204C137.571 37.426 135.623 37.9456 133.643 37.9221C132.259 37.9501 130.886 37.6608 129.631 37.0761C128.479 36.519 127.47 35.7066 126.68 34.7009V37.3439H121.818V5.67548H126.672V17.7817C127.462 16.7753 128.471 15.9621 129.624 15.404C130.879 14.8206 132.251 14.5312 133.636 14.558C135.618 14.5343 137.569 15.0537 139.275 16.0598ZM136.617 32.4083C137.626 31.7871 138.439 30.8946 138.962 29.8329C139.513 28.7154 139.792 27.4841 139.777 26.2388C139.792 24.9935 139.513 23.7623 138.962 22.6447C138.439 21.5838 137.626 20.6919 136.617 20.0718C135.546 19.4248 134.313 19.095 133.062 19.1207C131.832 19.0975 130.621 19.4193 129.566 20.0493C128.554 20.6629 127.733 21.5461 127.196 22.5997C126.62 23.7253 126.329 24.9748 126.349 26.2388C126.329 27.5036 126.62 28.754 127.196 29.8804C127.734 30.9334 128.554 31.8164 129.566 32.4308C130.621 33.0601 131.833 33.3809 133.062 33.3569C134.313 33.3834 135.546 33.0546 136.617 32.4083Z" fill="white"/>
<path d="M168.837 28.0259H152.412C152.565 29.1707 152.995 30.2611 153.666 31.2019C154.265 32.0231 155.072 32.6709 156.003 33.0791C156.953 33.4878 157.978 33.6933 159.012 33.6823C160.159 33.6762 161.296 33.4688 162.37 33.0691C163.483 32.6646 164.523 32.0802 165.447 31.3396L167.862 34.801C166.63 35.8727 165.196 36.6872 163.644 37.1962C162.047 37.6948 160.382 37.9406 158.709 37.9246C156.649 37.9636 154.615 37.464 152.809 36.4754C151.099 35.5216 149.699 34.0977 148.776 32.3733C147.809 30.6046 147.325 28.5598 147.325 26.2388C147.284 24.1252 147.767 22.0342 148.731 20.1519C149.62 18.4363 150.977 17.007 152.646 16.0298C154.399 15.0268 156.393 14.5182 158.413 14.5581C160.337 14.5231 162.232 15.0334 163.877 16.0298C165.478 17.0276 166.765 18.4542 167.593 20.1469C168.513 22.038 168.971 24.1196 168.93 26.2213C168.93 26.6818 168.899 27.2833 168.837 28.0259ZM163.96 24.3392C163.694 22.6072 163.07 21.2623 162.089 20.3046C161.108 19.3468 159.849 18.8671 158.313 18.8655C156.656 18.8655 155.328 19.356 154.328 20.3371C153.329 21.3183 152.69 22.6531 152.412 24.3417L163.96 24.3392Z" fill="white"/>
<path d="M192 37.3465H186.029L180.382 29.6252L174.808 37.3465H169.116L177.503 26.0086L169.256 15.1338H175.227L180.663 22.5522L186.097 15.1338H191.837L183.612 25.961L192 37.3465Z" fill="white"/>
<path d="M161.585 46.7972H159.328V55.7699H161.585V46.7972Z" fill="white"/>
<path d="M179.876 49.3676C179.291 49.051 178.635 48.8866 177.97 48.8896C176.5 48.8896 175.482 49.9082 175.482 51.2823C175.482 52.6163 176.458 53.6775 177.97 53.6775C178.635 53.679 179.29 53.5156 179.876 53.202V55.6097C179.205 55.8154 178.508 55.9226 177.807 55.9276C175.257 55.9276 173.02 54.1756 173.02 51.2823C173.02 48.6043 175.046 46.6395 177.807 46.6395C178.509 46.6413 179.206 46.7492 179.876 46.9599V49.3676Z" fill="white"/>
<path d="M156.199 49.3676C155.615 49.05 154.959 48.8856 154.294 48.8896C152.824 48.8896 151.809 49.9082 151.809 51.2823C151.809 52.6163 152.781 53.6775 154.294 53.6775C154.958 53.679 155.613 53.5156 156.199 53.202V55.6097C155.529 55.8157 154.832 55.9228 154.131 55.9276C151.58 55.9276 149.346 54.1756 149.346 51.2823C149.346 48.6043 151.37 46.6395 154.131 46.6395C154.832 46.6413 155.53 46.7492 156.199 46.9599V49.3676Z" fill="white"/>
<path d="M187.01 48.9221C186.7 48.9194 186.392 48.9787 186.105 49.0966C185.818 49.2144 185.558 49.3886 185.339 49.6086C185.121 49.8286 184.948 50.0899 184.833 50.3775C184.717 50.6648 184.66 50.9727 184.666 51.2823C184.66 51.5921 184.717 51.9002 184.832 52.1878C184.947 52.4756 185.12 52.7374 185.338 52.9577C185.557 53.1779 185.817 53.3521 186.105 53.4703C186.392 53.5884 186.7 53.6477 187.01 53.645C187.321 53.6477 187.629 53.5884 187.916 53.4703C188.204 53.3521 188.464 53.1779 188.683 52.9577C188.902 52.7377 189.074 52.4759 189.19 52.1881C189.306 51.9002 189.363 51.5924 189.357 51.2823C189.362 50.9724 189.305 50.6648 189.189 50.3773C189.073 50.0897 188.901 49.8284 188.682 49.6084C188.464 49.3884 188.203 49.2144 187.916 49.0966C187.629 48.9787 187.321 48.9194 187.01 48.9221ZM191.76 51.2823C191.76 53.8502 189.776 55.9276 187.01 55.9276C184.244 55.9276 182.263 53.8502 182.263 51.2823C182.263 48.7144 184.247 46.6395 187.01 46.6395C189.774 46.6395 191.76 48.7194 191.76 51.2823Z" fill="white"/>
<path d="M170.187 48.837C169.606 48.6788 169.01 48.5882 168.409 48.5667C167.501 48.5667 167.007 48.8696 167.007 49.3C167.007 49.8482 167.674 50.0509 168.045 50.156L168.672 50.3537C170.144 50.8218 170.816 51.8279 170.816 52.9217C170.816 55.1742 168.83 55.9251 167.092 55.9251C166.27 55.9153 165.451 55.8314 164.645 55.6748V53.6099C165.341 53.8114 166.061 53.9233 166.786 53.9428C167.917 53.9428 168.434 53.6149 168.434 53.1044C168.434 52.6513 167.985 52.3885 167.431 52.2108L166.947 52.0557C165.693 51.6577 164.63 50.9169 164.63 49.4302C164.63 47.7533 165.883 46.627 167.98 46.627C168.725 46.6373 169.466 46.7329 170.189 46.9123L170.187 48.837Z" fill="white"/>
<path d="M133.503 55.7399H132.518V46.7872H133.714V50.1686C133.953 49.8187 134.278 49.5358 134.658 49.3466C135.037 49.1574 135.459 49.0681 135.883 49.0873C136.298 49.0676 136.712 49.1484 137.089 49.3229C137.466 49.4971 137.796 49.7599 138.049 50.0885C138.506 50.6859 138.734 51.4776 138.734 52.4637C138.734 53.6317 138.423 54.5268 137.801 55.1492C137.538 55.4095 137.224 55.6135 136.879 55.7482C136.534 55.8828 136.165 55.9456 135.795 55.9326C135.384 55.9536 134.974 55.8688 134.605 55.6858C134.236 55.5031 133.921 55.2286 133.689 54.8889L133.503 55.7399ZM137.49 52.4311C137.49 51.6185 137.286 51.0095 136.878 50.6041C136.713 50.4369 136.514 50.306 136.296 50.2199C136.077 50.1335 135.842 50.094 135.607 50.1035C135.332 50.0935 135.058 50.1475 134.807 50.2619C134.556 50.3763 134.335 50.5472 134.163 50.7617C133.807 51.2425 133.63 51.8317 133.661 52.4286C133.661 53.2571 133.867 53.8928 134.273 54.3308C134.441 54.5193 134.648 54.6684 134.881 54.7675C135.113 54.8666 135.364 54.9132 135.617 54.9039C135.893 54.9195 136.168 54.8646 136.417 54.7448C136.666 54.6246 136.88 54.4434 137.039 54.2182C137.373 53.6841 137.53 53.0591 137.49 52.4311Z" fill="white"/>
<path d="M145.137 49.2725L142.881 55.8249C142.582 56.6959 142.294 57.2891 142.021 57.6045C141.867 57.7854 141.674 57.9296 141.457 58.0262C141.24 58.1228 141.004 58.1694 140.767 58.1626C140.506 58.1558 140.247 58.119 139.994 58.0525V57.0764C140.198 57.1304 140.408 57.1597 140.619 57.164C140.732 57.1695 140.846 57.1482 140.95 57.1016C141.053 57.0551 141.144 56.9848 141.216 56.8962C141.445 56.5345 141.626 56.1441 141.752 55.7348H141.366L138.986 49.2675H140.283L142.113 54.7738L143.944 49.2675L145.137 49.2725Z" fill="white"/>
<path d="M11.7022 22.8851C12.2276 24.7287 12.9436 26.5128 13.8386 28.2086C14.2474 28.9595 14.6561 29.7103 15.3984 30.1834C15.527 30.264 15.6687 30.3216 15.8171 30.3535C16.9104 30.5863 17.5098 29.7078 17.8959 28.9044C18.4722 27.6439 18.9378 26.3358 19.2877 24.995C19.3554 24.7447 19.4205 24.4944 19.4857 24.2441C19.6111 23.7661 19.7365 23.283 19.8443 22.8L24.6689 9.93539C25.6711 8.60318 26.9703 7.52216 28.4636 6.77799C29.9569 6.03383 31.6034 5.64696 33.2724 5.64803C35.6759 5.63326 38.0128 6.43663 39.8975 7.92561C43.052 10.3083 44.9302 15.0011 44.9302 15.0011C45.204 15.6121 45.3449 16.2741 45.3439 16.9433C45.3427 17.5632 45.2191 18.1768 44.9801 18.749C44.7414 19.3212 44.3918 19.8408 43.9517 20.2782C43.5116 20.7156 42.9896 21.0622 42.4153 21.2982C41.8411 21.5342 41.2257 21.655 40.6046 21.6537C39.914 21.6532 39.2317 21.5012 38.6065 21.2084C37.9812 20.9156 37.428 20.4892 36.9861 19.9593L36.941 19.9042C36.6378 19.4957 36.3851 19.0519 36.1887 18.5827C35.9287 17.9937 35.6373 17.4189 35.3161 16.8607C35.1456 16.5729 34.955 16.3001 34.7594 16.0298C34.5904 15.7882 34.3905 15.5695 34.1651 15.3791C33.7213 15.0212 33.1621 14.8785 32.6405 15.1863C32.6154 15.2007 32.5911 15.2166 32.5678 15.2339C32.0311 15.6018 31.655 16.3452 31.3942 16.9158C30.6419 18.5326 30.2106 20.1895 29.7843 21.8914C29.7041 22.2193 29.6239 22.5472 29.5486 22.8776L27.5551 29.3849L24.7441 35.5719C23.7378 36.8682 22.4499 37.9196 20.9774 38.6472C19.505 39.3745 17.8863 39.7592 16.2434 39.7717C9.41526 39.9169 6.17545 33.7649 6.17545 33.7649C2.28619 27.3977 1.14023 18.9982 0.866899 16.3126C0.809224 15.7545 0.806717 15.4216 0.806717 15.4216C0.806401 14.5804 1.0363 13.7551 1.4716 13.0348C1.9069 12.3145 2.53106 11.7266 3.27669 11.3345C4.04766 10.9446 4.90561 10.7576 5.76925 10.7914C6.57273 10.8249 7.35449 11.0617 8.04112 11.4796C8.57466 11.7984 9.03583 12.2246 9.3952 12.7311C10.0371 13.6421 10.1826 14.7759 10.3105 15.8596C10.576 18.2363 11.0416 20.5864 11.7022 22.8851Z" fill="url(#paint0_linear_1545_14580)"/>
<path d="M11.7022 22.8851C12.2276 24.7287 12.9436 26.5128 13.8386 28.2086C14.2474 28.9595 14.6561 29.7103 15.3984 30.1834C15.527 30.264 15.6687 30.3216 15.8171 30.3535C16.9104 30.5863 17.5098 29.7078 17.8959 28.9044C18.4722 27.6439 18.9378 26.3358 19.2877 24.995C19.3554 24.7447 19.4205 24.4944 19.4857 24.2441C19.6111 23.7661 19.7365 23.283 19.8443 22.8L24.6689 9.93539C25.6711 8.60318 26.9703 7.52216 28.4636 6.77799C29.9569 6.03383 31.6034 5.64696 33.2724 5.64803C35.6759 5.63326 38.0128 6.43663 39.8975 7.92561C43.052 10.3083 44.9302 15.0011 44.9302 15.0011C45.204 15.6121 45.3449 16.2741 45.3439 16.9433C45.3427 17.5632 45.2191 18.1768 44.9801 18.749C44.7414 19.3212 44.3918 19.8408 43.9517 20.2782C43.5116 20.7156 42.9896 21.0622 42.4153 21.2982C41.8411 21.5342 41.2257 21.655 40.6046 21.6537C39.914 21.6532 39.2317 21.5012 38.6065 21.2084C37.9812 20.9156 37.428 20.4892 36.9861 19.9593L36.941 19.9042C36.6378 19.4957 36.3851 19.0519 36.1887 18.5827C35.9287 17.9937 35.6373 17.4189 35.3161 16.8607C35.1456 16.5729 34.955 16.3001 34.7594 16.0298C34.5904 15.7882 34.3905 15.5695 34.1651 15.3791C33.7213 15.0212 33.1621 14.8785 32.6405 15.1863C32.6154 15.2007 32.5911 15.2166 32.5678 15.2339C32.0311 15.6018 31.655 16.3452 31.3942 16.9158C30.6419 18.5326 30.2106 20.1895 29.7843 21.8914C29.7041 22.2193 29.6239 22.5472 29.5486 22.8776L27.5551 29.3849L24.7441 35.5719C23.7378 36.8682 22.4499 37.9196 20.9774 38.6472C19.505 39.3745 17.8863 39.7592 16.2434 39.7717C9.41526 39.9169 6.17545 33.7649 6.17545 33.7649C2.28619 27.3977 1.14023 18.9982 0.866899 16.3126C0.809224 15.7545 0.806717 15.4216 0.806717 15.4216C0.806401 14.5804 1.0363 13.7551 1.4716 13.0348C1.9069 12.3145 2.53106 11.7266 3.27669 11.3345C4.04766 10.9446 4.90561 10.7576 5.76925 10.7914C6.57273 10.8249 7.35449 11.0617 8.04112 11.4796C8.57466 11.7984 9.03583 12.2246 9.3952 12.7311C10.0371 13.6421 10.1826 14.7759 10.3105 15.8596C10.576 18.2363 11.0416 20.5864 11.7022 22.8851Z" fill="url(#paint1_radial_1545_14580)"/>
<path d="M11.7022 22.8851C12.2276 24.7287 12.9436 26.5128 13.8386 28.2086C14.2474 28.9595 14.6561 29.7103 15.3984 30.1834C15.527 30.264 15.6687 30.3216 15.8171 30.3535C16.9104 30.5863 17.5098 29.7078 17.8959 28.9044C18.4722 27.6439 18.9378 26.3358 19.2877 24.995C19.3554 24.7447 19.4205 24.4944 19.4857 24.2441C19.6111 23.7661 19.7365 23.283 19.8443 22.8L24.6689 9.93539C25.6711 8.60318 26.9703 7.52216 28.4636 6.77799C29.9569 6.03383 31.6034 5.64696 33.2724 5.64803C35.6759 5.63326 38.0128 6.43663 39.8975 7.92561C43.052 10.3083 44.9302 15.0011 44.9302 15.0011C45.204 15.6121 45.3449 16.2741 45.3439 16.9433C45.3427 17.5632 45.2191 18.1768 44.9801 18.749C44.7414 19.3212 44.3918 19.8408 43.9517 20.2782C43.5116 20.7156 42.9896 21.0622 42.4153 21.2982C41.8411 21.5342 41.2257 21.655 40.6046 21.6537C39.914 21.6532 39.2317 21.5012 38.6065 21.2084C37.9812 20.9156 37.428 20.4892 36.9861 19.9593L36.941 19.9042C36.6378 19.4957 36.3851 19.0519 36.1887 18.5827C35.9287 17.9937 35.6373 17.4189 35.3161 16.8607C35.1456 16.5729 34.955 16.3001 34.7594 16.0298C34.5904 15.7882 34.3905 15.5695 34.1651 15.3791C33.7213 15.0212 33.1621 14.8785 32.6405 15.1863C32.6154 15.2007 32.5911 15.2166 32.5678 15.2339C32.0311 15.6018 31.655 16.3452 31.3942 16.9158C30.6419 18.5326 30.2106 20.1895 29.7843 21.8914C29.7041 22.2193 29.6239 22.5472 29.5486 22.8776L27.5551 29.3849L24.7441 35.5719C23.7378 36.8682 22.4499 37.9196 20.9774 38.6472C19.505 39.3745 17.8863 39.7592 16.2434 39.7717C9.41526 39.9169 6.17545 33.7649 6.17545 33.7649C2.28619 27.3977 1.14023 18.9982 0.866899 16.3126C0.809224 15.7545 0.806717 15.4216 0.806717 15.4216C0.806401 14.5804 1.0363 13.7551 1.4716 13.0348C1.9069 12.3145 2.53106 11.7266 3.27669 11.3345C4.04766 10.9446 4.90561 10.7576 5.76925 10.7914C6.57273 10.8249 7.35449 11.0617 8.04112 11.4796C8.57466 11.7984 9.03583 12.2246 9.3952 12.7311C10.0371 13.6421 10.1826 14.7759 10.3105 15.8596C10.576 18.2363 11.0416 20.5864 11.7022 22.8851Z" fill="url(#paint2_radial_1545_14580)"/>
<path d="M11.7022 22.8851C12.2276 24.7287 12.9436 26.5128 13.8386 28.2086C14.2474 28.9595 14.6561 29.7103 15.3984 30.1834C15.527 30.264 15.6687 30.3216 15.8171 30.3535C16.9104 30.5863 17.5098 29.7078 17.8959 28.9044C18.4722 27.6439 18.9378 26.3358 19.2877 24.995C19.3554 24.7447 19.4205 24.4944 19.4857 24.2441C19.6111 23.7661 19.7365 23.283 19.8443 22.8L24.6689 9.93539C25.6711 8.60318 26.9703 7.52216 28.4636 6.77799C29.9569 6.03383 31.6034 5.64696 33.2724 5.64803C35.6759 5.63326 38.0128 6.43663 39.8975 7.92561C43.052 10.3083 44.9302 15.0011 44.9302 15.0011C45.204 15.6121 45.3449 16.2741 45.3439 16.9433C45.3427 17.5632 45.2191 18.1768 44.9801 18.749C44.7414 19.3212 44.3918 19.8408 43.9517 20.2782C43.5116 20.7156 42.9896 21.0622 42.4153 21.2982C41.8411 21.5342 41.2257 21.655 40.6046 21.6537C39.914 21.6532 39.2317 21.5012 38.6065 21.2084C37.9812 20.9156 37.428 20.4892 36.9861 19.9593L36.941 19.9042C36.6378 19.4957 36.3851 19.0519 36.1887 18.5827C35.9287 17.9937 35.6373 17.4189 35.3161 16.8607C35.1456 16.5729 34.955 16.3001 34.7594 16.0298C34.5904 15.7882 34.3905 15.5695 34.1651 15.3791C33.7213 15.0212 33.1621 14.8785 32.6405 15.1863C32.6154 15.2007 32.5911 15.2166 32.5678 15.2339C32.0311 15.6018 31.655 16.3452 31.3942 16.9158C30.6419 18.5326 30.2106 20.1895 29.7843 21.8914C29.7041 22.2193 29.6239 22.5472 29.5486 22.8776L27.5551 29.3849L24.7441 35.5719C23.7378 36.8682 22.4499 37.9196 20.9774 38.6472C19.505 39.3745 17.8863 39.7592 16.2434 39.7717C9.41526 39.9169 6.17545 33.7649 6.17545 33.7649C2.28619 27.3977 1.14023 18.9982 0.866899 16.3126C0.809224 15.7545 0.806717 15.4216 0.806717 15.4216C0.806401 14.5804 1.0363 13.7551 1.4716 13.0348C1.9069 12.3145 2.53106 11.7266 3.27669 11.3345C4.04766 10.9446 4.90561 10.7576 5.76925 10.7914C6.57273 10.8249 7.35449 11.0617 8.04112 11.4796C8.57466 11.7984 9.03583 12.2246 9.3952 12.7311C10.0371 13.6421 10.1826 14.7759 10.3105 15.8596C10.576 18.2363 11.0416 20.5864 11.7022 22.8851Z" fill="url(#paint3_radial_1545_14580)"/>
<path d="M11.7022 22.8851C12.2276 24.7287 12.9436 26.5128 13.8386 28.2086C14.2474 28.9595 14.6561 29.7103 15.3984 30.1834C15.527 30.264 15.6687 30.3216 15.8171 30.3535C16.9104 30.5863 17.5098 29.7078 17.8959 28.9044C18.4722 27.6439 18.9378 26.3358 19.2877 24.995C19.3554 24.7447 19.4205 24.4944 19.4857 24.2441C19.6111 23.7661 19.7365 23.283 19.8443 22.8L24.6689 9.93539C25.6711 8.60318 26.9703 7.52216 28.4636 6.77799C29.9569 6.03383 31.6034 5.64696 33.2724 5.64803C35.6759 5.63326 38.0128 6.43663 39.8975 7.92561C43.052 10.3083 44.9302 15.0011 44.9302 15.0011C45.204 15.6121 45.3449 16.2741 45.3439 16.9433C45.3427 17.5632 45.2191 18.1768 44.9801 18.749C44.7414 19.3212 44.3918 19.8408 43.9517 20.2782C43.5116 20.7156 42.9896 21.0622 42.4153 21.2982C41.8411 21.5342 41.2257 21.655 40.6046 21.6537C39.914 21.6532 39.2317 21.5012 38.6065 21.2084C37.9812 20.9156 37.428 20.4892 36.9861 19.9593L36.941 19.9042C36.6378 19.4957 36.3851 19.0519 36.1887 18.5827C35.9287 17.9937 35.6373 17.4189 35.3161 16.8607C35.1456 16.5729 34.955 16.3001 34.7594 16.0298C34.5904 15.7882 34.3905 15.5695 34.1651 15.3791C33.7213 15.0212 33.1621 14.8785 32.6405 15.1863C32.6154 15.2007 32.5911 15.2166 32.5678 15.2339C32.0311 15.6018 31.655 16.3452 31.3942 16.9158C30.6419 18.5326 30.2106 20.1895 29.7843 21.8914C29.7041 22.2193 29.6239 22.5472 29.5486 22.8776L27.5551 29.3849L24.7441 35.5719C23.7378 36.8682 22.4499 37.9196 20.9774 38.6472C19.505 39.3745 17.8863 39.7592 16.2434 39.7717C9.41526 39.9169 6.17545 33.7649 6.17545 33.7649C2.28619 27.3977 1.14023 18.9982 0.866899 16.3126C0.809224 15.7545 0.806717 15.4216 0.806717 15.4216C0.806401 14.5804 1.0363 13.7551 1.4716 13.0348C1.9069 12.3145 2.53106 11.7266 3.27669 11.3345C4.04766 10.9446 4.90561 10.7576 5.76925 10.7914C6.57273 10.8249 7.35449 11.0617 8.04112 11.4796C8.57466 11.7984 9.03583 12.2246 9.3952 12.7311C10.0371 13.6421 10.1826 14.7759 10.3105 15.8596C10.576 18.2363 11.0416 20.5864 11.7022 22.8851Z" fill="url(#paint4_radial_1545_14580)"/>
<path d="M11.7022 22.8851C12.2276 24.7287 12.9436 26.5128 13.8386 28.2086C14.2474 28.9595 14.6561 29.7103 15.3984 30.1834C15.527 30.264 15.6687 30.3216 15.8171 30.3535C16.9104 30.5863 17.5098 29.7078 17.8959 28.9044C18.4722 27.6439 18.9378 26.3358 19.2877 24.995C19.3554 24.7447 19.4205 24.4944 19.4857 24.2441C19.6111 23.7661 19.7365 23.283 19.8443 22.8L24.6689 9.93539C25.6711 8.60318 26.9703 7.52216 28.4636 6.77799C29.9569 6.03383 31.6034 5.64696 33.2724 5.64803C35.6759 5.63326 38.0128 6.43663 39.8975 7.92561C43.052 10.3083 44.9302 15.0011 44.9302 15.0011C45.204 15.6121 45.3449 16.2741 45.3439 16.9433C45.3427 17.5632 45.2191 18.1768 44.9801 18.749C44.7414 19.3212 44.3918 19.8408 43.9517 20.2782C43.5116 20.7156 42.9896 21.0622 42.4153 21.2982C41.8411 21.5342 41.2257 21.655 40.6046 21.6537C39.914 21.6532 39.2317 21.5012 38.6065 21.2084C37.9812 20.9156 37.428 20.4892 36.9861 19.9593L36.941 19.9042C36.6378 19.4957 36.3851 19.0519 36.1887 18.5827C35.9287 17.9937 35.6373 17.4189 35.3161 16.8607C35.1456 16.5729 34.955 16.3001 34.7594 16.0298C34.5904 15.7882 34.3905 15.5695 34.1651 15.3791C33.7213 15.0212 33.1621 14.8785 32.6405 15.1863C32.6154 15.2007 32.5911 15.2166 32.5678 15.2339C32.0311 15.6018 31.655 16.3452 31.3942 16.9158C30.6419 18.5326 30.2106 20.1895 29.7843 21.8914C29.7041 22.2193 29.6239 22.5472 29.5486 22.8776L27.5551 29.3849L24.7441 35.5719C23.7378 36.8682 22.4499 37.9196 20.9774 38.6472C19.505 39.3745 17.8863 39.7592 16.2434 39.7717C9.41526 39.9169 6.17545 33.7649 6.17545 33.7649C2.28619 27.3977 1.14023 18.9982 0.866899 16.3126C0.809224 15.7545 0.806717 15.4216 0.806717 15.4216C0.806401 14.5804 1.0363 13.7551 1.4716 13.0348C1.9069 12.3145 2.53106 11.7266 3.27669 11.3345C4.04766 10.9446 4.90561 10.7576 5.76925 10.7914C6.57273 10.8249 7.35449 11.0617 8.04112 11.4796C8.57466 11.7984 9.03583 12.2246 9.3952 12.7311C10.0371 13.6421 10.1826 14.7759 10.3105 15.8596C10.576 18.2363 11.0416 20.5864 11.7022 22.8851Z" fill="url(#paint5_radial_1545_14580)"/>
<path d="M11.7022 22.8851C12.2276 24.7287 12.9436 26.5128 13.8386 28.2086C14.2474 28.9595 14.6561 29.7103 15.3984 30.1834C15.527 30.264 15.6687 30.3216 15.8171 30.3535C16.9104 30.5863 17.5098 29.7078 17.8959 28.9044C18.4722 27.6439 18.9378 26.3358 19.2877 24.995C19.3554 24.7447 19.4205 24.4944 19.4857 24.2441C19.6111 23.7661 19.7365 23.283 19.8443 22.8L24.6689 9.93539C25.6711 8.60318 26.9703 7.52216 28.4636 6.77799C29.9569 6.03383 31.6034 5.64696 33.2724 5.64803C35.6759 5.63326 38.0128 6.43663 39.8975 7.92561C43.052 10.3083 44.9302 15.0011 44.9302 15.0011C45.204 15.6121 45.3449 16.2741 45.3439 16.9433C45.3427 17.5632 45.2191 18.1768 44.9801 18.749C44.7414 19.3212 44.3918 19.8408 43.9517 20.2782C43.5116 20.7156 42.9896 21.0622 42.4153 21.2982C41.8411 21.5342 41.2257 21.655 40.6046 21.6537C39.914 21.6532 39.2317 21.5012 38.6065 21.2084C37.9812 20.9156 37.428 20.4892 36.9861 19.9593L36.941 19.9042C36.6378 19.4957 36.3851 19.0519 36.1887 18.5827C35.9287 17.9937 35.6373 17.4189 35.3161 16.8607C35.1456 16.5729 34.955 16.3001 34.7594 16.0298C34.5904 15.7882 34.3905 15.5695 34.1651 15.3791C33.7213 15.0212 33.1621 14.8785 32.6405 15.1863C32.6154 15.2007 32.5911 15.2166 32.5678 15.2339C32.0311 15.6018 31.655 16.3452 31.3942 16.9158C30.6419 18.5326 30.2106 20.1895 29.7843 21.8914C29.7041 22.2193 29.6239 22.5472 29.5486 22.8776L27.5551 29.3849L24.7441 35.5719C23.7378 36.8682 22.4499 37.9196 20.9774 38.6472C19.505 39.3745 17.8863 39.7592 16.2434 39.7717C9.41526 39.9169 6.17545 33.7649 6.17545 33.7649C2.28619 27.3977 1.14023 18.9982 0.866899 16.3126C0.809224 15.7545 0.806717 15.4216 0.806717 15.4216C0.806401 14.5804 1.0363 13.7551 1.4716 13.0348C1.9069 12.3145 2.53106 11.7266 3.27669 11.3345C4.04766 10.9446 4.90561 10.7576 5.76925 10.7914C6.57273 10.8249 7.35449 11.0617 8.04112 11.4796C8.57466 11.7984 9.03583 12.2246 9.3952 12.7311C10.0371 13.6421 10.1826 14.7759 10.3105 15.8596C10.576 18.2363 11.0416 20.5864 11.7022 22.8851Z" fill="url(#paint6_radial_1545_14580)"/>
<path d="M11.7022 22.8851C12.2276 24.7287 12.9436 26.5128 13.8386 28.2086C14.2474 28.9595 14.6561 29.7103 15.3984 30.1834C15.527 30.264 15.6687 30.3216 15.8171 30.3535C16.9104 30.5863 17.5098 29.7078 17.8959 28.9044C18.4722 27.6439 18.9378 26.3358 19.2877 24.995C19.3554 24.7447 19.4205 24.4944 19.4857 24.2441C19.6111 23.7661 19.7365 23.283 19.8443 22.8L24.6689 9.93539C25.6711 8.60318 26.9703 7.52216 28.4636 6.77799C29.9569 6.03383 31.6034 5.64696 33.2724 5.64803C35.6759 5.63326 38.0128 6.43663 39.8975 7.92561C43.052 10.3083 44.9302 15.0011 44.9302 15.0011C45.204 15.6121 45.3449 16.2741 45.3439 16.9433C45.3427 17.5632 45.2191 18.1768 44.9801 18.749C44.7414 19.3212 44.3918 19.8408 43.9517 20.2782C43.5116 20.7156 42.9896 21.0622 42.4153 21.2982C41.8411 21.5342 41.2257 21.655 40.6046 21.6537C39.914 21.6532 39.2317 21.5012 38.6065 21.2084C37.9812 20.9156 37.428 20.4892 36.9861 19.9593L36.941 19.9042C36.6378 19.4957 36.3851 19.0519 36.1887 18.5827C35.9287 17.9937 35.6373 17.4189 35.3161 16.8607C35.1456 16.5729 34.955 16.3001 34.7594 16.0298C34.5904 15.7882 34.3905 15.5695 34.1651 15.3791C33.7213 15.0212 33.1621 14.8785 32.6405 15.1863C32.6154 15.2007 32.5911 15.2166 32.5678 15.2339C32.0311 15.6018 31.655 16.3452 31.3942 16.9158C30.6419 18.5326 30.2106 20.1895 29.7843 21.8914C29.7041 22.2193 29.6239 22.5472 29.5486 22.8776L27.5551 29.3849L24.7441 35.5719C23.7378 36.8682 22.4499 37.9196 20.9774 38.6472C19.505 39.3745 17.8863 39.7592 16.2434 39.7717C9.41526 39.9169 6.17545 33.7649 6.17545 33.7649C2.28619 27.3977 1.14023 18.9982 0.866899 16.3126C0.809224 15.7545 0.806717 15.4216 0.806717 15.4216C0.806401 14.5804 1.0363 13.7551 1.4716 13.0348C1.9069 12.3145 2.53106 11.7266 3.27669 11.3345C4.04766 10.9446 4.90561 10.7576 5.76925 10.7914C6.57273 10.8249 7.35449 11.0617 8.04112 11.4796C8.57466 11.7984 9.03583 12.2246 9.3952 12.7311C10.0371 13.6421 10.1826 14.7759 10.3105 15.8596C10.576 18.2363 11.0416 20.5864 11.7022 22.8851Z" fill="url(#paint7_radial_1545_14580)"/>
<path d="M11.7022 22.8851C12.2276 24.7287 12.9436 26.5128 13.8386 28.2086C14.2474 28.9595 14.6561 29.7103 15.3984 30.1834C15.527 30.264 15.6687 30.3216 15.8171 30.3535C16.9104 30.5863 17.5098 29.7078 17.8959 28.9044C18.4722 27.6439 18.9378 26.3358 19.2877 24.995C19.3554 24.7447 19.4205 24.4944 19.4857 24.2441C19.6111 23.7661 19.7365 23.283 19.8443 22.8L24.6689 9.93539C25.6711 8.60318 26.9703 7.52216 28.4636 6.77799C29.9569 6.03383 31.6034 5.64696 33.2724 5.64803C35.6759 5.63326 38.0128 6.43663 39.8975 7.92561C43.052 10.3083 44.9302 15.0011 44.9302 15.0011C45.204 15.6121 45.3449 16.2741 45.3439 16.9433C45.3427 17.5632 45.2191 18.1768 44.9801 18.749C44.7414 19.3212 44.3918 19.8408 43.9517 20.2782C43.5116 20.7156 42.9896 21.0622 42.4153 21.2982C41.8411 21.5342 41.2257 21.655 40.6046 21.6537C39.914 21.6532 39.2317 21.5012 38.6065 21.2084C37.9812 20.9156 37.428 20.4892 36.9861 19.9593L36.941 19.9042C36.6378 19.4957 36.3851 19.0519 36.1887 18.5827C35.9287 17.9937 35.6373 17.4189 35.3161 16.8607C35.1456 16.5729 34.955 16.3001 34.7594 16.0298C34.5904 15.7882 34.3905 15.5695 34.1651 15.3791C33.7213 15.0212 33.1621 14.8785 32.6405 15.1863C32.6154 15.2007 32.5911 15.2166 32.5678 15.2339C32.0311 15.6018 31.655 16.3452 31.3942 16.9158C30.6419 18.5326 30.2106 20.1895 29.7843 21.8914C29.7041 22.2193 29.6239 22.5472 29.5486 22.8776L27.5551 29.3849L24.7441 35.5719C23.7378 36.8682 22.4499 37.9196 20.9774 38.6472C19.505 39.3745 17.8863 39.7592 16.2434 39.7717C9.41526 39.9169 6.17545 33.7649 6.17545 33.7649C2.28619 27.3977 1.14023 18.9982 0.866899 16.3126C0.809224 15.7545 0.806717 15.4216 0.806717 15.4216C0.806401 14.5804 1.0363 13.7551 1.4716 13.0348C1.9069 12.3145 2.53106 11.7266 3.27669 11.3345C4.04766 10.9446 4.90561 10.7576 5.76925 10.7914C6.57273 10.8249 7.35449 11.0617 8.04112 11.4796C8.57466 11.7984 9.03583 12.2246 9.3952 12.7311C10.0371 13.6421 10.1826 14.7759 10.3105 15.8596C10.576 18.2363 11.0416 20.5864 11.7022 22.8851Z" fill="url(#paint8_radial_1545_14580)"/>
<path d="M11.7022 22.8851C12.2276 24.7287 12.9436 26.5128 13.8386 28.2086C14.2474 28.9595 14.6561 29.7103 15.3984 30.1834C15.527 30.264 15.6687 30.3216 15.8171 30.3535C16.9104 30.5863 17.5098 29.7078 17.8959 28.9044C18.4722 27.6439 18.9378 26.3358 19.2877 24.995C19.3554 24.7447 19.4205 24.4944 19.4857 24.2441C19.6111 23.7661 19.7365 23.283 19.8443 22.8L24.6689 9.93539C25.6711 8.60318 26.9703 7.52216 28.4636 6.77799C29.9569 6.03383 31.6034 5.64696 33.2724 5.64803C35.6759 5.63326 38.0128 6.43663 39.8975 7.92561C43.052 10.3083 44.9302 15.0011 44.9302 15.0011C45.204 15.6121 45.3449 16.2741 45.3439 16.9433C45.3427 17.5632 45.2191 18.1768 44.9801 18.749C44.7414 19.3212 44.3918 19.8408 43.9517 20.2782C43.5116 20.7156 42.9896 21.0622 42.4153 21.2982C41.8411 21.5342 41.2257 21.655 40.6046 21.6537C39.914 21.6532 39.2317 21.5012 38.6065 21.2084C37.9812 20.9156 37.428 20.4892 36.9861 19.9593L36.941 19.9042C36.6378 19.4957 36.3851 19.0519 36.1887 18.5827C35.9287 17.9937 35.6373 17.4189 35.3161 16.8607C35.1456 16.5729 34.955 16.3001 34.7594 16.0298C34.5904 15.7882 34.3905 15.5695 34.1651 15.3791C33.7213 15.0212 33.1621 14.8785 32.6405 15.1863C32.6154 15.2007 32.5911 15.2166 32.5678 15.2339C32.0311 15.6018 31.655 16.3452 31.3942 16.9158C30.6419 18.5326 30.2106 20.1895 29.7843 21.8914C29.7041 22.2193 29.6239 22.5472 29.5486 22.8776L27.5551 29.3849L24.7441 35.5719C23.7378 36.8682 22.4499 37.9196 20.9774 38.6472C19.505 39.3745 17.8863 39.7592 16.2434 39.7717C9.41526 39.9169 6.17545 33.7649 6.17545 33.7649C2.28619 27.3977 1.14023 18.9982 0.866899 16.3126C0.809224 15.7545 0.806717 15.4216 0.806717 15.4216C0.806401 14.5804 1.0363 13.7551 1.4716 13.0348C1.9069 12.3145 2.53106 11.7266 3.27669 11.3345C4.04766 10.9446 4.90561 10.7576 5.76925 10.7914C6.57273 10.8249 7.35449 11.0617 8.04112 11.4796C8.57466 11.7984 9.03583 12.2246 9.3952 12.7311C10.0371 13.6421 10.1826 14.7759 10.3105 15.8596C10.576 18.2363 11.0416 20.5864 11.7022 22.8851Z" fill="url(#paint9_radial_1545_14580)"/>
<path d="M11.7022 22.8851C12.2276 24.7287 12.9436 26.5128 13.8386 28.2086C14.2474 28.9595 14.6561 29.7103 15.3984 30.1834C15.527 30.264 15.6687 30.3216 15.8171 30.3535C16.9104 30.5863 17.5098 29.7078 17.8959 28.9044C18.4722 27.6439 18.9378 26.3358 19.2877 24.995C19.3554 24.7447 19.4205 24.4944 19.4857 24.2441C19.6111 23.7661 19.7365 23.283 19.8443 22.8L24.6689 9.93539C25.6711 8.60318 26.9703 7.52216 28.4636 6.77799C29.9569 6.03383 31.6034 5.64696 33.2724 5.64803C35.6759 5.63326 38.0128 6.43663 39.8975 7.92561C43.052 10.3083 44.9302 15.0011 44.9302 15.0011C45.204 15.6121 45.3449 16.2741 45.3439 16.9433C45.3427 17.5632 45.2191 18.1768 44.9801 18.749C44.7414 19.3212 44.3918 19.8408 43.9517 20.2782C43.5116 20.7156 42.9896 21.0622 42.4153 21.2982C41.8411 21.5342 41.2257 21.655 40.6046 21.6537C39.914 21.6532 39.2317 21.5012 38.6065 21.2084C37.9812 20.9156 37.428 20.4892 36.9861 19.9593L36.941 19.9042C36.6378 19.4957 36.3851 19.0519 36.1887 18.5827C35.9287 17.9937 35.6373 17.4189 35.3161 16.8607C35.1456 16.5729 34.955 16.3001 34.7594 16.0298C34.5904 15.7882 34.3905 15.5695 34.1651 15.3791C33.7213 15.0212 33.1621 14.8785 32.6405 15.1863C32.6154 15.2007 32.5911 15.2166 32.5678 15.2339C32.0311 15.6018 31.655 16.3452 31.3942 16.9158C30.6419 18.5326 30.2106 20.1895 29.7843 21.8914C29.7041 22.2193 29.6239 22.5472 29.5486 22.8776L27.5551 29.3849L24.7441 35.5719C23.7378 36.8682 22.4499 37.9196 20.9774 38.6472C19.505 39.3745 17.8863 39.7592 16.2434 39.7717C9.41526 39.9169 6.17545 33.7649 6.17545 33.7649C2.28619 27.3977 1.14023 18.9982 0.866899 16.3126C0.809224 15.7545 0.806717 15.4216 0.806717 15.4216C0.806401 14.5804 1.0363 13.7551 1.4716 13.0348C1.9069 12.3145 2.53106 11.7266 3.27669 11.3345C4.04766 10.9446 4.90561 10.7576 5.76925 10.7914C6.57273 10.8249 7.35449 11.0617 8.04112 11.4796C8.57466 11.7984 9.03583 12.2246 9.3952 12.7311C10.0371 13.6421 10.1826 14.7759 10.3105 15.8596C10.576 18.2363 11.0416 20.5864 11.7022 22.8851Z" fill="url(#paint10_radial_1545_14580)"/>
<path d="M11.7022 22.8851C12.2276 24.7287 12.9436 26.5128 13.8386 28.2086C14.2474 28.9595 14.6561 29.7103 15.3984 30.1834C15.527 30.264 15.6687 30.3216 15.8171 30.3535C16.9104 30.5863 17.5098 29.7078 17.8959 28.9044C18.4722 27.6439 18.9378 26.3358 19.2877 24.995C19.3554 24.7447 19.4205 24.4944 19.4857 24.2441C19.6111 23.7661 19.7365 23.283 19.8443 22.8L24.6689 9.93539C25.6711 8.60318 26.9703 7.52216 28.4636 6.77799C29.9569 6.03383 31.6034 5.64696 33.2724 5.64803C35.6759 5.63326 38.0128 6.43663 39.8975 7.92561C43.052 10.3083 44.9302 15.0011 44.9302 15.0011C45.204 15.6121 45.3449 16.2741 45.3439 16.9433C45.3427 17.5632 45.2191 18.1768 44.9801 18.749C44.7414 19.3212 44.3918 19.8408 43.9517 20.2782C43.5116 20.7156 42.9896 21.0622 42.4153 21.2982C41.8411 21.5342 41.2257 21.655 40.6046 21.6537C39.914 21.6532 39.2317 21.5012 38.6065 21.2084C37.9812 20.9156 37.428 20.4892 36.9861 19.9593L36.941 19.9042C36.6378 19.4957 36.3851 19.0519 36.1887 18.5827C35.9287 17.9937 35.6373 17.4189 35.3161 16.8607C35.1456 16.5729 34.955 16.3001 34.7594 16.0298C34.5904 15.7882 34.3905 15.5695 34.1651 15.3791C33.7213 15.0212 33.1621 14.8785 32.6405 15.1863C32.6154 15.2007 32.5911 15.2166 32.5678 15.2339C32.0311 15.6018 31.655 16.3452 31.3942 16.9158C30.6419 18.5326 30.2106 20.1895 29.7843 21.8914C29.7041 22.2193 29.6239 22.5472 29.5486 22.8776L27.5551 29.3849L24.7441 35.5719C23.7378 36.8682 22.4499 37.9196 20.9774 38.6472C19.505 39.3745 17.8863 39.7592 16.2434 39.7717C9.41526 39.9169 6.17545 33.7649 6.17545 33.7649C2.28619 27.3977 1.14023 18.9982 0.866899 16.3126C0.809224 15.7545 0.806717 15.4216 0.806717 15.4216C0.806401 14.5804 1.0363 13.7551 1.4716 13.0348C1.9069 12.3145 2.53106 11.7266 3.27669 11.3345C4.04766 10.9446 4.90561 10.7576 5.76925 10.7914C6.57273 10.8249 7.35449 11.0617 8.04112 11.4796C8.57466 11.7984 9.03583 12.2246 9.3952 12.7311C10.0371 13.6421 10.1826 14.7759 10.3105 15.8596C10.576 18.2363 11.0416 20.5864 11.7022 22.8851Z" fill="url(#paint11_radial_1545_14580)"/>
<path d="M11.7022 22.8851C12.2276 24.7287 12.9436 26.5128 13.8386 28.2086C14.2474 28.9595 14.6561 29.7103 15.3984 30.1834C15.527 30.264 15.6687 30.3216 15.8171 30.3535C16.9104 30.5863 17.5098 29.7078 17.8959 28.9044C18.4722 27.6439 18.9378 26.3358 19.2877 24.995C19.3554 24.7447 19.4205 24.4944 19.4857 24.2441C19.6111 23.7661 19.7365 23.283 19.8443 22.8L24.6689 9.93539C25.6711 8.60318 26.9703 7.52216 28.4636 6.77799C29.9569 6.03383 31.6034 5.64696 33.2724 5.64803C35.6759 5.63326 38.0128 6.43663 39.8975 7.92561C43.052 10.3083 44.9302 15.0011 44.9302 15.0011C45.204 15.6121 45.3449 16.2741 45.3439 16.9433C45.3427 17.5632 45.2191 18.1768 44.9801 18.749C44.7414 19.3212 44.3918 19.8408 43.9517 20.2782C43.5116 20.7156 42.9896 21.0622 42.4153 21.2982C41.8411 21.5342 41.2257 21.655 40.6046 21.6537C39.914 21.6532 39.2317 21.5012 38.6065 21.2084C37.9812 20.9156 37.428 20.4892 36.9861 19.9593L36.941 19.9042C36.6378 19.4957 36.3851 19.0519 36.1887 18.5827C35.9287 17.9937 35.6373 17.4189 35.3161 16.8607C35.1456 16.5729 34.955 16.3001 34.7594 16.0298C34.5904 15.7882 34.3905 15.5695 34.1651 15.3791C33.7213 15.0212 33.1621 14.8785 32.6405 15.1863C32.6154 15.2007 32.5911 15.2166 32.5678 15.2339C32.0311 15.6018 31.655 16.3452 31.3942 16.9158C30.6419 18.5326 30.2106 20.1895 29.7843 21.8914C29.7041 22.2193 29.6239 22.5472 29.5486 22.8776L27.5551 29.3849L24.7441 35.5719C23.7378 36.8682 22.4499 37.9196 20.9774 38.6472C19.505 39.3745 17.8863 39.7592 16.2434 39.7717C9.41526 39.9169 6.17545 33.7649 6.17545 33.7649C2.28619 27.3977 1.14023 18.9982 0.866899 16.3126C0.809224 15.7545 0.806717 15.4216 0.806717 15.4216C0.806401 14.5804 1.0363 13.7551 1.4716 13.0348C1.9069 12.3145 2.53106 11.7266 3.27669 11.3345C4.04766 10.9446 4.90561 10.7576 5.76925 10.7914C6.57273 10.8249 7.35449 11.0617 8.04112 11.4796C8.57466 11.7984 9.03583 12.2246 9.3952 12.7311C10.0371 13.6421 10.1826 14.7759 10.3105 15.8596C10.576 18.2363 11.0416 20.5864 11.7022 22.8851Z" fill="url(#paint12_radial_1545_14580)"/>
<path d="M11.7022 22.8851C12.2276 24.7287 12.9436 26.5128 13.8386 28.2086C14.2474 28.9595 14.6561 29.7103 15.3984 30.1834C15.527 30.264 15.6687 30.3216 15.8171 30.3535C16.9104 30.5863 17.5098 29.7078 17.8959 28.9044C18.4722 27.6439 18.9378 26.3358 19.2877 24.995C19.3554 24.7447 19.4205 24.4944 19.4857 24.2441C19.6111 23.7661 19.7365 23.283 19.8443 22.8L24.6689 9.93539C25.6711 8.60318 26.9703 7.52216 28.4636 6.77799C29.9569 6.03383 31.6034 5.64696 33.2724 5.64803C35.6759 5.63326 38.0128 6.43663 39.8975 7.92561C43.052 10.3083 44.9302 15.0011 44.9302 15.0011C45.204 15.6121 45.3449 16.2741 45.3439 16.9433C45.3427 17.5632 45.2191 18.1768 44.9801 18.749C44.7414 19.3212 44.3918 19.8408 43.9517 20.2782C43.5116 20.7156 42.9896 21.0622 42.4153 21.2982C41.8411 21.5342 41.2257 21.655 40.6046 21.6537C39.914 21.6532 39.2317 21.5012 38.6065 21.2084C37.9812 20.9156 37.428 20.4892 36.9861 19.9593L36.941 19.9042C36.6378 19.4957 36.3851 19.0519 36.1887 18.5827C35.9287 17.9937 35.6373 17.4189 35.3161 16.8607C35.1456 16.5729 34.955 16.3001 34.7594 16.0298C34.5904 15.7882 34.3905 15.5695 34.1651 15.3791C33.7213 15.0212 33.1621 14.8785 32.6405 15.1863C32.6154 15.2007 32.5911 15.2166 32.5678 15.2339C32.0311 15.6018 31.655 16.3452 31.3942 16.9158C30.6419 18.5326 30.2106 20.1895 29.7843 21.8914C29.7041 22.2193 29.6239 22.5472 29.5486 22.8776L27.5551 29.3849L24.7441 35.5719C23.7378 36.8682 22.4499 37.9196 20.9774 38.6472C19.505 39.3745 17.8863 39.7592 16.2434 39.7717C9.41526 39.9169 6.17545 33.7649 6.17545 33.7649C2.28619 27.3977 1.14023 18.9982 0.866899 16.3126C0.809224 15.7545 0.806717 15.4216 0.806717 15.4216C0.806401 14.5804 1.0363 13.7551 1.4716 13.0348C1.9069 12.3145 2.53106 11.7266 3.27669 11.3345C4.04766 10.9446 4.90561 10.7576 5.76925 10.7914C6.57273 10.8249 7.35449 11.0617 8.04112 11.4796C8.57466 11.7984 9.03583 12.2246 9.3952 12.7311C10.0371 13.6421 10.1826 14.7759 10.3105 15.8596C10.576 18.2363 11.0416 20.5864 11.7022 22.8851Z" fill="url(#paint13_radial_1545_14580)"/>
<path d="M11.7022 22.8851C12.2276 24.7287 12.9436 26.5128 13.8386 28.2086C14.2474 28.9595 14.6561 29.7103 15.3984 30.1834C15.527 30.264 15.6687 30.3216 15.8171 30.3535C16.9104 30.5863 17.5098 29.7078 17.8959 28.9044C18.4722 27.6439 18.9378 26.3358 19.2877 24.995C19.3554 24.7447 19.4205 24.4944 19.4857 24.2441C19.6111 23.7661 19.7365 23.283 19.8443 22.8L24.6689 9.93539C25.6711 8.60318 26.9703 7.52216 28.4636 6.77799C29.9569 6.03383 31.6034 5.64696 33.2724 5.64803C35.6759 5.63326 38.0128 6.43663 39.8975 7.92561C43.052 10.3083 44.9302 15.0011 44.9302 15.0011C45.204 15.6121 45.3449 16.2741 45.3439 16.9433C45.3427 17.5632 45.2191 18.1768 44.9801 18.749C44.7414 19.3212 44.3918 19.8408 43.9517 20.2782C43.5116 20.7156 42.9896 21.0622 42.4153 21.2982C41.8411 21.5342 41.2257 21.655 40.6046 21.6537C39.914 21.6532 39.2317 21.5012 38.6065 21.2084C37.9812 20.9156 37.428 20.4892 36.9861 19.9593L36.941 19.9042C36.6378 19.4957 36.3851 19.0519 36.1887 18.5827C35.9287 17.9937 35.6373 17.4189 35.3161 16.8607C35.1456 16.5729 34.955 16.3001 34.7594 16.0298C34.5904 15.7882 34.3905 15.5695 34.1651 15.3791C33.7213 15.0212 33.1621 14.8785 32.6405 15.1863C32.6154 15.2007 32.5911 15.2166 32.5678 15.2339C32.0311 15.6018 31.655 16.3452 31.3942 16.9158C30.6419 18.5326 30.2106 20.1895 29.7843 21.8914C29.7041 22.2193 29.6239 22.5472 29.5486 22.8776L27.5551 29.3849L24.7441 35.5719C23.7378 36.8682 22.4499 37.9196 20.9774 38.6472C19.505 39.3745 17.8863 39.7592 16.2434 39.7717C9.41526 39.9169 6.17545 33.7649 6.17545 33.7649C2.28619 27.3977 1.14023 18.9982 0.866899 16.3126C0.809224 15.7545 0.806717 15.4216 0.806717 15.4216C0.806401 14.5804 1.0363 13.7551 1.4716 13.0348C1.9069 12.3145 2.53106 11.7266 3.27669 11.3345C4.04766 10.9446 4.90561 10.7576 5.76925 10.7914C6.57273 10.8249 7.35449 11.0617 8.04112 11.4796C8.57466 11.7984 9.03583 12.2246 9.3952 12.7311C10.0371 13.6421 10.1826 14.7759 10.3105 15.8596C10.576 18.2363 11.0416 20.5864 11.7022 22.8851Z" fill="url(#paint14_radial_1545_14580)"/>
<path d="M11.7022 22.8851C12.2276 24.7287 12.9436 26.5128 13.8386 28.2086C14.2474 28.9595 14.6561 29.7103 15.3984 30.1834C15.527 30.264 15.6687 30.3216 15.8171 30.3535C16.9104 30.5863 17.5098 29.7078 17.8959 28.9044C18.4722 27.6439 18.9378 26.3358 19.2877 24.995C19.3554 24.7447 19.4205 24.4944 19.4857 24.2441C19.6111 23.7661 19.7365 23.283 19.8443 22.8L24.6689 9.93539C25.6711 8.60318 26.9703 7.52216 28.4636 6.77799C29.9569 6.03383 31.6034 5.64696 33.2724 5.64803C35.6759 5.63326 38.0128 6.43663 39.8975 7.92561C43.052 10.3083 44.9302 15.0011 44.9302 15.0011C45.204 15.6121 45.3449 16.2741 45.3439 16.9433C45.3427 17.5632 45.2191 18.1768 44.9801 18.749C44.7414 19.3212 44.3918 19.8408 43.9517 20.2782C43.5116 20.7156 42.9896 21.0622 42.4153 21.2982C41.8411 21.5342 41.2257 21.655 40.6046 21.6537C39.914 21.6532 39.2317 21.5012 38.6065 21.2084C37.9812 20.9156 37.428 20.4892 36.9861 19.9593L36.941 19.9042C36.6378 19.4957 36.3851 19.0519 36.1887 18.5827C35.9287 17.9937 35.6373 17.4189 35.3161 16.8607C35.1456 16.5729 34.955 16.3001 34.7594 16.0298C34.5904 15.7882 34.3905 15.5695 34.1651 15.3791C33.7213 15.0212 33.1621 14.8785 32.6405 15.1863C32.6154 15.2007 32.5911 15.2166 32.5678 15.2339C32.0311 15.6018 31.655 16.3452 31.3942 16.9158C30.6419 18.5326 30.2106 20.1895 29.7843 21.8914C29.7041 22.2193 29.6239 22.5472 29.5486 22.8776L27.5551 29.3849L24.7441 35.5719C23.7378 36.8682 22.4499 37.9196 20.9774 38.6472C19.505 39.3745 17.8863 39.7592 16.2434 39.7717C9.41526 39.9169 6.17545 33.7649 6.17545 33.7649C2.28619 27.3977 1.14023 18.9982 0.866899 16.3126C0.809224 15.7545 0.806717 15.4216 0.806717 15.4216C0.806401 14.5804 1.0363 13.7551 1.4716 13.0348C1.9069 12.3145 2.53106 11.7266 3.27669 11.3345C4.04766 10.9446 4.90561 10.7576 5.76925 10.7914C6.57273 10.8249 7.35449 11.0617 8.04112 11.4796C8.57466 11.7984 9.03583 12.2246 9.3952 12.7311C10.0371 13.6421 10.1826 14.7759 10.3105 15.8596C10.576 18.2363 11.0416 20.5864 11.7022 22.8851Z" fill="url(#paint15_radial_1545_14580)"/>
<path d="M11.7022 22.8851C12.2276 24.7287 12.9436 26.5128 13.8386 28.2086C14.2474 28.9595 14.6561 29.7103 15.3984 30.1834C15.527 30.264 15.6687 30.3216 15.8171 30.3535C16.9104 30.5863 17.5098 29.7078 17.8959 28.9044C18.4722 27.6439 18.9378 26.3358 19.2877 24.995C19.3554 24.7447 19.4205 24.4944 19.4857 24.2441C19.6111 23.7661 19.7365 23.283 19.8443 22.8L24.6689 9.93539C25.6711 8.60318 26.9703 7.52216 28.4636 6.77799C29.9569 6.03383 31.6034 5.64696 33.2724 5.64803C35.6759 5.63326 38.0128 6.43663 39.8975 7.92561C43.052 10.3083 44.9302 15.0011 44.9302 15.0011C45.204 15.6121 45.3449 16.2741 45.3439 16.9433C45.3427 17.5632 45.2191 18.1768 44.9801 18.749C44.7414 19.3212 44.3918 19.8408 43.9517 20.2782C43.5116 20.7156 42.9896 21.0622 42.4153 21.2982C41.8411 21.5342 41.2257 21.655 40.6046 21.6537C39.914 21.6532 39.2317 21.5012 38.6065 21.2084C37.9812 20.9156 37.428 20.4892 36.9861 19.9593L36.941 19.9042C36.6378 19.4957 36.3851 19.0519 36.1887 18.5827C35.9287 17.9937 35.6373 17.4189 35.3161 16.8607C35.1456 16.5729 34.955 16.3001 34.7594 16.0298C34.5904 15.7882 34.3905 15.5695 34.1651 15.3791C33.7213 15.0212 33.1621 14.8785 32.6405 15.1863C32.6154 15.2007 32.5911 15.2166 32.5678 15.2339C32.0311 15.6018 31.655 16.3452 31.3942 16.9158C30.6419 18.5326 30.2106 20.1895 29.7843 21.8914C29.7041 22.2193 29.6239 22.5472 29.5486 22.8776L27.5551 29.3849L24.7441 35.5719C23.7378 36.8682 22.4499 37.9196 20.9774 38.6472C19.505 39.3745 17.8863 39.7592 16.2434 39.7717C9.41526 39.9169 6.17545 33.7649 6.17545 33.7649C2.28619 27.3977 1.14023 18.9982 0.866899 16.3126C0.809224 15.7545 0.806717 15.4216 0.806717 15.4216C0.806401 14.5804 1.0363 13.7551 1.4716 13.0348C1.9069 12.3145 2.53106 11.7266 3.27669 11.3345C4.04766 10.9446 4.90561 10.7576 5.76925 10.7914C6.57273 10.8249 7.35449 11.0617 8.04112 11.4796C8.57466 11.7984 9.03583 12.2246 9.3952 12.7311C10.0371 13.6421 10.1826 14.7759 10.3105 15.8596C10.576 18.2363 11.0416 20.5864 11.7022 22.8851Z" fill="url(#paint16_linear_1545_14580)"/>
<path d="M11.7022 22.8851C12.2276 24.7287 12.9436 26.5128 13.8386 28.2086C14.2474 28.9595 14.6561 29.7103 15.3984 30.1834C15.527 30.264 15.6687 30.3216 15.8171 30.3535C16.9104 30.5863 17.5098 29.7078 17.8959 28.9044C18.4722 27.6439 18.9378 26.3358 19.2877 24.995C19.3554 24.7447 19.4205 24.4944 19.4857 24.2441C19.6111 23.7661 19.7365 23.283 19.8443 22.8L24.6689 9.93539C25.6711 8.60318 26.9703 7.52216 28.4636 6.77799C29.9569 6.03383 31.6034 5.64696 33.2724 5.64803C35.6759 5.63326 38.0128 6.43663 39.8975 7.92561C43.052 10.3083 44.9302 15.0011 44.9302 15.0011C45.204 15.6121 45.3449 16.2741 45.3439 16.9433C45.3427 17.5632 45.2191 18.1768 44.9801 18.749C44.7414 19.3212 44.3918 19.8408 43.9517 20.2782C43.5116 20.7156 42.9896 21.0622 42.4153 21.2982C41.8411 21.5342 41.2257 21.655 40.6046 21.6537C39.914 21.6532 39.2317 21.5012 38.6065 21.2084C37.9812 20.9156 37.428 20.4892 36.9861 19.9593L36.941 19.9042C36.6378 19.4957 36.3851 19.0519 36.1887 18.5827C35.9287 17.9937 35.6373 17.4189 35.3161 16.8607C35.1456 16.5729 34.955 16.3001 34.7594 16.0298C34.5904 15.7882 34.3905 15.5695 34.1651 15.3791C33.7213 15.0212 33.1621 14.8785 32.6405 15.1863C32.6154 15.2007 32.5911 15.2166 32.5678 15.2339C32.0311 15.6018 31.655 16.3452 31.3942 16.9158C30.6419 18.5326 30.2106 20.1895 29.7843 21.8914C29.7041 22.2193 29.6239 22.5472 29.5486 22.8776L27.5551 29.3849L24.7441 35.5719C23.7378 36.8682 22.4499 37.9196 20.9774 38.6472C19.505 39.3745 17.8863 39.7592 16.2434 39.7717C9.41526 39.9169 6.17545 33.7649 6.17545 33.7649C2.28619 27.3977 1.14023 18.9982 0.866899 16.3126C0.809224 15.7545 0.806717 15.4216 0.806717 15.4216C0.806401 14.5804 1.0363 13.7551 1.4716 13.0348C1.9069 12.3145 2.53106 11.7266 3.27669 11.3345C4.04766 10.9446 4.90561 10.7576 5.76925 10.7914C6.57273 10.8249 7.35449 11.0617 8.04112 11.4796C8.57466 11.7984 9.03583 12.2246 9.3952 12.7311C10.0371 13.6421 10.1826 14.7759 10.3105 15.8596C10.576 18.2363 11.0416 20.5864 11.7022 22.8851Z" fill="url(#paint17_linear_1545_14580)"/>
<path d="M11.7022 22.8851C12.2276 24.7287 12.9436 26.5128 13.8386 28.2086C14.2474 28.9595 14.6561 29.7103 15.3984 30.1834C15.527 30.264 15.6687 30.3216 15.8171 30.3535C16.9104 30.5863 17.5098 29.7078 17.8959 28.9044C18.4722 27.6439 18.9378 26.3358 19.2877 24.995C19.3554 24.7447 19.4205 24.4944 19.4857 24.2441C19.6111 23.7661 19.7365 23.283 19.8443 22.8L24.6689 9.93539C25.6711 8.60318 26.9703 7.52216 28.4636 6.77799C29.9569 6.03383 31.6034 5.64696 33.2724 5.64803C35.6759 5.63326 38.0128 6.43663 39.8975 7.92561C43.052 10.3083 44.9302 15.0011 44.9302 15.0011C45.204 15.6121 45.3449 16.2741 45.3439 16.9433C45.3427 17.5632 45.2191 18.1768 44.9801 18.749C44.7414 19.3212 44.3918 19.8408 43.9517 20.2782C43.5116 20.7156 42.9896 21.0622 42.4153 21.2982C41.8411 21.5342 41.2257 21.655 40.6046 21.6537C39.914 21.6532 39.2317 21.5012 38.6065 21.2084C37.9812 20.9156 37.428 20.4892 36.9861 19.9593L36.941 19.9042C36.6378 19.4957 36.3851 19.0519 36.1887 18.5827C35.9287 17.9937 35.6373 17.4189 35.3161 16.8607C35.1456 16.5729 34.955 16.3001 34.7594 16.0298C34.5904 15.7882 34.3905 15.5695 34.1651 15.3791C33.7213 15.0212 33.1621 14.8785 32.6405 15.1863C32.6154 15.2007 32.5911 15.2166 32.5678 15.2339C32.0311 15.6018 31.655 16.3452 31.3942 16.9158C30.6419 18.5326 30.2106 20.1895 29.7843 21.8914C29.7041 22.2193 29.6239 22.5472 29.5486 22.8776L27.5551 29.3849L24.7441 35.5719C23.7378 36.8682 22.4499 37.9196 20.9774 38.6472C19.505 39.3745 17.8863 39.7592 16.2434 39.7717C9.41526 39.9169 6.17545 33.7649 6.17545 33.7649C2.28619 27.3977 1.14023 18.9982 0.866899 16.3126C0.809224 15.7545 0.806717 15.4216 0.806717 15.4216C0.806401 14.5804 1.0363 13.7551 1.4716 13.0348C1.9069 12.3145 2.53106 11.7266 3.27669 11.3345C4.04766 10.9446 4.90561 10.7576 5.76925 10.7914C6.57273 10.8249 7.35449 11.0617 8.04112 11.4796C8.57466 11.7984 9.03583 12.2246 9.3952 12.7311C10.0371 13.6421 10.1826 14.7759 10.3105 15.8596C10.576 18.2363 11.0416 20.5864 11.7022 22.8851Z" fill="url(#paint18_linear_1545_14580)"/>
<path d="M11.7022 22.8851C12.2276 24.7287 12.9436 26.5128 13.8386 28.2086C14.2474 28.9595 14.6561 29.7103 15.3984 30.1834C15.527 30.264 15.6687 30.3216 15.8171 30.3535C16.9104 30.5863 17.5098 29.7078 17.8959 28.9044C18.4722 27.6439 18.9378 26.3358 19.2877 24.995C19.3554 24.7447 19.4205 24.4944 19.4857 24.2441C19.6111 23.7661 19.7365 23.283 19.8443 22.8L24.6689 9.93539C25.6711 8.60318 26.9703 7.52216 28.4636 6.77799C29.9569 6.03383 31.6034 5.64696 33.2724 5.64803C35.6759 5.63326 38.0128 6.43663 39.8975 7.92561C43.052 10.3083 44.9302 15.0011 44.9302 15.0011C45.204 15.6121 45.3449 16.2741 45.3439 16.9433C45.3427 17.5632 45.2191 18.1768 44.9801 18.749C44.7414 19.3212 44.3918 19.8408 43.9517 20.2782C43.5116 20.7156 42.9896 21.0622 42.4153 21.2982C41.8411 21.5342 41.2257 21.655 40.6046 21.6537C39.914 21.6532 39.2317 21.5012 38.6065 21.2084C37.9812 20.9156 37.428 20.4892 36.9861 19.9593L36.941 19.9042C36.6378 19.4957 36.3851 19.0519 36.1887 18.5827C35.9287 17.9937 35.6373 17.4189 35.3161 16.8607C35.1456 16.5729 34.955 16.3001 34.7594 16.0298C34.5904 15.7882 34.3905 15.5695 34.1651 15.3791C33.7213 15.0212 33.1621 14.8785 32.6405 15.1863C32.6154 15.2007 32.5911 15.2166 32.5678 15.2339C32.0311 15.6018 31.655 16.3452 31.3942 16.9158C30.6419 18.5326 30.2106 20.1895 29.7843 21.8914C29.7041 22.2193 29.6239 22.5472 29.5486 22.8776L27.5551 29.3849L24.7441 35.5719C23.7378 36.8682 22.4499 37.9196 20.9774 38.6472C19.505 39.3745 17.8863 39.7592 16.2434 39.7717C9.41526 39.9169 6.17545 33.7649 6.17545 33.7649C2.28619 27.3977 1.14023 18.9982 0.866899 16.3126C0.809224 15.7545 0.806717 15.4216 0.806717 15.4216C0.806401 14.5804 1.0363 13.7551 1.4716 13.0348C1.9069 12.3145 2.53106 11.7266 3.27669 11.3345C4.04766 10.9446 4.90561 10.7576 5.76925 10.7914C6.57273 10.8249 7.35449 11.0617 8.04112 11.4796C8.57466 11.7984 9.03583 12.2246 9.3952 12.7311C10.0371 13.6421 10.1826 14.7759 10.3105 15.8596C10.576 18.2363 11.0416 20.5864 11.7022 22.8851Z" fill="url(#paint19_linear_1545_14580)"/>
<path d="M21.6019 18.1122L24.6687 9.93789C25.6708 8.60568 26.9702 7.52466 28.4634 6.7805C29.9567 6.03633 31.6032 5.64946 33.2722 5.65053C35.6758 5.63576 38.0126 6.43913 39.8973 7.92811C43.0518 10.3108 44.93 15.0036 44.93 15.0036C45.2038 15.6146 45.3448 16.2766 45.3438 16.9458C45.3425 17.5657 45.2189 18.1793 44.9799 18.7515C44.7409 19.3237 44.3916 19.8433 43.9515 20.2807C43.5115 20.7181 42.9894 21.0647 42.4149 21.3007C41.8407 21.5367 41.2255 21.6575 40.6044 21.6562C39.9138 21.6557 39.2315 21.5037 38.6064 21.2109C37.981 20.9181 37.4278 20.4916 36.986 19.9618L36.9408 19.9067C36.6374 19.4982 36.3849 19.0544 36.1886 18.5852C35.9283 17.9962 35.6371 17.4214 35.3159 16.8632C35.1454 16.5754 34.9548 16.3026 34.7592 16.0323C34.5902 15.7907 34.3904 15.572 34.1649 15.3816C33.7211 15.0237 33.1619 14.881 32.6403 15.1888C32.6152 15.2032 32.5909 15.2191 32.5676 15.2364C32.031 15.6043 31.6548 16.3477 31.394 16.9183C30.6418 18.5351 30.2105 20.192 29.7842 21.8939C29.7039 22.2218 29.6237 22.5497 29.5485 22.8801L27.5549 29.3875L21.6019 18.1122Z" fill="url(#paint20_linear_1545_14580)"/>
<path d="M43.8819 10.8114C43.4834 10.8105 43.0867 10.8601 42.7008 10.959C43.5805 12.2277 44.3272 13.583 44.9301 15.0036C45.2039 15.6146 45.3448 16.2765 45.3438 16.9458C45.3426 17.5657 45.2189 18.1793 44.98 18.7515C44.741 19.3237 44.3917 19.8433 43.9516 20.2807C43.5115 20.7181 42.9894 21.0647 42.4149 21.3007C41.8407 21.5367 41.2256 21.6575 40.6045 21.6562C39.7649 21.6546 38.9409 21.43 38.2172 21.0054L37.7308 22.8C36.8481 25.7458 36.2262 26.8846 36.2262 26.8846C35.8837 27.6833 35.476 28.4526 35.0075 29.1847C34.6841 29.6628 34.2703 30.1433 33.7036 30.326C33.5065 30.3945 33.2959 30.4151 33.0892 30.3861C32.8655 30.359 32.6496 30.2866 32.4548 30.1733C32.0822 29.8936 31.7858 29.5254 31.5922 29.1021C31.3525 28.6322 31.1373 28.1502 30.9477 27.658C30.529 26.6418 29.882 24.139 29.882 24.139L29.2125 21.5185L28.543 18.878L28.0665 17.1436C26.8127 12.6259 25.0775 10.4034 25.0775 10.4034C23.7136 8.4623 21.7813 6.99003 19.5457 6.18863C16.9529 5.26008 14.2321 5.78317 14.2321 5.78317C9.96924 6.61912 7.72996 9.53742 6.74448 10.9415C7.19552 11.0591 7.62712 11.2412 8.02585 11.4821C8.55942 11.8009 9.02059 12.2271 9.37995 12.7335C10.0219 13.6446 10.1673 14.7784 10.2952 15.8621C10.5642 18.2109 11.0289 20.5332 11.6844 22.805C13.1288 18.0245 14.8615 15.797 14.8615 15.797C15.0552 15.5569 15.2873 15.3506 15.5486 15.1863C15.6846 15.103 15.8367 15.0493 15.995 15.0287C16.2883 15.0005 16.5824 15.072 16.83 15.2314C16.8753 15.2612 16.9181 15.2947 16.9579 15.3315C17.1844 15.5319 17.3789 15.7657 17.5346 16.0248C17.8953 16.6683 18.208 17.3376 18.47 18.0271C19.0116 19.5488 19.473 21.4084 19.473 21.4084L20.8522 26.8345C21.8552 30.5237 22.7053 32.3158 22.7053 32.3158C24.7991 37.1012 28.0013 38.4477 28.0013 38.4477C29.5603 39.2799 31.294 39.7327 33.0616 39.7692C34.749 39.815 36.4226 39.4554 37.9414 38.7205C39.6067 37.9031 41.0676 36.7238 42.2169 35.2691C42.9917 34.3731 44.1326 32.1906 44.1326 32.1906C45.3907 29.6885 46.3784 27.0599 47.0791 24.3492C47.5267 22.6605 47.8858 20.9495 48.1548 19.2234C48.2902 18.3674 48.4181 17.5065 48.5209 16.643C48.6491 15.8254 48.6235 14.991 48.4457 14.1827C48.4083 14.0374 48.3624 13.8945 48.3078 13.7547C47.9048 12.7404 47.1576 11.8997 46.1964 11.3795C45.484 11.0015 44.6886 10.8063 43.8819 10.8114Z" fill="url(#paint21_linear_1545_14580)"/>
<path d="M43.8819 10.8114C43.4834 10.8105 43.0867 10.8601 42.7008 10.959C43.5805 12.2277 44.3272 13.583 44.9301 15.0036C45.2039 15.6146 45.3448 16.2765 45.3438 16.9458C45.3426 17.5657 45.2189 18.1793 44.98 18.7515C44.741 19.3237 44.3917 19.8433 43.9516 20.2807C43.5115 20.7181 42.9894 21.0647 42.4149 21.3007C41.8407 21.5367 41.2256 21.6575 40.6045 21.6562C39.7649 21.6546 38.9409 21.43 38.2172 21.0054L37.7308 22.8C36.8481 25.7458 36.2262 26.8846 36.2262 26.8846C35.8837 27.6833 35.476 28.4526 35.0075 29.1847C34.6841 29.6628 34.2703 30.1433 33.7036 30.326C33.5065 30.3945 33.2959 30.4151 33.0892 30.3861C32.8655 30.359 32.6496 30.2866 32.4548 30.1733C32.0822 29.8936 31.7858 29.5254 31.5922 29.1021C31.3525 28.6322 31.1373 28.1502 30.9477 27.658C30.529 26.6418 29.882 24.139 29.882 24.139L29.2125 21.5185L28.543 18.878L28.0665 17.1436C26.8127 12.6259 25.0775 10.4034 25.0775 10.4034C23.7136 8.4623 21.7813 6.99003 19.5457 6.18863C16.9529 5.26008 14.2321 5.78317 14.2321 5.78317C9.96924 6.61912 7.72996 9.53742 6.74448 10.9415C7.19552 11.0591 7.62712 11.2412 8.02585 11.4821C8.55942 11.8009 9.02059 12.2271 9.37995 12.7335C10.0219 13.6446 10.1673 14.7784 10.2952 15.8621C10.5642 18.2109 11.0289 20.5332 11.6844 22.805C13.1288 18.0245 14.8615 15.797 14.8615 15.797C15.0552 15.5569 15.2873 15.3506 15.5486 15.1863C15.6846 15.103 15.8367 15.0493 15.995 15.0287C16.2883 15.0005 16.5824 15.072 16.83 15.2314C16.8753 15.2612 16.9181 15.2947 16.9579 15.3315C17.1844 15.5319 17.3789 15.7657 17.5346 16.0248C17.8953 16.6683 18.208 17.3376 18.47 18.0271C19.0116 19.5488 19.473 21.4084 19.473 21.4084L20.8522 26.8345C21.8552 30.5237 22.7053 32.3158 22.7053 32.3158C24.7991 37.1012 28.0013 38.4477 28.0013 38.4477C29.5603 39.2799 31.294 39.7327 33.0616 39.7692C34.749 39.815 36.4226 39.4554 37.9414 38.7205C39.6067 37.9031 41.0676 36.7238 42.2169 35.2691C42.9917 34.3731 44.1326 32.1906 44.1326 32.1906C45.3907 29.6885 46.3784 27.0599 47.0791 24.3492C47.5267 22.6605 47.8858 20.9495 48.1548 19.2234C48.2902 18.3674 48.4181 17.5065 48.5209 16.643C48.6491 15.8254 48.6235 14.991 48.4457 14.1827C48.4083 14.0374 48.3624 13.8945 48.3078 13.7547C47.9048 12.7404 47.1576 11.8997 46.1964 11.3795C45.484 11.0015 44.6886 10.8063 43.8819 10.8114Z" fill="url(#paint22_radial_1545_14580)"/>
<path d="M43.8819 10.8114C43.4834 10.8105 43.0867 10.8601 42.7008 10.959C43.5805 12.2277 44.3272 13.583 44.9301 15.0036C45.2039 15.6146 45.3448 16.2765 45.3438 16.9458C45.3426 17.5657 45.2189 18.1793 44.98 18.7515C44.741 19.3237 44.3917 19.8433 43.9516 20.2807C43.5115 20.7181 42.9894 21.0647 42.4149 21.3007C41.8407 21.5367 41.2256 21.6575 40.6045 21.6562C39.7649 21.6546 38.9409 21.43 38.2172 21.0054L37.7308 22.8C36.8481 25.7458 36.2262 26.8846 36.2262 26.8846C35.8837 27.6833 35.476 28.4526 35.0075 29.1847C34.6841 29.6628 34.2703 30.1433 33.7036 30.326C33.5065 30.3945 33.2959 30.4151 33.0892 30.3861C32.8655 30.359 32.6496 30.2866 32.4548 30.1733C32.0822 29.8936 31.7858 29.5254 31.5922 29.1021C31.3525 28.6322 31.1373 28.1502 30.9477 27.658C30.529 26.6418 29.882 24.139 29.882 24.139L29.2125 21.5185L28.543 18.878L28.0665 17.1436C26.8127 12.6259 25.0775 10.4034 25.0775 10.4034C23.7136 8.4623 21.7813 6.99003 19.5457 6.18863C16.9529 5.26008 14.2321 5.78317 14.2321 5.78317C9.96924 6.61912 7.72996 9.53742 6.74448 10.9415C7.19552 11.0591 7.62712 11.2412 8.02585 11.4821C8.55942 11.8009 9.02059 12.2271 9.37995 12.7335C10.0219 13.6446 10.1673 14.7784 10.2952 15.8621C10.5642 18.2109 11.0289 20.5332 11.6844 22.805C13.1288 18.0245 14.8615 15.797 14.8615 15.797C15.0552 15.5569 15.2873 15.3506 15.5486 15.1863C15.6846 15.103 15.8367 15.0493 15.995 15.0287C16.2883 15.0005 16.5824 15.072 16.83 15.2314C16.8753 15.2612 16.9181 15.2947 16.9579 15.3315C17.1844 15.5319 17.3789 15.7657 17.5346 16.0248C17.8953 16.6683 18.208 17.3376 18.47 18.0271C19.0116 19.5488 19.473 21.4084 19.473 21.4084L20.8522 26.8345C21.8552 30.5237 22.7053 32.3158 22.7053 32.3158C24.7991 37.1012 28.0013 38.4477 28.0013 38.4477C29.5603 39.2799 31.294 39.7327 33.0616 39.7692C34.749 39.815 36.4226 39.4554 37.9414 38.7205C39.6067 37.9031 41.0676 36.7238 42.2169 35.2691C42.9917 34.3731 44.1326 32.1906 44.1326 32.1906C45.3907 29.6885 46.3784 27.0599 47.0791 24.3492C47.5267 22.6605 47.8858 20.9495 48.1548 19.2234C48.2902 18.3674 48.4181 17.5065 48.5209 16.643C48.6491 15.8254 48.6235 14.991 48.4457 14.1827C48.4083 14.0374 48.3624 13.8945 48.3078 13.7547C47.9048 12.7404 47.1576 11.8997 46.1964 11.3795C45.484 11.0015 44.6886 10.8063 43.8819 10.8114Z" fill="url(#paint23_radial_1545_14580)"/>
<path d="M43.8819 10.8114C43.4834 10.8105 43.0867 10.8601 42.7008 10.959C43.5805 12.2277 44.3272 13.583 44.9301 15.0036C45.2039 15.6146 45.3448 16.2765 45.3438 16.9458C45.3426 17.5657 45.2189 18.1793 44.98 18.7515C44.741 19.3237 44.3917 19.8433 43.9516 20.2807C43.5115 20.7181 42.9894 21.0647 42.4149 21.3007C41.8407 21.5367 41.2256 21.6575 40.6045 21.6562C39.7649 21.6546 38.9409 21.43 38.2172 21.0054L37.7308 22.8C36.8481 25.7458 36.2262 26.8846 36.2262 26.8846C35.8837 27.6833 35.476 28.4526 35.0075 29.1847C34.6841 29.6628 34.2703 30.1433 33.7036 30.326C33.5065 30.3945 33.2959 30.4151 33.0892 30.3861C32.8655 30.359 32.6496 30.2866 32.4548 30.1733C32.0822 29.8936 31.7858 29.5254 31.5922 29.1021C31.3525 28.6322 31.1373 28.1502 30.9477 27.658C30.529 26.6418 29.882 24.139 29.882 24.139L29.2125 21.5185L28.543 18.878L28.0665 17.1436C26.8127 12.6259 25.0775 10.4034 25.0775 10.4034C23.7136 8.4623 21.7813 6.99003 19.5457 6.18863C16.9529 5.26008 14.2321 5.78317 14.2321 5.78317C9.96924 6.61912 7.72996 9.53742 6.74448 10.9415C7.19552 11.0591 7.62712 11.2412 8.02585 11.4821C8.55942 11.8009 9.02059 12.2271 9.37995 12.7335C10.0219 13.6446 10.1673 14.7784 10.2952 15.8621C10.5642 18.2109 11.0289 20.5332 11.6844 22.805C13.1288 18.0245 14.8615 15.797 14.8615 15.797C15.0552 15.5569 15.2873 15.3506 15.5486 15.1863C15.6846 15.103 15.8367 15.0493 15.995 15.0287C16.2883 15.0005 16.5824 15.072 16.83 15.2314C16.8753 15.2612 16.9181 15.2947 16.9579 15.3315C17.1844 15.5319 17.3789 15.7657 17.5346 16.0248C17.8953 16.6683 18.208 17.3376 18.47 18.0271C19.0116 19.5488 19.473 21.4084 19.473 21.4084L20.8522 26.8345C21.8552 30.5237 22.7053 32.3158 22.7053 32.3158C24.7991 37.1012 28.0013 38.4477 28.0013 38.4477C29.5603 39.2799 31.294 39.7327 33.0616 39.7692C34.749 39.815 36.4226 39.4554 37.9414 38.7205C39.6067 37.9031 41.0676 36.7238 42.2169 35.2691C42.9917 34.3731 44.1326 32.1906 44.1326 32.1906C45.3907 29.6885 46.3784 27.0599 47.0791 24.3492C47.5267 22.6605 47.8858 20.9495 48.1548 19.2234C48.2902 18.3674 48.4181 17.5065 48.5209 16.643C48.6491 15.8254 48.6235 14.991 48.4457 14.1827C48.4083 14.0374 48.3624 13.8945 48.3078 13.7547C47.9048 12.7404 47.1576 11.8997 46.1964 11.3795C45.484 11.0015 44.6886 10.8063 43.8819 10.8114Z" fill="url(#paint24_radial_1545_14580)"/>
<path d="M43.8819 10.8114C43.4834 10.8105 43.0867 10.8601 42.7008 10.959C43.5805 12.2277 44.3272 13.583 44.9301 15.0036C45.2039 15.6146 45.3448 16.2765 45.3438 16.9458C45.3426 17.5657 45.2189 18.1793 44.98 18.7515C44.741 19.3237 44.3917 19.8433 43.9516 20.2807C43.5115 20.7181 42.9894 21.0647 42.4149 21.3007C41.8407 21.5367 41.2256 21.6575 40.6045 21.6562C39.7649 21.6546 38.9409 21.43 38.2172 21.0054L37.7308 22.8C36.8481 25.7458 36.2262 26.8846 36.2262 26.8846C35.8837 27.6833 35.476 28.4526 35.0075 29.1847C34.6841 29.6628 34.2703 30.1433 33.7036 30.326C33.5065 30.3945 33.2959 30.4151 33.0892 30.3861C32.8655 30.359 32.6496 30.2866 32.4548 30.1733C32.0822 29.8936 31.7858 29.5254 31.5922 29.1021C31.3525 28.6322 31.1373 28.1502 30.9477 27.658C30.529 26.6418 29.882 24.139 29.882 24.139L29.2125 21.5185L28.543 18.878L28.0665 17.1436C26.8127 12.6259 25.0775 10.4034 25.0775 10.4034C23.7136 8.4623 21.7813 6.99003 19.5457 6.18863C16.9529 5.26008 14.2321 5.78317 14.2321 5.78317C9.96924 6.61912 7.72996 9.53742 6.74448 10.9415C7.19552 11.0591 7.62712 11.2412 8.02585 11.4821C8.55942 11.8009 9.02059 12.2271 9.37995 12.7335C10.0219 13.6446 10.1673 14.7784 10.2952 15.8621C10.5642 18.2109 11.0289 20.5332 11.6844 22.805C13.1288 18.0245 14.8615 15.797 14.8615 15.797C15.0552 15.5569 15.2873 15.3506 15.5486 15.1863C15.6846 15.103 15.8367 15.0493 15.995 15.0287C16.2883 15.0005 16.5824 15.072 16.83 15.2314C16.8753 15.2612 16.9181 15.2947 16.9579 15.3315C17.1844 15.5319 17.3789 15.7657 17.5346 16.0248C17.8953 16.6683 18.208 17.3376 18.47 18.0271C19.0116 19.5488 19.473 21.4084 19.473 21.4084L20.8522 26.8345C21.8552 30.5237 22.7053 32.3158 22.7053 32.3158C24.7991 37.1012 28.0013 38.4477 28.0013 38.4477C29.5603 39.2799 31.294 39.7327 33.0616 39.7692C34.749 39.815 36.4226 39.4554 37.9414 38.7205C39.6067 37.9031 41.0676 36.7238 42.2169 35.2691C42.9917 34.3731 44.1326 32.1906 44.1326 32.1906C45.3907 29.6885 46.3784 27.0599 47.0791 24.3492C47.5267 22.6605 47.8858 20.9495 48.1548 19.2234C48.2902 18.3674 48.4181 17.5065 48.5209 16.643C48.6491 15.8254 48.6235 14.991 48.4457 14.1827C48.4083 14.0374 48.3624 13.8945 48.3078 13.7547C47.9048 12.7404 47.1576 11.8997 46.1964 11.3795C45.484 11.0015 44.6886 10.8063 43.8819 10.8114Z" fill="url(#paint25_radial_1545_14580)"/>
<path d="M43.8819 10.8114C43.4834 10.8105 43.0867 10.8601 42.7008 10.959C43.5805 12.2277 44.3272 13.583 44.9301 15.0036C45.2039 15.6146 45.3448 16.2765 45.3438 16.9458C45.3426 17.5657 45.2189 18.1793 44.98 18.7515C44.741 19.3237 44.3917 19.8433 43.9516 20.2807C43.5115 20.7181 42.9894 21.0647 42.4149 21.3007C41.8407 21.5367 41.2256 21.6575 40.6045 21.6562C39.7649 21.6546 38.9409 21.43 38.2172 21.0054L37.7308 22.8C36.8481 25.7458 36.2262 26.8846 36.2262 26.8846C35.8837 27.6833 35.476 28.4526 35.0075 29.1847C34.6841 29.6628 34.2703 30.1433 33.7036 30.326C33.5065 30.3945 33.2959 30.4151 33.0892 30.3861C32.8655 30.359 32.6496 30.2866 32.4548 30.1733C32.0822 29.8936 31.7858 29.5254 31.5922 29.1021C31.3525 28.6322 31.1373 28.1502 30.9477 27.658C30.529 26.6418 29.882 24.139 29.882 24.139L29.2125 21.5185L28.543 18.878L28.0665 17.1436C26.8127 12.6259 25.0775 10.4034 25.0775 10.4034C23.7136 8.4623 21.7813 6.99003 19.5457 6.18863C16.9529 5.26008 14.2321 5.78317 14.2321 5.78317C9.96924 6.61912 7.72996 9.53742 6.74448 10.9415C7.19552 11.0591 7.62712 11.2412 8.02585 11.4821C8.55942 11.8009 9.02059 12.2271 9.37995 12.7335C10.0219 13.6446 10.1673 14.7784 10.2952 15.8621C10.5642 18.2109 11.0289 20.5332 11.6844 22.805C13.1288 18.0245 14.8615 15.797 14.8615 15.797C15.0552 15.5569 15.2873 15.3506 15.5486 15.1863C15.6846 15.103 15.8367 15.0493 15.995 15.0287C16.2883 15.0005 16.5824 15.072 16.83 15.2314C16.8753 15.2612 16.9181 15.2947 16.9579 15.3315C17.1844 15.5319 17.3789 15.7657 17.5346 16.0248C17.8953 16.6683 18.208 17.3376 18.47 18.0271C19.0116 19.5488 19.473 21.4084 19.473 21.4084L20.8522 26.8345C21.8552 30.5237 22.7053 32.3158 22.7053 32.3158C24.7991 37.1012 28.0013 38.4477 28.0013 38.4477C29.5603 39.2799 31.294 39.7327 33.0616 39.7692C34.749 39.815 36.4226 39.4554 37.9414 38.7205C39.6067 37.9031 41.0676 36.7238 42.2169 35.2691C42.9917 34.3731 44.1326 32.1906 44.1326 32.1906C45.3907 29.6885 46.3784 27.0599 47.0791 24.3492C47.5267 22.6605 47.8858 20.9495 48.1548 19.2234C48.2902 18.3674 48.4181 17.5065 48.5209 16.643C48.6491 15.8254 48.6235 14.991 48.4457 14.1827C48.4083 14.0374 48.3624 13.8945 48.3078 13.7547C47.9048 12.7404 47.1576 11.8997 46.1964 11.3795C45.484 11.0015 44.6886 10.8063 43.8819 10.8114Z" fill="url(#paint26_radial_1545_14580)"/>
<path d="M43.8819 10.8114C43.4834 10.8105 43.0867 10.8601 42.7008 10.959C43.5805 12.2277 44.3272 13.583 44.9301 15.0036C45.2039 15.6146 45.3448 16.2765 45.3438 16.9458C45.3426 17.5657 45.2189 18.1793 44.98 18.7515C44.741 19.3237 44.3917 19.8433 43.9516 20.2807C43.5115 20.7181 42.9894 21.0647 42.4149 21.3007C41.8407 21.5367 41.2256 21.6575 40.6045 21.6562C39.7649 21.6546 38.9409 21.43 38.2172 21.0054L37.7308 22.8C36.8481 25.7458 36.2262 26.8846 36.2262 26.8846C35.8837 27.6833 35.476 28.4526 35.0075 29.1847C34.6841 29.6628 34.2703 30.1433 33.7036 30.326C33.5065 30.3945 33.2959 30.4151 33.0892 30.3861C32.8655 30.359 32.6496 30.2866 32.4548 30.1733C32.0822 29.8936 31.7858 29.5254 31.5922 29.1021C31.3525 28.6322 31.1373 28.1502 30.9477 27.658C30.529 26.6418 29.882 24.139 29.882 24.139L29.2125 21.5185L28.543 18.878L28.0665 17.1436C26.8127 12.6259 25.0775 10.4034 25.0775 10.4034C23.7136 8.4623 21.7813 6.99003 19.5457 6.18863C16.9529 5.26008 14.2321 5.78317 14.2321 5.78317C9.96924 6.61912 7.72996 9.53742 6.74448 10.9415C7.19552 11.0591 7.62712 11.2412 8.02585 11.4821C8.55942 11.8009 9.02059 12.2271 9.37995 12.7335C10.0219 13.6446 10.1673 14.7784 10.2952 15.8621C10.5642 18.2109 11.0289 20.5332 11.6844 22.805C13.1288 18.0245 14.8615 15.797 14.8615 15.797C15.0552 15.5569 15.2873 15.3506 15.5486 15.1863C15.6846 15.103 15.8367 15.0493 15.995 15.0287C16.2883 15.0005 16.5824 15.072 16.83 15.2314C16.8753 15.2612 16.9181 15.2947 16.9579 15.3315C17.1844 15.5319 17.3789 15.7657 17.5346 16.0248C17.8953 16.6683 18.208 17.3376 18.47 18.0271C19.0116 19.5488 19.473 21.4084 19.473 21.4084L20.8522 26.8345C21.8552 30.5237 22.7053 32.3158 22.7053 32.3158C24.7991 37.1012 28.0013 38.4477 28.0013 38.4477C29.5603 39.2799 31.294 39.7327 33.0616 39.7692C34.749 39.815 36.4226 39.4554 37.9414 38.7205C39.6067 37.9031 41.0676 36.7238 42.2169 35.2691C42.9917 34.3731 44.1326 32.1906 44.1326 32.1906C45.3907 29.6885 46.3784 27.0599 47.0791 24.3492C47.5267 22.6605 47.8858 20.9495 48.1548 19.2234C48.2902 18.3674 48.4181 17.5065 48.5209 16.643C48.6491 15.8254 48.6235 14.991 48.4457 14.1827C48.4083 14.0374 48.3624 13.8945 48.3078 13.7547C47.9048 12.7404 47.1576 11.8997 46.1964 11.3795C45.484 11.0015 44.6886 10.8063 43.8819 10.8114Z" fill="url(#paint27_radial_1545_14580)"/>
<path d="M43.8819 10.8114C43.4834 10.8105 43.0867 10.8601 42.7008 10.959C43.5805 12.2277 44.3272 13.583 44.9301 15.0036C45.2039 15.6146 45.3448 16.2765 45.3438 16.9458C45.3426 17.5657 45.2189 18.1793 44.98 18.7515C44.741 19.3237 44.3917 19.8433 43.9516 20.2807C43.5115 20.7181 42.9894 21.0647 42.4149 21.3007C41.8407 21.5367 41.2256 21.6575 40.6045 21.6562C39.7649 21.6546 38.9409 21.43 38.2172 21.0054L37.7308 22.8C36.8481 25.7458 36.2262 26.8846 36.2262 26.8846C35.8837 27.6833 35.476 28.4526 35.0075 29.1847C34.6841 29.6628 34.2703 30.1433 33.7036 30.326C33.5065 30.3945 33.2959 30.4151 33.0892 30.3861C32.8655 30.359 32.6496 30.2866 32.4548 30.1733C32.0822 29.8936 31.7858 29.5254 31.5922 29.1021C31.3525 28.6322 31.1373 28.1502 30.9477 27.658C30.529 26.6418 29.882 24.139 29.882 24.139L29.2125 21.5185L28.543 18.878L28.0665 17.1436C26.8127 12.6259 25.0775 10.4034 25.0775 10.4034C23.7136 8.4623 21.7813 6.99003 19.5457 6.18863C16.9529 5.26008 14.2321 5.78317 14.2321 5.78317C9.96924 6.61912 7.72996 9.53742 6.74448 10.9415C7.19552 11.0591 7.62712 11.2412 8.02585 11.4821C8.55942 11.8009 9.02059 12.2271 9.37995 12.7335C10.0219 13.6446 10.1673 14.7784 10.2952 15.8621C10.5642 18.2109 11.0289 20.5332 11.6844 22.805C13.1288 18.0245 14.8615 15.797 14.8615 15.797C15.0552 15.5569 15.2873 15.3506 15.5486 15.1863C15.6846 15.103 15.8367 15.0493 15.995 15.0287C16.2883 15.0005 16.5824 15.072 16.83 15.2314C16.8753 15.2612 16.9181 15.2947 16.9579 15.3315C17.1844 15.5319 17.3789 15.7657 17.5346 16.0248C17.8953 16.6683 18.208 17.3376 18.47 18.0271C19.0116 19.5488 19.473 21.4084 19.473 21.4084L20.8522 26.8345C21.8552 30.5237 22.7053 32.3158 22.7053 32.3158C24.7991 37.1012 28.0013 38.4477 28.0013 38.4477C29.5603 39.2799 31.294 39.7327 33.0616 39.7692C34.749 39.815 36.4226 39.4554 37.9414 38.7205C39.6067 37.9031 41.0676 36.7238 42.2169 35.2691C42.9917 34.3731 44.1326 32.1906 44.1326 32.1906C45.3907 29.6885 46.3784 27.0599 47.0791 24.3492C47.5267 22.6605 47.8858 20.9495 48.1548 19.2234C48.2902 18.3674 48.4181 17.5065 48.5209 16.643C48.6491 15.8254 48.6235 14.991 48.4457 14.1827C48.4083 14.0374 48.3624 13.8945 48.3078 13.7547C47.9048 12.7404 47.1576 11.8997 46.1964 11.3795C45.484 11.0015 44.6886 10.8063 43.8819 10.8114Z" fill="url(#paint28_radial_1545_14580)"/>
<path d="M43.8819 10.8114C43.4834 10.8105 43.0867 10.8601 42.7008 10.959C43.5805 12.2277 44.3272 13.583 44.9301 15.0036C45.2039 15.6146 45.3448 16.2765 45.3438 16.9458C45.3426 17.5657 45.2189 18.1793 44.98 18.7515C44.741 19.3237 44.3917 19.8433 43.9516 20.2807C43.5115 20.7181 42.9894 21.0647 42.4149 21.3007C41.8407 21.5367 41.2256 21.6575 40.6045 21.6562C39.7649 21.6546 38.9409 21.43 38.2172 21.0054L37.7308 22.8C36.8481 25.7458 36.2262 26.8846 36.2262 26.8846C35.8837 27.6833 35.476 28.4526 35.0075 29.1847C34.6841 29.6628 34.2703 30.1433 33.7036 30.326C33.5065 30.3945 33.2959 30.4151 33.0892 30.3861C32.8655 30.359 32.6496 30.2866 32.4548 30.1733C32.0822 29.8936 31.7858 29.5254 31.5922 29.1021C31.3525 28.6322 31.1373 28.1502 30.9477 27.658C30.529 26.6418 29.882 24.139 29.882 24.139L29.2125 21.5185L28.543 18.878L28.0665 17.1436C26.8127 12.6259 25.0775 10.4034 25.0775 10.4034C23.7136 8.4623 21.7813 6.99003 19.5457 6.18863C16.9529 5.26008 14.2321 5.78317 14.2321 5.78317C9.96924 6.61912 7.72996 9.53742 6.74448 10.9415C7.19552 11.0591 7.62712 11.2412 8.02585 11.4821C8.55942 11.8009 9.02059 12.2271 9.37995 12.7335C10.0219 13.6446 10.1673 14.7784 10.2952 15.8621C10.5642 18.2109 11.0289 20.5332 11.6844 22.805C13.1288 18.0245 14.8615 15.797 14.8615 15.797C15.0552 15.5569 15.2873 15.3506 15.5486 15.1863C15.6846 15.103 15.8367 15.0493 15.995 15.0287C16.2883 15.0005 16.5824 15.072 16.83 15.2314C16.8753 15.2612 16.9181 15.2947 16.9579 15.3315C17.1844 15.5319 17.3789 15.7657 17.5346 16.0248C17.8953 16.6683 18.208 17.3376 18.47 18.0271C19.0116 19.5488 19.473 21.4084 19.473 21.4084L20.8522 26.8345C21.8552 30.5237 22.7053 32.3158 22.7053 32.3158C24.7991 37.1012 28.0013 38.4477 28.0013 38.4477C29.5603 39.2799 31.294 39.7327 33.0616 39.7692C34.749 39.815 36.4226 39.4554 37.9414 38.7205C39.6067 37.9031 41.0676 36.7238 42.2169 35.2691C42.9917 34.3731 44.1326 32.1906 44.1326 32.1906C45.3907 29.6885 46.3784 27.0599 47.0791 24.3492C47.5267 22.6605 47.8858 20.9495 48.1548 19.2234C48.2902 18.3674 48.4181 17.5065 48.5209 16.643C48.6491 15.8254 48.6235 14.991 48.4457 14.1827C48.4083 14.0374 48.3624 13.8945 48.3078 13.7547C47.9048 12.7404 47.1576 11.8997 46.1964 11.3795C45.484 11.0015 44.6886 10.8063 43.8819 10.8114Z" fill="url(#paint29_radial_1545_14580)"/>
<path d="M43.8819 10.8114C43.4834 10.8105 43.0867 10.8601 42.7008 10.959C43.5805 12.2277 44.3272 13.583 44.9301 15.0036C45.2039 15.6146 45.3448 16.2765 45.3438 16.9458C45.3426 17.5657 45.2189 18.1793 44.98 18.7515C44.741 19.3237 44.3917 19.8433 43.9516 20.2807C43.5115 20.7181 42.9894 21.0647 42.4149 21.3007C41.8407 21.5367 41.2256 21.6575 40.6045 21.6562C39.7649 21.6546 38.9409 21.43 38.2172 21.0054L37.7308 22.8C36.8481 25.7458 36.2262 26.8846 36.2262 26.8846C35.8837 27.6833 35.476 28.4526 35.0075 29.1847C34.6841 29.6628 34.2703 30.1433 33.7036 30.326C33.5065 30.3945 33.2959 30.4151 33.0892 30.3861C32.8655 30.359 32.6496 30.2866 32.4548 30.1733C32.0822 29.8936 31.7858 29.5254 31.5922 29.1021C31.3525 28.6322 31.1373 28.1502 30.9477 27.658C30.529 26.6418 29.882 24.139 29.882 24.139L29.2125 21.5185L28.543 18.878L28.0665 17.1436C26.8127 12.6259 25.0775 10.4034 25.0775 10.4034C23.7136 8.4623 21.7813 6.99003 19.5457 6.18863C16.9529 5.26008 14.2321 5.78317 14.2321 5.78317C9.96924 6.61912 7.72996 9.53742 6.74448 10.9415C7.19552 11.0591 7.62712 11.2412 8.02585 11.4821C8.55942 11.8009 9.02059 12.2271 9.37995 12.7335C10.0219 13.6446 10.1673 14.7784 10.2952 15.8621C10.5642 18.2109 11.0289 20.5332 11.6844 22.805C13.1288 18.0245 14.8615 15.797 14.8615 15.797C15.0552 15.5569 15.2873 15.3506 15.5486 15.1863C15.6846 15.103 15.8367 15.0493 15.995 15.0287C16.2883 15.0005 16.5824 15.072 16.83 15.2314C16.8753 15.2612 16.9181 15.2947 16.9579 15.3315C17.1844 15.5319 17.3789 15.7657 17.5346 16.0248C17.8953 16.6683 18.208 17.3376 18.47 18.0271C19.0116 19.5488 19.473 21.4084 19.473 21.4084L20.8522 26.8345C21.8552 30.5237 22.7053 32.3158 22.7053 32.3158C24.7991 37.1012 28.0013 38.4477 28.0013 38.4477C29.5603 39.2799 31.294 39.7327 33.0616 39.7692C34.749 39.815 36.4226 39.4554 37.9414 38.7205C39.6067 37.9031 41.0676 36.7238 42.2169 35.2691C42.9917 34.3731 44.1326 32.1906 44.1326 32.1906C45.3907 29.6885 46.3784 27.0599 47.0791 24.3492C47.5267 22.6605 47.8858 20.9495 48.1548 19.2234C48.2902 18.3674 48.4181 17.5065 48.5209 16.643C48.6491 15.8254 48.6235 14.991 48.4457 14.1827C48.4083 14.0374 48.3624 13.8945 48.3078 13.7547C47.9048 12.7404 47.1576 11.8997 46.1964 11.3795C45.484 11.0015 44.6886 10.8063 43.8819 10.8114Z" fill="url(#paint30_radial_1545_14580)"/>
<path d="M43.8819 10.8114C43.4834 10.8105 43.0867 10.8601 42.7008 10.959C43.5805 12.2277 44.3272 13.583 44.9301 15.0036C45.2039 15.6146 45.3448 16.2765 45.3438 16.9458C45.3426 17.5657 45.2189 18.1793 44.98 18.7515C44.741 19.3237 44.3917 19.8433 43.9516 20.2807C43.5115 20.7181 42.9894 21.0647 42.4149 21.3007C41.8407 21.5367 41.2256 21.6575 40.6045 21.6562C39.7649 21.6546 38.9409 21.43 38.2172 21.0054L37.7308 22.8C36.8481 25.7458 36.2262 26.8846 36.2262 26.8846C35.8837 27.6833 35.476 28.4526 35.0075 29.1847C34.6841 29.6628 34.2703 30.1433 33.7036 30.326C33.5065 30.3945 33.2959 30.4151 33.0892 30.3861C32.8655 30.359 32.6496 30.2866 32.4548 30.1733C32.0822 29.8936 31.7858 29.5254 31.5922 29.1021C31.3525 28.6322 31.1373 28.1502 30.9477 27.658C30.529 26.6418 29.882 24.139 29.882 24.139L29.2125 21.5185L28.543 18.878L28.0665 17.1436C26.8127 12.6259 25.0775 10.4034 25.0775 10.4034C23.7136 8.4623 21.7813 6.99003 19.5457 6.18863C16.9529 5.26008 14.2321 5.78317 14.2321 5.78317C9.96924 6.61912 7.72996 9.53742 6.74448 10.9415C7.19552 11.0591 7.62712 11.2412 8.02585 11.4821C8.55942 11.8009 9.02059 12.2271 9.37995 12.7335C10.0219 13.6446 10.1673 14.7784 10.2952 15.8621C10.5642 18.2109 11.0289 20.5332 11.6844 22.805C13.1288 18.0245 14.8615 15.797 14.8615 15.797C15.0552 15.5569 15.2873 15.3506 15.5486 15.1863C15.6846 15.103 15.8367 15.0493 15.995 15.0287C16.2883 15.0005 16.5824 15.072 16.83 15.2314C16.8753 15.2612 16.9181 15.2947 16.9579 15.3315C17.1844 15.5319 17.3789 15.7657 17.5346 16.0248C17.8953 16.6683 18.208 17.3376 18.47 18.0271C19.0116 19.5488 19.473 21.4084 19.473 21.4084L20.8522 26.8345C21.8552 30.5237 22.7053 32.3158 22.7053 32.3158C24.7991 37.1012 28.0013 38.4477 28.0013 38.4477C29.5603 39.2799 31.294 39.7327 33.0616 39.7692C34.749 39.815 36.4226 39.4554 37.9414 38.7205C39.6067 37.9031 41.0676 36.7238 42.2169 35.2691C42.9917 34.3731 44.1326 32.1906 44.1326 32.1906C45.3907 29.6885 46.3784 27.0599 47.0791 24.3492C47.5267 22.6605 47.8858 20.9495 48.1548 19.2234C48.2902 18.3674 48.4181 17.5065 48.5209 16.643C48.6491 15.8254 48.6235 14.991 48.4457 14.1827C48.4083 14.0374 48.3624 13.8945 48.3078 13.7547C47.9048 12.7404 47.1576 11.8997 46.1964 11.3795C45.484 11.0015 44.6886 10.8063 43.8819 10.8114Z" fill="url(#paint31_radial_1545_14580)"/>
<path d="M43.8819 10.8114C43.4834 10.8105 43.0867 10.8601 42.7008 10.959C43.5805 12.2277 44.3272 13.583 44.9301 15.0036C45.2039 15.6146 45.3448 16.2765 45.3438 16.9458C45.3426 17.5657 45.2189 18.1793 44.98 18.7515C44.741 19.3237 44.3917 19.8433 43.9516 20.2807C43.5115 20.7181 42.9894 21.0647 42.4149 21.3007C41.8407 21.5367 41.2256 21.6575 40.6045 21.6562C39.7649 21.6546 38.9409 21.43 38.2172 21.0054L37.7308 22.8C36.8481 25.7458 36.2262 26.8846 36.2262 26.8846C35.8837 27.6833 35.476 28.4526 35.0075 29.1847C34.6841 29.6628 34.2703 30.1433 33.7036 30.326C33.5065 30.3945 33.2959 30.4151 33.0892 30.3861C32.8655 30.359 32.6496 30.2866 32.4548 30.1733C32.0822 29.8936 31.7858 29.5254 31.5922 29.1021C31.3525 28.6322 31.1373 28.1502 30.9477 27.658C30.529 26.6418 29.882 24.139 29.882 24.139L29.2125 21.5185L28.543 18.878L28.0665 17.1436C26.8127 12.6259 25.0775 10.4034 25.0775 10.4034C23.7136 8.4623 21.7813 6.99003 19.5457 6.18863C16.9529 5.26008 14.2321 5.78317 14.2321 5.78317C9.96924 6.61912 7.72996 9.53742 6.74448 10.9415C7.19552 11.0591 7.62712 11.2412 8.02585 11.4821C8.55942 11.8009 9.02059 12.2271 9.37995 12.7335C10.0219 13.6446 10.1673 14.7784 10.2952 15.8621C10.5642 18.2109 11.0289 20.5332 11.6844 22.805C13.1288 18.0245 14.8615 15.797 14.8615 15.797C15.0552 15.5569 15.2873 15.3506 15.5486 15.1863C15.6846 15.103 15.8367 15.0493 15.995 15.0287C16.2883 15.0005 16.5824 15.072 16.83 15.2314C16.8753 15.2612 16.9181 15.2947 16.9579 15.3315C17.1844 15.5319 17.3789 15.7657 17.5346 16.0248C17.8953 16.6683 18.208 17.3376 18.47 18.0271C19.0116 19.5488 19.473 21.4084 19.473 21.4084L20.8522 26.8345C21.8552 30.5237 22.7053 32.3158 22.7053 32.3158C24.7991 37.1012 28.0013 38.4477 28.0013 38.4477C29.5603 39.2799 31.294 39.7327 33.0616 39.7692C34.749 39.815 36.4226 39.4554 37.9414 38.7205C39.6067 37.9031 41.0676 36.7238 42.2169 35.2691C42.9917 34.3731 44.1326 32.1906 44.1326 32.1906C45.3907 29.6885 46.3784 27.0599 47.0791 24.3492C47.5267 22.6605 47.8858 20.9495 48.1548 19.2234C48.2902 18.3674 48.4181 17.5065 48.5209 16.643C48.6491 15.8254 48.6235 14.991 48.4457 14.1827C48.4083 14.0374 48.3624 13.8945 48.3078 13.7547C47.9048 12.7404 47.1576 11.8997 46.1964 11.3795C45.484 11.0015 44.6886 10.8063 43.8819 10.8114Z" fill="url(#paint32_radial_1545_14580)"/>
<path d="M43.8819 10.8114C43.4834 10.8105 43.0867 10.8601 42.7008 10.959C43.5805 12.2277 44.3272 13.583 44.9301 15.0036C45.2039 15.6146 45.3448 16.2765 45.3438 16.9458C45.3426 17.5657 45.2189 18.1793 44.98 18.7515C44.741 19.3237 44.3917 19.8433 43.9516 20.2807C43.5115 20.7181 42.9894 21.0647 42.4149 21.3007C41.8407 21.5367 41.2256 21.6575 40.6045 21.6562C39.7649 21.6546 38.9409 21.43 38.2172 21.0054L37.7308 22.8C36.8481 25.7458 36.2262 26.8846 36.2262 26.8846C35.8837 27.6833 35.476 28.4526 35.0075 29.1847C34.6841 29.6628 34.2703 30.1433 33.7036 30.326C33.5065 30.3945 33.2959 30.4151 33.0892 30.3861C32.8655 30.359 32.6496 30.2866 32.4548 30.1733C32.0822 29.8936 31.7858 29.5254 31.5922 29.1021C31.3525 28.6322 31.1373 28.1502 30.9477 27.658C30.529 26.6418 29.882 24.139 29.882 24.139L29.2125 21.5185L28.543 18.878L28.0665 17.1436C26.8127 12.6259 25.0775 10.4034 25.0775 10.4034C23.7136 8.4623 21.7813 6.99003 19.5457 6.18863C16.9529 5.26008 14.2321 5.78317 14.2321 5.78317C9.96924 6.61912 7.72996 9.53742 6.74448 10.9415C7.19552 11.0591 7.62712 11.2412 8.02585 11.4821C8.55942 11.8009 9.02059 12.2271 9.37995 12.7335C10.0219 13.6446 10.1673 14.7784 10.2952 15.8621C10.5642 18.2109 11.0289 20.5332 11.6844 22.805C13.1288 18.0245 14.8615 15.797 14.8615 15.797C15.0552 15.5569 15.2873 15.3506 15.5486 15.1863C15.6846 15.103 15.8367 15.0493 15.995 15.0287C16.2883 15.0005 16.5824 15.072 16.83 15.2314C16.8753 15.2612 16.9181 15.2947 16.9579 15.3315C17.1844 15.5319 17.3789 15.7657 17.5346 16.0248C17.8953 16.6683 18.208 17.3376 18.47 18.0271C19.0116 19.5488 19.473 21.4084 19.473 21.4084L20.8522 26.8345C21.8552 30.5237 22.7053 32.3158 22.7053 32.3158C24.7991 37.1012 28.0013 38.4477 28.0013 38.4477C29.5603 39.2799 31.294 39.7327 33.0616 39.7692C34.749 39.815 36.4226 39.4554 37.9414 38.7205C39.6067 37.9031 41.0676 36.7238 42.2169 35.2691C42.9917 34.3731 44.1326 32.1906 44.1326 32.1906C45.3907 29.6885 46.3784 27.0599 47.0791 24.3492C47.5267 22.6605 47.8858 20.9495 48.1548 19.2234C48.2902 18.3674 48.4181 17.5065 48.5209 16.643C48.6491 15.8254 48.6235 14.991 48.4457 14.1827C48.4083 14.0374 48.3624 13.8945 48.3078 13.7547C47.9048 12.7404 47.1576 11.8997 46.1964 11.3795C45.484 11.0015 44.6886 10.8063 43.8819 10.8114Z" fill="url(#paint33_radial_1545_14580)"/>
<path d="M43.8819 10.8114C43.4834 10.8105 43.0867 10.8601 42.7008 10.959C43.5805 12.2277 44.3272 13.583 44.9301 15.0036C45.2039 15.6146 45.3448 16.2765 45.3438 16.9458C45.3426 17.5657 45.2189 18.1793 44.98 18.7515C44.741 19.3237 44.3917 19.8433 43.9516 20.2807C43.5115 20.7181 42.9894 21.0647 42.4149 21.3007C41.8407 21.5367 41.2256 21.6575 40.6045 21.6562C39.7649 21.6546 38.9409 21.43 38.2172 21.0054L37.7308 22.8C36.8481 25.7458 36.2262 26.8846 36.2262 26.8846C35.8837 27.6833 35.476 28.4526 35.0075 29.1847C34.6841 29.6628 34.2703 30.1433 33.7036 30.326C33.5065 30.3945 33.2959 30.4151 33.0892 30.3861C32.8655 30.359 32.6496 30.2866 32.4548 30.1733C32.0822 29.8936 31.7858 29.5254 31.5922 29.1021C31.3525 28.6322 31.1373 28.1502 30.9477 27.658C30.529 26.6418 29.882 24.139 29.882 24.139L29.2125 21.5185L28.543 18.878L28.0665 17.1436C26.8127 12.6259 25.0775 10.4034 25.0775 10.4034C23.7136 8.4623 21.7813 6.99003 19.5457 6.18863C16.9529 5.26008 14.2321 5.78317 14.2321 5.78317C9.96924 6.61912 7.72996 9.53742 6.74448 10.9415C7.19552 11.0591 7.62712 11.2412 8.02585 11.4821C8.55942 11.8009 9.02059 12.2271 9.37995 12.7335C10.0219 13.6446 10.1673 14.7784 10.2952 15.8621C10.5642 18.2109 11.0289 20.5332 11.6844 22.805C13.1288 18.0245 14.8615 15.797 14.8615 15.797C15.0552 15.5569 15.2873 15.3506 15.5486 15.1863C15.6846 15.103 15.8367 15.0493 15.995 15.0287C16.2883 15.0005 16.5824 15.072 16.83 15.2314C16.8753 15.2612 16.9181 15.2947 16.9579 15.3315C17.1844 15.5319 17.3789 15.7657 17.5346 16.0248C17.8953 16.6683 18.208 17.3376 18.47 18.0271C19.0116 19.5488 19.473 21.4084 19.473 21.4084L20.8522 26.8345C21.8552 30.5237 22.7053 32.3158 22.7053 32.3158C24.7991 37.1012 28.0013 38.4477 28.0013 38.4477C29.5603 39.2799 31.294 39.7327 33.0616 39.7692C34.749 39.815 36.4226 39.4554 37.9414 38.7205C39.6067 37.9031 41.0676 36.7238 42.2169 35.2691C42.9917 34.3731 44.1326 32.1906 44.1326 32.1906C45.3907 29.6885 46.3784 27.0599 47.0791 24.3492C47.5267 22.6605 47.8858 20.9495 48.1548 19.2234C48.2902 18.3674 48.4181 17.5065 48.5209 16.643C48.6491 15.8254 48.6235 14.991 48.4457 14.1827C48.4083 14.0374 48.3624 13.8945 48.3078 13.7547C47.9048 12.7404 47.1576 11.8997 46.1964 11.3795C45.484 11.0015 44.6886 10.8063 43.8819 10.8114Z" fill="url(#paint34_linear_1545_14580)"/>
<defs>
<linearGradient id="paint0_linear_1545_14580" x1="2.9482" y1="28.6942" x2="40.1008" y2="13.6482" gradientUnits="userSpaceOnUse">
<stop offset="0.13" stop-color="#1CBBF3"/>
<stop offset="0.34" stop-color="#1F99A5"/>
<stop offset="0.45" stop-color="#209CA6"/>
<stop offset="0.51" stop-color="#24A4AA"/>
<stop offset="0.57" stop-color="#2BB3B0"/>
<stop offset="0.6" stop-color="#30BDB4"/>
<stop offset="0.79" stop-color="#38BA90"/>
<stop offset="1" stop-color="#60F05A"/>
</linearGradient>
<radialGradient id="paint1_radial_1545_14580" cx="0" cy="0" r="1" gradientUnits="userSpaceOnUse" gradientTransform="translate(27.6935 19.8845) rotate(74.2917) scale(17.7351 13.5005)">
<stop stop-color="#227B60"/>
<stop offset="0.14" stop-color="#227B60" stop-opacity="0.81"/>
<stop offset="0.58" stop-color="#227B60" stop-opacity="0.23"/>
<stop offset="0.78" stop-color="#227B60" stop-opacity="0"/>
</radialGradient>
<radialGradient id="paint2_radial_1545_14580" cx="0" cy="0" r="1" gradientUnits="userSpaceOnUse" gradientTransform="translate(30.2703 18.6522) rotate(91.148) scale(11.991 9.12919)">
<stop stop-color="#227B60"/>
<stop offset="0.25" stop-color="#227B60" stop-opacity="0.7"/>
<stop offset="0.71" stop-color="#227B60" stop-opacity="0.2"/>
<stop offset="0.92" stop-color="#227B60" stop-opacity="0"/>
</radialGradient>
<radialGradient id="paint3_radial_1545_14580" cx="0" cy="0" r="1" gradientUnits="userSpaceOnUse" gradientTransform="translate(29.8069 19.0921) rotate(88.5973) scale(11.1777 7.9512)">
<stop stop-color="#227B60"/>
<stop offset="0.07" stop-color="#227B60" stop-opacity="0.9"/>
<stop offset="0.34" stop-color="#227B60" stop-opacity="0.51"/>
<stop offset="0.59" stop-color="#227B60" stop-opacity="0.23"/>
<stop offset="0.79" stop-color="#227B60" stop-opacity="0.06"/>
<stop offset="0.92" stop-color="#227B60" stop-opacity="0"/>
</radialGradient>
<radialGradient id="paint4_radial_1545_14580" cx="0" cy="0" r="1" gradientUnits="userSpaceOnUse" gradientTransform="translate(29.9965 18.5826) rotate(88.5973) scale(9.02525 6.42007)">
<stop stop-color="#227B60"/>
<stop offset="0.36" stop-color="#227B60" stop-opacity="0.63"/>
<stop offset="0.92" stop-color="#227B60" stop-opacity="0"/>
</radialGradient>
<radialGradient id="paint5_radial_1545_14580" cx="0" cy="0" r="1" gradientUnits="userSpaceOnUse" gradientTransform="translate(30.3909 19.09) rotate(88.5973) scale(7.19817 4.61556)">
<stop stop-color="#20735A"/>
<stop offset="0.15" stop-color="#20745A" stop-opacity="0.93"/>
<stop offset="0.38" stop-color="#21755C" stop-opacity="0.74"/>
<stop offset="0.67" stop-color="#21785D" stop-opacity="0.43"/>
<stop offset="1" stop-color="#227B60" stop-opacity="0"/>
</radialGradient>
<radialGradient id="paint6_radial_1545_14580" cx="0" cy="0" r="1" gradientUnits="userSpaceOnUse" gradientTransform="translate(31.3571 20.2381) rotate(23.7599) scale(11.6015 8.69003)">
<stop stop-color="#227A61"/>
<stop offset="0.36" stop-color="#227A61" stop-opacity="0.56"/>
<stop offset="0.72" stop-color="#227A61" stop-opacity="0.16"/>
<stop offset="0.9" stop-color="#227A61" stop-opacity="0"/>
</radialGradient>
<radialGradient id="paint7_radial_1545_14580" cx="0" cy="0" r="1" gradientUnits="userSpaceOnUse" gradientTransform="translate(28.2813 2.13979) rotate(35.2212) scale(15.467 14.1334)">
<stop stop-color="#3CD9C3"/>
<stop offset="0.07" stop-color="#3BD7C1" stop-opacity="0.9"/>
<stop offset="0.41" stop-color="#38CEB9" stop-opacity="0.42"/>
<stop offset="0.65" stop-color="#36C8B4" stop-opacity="0.12"/>
<stop offset="0.76" stop-color="#35C6B2" stop-opacity="0"/>
</radialGradient>
<radialGradient id="paint8_radial_1545_14580" cx="0" cy="0" r="1" gradientUnits="userSpaceOnUse" gradientTransform="translate(13444.4 -7008.27) rotate(35.2212) scale(2747.11 1927.1)">
<stop stop-color="#3CD9C3"/>
<stop offset="0.07" stop-color="#3BD7C1" stop-opacity="0.9"/>
<stop offset="0.41" stop-color="#38CEB9" stop-opacity="0.42"/>
<stop offset="0.65" stop-color="#36C8B4" stop-opacity="0.12"/>
<stop offset="0.76" stop-color="#35C6B2" stop-opacity="0"/>
</radialGradient>
<radialGradient id="paint9_radial_1545_14580" cx="0" cy="0" r="1" gradientUnits="userSpaceOnUse" gradientTransform="translate(34.4457 22.9047) rotate(100.992) scale(13.625 16.8664)">
<stop stop-color="#237F66" stop-opacity="0.8"/>
<stop offset="0.06" stop-color="#2C8C70" stop-opacity="0.65"/>
<stop offset="0.21" stop-color="#3DA785" stop-opacity="0.37"/>
<stop offset="0.35" stop-color="#4ABA93" stop-opacity="0.17"/>
<stop offset="0.47" stop-color="#51C59C" stop-opacity="0.04"/>
<stop offset="0.56" stop-color="#54C99F" stop-opacity="0"/>
</radialGradient>
<radialGradient id="paint10_radial_1545_14580" cx="0" cy="0" r="1" gradientUnits="userSpaceOnUse" gradientTransform="translate(25.9914 23.8741) rotate(-50.7668) scale(17.8162 19.2488)">
<stop stop-color="#167C8A"/>
<stop offset="0.04" stop-color="#167C8A" stop-opacity="0.93"/>
<stop offset="0.33" stop-color="#177F8D" stop-opacity="0.43"/>
<stop offset="0.54" stop-color="#17818F" stop-opacity="0.12"/>
<stop offset="0.65" stop-color="#178290" stop-opacity="0"/>
</radialGradient>
<radialGradient id="paint11_radial_1545_14580" cx="0" cy="0" r="1" gradientUnits="userSpaceOnUse" gradientTransform="translate(24.9213 25.6725) rotate(-31.6115) scale(17.3911 13.7272)">
<stop offset="0.05" stop-color="#177D87"/>
<stop offset="0.11" stop-color="#177E89" stop-opacity="0.8"/>
<stop offset="0.21" stop-color="#177F8B" stop-opacity="0.52"/>
<stop offset="0.32" stop-color="#17818D" stop-opacity="0.29"/>
<stop offset="0.42" stop-color="#17818F" stop-opacity="0.13"/>
<stop offset="0.51" stop-color="#178290" stop-opacity="0.03"/>
<stop offset="0.6" stop-color="#178290" stop-opacity="0"/>
</radialGradient>
<radialGradient id="paint12_radial_1545_14580" cx="0" cy="0" r="1" gradientUnits="userSpaceOnUse" gradientTransform="translate(20.6306 25.972) rotate(-130.593) scale(10.3556 8.15656)">
<stop offset="0.26" stop-color="#177F8A"/>
<stop offset="0.27" stop-color="#177F8A" stop-opacity="0.98"/>
<stop offset="0.38" stop-color="#17808C" stop-opacity="0.68"/>
<stop offset="0.5" stop-color="#17818D" stop-opacity="0.43"/>
<stop offset="0.62" stop-color="#17818F" stop-opacity="0.24"/>
<stop offset="0.74" stop-color="#17828F" stop-opacity="0.11"/>
<stop offset="0.86" stop-color="#178290" stop-opacity="0.03"/>
<stop offset="1" stop-color="#178290" stop-opacity="0"/>
</radialGradient>
<radialGradient id="paint13_radial_1545_14580" cx="0" cy="0" r="1" gradientUnits="userSpaceOnUse" gradientTransform="translate(18.7513 28.5155) rotate(-173.123) scale(9.72416 9.70627)">
<stop stop-color="#13656E"/>
<stop offset="0.11" stop-color="#13646E" stop-opacity="0.73"/>
<stop offset="0.27" stop-color="#12646E" stop-opacity="0.41"/>
<stop offset="0.42" stop-color="#12636E" stop-opacity="0.18"/>
<stop offset="0.55" stop-color="#12636E" stop-opacity="0.05"/>
<stop offset="0.66" stop-color="#12636E" stop-opacity="0"/>
</radialGradient>
<radialGradient id="paint14_radial_1545_14580" cx="0" cy="0" r="1" gradientUnits="userSpaceOnUse" gradientTransform="translate(18.4961 29.9609) rotate(-119.366) scale(6.79079 5.70989)">
<stop offset="0.13" stop-color="#146A73"/>
<stop offset="0.24" stop-color="#156F79" stop-opacity="0.79"/>
<stop offset="0.45" stop-color="#167783" stop-opacity="0.45"/>
<stop offset="0.65" stop-color="#167D8A" stop-opacity="0.2"/>
<stop offset="0.82" stop-color="#17818E" stop-opacity="0.05"/>
<stop offset="0.95" stop-color="#178290" stop-opacity="0"/>
</radialGradient>
<radialGradient id="paint15_radial_1545_14580" cx="0" cy="0" r="1" gradientUnits="userSpaceOnUse" gradientTransform="translate(17.9662 27.1319) rotate(-55.9421) scale(6.38899 5.06508)">
<stop stop-color="#198E9C"/>
<stop offset="0.1" stop-color="#198E9C" stop-opacity="0.87"/>
<stop offset="0.41" stop-color="#198E9C" stop-opacity="0.5"/>
<stop offset="0.67" stop-color="#198E9C" stop-opacity="0.23"/>
<stop offset="0.88" stop-color="#198E9C" stop-opacity="0.06"/>
<stop offset="1" stop-color="#198E9C" stop-opacity="0"/>
</radialGradient>
<linearGradient id="paint16_linear_1545_14580" x1="5.34296" y1="4.85963" x2="21.7139" y2="20.0403" gradientUnits="userSpaceOnUse">
<stop offset="0.13" stop-color="#2BF9FF"/>
<stop offset="0.27" stop-color="#29F9FF" stop-opacity="0.64"/>
<stop offset="0.4" stop-color="#27FAFF" stop-opacity="0.3"/>
<stop offset="0.49" stop-color="#26FAFF" stop-opacity="0.08"/>
<stop offset="0.54" stop-color="#26FAFF" stop-opacity="0"/>
</linearGradient>
<linearGradient id="paint17_linear_1545_14580" x1="-3.94515" y1="29.5827" x2="15.2074" y2="24.1425" gradientUnits="userSpaceOnUse">
<stop stop-color="#26FAFF"/>
<stop offset="0.06" stop-color="#26FAFF" stop-opacity="0.88"/>
<stop offset="0.24" stop-color="#26FAFF" stop-opacity="0.51"/>
<stop offset="0.39" stop-color="#26FAFF" stop-opacity="0.23"/>
<stop offset="0.5" stop-color="#26FAFF" stop-opacity="0.06"/>
<stop offset="0.55" stop-color="#26FAFF" stop-opacity="0"/>
</linearGradient>
<linearGradient id="paint18_linear_1545_14580" x1="1.1302" y1="28.9169" x2="22.7138" y2="21.2098" gradientUnits="userSpaceOnUse">
<stop stop-color="#21DEFF"/>
<stop offset="0.04" stop-color="#21DEFF" stop-opacity="0.88"/>
<stop offset="0.17" stop-color="#21DEFF" stop-opacity="0.51"/>
<stop offset="0.27" stop-color="#21DEFF" stop-opacity="0.23"/>
<stop offset="0.34" stop-color="#21DEFF" stop-opacity="0.06"/>
<stop offset="0.38" stop-color="#21DEFF" stop-opacity="0"/>
</linearGradient>
<linearGradient id="paint19_linear_1545_14580" x1="21.6473" y1="17.7993" x2="33.6905" y2="37.4794" gradientUnits="userSpaceOnUse">
<stop offset="0.62" stop-color="#21DEFF" stop-opacity="0"/>
<stop offset="0.66" stop-color="#21DEFF" stop-opacity="0.06"/>
<stop offset="0.73" stop-color="#21DEFF" stop-opacity="0.23"/>
<stop offset="0.83" stop-color="#21DEFF" stop-opacity="0.51"/>
<stop offset="0.96" stop-color="#21DEFF" stop-opacity="0.88"/>
<stop offset="1" stop-color="#21DEFF"/>
</linearGradient>
<linearGradient id="paint20_linear_1545_14580" x1="35.0877" y1="25.1451" x2="33.1939" y2="15.8957" gradientUnits="userSpaceOnUse">
<stop stop-color="#44B044"/>
<stop offset="0.11" stop-color="#44B044" stop-opacity="0.8"/>
<stop offset="0.27" stop-color="#44B044" stop-opacity="0.52"/>
<stop offset="0.43" stop-color="#44B044" stop-opacity="0.29"/>
<stop offset="0.58" stop-color="#44B044" stop-opacity="0.13"/>
<stop offset="0.7" stop-color="#44B044" stop-opacity="0.03"/>
<stop offset="0.8" stop-color="#44B044" stop-opacity="0"/>
</linearGradient>
<linearGradient id="paint21_linear_1545_14580" x1="8.58505" y1="15.5593" x2="48.5486" y2="28.8144" gradientUnits="userSpaceOnUse">
<stop stop-color="#3066FB"/>
<stop offset="0.38" stop-color="#2F64F7"/>
<stop offset="0.74" stop-color="#2857D9"/>
<stop offset="1" stop-color="#3C7EFF"/>
</linearGradient>
<radialGradient id="paint22_radial_1545_14580" cx="0" cy="0" r="1" gradientUnits="userSpaceOnUse" gradientTransform="translate(36.8062 21.5884) rotate(98.7062) scale(21.3401 14.11)">
<stop stop-color="#1A3D9C"/>
<stop offset="0.4" stop-color="#1A3D9C" stop-opacity="0.42"/>
<stop offset="0.7" stop-color="#1A3D9C" stop-opacity="0"/>
</radialGradient>
<radialGradient id="paint23_radial_1545_14580" cx="0" cy="0" r="1" gradientUnits="userSpaceOnUse" gradientTransform="translate(6290.58 10389.4) rotate(98.7062) scale(2624.99 1418.2)">
<stop stop-color="#1A3D9C"/>
<stop offset="0.4" stop-color="#1A3D9C" stop-opacity="0.42"/>
<stop offset="0.7" stop-color="#1A3D9C" stop-opacity="0"/>
</radialGradient>
<radialGradient id="paint24_radial_1545_14580" cx="0" cy="0" r="1" gradientUnits="userSpaceOnUse" gradientTransform="translate(4752.33 9935.88) rotate(98.6317) scale(3126.2 1294.09)">
<stop stop-color="#1A3D9C"/>
<stop offset="0.4" stop-color="#1A3D9C" stop-opacity="0.42"/>
<stop offset="0.7" stop-color="#1A3D9C" stop-opacity="0"/>
</radialGradient>
<radialGradient id="paint25_radial_1545_14580" cx="0" cy="0" r="1" gradientUnits="userSpaceOnUse" gradientTransform="translate(33.4044 20.1512) rotate(83.0758) scale(18.6527 13.0387)">
<stop stop-color="#1A3D9C"/>
<stop offset="0.16" stop-color="#1A3D9C" stop-opacity="0.69"/>
<stop offset="0.33" stop-color="#1A3D9C" stop-opacity="0.4"/>
<stop offset="0.49" stop-color="#1A3D9C" stop-opacity="0.18"/>
<stop offset="0.61" stop-color="#1A3D9C" stop-opacity="0.05"/>
<stop offset="0.7" stop-color="#1A3D9C" stop-opacity="0"/>
</radialGradient>
<radialGradient id="paint26_radial_1545_14580" cx="0" cy="0" r="1" gradientUnits="userSpaceOnUse" gradientTransform="translate(37.5219 23.644) rotate(74.6122) scale(17.9277 12.2107)">
<stop stop-color="#18388F"/>
<stop offset="0.37" stop-color="#193B96" stop-opacity="0.45"/>
<stop offset="0.7" stop-color="#1A3D9C" stop-opacity="0"/>
</radialGradient>
<radialGradient id="paint27_radial_1545_14580" cx="0" cy="0" r="1" gradientUnits="userSpaceOnUse" gradientTransform="translate(35.733 28.4217) rotate(74.6122) scale(8.33557 7.9317)">
<stop stop-color="#18388F"/>
<stop offset="0.09" stop-color="#183992" stop-opacity="0.78"/>
<stop offset="0.22" stop-color="#193B96" stop-opacity="0.5"/>
<stop offset="0.35" stop-color="#193C98" stop-opacity="0.28"/>
<stop offset="0.47" stop-color="#1A3C9A" stop-opacity="0.13"/>
<stop offset="0.59" stop-color="#1A3D9C" stop-opacity="0.03"/>
<stop offset="0.7" stop-color="#1A3D9C" stop-opacity="0"/>
</radialGradient>
<radialGradient id="paint28_radial_1545_14580" cx="0" cy="0" r="1" gradientUnits="userSpaceOnUse" gradientTransform="translate(35.9333 29.8435) rotate(74.6122) scale(8.33557 7.9317)">
<stop stop-color="#1A3D9C" stop-opacity="0.8"/>
<stop offset="0.01" stop-color="#1A3D9C" stop-opacity="0.78"/>
<stop offset="0.24" stop-color="#1A3D9C" stop-opacity="0.45"/>
<stop offset="0.44" stop-color="#1A3D9C" stop-opacity="0.2"/>
<stop offset="0.6" stop-color="#1A3D9C" stop-opacity="0.05"/>
<stop offset="0.7" stop-color="#1A3D9C" stop-opacity="0"/>
</radialGradient>
<radialGradient id="paint29_radial_1545_14580" cx="0" cy="0" r="1" gradientUnits="userSpaceOnUse" gradientTransform="translate(14.3248 24.9341) rotate(66.9882) scale(19.8959 13.2202)">
<stop stop-color="#1A3D9C"/>
<stop offset="0.4" stop-color="#1A3D9C" stop-opacity="0.56"/>
<stop offset="0.48" stop-color="#1A3D9C" stop-opacity="0.43"/>
<stop offset="0.69" stop-color="#1A3D9C" stop-opacity="0.12"/>
<stop offset="0.79" stop-color="#1A3D9C" stop-opacity="0"/>
</radialGradient>
<radialGradient id="paint30_radial_1545_14580" cx="0" cy="0" r="1" gradientUnits="userSpaceOnUse" gradientTransform="translate(13.0495 20.2733) rotate(76.0775) scale(14.7548 9.75731)">
<stop stop-color="#1A3D9C"/>
<stop offset="0.06" stop-color="#1A3D9C" stop-opacity="0.88"/>
<stop offset="0.21" stop-color="#1A3D9C" stop-opacity="0.61"/>
<stop offset="0.36" stop-color="#1A3D9C" stop-opacity="0.39"/>
<stop offset="0.51" stop-color="#1A3D9C" stop-opacity="0.22"/>
<stop offset="0.67" stop-color="#1A3D9C" stop-opacity="0.1"/>
<stop offset="0.83" stop-color="#1A3D9C" stop-opacity="0.02"/>
<stop offset="1" stop-color="#1A3D9C" stop-opacity="0"/>
</radialGradient>
<radialGradient id="paint31_radial_1545_14580" cx="0" cy="0" r="1" gradientUnits="userSpaceOnUse" gradientTransform="translate(13.0495 20.2733) rotate(76.0775) scale(14.7548 9.75731)">
<stop stop-color="#1B3E9E"/>
<stop offset="0.06" stop-color="#1B3E9E" stop-opacity="0.87"/>
<stop offset="0.21" stop-color="#1B3E9D" stop-opacity="0.61"/>
<stop offset="0.36" stop-color="#1A3D9D" stop-opacity="0.39"/>
<stop offset="0.52" stop-color="#1A3D9C" stop-opacity="0.22"/>
<stop offset="0.67" stop-color="#1A3D9C" stop-opacity="0.1"/>
<stop offset="0.83" stop-color="#1A3D9C" stop-opacity="0.02"/>
<stop offset="1" stop-color="#1A3D9C" stop-opacity="0"/>
</radialGradient>
<radialGradient id="paint32_radial_1545_14580" cx="0" cy="0" r="1" gradientUnits="userSpaceOnUse" gradientTransform="translate(13.61 18.8349) rotate(76.0775) scale(11.2881 7.46477)">
<stop stop-color="#183991"/>
<stop offset="0.03" stop-color="#183992" stop-opacity="0.95"/>
<stop offset="0.18" stop-color="#193A95" stop-opacity="0.66"/>
<stop offset="0.34" stop-color="#193B97" stop-opacity="0.42"/>
<stop offset="0.5" stop-color="#1A3C99" stop-opacity="0.24"/>
<stop offset="0.66" stop-color="#1A3D9B" stop-opacity="0.1"/>
<stop offset="0.82" stop-color="#1A3D9C" stop-opacity="0.03"/>
<stop offset="1" stop-color="#1A3D9C" stop-opacity="0"/>
</radialGradient>
<radialGradient id="paint33_radial_1545_14580" cx="0" cy="0" r="1" gradientUnits="userSpaceOnUse" gradientTransform="translate(15.7277 20.3247) rotate(87.1322) scale(8.91878 7.86602)">
<stop offset="0.04" stop-color="#2453D6" stop-opacity="0.6"/>
<stop offset="0.2" stop-color="#2453D6" stop-opacity="0.49"/>
<stop offset="0.52" stop-color="#2453D6" stop-opacity="0.2"/>
<stop offset="0.73" stop-color="#2453D6" stop-opacity="0"/>
</radialGradient>
<linearGradient id="paint34_linear_1545_14580" x1="34.5612" y1="-0.734229" x2="24.496" y2="24.1923" gradientUnits="userSpaceOnUse">
<stop stop-color="#3774FF"/>
<stop offset="0.05" stop-color="#3774FF" stop-opacity="0.91"/>
<stop offset="0.16" stop-color="#3774FF" stop-opacity="0.66"/>
<stop offset="0.32" stop-color="#3774FF" stop-opacity="0.28"/>
<stop offset="0.43" stop-color="#3774FF" stop-opacity="0"/>
</linearGradient>
</defs>
</svg>
