<svg width="46" height="266" viewBox="0 0 46 266" fill="none" xmlns="http://www.w3.org/2000/svg">
<g filter="url(#filter0_dd_3657_2323)">
<rect x="7.82568" y="4.76526" width="30.6058" height="250.968" rx="15.3029" fill="white"/>
<path d="M29.0939 21.4323L18.0037 16.8795C17.8458 16.816 17.6727 16.8005 17.506 16.8348C17.3393 16.8691 17.1864 16.9518 17.0664 17.0726C16.9465 17.1933 16.8647 17.3467 16.8314 17.5136C16.7981 17.6805 16.8148 17.8535 16.8792 18.011L21.4485 29.0864C21.4906 29.1881 21.561 29.2755 21.6513 29.3383C21.7417 29.4011 21.8482 29.4366 21.9582 29.4405C21.9652 29.4411 21.9722 29.4411 21.979 29.4411C22.0855 29.4412 22.19 29.4115 22.2807 29.3555C22.3714 29.2994 22.4446 29.2193 22.4923 29.1239L24.4288 25.251L27.8876 28.7025C27.9955 28.8095 28.1414 28.8693 28.2933 28.8689C28.4452 28.8685 28.5908 28.8079 28.6981 28.7004C28.8054 28.5929 28.8657 28.4472 28.8658 28.2953C28.8659 28.1433 28.8057 27.9976 28.6985 27.8899L25.2364 24.4351L29.1337 22.4758C29.2321 22.4264 29.3141 22.3497 29.3701 22.255C29.4261 22.1602 29.4537 22.0513 29.4495 21.9413C29.4453 21.8313 29.4095 21.7248 29.3465 21.6346C29.2834 21.5443 29.1958 21.4741 29.0939 21.4323ZM24.0166 23.7636C23.9061 23.8193 23.8165 23.9091 23.7611 24.0197L22.0291 27.4842L18.199 18.2004L27.4934 22.0157L24.0166 23.7636Z" fill="black" fill-opacity="0.95"/>
<path d="M30.4187 53.3291L28.1232 51.0336C28.07 50.9804 28.0067 50.9381 27.9371 50.9093C27.8675 50.8804 27.7929 50.8656 27.7175 50.8656C27.6422 50.8656 27.5675 50.8804 27.4979 50.9093C27.4283 50.9381 27.3651 50.9804 27.3118 51.0336C27.2585 51.0869 27.2162 51.1502 27.1874 51.2198C27.1586 51.2894 27.1437 51.364 27.1437 51.4394C27.1437 51.5147 27.1586 51.5893 27.1874 51.659C27.2162 51.7286 27.2585 51.7918 27.3118 51.8451L28.6272 53.1605L23.7005 53.1589V48.2338L25.0164 49.5497C25.124 49.6573 25.2699 49.7178 25.4221 49.7178C25.5743 49.7178 25.7202 49.6573 25.8278 49.5497C25.9354 49.4421 25.9959 49.2961 25.9959 49.144C25.9959 48.9918 25.9354 48.8458 25.8278 48.7382L23.5324 46.4428C23.4791 46.3895 23.4159 46.3472 23.3463 46.3184C23.2766 46.2895 23.202 46.2747 23.1267 46.2747C23.0513 46.2747 22.9767 46.2895 22.9071 46.3184C22.8374 46.3472 22.7742 46.3895 22.7209 46.4428L20.4258 48.7376C20.3185 48.8453 20.2583 48.9912 20.2584 49.1432C20.2585 49.2952 20.319 49.4409 20.4265 49.5484C20.534 49.6559 20.6797 49.7163 20.8317 49.7165C20.9837 49.7166 21.1296 49.6564 21.2372 49.5491L22.5528 48.2338V53.1589L17.6261 53.1605L18.9415 51.8451C19.0491 51.7375 19.1096 51.5916 19.1096 51.4394C19.1096 51.2872 19.0491 51.1412 18.9415 51.0336C18.8339 50.926 18.688 50.8656 18.5358 50.8656C18.3836 50.8656 18.2377 50.926 18.1301 51.0336L15.8346 53.3291C15.7813 53.3823 15.739 53.4456 15.7102 53.5152C15.6814 53.5848 15.6665 53.6594 15.6665 53.7348C15.6665 53.8102 15.6814 53.8848 15.7102 53.9544C15.739 54.024 15.7813 54.0873 15.8346 54.1405L18.1301 56.436C18.1833 56.4893 18.2466 56.5315 18.3162 56.5604C18.3858 56.5892 18.4604 56.604 18.5358 56.604C18.6112 56.604 18.6858 56.5892 18.7554 56.5604C18.825 56.5315 18.8883 56.4893 18.9415 56.436C18.9948 56.3827 19.0371 56.3194 19.0659 56.2498C19.0948 56.1802 19.1096 56.1056 19.1096 56.0302C19.1096 55.9549 19.0948 55.8803 19.0659 55.8107C19.0371 55.741 18.9948 55.6778 18.9415 55.6245L17.6252 54.3082L22.5528 54.3066V59.2358L21.2369 57.9199C21.1293 57.8123 20.9834 57.7519 20.8312 57.7519C20.679 57.7519 20.5331 57.8123 20.4255 57.9199C20.3178 58.0275 20.2574 58.1735 20.2574 58.3257C20.2574 58.4778 20.3178 58.6238 20.4255 58.7314L22.7209 61.0268C22.7742 61.0801 22.8374 61.1224 22.907 61.1513C22.9766 61.1801 23.0513 61.195 23.1266 61.195C23.202 61.195 23.2766 61.1801 23.3462 61.1513C23.4158 61.1224 23.4791 61.0801 23.5324 61.0268L25.8278 58.7314C25.9354 58.6238 25.9959 58.4778 25.9959 58.3257C25.9959 58.1735 25.9354 58.0275 25.8278 57.9199C25.7202 57.8123 25.5742 57.7519 25.4221 57.7519C25.2699 57.7519 25.1239 57.8123 25.0163 57.9199L23.7005 59.2358V54.3066L28.628 54.3082L27.3117 55.6245C27.2041 55.7321 27.1437 55.8781 27.1437 56.0302C27.1437 56.1824 27.2041 56.3284 27.3117 56.436C27.4194 56.5436 27.5653 56.604 27.7175 56.604C27.8697 56.604 28.0156 56.5436 28.1232 56.436L30.4186 54.1405C30.472 54.0873 30.5142 54.024 30.5431 53.9544C30.5719 53.8848 30.5868 53.8102 30.5868 53.7348C30.5868 53.6595 30.5719 53.5848 30.5431 53.5152C30.5143 53.4456 30.472 53.3823 30.4187 53.3291Z" fill="black" fill-opacity="0.95"/>
<rect x="10.8862" y="72.0981" width="24.4846" height="24.4846" rx="12.2423" fill="black" fill-opacity="0.2"/>
<path d="M29.7057 77.7617C29.4263 77.4823 29.0947 77.2607 28.7297 77.1095C28.3647 76.9583 27.9735 76.8805 27.5784 76.8805C27.1833 76.8805 26.7921 76.9583 26.4271 77.1095C26.0621 77.2607 25.7304 77.4823 25.4511 77.7617L16.0026 87.2098C15.8956 87.3162 15.8109 87.4426 15.7531 87.582C15.6954 87.7213 15.666 87.8707 15.6664 88.0215V90.653C15.6668 90.9573 15.7878 91.249 16.003 91.4641C16.2181 91.6793 16.5098 91.8003 16.8141 91.8007H19.4457C19.5965 91.8011 19.7458 91.7717 19.8852 91.714C20.0245 91.6563 20.1509 91.5715 20.2573 91.4646L29.7057 82.0164C30.2688 81.4517 30.5851 80.6866 30.5851 79.8891C30.5851 79.0915 30.2688 78.3265 29.7057 77.7617ZM28.8942 81.2049L19.4457 90.653H16.8141V88.0215L26.2625 78.5733C26.6121 78.2273 27.0845 78.0338 27.5764 78.035C28.0682 78.0363 28.5396 78.2322 28.8874 78.58C29.2352 78.9279 29.4312 79.3992 29.4325 79.8911C29.4337 80.3829 29.2402 80.8553 28.8942 81.2049Z" fill="black" fill-opacity="0.95"/>
<rect x="10.8862" y="72.0981" width="24.4846" height="24.4846" rx="12.2423" stroke="#F55868" stroke-width="1.91286"/>
<path d="M29.7457 110.763L27.3111 108.328C26.7726 107.791 26.0429 107.489 25.2823 107.489C24.5216 107.489 23.792 107.791 23.2534 108.328L16.5066 115.075C15.9694 115.614 15.6677 116.343 15.6677 117.104C15.6677 117.865 15.9694 118.594 16.5066 119.133L18.9414 121.568C19.4799 122.105 20.2095 122.407 20.9702 122.407C21.7309 122.407 22.4605 122.105 22.999 121.568L29.7457 114.821C30.0123 114.554 30.2237 114.238 30.3679 113.89C30.5122 113.542 30.5864 113.169 30.5864 112.792C30.5864 112.415 30.5122 112.042 30.3679 111.694C30.2237 111.346 30.0123 111.029 29.7457 110.763ZM22.1875 120.756C21.8642 121.078 21.4265 121.259 20.9702 121.259C20.5139 121.259 20.0762 121.078 19.7529 120.756L17.3181 118.322C16.9958 117.998 16.8148 117.561 16.8148 117.104C16.8148 116.648 16.9958 116.21 17.3181 115.887L18.5644 114.64L23.4339 119.51L22.1875 120.756ZM28.9343 114.009L24.2456 118.698L19.3759 113.829L24.0649 109.14C24.388 108.818 24.8258 108.637 25.2822 108.637C25.7386 108.637 26.1764 108.818 26.4996 109.14L28.9343 111.574C29.0942 111.734 29.221 111.924 29.3075 112.133C29.394 112.342 29.4386 112.566 29.4386 112.792C29.4386 113.018 29.394 113.242 29.3075 113.451C29.221 113.66 29.0942 113.849 28.9343 114.009Z" fill="black" fill-opacity="0.95"/>
<path d="M27.1436 138.666H19.1095C18.3488 138.666 17.6195 138.969 17.0816 139.507C16.5437 140.045 16.2411 140.774 16.2402 141.535V149.569C16.2411 150.33 16.5437 151.059 17.0816 151.597C17.6195 152.135 18.3488 152.437 19.1095 152.438H23.8242C24.0516 152.438 24.2766 152.392 24.4865 152.305C24.6963 152.217 24.8869 152.089 25.0473 151.928L29.5146 147.418C29.8347 147.096 30.0139 146.66 30.0128 146.206V141.535C30.012 140.774 29.7094 140.045 29.1715 139.507C28.6336 138.969 27.9043 138.666 27.1436 138.666ZM17.388 149.569V141.535C17.3885 141.078 17.57 140.641 17.8927 140.318C18.2155 139.995 18.6531 139.814 19.1095 139.813H27.1436C27.6 139.814 28.0376 139.995 28.3603 140.318C28.6831 140.641 28.8646 141.078 28.8651 141.535V146.126H24.8481C24.5438 146.126 24.2521 146.247 24.0369 146.462C23.8218 146.677 23.7007 146.969 23.7004 147.273V151.29H19.1095C18.6531 151.29 18.2155 151.108 17.8927 150.786C17.57 150.463 17.3885 150.025 17.388 149.569ZM24.8481 150.498V147.273H28.0422L24.8481 150.498Z" fill="black" fill-opacity="0.95"/>
<path d="M15.6663 170.419H20.8305L20.831 180.175C20.831 180.327 20.8915 180.473 20.9991 180.58C21.1067 180.688 21.2527 180.748 21.4049 180.748C21.5571 180.748 21.703 180.688 21.8106 180.58C21.9183 180.473 21.9787 180.327 21.9787 180.175L21.9782 170.419H27.1434C27.2956 170.419 27.4416 170.358 27.5492 170.251C27.6568 170.143 27.7173 169.997 27.7173 169.845C27.7173 169.693 27.6568 169.547 27.5492 169.439C27.4416 169.332 27.2956 169.271 27.1434 169.271H15.6663C15.5141 169.271 15.3681 169.332 15.2605 169.439C15.1529 169.547 15.0924 169.693 15.0924 169.845C15.0924 169.997 15.1529 170.143 15.2605 170.251C15.3681 170.358 15.5141 170.419 15.6663 170.419Z" fill="black" fill-opacity="0.95"/>
<path d="M24.2741 172.714C24.122 172.714 23.976 172.775 23.8684 172.882C23.7608 172.99 23.7003 173.136 23.7003 173.288C23.7003 173.44 23.7608 173.586 23.8684 173.694C23.976 173.802 24.122 173.862 24.2741 173.862H27.1429V180.175C27.1429 180.327 27.2033 180.473 27.3109 180.58C27.4186 180.688 27.5645 180.748 27.7167 180.748C27.8689 180.748 28.0149 180.688 28.1225 180.58C28.2301 180.473 28.2906 180.327 28.2906 180.175V173.862H30.5866C30.7388 173.862 30.8848 173.802 30.9924 173.694C31.1 173.586 31.1605 173.44 31.1605 173.288C31.1605 173.136 31.1 172.99 30.9924 172.882C30.8848 172.775 30.7388 172.714 30.5866 172.714H24.2741Z" fill="black" fill-opacity="0.95"/>
<path d="M30.5866 181.896H15.6663C15.5141 181.896 15.3681 181.957 15.2605 182.064C15.1529 182.172 15.0924 182.318 15.0924 182.47C15.0924 182.622 15.1529 182.768 15.2605 182.876C15.3681 182.983 15.5141 183.044 15.6663 183.044H30.5866C30.7388 183.044 30.8848 182.983 30.9924 182.876C31.1 182.768 31.1605 182.622 31.1605 182.47C31.1605 182.318 31.1 182.172 30.9924 182.064C30.8848 181.957 30.7388 181.896 30.5866 181.896Z" fill="black" fill-opacity="0.95"/>
<path d="M25.422 203.32C24.93 203.322 24.4402 203.387 23.9649 203.515L21.5378 199.311C21.437 199.137 21.2921 198.992 21.1177 198.891C20.9432 198.79 20.7452 198.737 20.5437 198.737C20.3423 198.737 20.1443 198.79 19.9698 198.891C19.7953 198.992 19.6505 199.137 19.5497 199.311L15.2475 206.763C15.1468 206.938 15.0938 207.136 15.0938 207.337C15.0937 207.539 15.1467 207.736 15.2474 207.911C15.3481 208.085 15.4929 208.23 15.6674 208.331C15.8418 208.432 16.0397 208.485 16.2411 208.485H19.7125C19.6937 208.674 19.6834 208.865 19.6834 209.059C19.6834 210.194 20.02 211.303 20.6506 212.247C21.2811 213.191 22.1774 213.926 23.226 214.361C24.2746 214.795 25.4284 214.909 26.5416 214.687C27.6548 214.466 28.6773 213.919 29.4798 213.117C30.2824 212.314 30.8289 211.292 31.0504 210.178C31.2718 209.065 31.1581 207.911 30.7238 206.863C30.2895 205.814 29.5539 204.918 28.6102 204.287C27.6665 203.657 26.557 203.32 25.422 203.32ZM16.2413 207.337L20.5437 199.885L22.8755 203.924C22.1837 204.267 21.568 204.747 21.0651 205.333C20.5621 205.92 20.1823 206.601 19.948 207.337H16.2413ZM23.4503 204.919L24.8464 207.337H21.1691C21.6025 206.276 22.4158 205.414 23.4503 204.919ZM25.422 213.65C24.7696 213.654 24.1239 213.518 23.5285 213.251C22.9331 212.984 22.4018 212.593 21.9705 212.104C21.5391 211.614 21.2178 211.038 21.0281 210.414C20.8385 209.789 20.7849 209.132 20.871 208.485H24.8465C25.0479 208.485 25.2458 208.432 25.4203 208.331C25.5948 208.23 25.7397 208.086 25.8404 207.911C25.9411 207.737 25.9941 207.539 25.9941 207.337C25.9941 207.136 25.9411 206.938 25.8404 206.763L24.5633 204.551C25.1912 204.432 25.8372 204.444 26.4598 204.589C27.0825 204.733 27.6682 205.006 28.1793 205.39C28.6904 205.774 29.1157 206.26 29.428 206.818C29.7402 207.375 29.9326 207.992 29.9926 208.629C30.0527 209.265 29.9792 209.907 29.7768 210.513C29.5744 211.12 29.2476 211.677 28.8173 212.15C28.387 212.622 27.8627 213 27.2781 213.258C26.6934 213.516 26.0612 213.65 25.422 213.65Z" fill="black" fill-opacity="0.95"/>
<path d="M25.1349 236.796C25.5322 236.796 25.9205 236.678 26.2508 236.458C26.5811 236.237 26.8385 235.923 26.9905 235.556C27.1426 235.189 27.1823 234.785 27.1048 234.396C27.0273 234.006 26.836 233.648 26.5552 233.367C26.2743 233.087 25.9164 232.895 25.5268 232.818C25.1372 232.74 24.7333 232.78 24.3663 232.932C23.9993 233.084 23.6856 233.342 23.4649 233.672C23.2442 234.002 23.1264 234.39 23.1264 234.788C23.1271 235.32 23.3389 235.831 23.7154 236.207C24.0919 236.584 24.6024 236.796 25.1349 236.796ZM25.1349 233.927C25.3052 233.927 25.4716 233.977 25.6132 234.072C25.7547 234.167 25.865 234.301 25.9302 234.458C25.9953 234.616 26.0124 234.789 25.9792 234.956C25.946 235.123 25.864 235.276 25.7436 235.396C25.6232 235.517 25.4698 235.599 25.3029 235.632C25.1359 235.665 24.9628 235.648 24.8055 235.583C24.6482 235.518 24.5138 235.407 24.4192 235.266C24.3246 235.124 24.2741 234.958 24.2741 234.788C24.2744 234.559 24.3652 234.341 24.5265 234.179C24.6879 234.018 24.9067 233.927 25.1349 233.927Z" fill="black" fill-opacity="0.95"/>
<path d="M27.1434 229.335H19.1094C18.3487 229.336 17.6194 229.639 17.0815 230.177C16.5436 230.715 16.241 231.444 16.2401 232.205V242.534C16.241 243.295 16.5436 244.024 17.0815 244.562C17.6194 245.1 18.3487 245.403 19.1094 245.403H27.1434C27.9041 245.403 28.6334 245.1 29.1713 244.562C29.7092 244.024 30.0118 243.295 30.0127 242.534V232.205C30.0118 231.444 29.7092 230.715 29.1713 230.177C28.6334 229.639 27.9041 229.336 27.1434 229.335ZM19.1094 230.483H27.1434C27.5999 230.484 28.0375 230.665 28.3602 230.988C28.683 231.311 28.8645 231.748 28.865 232.205V242.534C28.8641 242.9 28.7458 243.255 28.5276 243.548L23.9923 238.323C23.7106 238.009 23.3634 237.762 22.9753 237.597C22.5872 237.433 22.1676 237.357 21.7465 237.373C21.3254 237.389 20.913 237.498 20.5387 237.691C20.1644 237.885 19.8373 238.159 19.5807 238.493L17.3878 241.32V232.205C17.3883 231.748 17.5699 231.311 17.8926 230.988C18.2154 230.665 18.653 230.484 19.1094 230.483ZM19.1094 244.256C18.7481 244.255 18.3963 244.139 18.1042 243.927C17.8121 243.714 17.5944 243.415 17.4822 243.071L20.4897 239.194C20.6433 238.992 20.8396 238.828 21.0643 238.711C21.2891 238.595 21.5368 238.529 21.7898 238.519C22.0413 238.507 22.2924 238.551 22.5246 238.649C22.7569 238.746 22.9644 238.894 23.132 239.082L27.5704 244.196C27.4312 244.234 27.2877 244.254 27.1434 244.256H19.1094Z" fill="black" fill-opacity="0.95"/>
<rect x="7.44311" y="4.38269" width="31.3709" height="251.733" rx="15.6855" stroke="black" stroke-opacity="0.2" stroke-width="0.765145"/>
</g>
<defs>
<filter id="filter0_dd_3657_2323" x="-2.12116" y="0.93942" width="50.4995" height="264.74" filterUnits="userSpaceOnUse" color-interpolation-filters="sRGB">
<feFlood flood-opacity="0" result="BackgroundImageFix"/>
<feColorMatrix in="SourceAlpha" type="matrix" values="0 0 0 0 0 0 0 0 0 0 0 0 0 0 0 0 0 0 127 0" result="hardAlpha"/>
<feOffset/>
<feGaussianBlur stdDeviation="0.382573"/>
<feColorMatrix type="matrix" values="0 0 0 0 0 0 0 0 0 0 0 0 0 0 0 0 0 0 0.16 0"/>
<feBlend mode="normal" in2="BackgroundImageFix" result="effect1_dropShadow_3657_2323"/>
<feColorMatrix in="SourceAlpha" type="matrix" values="0 0 0 0 0 0 0 0 0 0 0 0 0 0 0 0 0 0 127 0" result="hardAlpha"/>
<feOffset dy="3.06058"/>
<feGaussianBlur stdDeviation="3.06058"/>
<feColorMatrix type="matrix" values="0 0 0 0 0 0 0 0 0 0 0 0 0 0 0 0 0 0 0.16 0"/>
<feBlend mode="normal" in2="effect1_dropShadow_3657_2323" result="effect2_dropShadow_3657_2323"/>
<feBlend mode="normal" in="SourceGraphic" in2="effect2_dropShadow_3657_2323" result="shape"/>
</filter>
</defs>
</svg>
