<svg width="24" height="24" viewBox="0 0 24 24" fill="none" xmlns="http://www.w3.org/2000/svg">
<g clip-path="url(#clip0_9959_387246)">
<path d="M5.61804 7.15881H21.3769C22.0244 7.15881 22.4816 7.79315 22.2768 8.4074L20.0634 15.0477C19.9343 15.435 19.5718 15.6963 19.1635 15.6963H9.1476C8.73928 15.6963 8.37678 15.435 8.24766 15.0477L5.61804 7.15881Z" stroke="white" stroke-opacity="0.95" stroke-width="1.42292"/>
<path d="M2.7485 2.33944C2.44439 2.09062 1.99615 2.13544 1.74734 2.43955C1.49852 2.74366 1.54334 3.1919 1.84745 3.44071L2.7485 2.33944ZM6.76737 8.35676L6.0156 6.10144L4.6657 6.55141L5.41747 8.80673L6.76737 8.35676ZM4.29494 3.60471C3.81156 3.20922 3.3609 2.84049 2.7485 2.33944L1.84745 3.44071C2.45985 3.94177 2.91052 4.3105 3.3939 4.70599L4.29494 3.60471ZM6.0156 6.10144C5.68955 5.12331 5.09291 4.25759 4.29494 3.60471L3.3939 4.70599C3.98371 5.18856 4.42471 5.82846 4.6657 6.55141L6.0156 6.10144Z" fill="white" fill-opacity="0.95"/>
<circle cx="8.93818" cy="19.0165" r="1.42292" stroke="white" stroke-opacity="0.95" stroke-width="1.42292"/>
<circle cx="19.373" cy="19.0165" r="1.42292" stroke="white" stroke-opacity="0.95" stroke-width="1.42292"/>
</g>
<defs>
<clipPath id="clip0_9959_387246">
<rect width="22.7667" height="22.7667" fill="white" transform="translate(0.875 0.518524)"/>
</clipPath>
</defs>
</svg>
