<svg width="24" height="24" viewBox="0 0 24 24" fill="none" xmlns="http://www.w3.org/2000/svg">
<path d="M12.1499 21.7296C17.4544 21.7296 21.7545 17.4295 21.7545 12.125C21.7545 6.82043 17.4544 2.52026 12.1499 2.52026C6.84533 2.52026 2.54517 6.82043 2.54517 12.125C2.54517 17.4295 6.84533 21.7296 12.1499 21.7296ZM15.2443 9.45052C15.3152 9.38975 15.3973 9.34357 15.4861 9.31456C15.5748 9.28555 15.6684 9.2743 15.7615 9.28146C15.8546 9.28862 15.9454 9.31405 16.0287 9.35629C16.1119 9.39854 16.1861 9.45677 16.2468 9.52766C16.3076 9.59855 16.3538 9.68072 16.3828 9.76947C16.4118 9.85822 16.4231 9.95182 16.4159 10.0449C16.4088 10.138 16.3833 10.2288 16.3411 10.3121C16.2988 10.3953 16.2406 10.4695 16.1697 10.5302L11.1895 14.799C11.0533 14.916 10.8779 14.9771 10.6984 14.97C10.519 14.9629 10.3489 14.8882 10.2224 14.7608L8.08801 12.616C8.02213 12.5497 7.96995 12.4712 7.93444 12.3847C7.89893 12.2983 7.88078 12.2058 7.88104 12.1124C7.8813 12.0189 7.89996 11.9265 7.93595 11.8403C7.97194 11.7541 8.02456 11.6758 8.0908 11.6099C8.15704 11.544 8.23561 11.4919 8.32202 11.4563C8.40843 11.4208 8.50098 11.4027 8.5944 11.4029C8.68783 11.4032 8.78028 11.4219 8.86649 11.4579C8.9527 11.4938 9.03098 11.5465 9.09685 11.6127L10.765 13.2892L15.2443 9.45052Z" fill="white" fill-opacity="0.95"/>
</svg>
