<svg width="325" height="186" viewBox="0 0 325 186" fill="none" xmlns="http://www.w3.org/2000/svg">
<g filter="url(#filter0_dd_9738_422695)">
<mask id="path-1-outside-1_9738_422695" maskUnits="userSpaceOnUse" x="16.9473" y="8.90967" width="293" height="154" fill="black">
<rect fill="white" x="16.9473" y="8.90967" width="293" height="154"/>
<path fill-rule="evenodd" clip-rule="evenodd" d="M161.601 10.5249C162.353 9.70459 163.646 9.70459 164.398 10.5249L173.434 20.3825H152.565L161.601 10.5249ZM25.5362 20.3832C21.3449 20.3832 17.9473 23.7809 17.9473 27.9721V153.462C17.9473 157.654 21.3449 161.051 25.5362 161.051H300.461C304.652 161.051 308.05 157.654 308.05 153.462V27.9721C308.05 23.7809 304.652 20.3832 300.461 20.3832H25.5362Z"/>
</mask>
<path fill-rule="evenodd" clip-rule="evenodd" d="M161.601 10.5249C162.353 9.70459 163.646 9.70459 164.398 10.5249L173.434 20.3825H152.565L161.601 10.5249ZM25.5362 20.3832C21.3449 20.3832 17.9473 23.7809 17.9473 27.9721V153.462C17.9473 157.654 21.3449 161.051 25.5362 161.051H300.461C304.652 161.051 308.05 157.654 308.05 153.462V27.9721C308.05 23.7809 304.652 20.3832 300.461 20.3832H25.5362Z" fill="white"/>
<path d="M164.398 10.5249L163.699 11.1659V11.1659L164.398 10.5249ZM161.601 10.5249L162.3 11.1659V11.1659L161.601 10.5249ZM173.434 20.3825V21.3311H175.591L174.134 19.7415L173.434 20.3825ZM152.565 20.3825L151.866 19.7415L150.408 21.3311H152.565V20.3825ZM165.097 9.88389C163.969 8.65345 162.03 8.65344 160.902 9.88389L162.3 11.1659C162.676 10.7557 163.323 10.7557 163.699 11.1659L165.097 9.88389ZM174.134 19.7415L165.097 9.88389L163.699 11.1659L172.735 21.0235L174.134 19.7415ZM152.565 21.3311H173.434V19.4339H152.565V21.3311ZM160.902 9.88389L151.866 19.7415L153.264 21.0235L162.3 11.1659L160.902 9.88389ZM18.8959 27.9721C18.8959 24.3048 21.8688 21.3318 25.5362 21.3318V19.4346C20.821 19.4346 16.9987 23.257 16.9987 27.9721H18.8959ZM18.8959 153.462V27.9721H16.9987V153.462H18.8959ZM25.5362 160.103C21.8688 160.103 18.8959 157.13 18.8959 153.462H16.9987C16.9987 158.178 20.821 162 25.5362 162V160.103ZM300.461 160.103H25.5362V162H300.461V160.103ZM307.101 153.462C307.101 157.13 304.129 160.103 300.461 160.103V162C305.176 162 308.999 158.178 308.999 153.462H307.101ZM307.101 27.9721V153.462H308.999V27.9721H307.101ZM300.461 21.3318C304.128 21.3318 307.101 24.3048 307.101 27.9721H308.999C308.999 23.257 305.176 19.4346 300.461 19.4346V21.3318ZM25.5362 21.3318H300.461V19.4346H25.5362V21.3318Z" fill="black" fill-opacity="0.2" mask="url(#path-1-outside-1_9738_422695)"/>
</g>
<path d="M45.3399 47.5652H44.5517L43.9289 42.0023C43.8302 41.1422 43.513 40.3217 43.0076 39.6187C42.5022 38.9158 41.8254 38.3539 41.0415 37.9864V37.338C41.0422 37.0459 40.985 36.7566 40.8732 36.4868C40.7614 36.2169 40.5972 35.972 40.3902 35.766C39.9666 35.3618 39.4036 35.1364 38.8181 35.1364C38.2326 35.1364 37.6696 35.3618 37.246 35.766C37.0389 35.9719 36.8746 36.2169 36.7628 36.4867C36.651 36.7566 36.5938 37.0459 36.5946 37.338V37.9865C35.8107 38.3541 35.1339 38.9162 34.6285 39.6191C34.1231 40.3221 33.8058 41.1427 33.7069 42.0028L33.0845 47.5652H32.2962C32.1783 47.5652 32.0652 47.612 31.9818 47.6954C31.8984 47.7788 31.8516 47.8919 31.8516 48.0098C31.8516 48.1278 31.8984 48.2409 31.9818 48.3243C32.0652 48.4076 32.1783 48.4545 32.2962 48.4545H36.0017V48.6027C36.0028 49.3489 36.3 50.0642 36.8281 50.5915C37.3561 51.1188 38.0718 51.415 38.8181 51.415C39.5643 51.415 40.28 51.1188 40.8081 50.5915C41.3361 50.0642 41.6333 49.3489 41.6344 48.6027V48.4545H45.3399C45.4578 48.4545 45.571 48.4076 45.6543 48.3243C45.7377 48.2409 45.7846 48.1278 45.7846 48.0098C45.7846 47.8919 45.7377 47.7788 45.6543 47.6954C45.571 47.612 45.4578 47.5652 45.3399 47.5652ZM37.4839 37.338C37.4835 37.1627 37.5177 36.9891 37.5848 36.8272C37.6519 36.6653 37.7505 36.5183 37.8748 36.3948C38.1289 36.1523 38.4668 36.017 38.8181 36.017C39.1694 36.017 39.5072 36.1523 39.7614 36.3948C39.8857 36.5183 39.9842 36.6653 40.0513 36.8272C40.1184 36.9891 40.1527 37.1627 40.1522 37.338V37.662C39.2782 37.4276 38.3579 37.4276 37.4839 37.662V37.338ZM34.5905 42.1018C34.7207 41.0726 35.2219 40.1262 36.0002 39.4402C36.7784 38.7541 37.7802 38.3756 38.8177 38.3755C39.8551 38.3754 40.857 38.7538 41.6353 39.4398C42.4137 40.1257 42.915 41.072 43.0454 42.1013L43.6571 47.5652H33.979L34.5905 42.1018ZM40.7451 48.6027C40.7442 49.1132 40.5408 49.6025 40.1795 49.9631C39.8182 50.3238 39.3286 50.5263 38.8181 50.5263C38.3076 50.5263 37.8179 50.3238 37.4567 49.9631C37.0954 49.6025 36.892 49.1132 36.8911 48.6027V48.4545H40.7451V48.6027Z" fill="black" fill-opacity="0.95"/>
<path d="M63.7547 36.8387H65.9251V47.7667H63.2993L58.9888 40.0109V47.7667H56.8032V36.8387H59.6263L63.7547 44.3062V36.8387ZM67.3625 43.7901C67.3625 42.3533 67.7773 41.2757 68.6071 40.5573C69.3153 39.9502 70.2918 39.6466 71.5364 39.6466C72.9631 39.6466 74.0356 40.0463 74.7541 40.8457C75.3915 41.554 75.7103 42.5354 75.7103 43.7901C75.7103 45.2371 75.2954 46.3248 74.4657 47.0534C73.7574 47.6807 72.7809 47.9944 71.5364 47.9944C70.14 47.9944 69.0776 47.5896 68.349 46.7802C67.6913 46.0516 67.3625 45.055 67.3625 43.7901ZM69.8061 43.7901C69.8061 44.7716 69.9781 45.4698 70.3221 45.8847C70.6055 46.2287 71.0153 46.4007 71.5515 46.4007C72.189 46.4007 72.6393 46.1781 72.9024 45.7329C73.1553 45.318 73.2818 44.6705 73.2818 43.7901C73.2818 42.7985 73.1149 42.1054 72.7809 41.7108C72.5077 41.3971 72.0929 41.2403 71.5364 41.2403C70.8989 41.2403 70.4436 41.4578 70.1704 41.8929C69.9275 42.2875 69.8061 42.92 69.8061 43.7901ZM81.601 46.1731V47.7819C81.1052 47.9236 80.6246 47.9944 80.1591 47.9944C79.299 47.9944 78.6413 47.7566 78.186 47.281C77.7914 46.8662 77.5941 46.2945 77.5941 45.5659V41.5135H76.395V39.8743H77.5941L77.7459 37.9771H79.9618V39.8743H81.5858V41.5135H79.9618V45.6418C79.9618 45.8543 80.0276 46.0213 80.1591 46.1427C80.3008 46.254 80.493 46.3097 80.7359 46.3097C80.9281 46.3097 81.2165 46.2641 81.601 46.1731ZM85.1247 38.8574H82.5749V36.8387H85.1247V38.8574ZM85.0337 47.7667H82.6659V39.8743H85.0337V47.7667ZM91.7821 36.8691V38.5386C91.2559 38.4071 90.8613 38.3413 90.5982 38.3413C89.9709 38.3413 89.6572 38.6297 89.6572 39.2065V39.8743H91.3875V41.5135H89.6572V47.7667H87.2895V41.5135H86.0904V39.8743H87.2895V39.2975C87.2895 38.3666 87.5526 37.6735 88.0787 37.2182C88.5341 36.8134 89.1665 36.6111 89.9759 36.6111C90.5122 36.6111 91.1143 36.6971 91.7821 36.8691ZM94.9221 38.8574H92.3723V36.8387H94.9221V38.8574ZM94.8311 47.7667H92.4633V39.8743H94.8311V47.7667ZM101.671 45.141H104.16C103.947 46.0719 103.487 46.7852 102.779 47.281C102.111 47.7566 101.251 47.9944 100.198 47.9944C98.8121 47.9944 97.7749 47.5896 97.0868 46.7802C96.4899 46.082 96.1914 45.1207 96.1914 43.8964C96.1914 42.4798 96.6062 41.3921 97.4359 40.6332C98.1442 39.9755 99.0802 39.6466 100.244 39.6466C101.347 39.6466 102.262 39.9249 102.991 40.4814C103.608 40.957 103.993 41.5641 104.145 42.3027H101.655C101.564 41.989 101.397 41.7361 101.154 41.5438C100.912 41.3516 100.633 41.2555 100.32 41.2555C99.2067 41.2555 98.6502 42.1509 98.6502 43.9419C98.6502 44.802 98.8222 45.4496 99.1662 45.8847C99.4495 46.2186 99.8037 46.3855 100.229 46.3855C100.947 46.3855 101.428 45.9707 101.671 45.141ZM107.724 42.1509H105.296C105.498 41.301 105.958 40.6585 106.677 40.2234C107.324 39.8389 108.134 39.6466 109.105 39.6466C110.279 39.6466 111.185 39.94 111.822 40.5269C112.379 41.0328 112.657 41.7057 112.657 42.5456V47.7667H110.805L110.517 46.9471C109.91 47.6453 109.04 47.9944 107.906 47.9944C107.026 47.9944 106.333 47.7465 105.827 47.2507C105.372 46.8156 105.144 46.2287 105.144 45.4901C105.144 44.802 105.412 44.2607 105.948 43.866C106.464 43.4815 107.259 43.1982 108.331 43.0161L110.289 42.6973V42.3483C110.289 41.5691 109.869 41.1796 109.029 41.1796C108.291 41.1796 107.856 41.5034 107.724 42.1509ZM108.589 46.3704C109.136 46.3704 109.571 46.2034 109.895 45.8695C110.158 45.5862 110.289 45.2472 110.289 44.8526V43.9875L108.938 44.2607C108.422 44.3618 108.053 44.5035 107.83 44.6856C107.618 44.8576 107.512 45.0904 107.512 45.3838C107.512 46.0415 107.871 46.3704 108.589 46.3704ZM118.775 46.1731V47.7819C118.279 47.9236 117.798 47.9944 117.333 47.9944C116.473 47.9944 115.815 47.7566 115.36 47.281C114.965 46.8662 114.768 46.2945 114.768 45.5659V41.5135H113.569V39.8743H114.768L114.92 37.9771H117.136V39.8743H118.76V41.5135H117.136V45.6418C117.136 45.8543 117.201 46.0213 117.333 46.1427C117.474 46.254 117.667 46.3097 117.91 46.3097C118.102 46.3097 118.39 46.2641 118.775 46.1731ZM122.298 38.8574H119.749V36.8387H122.298V38.8574ZM122.207 47.7667H119.84V39.8743H122.207V47.7667ZM123.568 43.7901C123.568 42.3533 123.983 41.2757 124.812 40.5573C125.521 39.9502 126.497 39.6466 127.742 39.6466C129.168 39.6466 130.241 40.0463 130.959 40.8457C131.597 41.554 131.915 42.5354 131.915 43.7901C131.915 45.2371 131.501 46.3248 130.671 47.0534C129.963 47.6807 128.986 47.9944 127.742 47.9944C126.345 47.9944 125.283 47.5896 124.554 46.7802C123.897 46.0516 123.568 45.055 123.568 43.7901ZM126.011 43.7901C126.011 44.7716 126.183 45.4698 126.527 45.8847C126.811 46.2287 127.22 46.4007 127.757 46.4007C128.394 46.4007 128.844 46.1781 129.108 45.7329C129.361 45.318 129.487 44.6705 129.487 43.7901C129.487 42.7985 129.32 42.1054 128.986 41.7108C128.713 41.3971 128.298 41.2403 127.742 41.2403C127.104 41.2403 126.649 41.4578 126.376 41.8929C126.133 42.2875 126.011 42.92 126.011 43.7901ZM135.651 47.7667H133.283V39.8743H135.241L135.469 40.7394C136.046 40.0109 136.85 39.6466 137.882 39.6466C138.864 39.6466 139.612 39.9451 140.128 40.5421C140.584 41.0683 140.811 41.7766 140.811 42.667V47.7667H138.444V42.7581C138.444 41.7968 138.039 41.3162 137.229 41.3162C136.734 41.3162 136.339 41.4983 136.046 41.8626C135.783 42.1762 135.651 42.586 135.651 43.092V47.7667ZM145.708 46.3855C146.588 46.3855 147.028 46.1376 147.028 45.6418C147.028 45.399 146.927 45.227 146.724 45.1258C146.532 45.0246 146.006 44.8678 145.146 44.6553C144.164 44.4226 143.461 44.1342 143.036 43.7901C142.53 43.3753 142.277 42.8137 142.277 42.1054C142.277 41.2959 142.611 40.6736 143.279 40.2385C143.876 39.8439 144.706 39.6466 145.768 39.6466C146.851 39.6466 147.716 39.8895 148.364 40.3751C148.92 40.79 149.264 41.3516 149.396 42.0599H147.013C146.891 41.5236 146.456 41.2555 145.708 41.2555C144.999 41.2555 144.645 41.473 144.645 41.9081C144.645 42.1206 144.746 42.2875 144.949 42.409C145.151 42.5203 145.596 42.6619 146.284 42.8339L146.573 42.9098C147.483 43.1426 148.131 43.3854 148.515 43.6384C149.123 44.033 149.426 44.5946 149.426 45.3231C149.426 46.1933 149.082 46.8662 148.394 47.3417C147.746 47.7768 146.856 47.9944 145.723 47.9944C144.589 47.9944 143.679 47.7364 142.991 47.2203C142.414 46.7852 142.065 46.2236 141.943 45.5356H144.326C144.377 45.7886 144.529 45.996 144.782 46.1579C145.035 46.3097 145.343 46.3855 145.708 46.3855Z" fill="black" fill-opacity="0.95"/>
<path d="M34.8719 78.3556H33.339V74.0147L29.332 67.4276H31.0319L34.113 72.6791L37.3004 67.4276H38.8789L34.8719 74.0147V78.3556ZM37.9727 74.4094C37.9727 72.9624 38.4027 71.8696 39.2628 71.131C39.9509 70.534 40.8211 70.2355 41.8734 70.2355C43.0977 70.2355 44.059 70.625 44.7572 71.4042C45.425 72.1327 45.7589 73.1344 45.7589 74.4094C45.7589 75.8361 45.339 76.9238 44.4991 77.6726C43.8111 78.2797 42.9308 78.5833 41.8582 78.5833C40.6339 78.5833 39.6675 78.1785 38.9592 77.369C38.3015 76.6304 37.9727 75.6438 37.9727 74.4094ZM39.4905 74.4094C39.4905 75.4212 39.7485 76.1953 40.2645 76.7316C40.6895 77.1768 41.2309 77.3994 41.8886 77.3994C42.6576 77.3994 43.2495 77.111 43.6644 76.5343C44.0489 76.0081 44.2411 75.2998 44.2411 74.4094C44.2411 73.3773 43.9882 72.5982 43.4822 72.072C43.0674 71.6369 42.5311 71.4193 41.8734 71.4193C41.1145 71.4193 40.5226 71.7077 40.0976 72.2845C39.6928 72.8106 39.4905 73.5189 39.4905 74.4094ZM47.3491 70.4631H48.8062V75.6388C48.8062 76.772 49.3526 77.3387 50.4454 77.3387C51.1132 77.3387 51.6242 77.1009 51.9783 76.6253C52.2515 76.2611 52.3881 75.8108 52.3881 75.2745V70.4631H53.8452V78.3556H52.6462L52.4792 77.4449C51.9227 78.2038 51.1334 78.5833 50.1115 78.5833C49.2109 78.5833 48.5178 78.305 48.0321 77.7485C47.5768 77.2324 47.3491 76.5191 47.3491 75.6084V70.4631ZM61.9848 78.3556H60.5277V67.4276H61.9848V71.3586C62.5615 70.6099 63.3305 70.2355 64.2918 70.2355C65.2227 70.2355 65.936 70.5239 66.4319 71.1006C66.867 71.6167 67.0845 72.3199 67.0845 73.2103V78.3556H65.6274V73.2255C65.6274 72.0619 65.0659 71.4801 63.9427 71.4801C63.3457 71.4801 62.86 71.6875 62.4856 72.1023C62.1517 72.4767 61.9848 72.9574 61.9848 73.5442V78.3556ZM70.3839 72.6639H68.8358C68.9167 71.8747 69.2911 71.2625 69.9589 70.8274C70.5559 70.4328 71.3097 70.2355 72.2204 70.2355C73.3031 70.2355 74.1328 70.5188 74.7096 71.0854C75.1952 71.5711 75.4381 72.1985 75.4381 72.9675V78.3556H74.239L74.0569 77.278C73.4397 78.1482 72.5594 78.5833 71.416 78.5833C70.5154 78.5833 69.8122 78.3404 69.3063 77.8547C68.8914 77.45 68.684 76.939 68.684 76.3218C68.684 75.5426 68.9521 74.9406 69.4884 74.5156C69.964 74.1412 70.6925 73.868 71.674 73.696L73.981 73.3014V72.9068C73.981 72.3907 73.8039 72.0012 73.4498 71.7381C73.1361 71.5054 72.7061 71.389 72.1597 71.389C71.0871 71.389 70.4952 71.814 70.3839 72.6639ZM71.7651 77.3539C72.3823 77.3539 72.9186 77.1515 73.3739 76.7467C73.7787 76.3724 73.981 75.9423 73.981 75.4566V74.4397L72.0231 74.7888C71.3047 74.9102 70.8139 75.0974 70.5508 75.3504C70.3384 75.5528 70.2321 75.826 70.2321 76.17C70.2321 76.5545 70.3637 76.8479 70.6267 77.0503C70.8898 77.2527 71.2693 77.3539 71.7651 77.3539ZM82.2571 70.4631H83.7748L80.9973 78.3556H79.0242L76.277 70.4631H77.8707L80.0563 77.1717L82.2571 70.4631ZM90.0606 76.0789H91.6391C91.4165 76.8783 90.9763 77.5056 90.3186 77.961C89.7014 78.3758 88.9627 78.5833 88.1026 78.5833C86.8581 78.5833 85.8867 78.1886 85.1885 77.3994C84.551 76.6607 84.2323 75.6641 84.2323 74.4094C84.2323 72.9827 84.637 71.9 85.4465 71.1613C86.1144 70.5441 86.9744 70.2355 88.0268 70.2355C89.2612 70.2355 90.1921 70.6352 90.8195 71.4345C91.4266 72.2035 91.7301 73.3014 91.7301 74.7281H85.7197C85.7804 75.659 86.0638 76.3521 86.5697 76.8075C86.9845 77.1717 87.5107 77.3539 88.1482 77.3539C88.644 77.3539 89.074 77.2173 89.4383 76.9441C89.7418 76.7113 89.9493 76.423 90.0606 76.0789ZM88.0571 71.4042C87.4095 71.4042 86.8884 71.6065 86.4938 72.0113C86.1194 72.3857 85.8816 72.9068 85.7804 73.5746H90.2427C90.1921 72.8157 89.9392 72.2491 89.4838 71.8747C89.1196 71.561 88.644 71.4042 88.0571 71.4042ZM99.2721 72.6639H97.7239C97.8049 71.8747 98.1793 71.2625 98.8471 70.8274C99.4441 70.4328 100.198 70.2355 101.109 70.2355C102.191 70.2355 103.021 70.5188 103.598 71.0854C104.083 71.5711 104.326 72.1985 104.326 72.9675V78.3556H103.127L102.945 77.278C102.328 78.1482 101.448 78.5833 100.304 78.5833C99.4036 78.5833 98.7004 78.3404 98.1944 77.8547C97.7796 77.45 97.5722 76.939 97.5722 76.3218C97.5722 75.5426 97.8403 74.9406 98.3766 74.5156C98.8521 74.1412 99.5807 73.868 100.562 73.696L102.869 73.3014V72.9068C102.869 72.3907 102.692 72.0012 102.338 71.7381C102.024 71.5054 101.594 71.389 101.048 71.389C99.9753 71.389 99.3834 71.814 99.2721 72.6639ZM100.653 77.3539C101.27 77.3539 101.807 77.1515 102.262 76.7467C102.667 76.3724 102.869 75.9423 102.869 75.4566V74.4397L100.911 74.7888C100.193 74.9102 99.7021 75.0974 99.439 75.3504C99.2265 75.5528 99.1203 75.826 99.1203 76.17C99.1203 76.5545 99.2518 76.8479 99.5149 77.0503C99.778 77.2527 100.157 77.3539 100.653 77.3539ZM114.823 67.3821V68.6418C114.338 68.5204 113.938 68.4597 113.624 68.4597C113.361 68.4597 113.154 68.5305 113.002 68.6722C112.86 68.8138 112.79 69.0111 112.79 69.2641V70.4631H114.489V71.7077H112.79V78.3556H111.332V71.7077H110.164V70.4631H111.332V69.3552C111.332 68.657 111.56 68.1106 112.015 67.716C112.42 67.3719 112.926 67.1999 113.533 67.1999C113.928 67.1999 114.358 67.2606 114.823 67.3821ZM121.187 76.0789H122.765C122.543 76.8783 122.103 77.5056 121.445 77.961C120.828 78.3758 120.089 78.5833 119.229 78.5833C117.984 78.5833 117.013 78.1886 116.315 77.3994C115.677 76.6607 115.359 75.6641 115.359 74.4094C115.359 72.9827 115.763 71.9 116.573 71.1613C117.241 70.5441 118.101 70.2355 119.153 70.2355C120.388 70.2355 121.318 70.6352 121.946 71.4345C122.553 72.2035 122.856 73.3014 122.856 74.7281H116.846C116.907 75.659 117.19 76.3521 117.696 76.8075C118.111 77.1717 118.637 77.3539 119.274 77.3539C119.77 77.3539 120.2 77.2173 120.565 76.9441C120.868 76.7113 121.076 76.423 121.187 76.0789ZM119.183 71.4042C118.536 71.4042 118.015 71.6065 117.62 72.0113C117.246 72.3857 117.008 72.9068 116.907 73.5746H121.369C121.318 72.8157 121.065 72.2491 120.61 71.8747C120.246 71.561 119.77 71.4042 119.183 71.4042ZM134.15 70.4631H135.607L133.3 78.3556H131.616L129.703 72.1175L127.821 78.3556H126.076L123.769 70.4631H125.286L126.986 76.8075L128.868 70.4631H130.614L132.466 76.7771L134.15 70.4631ZM142.898 78.3556H141.441V70.4631H142.64L142.807 71.4649C143.394 70.6453 144.194 70.2355 145.205 70.2355C146.136 70.2355 146.85 70.5239 147.345 71.1006C147.781 71.6167 147.998 72.3199 147.998 73.2103V78.3556H146.541V73.2255C146.541 72.0619 145.979 71.4801 144.856 71.4801C144.269 71.4801 143.789 71.6824 143.414 72.0872C143.07 72.4514 142.898 72.9169 142.898 73.4835V78.3556ZM155.426 76.0789H157.004C156.782 76.8783 156.342 77.5056 155.684 77.961C155.067 78.3758 154.328 78.5833 153.468 78.5833C152.223 78.5833 151.252 78.1886 150.554 77.3994C149.916 76.6607 149.598 75.6641 149.598 74.4094C149.598 72.9827 150.002 71.9 150.812 71.1613C151.48 70.5441 152.34 70.2355 153.392 70.2355C154.626 70.2355 155.557 70.6352 156.185 71.4345C156.792 72.2035 157.095 73.3014 157.095 74.7281H151.085C151.146 75.659 151.429 76.3521 151.935 76.8075C152.35 77.1717 152.876 77.3539 153.513 77.3539C154.009 77.3539 154.439 77.2173 154.804 76.9441C155.107 76.7113 155.315 76.423 155.426 76.0789ZM153.422 71.4042C152.775 71.4042 152.254 71.6065 151.859 72.0113C151.485 72.3857 151.247 72.9068 151.146 73.5746H155.608C155.557 72.8157 155.304 72.2491 154.849 71.8747C154.485 71.561 154.009 71.4042 153.422 71.4042ZM168.389 70.4631H169.846L167.539 78.3556H165.854L163.942 72.1175L162.06 78.3556H160.315L158.008 70.4631H159.525L161.225 76.8075L163.107 70.4631H164.853L166.704 76.7771L168.389 70.4631ZM177.137 78.3556H175.68V70.4631H176.879L177.046 71.4649C177.633 70.6453 178.432 70.2355 179.444 70.2355C180.375 70.2355 181.089 70.5239 181.584 71.1006C182.019 71.6167 182.237 72.3199 182.237 73.2103V78.3556H180.78V73.2255C180.78 72.0619 180.218 71.4801 179.095 71.4801C178.508 71.4801 178.028 71.6824 177.653 72.0872C177.309 72.4514 177.137 72.9169 177.137 73.4835V78.3556ZM183.836 74.4094C183.836 72.9624 184.267 71.8696 185.127 71.131C185.815 70.534 186.685 70.2355 187.737 70.2355C188.962 70.2355 189.923 70.625 190.621 71.4042C191.289 72.1327 191.623 73.1344 191.623 74.4094C191.623 75.8361 191.203 76.9238 190.363 77.6726C189.675 78.2797 188.795 78.5833 187.722 78.5833C186.498 78.5833 185.531 78.1785 184.823 77.369C184.165 76.6304 183.836 75.6438 183.836 74.4094ZM185.354 74.4094C185.354 75.4212 185.612 76.1953 186.128 76.7316C186.553 77.1768 187.095 77.3994 187.752 77.3994C188.521 77.3994 189.113 77.111 189.528 76.5343C189.913 76.0081 190.105 75.2998 190.105 74.4094C190.105 73.3773 189.852 72.5982 189.346 72.072C188.931 71.6369 188.395 71.4193 187.737 71.4193C186.978 71.4193 186.386 71.7077 185.961 72.2845C185.557 72.8106 185.354 73.5189 185.354 74.4094ZM196.81 77.1869V78.4315C196.436 78.5327 196.076 78.5833 195.732 78.5833C195.004 78.5833 194.457 78.3556 194.093 77.9003C193.78 77.5259 193.623 77.025 193.623 76.3977V71.7077H192.454V70.4631H193.623L193.714 68.5659H195.08V70.4631H196.78V71.7077H195.08V76.428C195.08 77.0149 195.358 77.3083 195.915 77.3083C196.178 77.3083 196.476 77.2678 196.81 77.1869ZM199.728 69.1427H198.089V67.4276H199.728V69.1427ZM199.637 78.3556H198.18V70.4631H199.637V78.3556ZM205.668 67.3821V68.6418C205.182 68.5204 204.782 68.4597 204.469 68.4597C204.206 68.4597 203.998 68.5305 203.846 68.6722C203.705 68.8138 203.634 69.0111 203.634 69.2641V70.4631H205.334V71.7077H203.634V78.3556H202.177V71.7077H201.008V70.4631H202.177V69.3552C202.177 68.657 202.404 68.1106 202.86 67.716C203.265 67.3719 203.77 67.1999 204.378 67.1999C204.772 67.1999 205.202 67.2606 205.668 67.3821ZM208.206 69.1427H206.567V67.4276H208.206V69.1427ZM208.115 78.3556H206.658V70.4631H208.115V78.3556ZM215.39 75.8209H216.984C216.863 76.6709 216.463 77.3539 215.785 77.8699C215.168 78.3455 214.414 78.5833 213.524 78.5833C212.36 78.5833 211.434 78.1836 210.746 77.3842C210.109 76.6456 209.79 75.6742 209.79 74.4701C209.79 73.0737 210.174 71.991 210.943 71.222C211.601 70.5643 212.456 70.2355 213.508 70.2355C214.48 70.2355 215.279 70.4935 215.907 71.0095C216.463 71.4649 216.802 72.0619 216.923 72.8005H215.315C215.213 72.3755 215.006 72.0467 214.692 71.814C214.389 71.5812 214.004 71.4649 213.539 71.4649C212.82 71.4649 212.269 71.7482 211.884 72.3148C211.52 72.841 211.338 73.5746 211.338 74.5156C211.338 75.4971 211.581 76.2408 212.067 76.7467C212.451 77.1515 212.947 77.3539 213.554 77.3539C214.08 77.3539 214.51 77.2021 214.844 76.8985C215.138 76.6354 215.32 76.2762 215.39 75.8209ZM219.894 72.6639H218.346C218.427 71.8747 218.801 71.2625 219.469 70.8274C220.066 70.4328 220.82 70.2355 221.73 70.2355C222.813 70.2355 223.643 70.5188 224.22 71.0854C224.705 71.5711 224.948 72.1985 224.948 72.9675V78.3556H223.749L223.567 77.278C222.95 78.1482 222.069 78.5833 220.926 78.5833C220.025 78.5833 219.322 78.3404 218.816 77.8547C218.401 77.45 218.194 76.939 218.194 76.3218C218.194 75.5426 218.462 74.9406 218.998 74.5156C219.474 74.1412 220.203 73.868 221.184 73.696L223.491 73.3014V72.9068C223.491 72.3907 223.314 72.0012 222.96 71.7381C222.646 71.5054 222.216 71.389 221.67 71.389C220.597 71.389 220.005 71.814 219.894 72.6639ZM221.275 77.3539C221.892 77.3539 222.429 77.1515 222.884 76.7467C223.289 76.3724 223.491 75.9423 223.491 75.4566V74.4397L221.533 74.7888C220.815 74.9102 220.324 75.0974 220.061 75.3504C219.848 75.5528 219.742 75.826 219.742 76.17C219.742 76.5545 219.874 76.8479 220.137 77.0503C220.4 77.2527 220.779 77.3539 221.275 77.3539ZM230.515 77.1869V78.4315C230.141 78.5327 229.782 78.5833 229.438 78.5833C228.709 78.5833 228.163 78.3556 227.799 77.9003C227.485 77.5259 227.328 77.025 227.328 76.3977V71.7077H226.159V70.4631H227.328L227.419 68.5659H228.785V70.4631H230.485V71.7077H228.785V76.428C228.785 77.0149 229.063 77.3083 229.62 77.3083C229.883 77.3083 230.181 77.2678 230.515 77.1869ZM233.434 69.1427H231.794V67.4276H233.434V69.1427ZM233.342 78.3556H231.885V70.4631H233.342V78.3556ZM235.017 74.4094C235.017 72.9624 235.447 71.8696 236.307 71.131C236.995 70.534 237.865 70.2355 238.918 70.2355C240.142 70.2355 241.103 70.625 241.801 71.4042C242.469 72.1327 242.803 73.1344 242.803 74.4094C242.803 75.8361 242.383 76.9238 241.543 77.6726C240.855 78.2797 239.975 78.5833 238.903 78.5833C237.678 78.5833 236.712 78.1785 236.004 77.369C235.346 76.6304 235.017 75.6438 235.017 74.4094ZM236.535 74.4094C236.535 75.4212 236.793 76.1953 237.309 76.7316C237.734 77.1768 238.275 77.3994 238.933 77.3994C239.702 77.3994 240.294 77.111 240.709 76.5343C241.093 76.0081 241.285 75.2998 241.285 74.4094C241.285 73.3773 241.032 72.5982 240.527 72.072C240.112 71.6369 239.575 71.4193 238.918 71.4193C238.159 71.4193 237.567 71.7077 237.142 72.2845C236.737 72.8106 236.535 73.5189 236.535 74.4094ZM245.926 78.3556H244.469V70.4631H245.668L245.835 71.4649C246.422 70.6453 247.222 70.2355 248.233 70.2355C249.164 70.2355 249.878 70.5239 250.373 71.1006C250.809 71.6167 251.026 72.3199 251.026 73.2103V78.3556H249.569V73.2255C249.569 72.0619 249.007 71.4801 247.884 71.4801C247.297 71.4801 246.817 71.6824 246.442 72.0872C246.098 72.4514 245.926 72.9169 245.926 73.4835V78.3556ZM257.695 76.2155C257.695 75.7703 257.462 75.4364 256.997 75.2138C256.724 75.0924 256.192 74.9406 255.403 74.7585C254.432 74.546 253.739 74.2374 253.324 73.8326C252.98 73.4886 252.808 73.0383 252.808 72.4818C252.808 71.7431 253.106 71.1765 253.703 70.7819C254.24 70.4176 254.963 70.2355 255.874 70.2355C256.815 70.2355 257.579 70.4682 258.165 70.9337C258.671 71.3384 258.985 71.8747 259.107 72.5425H257.619C257.447 71.7735 256.86 71.389 255.858 71.389C255.302 71.389 254.887 71.4902 254.614 71.6925C254.391 71.8646 254.28 72.0821 254.28 72.3452C254.28 72.669 254.401 72.9118 254.644 73.0737C254.897 73.2356 255.388 73.3975 256.116 73.5594C257.23 73.8023 258.004 74.1008 258.439 74.4549C258.924 74.8495 259.167 75.401 259.167 76.1093C259.167 76.8985 258.843 77.5208 258.196 77.9761C257.609 78.3809 256.835 78.5833 255.874 78.5833C254.821 78.5833 253.987 78.3303 253.369 77.8244C252.833 77.3792 252.535 76.8024 252.474 76.0941H253.961C254.123 76.9845 254.766 77.4297 255.889 77.4297C256.496 77.4297 256.966 77.2982 257.3 77.0351C257.563 76.8226 257.695 76.5494 257.695 76.2155ZM39.9413 93.4631H41.3984L39.0913 101.356H37.4066L35.4942 95.1175L33.6122 101.356H31.8667L29.5597 93.4631H31.0775L32.7774 99.8075L34.6594 93.4631H36.4049L38.2566 99.7771L39.9413 93.4631ZM43.7783 95.6639H42.2302C42.3111 94.8747 42.6855 94.2625 43.3533 93.8274C43.9503 93.4328 44.7042 93.2355 45.6148 93.2355C46.6975 93.2355 47.5272 93.5188 48.104 94.0854C48.5897 94.5711 48.8325 95.1985 48.8325 95.9675V101.356H47.6335L47.4513 100.278C46.8341 101.148 45.9538 101.583 44.8104 101.583C43.9099 101.583 43.2066 101.34 42.7007 100.855C42.2858 100.45 42.0784 99.939 42.0784 99.3218C42.0784 98.5426 42.3465 97.9406 42.8828 97.5156C43.3584 97.1412 44.0869 96.868 45.0684 96.696L47.3754 96.3014V95.9068C47.3754 95.3907 47.1984 95.0012 46.8442 94.7381C46.5305 94.5054 46.1005 94.389 45.5541 94.389C44.4815 94.389 43.8896 94.814 43.7783 95.6639ZM45.1595 100.354C45.7767 100.354 46.313 100.151 46.7683 99.7467C47.1731 99.3724 47.3754 98.9423 47.3754 98.4566V97.4397L45.4175 97.7888C44.6991 97.9102 44.2083 98.0974 43.9453 98.3504C43.7328 98.5528 43.6265 98.826 43.6265 99.17C43.6265 99.5545 43.7581 99.8479 44.0212 100.05C44.2842 100.253 44.6637 100.354 45.1595 100.354ZM52.4267 92.1427H50.7875V90.4276H52.4267V92.1427ZM52.3356 101.356H50.8785V93.4631H52.3356V101.356ZM57.9867 100.187V101.431C57.6123 101.533 57.2531 101.583 56.9091 101.583C56.1806 101.583 55.6342 101.356 55.2699 100.9C54.9562 100.526 54.7994 100.025 54.7994 99.3977V94.7077H53.6307V93.4631H54.7994L54.8905 91.5659H56.2565V93.4631H57.9564V94.7077H56.2565V99.428C56.2565 100.015 56.5347 100.308 57.0912 100.308C57.3543 100.308 57.6528 100.268 57.9867 100.187ZM60.9049 92.1427H59.2657V90.4276H60.9049V92.1427ZM60.8138 101.356H59.3568V93.4631H60.8138V101.356ZM64.4008 101.356H62.9437V93.4631H64.1427L64.3097 94.4649C64.8966 93.6453 65.6959 93.2355 66.7078 93.2355C67.6387 93.2355 68.352 93.5239 68.8479 94.1006C69.2829 94.6167 69.5005 95.3199 69.5005 96.2103V101.356H68.0434V96.2255C68.0434 95.0619 67.4819 94.4801 66.3587 94.4801C65.7718 94.4801 65.2912 94.6824 64.9168 95.0872C64.5728 95.4514 64.4008 95.9169 64.4008 96.4835V101.356ZM71.4642 101.887H73.0276C73.0984 102.292 73.3008 102.605 73.6347 102.828C73.9787 103.05 74.429 103.162 74.9855 103.162C75.7646 103.162 76.3464 102.959 76.7309 102.555C77.0547 102.211 77.2166 101.73 77.2166 101.113V100.096C76.6297 100.784 75.7545 101.128 74.5909 101.128C73.5385 101.128 72.6835 100.748 72.0258 99.9896C71.4086 99.2813 71.1 98.3605 71.1 97.2272C71.1 95.9118 71.4744 94.8949 72.2231 94.1765C72.8606 93.5492 73.6802 93.2355 74.6819 93.2355C75.8152 93.2355 76.6702 93.6605 77.247 94.5104L77.4746 93.4631H78.6737V101.189C78.6737 102.18 78.3145 102.959 77.5961 103.526C76.9485 104.052 76.0935 104.315 75.031 104.315C73.9281 104.315 73.063 104.067 72.4356 103.572C71.9095 103.157 71.5857 102.595 71.4642 101.887ZM72.6178 97.2576C72.6178 98.1177 72.8707 98.7905 73.3766 99.2762C73.7915 99.681 74.3025 99.8833 74.9096 99.8833C75.709 99.8833 76.3211 99.6203 76.7461 99.0941C77.1104 98.6489 77.2925 98.0519 77.2925 97.3031C77.2925 96.3419 77.0446 95.6083 76.5488 95.1023C76.1339 94.6875 75.5875 94.4801 74.9096 94.4801C74.1608 94.4801 73.5841 94.7381 73.1793 95.2541C72.8049 95.7398 72.6178 96.4076 72.6178 97.2576ZM89.2553 90.3821V91.6418C88.7696 91.5204 88.37 91.4597 88.0563 91.4597C87.7932 91.4597 87.5858 91.5305 87.434 91.6722C87.2923 91.8138 87.2215 92.0111 87.2215 92.2641V93.4631H88.9214V94.7077H87.2215V101.356H85.7644V94.7077H84.5957V93.4631H85.7644V92.3552C85.7644 91.657 85.9921 91.1106 86.4474 90.716C86.8522 90.3719 87.3581 90.1999 87.9652 90.1999C88.3598 90.1999 88.7899 90.2606 89.2553 90.3821ZM89.7906 97.4094C89.7906 95.9624 90.2206 94.8696 91.0807 94.131C91.7687 93.534 92.6389 93.2355 93.6913 93.2355C94.9156 93.2355 95.8769 93.625 96.575 94.4042C97.2429 95.1327 97.5768 96.1344 97.5768 97.4094C97.5768 98.8361 97.1569 99.9238 96.317 100.673C95.629 101.28 94.7486 101.583 93.6761 101.583C92.4517 101.583 91.4854 101.179 90.7771 100.369C90.1194 99.6304 89.7906 98.6438 89.7906 97.4094ZM91.3084 97.4094C91.3084 98.4212 91.5664 99.1953 92.0824 99.7316C92.5074 100.177 93.0487 100.399 93.7064 100.399C94.4754 100.399 95.0674 100.111 95.4822 99.5343C95.8667 99.0081 96.059 98.2998 96.059 97.4094C96.059 96.3773 95.806 95.5982 95.3001 95.072C94.8852 94.6369 94.349 94.4193 93.6913 94.4193C92.9324 94.4193 92.3404 94.7077 91.9155 95.2845C91.5107 95.8106 91.3084 96.5189 91.3084 97.4094ZM100.7 101.356H99.2429V93.4631H100.442L100.639 94.6318C101.084 93.7009 101.752 93.2355 102.643 93.2355C102.936 93.2355 103.225 93.2709 103.508 93.3417V94.7988C103.164 94.7077 102.855 94.6622 102.582 94.6622C101.995 94.6622 101.535 94.9 101.201 95.3755C100.867 95.8511 100.7 96.524 100.7 97.3942V101.356ZM115.79 93.4631L113.043 101.462C112.679 102.524 112.33 103.248 111.996 103.632C111.601 104.088 111.09 104.315 110.463 104.315C110.2 104.315 109.886 104.27 109.522 104.179V102.995C109.805 103.066 110.058 103.101 110.281 103.101C110.595 103.101 110.837 102.99 111.009 102.767C111.181 102.555 111.399 102.084 111.662 101.356H111.192L108.293 93.4631H109.871L112.102 100.172L114.333 93.4631H115.79ZM116.248 97.4094C116.248 95.9624 116.678 94.8696 117.538 94.131C118.226 93.534 119.096 93.2355 120.149 93.2355C121.373 93.2355 122.334 93.625 123.032 94.4042C123.7 95.1327 124.034 96.1344 124.034 97.4094C124.034 98.8361 123.614 99.9238 122.774 100.673C122.086 101.28 121.206 101.583 120.133 101.583C118.909 101.583 117.943 101.179 117.234 100.369C116.577 99.6304 116.248 98.6438 116.248 97.4094ZM117.766 97.4094C117.766 98.4212 118.024 99.1953 118.54 99.7316C118.965 100.177 119.506 100.399 120.164 100.399C120.933 100.399 121.525 100.111 121.94 99.5343C122.324 99.0081 122.516 98.2998 122.516 97.4094C122.516 96.3773 122.263 95.5982 121.757 95.072C121.343 94.6369 120.806 94.4193 120.149 94.4193C119.39 94.4193 118.798 94.7077 118.373 95.2845C117.968 95.8106 117.766 96.5189 117.766 97.4094ZM125.624 93.4631H127.081V98.6388C127.081 99.772 127.628 100.339 128.721 100.339C129.388 100.339 129.899 100.101 130.254 99.6253C130.527 99.2611 130.663 98.8108 130.663 98.2745V93.4631H132.12V101.356H130.921L130.754 100.445C130.198 101.204 129.409 101.583 128.387 101.583C127.486 101.583 126.793 101.305 126.307 100.748C125.852 100.232 125.624 99.5191 125.624 98.6084V93.4631ZM136.347 101.356H134.586V99.595H136.347V101.356Z" fill="black" fill-opacity="0.95"/>
<rect x="29.332" y="123.533" width="52.9722" height="26.5611" rx="13.2806" fill="black" fill-opacity="0.95"/>
<path d="M47.919 136.095V141.314H46.7503L46.5112 140.278C46.2014 140.668 45.7985 140.973 45.3027 141.194C44.8069 141.407 44.2535 141.513 43.6426 141.513C42.3234 141.513 41.2743 141.035 40.4951 140.079C39.7691 139.185 39.4061 137.994 39.4061 136.506C39.4061 134.815 39.8887 133.527 40.8537 132.642C41.6417 131.916 42.6554 131.553 43.895 131.553C45.0459 131.553 45.9977 131.867 46.7503 132.496C47.3877 133.027 47.7729 133.704 47.9057 134.528H46.2323C46.0995 133.952 45.8029 133.518 45.3425 133.226C44.953 132.978 44.4705 132.854 43.895 132.854C43.0184 132.854 42.3367 133.186 41.8498 133.85C41.3894 134.488 41.1592 135.373 41.1592 136.506C41.1592 137.781 41.469 138.755 42.0888 139.428C42.5758 139.95 43.1822 140.212 43.9082 140.212C44.6697 140.212 45.2894 139.986 45.7675 139.534C46.2014 139.127 46.4183 138.631 46.4183 138.047V137.33H43.8286V136.095H47.919ZM49.1964 137.848C49.1964 136.591 49.5682 135.639 50.312 134.992C50.9229 134.47 51.7197 134.209 52.7025 134.209C53.8446 134.209 54.7255 134.554 55.3453 135.245C55.9208 135.873 56.2085 136.741 56.2085 137.848C56.2085 139.105 55.8455 140.057 55.1195 140.703C54.5086 141.243 53.7029 141.513 52.7025 141.513C51.5692 141.513 50.6882 141.159 50.0596 140.451C49.4841 139.804 49.1964 138.937 49.1964 137.848ZM52.7157 140.331C53.3444 140.331 53.8136 140.101 54.1235 139.641C54.4157 139.224 54.5617 138.627 54.5617 137.848C54.5617 136.962 54.367 136.312 53.9774 135.895C53.6675 135.559 53.2425 135.391 52.7025 135.391C52.0827 135.391 51.6135 135.617 51.2947 136.068C50.9937 136.484 50.8432 137.077 50.8432 137.848C50.8432 138.724 51.038 139.375 51.4275 139.8C51.7551 140.154 52.1845 140.331 52.7157 140.331ZM60.9831 140.145V141.354C60.6112 141.46 60.2571 141.513 59.9206 141.513C59.2389 141.513 58.721 141.31 58.3668 140.902C58.0658 140.557 57.9153 140.092 57.9153 139.508V135.63H56.8794V134.408H57.9153L58.0215 132.748H59.509V134.408H60.9698V135.63H59.509V139.561C59.509 140.021 59.7436 140.252 60.2128 140.252C60.4165 140.252 60.6732 140.216 60.9831 140.145ZM67.5174 133.359H65.7644V131.752H67.5174V133.359ZM67.4378 141.314H65.8441V134.408H67.4378V141.314ZM72.5647 140.145V141.354C72.1928 141.46 71.8387 141.513 71.5022 141.513C70.8205 141.513 70.3026 141.31 69.9484 140.902C69.6474 140.557 69.4969 140.092 69.4969 139.508V135.63H68.461V134.408H69.4969L69.6031 132.748H71.0905V134.408H72.5514V135.63H71.0905V139.561C71.0905 140.021 71.3252 140.252 71.7944 140.252C71.998 140.252 72.2548 140.216 72.5647 140.145Z" fill="white" fill-opacity="0.95"/>
<path d="M289.921 39.3554L293.855 35.422C293.899 35.3779 293.934 35.3256 293.958 35.2681C293.982 35.2106 293.994 35.1489 293.994 35.0866C293.994 35.0243 293.982 34.9627 293.958 34.9051C293.934 34.8476 293.899 34.7953 293.855 34.7513C293.811 34.7072 293.759 34.6723 293.701 34.6485C293.643 34.6246 293.582 34.6124 293.52 34.6124C293.457 34.6124 293.396 34.6246 293.338 34.6485C293.281 34.6723 293.228 34.7072 293.184 34.7513L289.251 38.6847L285.317 34.7513C285.273 34.7068 285.221 34.6715 285.163 34.6473C285.106 34.6232 285.044 34.6107 284.981 34.6105C284.919 34.6103 284.857 34.6225 284.799 34.6463C284.741 34.6702 284.689 34.7052 284.645 34.7494C284.601 34.7936 284.566 34.8461 284.542 34.9039C284.518 34.9617 284.506 35.0236 284.506 35.0861C284.506 35.1486 284.519 35.2105 284.543 35.2681C284.567 35.3257 284.602 35.378 284.647 35.422L288.58 39.3554L284.647 43.2888C284.603 43.3329 284.568 43.3851 284.544 43.4427C284.52 43.5002 284.508 43.5619 284.508 43.6242C284.508 43.6865 284.52 43.7481 284.544 43.8057C284.568 43.8632 284.603 43.9155 284.647 43.9595C284.691 44.0036 284.743 44.0385 284.801 44.0623C284.858 44.0862 284.92 44.0984 284.982 44.0984C285.044 44.0984 285.106 44.0862 285.164 44.0623C285.221 44.0385 285.273 44.0036 285.317 43.9595L289.251 40.0261L293.184 43.9595C293.273 44.0485 293.394 44.0984 293.52 44.0984C293.645 44.0984 293.766 44.0485 293.855 43.9595C293.944 43.8706 293.994 43.75 293.994 43.6242C293.994 43.4984 293.944 43.3778 293.855 43.2888L289.921 39.3554Z" fill="black" fill-opacity="0.95"/>
<defs>
<filter id="filter0_dd_9738_422695" x="0.998047" y="0.96106" width="324" height="185.039" filterUnits="userSpaceOnUse" color-interpolation-filters="sRGB">
<feFlood flood-opacity="0" result="BackgroundImageFix"/>
<feColorMatrix in="SourceAlpha" type="matrix" values="0 0 0 0 0 0 0 0 0 0 0 0 0 0 0 0 0 0 127 0" result="hardAlpha"/>
<feOffset/>
<feGaussianBlur stdDeviation="0.5"/>
<feColorMatrix type="matrix" values="0 0 0 0 0 0 0 0 0 0 0 0 0 0 0 0 0 0 0.14 0"/>
<feBlend mode="normal" in2="BackgroundImageFix" result="effect1_dropShadow_9738_422695"/>
<feColorMatrix in="SourceAlpha" type="matrix" values="0 0 0 0 0 0 0 0 0 0 0 0 0 0 0 0 0 0 127 0" result="hardAlpha"/>
<feOffset dy="8"/>
<feGaussianBlur stdDeviation="8"/>
<feColorMatrix type="matrix" values="0 0 0 0 0 0 0 0 0 0 0 0 0 0 0 0 0 0 0.16 0"/>
<feBlend mode="normal" in2="effect1_dropShadow_9738_422695" result="effect2_dropShadow_9738_422695"/>
<feBlend mode="normal" in="SourceGraphic" in2="effect2_dropShadow_9738_422695" result="shape"/>
</filter>
</defs>
</svg>
