<svg width="24" height="24" viewBox="0 0 24 24" fill="none" xmlns="http://www.w3.org/2000/svg">
<path d="M12.1499 2.01892C10.2502 2.01892 8.39326 2.58223 6.81378 3.6376C5.2343 4.69298 4.00324 6.19303 3.27628 7.94805C2.54933 9.70308 2.35912 11.6343 2.72972 13.4974C3.10032 15.3605 4.01508 17.0719 5.35832 18.4151C6.70156 19.7584 8.41295 20.6731 10.2761 21.0437C12.1392 21.4143 14.0704 21.2241 15.8254 20.4972C17.5804 19.7702 19.0805 18.5392 20.1359 16.9597C21.1912 15.3802 21.7545 13.5232 21.7545 11.6236C21.7517 9.07716 20.7389 6.63582 18.9383 4.83521C17.1376 3.0346 14.6963 2.02176 12.1499 2.01892ZM15.4987 12.1267L12.6529 14.9725C12.5194 15.1059 12.3385 15.1809 12.1498 15.1809C11.9612 15.1809 11.7802 15.1059 11.6468 14.9725L8.80095 12.1267C8.67032 11.9927 8.59773 11.8126 8.59892 11.6255C8.60011 11.4384 8.67497 11.2593 8.80729 11.1269C8.93961 10.9946 9.11873 10.9198 9.30586 10.9186C9.49298 10.9174 9.67304 10.99 9.80703 11.1206L11.4384 12.7521V8.77777C11.4384 8.58908 11.5134 8.40812 11.6468 8.2747C11.7802 8.14127 11.9612 8.06632 12.1499 8.06632C12.3385 8.06632 12.5195 8.14127 12.6529 8.2747C12.7864 8.40812 12.8613 8.58908 12.8613 8.77777V12.7523L14.4926 11.121C14.5584 11.0535 14.6369 10.9998 14.7235 10.9629C14.8102 10.9261 14.9033 10.9068 14.9975 10.9062C15.0917 10.9056 15.1851 10.9237 15.2722 10.9595C15.3593 10.9952 15.4385 11.0479 15.5051 11.1145C15.5717 11.1811 15.6244 11.2603 15.6602 11.3474C15.696 11.4346 15.7141 11.5279 15.7135 11.6221C15.7129 11.7163 15.6936 11.8094 15.6567 11.8961C15.6198 11.9828 15.5661 12.0609 15.4987 12.1267Z" fill="white" fill-opacity="0.95"/>
</svg>
