<svg width="24" height="24" viewBox="0 0 24 24" fill="none" xmlns="http://www.w3.org/2000/svg">
<path d="M5.03553 4.5351C4.281 4.53585 3.55759 4.83592 3.02405 5.36945C2.49052 5.90299 2.19045 6.6264 2.1897 7.38093V15.9184C2.1897 16.6732 2.48953 17.397 3.02322 17.9307C3.55692 18.4644 4.28077 18.7643 5.03553 18.7643C5.79029 18.7643 6.51414 18.4644 7.04784 17.9307C7.58154 17.397 7.88136 16.6732 7.88136 15.9184V7.38093C7.88061 6.6264 7.58054 5.90299 7.04701 5.36945C6.51347 4.83592 5.79006 4.53585 5.03553 4.5351Z" fill="white" fill-opacity="0.95"/>
<path d="M19.2647 4.5351H12.1501C11.3956 4.53585 10.6722 4.83592 10.1386 5.36945C9.6051 5.90299 9.30503 6.6264 9.30428 7.38093V15.9184C9.30503 16.673 9.6051 17.3964 10.1386 17.9299C10.6722 18.4634 11.3956 18.7635 12.1501 18.7643H19.2647C20.0192 18.7635 20.7426 18.4634 21.2762 17.9299C21.8097 17.3964 22.1098 16.673 22.1105 15.9184V7.38093C22.1098 6.6264 21.8097 5.90299 21.2762 5.36945C20.7426 4.83592 20.0192 4.53585 19.2647 4.5351ZM10.727 8.80417H20.6874V10.2271H10.727V8.80417ZM13.5729 12.3615C13.5729 12.7544 13.2543 13.0729 12.8614 13.0729C12.4685 13.0729 12.1499 12.7544 12.1499 12.3615C12.1499 11.9685 12.4685 11.65 12.8614 11.65C13.2543 11.65 13.5729 11.9685 13.5729 12.3615ZM16.4187 12.3615C16.4187 12.7544 16.1002 13.0729 15.7072 13.0729C15.3143 13.0729 14.9958 12.7544 14.9958 12.3615C14.9958 11.9685 15.3143 11.65 15.7072 11.65C16.1002 11.65 16.4187 11.9685 16.4187 12.3615ZM18.5531 13.0729C18.1601 13.0729 17.8416 12.7544 17.8416 12.3615C17.8416 11.9685 18.1601 11.65 18.5531 11.65C18.946 11.65 19.2645 11.9685 19.2645 12.3615C19.2645 12.7544 18.946 13.0729 18.5531 13.0729ZM13.5729 15.2073C13.5729 15.6002 13.2543 15.9188 12.8614 15.9188C12.4685 15.9188 12.1499 15.6002 12.1499 15.2073C12.1499 14.8144 12.4685 14.4958 12.8614 14.4958C13.2543 14.4958 13.5729 14.8144 13.5729 15.2073ZM15.7072 15.9188C15.3143 15.9188 14.9958 15.6002 14.9958 15.2073C14.9958 14.8144 15.3143 14.4958 15.7072 14.4958C16.1002 14.4958 16.4187 14.8144 16.4187 15.2073C16.4187 15.6002 16.1002 15.9188 15.7072 15.9188ZM19.2645 15.2073C19.2645 15.6002 18.946 15.9188 18.5531 15.9188C18.1601 15.9188 17.8416 15.6002 17.8416 15.2073C17.8416 14.8144 18.1601 14.4958 18.5531 14.4958C18.946 14.4958 19.2645 14.8144 19.2645 15.2073Z" fill="white" fill-opacity="0.95"/>
</svg>
