<svg width="24" height="23" viewBox="0 0 24 23" fill="none" xmlns="http://www.w3.org/2000/svg">
<path fill-rule="evenodd" clip-rule="evenodd" d="M5.03929 4.38097C5.45597 3.00621 6.73306 2.00549 8.24388 2.00549H16.056C19.1378 2.00549 21.636 4.50377 21.636 7.58556V15.3976C21.636 16.9085 20.6353 18.1856 19.2606 18.6022C18.8439 19.977 17.5668 20.9777 16.056 20.9777H6.01186C4.16279 20.9777 2.66382 19.4787 2.66382 17.6297V7.58556C2.66382 6.07474 3.66454 4.79764 5.03929 4.38097ZM8.24388 3.67951H16.056C18.2132 3.67951 19.962 5.42831 19.962 7.58556V15.3976C19.962 15.8934 19.7465 16.3389 19.404 16.6454V7.58556C19.404 5.73649 17.905 4.23752 16.056 4.23752H6.99612C7.30265 3.89504 7.7481 3.67951 8.24388 3.67951ZM10.2002 7.70414C10.2002 7.33047 10.5031 7.02755 10.8768 7.02755C11.2504 7.02755 11.5534 7.33047 11.5534 7.70414V8.26235C12.1392 8.35553 12.6393 8.57501 13.0355 8.9356C13.2999 9.17601 13.4993 9.46535 13.6321 9.79984C13.7291 10.044 13.673 10.2912 13.533 10.4676C13.3967 10.6394 13.1822 10.7457 12.9483 10.7457C12.6104 10.7457 12.3701 10.5054 12.2747 10.2575C12.1952 10.0509 12.0614 9.8947 11.8626 9.78069L11.8564 9.77715C11.6183 9.63386 11.2866 9.54881 10.8377 9.54881C10.3278 9.54881 10.0035 9.65921 9.80795 9.82433C9.66057 9.95724 9.59057 10.1143 9.59057 10.3189C9.59057 10.5917 9.68046 10.7615 9.83785 10.8799L9.83911 10.8809C10.0415 11.0346 10.4618 11.2093 11.1547 11.3857L11.1558 11.386C12.1013 11.6301 12.8242 11.9711 13.2607 12.444C13.6307 12.8403 13.8091 13.3375 13.8091 13.9096C13.8091 14.5921 13.5464 15.1683 13.0313 15.6138C12.6314 15.9711 12.1332 16.1872 11.5534 16.2755V16.8926C11.5534 17.2663 11.2504 17.5692 10.8768 17.5692C10.5031 17.5692 10.2002 17.2663 10.2002 16.8926V16.262C9.60823 16.1648 9.10113 15.9297 8.69501 15.5454C8.37433 15.2488 8.14305 14.886 8.00158 14.463C7.83868 13.976 8.24603 13.5748 8.6715 13.5748C9.03638 13.5748 9.30105 13.8366 9.40006 14.1182C9.49167 14.3786 9.64375 14.5729 9.85906 14.7139L9.86063 14.7149C10.1108 14.8808 10.4483 14.9764 10.8963 14.9764C11.458 14.9764 11.8351 14.8453 12.0785 14.6326C12.2721 14.4533 12.368 14.2343 12.368 13.9506C12.368 13.6327 12.2561 13.4179 12.0398 13.2615C11.7746 13.075 11.2611 12.8722 10.4534 12.6691L10.4508 12.6685C9.64152 12.4583 9.01469 12.161 8.63636 11.7403C8.30366 11.3744 8.14952 10.9071 8.14952 10.37C8.14952 9.74742 8.39068 9.22351 8.86442 8.82485L8.8672 8.8225C9.22866 8.52498 9.67838 8.34282 10.2002 8.26139V7.70414Z" fill="white" fill-opacity="0.95"/>
</svg>
