<svg width="37" height="37" viewBox="0 0 37 37" fill="none" xmlns="http://www.w3.org/2000/svg">
<circle cx="18.1431" cy="18.9019" r="18.0236" fill="white" fill-opacity="0.01"/>
<path d="M24.665 23.0521H24.0097L23.4017 17.6206C23.3021 16.7509 22.9855 15.9203 22.4811 15.2049C21.9767 14.4895 21.3005 13.9124 20.5148 13.5265V12.9512C20.5157 12.6397 20.4547 12.3311 20.3354 12.0433C20.2162 11.7554 20.041 11.4941 19.8201 11.2745C19.3684 10.8431 18.7678 10.6023 18.1432 10.6023C17.5185 10.6023 16.918 10.8431 16.4663 11.2745C16.2453 11.4941 16.0702 11.7554 15.9509 12.0433C15.8316 12.3311 15.7707 12.6397 15.7715 12.9512V13.5265C14.9858 13.9125 14.3097 14.4898 13.8053 15.2052C13.3008 15.9207 12.9843 16.7514 12.8847 17.6212L12.2769 23.0521H11.6213C11.4641 23.0521 11.3133 23.1145 11.2021 23.2257C11.0909 23.3369 11.0284 23.4877 11.0284 23.6449C11.0284 23.8022 11.0909 23.953 11.2021 24.0642C11.3133 24.1754 11.4641 24.2378 11.6213 24.2378H15.1786C15.1797 25.0233 15.4926 25.7763 16.0484 26.3314C16.6042 26.8864 17.3576 27.1982 18.1432 27.1982C18.9287 27.1982 19.6821 26.8864 20.2379 26.3314C20.7938 25.7763 21.1066 25.0233 21.1077 24.2378H24.665C24.8223 24.2378 24.9731 24.1754 25.0842 24.0642C25.1954 23.953 25.2579 23.8022 25.2579 23.6449C25.2579 23.4877 25.1954 23.3369 25.0842 23.2257C24.9731 23.1145 24.8223 23.0521 24.665 23.0521ZM16.9573 12.9624C16.9568 12.8066 16.9873 12.6523 17.047 12.5084C17.1066 12.3645 17.1942 12.2338 17.3047 12.124C17.5305 11.9082 17.8308 11.7877 18.1432 11.7877C18.4555 11.7877 18.7559 11.9082 18.9817 12.124C19.0922 12.2338 19.1798 12.3645 19.2394 12.5084C19.299 12.6523 19.3295 12.8066 19.3291 12.9624V13.1104C18.5491 12.9273 17.7373 12.9273 16.9573 13.1104V12.9624ZM14.0629 17.7538C14.1889 16.7607 14.6728 15.8477 15.4239 15.1859C16.1749 14.524 17.1416 14.1589 18.1426 14.1588C19.1437 14.1587 20.1104 14.5238 20.8615 15.1855C21.6127 15.8472 22.0967 16.7601 22.2229 17.7532L22.8161 23.052H13.47L14.0629 17.7538ZM18.143 26.0165C17.6715 26.016 17.2194 25.8284 16.8859 25.4949C16.5525 25.1615 16.3649 24.7094 16.3644 24.2378H19.922C19.9214 24.7094 19.7338 25.1615 19.4003 25.495C19.0668 25.8284 18.6146 26.016 18.143 26.0165Z" fill="white" fill-opacity="0.95"/>
</svg>
