<svg width="24" height="24" viewBox="0 0 24 24" fill="none" xmlns="http://www.w3.org/2000/svg">
<path d="M12.1501 2.75781C10.2505 2.75781 8.39351 3.32112 6.81402 4.37649C5.23454 5.43187 4.00348 6.93192 3.27653 8.68695C2.54957 10.442 2.35937 12.3732 2.72997 14.2363C3.10056 16.0994 4.01532 17.8108 5.35856 19.154C6.7018 20.4973 8.41319 21.412 10.2763 21.7826C12.1394 22.1532 14.0706 21.963 15.8257 21.2361C17.5807 20.5091 19.0807 19.2781 20.1361 17.6986C21.1915 16.1191 21.7548 14.2621 21.7548 12.3625C21.752 9.81603 20.7392 7.37466 18.9386 5.57403C17.1379 3.7734 14.6966 2.76059 12.1501 2.75781ZM12.1499 16.987C11.974 16.987 11.802 16.9348 11.6558 16.8371C11.5095 16.7394 11.3956 16.6005 11.3282 16.438C11.2609 16.2755 11.2433 16.0967 11.2776 15.9242C11.3119 15.7516 11.3966 15.5932 11.521 15.4688C11.6454 15.3444 11.8039 15.2597 11.9764 15.2254C12.1489 15.1911 12.3277 15.2087 12.4902 15.276C12.6527 15.3433 12.7916 15.4573 12.8893 15.6036C12.987 15.7498 13.0392 15.9218 13.0392 16.0977C13.0392 16.3335 12.9455 16.5597 12.7787 16.7265C12.6119 16.8933 12.3857 16.987 12.1499 16.987ZM12.8615 12.9377V13.6346C12.8615 13.8233 12.7866 14.0042 12.6532 14.1377C12.5197 14.2711 12.3388 14.346 12.1501 14.346C11.9614 14.346 11.7804 14.2711 11.647 14.1377C11.5136 14.0042 11.4386 13.8233 11.4386 13.6346V12.3214C11.4386 12.228 11.4569 12.1355 11.4927 12.0491C11.5284 11.9628 11.5808 11.8843 11.6469 11.8183C11.713 11.7522 11.7914 11.6998 11.8778 11.664C11.9641 11.6283 12.0566 11.6099 12.1501 11.61C12.3148 11.6128 12.4784 11.5827 12.6313 11.5214C12.7843 11.4601 12.9234 11.3689 13.0406 11.2531C13.1578 11.1373 13.2507 10.9993 13.3139 10.8472C13.377 10.695 13.4091 10.5318 13.4083 10.367C13.4104 10.2011 13.3797 10.0364 13.3179 9.88237C13.2561 9.72837 13.1644 9.5881 13.0482 9.46965C12.9319 9.3512 12.7934 9.25691 12.6406 9.19219C12.4878 9.12748 12.3237 9.09362 12.1578 9.09257C11.9918 9.09151 11.8273 9.12329 11.6737 9.18606C11.5201 9.24883 11.3804 9.34136 11.2627 9.45832C11.145 9.57528 11.0515 9.71437 10.9878 9.86758C10.924 10.0208 10.8912 10.1851 10.8911 10.351C10.8911 10.5397 10.8162 10.7207 10.6828 10.8541C10.5493 10.9875 10.3684 11.0625 10.1797 11.0625C9.99099 11.0625 9.81003 10.9875 9.67661 10.8541C9.54318 10.7207 9.46822 10.5397 9.46822 10.351C9.46847 9.85138 9.60832 9.36173 9.872 8.93731C10.1357 8.51288 10.5127 8.17057 10.9605 7.94898C11.4084 7.72738 11.9092 7.63532 12.4066 7.68317C12.9039 7.73102 13.378 7.91688 13.7754 8.21979C14.1728 8.5227 14.4776 8.93061 14.6555 9.39752C14.8335 9.86443 14.8774 10.3718 14.7824 10.8623C14.6873 11.3529 14.4572 11.8071 14.1178 12.1738C13.7784 12.5405 13.3433 12.8051 12.8615 12.9377Z" fill="white" fill-opacity="0.95"/>
</svg>
