<svg width="92" height="23" viewBox="0 0 92 23" fill="none" xmlns="http://www.w3.org/2000/svg">
<path d="M19.3936 18.8755L15.5863 7.2181H11.8134L8.0542 18.8119L4.47208 7.2181H0.920898L5.96922 22.4748H9.88652L13.6612 10.9618L17.4341 22.4748H21.415L26.4633 7.2181H22.9912L19.3936 18.8755Z" fill="white" fill-opacity="0.95"/>
<path d="M37.9505 7.8317C36.8624 7.1579 35.6128 6.821 34.1999 6.821C32.7131 6.821 31.3964 7.1579 30.25 7.8317C29.1035 8.50549 28.2097 9.45087 27.5668 10.6661C26.924 11.8814 26.6042 13.2754 26.6042 14.8464C26.6042 16.4381 26.936 17.8424 27.5995 19.0576C28.263 20.2729 29.1843 21.2131 30.3617 21.8766C31.5408 22.5401 32.8884 22.8718 34.4062 22.8718C35.6266 22.8718 36.7542 22.7051 37.7906 22.3699C38.8254 22.0347 39.7897 21.4864 40.6801 20.7215L39.0231 18.3495C38.3854 18.8582 37.6824 19.2553 36.9123 19.5355C36.1422 19.8174 35.3756 19.9583 34.6107 19.9583C33.8682 19.9583 33.1806 19.8208 32.5481 19.5441C31.9155 19.2673 31.3827 18.8376 30.9478 18.2549C30.5129 17.6705 30.2259 16.9434 30.0884 16.0737H41.347C41.39 15.5649 41.4106 15.1506 41.4106 14.8309C41.4106 13.2599 41.1046 11.8693 40.4944 10.6592C39.8877 9.44743 39.0385 8.50549 37.9505 7.8317ZM30.0918 13.5401C30.2826 12.3833 30.7209 11.4671 31.405 10.7933C32.0892 10.1195 33.0002 9.78261 34.1363 9.78261C35.1866 9.78261 36.0494 10.1126 36.7232 10.7692C37.397 11.4276 37.825 12.3506 38.0055 13.5401H30.0918Z" fill="white" fill-opacity="0.95"/>
<path d="M55.5946 7.85568C54.4327 7.16641 53.1453 6.82092 51.7323 6.82092C50.6924 6.82092 49.7728 7.01515 48.977 7.4019C48.1812 7.79036 47.5074 8.33352 46.9539 9.03482V0.724091H43.6262V22.4747H46.9539V20.6595C47.5057 21.3608 48.1795 21.904 48.977 22.2925C49.7728 22.6792 50.6907 22.8734 51.7323 22.8734C53.1435 22.8734 54.431 22.5279 55.5946 21.8387C56.7583 21.1494 57.6745 20.1937 58.35 18.9716C59.0238 17.7512 59.3607 16.3761 59.3607 14.848C59.3607 13.32 59.0238 11.9449 58.35 10.7245C57.6745 9.50063 56.7566 8.54666 55.5946 7.85568ZM55.3781 17.3146C55.0068 18.0572 54.4705 18.6467 53.7692 19.0816C53.0679 19.5165 52.2566 19.7348 51.3336 19.7348C50.4312 19.7348 49.6319 19.5216 48.9375 19.0971C48.2413 18.6725 47.6999 18.0881 47.3131 17.3456C46.9247 16.603 46.7322 15.7693 46.7322 14.8446C46.7322 13.9216 46.9264 13.0879 47.3131 12.3454C47.6999 11.6028 48.2413 11.0184 48.9375 10.5938C49.6319 10.1693 50.4312 9.95613 51.3336 9.95613C52.2566 9.95613 53.0696 10.1744 53.7692 10.6093C54.4705 11.0442 55.0051 11.6337 55.3781 12.3763C55.7494 13.1189 55.935 13.9422 55.935 14.8446C55.9367 15.7487 55.7511 16.5721 55.3781 17.3146Z" fill="white" fill-opacity="0.95"/>
<path d="M72.4568 7.8317C71.3687 7.1579 70.1191 6.821 68.7062 6.821C67.2194 6.821 65.9027 7.1579 64.7562 7.8317C63.6097 8.50549 62.7159 9.45087 62.0731 10.6661C61.4302 11.8814 61.1105 13.2754 61.1105 14.8464C61.1105 16.4381 61.4422 17.8424 62.1057 19.0576C62.7692 20.2729 63.6905 21.2131 64.868 21.8766C66.0471 22.5401 67.3947 22.8718 68.9124 22.8718C70.1328 22.8718 71.2621 22.7051 72.2969 22.3699C73.3317 22.0347 74.2959 21.4864 75.1863 20.7215L73.5311 18.3495C72.8934 18.8582 72.1903 19.2553 71.4203 19.5355C70.6502 19.8174 69.8836 19.9583 69.1187 19.9583C68.3762 19.9583 67.6886 19.8208 67.0561 19.5441C66.4235 19.2673 65.8907 18.8376 65.4558 18.2549C65.0209 17.6705 64.7339 16.9434 64.5964 16.0737H75.855C75.8979 15.5649 75.9186 15.1506 75.9186 14.8309C75.9186 13.2599 75.6126 11.8693 75.0024 10.6592C74.3939 9.44743 73.5448 8.50549 72.4568 7.8317ZM64.5981 13.5401C64.7889 12.3833 65.2272 11.4671 65.9113 10.7933C66.5954 10.1195 67.5064 9.78261 68.6426 9.78261C69.6928 9.78261 70.5557 10.1126 71.2295 10.7692C71.9033 11.4276 72.3313 12.3506 72.5118 13.5401H64.5981Z" fill="white" fill-opacity="0.95"/>
<path d="M79.9493 22.4748L83.7721 17.1721L87.6413 22.4748H91.7339L85.9843 14.6556L91.6222 7.2181H87.6894L83.9629 12.3145L80.2364 7.2181H76.1438L81.7971 14.6866L76.0475 22.4748H79.9493Z" fill="white" fill-opacity="0.95"/>
</svg>
