<svg width="24" height="23" viewBox="0 0 24 23" fill="none" xmlns="http://www.w3.org/2000/svg">
<path d="M3.96826 9.39065V17.2167C3.96918 18.0655 4.30679 18.8793 4.907 19.4795C5.50721 20.0797 6.321 20.4173 7.16982 20.4183H17.1302C17.9791 20.4173 18.7929 20.0797 19.3931 19.4795C19.9933 18.8793 20.3309 18.0655 20.3318 17.2167V9.39065H3.96826Z" fill="white" fill-opacity="0.95"/>
<path d="M17.1302 4.05471V2.27606C17.1302 2.08737 17.0553 1.90641 16.9219 1.77299C16.7884 1.63956 16.6075 1.56461 16.4188 1.56461C16.2301 1.56461 16.0491 1.63956 15.9157 1.77299C15.7823 1.90641 15.7073 2.08737 15.7073 2.27606V4.05471H8.59274V2.28738C8.59274 2.09869 8.51778 1.91772 8.38436 1.7843C8.25094 1.65087 8.06997 1.57592 7.88128 1.57592C7.69259 1.57592 7.51163 1.65087 7.37821 1.7843C7.24478 1.91772 7.16982 2.09869 7.16982 2.28738V4.05471C6.321 4.05563 5.50721 4.39324 4.907 4.99345C4.30679 5.59365 3.96918 6.40745 3.96826 7.25627V7.96773H20.3318V7.25627C20.3309 6.40745 19.9933 5.59367 19.393 4.99347C18.7928 4.39326 17.9791 4.05565 17.1302 4.05471Z" fill="white" fill-opacity="0.95"/>
</svg>
