<svg width="24" height="24" viewBox="0 0 24 24" fill="none" xmlns="http://www.w3.org/2000/svg">
<path d="M6.74041 5.93051C6.74035 5.1544 6.97413 4.39569 7.41218 3.75035C7.85023 3.10501 8.47288 2.60202 9.20138 2.30498C9.92989 2.00795 10.7315 1.93021 11.5049 2.08161C12.2783 2.23301 12.9887 2.60674 13.5463 3.15554C14.1039 3.70433 14.4836 4.40355 14.6374 5.16475C14.7912 5.92596 14.7122 6.71497 14.4105 7.43199C14.1087 8.14902 13.5976 8.76186 12.942 9.19301C12.2863 9.62416 11.5154 9.85425 10.7269 9.85419C9.66998 9.85299 8.65671 9.43921 7.90936 8.70363C7.16202 7.96805 6.74162 6.97077 6.74041 5.93051Z" fill="white" fill-opacity="0.95"/>
<path d="M13.6271 15.7962C13.5914 15.7099 13.573 15.6174 13.573 15.5239C13.573 15.4305 13.5914 15.338 13.6271 15.2516C13.6629 15.1653 13.7153 15.0869 13.7813 15.0208C13.8474 14.9547 13.9258 14.9023 14.0122 14.8666C14.0985 14.8308 14.191 14.8125 14.2845 14.8125H21.399C21.5877 14.8125 21.7687 14.8874 21.9021 15.0209C22.0355 15.1543 22.1105 15.3352 22.1105 15.5239C22.1105 15.7126 22.0355 15.8936 21.9021 16.027C21.7687 16.1604 21.5877 16.2354 21.399 16.2354H14.2845C14.191 16.2354 14.0985 16.217 14.0122 16.1813C13.9258 16.1455 13.8474 16.0931 13.7813 16.0271C13.7153 15.961 13.6629 15.8826 13.6271 15.7962Z" fill="white" fill-opacity="0.95"/>
<path d="M14.2845 17.6583H21.399C21.5877 17.6583 21.7687 17.7333 21.9021 17.8667C22.0355 18.0001 22.1105 18.1811 22.1105 18.3698C22.1105 18.5585 22.0355 18.7394 21.9021 18.8728C21.7687 19.0063 21.5877 19.0812 21.399 19.0812H14.2845C14.0958 19.0812 13.9148 19.0063 13.7814 18.8728C13.648 18.7394 13.573 18.5585 13.573 18.3698C13.573 18.1811 13.648 18.0001 13.7814 17.8667C13.9148 17.7333 14.0958 17.6583 14.2845 17.6583Z" fill="white" fill-opacity="0.95"/>
<path d="M21.399 20.5041H14.2845C14.0958 20.5041 13.9148 20.5791 13.7814 20.7125C13.648 20.8459 13.573 21.0269 13.573 21.2156C13.573 21.4043 13.648 21.5853 13.7814 21.7187C13.9148 21.8521 14.0958 21.9271 14.2845 21.9271H21.399C21.5877 21.9271 21.7687 21.8521 21.9021 21.7187C22.0355 21.5853 22.1105 21.4043 22.1105 21.2156C22.1105 21.0269 22.0355 20.8459 21.9021 20.7125C21.7687 20.5791 21.5877 20.5041 21.399 20.5041Z" fill="white" fill-opacity="0.95"/>
<path d="M11.4389 21.2156C6.33142 21.2156 2.90112 19.8961 2.90112 18.6626C2.90112 14.5784 6.73102 11.2552 11.4383 11.2552C13.7698 11.2552 15.8862 12.0704 17.4287 13.3896H14.5894C13.2422 13.3896 12.1501 14.4457 12.1501 15.7486C12.1501 16.2336 12.3014 16.6843 12.5608 17.0592C12.3014 17.434 12.1501 17.8848 12.1501 18.3698C12.1501 18.8547 12.3014 19.3055 12.5608 19.6803C12.3014 20.0552 12.1501 20.506 12.1501 20.9909C12.1501 21.0637 12.1535 21.1356 12.1602 21.2067C11.9237 21.2126 11.6832 21.2156 11.4389 21.2156Z" fill="white" fill-opacity="0.95"/>
</svg>
