<svg width="24" height="23" viewBox="0 0 24 23" fill="none" xmlns="http://www.w3.org/2000/svg">
<path d="M10.9665 8.53322C10.8102 8.76722 10.7267 9.04233 10.7267 9.32375C10.7272 9.70098 10.8773 10.0626 11.144 10.3294C11.4108 10.5961 11.7724 10.7462 12.1496 10.7467C12.4311 10.7467 12.7062 10.6632 12.9402 10.5069C13.1742 10.3505 13.3565 10.1283 13.4642 9.86828C13.5719 9.60827 13.6001 9.32217 13.5452 9.04616C13.4903 8.77014 13.3548 8.5166 13.1558 8.3176C12.9568 8.1186 12.7032 7.98308 12.4272 7.92818C12.1512 7.87327 11.8651 7.90145 11.6051 8.00915C11.3451 8.11685 11.1229 8.29923 10.9665 8.53322Z" fill="white" fill-opacity="0.95"/>
<path d="M9.30379 14.1344C9.30379 14.4936 10.4127 15.0147 12.1496 15.0147C13.8866 15.0147 14.9955 14.4936 14.9955 14.1344C14.9955 12.6844 13.4628 12.1696 12.1496 12.1696C10.8365 12.1696 9.30379 12.6844 9.30379 14.1344Z" fill="white" fill-opacity="0.95"/>
<path d="M6.61592 3.17634C8.2539 2.08188 10.1796 1.49771 12.1496 1.49771C14.7904 1.50068 17.3221 2.55102 19.1894 4.41832C21.0567 6.28562 22.1071 8.81737 22.11 11.4581C22.11 13.4281 21.5259 15.3539 20.4314 16.9918C19.3369 18.6298 17.7813 19.9065 15.9613 20.6604C14.1413 21.4142 12.1386 21.6115 10.2064 21.2272C8.27432 20.8428 6.49954 19.8942 5.10655 18.5012C3.71356 17.1082 2.76492 15.3334 2.3806 13.4013C1.99628 11.4692 2.19352 9.46647 2.9474 7.64644C3.70129 5.82641 4.97794 4.27081 6.61592 3.17634ZM14.9955 9.32375C14.9955 8.56899 14.6956 7.84514 14.1619 7.31144C13.6282 6.77775 12.9044 6.47792 12.1496 6.47792C11.3949 6.47792 10.671 6.77775 10.1373 7.31144C9.60362 7.84514 9.30379 8.56899 9.30379 9.32375C9.30655 9.99762 9.55054 10.6482 9.99159 11.1577C9.37506 11.3746 8.84099 11.7774 8.46296 12.3105C8.08493 12.8436 7.88156 13.4809 7.88088 14.1345C7.88088 14.5958 8.08376 15.4497 9.44136 15.9895C10.3093 16.3027 11.2271 16.4545 12.1496 16.4377C14.1186 16.4377 16.4184 15.8346 16.4184 14.1345C16.4177 13.4809 16.2143 12.8436 15.8363 12.3105C15.4583 11.7774 14.9242 11.3746 14.3077 11.1577C14.7487 10.6482 14.9927 9.99762 14.9955 9.32375Z" fill="white" fill-opacity="0.95"/>
</svg>
