<svg width="35" height="35" viewBox="0 0 35 35" fill="none" xmlns="http://www.w3.org/2000/svg">
<path d="M20.7505 16.8402L15.0589 11.1486C15.0151 11.1034 14.9628 11.0674 14.9049 11.0427C14.8471 11.018 14.7849 11.005 14.722 11.0045C14.6591 11.0041 14.5968 11.0161 14.5386 11.0399C14.4804 11.0638 14.4275 11.099 14.383 11.1434C14.3386 11.1879 14.3034 11.2408 14.2796 11.299C14.2557 11.3572 14.2437 11.4196 14.2442 11.4824C14.2446 11.5453 14.2576 11.6075 14.2824 11.6653C14.3071 11.7232 14.3431 11.7755 14.3882 11.8193L19.7445 17.1755L14.3882 22.5319C14.3431 22.5757 14.3071 22.628 14.2824 22.6858C14.2576 22.7437 14.2446 22.8058 14.2442 22.8687C14.2437 22.9316 14.2557 22.994 14.2796 23.0522C14.3034 23.1104 14.3386 23.1633 14.383 23.2077C14.4275 23.2522 14.4804 23.2874 14.5386 23.3112C14.5968 23.3351 14.6591 23.3471 14.722 23.3466C14.7849 23.3462 14.8471 23.3332 14.9049 23.3085C14.9628 23.2837 15.0151 23.2478 15.0589 23.2026L20.7505 17.5109C20.8395 17.422 20.8894 17.3014 20.8894 17.1756C20.8894 17.0498 20.8395 16.9292 20.7505 16.8402Z" fill="black" fill-opacity="0.95"/>
</svg>
