<svg width="24" height="24" viewBox="0 0 24 24" fill="none" xmlns="http://www.w3.org/2000/svg">
<path d="M5.32005 10.7838H9.41805C10.3674 10.7838 11.1255 10.0189 11.1255 9.07631V4.97831C11.1255 4.03577 10.3674 3.27081 9.41805 3.27081H5.32005C4.37751 3.27081 3.61255 4.03577 3.61255 4.97831V9.07631C3.61255 10.0189 4.37751 10.7838 5.32005 10.7838Z" fill="white" fill-opacity="0.95"/>
<path d="M9.41805 20.3458H5.32005C4.37751 20.3458 3.61255 19.5809 3.61255 18.6383V14.5403C3.61255 13.5978 4.37751 12.8328 5.32005 12.8328H9.41805C10.3606 12.8328 11.1255 13.5978 11.1255 14.5403V18.6383C11.1255 19.5809 10.3606 20.3458 9.41805 20.3458Z" fill="white" fill-opacity="0.95"/>
<path d="M18.98 20.3458H14.882C13.9395 20.3458 13.1745 19.5809 13.1745 18.6383V14.5403C13.1745 13.5978 13.9395 12.8328 14.882 12.8328H18.98C19.9226 12.8328 20.6875 13.5978 20.6875 14.5403V18.6383C20.6875 19.5809 19.9226 20.3458 18.98 20.3458Z" fill="white" fill-opacity="0.95"/>
<path fill-rule="evenodd" clip-rule="evenodd" d="M19.6116 6.36258H20.2659C20.3777 6.3627 20.4849 6.40716 20.5639 6.4862C20.643 6.56524 20.6874 6.67241 20.6875 6.78419V7.34633C20.6874 7.4581 20.643 7.56527 20.5639 7.64431C20.4849 7.72335 20.3777 7.76781 20.2659 7.76793H19.6105C19.5827 7.76788 19.5555 7.7761 19.5324 7.79155C19.5093 7.80699 19.4913 7.82896 19.4807 7.85467L19.2811 8.33666C19.2704 8.36232 19.2675 8.3906 19.273 8.41789C19.2784 8.44517 19.2918 8.47021 19.3116 8.48982L19.7749 8.95342C19.8539 9.03253 19.8982 9.13974 19.8982 9.25151C19.8982 9.36328 19.8539 9.47049 19.7749 9.5496L19.3774 9.94705C19.2983 10.0259 19.1911 10.0702 19.0794 10.0702C18.9676 10.0702 18.8604 10.0259 18.7813 9.94705L18.3177 9.48372C18.2981 9.46385 18.2731 9.45032 18.2458 9.44489C18.2185 9.43945 18.1901 9.44237 18.1645 9.45325L17.6825 9.65281C17.6568 9.66341 17.6348 9.68141 17.6194 9.70453C17.6039 9.72765 17.5957 9.75484 17.5958 9.78264V10.4381C17.5957 10.5499 17.5512 10.657 17.4722 10.7361C17.3931 10.8151 17.2859 10.8596 17.1742 10.8597H16.612C16.5002 10.8596 16.3931 10.8151 16.314 10.7361C16.235 10.657 16.1905 10.5499 16.1904 10.4381V9.78264C16.1904 9.75481 16.1822 9.72761 16.1667 9.70449C16.1512 9.68137 16.1292 9.66338 16.1034 9.65281L15.6214 9.45325C15.5957 9.44261 15.5675 9.43982 15.5402 9.44524C15.513 9.45066 15.4879 9.46406 15.4683 9.48372L15.0049 9.94705C14.9258 10.0259 14.8186 10.0702 14.7068 10.0702C14.5951 10.0702 14.4879 10.0259 14.4088 9.94705L14.0113 9.5496C13.9323 9.47049 13.888 9.36328 13.888 9.25151C13.888 9.13974 13.9323 9.03253 14.0113 8.95342L14.4746 8.48982C14.4944 8.47021 14.5078 8.44517 14.5132 8.41789C14.5187 8.39061 14.5158 8.36233 14.5051 8.33666L14.3056 7.85467C14.2949 7.82899 14.2769 7.80704 14.2538 7.7916C14.2307 7.77616 14.2035 7.76792 14.1757 7.76793H13.5203C13.4085 7.76781 13.3013 7.72335 13.2223 7.64431C13.1432 7.56527 13.0988 7.45811 13.0987 7.34633V6.78419C13.0988 6.67241 13.1432 6.56524 13.2223 6.4862C13.3013 6.40716 13.4085 6.3627 13.5203 6.36258H14.1757C14.2035 6.36263 14.2307 6.3544 14.2538 6.33896C14.2769 6.32352 14.2949 6.30155 14.3055 6.27584L14.5051 5.79385C14.5158 5.76819 14.5187 5.73991 14.5132 5.71263C14.5078 5.68534 14.4944 5.6603 14.4746 5.64069L14.0113 5.17709C13.9323 5.09798 13.888 4.99078 13.888 4.879C13.888 4.76723 13.9323 4.66002 14.0113 4.58092L14.4088 4.18346C14.4879 4.10462 14.5951 4.06036 14.7068 4.06036C14.8186 4.06036 14.9258 4.10462 15.0049 4.18346L15.4683 4.6468C15.4878 4.66652 15.5128 4.67996 15.5401 4.68539C15.5673 4.69082 15.5955 4.68799 15.6211 4.67726L16.1037 4.4777C16.1294 4.46707 16.1513 4.44906 16.1668 4.42595C16.1822 4.40284 16.1904 4.37567 16.1904 4.34787V3.69242C16.1905 3.58064 16.235 3.47347 16.314 3.39443C16.3931 3.31539 16.5003 3.27094 16.612 3.27081H17.1742C17.286 3.27094 17.3931 3.31539 17.4722 3.39443C17.5512 3.47347 17.5957 3.58064 17.5958 3.69242V4.34869C17.5957 4.37633 17.6038 4.40337 17.6191 4.42639C17.6344 4.44941 17.6562 4.46737 17.6817 4.47798L18.187 4.69043C18.2126 4.70113 18.2407 4.70405 18.2679 4.69882C18.2951 4.6936 18.3201 4.68046 18.3399 4.66106L18.8082 4.20158C18.888 4.12343 18.9956 4.0801 19.1073 4.08108C19.2191 4.08205 19.3259 4.12726 19.4043 4.2068L19.7982 4.60809C19.8764 4.68795 19.9198 4.79555 19.9187 4.90731C19.9177 5.01907 19.8724 5.12586 19.7927 5.20427L19.3255 5.66265C19.3055 5.68216 19.2917 5.70723 19.2861 5.73463C19.2804 5.76202 19.2831 5.79049 19.2937 5.81636L19.4815 6.27502C19.4919 6.30094 19.5099 6.32314 19.5331 6.33874C19.5563 6.35435 19.5836 6.36265 19.6116 6.36258ZM17.9448 7.76795C18.0837 7.55995 18.1579 7.31541 18.1579 7.06526C18.1575 6.72992 18.0242 6.40842 17.7871 6.1713C17.5499 5.93418 17.2284 5.80081 16.8931 5.80044C16.6429 5.80044 16.3984 5.87462 16.1904 6.0136C15.9824 6.15258 15.8203 6.35012 15.7246 6.58123C15.6288 6.81235 15.6038 7.06666 15.6526 7.31201C15.7014 7.55736 15.8218 7.78273 15.9987 7.95962C16.1756 8.1365 16.401 8.25697 16.6463 8.30577C16.8917 8.35457 17.146 8.32953 17.3771 8.23379C17.6082 8.13806 17.8058 7.97595 17.9448 7.76795Z" fill="white" fill-opacity="0.95"/>
</svg>
