<svg width="24" height="24" viewBox="0 0 24 24" fill="none" xmlns="http://www.w3.org/2000/svg">
<path d="M20.6876 10.213H19.0312C18.9604 10.2132 18.8913 10.1922 18.8326 10.1527C18.7739 10.1132 18.7283 10.057 18.7019 9.99137L18.2266 8.83038C18.1996 8.7649 18.1929 8.69284 18.2073 8.62349C18.2216 8.55415 18.2564 8.49069 18.3072 8.44131L19.4898 7.28101C19.6914 7.08256 19.8061 6.81224 19.8087 6.52935C19.8113 6.24646 19.7016 5.97408 19.5037 5.77195L18.5066 4.75617C18.308 4.55484 18.0377 4.44042 17.7548 4.43794C17.472 4.43547 17.1997 4.54515 16.9976 4.74297L15.8123 5.90603C15.7623 5.95514 15.6989 5.98839 15.63 6.00162C15.5612 6.01484 15.49 6.00745 15.4253 5.98038L14.1462 5.44261C14.0816 5.41574 14.0265 5.37028 13.9877 5.31202C13.949 5.25375 13.9285 5.1853 13.9287 5.11534V3.45415C13.9284 3.17121 13.8159 2.89995 13.6158 2.69988C13.4157 2.49981 13.1445 2.38727 12.8615 2.38696H11.4386C11.1557 2.38727 10.8844 2.49981 10.6843 2.69988C10.4843 2.89995 10.3717 3.17121 10.3714 3.45415V5.11327C10.3715 5.18363 10.3506 5.25241 10.3115 5.31091C10.2724 5.36941 10.2169 5.415 10.1519 5.44191L8.93045 5.94704C8.8656 5.97419 8.79412 5.98135 8.72517 5.96761C8.65622 5.95387 8.59295 5.91986 8.54346 5.86992L7.37066 4.69711C7.17025 4.49755 6.89895 4.3855 6.61612 4.3855C6.3333 4.3855 6.062 4.49755 5.86159 4.69711L4.85554 5.70316C4.65566 5.90341 4.54341 6.17477 4.54341 6.4577C4.54341 6.74062 4.65566 7.01199 4.85554 7.21223L6.02833 8.38572C6.07828 8.43535 6.11229 8.49874 6.12603 8.5678C6.13977 8.63686 6.13261 8.70844 6.10546 8.77341L5.60032 9.99345C5.57349 10.0585 5.52793 10.1141 5.46942 10.1532C5.4109 10.1923 5.34209 10.2131 5.27172 10.213H3.6126C3.32966 10.2133 3.05839 10.3258 2.85832 10.5259C2.65825 10.726 2.54572 10.9973 2.54541 11.2802V12.7031C2.54572 12.986 2.65825 13.2573 2.85832 13.4574C3.05839 13.6575 3.32966 13.77 3.6126 13.7703H5.27172C5.34207 13.7703 5.41085 13.7911 5.46935 13.8302C5.52785 13.8693 5.57344 13.9248 5.60035 13.9899L6.10548 15.2099C6.13263 15.2749 6.1398 15.3464 6.12606 15.4155C6.11232 15.4846 6.07831 15.5479 6.02836 15.5976L4.85554 16.7711C4.65566 16.9713 4.54341 17.2427 4.54341 17.5256C4.54341 17.8085 4.65566 18.0799 4.85554 18.2801L5.86159 19.2862C6.062 19.4857 6.3333 19.5978 6.61612 19.5978C6.89895 19.5978 7.17025 19.4857 7.37066 19.2862L8.54345 18.1134C8.59319 18.0636 8.65658 18.0297 8.72559 18.016C8.79461 18.0023 8.86614 18.0093 8.93114 18.0363L10.1512 18.5414C10.2163 18.5682 10.2721 18.6137 10.3113 18.6722C10.3505 18.7307 10.3715 18.7996 10.3714 18.87V20.5292C10.3717 20.8121 10.4843 21.0834 10.6843 21.2834C10.8844 21.4835 11.1557 21.596 11.4386 21.5963H12.8615C13.1445 21.596 13.4157 21.4835 13.6158 21.2834C13.8159 21.0834 13.9284 20.8121 13.9287 20.5292V18.87C13.9286 18.7997 13.9494 18.7308 13.9885 18.6723C14.0276 18.6138 14.0832 18.5682 14.1483 18.5414L15.3683 18.0363C15.4332 18.0087 15.5049 18.0013 15.574 18.0151C15.6432 18.0288 15.7066 18.0631 15.756 18.1134L16.9295 19.2862C17.1299 19.4857 17.4012 19.5978 17.684 19.5978C17.9668 19.5978 18.2382 19.4857 18.4386 19.2862L19.4446 18.2801C19.6445 18.0799 19.7567 17.8085 19.7567 17.5256C19.7567 17.2427 19.6445 16.9713 19.4446 16.7711L18.2718 15.5976C18.2219 15.5479 18.1879 15.4845 18.1741 15.4155C18.1604 15.3464 18.1675 15.2748 18.1947 15.2099L18.6998 13.9898C18.7267 13.9248 18.7722 13.8692 18.8307 13.8301C18.8893 13.791 18.9581 13.7702 19.0285 13.7703H20.6876C20.9705 13.77 21.2418 13.6574 21.4419 13.4574C21.6419 13.2573 21.7545 12.986 21.7548 12.7031V11.2802C21.7545 10.9972 21.6419 10.726 21.4418 10.5259C21.2418 10.3258 20.9705 10.2133 20.6876 10.213ZM15.3516 11.9917C15.3516 12.6249 15.1639 13.2438 14.8121 13.7703C14.4603 14.2968 13.9603 14.7072 13.3753 14.9495C12.7902 15.1918 12.1465 15.2552 11.5255 15.1317C10.9044 15.0082 10.334 14.7032 9.88622 14.2555C9.43848 13.8078 9.13356 13.2373 9.01002 12.6162C8.88649 11.9952 8.94989 11.3515 9.19221 10.7665C9.43453 10.1815 9.84488 9.68144 10.3714 9.32965C10.8979 8.97786 11.5169 8.79009 12.1501 8.79009C12.9989 8.79101 13.8127 9.12862 14.4129 9.72883C15.0131 10.329 15.3507 11.1428 15.3516 11.9917Z" fill="white" fill-opacity="0.95"/>
</svg>
