<svg width="331" height="113" viewBox="0 0 331 113" fill="none" xmlns="http://www.w3.org/2000/svg">
<path fill-rule="evenodd" clip-rule="evenodd" d="M27.2739 27.1963C27.6906 25.8215 28.9677 24.8208 30.4785 24.8208H38.2906C41.3724 24.8208 43.8707 27.3191 43.8707 30.4009V38.213C43.8707 39.7238 42.8699 41.0009 41.4952 41.4176C41.0785 42.7923 39.8014 43.793 38.2906 43.793H28.2465C26.3974 43.793 24.8984 42.2941 24.8984 40.445V30.4009C24.8984 28.89 25.8992 27.613 27.2739 27.1963ZM30.4785 26.4948H38.2906C40.4478 26.4948 42.1966 28.2436 42.1966 30.4009V38.213C42.1966 38.7087 41.9811 39.1542 41.6386 39.4607V30.4009C41.6386 28.5518 40.1397 27.0528 38.2906 27.0528H29.2307C29.5373 26.7104 29.9827 26.4948 30.4785 26.4948ZM32.4348 30.5194C32.4348 30.1458 32.7377 29.8429 33.1114 29.8429C33.4851 29.8429 33.788 30.1458 33.788 30.5194V31.0777C34.3738 31.1708 34.8739 31.3903 35.2701 31.7509C35.5345 31.9913 35.7339 32.2807 35.8668 32.6151C35.9637 32.8594 35.9076 33.1065 35.7676 33.2829C35.6313 33.4547 35.4168 33.561 35.1829 33.561C34.845 33.561 34.6047 33.3207 34.5094 33.0728C34.4298 32.8662 34.2961 32.71 34.0972 32.596L34.091 32.5925C33.8529 32.4492 33.5212 32.3641 33.0723 32.3641C32.5624 32.3641 32.2381 32.4745 32.0426 32.6396C31.8952 32.7726 31.8252 32.9296 31.8252 33.1342C31.8252 33.407 31.9151 33.5769 32.0725 33.6952L32.0737 33.6962C32.2761 33.8499 32.6964 34.0246 33.3893 34.201L33.3904 34.2013C34.3359 34.4454 35.0588 34.7864 35.4953 35.2593C35.8654 35.6556 36.0437 36.1528 36.0437 36.7249C36.0437 37.4074 35.7811 37.9836 35.2659 38.4291C34.866 38.7864 34.3678 39.0025 33.788 39.0908V39.7079C33.788 40.0816 33.4851 40.3845 33.1114 40.3845C32.7377 40.3845 32.4348 40.0816 32.4348 39.708V39.0773C31.8429 38.9801 31.3358 38.745 30.9296 38.3607C30.609 38.0641 30.3777 37.7013 30.2362 37.2784C30.0733 36.7913 30.4807 36.3901 30.9061 36.3901C31.271 36.3901 31.5357 36.6519 31.6347 36.9335C31.7263 37.194 31.8784 37.3883 32.0937 37.5292L32.0952 37.5303C32.3454 37.6961 32.6829 37.7917 33.1309 37.7917C33.6926 37.7917 34.0697 37.6606 34.3132 37.4479C34.5067 37.2686 34.6027 37.0496 34.6027 36.7659C34.6027 36.448 34.4908 36.2332 34.2744 36.0768C34.0092 35.8903 33.4957 35.6875 32.688 35.4844L32.6854 35.4838C31.8761 35.2736 31.2493 34.9763 30.871 34.5556C30.5383 34.1897 30.3841 33.7224 30.3841 33.1853C30.3841 32.5627 30.6253 32.0388 31.099 31.6402L31.1018 31.6378C31.4633 31.3403 31.913 31.1581 32.4348 31.0767V30.5194Z" fill="white" fill-opacity="0.95"/>
<path d="M63.7793 27.3616H65.9308L62.8763 36.9236H60.2069L57.1523 27.3616H59.4499L61.6013 35.1838L63.7793 27.3616ZM68.8144 29.1279H66.5833V27.3616H68.8144V29.1279ZM68.7348 36.9236H66.663V30.0177H68.7348V36.9236ZM74.8654 34.9182H76.977C76.7999 35.6442 76.4148 36.1976 75.8216 36.5783C75.2372 36.9413 74.4847 37.1228 73.5639 37.1228C72.3952 37.1228 71.4788 36.7598 70.8148 36.0338C70.2216 35.3786 69.925 34.5242 69.925 33.4706C69.925 32.2311 70.2925 31.2882 71.0273 30.6419C71.6559 30.093 72.4793 29.8185 73.4975 29.8185C74.7016 29.8185 75.6091 30.208 76.22 30.9872C76.7778 31.6955 77.0567 32.6915 77.0567 33.9753H72.0234C72.1562 35.1086 72.7051 35.6752 73.6701 35.6752C73.98 35.6752 74.2412 35.6088 74.4537 35.476C74.6662 35.3432 74.8034 35.1573 74.8654 34.9182ZM73.4577 31.12C72.6165 31.12 72.1384 31.6689 72.0234 32.7668H74.9318C74.8787 31.6689 74.3873 31.12 73.4577 31.12ZM86.7722 30.0177H88.7378L86.8386 36.9236H84.2755L83.1865 31.877L81.9514 36.9236H79.4414L77.5821 30.0177H79.7203L80.796 35.2104L82.0178 30.0177H84.5145L85.5903 35.237L86.7722 30.0177ZM97.7701 30.0177H99.8419L97.3717 37.0697C97.0441 38.017 96.6634 38.6722 96.2295 39.0352C95.8577 39.3539 95.3752 39.5133 94.782 39.5133C94.4278 39.5133 94.056 39.4646 93.6664 39.3672V37.9196C93.9851 37.9993 94.2685 38.0392 94.5164 38.0392C94.9768 38.0392 95.2911 37.6673 95.4593 36.9236H94.8749L92.3915 30.0177H94.596L96.1233 35.4096L97.7701 30.0177ZM100.118 33.4441C100.118 32.1869 100.481 31.2439 101.207 30.6153C101.826 30.0841 102.681 29.8185 103.77 29.8185C105.018 29.8185 105.957 30.1682 106.585 30.8677C107.143 31.4874 107.422 32.3462 107.422 33.4441C107.422 34.7102 107.059 35.6619 106.333 36.2994C105.713 36.8483 104.859 37.1228 103.77 37.1228C102.548 37.1228 101.618 36.7686 100.981 36.0603C100.405 35.4229 100.118 34.5508 100.118 33.4441ZM102.256 33.4441C102.256 34.3029 102.406 34.9138 102.707 35.2768C102.955 35.5778 103.314 35.7283 103.783 35.7283C104.341 35.7283 104.735 35.5336 104.965 35.144C105.186 34.781 105.297 34.2144 105.297 33.4441C105.297 32.5764 105.151 31.9699 104.859 31.6246C104.62 31.3502 104.257 31.2129 103.77 31.2129C103.212 31.2129 102.813 31.4033 102.574 31.784C102.362 32.1293 102.256 32.6827 102.256 33.4441ZM108.552 30.0177H110.624V34.5862C110.624 34.9315 110.717 35.1971 110.903 35.383C111.098 35.569 111.372 35.6619 111.726 35.6619C112.125 35.6619 112.443 35.5158 112.682 35.2237C112.895 34.9492 113.001 34.5951 113.001 34.1612V30.0177H115.073V36.9236H113.36L113.161 36.1932C112.656 36.8129 111.961 37.1228 111.076 37.1228C110.226 37.1228 109.579 36.866 109.137 36.3525C108.747 35.901 108.552 35.2856 108.552 34.5065V30.0177ZM118.602 36.9236H116.53V30.0177H118.256L118.482 31.0669C118.863 30.2346 119.465 29.8185 120.288 29.8185C120.598 29.8185 120.859 29.8495 121.072 29.9115V31.8371C120.789 31.7486 120.492 31.7043 120.182 31.7043C119.713 31.7043 119.328 31.9301 119.027 32.3816C118.743 32.8066 118.602 33.3644 118.602 34.055V36.9236ZM129.229 37.1228C128.477 37.1228 127.844 36.8572 127.33 36.326V39.3141H125.258V30.0177H126.825L127.224 30.788C127.782 30.1416 128.512 29.8185 129.415 29.8185C130.424 29.8185 131.204 30.1638 131.752 30.8544C132.248 31.483 132.496 32.3197 132.496 33.3644C132.496 34.6039 132.142 35.569 131.434 36.2596C130.849 36.835 130.115 37.1228 129.229 37.1228ZM130.411 33.4175C130.411 32.0275 129.898 31.3325 128.871 31.3325C128.348 31.3325 127.945 31.5228 127.662 31.9035C127.396 32.2665 127.264 32.7623 127.264 33.391C127.264 34.8695 127.777 35.6088 128.804 35.6088C129.327 35.6088 129.729 35.4052 130.013 34.9979C130.278 34.6172 130.411 34.0904 130.411 33.4175ZM135.76 27.3616V36.9236H133.688V27.3616H135.76ZM139.208 32.0098H137.083C137.26 31.2661 137.663 30.7039 138.292 30.3231C138.858 29.9867 139.567 29.8185 140.417 29.8185C141.444 29.8185 142.236 30.0752 142.794 30.5888C143.281 31.0314 143.524 31.6202 143.524 32.3551V36.9236H141.904L141.652 36.2064C141.12 36.8173 140.359 37.1228 139.367 37.1228C138.597 37.1228 137.991 36.9059 137.548 36.472C137.15 36.0913 136.95 35.5778 136.95 34.9315C136.95 34.3294 137.185 33.8558 137.654 33.5105C138.106 33.174 138.801 32.9261 139.739 32.7668L141.452 32.4879V32.1824C141.452 31.5007 141.085 31.1598 140.35 31.1598C139.704 31.1598 139.323 31.4431 139.208 32.0098ZM139.965 35.7018C140.443 35.7018 140.824 35.5557 141.107 35.2635C141.337 35.0156 141.452 34.719 141.452 34.3737V33.6167L140.27 33.8558C139.819 33.9443 139.496 34.0683 139.301 34.2276C139.115 34.3781 139.022 34.5818 139.022 34.8385C139.022 35.414 139.336 35.7018 139.965 35.7018ZM146.991 36.9236H144.92V30.0177H146.633L146.832 30.7747C147.337 30.1372 148.041 29.8185 148.944 29.8185C149.803 29.8185 150.458 30.0797 150.909 30.602C151.308 31.0624 151.507 31.6822 151.507 32.4613V36.9236H149.435V32.541C149.435 31.6999 149.081 31.2793 148.373 31.2793C147.939 31.2793 147.594 31.4387 147.337 31.7574C147.107 32.0319 146.991 32.3905 146.991 32.8332V36.9236ZM163.318 36.9236H161.698L161.352 36.1666C160.803 36.8041 160.1 37.1228 159.241 37.1228C158.231 37.1228 157.435 36.7642 156.85 36.0471C156.337 35.4007 156.08 34.5641 156.08 33.537C156.08 32.3064 156.412 31.3546 157.076 30.6817C157.643 30.1062 158.355 29.8185 159.214 29.8185C160.073 29.8185 160.75 30.1018 161.246 30.6684V27.3616H163.318V36.9236ZM158.165 33.5238C158.165 34.2763 158.329 34.8297 158.656 35.1838C158.931 35.4671 159.298 35.6088 159.759 35.6088C160.795 35.6088 161.313 34.9005 161.313 33.4839C161.313 32.0496 160.795 31.3325 159.759 31.3325C159.228 31.3325 158.825 31.5405 158.55 31.9567C158.293 32.3374 158.165 32.8597 158.165 33.5238ZM169.45 34.9182H171.562C171.385 35.6442 171 36.1976 170.407 36.5783C169.822 36.9413 169.07 37.1228 168.149 37.1228C166.98 37.1228 166.064 36.7598 165.4 36.0338C164.807 35.3786 164.51 34.5242 164.51 33.4706C164.51 32.2311 164.878 31.2882 165.612 30.6419C166.241 30.093 167.064 29.8185 168.083 29.8185C169.287 29.8185 170.194 30.208 170.805 30.9872C171.363 31.6955 171.642 32.6915 171.642 33.9753H166.608C166.741 35.1086 167.29 35.6752 168.255 35.6752C168.565 35.6752 168.826 35.6088 169.039 35.476C169.251 35.3432 169.388 35.1573 169.45 34.9182ZM168.043 31.12C167.202 31.12 166.724 31.6689 166.608 32.7668H169.517C169.464 31.6689 168.972 31.12 168.043 31.12ZM176.722 35.5291V36.9369C176.289 37.0608 175.868 37.1228 175.461 37.1228C174.708 37.1228 174.133 36.9147 173.734 36.4986C173.389 36.1356 173.216 35.6354 173.216 34.9979V31.452H172.167V30.0177H173.216L173.349 28.3576H175.288V30.0177H176.709V31.452H175.288V35.0643C175.288 35.2502 175.346 35.3963 175.461 35.5026C175.585 35.6 175.753 35.6487 175.965 35.6487C176.134 35.6487 176.386 35.6088 176.722 35.5291ZM179.646 32.0098H177.521C177.698 31.2661 178.101 30.7039 178.73 30.3231C179.297 29.9867 180.005 29.8185 180.855 29.8185C181.882 29.8185 182.674 30.0752 183.232 30.5888C183.719 31.0314 183.962 31.6202 183.962 32.3551V36.9236H182.342L182.09 36.2064C181.559 36.8173 180.797 37.1228 179.806 37.1228C179.035 37.1228 178.429 36.9059 177.986 36.472C177.588 36.0913 177.389 35.5778 177.389 34.9315C177.389 34.3294 177.623 33.8558 178.092 33.5105C178.544 33.174 179.239 32.9261 180.178 32.7668L181.891 32.4879V32.1824C181.891 31.5007 181.523 31.1598 180.788 31.1598C180.142 31.1598 179.761 31.4431 179.646 32.0098ZM180.403 35.7018C180.881 35.7018 181.262 35.5557 181.545 35.2635C181.776 35.0156 181.891 34.719 181.891 34.3737V33.6167L180.709 33.8558C180.257 33.9443 179.934 34.0683 179.739 34.2276C179.553 34.3781 179.46 34.5818 179.46 34.8385C179.46 35.414 179.775 35.7018 180.403 35.7018ZM187.509 29.1279H185.278V27.3616H187.509V29.1279ZM187.43 36.9236H185.358V30.0177H187.43V36.9236ZM190.957 27.3616V36.9236H188.886V27.3616H190.957ZM195.308 35.7151C196.079 35.7151 196.464 35.4981 196.464 35.0643C196.464 34.8518 196.375 34.7013 196.198 34.6128C196.03 34.5242 195.57 34.387 194.817 34.2011C193.958 33.9974 193.343 33.7451 192.971 33.4441C192.528 33.0811 192.307 32.5897 192.307 31.9699C192.307 31.2616 192.599 30.7171 193.184 30.3364C193.706 29.9911 194.432 29.8185 195.362 29.8185C196.309 29.8185 197.066 30.031 197.633 30.456C198.119 30.819 198.42 31.3103 198.536 31.9301H196.451C196.344 31.4608 195.964 31.2262 195.308 31.2262C194.689 31.2262 194.379 31.4166 194.379 31.7973C194.379 31.9832 194.467 32.1293 194.644 32.2355C194.821 32.3329 195.211 32.4569 195.813 32.6074L196.065 32.6738C196.862 32.8774 197.429 33.0899 197.765 33.3113C198.297 33.6566 198.562 34.1479 198.562 34.7854C198.562 35.5468 198.261 36.1356 197.659 36.5517C197.092 36.9324 196.313 37.1228 195.322 37.1228C194.33 37.1228 193.533 36.897 192.931 36.4455C192.427 36.0648 192.121 35.5734 192.015 34.9713H194.1C194.144 35.1927 194.277 35.3742 194.498 35.5158C194.72 35.6487 194.99 35.7151 195.308 35.7151Z" fill="white" fill-opacity="0.95"/>
<path d="M63.8723 60.9741C63.8723 60.6554 63.8015 60.4031 63.6598 60.2171C63.5004 59.9958 63.2083 59.7922 62.7833 59.6062C62.3583 59.4203 61.7164 59.2078 60.8576 58.9688C59.7066 58.65 58.9142 58.256 58.4804 57.7868C58.1263 57.4061 57.9492 56.897 57.9492 56.2595C57.9492 55.4893 58.2856 54.8784 58.9585 54.4268C59.5783 54.0107 60.3839 53.8026 61.3756 53.8026C62.4823 53.8026 63.3809 54.0638 64.0715 54.5862C64.6913 55.0466 65.0543 55.6486 65.1605 56.3923H63.7661C63.6864 55.8877 63.4208 55.5114 62.9692 55.2635C62.5708 55.0333 62.0396 54.9182 61.3756 54.9182C60.6318 54.9182 60.0829 55.0599 59.7288 55.3432C59.4455 55.5645 59.3038 55.8523 59.3038 56.2064C59.3038 56.4366 59.3392 56.627 59.41 56.7775C59.4897 56.9191 59.6225 57.0475 59.8085 57.1626C60.1537 57.3928 60.8222 57.6451 61.8138 57.9196C63.195 58.3092 64.1291 58.7519 64.616 59.2477C65.0233 59.6549 65.2269 60.2127 65.2269 60.921C65.2269 61.7621 64.8595 62.4571 64.1246 63.0061C63.434 63.5107 62.5575 63.7631 61.4951 63.7631C60.3884 63.7631 59.472 63.4665 58.746 62.8733C58.1174 62.3597 57.7411 61.6957 57.6172 60.8812H59.0116C59.1002 61.4655 59.3791 61.9126 59.8483 62.2225C60.2733 62.5058 60.8134 62.6475 61.4685 62.6475C62.2831 62.6475 62.9073 62.4616 63.3411 62.0897C63.6952 61.7887 63.8723 61.4168 63.8723 60.9741ZM71.4598 61.5718H72.8409C72.6462 62.2712 72.261 62.8201 71.6855 63.2185C71.1454 63.5816 70.4991 63.7631 69.7466 63.7631C68.6576 63.7631 67.8076 63.4178 67.1967 62.7272C66.6389 62.0808 66.36 61.2088 66.36 60.1109C66.36 58.8625 66.7142 57.9152 67.4225 57.2689C68.0068 56.7288 68.7594 56.4587 69.6802 56.4587C70.7603 56.4587 71.5749 56.8085 72.1238 57.5079C72.655 58.1808 72.9206 59.1414 72.9206 60.3898H67.6615C67.7146 61.2043 67.9625 61.8108 68.4052 62.2092C68.7682 62.528 69.2286 62.6873 69.7864 62.6873C70.2202 62.6873 70.5965 62.5678 70.9153 62.3288C71.1809 62.1251 71.3624 61.8728 71.4598 61.5718ZM69.7067 57.4813C69.1401 57.4813 68.6841 57.6584 68.3388 58.0126C68.0112 58.3402 67.8032 58.7961 67.7146 59.3805H71.6191C71.5749 58.7164 71.3535 58.2206 70.9551 57.893C70.6364 57.6186 70.2202 57.4813 69.7067 57.4813ZM79.1505 61.5718H80.5317C80.3369 62.2712 79.9518 62.8201 79.3763 63.2185C78.8362 63.5816 78.1899 63.7631 77.4374 63.7631C76.3483 63.7631 75.4984 63.4178 74.8875 62.7272C74.3297 62.0808 74.0508 61.2088 74.0508 60.1109C74.0508 58.8625 74.405 57.9152 75.1133 57.2689C75.6976 56.7288 76.4502 56.4587 77.371 56.4587C78.4511 56.4587 79.2656 56.8085 79.8146 57.5079C80.3458 58.1808 80.6114 59.1414 80.6114 60.3898H75.3523C75.4054 61.2043 75.6533 61.8108 76.096 62.2092C76.459 62.528 76.9194 62.6873 77.4772 62.6873C77.911 62.6873 78.2873 62.5678 78.606 62.3288C78.8717 62.1251 79.0532 61.8728 79.1505 61.5718ZM77.3975 57.4813C76.8309 57.4813 76.3749 57.6584 76.0296 58.0126C75.702 58.3402 75.494 58.7961 75.4054 59.3805H79.3099C79.2656 58.7164 79.0443 58.2206 78.6459 57.893C78.3272 57.6186 77.911 57.4813 77.3975 57.4813ZM91.8854 56.658L89.4816 63.6568C89.1628 64.5864 88.8574 65.2195 88.5652 65.5559C88.2199 65.9543 87.7728 66.1536 87.2239 66.1536C86.9937 66.1536 86.7192 66.1137 86.4005 66.034V64.9981C86.6484 65.0601 86.8697 65.0911 87.0645 65.0911C87.339 65.0911 87.5515 64.9937 87.702 64.7989C87.8525 64.613 88.0428 64.2013 88.273 63.5638H87.8613L85.3248 56.658H86.7059L88.6582 62.528L90.6104 56.658H91.8854ZM92.2856 60.1109C92.2856 58.8448 92.6619 57.8886 93.4145 57.2423C94.0165 56.7199 94.778 56.4587 95.6987 56.4587C96.77 56.4587 97.6111 56.7996 98.222 57.4813C98.8064 58.1188 99.0986 58.9953 99.0986 60.1109C99.0986 61.3593 98.7311 62.311 97.9963 62.9662C97.3942 63.4974 96.624 63.7631 95.6855 63.7631C94.6142 63.7631 93.7686 63.4089 93.1489 62.7006C92.5734 62.0543 92.2856 61.191 92.2856 60.1109ZM93.6137 60.1109C93.6137 60.9963 93.8395 61.6736 94.291 62.1428C94.6629 62.5324 95.1365 62.7272 95.712 62.7272C96.3849 62.7272 96.9028 62.4748 97.2658 61.9702C97.6023 61.5098 97.7705 60.89 97.7705 60.1109C97.7705 59.2078 97.5492 58.5261 97.1065 58.0657C96.7435 57.685 96.2742 57.4946 95.6987 57.4946C95.0347 57.4946 94.5168 57.747 94.1449 58.2516C93.7908 58.712 93.6137 59.3318 93.6137 60.1109ZM100.49 56.658H101.765V61.1866C101.765 62.1782 102.243 62.674 103.199 62.674C103.784 62.674 104.231 62.466 104.541 62.0499C104.78 61.7311 104.899 61.3371 104.899 60.8679V56.658H106.174V63.5638H105.125L104.979 62.767C104.492 63.431 103.801 63.7631 102.907 63.7631C102.119 63.7631 101.513 63.5196 101.088 63.0326C100.689 62.5811 100.49 61.9569 100.49 61.1601V56.658ZM109.315 63.5638H108.04V56.658H109.089L109.262 57.6806C109.651 56.866 110.235 56.4587 111.015 56.4587C111.271 56.4587 111.524 56.4897 111.772 56.5517V57.8266C111.471 57.747 111.2 57.7071 110.961 57.7071C110.448 57.7071 110.045 57.9152 109.753 58.3313C109.461 58.7474 109.315 59.3362 109.315 60.0976V63.5638ZM121.257 61.346H122.652C122.545 62.0897 122.196 62.6873 121.602 63.1389C121.062 63.555 120.403 63.7631 119.624 63.7631C118.605 63.7631 117.795 63.4133 117.193 62.7139C116.636 62.0676 116.357 61.2176 116.357 60.164C116.357 58.9422 116.693 57.9949 117.366 57.322C117.941 56.7465 118.69 56.4587 119.61 56.4587C120.46 56.4587 121.16 56.6845 121.709 57.1361C122.196 57.5345 122.492 58.0568 122.599 58.7032H121.191C121.102 58.3313 120.921 58.0436 120.646 57.8399C120.381 57.6363 120.044 57.5345 119.637 57.5345C119.008 57.5345 118.526 57.7824 118.189 58.2782C117.871 58.7386 117.711 59.3805 117.711 60.2039C117.711 61.0627 117.924 61.7134 118.349 62.1561C118.685 62.5103 119.119 62.6873 119.65 62.6873C120.111 62.6873 120.487 62.5545 120.779 62.2889C121.036 62.0587 121.195 61.7444 121.257 61.346ZM124.042 56.658H125.317V61.1866C125.317 62.1782 125.795 62.674 126.751 62.674C127.336 62.674 127.783 62.466 128.093 62.0499C128.332 61.7311 128.451 61.3371 128.451 60.8679V56.658H129.726V63.5638H128.677L128.531 62.767C128.044 63.431 127.354 63.7631 126.459 63.7631C125.671 63.7631 125.065 63.5196 124.64 63.0326C124.241 62.5811 124.042 61.9569 124.042 61.1601V56.658ZM132.867 63.5638H131.592V56.658H132.641L132.814 57.6806C133.203 56.866 133.788 56.4587 134.567 56.4587C134.824 56.4587 135.076 56.4897 135.324 56.5517V57.8266C135.023 57.747 134.753 57.7071 134.514 57.7071C134 57.7071 133.597 57.9152 133.305 58.3313C133.013 58.7474 132.867 59.3362 132.867 60.0976V63.5638ZM137.601 63.5638H136.326V56.658H137.375L137.548 57.6806C137.937 56.866 138.521 56.4587 139.301 56.4587C139.557 56.4587 139.81 56.4897 140.058 56.5517V57.8266C139.757 57.747 139.486 57.7071 139.247 57.7071C138.734 57.7071 138.331 57.9152 138.039 58.3313C137.747 58.7474 137.601 59.3362 137.601 60.0976V63.5638ZM145.631 61.5718H147.012C146.818 62.2712 146.432 62.8201 145.857 63.2185C145.317 63.5816 144.671 63.7631 143.918 63.7631C142.829 63.7631 141.979 63.4178 141.368 62.7272C140.81 62.0808 140.531 61.2088 140.531 60.1109C140.531 58.8625 140.886 57.9152 141.594 57.2689C142.178 56.7288 142.931 56.4587 143.852 56.4587C144.932 56.4587 145.746 56.8085 146.295 57.5079C146.826 58.1808 147.092 59.1414 147.092 60.3898H141.833C141.886 61.2043 142.134 61.8108 142.577 62.2092C142.94 62.528 143.4 62.6873 143.958 62.6873C144.392 62.6873 144.768 62.5678 145.087 62.3288C145.352 62.1251 145.534 61.8728 145.631 61.5718ZM143.878 57.4813C143.311 57.4813 142.856 57.6584 142.51 58.0126C142.183 58.3402 141.975 58.7961 141.886 59.3805H145.791C145.746 58.7164 145.525 58.2206 145.126 57.893C144.808 57.6186 144.392 57.4813 143.878 57.4813ZM149.896 63.5638H148.621V56.658H149.67L149.816 57.5345C150.329 56.8173 151.029 56.4587 151.914 56.4587C152.729 56.4587 153.353 56.7111 153.787 57.2157C154.167 57.6673 154.358 58.2826 154.358 59.0617V63.5638H153.083V59.075C153.083 58.0568 152.592 57.5478 151.609 57.5478C151.095 57.5478 150.675 57.7248 150.347 58.079C150.046 58.3977 149.896 58.805 149.896 59.3008V63.5638ZM159.237 62.5412V63.6302C158.909 63.7188 158.595 63.7631 158.294 63.7631C157.656 63.7631 157.178 63.5638 156.86 63.1654C156.585 62.8378 156.448 62.3996 156.448 61.8507V57.747H155.425V56.658H156.448L156.528 54.9979H157.723V56.658H159.21V57.747H157.723V61.8772C157.723 62.3907 157.966 62.6475 158.453 62.6475C158.684 62.6475 158.945 62.6121 159.237 62.5412ZM164.417 56.658H165.466L165.666 57.561C166.232 56.8262 167.011 56.4587 168.003 56.4587C168.995 56.4587 169.765 56.8129 170.314 57.5212C170.801 58.1587 171.044 59.0042 171.044 60.0578C171.044 61.3061 170.712 62.2623 170.048 62.9264C169.49 63.4842 168.778 63.7631 167.91 63.7631C166.927 63.7631 166.188 63.4 165.692 62.674V65.9543H164.417V56.658ZM169.716 60.0312C169.716 59.1636 169.499 58.5128 169.065 58.079C168.72 57.7248 168.269 57.5478 167.711 57.5478C167.064 57.5478 166.551 57.7824 166.17 58.2516C165.807 58.7032 165.626 59.2964 165.626 60.0312C165.626 60.9166 165.843 61.5939 166.276 62.0631C166.639 62.4704 167.118 62.674 167.711 62.674C168.375 62.674 168.879 62.4306 169.225 61.9436C169.552 61.4921 169.716 60.8546 169.716 60.0312ZM173.785 54.0018V63.5638H172.51V54.0018H173.785ZM176.738 58.5836H175.383C175.454 57.893 175.781 57.3574 176.366 56.9767C176.888 56.6314 177.548 56.4587 178.345 56.4587C179.292 56.4587 180.018 56.7066 180.523 57.2025C180.948 57.6274 181.16 58.1764 181.16 58.8492V63.5638H180.111L179.952 62.6209C179.411 63.3823 178.641 63.7631 177.641 63.7631C176.853 63.7631 176.237 63.5506 175.795 63.1256C175.432 62.7714 175.25 62.3243 175.25 61.7842C175.25 61.1025 175.485 60.5757 175.954 60.2039C176.37 59.8763 177.008 59.6372 177.866 59.4867L179.885 59.1414V58.7961C179.885 58.3446 179.73 58.0037 179.42 57.7735C179.146 57.5699 178.77 57.4681 178.291 57.4681C177.353 57.4681 176.835 57.8399 176.738 58.5836ZM177.946 62.6873C178.486 62.6873 178.955 62.5103 179.354 62.1561C179.708 61.8285 179.885 61.4522 179.885 61.0273V60.1375L178.172 60.4429C177.543 60.5492 177.114 60.713 176.884 60.9343C176.698 61.1114 176.605 61.3504 176.605 61.6514C176.605 61.9879 176.72 62.2446 176.95 62.4217C177.18 62.5988 177.512 62.6873 177.946 62.6873ZM184.225 63.5638H182.95V56.658H183.999L184.146 57.5345C184.659 56.8173 185.359 56.4587 186.244 56.4587C187.058 56.4587 187.683 56.7111 188.116 57.2157C188.497 57.6673 188.688 58.2826 188.688 59.0617V63.5638H187.413V59.075C187.413 58.0568 186.921 57.5478 185.938 57.5478C185.425 57.5478 185.004 57.7248 184.677 58.079C184.376 58.3977 184.225 58.805 184.225 59.3008V63.5638ZM195.556 58.5836H194.201C194.272 57.893 194.6 57.3574 195.184 56.9767C195.707 56.6314 196.366 56.4587 197.163 56.4587C198.11 56.4587 198.836 56.7066 199.341 57.2025C199.766 57.6274 199.978 58.1764 199.978 58.8492V63.5638H198.929L198.77 62.6209C198.23 63.3823 197.46 63.7631 196.459 63.7631C195.671 63.7631 195.056 63.5506 194.613 63.1256C194.25 62.7714 194.069 62.3243 194.069 61.7842C194.069 61.1025 194.303 60.5757 194.773 60.2039C195.189 59.8763 195.826 59.6372 196.685 59.4867L198.704 59.1414V58.7961C198.704 58.3446 198.549 58.0037 198.239 57.7735C197.964 57.5699 197.588 57.4681 197.11 57.4681C196.171 57.4681 195.653 57.8399 195.556 58.5836ZM196.765 62.6873C197.305 62.6873 197.774 62.5103 198.172 62.1561C198.526 61.8285 198.704 61.4522 198.704 61.0273V60.1375L196.99 60.4429C196.362 60.5492 195.932 60.713 195.702 60.9343C195.516 61.1114 195.423 61.3504 195.423 61.6514C195.423 61.9879 195.538 62.2446 195.769 62.4217C195.999 62.5988 196.331 62.6873 196.765 62.6873ZM203.044 63.5638H201.769V56.658H202.818L202.964 57.5345C203.478 56.8173 204.177 56.4587 205.062 56.4587C205.877 56.4587 206.501 56.7111 206.935 57.2157C207.316 57.6673 207.506 58.2826 207.506 59.0617V63.5638H206.231V59.075C206.231 58.0568 205.74 57.5478 204.757 57.5478C204.243 57.5478 203.823 57.7248 203.495 58.079C203.194 58.3977 203.044 58.805 203.044 59.3008V63.5638ZM215.533 63.5638H214.483L214.258 62.5944C213.726 63.3735 212.961 63.7631 211.96 63.7631C210.995 63.7631 210.234 63.4133 209.676 62.7139C209.162 62.0676 208.906 61.2132 208.906 60.1507C208.906 58.867 209.233 57.9019 209.888 57.2556C210.437 56.7244 211.154 56.4587 212.04 56.4587C212.996 56.4587 213.735 56.8173 214.258 57.5345V54.0018H215.533V63.5638ZM210.234 60.1773C210.234 61.0361 210.446 61.6869 210.871 62.1295C211.225 62.4925 211.681 62.674 212.239 62.674C212.93 62.674 213.465 62.4129 213.846 61.8905C214.165 61.439 214.324 60.8723 214.324 60.1906C214.324 59.2964 214.111 58.6146 213.687 58.1454C213.324 57.747 212.841 57.5478 212.239 57.5478C211.566 57.5478 211.057 57.7912 210.712 58.2782C210.393 58.7209 210.234 59.3539 210.234 60.1773ZM222.467 58.5836H221.113C221.184 57.893 221.511 57.3574 222.096 56.9767C222.618 56.6314 223.277 56.4587 224.074 56.4587C225.022 56.4587 225.748 56.7066 226.252 57.2025C226.677 57.6274 226.89 58.1764 226.89 58.8492V63.5638H225.841L225.681 62.6209C225.141 63.3823 224.371 63.7631 223.37 63.7631C222.582 63.7631 221.967 63.5506 221.524 63.1256C221.161 62.7714 220.98 62.3243 220.98 61.7842C220.98 61.1025 221.215 60.5757 221.684 60.2039C222.1 59.8763 222.737 59.6372 223.596 59.4867L225.615 59.1414V58.7961C225.615 58.3446 225.46 58.0037 225.15 57.7735C224.876 57.5699 224.499 57.4681 224.021 57.4681C223.083 57.4681 222.565 57.8399 222.467 58.5836ZM223.676 62.6873C224.216 62.6873 224.685 62.5103 225.084 62.1561C225.438 61.8285 225.615 61.4522 225.615 61.0273V60.1375L223.902 60.4429C223.273 60.5492 222.844 60.713 222.613 60.9343C222.428 61.1114 222.335 61.3504 222.335 61.6514C222.335 61.9879 222.45 62.2446 222.68 62.4217C222.91 62.5988 223.242 62.6873 223.676 62.6873ZM229.955 54.0018V63.5638H228.68V54.0018H229.955ZM233.094 54.0018V63.5638H231.819V54.0018H233.094ZM238.54 60.1109C238.54 58.8448 238.917 57.8886 239.669 57.2423C240.271 56.7199 241.033 56.4587 241.953 56.4587C243.025 56.4587 243.866 56.7996 244.477 57.4813C245.061 58.1188 245.353 58.9953 245.353 60.1109C245.353 61.3593 244.986 62.311 244.251 62.9662C243.649 63.4974 242.879 63.7631 241.94 63.7631C240.869 63.7631 240.023 63.4089 239.404 62.7006C238.828 62.0543 238.54 61.191 238.54 60.1109ZM239.868 60.1109C239.868 60.9963 240.094 61.6736 240.546 62.1428C240.918 62.5324 241.391 62.7272 241.967 62.7272C242.64 62.7272 243.158 62.4748 243.521 61.9702C243.857 61.5098 244.025 60.89 244.025 60.1109C244.025 59.2078 243.804 58.5261 243.361 58.0657C242.998 57.685 242.529 57.4946 241.953 57.4946C241.289 57.4946 240.771 57.747 240.4 58.2516C240.045 58.712 239.868 59.3318 239.868 60.1109ZM250.224 53.962V55.0643C249.799 54.958 249.45 54.9049 249.175 54.9049C248.945 54.9049 248.763 54.9669 248.631 55.0908C248.507 55.2148 248.445 55.3874 248.445 55.6088V56.658H249.932V57.747H248.445V63.5638H247.17V57.747H246.147V56.658H247.17V55.6885C247.17 55.0776 247.369 54.5995 247.767 54.2542C248.121 53.9531 248.564 53.8026 249.095 53.8026C249.441 53.8026 249.817 53.8558 250.224 53.962ZM258.154 62.5412V63.6302C257.826 63.7188 257.512 63.7631 257.211 63.7631C256.573 63.7631 256.095 63.5638 255.776 63.1654C255.502 62.8378 255.365 62.3996 255.365 61.8507V57.747H254.342V56.658H255.365L255.444 54.9979H256.64V56.658H258.127V57.747H256.64V61.8772C256.64 62.3907 256.883 62.6475 257.37 62.6475C257.6 62.6475 257.861 62.6121 258.154 62.5412ZM260.627 63.5638H259.352V54.0018H260.627V57.4415C261.132 56.7863 261.805 56.4587 262.646 56.4587C263.461 56.4587 264.085 56.7111 264.519 57.2157C264.899 57.6673 265.09 58.2826 265.09 59.0617V63.5638H263.815V59.075C263.815 58.0568 263.323 57.5478 262.341 57.5478C261.818 57.5478 261.393 57.7293 261.066 58.0923C260.773 58.4198 260.627 58.8404 260.627 59.3539V63.5638ZM271.589 61.5718H272.97C272.775 62.2712 272.39 62.8201 271.815 63.2185C271.275 63.5816 270.628 63.7631 269.876 63.7631C268.787 63.7631 267.937 63.4178 267.326 62.7272C266.768 62.0808 266.489 61.2088 266.489 60.1109C266.489 58.8625 266.843 57.9152 267.552 57.2689C268.136 56.7288 268.889 56.4587 269.809 56.4587C270.889 56.4587 271.704 56.8085 272.253 57.5079C272.784 58.1808 273.05 59.1414 273.05 60.3898H267.791C267.844 61.2043 268.092 61.8108 268.534 62.2092C268.897 62.528 269.358 62.6873 269.916 62.6873C270.349 62.6873 270.726 62.5678 271.044 62.3288C271.31 62.1251 271.492 61.8728 271.589 61.5718ZM269.836 57.4813C269.269 57.4813 268.813 57.6584 268.468 58.0126C268.14 58.3402 267.932 58.7961 267.844 59.3805H271.748C271.704 58.7164 271.483 58.2206 271.084 57.893C270.766 57.6186 270.349 57.4813 269.836 57.4813ZM57.6836 80.1109C57.6836 78.8448 58.0598 77.8886 58.8124 77.2423C59.4145 76.7199 60.1759 76.4587 61.0967 76.4587C62.168 76.4587 63.0091 76.7996 63.62 77.4813C64.2043 78.1188 64.4965 78.9953 64.4965 80.1109C64.4965 81.3593 64.1291 82.311 63.3942 82.9662C62.7922 83.4974 62.0219 83.7631 61.0834 83.7631C60.0121 83.7631 59.1666 83.4089 58.5468 82.7006C57.9713 82.0543 57.6836 81.191 57.6836 80.1109ZM59.0116 80.1109C59.0116 80.9963 59.2374 81.6736 59.6889 82.1428C60.0608 82.5324 60.5345 82.7272 61.1099 82.7272C61.7828 82.7272 62.3008 82.4748 62.6638 81.9702C63.0002 81.5098 63.1684 80.89 63.1684 80.1109C63.1684 79.2078 62.9471 78.5261 62.5044 78.0657C62.1414 77.685 61.6722 77.4946 61.0967 77.4946C60.4326 77.4946 59.9147 77.747 59.5428 78.2516C59.1887 78.712 59.0116 79.3318 59.0116 80.1109ZM69.0354 82.5412V83.6302C68.7078 83.7188 68.3935 83.7631 68.0925 83.7631C67.455 83.7631 66.9769 83.5638 66.6582 83.1654C66.3837 82.8378 66.2465 82.3996 66.2465 81.8507V77.747H65.2239V76.658H66.2465L66.3262 74.9979H67.5214V76.658H69.0089V77.747H67.5214V81.8772C67.5214 82.3907 67.7649 82.6475 68.2519 82.6475C68.4821 82.6475 68.7433 82.6121 69.0354 82.5412ZM71.5091 83.5638H70.2342V74.0018H71.5091V77.4415C72.0138 76.7863 72.6867 76.4587 73.5278 76.4587C74.3423 76.4587 74.9665 76.7111 75.4003 77.2157C75.7811 77.6673 75.9714 78.2826 75.9714 79.0617V83.5638H74.6965V79.075C74.6965 78.0568 74.2051 77.5478 73.2223 77.5478C72.7 77.5478 72.275 77.7293 71.9474 78.0923C71.6552 78.4198 71.5091 78.8404 71.5091 79.3539V83.5638ZM82.4707 81.5718H83.8519C83.6571 82.2712 83.2719 82.8201 82.6965 83.2185C82.1564 83.5816 81.5101 83.7631 80.7575 83.7631C79.6685 83.7631 78.8185 83.4178 78.2076 82.7272C77.6498 82.0808 77.371 81.2088 77.371 80.1109C77.371 78.8625 77.7251 77.9152 78.4334 77.2689C79.0177 76.7288 79.7703 76.4587 80.6911 76.4587C81.7712 76.4587 82.5858 76.8085 83.1347 77.5079C83.6659 78.1808 83.9315 79.1414 83.9315 80.3898H78.6724C78.7256 81.2043 78.9735 81.8108 79.4162 82.2092C79.7792 82.528 80.2396 82.6873 80.7973 82.6873C81.2312 82.6873 81.6074 82.5678 81.9262 82.3288C82.1918 82.1251 82.3733 81.8728 82.4707 81.5718ZM80.7177 77.4813C80.151 77.4813 79.695 77.6584 79.3498 78.0126C79.0222 78.3402 78.8141 78.7961 78.7256 79.3805H82.6301C82.5858 78.7164 82.3644 78.2206 81.966 77.893C81.6473 77.6186 81.2312 77.4813 80.7177 77.4813ZM86.7351 83.5638H85.4602V76.658H86.5093L86.682 77.6806C87.0715 76.866 87.6559 76.4587 88.435 76.4587C88.6918 76.4587 88.9441 76.4897 89.192 76.5517V77.8266C88.891 77.747 88.6209 77.7071 88.3819 77.7071C87.8684 77.7071 87.4655 77.9152 87.1734 78.3313C86.8812 78.7474 86.7351 79.3362 86.7351 80.0976V83.5638ZM102.529 76.658H103.804L101.785 83.5638H100.311L98.6378 78.1055L96.991 83.5638H95.4637L93.4451 76.658H94.7731L96.2606 82.2092L97.9074 76.658H99.4346L101.055 82.1827L102.529 76.658ZM105.886 78.5836H104.532C104.603 77.893 104.93 77.3574 105.515 76.9767C106.037 76.6314 106.696 76.4587 107.493 76.4587C108.441 76.4587 109.167 76.7066 109.671 77.2025C110.096 77.6274 110.309 78.1764 110.309 78.8492V83.5638H109.26L109.1 82.6209C108.56 83.3823 107.79 83.7631 106.789 83.7631C106.001 83.7631 105.386 83.5506 104.943 83.1256C104.58 82.7714 104.399 82.3243 104.399 81.7842C104.399 81.1025 104.634 80.5757 105.103 80.2039C105.519 79.8763 106.156 79.6372 107.015 79.4867L109.034 79.1414V78.7961C109.034 78.3446 108.879 78.0037 108.569 77.7735C108.295 77.5699 107.918 77.4681 107.44 77.4681C106.502 77.4681 105.984 77.8399 105.886 78.5836ZM107.095 82.6873C107.635 82.6873 108.104 82.5103 108.503 82.1561C108.857 81.8285 109.034 81.4522 109.034 81.0273V80.1375L107.321 80.4429C106.692 80.5492 106.263 80.713 106.032 80.9343C105.847 81.1114 105.754 81.3504 105.754 81.6514C105.754 81.9879 105.869 82.2446 106.099 82.4217C106.329 82.5988 106.661 82.6873 107.095 82.6873ZM117.603 76.658L115.2 83.6568C114.881 84.5864 114.575 85.2195 114.283 85.5559C113.938 85.9543 113.491 86.1536 112.942 86.1536C112.712 86.1536 112.437 86.1137 112.119 86.034V84.9981C112.366 85.0601 112.588 85.0911 112.783 85.0911C113.057 85.0911 113.27 84.9937 113.42 84.7989C113.571 84.613 113.761 84.2013 113.991 83.5638H113.579L111.043 76.658H112.424L114.376 82.528L116.329 76.658H117.603ZM122.699 81.6913C122.699 81.3017 122.495 81.0095 122.088 80.8148C121.849 80.7085 121.384 80.5757 120.693 80.4164C119.844 80.2304 119.237 79.9604 118.874 79.6062C118.573 79.3052 118.422 78.9112 118.422 78.4243C118.422 77.7779 118.684 77.2821 119.206 76.9368C119.675 76.6181 120.308 76.4587 121.105 76.4587C121.929 76.4587 122.597 76.6624 123.111 77.0697C123.553 77.4238 123.828 77.893 123.934 78.4774H122.632C122.482 77.8045 121.968 77.4681 121.092 77.4681C120.605 77.4681 120.242 77.5566 120.003 77.7337C119.808 77.8842 119.711 78.0745 119.711 78.3047C119.711 78.5881 119.817 78.8005 120.029 78.9422C120.251 79.0839 120.68 79.2255 121.318 79.3672C122.292 79.5797 122.969 79.8409 123.35 80.1507C123.775 80.496 123.987 80.9786 123.987 81.5983C123.987 82.2889 123.704 82.8334 123.137 83.2318C122.624 83.586 121.946 83.7631 121.105 83.7631C120.184 83.7631 119.454 83.5417 118.914 83.099C118.445 82.7095 118.183 82.2048 118.13 81.585H119.432C119.573 82.3642 120.136 82.7537 121.118 82.7537C121.65 82.7537 122.061 82.6386 122.354 82.4084C122.584 82.2225 122.699 81.9835 122.699 81.6913ZM135.19 76.658L132.786 83.6568C132.467 84.5864 132.162 85.2195 131.87 85.5559C131.524 85.9543 131.077 86.1536 130.528 86.1536C130.298 86.1536 130.024 86.1137 129.705 86.034V84.9981C129.953 85.0601 130.174 85.0911 130.369 85.0911C130.643 85.0911 130.856 84.9937 131.006 84.7989C131.157 84.613 131.347 84.2013 131.578 83.5638H131.166L128.629 76.658H130.01L131.963 82.528L133.915 76.658H135.19ZM135.59 80.1109C135.59 78.8448 135.966 77.8886 136.719 77.2423C137.321 76.7199 138.082 76.4587 139.003 76.4587C140.075 76.4587 140.916 76.7996 141.527 77.4813C142.111 78.1188 142.403 78.9953 142.403 80.1109C142.403 81.3593 142.036 82.311 141.301 82.9662C140.699 83.4974 139.928 83.7631 138.99 83.7631C137.919 83.7631 137.073 83.4089 136.453 82.7006C135.878 82.0543 135.59 81.191 135.59 80.1109ZM136.918 80.1109C136.918 80.9963 137.144 81.6736 137.595 82.1428C137.967 82.5324 138.441 82.7272 139.016 82.7272C139.689 82.7272 140.207 82.4748 140.57 81.9702C140.907 81.5098 141.075 80.89 141.075 80.1109C141.075 79.2078 140.854 78.5261 140.411 78.0657C140.048 77.685 139.579 77.4946 139.003 77.4946C138.339 77.4946 137.821 77.747 137.449 78.2516C137.095 78.712 136.918 79.3318 136.918 80.1109ZM143.794 76.658H145.069V81.1866C145.069 82.1782 145.548 82.674 146.504 82.674C147.088 82.674 147.535 82.466 147.845 82.0499C148.084 81.7311 148.204 81.3371 148.204 80.8679V76.658H149.479V83.5638H148.429L148.283 82.767C147.796 83.431 147.106 83.7631 146.212 83.7631C145.424 83.7631 144.817 83.5196 144.392 83.0326C143.994 82.5811 143.794 81.9569 143.794 81.1601V76.658ZM159.828 81.346H161.222C161.116 82.0897 160.766 82.6873 160.173 83.1389C159.633 83.555 158.973 83.7631 158.194 83.7631C157.176 83.7631 156.366 83.4133 155.764 82.7139C155.206 82.0676 154.927 81.2176 154.927 80.164C154.927 78.9422 155.264 77.9949 155.937 77.322C156.512 76.7465 157.26 76.4587 158.181 76.4587C159.031 76.4587 159.73 76.6845 160.279 77.1361C160.766 77.5345 161.063 78.0568 161.169 78.7032H159.761C159.673 78.3313 159.491 78.0436 159.217 77.8399C158.951 77.6363 158.615 77.5345 158.208 77.5345C157.579 77.5345 157.096 77.7824 156.76 78.2782C156.441 78.7386 156.282 79.3805 156.282 80.2039C156.282 81.0627 156.494 81.7134 156.919 82.1561C157.256 82.5103 157.69 82.6873 158.221 82.6873C158.681 82.6873 159.058 82.5545 159.35 82.2889C159.607 82.0587 159.766 81.7444 159.828 81.346ZM163.768 78.5836H162.414C162.485 77.893 162.812 77.3574 163.396 76.9767C163.919 76.6314 164.578 76.4587 165.375 76.4587C166.323 76.4587 167.049 76.7066 167.553 77.2025C167.978 77.6274 168.191 78.1764 168.191 78.8492V83.5638H167.142L166.982 82.6209C166.442 83.3823 165.672 83.7631 164.671 83.7631C163.883 83.7631 163.268 83.5506 162.825 83.1256C162.462 82.7714 162.281 82.3243 162.281 81.7842C162.281 81.1025 162.516 80.5757 162.985 80.2039C163.401 79.8763 164.038 79.6372 164.897 79.4867L166.916 79.1414V78.7961C166.916 78.3446 166.761 78.0037 166.451 77.7735C166.177 77.5699 165.8 77.4681 165.322 77.4681C164.384 77.4681 163.866 77.8399 163.768 78.5836ZM164.977 82.6873C165.517 82.6873 165.986 82.5103 166.385 82.1561C166.739 81.8285 166.916 81.4522 166.916 81.0273V80.1375L165.203 80.4429C164.574 80.5492 164.145 80.713 163.914 80.9343C163.728 81.1114 163.636 81.3504 163.636 81.6514C163.636 81.9879 163.751 82.2446 163.981 82.4217C164.211 82.5988 164.543 82.6873 164.977 82.6873ZM171.256 83.5638H169.981V76.658H171.03L171.176 77.5345C171.69 76.8173 172.389 76.4587 173.275 76.4587C174.089 76.4587 174.713 76.7111 175.147 77.2157C175.528 77.6673 175.718 78.2826 175.718 79.0617V83.5638H174.443V79.075C174.443 78.0568 173.952 77.5478 172.969 77.5478C172.456 77.5478 172.035 77.7248 171.708 78.079C171.406 78.3977 171.256 78.805 171.256 79.3008V83.5638ZM181.431 76.658H182.706V81.1866C182.706 82.1782 183.184 82.674 184.141 82.674C184.725 82.674 185.172 82.466 185.482 82.0499C185.721 81.7311 185.841 81.3371 185.841 80.8679V76.658H187.115V83.5638H186.066L185.92 82.767C185.433 83.431 184.743 83.7631 183.848 83.7631C183.06 83.7631 182.454 83.5196 182.029 83.0326C181.631 82.5811 181.431 81.9569 181.431 81.1601V76.658ZM193.018 81.6913C193.018 81.3017 192.815 81.0095 192.407 80.8148C192.168 80.7085 191.704 80.5757 191.013 80.4164C190.163 80.2304 189.557 79.9604 189.194 79.6062C188.893 79.3052 188.742 78.9112 188.742 78.4243C188.742 77.7779 189.003 77.2821 189.526 76.9368C189.995 76.6181 190.628 76.4587 191.425 76.4587C192.248 76.4587 192.917 76.6624 193.43 77.0697C193.873 77.4238 194.147 77.893 194.253 78.4774H192.952C192.801 77.8045 192.288 77.4681 191.411 77.4681C190.924 77.4681 190.561 77.5566 190.322 77.7337C190.128 77.8842 190.03 78.0745 190.03 78.3047C190.03 78.5881 190.136 78.8005 190.349 78.9422C190.57 79.0839 191 79.2255 191.637 79.3672C192.611 79.5797 193.288 79.8409 193.669 80.1507C194.094 80.496 194.307 80.9786 194.307 81.5983C194.307 82.2889 194.023 82.8334 193.457 83.2318C192.943 83.586 192.266 83.7631 191.425 83.7631C190.504 83.7631 189.773 83.5417 189.233 83.099C188.764 82.7095 188.503 82.2048 188.45 81.585H189.751C189.893 82.3642 190.455 82.7537 191.438 82.7537C191.969 82.7537 192.381 82.6386 192.673 82.4084C192.903 82.2225 193.018 81.9835 193.018 81.6913ZM200.465 81.5718H201.846C201.652 82.2712 201.267 82.8201 200.691 83.2185C200.151 83.5816 199.505 83.7631 198.752 83.7631C197.663 83.7631 196.813 83.4178 196.202 82.7272C195.644 82.0808 195.366 81.2088 195.366 80.1109C195.366 78.8625 195.72 77.9152 196.428 77.2689C197.012 76.7288 197.765 76.4587 198.686 76.4587C199.766 76.4587 200.58 76.8085 201.129 77.5079C201.661 78.1808 201.926 79.1414 201.926 80.3898H196.667C196.72 81.2043 196.968 81.8108 197.411 82.2092C197.774 82.528 198.234 82.6873 198.792 82.6873C199.226 82.6873 199.602 82.5678 199.921 82.3288C200.186 82.1251 200.368 81.8728 200.465 81.5718ZM198.712 77.4813C198.146 77.4813 197.69 77.6584 197.344 78.0126C197.017 78.3402 196.809 78.7961 196.72 79.3805H200.625C200.58 78.7164 200.359 78.2206 199.961 77.893C199.642 77.6186 199.226 77.4813 198.712 77.4813ZM217.981 74.0018H219.229L216.706 83.5638H215.139L212.974 75.4627L210.743 83.5638H209.083L206.573 74.0018H207.954L209.986 81.9569L212.178 74.0018H213.864L215.936 81.9303L217.981 74.0018ZM224.588 81.5718H225.969C225.775 82.2712 225.389 82.8201 224.814 83.2185C224.274 83.5816 223.628 83.7631 222.875 83.7631C221.786 83.7631 220.936 83.4178 220.325 82.7272C219.767 82.0808 219.488 81.2088 219.488 80.1109C219.488 78.8625 219.843 77.9152 220.551 77.2689C221.135 76.7288 221.888 76.4587 222.809 76.4587C223.889 76.4587 224.703 76.8085 225.252 77.5079C225.783 78.1808 226.049 79.1414 226.049 80.3898H220.79C220.843 81.2043 221.091 81.8108 221.534 82.2092C221.897 82.528 222.357 82.6873 222.915 82.6873C223.349 82.6873 223.725 82.5678 224.044 82.3288C224.309 82.1251 224.491 81.8728 224.588 81.5718ZM222.835 77.4813C222.269 77.4813 221.813 77.6584 221.467 78.0126C221.14 78.3402 220.932 78.7961 220.843 79.3805H224.748C224.703 78.7164 224.482 78.2206 224.084 77.893C223.765 77.6186 223.349 77.4813 222.835 77.4813ZM228.627 83.5638H227.578V74.0018H228.853V77.6142C229.393 76.8439 230.163 76.4587 231.163 76.4587C232.155 76.4587 232.925 76.8129 233.474 77.5212C233.961 78.1587 234.205 79.0042 234.205 80.0578C234.205 81.3061 233.873 82.2623 233.209 82.9264C232.651 83.4842 231.938 83.7631 231.07 83.7631C230.088 83.7631 229.34 83.3912 228.826 82.6475L228.627 83.5638ZM232.877 80.0312C232.877 79.1636 232.66 78.5128 232.226 78.079C231.881 77.7248 231.429 77.5478 230.871 77.5478C230.225 77.5478 229.711 77.7824 229.331 78.2516C228.968 78.7032 228.786 79.2964 228.786 80.0312C228.786 80.9166 229.003 81.5939 229.437 82.0631C229.8 82.4704 230.278 82.674 230.871 82.674C231.535 82.674 232.04 82.4306 232.385 81.9436C232.713 81.4921 232.877 80.8546 232.877 80.0312ZM240.372 81.5718H241.753C241.558 82.2712 241.173 82.8201 240.598 83.2185C240.058 83.5816 239.411 83.7631 238.659 83.7631C237.57 83.7631 236.72 83.4178 236.109 82.7272C235.551 82.0808 235.272 81.2088 235.272 80.1109C235.272 78.8625 235.626 77.9152 236.335 77.2689C236.919 76.7288 237.671 76.4587 238.592 76.4587C239.672 76.4587 240.487 76.8085 241.036 77.5079C241.567 78.1808 241.833 79.1414 241.833 80.3898H236.574C236.627 81.2043 236.875 81.8108 237.317 82.2092C237.68 82.528 238.141 82.6873 238.698 82.6873C239.132 82.6873 239.509 82.5678 239.827 82.3288C240.093 82.1251 240.274 81.8728 240.372 81.5718ZM238.619 77.4813C238.052 77.4813 237.596 77.6584 237.251 78.0126C236.923 78.3402 236.715 78.7961 236.627 79.3805H240.531C240.487 78.7164 240.266 78.2206 239.867 77.893C239.548 77.6186 239.132 77.4813 238.619 77.4813ZM248.926 76.658L246.615 79.8851L249.324 83.5638H247.77L245.898 80.8945L244.065 83.5638H242.564L245.141 79.9781L242.724 76.658H244.251L245.898 78.9821L247.465 76.658H248.926ZM252.223 83.5638H250.683V82.0233H252.223V83.5638Z" fill="#707070"/>
<rect x="0.708681" y="0.631227" width="329.168" height="111.225" rx="10.909" stroke="white" stroke-opacity="0.2" stroke-width="0.948611"/>
</svg>
