<svg width="331" height="113" viewBox="0 0 331 113" fill="none" xmlns="http://www.w3.org/2000/svg">
<path d="M33.2031 31.8249C33.0467 32.0589 32.9633 32.334 32.9633 32.6154C32.9638 32.9926 33.1139 33.3543 33.3806 33.621C33.6473 33.8878 34.009 34.0378 34.3862 34.0383C34.6676 34.0383 34.9427 33.9549 35.1767 33.7985C35.4107 33.6422 35.5931 33.4199 35.7008 33.1599C35.8085 32.8999 35.8367 32.6138 35.7818 32.3378C35.7269 32.0618 35.5914 31.8083 35.3924 31.6093C35.1934 31.4103 34.9398 31.2747 34.6638 31.2198C34.3878 31.1649 34.1017 31.1931 33.8417 31.3008C33.5817 31.4085 33.3594 31.5909 33.2031 31.8249Z" fill="white" fill-opacity="0.95"/>
<path d="M31.5404 37.4261C31.5404 37.7853 32.6492 38.3064 34.3862 38.3064C36.1232 38.3064 37.2321 37.7853 37.232 37.4261C37.232 35.9761 35.6993 35.4612 34.3862 35.4612C33.0731 35.4612 31.5404 35.9761 31.5404 37.4261Z" fill="white" fill-opacity="0.95"/>
<path d="M28.8525 26.468C30.4905 25.3735 32.4162 24.7894 34.3862 24.7894C37.027 24.7923 39.5587 25.8427 41.426 27.71C43.2933 29.5773 44.3437 32.109 44.3466 34.7498C44.3466 36.7198 43.7625 38.6455 42.668 40.2835C41.5735 41.9215 40.0179 43.1981 38.1979 43.952C36.3779 44.7059 34.3752 44.9031 32.443 44.5188C30.5109 44.1345 28.7361 43.1859 27.3431 41.7929C25.9501 40.3999 25.0015 38.6251 24.6172 36.693C24.2328 34.7608 24.4301 32.7581 25.184 30.9381C25.9379 29.1181 27.2145 27.5625 28.8525 26.468ZM37.232 32.6154C37.232 31.8606 36.9322 31.1368 36.3985 30.6031C35.8648 30.0694 35.141 29.7696 34.3862 29.7696C33.6314 29.7696 32.9076 30.0694 32.3739 30.6031C31.8402 31.1368 31.5404 31.8606 31.5404 32.6154C31.5431 33.2893 31.7871 33.9399 32.2282 34.4494C31.6116 34.6663 31.0776 35.069 30.6995 35.6022C30.3215 36.1353 30.1181 36.7726 30.1174 37.4261C30.1174 37.8875 30.3203 38.7414 31.6779 39.2812C32.5458 39.5943 33.4637 39.7462 34.3862 39.7293C36.3552 39.7293 38.6549 39.1263 38.6549 37.4261C38.6543 36.7726 38.4509 36.1353 38.0729 35.6022C37.6948 35.069 37.1608 34.6663 36.5442 34.4494C36.9853 33.9399 37.2293 33.2893 37.232 32.6154Z" fill="white" fill-opacity="0.95"/>
<path d="M65.891 37.3667H63.2481L61.1365 33.8739H59.9147V37.3667H57.6836V27.8047H61.2029C62.6195 27.8047 63.6731 28.0968 64.3637 28.6812C64.9569 29.1947 65.2535 29.9118 65.2535 30.8326C65.2535 32.1341 64.6204 33.0195 63.3544 33.4887L65.891 37.3667ZM61.2295 29.3452H59.9147V32.3333H61.3092C61.8315 32.3333 62.2432 32.1873 62.5442 31.8951C62.8099 31.6295 62.9427 31.2753 62.9427 30.8326C62.9427 29.841 62.3716 29.3452 61.2295 29.3452ZM71.1691 35.3613H73.2807C73.1037 36.0873 72.7185 36.6407 72.1253 37.0214C71.541 37.3844 70.7884 37.5659 69.8676 37.5659C68.699 37.5659 67.7826 37.2029 67.1186 36.4769C66.5254 35.8217 66.2288 34.9673 66.2288 33.9137C66.2288 32.6742 66.5962 31.7313 67.3311 31.085C67.9597 30.536 68.7831 30.2616 69.8012 30.2616C71.0053 30.2616 71.9129 30.6511 72.5238 31.4303C73.0815 32.1386 73.3604 33.1346 73.3604 34.4184H68.3271C68.4599 35.5517 69.0088 36.1183 69.9739 36.1183C70.2838 36.1183 70.545 36.0519 70.7574 35.9191C70.9699 35.7863 71.1072 35.6004 71.1691 35.3613ZM69.7614 31.5631C68.9203 31.5631 68.4422 32.112 68.3271 33.2099H71.2355C71.1824 32.112 70.691 31.5631 69.7614 31.5631ZM78.8059 30.4608H80.944L78.5535 37.3667H75.9373L73.5601 30.4608H75.8045L77.3185 35.8394L78.8059 30.4608ZM83.8977 29.571H81.6666V27.8047H83.8977V29.571ZM83.818 37.3667H81.7463V30.4608H83.818V37.3667ZM89.9487 35.3613H92.0603C91.8832 36.0873 91.4981 36.6407 90.9049 37.0214C90.3205 37.3844 89.568 37.5659 88.6472 37.5659C87.4785 37.5659 86.5621 37.2029 85.8981 36.4769C85.3049 35.8217 85.0083 34.9673 85.0083 33.9137C85.0083 32.6742 85.3757 31.7313 86.1106 31.085C86.7392 30.536 87.5626 30.2616 88.5808 30.2616C89.7849 30.2616 90.6924 30.6511 91.3033 31.4303C91.8611 32.1386 92.14 33.1346 92.14 34.4184H87.1066C87.2394 35.5517 87.7884 36.1183 88.7534 36.1183C89.0633 36.1183 89.3245 36.0519 89.537 35.9191C89.7495 35.7863 89.8867 35.6004 89.9487 35.3613ZM88.5409 31.5631C87.6998 31.5631 87.2217 32.112 87.1066 33.2099H90.0151C89.962 32.112 89.4706 31.5631 88.5409 31.5631ZM101.856 30.4608H103.821L101.922 37.3667H99.3588L98.2698 32.3201L97.0347 37.3667H94.5247L92.6654 30.4608H94.8035L95.8793 35.6535L97.1011 30.4608H99.5978L100.674 35.68L101.856 30.4608ZM112.853 30.4608H114.925L112.455 37.5128C112.127 38.4601 111.747 39.1153 111.313 39.4783C110.941 39.797 110.458 39.9564 109.865 39.9564C109.511 39.9564 109.139 39.9077 108.75 39.8103V38.3627C109.068 38.4424 109.352 38.4822 109.6 38.4822C110.06 38.4822 110.374 38.1104 110.543 37.3667H109.958L107.475 30.4608H109.679L111.207 35.8527L112.853 30.4608ZM115.201 33.8872C115.201 32.6299 115.564 31.687 116.29 31.0584C116.91 30.5272 117.764 30.2616 118.853 30.2616C120.101 30.2616 121.04 30.6113 121.668 31.3107C122.226 31.9305 122.505 32.7893 122.505 33.8872C122.505 35.1532 122.142 36.105 121.416 36.7425C120.796 37.2914 119.942 37.5659 118.853 37.5659C117.631 37.5659 116.702 37.2117 116.064 36.5034C115.489 35.866 115.201 34.9939 115.201 33.8872ZM117.339 33.8872C117.339 34.746 117.49 35.3569 117.791 35.7199C118.038 36.0209 118.397 36.1714 118.866 36.1714C119.424 36.1714 119.818 35.9766 120.048 35.5871C120.27 35.2241 120.38 34.6574 120.38 33.8872C120.38 33.0195 120.234 32.413 119.942 32.0677C119.703 31.7933 119.34 31.656 118.853 31.656C118.295 31.656 117.897 31.8464 117.658 32.2271C117.445 32.5724 117.339 33.1257 117.339 33.8872ZM123.636 30.4608H125.707V35.0293C125.707 35.3746 125.8 35.6402 125.986 35.8261C126.181 36.0121 126.455 36.105 126.81 36.105C127.208 36.105 127.527 35.9589 127.766 35.6668C127.978 35.3923 128.085 35.0381 128.085 34.6043V30.4608H130.156V37.3667H128.443L128.244 36.6362C127.739 37.256 127.044 37.5659 126.159 37.5659C125.309 37.5659 124.663 37.3091 124.22 36.7956C123.83 36.3441 123.636 35.7287 123.636 34.9496V30.4608ZM133.685 37.3667H131.613V30.4608H133.34L133.565 31.5099C133.946 30.6777 134.548 30.2616 135.372 30.2616C135.681 30.2616 135.943 30.2926 136.155 30.3545V32.2802C135.872 32.1917 135.575 32.1474 135.265 32.1474C134.796 32.1474 134.411 32.3732 134.11 32.8247C133.827 33.2497 133.685 33.8075 133.685 34.4981V37.3667ZM144.312 37.5659C143.56 37.5659 142.927 37.3003 142.413 36.769V39.7572H140.342V30.4608H141.909L142.307 31.2311C142.865 30.5847 143.595 30.2616 144.498 30.2616C145.508 30.2616 146.287 30.6069 146.836 31.2975C147.332 31.9261 147.579 32.7627 147.579 33.8075C147.579 35.047 147.225 36.0121 146.517 36.7026C145.933 37.2781 145.198 37.5659 144.312 37.5659ZM145.494 33.8606C145.494 32.4706 144.981 31.7756 143.954 31.7756C143.431 31.7756 143.029 31.9659 142.745 32.3466C142.48 32.7096 142.347 33.2054 142.347 33.834C142.347 35.3126 142.86 36.0519 143.887 36.0519C144.41 36.0519 144.813 35.8483 145.096 35.441C145.362 35.0603 145.494 34.5335 145.494 33.8606ZM150.843 37.3667H148.772V30.4608H150.498L150.724 31.5099C151.105 30.6777 151.707 30.2616 152.53 30.2616C152.84 30.2616 153.101 30.2926 153.314 30.3545V32.2802C153.03 32.1917 152.734 32.1474 152.424 32.1474C151.954 32.1474 151.569 32.3732 151.268 32.8247C150.985 33.2497 150.843 33.8075 150.843 34.4981V37.3667ZM153.655 33.8872C153.655 32.6299 154.018 31.687 154.744 31.0584C155.364 30.5272 156.218 30.2616 157.307 30.2616C158.555 30.2616 159.494 30.6113 160.122 31.3107C160.68 31.9305 160.959 32.7893 160.959 33.8872C160.959 35.1532 160.596 36.105 159.87 36.7425C159.25 37.2914 158.396 37.5659 157.307 37.5659C156.085 37.5659 155.155 37.2117 154.518 36.5034C153.943 35.866 153.655 34.9939 153.655 33.8872ZM155.793 33.8872C155.793 34.746 155.943 35.3569 156.244 35.7199C156.492 36.0209 156.851 36.1714 157.32 36.1714C157.878 36.1714 158.272 35.9766 158.502 35.5871C158.724 35.2241 158.834 34.6574 158.834 33.8872C158.834 33.0195 158.688 32.413 158.396 32.0677C158.157 31.7933 157.794 31.656 157.307 31.656C156.749 31.656 156.351 31.8464 156.112 32.2271C155.899 32.5724 155.793 33.1257 155.793 33.8872ZM166.605 27.8312V29.2921C166.144 29.177 165.799 29.1194 165.569 29.1194C165.02 29.1194 164.746 29.3718 164.746 29.8764V30.4608H166.26V31.8951H164.746V37.3667H162.674V31.8951H161.625V30.4608H162.674V29.9561C162.674 29.1416 162.904 28.5351 163.364 28.1367C163.763 27.7825 164.316 27.6055 165.024 27.6055C165.494 27.6055 166.021 27.6807 166.605 27.8312ZM169.352 29.571H167.121V27.8047H169.352V29.571ZM169.273 37.3667H167.201V30.4608H169.273V37.3667ZM172.8 27.8047V37.3667H170.729V27.8047H172.8ZM178.931 35.3613H181.043C180.866 36.0873 180.48 36.6407 179.887 37.0214C179.303 37.3844 178.55 37.5659 177.63 37.5659C176.461 37.5659 175.544 37.2029 174.88 36.4769C174.287 35.8217 173.991 34.9673 173.991 33.9137C173.991 32.6742 174.358 31.7313 175.093 31.085C175.722 30.536 176.545 30.2616 177.563 30.2616C178.767 30.2616 179.675 30.6511 180.286 31.4303C180.843 32.1386 181.122 33.1346 181.122 34.4184H176.089C176.222 35.5517 176.771 36.1183 177.736 36.1183C178.046 36.1183 178.307 36.0519 178.519 35.9191C178.732 35.7863 178.869 35.6004 178.931 35.3613ZM177.523 31.5631C176.682 31.5631 176.204 32.112 176.089 33.2099H178.997C178.944 32.112 178.453 31.5631 177.523 31.5631Z" fill="white" fill-opacity="0.95"/>
<path d="M63.6864 64.007H62.4114L59.4632 56.5167V64.007H58.1484V54.445H60.0342L63.0755 62.4133L65.9441 54.445H67.7237V64.007H66.4487V56.5831L63.6864 64.007ZM70.7396 59.0267H69.385C69.4558 58.3362 69.7834 57.8005 70.3677 57.4198C70.8901 57.0745 71.5497 56.9019 72.3465 56.9019C73.2939 56.9019 74.0199 57.1498 74.5246 57.6456C74.9495 58.0705 75.162 58.6195 75.162 59.2924V64.007H74.1129L73.9535 63.064C73.4134 63.8255 72.6431 64.2062 71.6427 64.2062C70.8547 64.2062 70.2394 63.9937 69.7967 63.5687C69.4337 63.2146 69.2522 62.7674 69.2522 62.2274C69.2522 61.5456 69.4868 61.0188 69.956 60.647C70.3722 60.3194 71.0096 60.0803 71.8684 59.9298L73.8871 59.5845V59.2392C73.8871 58.7877 73.7321 58.4468 73.4223 58.2166C73.1478 58.013 72.7715 57.9112 72.2934 57.9112C71.3549 57.9112 70.837 58.283 70.7396 59.0267ZM71.9481 63.1304C72.4882 63.1304 72.9575 62.9534 73.3559 62.5992C73.71 62.2716 73.8871 61.8953 73.8871 61.4704V60.5806L72.1739 60.886C71.5453 60.9923 71.1159 61.1561 70.8857 61.3774C70.6998 61.5545 70.6068 61.7935 70.6068 62.0946C70.6068 62.431 70.7219 62.6878 70.9521 62.8648C71.1823 63.0419 71.5143 63.1304 71.9481 63.1304ZM78.2272 64.007H76.9523V54.445H78.2272V59.7837L80.9365 57.1011H82.6098L79.5022 60.1025L82.995 64.007H81.295L78.2272 60.5275V64.007ZM88.1512 62.0149H89.5324C89.3376 62.7143 88.9525 63.2632 88.377 63.6617C87.8369 64.0247 87.1906 64.2062 86.438 64.2062C85.349 64.2062 84.4991 63.8609 83.8882 63.1703C83.3304 62.524 83.0515 61.6519 83.0515 60.554C83.0515 59.3056 83.4057 58.3583 84.1139 57.712C84.6983 57.1719 85.4509 56.9019 86.3716 56.9019C87.4518 56.9019 88.2663 57.2516 88.8153 57.951C89.3465 58.6239 89.6121 59.5845 89.6121 60.8329H84.353C84.4061 61.6474 84.654 62.2539 85.0967 62.6523C85.4597 62.9711 85.9201 63.1304 86.4779 63.1304C86.9117 63.1304 87.288 63.0109 87.6067 62.7719C87.8723 62.5682 88.0538 62.3159 88.1512 62.0149ZM86.3982 57.9245C85.8316 57.9245 85.3756 58.1015 85.0303 58.4557C84.7027 58.7833 84.4947 59.2392 84.4061 59.8236H88.3106C88.2663 59.1596 88.045 58.6637 87.6466 58.3362C87.3278 58.0617 86.9117 57.9245 86.3982 57.9245ZM99.1596 62.1344C99.1596 61.7448 98.9559 61.4527 98.5487 61.2579C98.3096 61.1516 97.8448 61.0188 97.1542 60.8595C96.3043 60.6735 95.6978 60.4035 95.3348 60.0494C95.0337 59.7483 94.8832 59.3543 94.8832 58.8674C94.8832 58.2211 95.1444 57.7253 95.6668 57.38C96.136 57.0612 96.7691 56.9019 97.5659 56.9019C98.3893 56.9019 99.0578 57.1055 99.5713 57.5128C100.014 57.8669 100.288 58.3362 100.395 58.9205H99.0932C98.9427 58.2476 98.4291 57.9112 97.5526 57.9112C97.0657 57.9112 96.7027 57.9997 96.4636 58.1768C96.2688 58.3273 96.1714 58.5177 96.1714 58.7479C96.1714 59.0312 96.2777 59.2437 96.4902 59.3853C96.7115 59.527 97.1409 59.6686 97.7784 59.8103C98.7523 60.0228 99.4296 60.284 99.8103 60.5939C100.235 60.9391 100.448 61.4217 100.448 62.0414C100.448 62.732 100.164 63.2765 99.5978 63.6749C99.0843 64.0291 98.407 64.2062 97.5659 64.2062C96.6451 64.2062 95.9147 63.9848 95.3746 63.5421C94.9054 63.1526 94.6442 62.6479 94.5911 62.0282H95.8926C96.0342 62.8073 96.5964 63.1968 97.5792 63.1968C98.1104 63.1968 98.5221 63.0817 98.8143 62.8515C99.0445 62.6656 99.1596 62.4266 99.1596 62.1344ZM101.839 57.1011H103.114V61.6297C103.114 62.6214 103.592 63.1172 104.548 63.1172C105.132 63.1172 105.58 62.9091 105.889 62.493C106.128 62.1742 106.248 61.7803 106.248 61.311V57.1011H107.523V64.007H106.474L106.328 63.2101C105.841 63.8742 105.15 64.2062 104.256 64.2062C103.468 64.2062 102.861 63.9627 102.436 63.4757C102.038 63.0242 101.839 62.4 101.839 61.6032V57.1011ZM110.663 64.007H109.389V57.1011H110.438L110.61 58.1237C111 57.3091 111.584 56.9019 112.363 56.9019C112.62 56.9019 112.872 56.9328 113.12 56.9948V58.2698C112.819 58.1901 112.549 58.1502 112.31 58.1502C111.797 58.1502 111.394 58.3583 111.102 58.7744C110.81 59.1905 110.663 59.7793 110.663 60.5407V64.007ZM118.694 62.0149H120.075C119.88 62.7143 119.495 63.2632 118.92 63.6617C118.38 64.0247 117.733 64.2062 116.981 64.2062C115.892 64.2062 115.042 63.8609 114.431 63.1703C113.873 62.524 113.594 61.6519 113.594 60.554C113.594 59.3056 113.948 58.3583 114.657 57.712C115.241 57.1719 115.994 56.9019 116.914 56.9019C117.994 56.9019 118.809 57.2516 119.358 57.951C119.889 58.6239 120.155 59.5845 120.155 60.8329H114.896C114.949 61.6474 115.197 62.2539 115.639 62.6523C116.002 62.9711 116.463 63.1304 117.021 63.1304C117.454 63.1304 117.831 63.0109 118.149 62.7719C118.415 62.5682 118.597 62.3159 118.694 62.0149ZM116.941 57.9245C116.374 57.9245 115.918 58.1015 115.573 58.4557C115.245 58.7833 115.037 59.2392 114.949 59.8236H118.853C118.809 59.1596 118.588 58.6637 118.189 58.3362C117.871 58.0617 117.454 57.9245 116.941 57.9245ZM126.754 59.0267H125.399C125.47 58.3362 125.798 57.8005 126.382 57.4198C126.904 57.0745 127.564 56.9019 128.361 56.9019C129.308 56.9019 130.034 57.1498 130.539 57.6456C130.964 58.0705 131.176 58.6195 131.176 59.2924V64.007H130.127L129.968 63.064C129.428 63.8255 128.658 64.2062 127.657 64.2062C126.869 64.2062 126.254 63.9937 125.811 63.5687C125.448 63.2146 125.267 62.7674 125.267 62.2274C125.267 61.5456 125.501 61.0188 125.97 60.647C126.387 60.3194 127.024 60.0803 127.883 59.9298L129.901 59.5845V59.2392C129.901 58.7877 129.747 58.4468 129.437 58.2166C129.162 58.013 128.786 57.9112 128.308 57.9112C127.369 57.9112 126.851 58.283 126.754 59.0267ZM127.963 63.1304C128.503 63.1304 128.972 62.9534 129.37 62.5992C129.724 62.2716 129.901 61.8953 129.901 61.4704V60.5806L128.188 60.886C127.56 60.9923 127.13 61.1561 126.9 61.3774C126.714 61.5545 126.621 61.7935 126.621 62.0946C126.621 62.431 126.736 62.6878 126.966 62.8648C127.197 63.0419 127.529 63.1304 127.963 63.1304ZM134.242 54.445V64.007H132.967V54.445H134.242ZM137.38 54.445V64.007H136.105V54.445H137.38ZM142.827 60.554C142.827 59.2879 143.203 58.3317 143.956 57.6854C144.558 57.163 145.319 56.9019 146.24 56.9019C147.311 56.9019 148.152 57.2427 148.763 57.9245C149.348 58.5619 149.64 59.4384 149.64 60.554C149.64 61.8024 149.272 62.7542 148.538 63.4093C147.936 63.9406 147.165 64.2062 146.227 64.2062C145.155 64.2062 144.31 63.852 143.69 63.1437C143.115 62.4974 142.827 61.6342 142.827 60.554ZM144.155 60.554C144.155 61.4394 144.381 62.1167 144.832 62.5859C145.204 62.9755 145.678 63.1703 146.253 63.1703C146.926 63.1703 147.444 62.918 147.807 62.4133C148.144 61.9529 148.312 61.3331 148.312 60.554C148.312 59.6509 148.091 58.9692 147.648 58.5088C147.285 58.1281 146.816 57.9377 146.24 57.9377C145.576 57.9377 145.058 58.1901 144.686 58.6947C144.332 59.1551 144.155 59.7749 144.155 60.554ZM154.511 54.4051V55.5074C154.086 55.4012 153.736 55.348 153.462 55.348C153.231 55.348 153.05 55.41 152.917 55.534C152.793 55.6579 152.731 55.8306 152.731 56.0519V57.1011H154.219V58.1901H152.731V64.007H151.456V58.1901H150.434V57.1011H151.456V56.1316C151.456 55.5207 151.656 55.0426 152.054 54.6973C152.408 54.3963 152.851 54.2457 153.382 54.2457C153.727 54.2457 154.104 54.2989 154.511 54.4051ZM165.123 57.1011L162.719 64.0999C162.4 65.0296 162.095 65.6626 161.803 65.999C161.458 66.3975 161.01 66.5967 160.461 66.5967C160.231 66.5967 159.957 66.5568 159.638 66.4771V65.4413C159.886 65.5032 160.107 65.5342 160.302 65.5342C160.577 65.5342 160.789 65.4368 160.94 65.242C161.09 65.0561 161.28 64.6444 161.511 64.007H161.099L158.562 57.1011H159.944L161.896 62.9711L163.848 57.1011H165.123ZM165.523 60.554C165.523 59.2879 165.9 58.3317 166.652 57.6854C167.254 57.163 168.016 56.9019 168.936 56.9019C170.008 56.9019 170.849 57.2427 171.46 57.9245C172.044 58.5619 172.336 59.4384 172.336 60.554C172.336 61.8024 171.969 62.7542 171.234 63.4093C170.632 63.9406 169.862 64.2062 168.923 64.2062C167.852 64.2062 167.006 63.852 166.386 63.1437C165.811 62.4974 165.523 61.6342 165.523 60.554ZM166.851 60.554C166.851 61.4394 167.077 62.1167 167.529 62.5859C167.9 62.9755 168.374 63.1703 168.95 63.1703C169.622 63.1703 170.14 62.918 170.503 62.4133C170.84 61.9529 171.008 61.3331 171.008 60.554C171.008 59.6509 170.787 58.9692 170.344 58.5088C169.981 58.1281 169.512 57.9377 168.936 57.9377C168.272 57.9377 167.754 58.1901 167.383 58.6947C167.028 59.1551 166.851 59.7749 166.851 60.554ZM173.728 57.1011H175.003V61.6297C175.003 62.6214 175.481 63.1172 176.437 63.1172C177.021 63.1172 177.468 62.9091 177.778 62.493C178.017 62.1742 178.137 61.7803 178.137 61.311V57.1011H179.412V64.007H178.363L178.216 63.2101C177.729 63.8742 177.039 64.2062 176.145 64.2062C175.357 64.2062 174.75 63.9627 174.325 63.4757C173.927 63.0242 173.728 62.4 173.728 61.6032V57.1011ZM182.552 64.007H181.277V57.1011H182.326L182.499 58.1237C182.889 57.3091 183.473 56.9019 184.252 56.9019C184.509 56.9019 184.761 56.9328 185.009 56.9948V58.2698C184.708 58.1901 184.438 58.1502 184.199 58.1502C183.686 58.1502 183.283 58.3583 182.99 58.7744C182.698 59.1905 182.552 59.7793 182.552 60.5407V64.007ZM189.993 57.1011H191.042L191.241 58.0041C191.808 57.2693 192.587 56.9019 193.578 56.9019C194.57 56.9019 195.34 57.256 195.889 57.9643C196.376 58.6018 196.62 59.4473 196.62 60.5009C196.62 61.7493 196.288 62.7055 195.624 63.3695C195.066 63.9273 194.353 64.2062 193.485 64.2062C192.503 64.2062 191.763 63.8432 191.268 63.1172V66.3975H189.993V57.1011ZM195.292 60.4743C195.292 59.6067 195.075 58.9559 194.641 58.5221C194.296 58.1679 193.844 57.9909 193.286 57.9909C192.64 57.9909 192.126 58.2255 191.746 58.6947C191.383 59.1463 191.201 59.7395 191.201 60.4743C191.201 61.3597 191.418 62.037 191.852 62.5063C192.215 62.9135 192.693 63.1172 193.286 63.1172C193.95 63.1172 194.455 62.8737 194.8 62.3867C195.128 61.9352 195.292 61.2977 195.292 60.4743ZM202.787 62.0149H204.168C203.973 62.7143 203.588 63.2632 203.013 63.6617C202.473 64.0247 201.826 64.2062 201.074 64.2062C199.985 64.2062 199.135 63.8609 198.524 63.1703C197.966 62.524 197.687 61.6519 197.687 60.554C197.687 59.3056 198.041 58.3583 198.75 57.712C199.334 57.1719 200.086 56.9019 201.007 56.9019C202.087 56.9019 202.902 57.2516 203.451 57.951C203.982 58.6239 204.248 59.5845 204.248 60.8329H198.989C199.042 61.6474 199.29 62.2539 199.732 62.6523C200.095 62.9711 200.556 63.1304 201.113 63.1304C201.547 63.1304 201.924 63.0109 202.242 62.7719C202.508 62.5682 202.689 62.3159 202.787 62.0149ZM201.034 57.9245C200.467 57.9245 200.011 58.1015 199.666 58.4557C199.338 58.7833 199.13 59.2392 199.042 59.8236H202.946C202.902 59.1596 202.681 58.6637 202.282 58.3362C201.963 58.0617 201.547 57.9245 201.034 57.9245ZM207.051 64.007H205.776V57.1011H206.825L206.998 58.1237C207.388 57.3091 207.972 56.9019 208.751 56.9019C209.008 56.9019 209.26 56.9328 209.508 56.9948V58.2698C209.207 58.1901 208.937 58.1502 208.698 58.1502C208.184 58.1502 207.782 58.3583 207.489 58.7744C207.197 59.1905 207.051 59.7793 207.051 60.5407V64.007ZM214.547 62.1344C214.547 61.7448 214.344 61.4527 213.936 61.2579C213.697 61.1516 213.233 61.0188 212.542 60.8595C211.692 60.6735 211.086 60.4035 210.723 60.0494C210.422 59.7483 210.271 59.3543 210.271 58.8674C210.271 58.2211 210.532 57.7253 211.055 57.38C211.524 57.0612 212.157 56.9019 212.954 56.9019C213.777 56.9019 214.446 57.1055 214.959 57.5128C215.402 57.8669 215.676 58.3362 215.782 58.9205H214.481C214.33 58.2476 213.817 57.9112 212.94 57.9112C212.453 57.9112 212.09 57.9997 211.851 58.1768C211.657 58.3273 211.559 58.5177 211.559 58.7479C211.559 59.0312 211.665 59.2437 211.878 59.3853C212.099 59.527 212.529 59.6686 213.166 59.8103C214.14 60.0228 214.817 60.284 215.198 60.5939C215.623 60.9391 215.836 61.4217 215.836 62.0414C215.836 62.732 215.552 63.2765 214.986 63.6749C214.472 64.0291 213.795 64.2062 212.954 64.2062C212.033 64.2062 211.302 63.9848 210.762 63.5421C210.293 63.1526 210.032 62.6479 209.979 62.0282H211.28C211.422 62.8073 211.984 63.1968 212.967 63.1968C213.498 63.1968 213.91 63.0817 214.202 62.8515C214.432 62.6656 214.547 62.4266 214.547 62.1344ZM216.895 60.554C216.895 59.2879 217.271 58.3317 218.023 57.6854C218.626 57.163 219.387 56.9019 220.308 56.9019C221.379 56.9019 222.22 57.2427 222.831 57.9245C223.415 58.5619 223.708 59.4384 223.708 60.554C223.708 61.8024 223.34 62.7542 222.605 63.4093C222.003 63.9406 221.233 64.2062 220.294 64.2062C219.223 64.2062 218.378 63.852 217.758 63.1437C217.182 62.4974 216.895 61.6342 216.895 60.554ZM218.223 60.554C218.223 61.4394 218.448 62.1167 218.9 62.5859C219.272 62.9755 219.746 63.1703 220.321 63.1703C220.994 63.1703 221.512 62.918 221.875 62.4133C222.211 61.9529 222.379 61.3331 222.379 60.554C222.379 59.6509 222.158 58.9692 221.715 58.5088C221.352 58.1281 220.883 57.9377 220.308 57.9377C219.644 57.9377 219.126 58.1901 218.754 58.6947C218.4 59.1551 218.223 59.7749 218.223 60.554ZM226.44 64.007H225.165V57.1011H226.215L226.361 57.9776C226.874 57.2604 227.574 56.9019 228.459 56.9019C229.274 56.9019 229.898 57.1542 230.332 57.6589C230.712 58.1104 230.903 58.7257 230.903 59.5048V64.007H229.628V59.5181C229.628 58.5 229.136 57.9909 228.154 57.9909C227.64 57.9909 227.219 58.1679 226.892 58.5221C226.591 58.8408 226.44 59.2481 226.44 59.7439V64.007ZM233.79 59.0267H232.435C232.506 58.3362 232.833 57.8005 233.418 57.4198C233.94 57.0745 234.6 56.9019 235.396 56.9019C236.344 56.9019 237.07 57.1498 237.575 57.6456C237.999 58.0705 238.212 58.6195 238.212 59.2924V64.007H237.163L237.003 63.064C236.463 63.8255 235.693 64.2062 234.693 64.2062C233.905 64.2062 233.289 63.9937 232.847 63.5687C232.484 63.2146 232.302 62.7674 232.302 62.2274C232.302 61.5456 232.537 61.0188 233.006 60.647C233.422 60.3194 234.06 60.0803 234.918 59.9298L236.937 59.5845V59.2392C236.937 58.7877 236.782 58.4468 236.472 58.2166C236.198 58.013 235.821 57.9112 235.343 57.9112C234.405 57.9112 233.887 58.283 233.79 59.0267ZM234.998 63.1304C235.538 63.1304 236.007 62.9534 236.406 62.5992C236.76 62.2716 236.937 61.8953 236.937 61.4704V60.5806L235.224 60.886C234.595 60.9923 234.166 61.1561 233.936 61.3774C233.75 61.5545 233.657 61.7935 233.657 62.0946C233.657 62.431 233.772 62.6878 234.002 62.8648C234.232 63.0419 234.564 63.1304 234.998 63.1304ZM241.277 54.445V64.007H240.002V54.445H241.277ZM248.211 59.0267H246.857C246.928 58.3362 247.255 57.8005 247.84 57.4198C248.362 57.0745 249.022 56.9019 249.818 56.9019C250.766 56.9019 251.492 57.1498 251.996 57.6456C252.421 58.0705 252.634 58.6195 252.634 59.2924V64.007H251.585L251.425 63.064C250.885 63.8255 250.115 64.2062 249.114 64.2062C248.326 64.2062 247.711 63.9937 247.268 63.5687C246.905 63.2146 246.724 62.7674 246.724 62.2274C246.724 61.5456 246.959 61.0188 247.428 60.647C247.844 60.3194 248.481 60.0803 249.34 59.9298L251.359 59.5845V59.2392C251.359 58.7877 251.204 58.4468 250.894 58.2166C250.62 58.013 250.243 57.9112 249.765 57.9112C248.827 57.9112 248.309 58.283 248.211 59.0267ZM249.42 63.1304C249.96 63.1304 250.429 62.9534 250.828 62.5992C251.182 62.2716 251.359 61.8953 251.359 61.4704V60.5806L249.646 60.886C249.017 60.9923 248.588 61.1561 248.357 61.3774C248.172 61.5545 248.079 61.7935 248.079 62.0946C248.079 62.431 248.194 62.6878 248.424 62.8648C248.654 63.0419 248.986 63.1304 249.42 63.1304ZM255.699 64.007H254.424V57.1011H255.473L255.619 57.9776C256.133 57.2604 256.832 56.9019 257.718 56.9019C258.532 56.9019 259.156 57.1542 259.59 57.6589C259.971 58.1104 260.161 58.7257 260.161 59.5048V64.007H258.886V59.5181C258.886 58.5 258.395 57.9909 257.412 57.9909C256.899 57.9909 256.478 58.1679 256.151 58.5221C255.85 58.8408 255.699 59.2481 255.699 59.7439V64.007ZM268.188 64.007H267.139L266.913 63.0375C266.382 63.8166 265.616 64.2062 264.615 64.2062C263.65 64.2062 262.889 63.8564 262.331 63.157C261.818 62.5107 261.561 61.6563 261.561 60.5939C261.561 59.3101 261.888 58.345 262.544 57.6987C263.093 57.1675 263.81 56.9019 264.695 56.9019C265.651 56.9019 266.391 57.2604 266.913 57.9776V54.445H268.188V64.007ZM262.889 60.6204C262.889 61.4792 263.101 62.13 263.526 62.5727C263.881 62.9357 264.336 63.1172 264.894 63.1172C265.585 63.1172 266.121 62.856 266.501 62.3336C266.82 61.8821 266.979 61.3154 266.979 60.6337C266.979 59.7395 266.767 59.0577 266.342 58.5885C265.979 58.1901 265.496 57.9909 264.894 57.9909C264.221 57.9909 263.712 58.2343 263.367 58.7213C263.048 59.164 262.889 59.797 262.889 60.6204ZM62.5841 81.7891H63.9785C63.8723 82.5328 63.5226 83.1304 62.9294 83.582C62.3893 83.9981 61.7297 84.2062 60.9506 84.2062C59.9324 84.2062 59.1223 83.8564 58.5202 83.157C57.9625 82.5107 57.6836 81.6607 57.6836 80.6071C57.6836 79.3853 58.02 78.438 58.6929 77.7651C59.2684 77.1896 60.0165 76.9019 60.9373 76.9019C61.7873 76.9019 62.4867 77.1276 63.0356 77.5792C63.5226 77.9776 63.8192 78.5 63.9254 79.1463H62.5177C62.4292 78.7744 62.2477 78.4867 61.9732 78.283C61.7076 78.0794 61.3711 77.9776 60.9639 77.9776C60.3353 77.9776 59.8527 78.2255 59.5163 78.7213C59.1975 79.1817 59.0382 79.8236 59.0382 80.647C59.0382 81.5058 59.2507 82.1565 59.6756 82.5992C60.0121 82.9534 60.4459 83.1304 60.9771 83.1304C61.4375 83.1304 61.8138 82.9976 62.106 82.732C62.3627 82.5018 62.5221 82.1875 62.5841 81.7891ZM65.0372 80.554C65.0372 79.2879 65.4134 78.3317 66.166 77.6854C66.7681 77.163 67.5295 76.9019 68.4503 76.9019C69.5216 76.9019 70.3627 77.2427 70.9736 77.9245C71.5579 78.5619 71.8501 79.4384 71.8501 80.554C71.8501 81.8024 71.4827 82.7542 70.7478 83.4093C70.1457 83.9406 69.3755 84.2062 68.437 84.2062C67.3657 84.2062 66.5202 83.852 65.9004 83.1437C65.3249 82.4974 65.0372 81.6342 65.0372 80.554ZM66.3652 80.554C66.3652 81.4394 66.591 82.1167 67.0425 82.5859C67.4144 82.9755 67.888 83.1703 68.4635 83.1703C69.1364 83.1703 69.6544 82.918 70.0174 82.4133C70.3538 81.9529 70.522 81.3331 70.522 80.554C70.522 79.6509 70.3007 78.9692 69.858 78.5088C69.495 78.1281 69.0257 77.9377 68.4503 77.9377C67.7862 77.9377 67.2683 78.1901 66.8964 78.6947C66.5423 79.1551 66.3652 79.7749 66.3652 80.554ZM74.5829 84.007H73.3079V77.1011H74.3571L74.5032 77.9776C75.0167 77.2604 75.7161 76.9019 76.6015 76.9019C77.4161 76.9019 78.0402 77.1542 78.4741 77.6589C78.8548 78.1104 79.0451 78.7257 79.0451 79.5048V84.007H77.7702V79.5181C77.7702 78.5 77.2788 77.9909 76.2961 77.9909C75.7825 77.9909 75.362 78.1679 75.0344 78.5221C74.7334 78.8408 74.5829 79.2481 74.5829 79.7439V84.007ZM83.9242 82.9844V84.0734C83.5966 84.1619 83.2823 84.2062 82.9813 84.2062C82.3438 84.2062 81.8657 84.007 81.547 83.6085C81.2725 83.281 81.1353 82.8427 81.1353 82.2938V78.1901H80.1127V77.1011H81.1353L81.2149 75.441H82.4102V77.1011H83.8976V78.1901H82.4102V82.3203C82.4102 82.8338 82.6537 83.0906 83.1406 83.0906C83.3708 83.0906 83.632 83.0552 83.9242 82.9844ZM86.212 79.0267H84.8573C84.9282 78.3362 85.2558 77.8005 85.8401 77.4198C86.3625 77.0745 87.0221 76.9019 87.8189 76.9019C88.7663 76.9019 89.4923 77.1498 89.9969 77.6456C90.4219 78.0705 90.6344 78.6195 90.6344 79.2924V84.007H89.5852L89.4259 83.064C88.8858 83.8255 88.1155 84.2062 87.115 84.2062C86.3271 84.2062 85.7117 83.9937 85.269 83.5687C84.906 83.2146 84.7245 82.7674 84.7245 82.2274C84.7245 81.5456 84.9592 81.0188 85.4284 80.647C85.8445 80.3194 86.482 80.0803 87.3408 79.9298L89.3595 79.5845V79.2392C89.3595 78.7877 89.2045 78.4468 88.8946 78.2166C88.6202 78.013 88.2439 77.9112 87.7658 77.9112C86.8273 77.9112 86.3094 78.283 86.212 79.0267ZM87.4205 83.1304C87.9606 83.1304 88.4298 82.9534 88.8282 82.5992C89.1824 82.2716 89.3595 81.8953 89.3595 81.4704V80.5806L87.6463 80.886C87.0177 80.9923 86.5882 81.1561 86.358 81.3774C86.1721 81.5545 86.0792 81.7935 86.0792 82.0946C86.0792 82.431 86.1943 82.6878 86.4245 82.8648C86.6546 83.0419 86.9867 83.1304 87.4205 83.1304ZM96.9268 81.7891H98.3212C98.215 82.5328 97.8653 83.1304 97.2721 83.582C96.732 83.9981 96.0724 84.2062 95.2933 84.2062C94.2751 84.2062 93.465 83.8564 92.8629 83.157C92.3051 82.5107 92.0263 81.6607 92.0263 80.6071C92.0263 79.3853 92.3627 78.438 93.0356 77.7651C93.6111 77.1896 94.3592 76.9019 95.28 76.9019C96.1299 76.9019 96.8294 77.1276 97.3783 77.5792C97.8653 77.9776 98.1619 78.5 98.2681 79.1463H96.8604C96.7718 78.7744 96.5903 78.4867 96.3159 78.283C96.0503 78.0794 95.7138 77.9776 95.3065 77.9776C94.6779 77.9776 94.1954 78.2255 93.859 78.7213C93.5402 79.1817 93.3809 79.8236 93.3809 80.647C93.3809 81.5058 93.5934 82.1565 94.0183 82.5992C94.3548 82.9534 94.7886 83.1304 95.3198 83.1304C95.7802 83.1304 96.1565 82.9976 96.4487 82.732C96.7054 82.5018 96.8648 82.1875 96.9268 81.7891ZM102.859 82.9844V84.0734C102.532 84.1619 102.217 84.2062 101.916 84.2062C101.279 84.2062 100.801 84.007 100.482 83.6085C100.208 83.281 100.07 82.8427 100.07 82.2938V78.1901H99.0478V77.1011H100.07L100.15 75.441H101.345V77.1011H102.833V78.1901H101.345V82.3203C101.345 82.8338 101.589 83.0906 102.076 83.0906C102.306 83.0906 102.567 83.0552 102.859 82.9844ZM109.394 75.9457H107.96V74.445H109.394V75.9457ZM109.315 84.007H108.04V77.1011H109.315V84.007ZM112.453 84.007H111.178V77.1011H112.227L112.374 77.9776C112.887 77.2604 113.586 76.9019 114.472 76.9019C115.286 76.9019 115.911 77.1542 116.344 77.6589C116.725 78.1104 116.915 78.7257 116.915 79.5048V84.007H115.641V79.5181C115.641 78.5 115.149 77.9909 114.166 77.9909C113.653 77.9909 113.232 78.1679 112.905 78.5221C112.604 78.8408 112.453 79.2481 112.453 79.7439V84.007ZM122.127 74.4051V75.5074C121.702 75.4012 121.352 75.348 121.077 75.348C120.847 75.348 120.666 75.41 120.533 75.534C120.409 75.6579 120.347 75.8306 120.347 76.0519V77.1011H121.834V78.1901H120.347V84.007H119.072V78.1901H118.049V77.1011H119.072V76.1316C119.072 75.5207 119.271 75.0426 119.67 74.6973C120.024 74.3963 120.466 74.2457 120.998 74.2457C121.343 74.2457 121.719 74.2989 122.127 74.4051ZM122.595 80.554C122.595 79.2879 122.971 78.3317 123.724 77.6854C124.326 77.163 125.087 76.9019 126.008 76.9019C127.079 76.9019 127.92 77.2427 128.531 77.9245C129.116 78.5619 129.408 79.4384 129.408 80.554C129.408 81.8024 129.04 82.7542 128.306 83.4093C127.703 83.9406 126.933 84.2062 125.995 84.2062C124.923 84.2062 124.078 83.852 123.458 83.1437C122.883 82.4974 122.595 81.6342 122.595 80.554ZM123.923 80.554C123.923 81.4394 124.149 82.1167 124.6 82.5859C124.972 82.9755 125.446 83.1703 126.021 83.1703C126.694 83.1703 127.212 82.918 127.575 82.4133C127.912 81.9529 128.08 81.3331 128.08 80.554C128.08 79.6509 127.858 78.9692 127.416 78.5088C127.053 78.1281 126.583 77.9377 126.008 77.9377C125.344 77.9377 124.826 78.1901 124.454 78.6947C124.1 79.1551 123.923 79.7749 123.923 80.554ZM132.141 84.007H130.866V77.1011H131.915L132.087 78.1237C132.477 77.3091 133.061 76.9019 133.84 76.9019C134.097 76.9019 134.35 76.9328 134.597 76.9948V78.2698C134.296 78.1901 134.026 78.1502 133.787 78.1502C133.274 78.1502 132.871 78.3583 132.579 78.7744C132.287 79.1905 132.141 79.7793 132.141 80.5407V84.007ZM136.874 84.007H135.599V77.1011H136.649L136.781 77.9112C137.251 77.2383 137.928 76.9019 138.813 76.9019C139.778 76.9019 140.456 77.2649 140.845 77.9909C141.306 77.2649 142.054 76.9019 143.09 76.9019C143.86 76.9019 144.453 77.1365 144.869 77.6057C145.241 78.0396 145.427 78.6328 145.427 79.3853V84.007H144.152V79.4783C144.152 78.4867 143.705 77.9909 142.811 77.9909C142.28 77.9909 141.855 78.1989 141.536 78.6151C141.279 78.9515 141.151 79.3455 141.151 79.797V84.007H139.876V79.4783C139.876 78.4867 139.429 77.9909 138.534 77.9909C138.039 77.9909 137.627 78.1856 137.299 78.5752C137.016 78.9028 136.874 79.2968 136.874 79.7572V84.007ZM148.309 79.0267H146.954C147.025 78.3362 147.353 77.8005 147.937 77.4198C148.459 77.0745 149.119 76.9019 149.916 76.9019C150.863 76.9019 151.589 77.1498 152.094 77.6456C152.519 78.0705 152.731 78.6195 152.731 79.2924V84.007H151.682L151.523 83.064C150.983 83.8255 150.212 84.2062 149.212 84.2062C148.424 84.2062 147.809 83.9937 147.366 83.5687C147.003 83.2146 146.822 82.7674 146.822 82.2274C146.822 81.5456 147.056 81.0188 147.525 80.647C147.942 80.3194 148.579 80.0803 149.438 79.9298L151.456 79.5845V79.2392C151.456 78.7877 151.301 78.4468 150.992 78.2166C150.717 78.013 150.341 77.9112 149.863 77.9112C148.924 77.9112 148.406 78.283 148.309 79.0267ZM149.517 83.1304C150.058 83.1304 150.527 82.9534 150.925 82.5992C151.279 82.2716 151.456 81.8953 151.456 81.4704V80.5806L149.743 80.886C149.115 80.9923 148.685 81.1561 148.455 81.3774C148.269 81.5545 148.176 81.7935 148.176 82.0946C148.176 82.431 148.291 82.6878 148.521 82.8648C148.752 83.0419 149.084 83.1304 149.517 83.1304ZM157.603 82.9844V84.0734C157.275 84.1619 156.961 84.2062 156.66 84.2062C156.022 84.2062 155.544 84.007 155.226 83.6085C154.951 83.281 154.814 82.8427 154.814 82.2938V78.1901H153.791V77.1011H154.814L154.893 75.441H156.089V77.1011H157.576V78.1901H156.089V82.3203C156.089 82.8338 156.332 83.0906 156.819 83.0906C157.049 83.0906 157.311 83.0552 157.603 82.9844ZM160.156 75.9457H158.722V74.445H160.156V75.9457ZM160.076 84.007H158.802V77.1011H160.076V84.007ZM161.542 80.554C161.542 79.2879 161.918 78.3317 162.671 77.6854C163.273 77.163 164.034 76.9019 164.955 76.9019C166.026 76.9019 166.867 77.2427 167.478 77.9245C168.062 78.5619 168.355 79.4384 168.355 80.554C168.355 81.8024 167.987 82.7542 167.252 83.4093C166.65 83.9406 165.88 84.2062 164.941 84.2062C163.87 84.2062 163.025 83.852 162.405 83.1437C161.829 82.4974 161.542 81.6342 161.542 80.554ZM162.87 80.554C162.87 81.4394 163.095 82.1167 163.547 82.5859C163.919 82.9755 164.393 83.1703 164.968 83.1703C165.641 83.1703 166.159 82.918 166.522 82.4133C166.858 81.9529 167.027 81.3331 167.027 80.554C167.027 79.6509 166.805 78.9692 166.363 78.5088C165.999 78.1281 165.53 77.9377 164.955 77.9377C164.291 77.9377 163.773 78.1901 163.401 78.6947C163.047 79.1551 162.87 79.7749 162.87 80.554ZM171.087 84.007H169.812V77.1011H170.862L171.008 77.9776C171.521 77.2604 172.221 76.9019 173.106 76.9019C173.921 76.9019 174.545 77.1542 174.979 77.6589C175.359 78.1104 175.55 78.7257 175.55 79.5048V84.007H174.275V79.5181C174.275 78.5 173.783 77.9909 172.801 77.9909C172.287 77.9909 171.866 78.1679 171.539 78.5221C171.238 78.8408 171.087 79.2481 171.087 79.7439V84.007ZM182.684 75.9457H181.249V74.445H182.684V75.9457ZM182.604 84.007H181.329V77.1011H182.604V84.007ZM188.505 82.1344C188.505 81.7448 188.301 81.4527 187.894 81.2579C187.655 81.1516 187.19 81.0188 186.5 80.8595C185.65 80.6735 185.043 80.4035 184.68 80.0494C184.379 79.7483 184.229 79.3543 184.229 78.8674C184.229 78.2211 184.49 77.7253 185.012 77.38C185.481 77.0612 186.115 76.9019 186.911 76.9019C187.735 76.9019 188.403 77.1055 188.917 77.5128C189.359 77.8669 189.634 78.3362 189.74 78.9205H188.439C188.288 78.2476 187.775 77.9112 186.898 77.9112C186.411 77.9112 186.048 77.9997 185.809 78.1768C185.614 78.3273 185.517 78.5177 185.517 78.7479C185.517 79.0312 185.623 79.2437 185.836 79.3853C186.057 79.527 186.486 79.6686 187.124 79.8103C188.098 80.0228 188.775 80.284 189.156 80.5939C189.581 80.9391 189.793 81.4217 189.793 82.0414C189.793 82.732 189.51 83.2765 188.943 83.6749C188.43 84.0291 187.752 84.2062 186.911 84.2062C185.991 84.2062 185.26 83.9848 184.72 83.5421C184.251 83.1526 183.99 82.6479 183.937 82.0282H185.238C185.38 82.8073 185.942 83.1968 186.925 83.1968C187.456 83.1968 187.868 83.0817 188.16 82.8515C188.39 82.6656 188.505 82.4266 188.505 82.1344ZM195.166 77.1011H196.441V81.6297C196.441 82.6214 196.919 83.1172 197.875 83.1172C198.459 83.1172 198.907 82.9091 199.216 82.493C199.455 82.1742 199.575 81.7803 199.575 81.311V77.1011H200.85V84.007H199.801L199.655 83.2101C199.168 83.8742 198.477 84.2062 197.583 84.2062C196.795 84.2062 196.188 83.9627 195.763 83.4757C195.365 83.0242 195.166 82.4 195.166 81.6032V77.1011ZM202.716 77.1011H203.765L203.964 78.0041C204.531 77.2693 205.31 76.9019 206.301 76.9019C207.293 76.9019 208.063 77.256 208.612 77.9643C209.099 78.6018 209.343 79.4473 209.343 80.5009C209.343 81.7493 209.011 82.7055 208.346 83.3695C207.789 83.9273 207.076 84.2062 206.208 84.2062C205.226 84.2062 204.486 83.8432 203.99 83.1172V86.3975H202.716V77.1011ZM208.014 80.4743C208.014 79.6067 207.798 78.9559 207.364 78.5221C207.018 78.1679 206.567 77.9909 206.009 77.9909C205.363 77.9909 204.849 78.2255 204.469 78.6947C204.106 79.1463 203.924 79.7395 203.924 80.4743C203.924 81.3597 204.141 82.037 204.575 82.5063C204.938 82.9135 205.416 83.1172 206.009 83.1172C206.673 83.1172 207.178 82.8737 207.523 82.3867C207.851 81.9352 208.014 81.2977 208.014 80.4743ZM217.871 82.9844V84.0734C217.543 84.1619 217.229 84.2062 216.928 84.2062C216.291 84.2062 215.813 84.007 215.494 83.6085C215.219 83.281 215.082 82.8427 215.082 82.2938V78.1901H214.06V77.1011H215.082L215.162 75.441H216.357V77.1011H217.844V78.1901H216.357V82.3203C216.357 82.8338 216.601 83.0906 217.087 83.0906C217.318 83.0906 217.579 83.0552 217.871 82.9844ZM218.607 80.554C218.607 79.2879 218.983 78.3317 219.735 77.6854C220.337 77.163 221.099 76.9019 222.02 76.9019C223.091 76.9019 223.932 77.2427 224.543 77.9245C225.127 78.5619 225.419 79.4384 225.419 80.554C225.419 81.8024 225.052 82.7542 224.317 83.4093C223.715 83.9406 222.945 84.2062 222.006 84.2062C220.935 84.2062 220.09 83.852 219.47 83.1437C218.894 82.4974 218.607 81.6342 218.607 80.554ZM219.935 80.554C219.935 81.4394 220.16 82.1167 220.612 82.5859C220.984 82.9755 221.457 83.1703 222.033 83.1703C222.706 83.1703 223.224 82.918 223.587 82.4133C223.923 81.9529 224.091 81.3331 224.091 80.554C224.091 79.6509 223.87 78.9692 223.427 78.5088C223.064 78.1281 222.595 77.9377 222.02 77.9377C221.356 77.9377 220.838 78.1901 220.466 78.6947C220.112 79.1551 219.935 79.7749 219.935 80.554ZM237.087 84.007H236.038L235.813 83.0375C235.281 83.8166 234.515 84.2062 233.515 84.2062C232.55 84.2062 231.789 83.8564 231.231 83.157C230.717 82.5107 230.46 81.6563 230.46 80.5939C230.46 79.3101 230.788 78.345 231.443 77.6987C231.992 77.1675 232.709 76.9019 233.595 76.9019C234.551 76.9019 235.29 77.2604 235.813 77.9776V74.445H237.087V84.007ZM231.789 80.6204C231.789 81.4792 232.001 82.13 232.426 82.5727C232.78 82.9357 233.236 83.1172 233.794 83.1172C234.484 83.1172 235.02 82.856 235.401 82.3336C235.72 81.8821 235.879 81.3154 235.879 80.6337C235.879 79.7395 235.666 79.0577 235.241 78.5885C234.878 78.1901 234.396 77.9909 233.794 77.9909C233.121 77.9909 232.612 78.2343 232.267 78.7213C231.948 79.164 231.789 79.797 231.789 80.6204ZM240.041 79.0267H238.686C238.757 78.3362 239.085 77.8005 239.669 77.4198C240.191 77.0745 240.851 76.9019 241.648 76.9019C242.595 76.9019 243.321 77.1498 243.826 77.6456C244.251 78.0705 244.463 78.6195 244.463 79.2924V84.007H243.414L243.255 83.064C242.715 83.8255 241.944 84.2062 240.944 84.2062C240.156 84.2062 239.541 83.9937 239.098 83.5687C238.735 83.2146 238.553 82.7674 238.553 82.2274C238.553 81.5456 238.788 81.0188 239.257 80.647C239.673 80.3194 240.311 80.0803 241.17 79.9298L243.188 79.5845V79.2392C243.188 78.7877 243.033 78.4468 242.723 78.2166C242.449 78.013 242.073 77.9112 241.595 77.9112C240.656 77.9112 240.138 78.283 240.041 79.0267ZM241.249 83.1304C241.789 83.1304 242.259 82.9534 242.657 82.5992C243.011 82.2716 243.188 81.8953 243.188 81.4704V80.5806L241.475 80.886C240.846 80.9923 240.417 81.1561 240.187 81.3774C240.001 81.5545 239.908 81.7935 239.908 82.0946C239.908 82.431 240.023 82.6878 240.253 82.8648C240.483 83.0419 240.815 83.1304 241.249 83.1304ZM249.335 82.9844V84.0734C249.007 84.1619 248.693 84.2062 248.392 84.2062C247.754 84.2062 247.276 84.007 246.957 83.6085C246.683 83.281 246.546 82.8427 246.546 82.2938V78.1901H245.523V77.1011H246.546L246.625 75.441H247.821V77.1011H249.308V78.1901H247.821V82.3203C247.821 82.8338 248.064 83.0906 248.551 83.0906C248.781 83.0906 249.042 83.0552 249.335 82.9844ZM255.17 82.0149H256.551C256.356 82.7143 255.971 83.2632 255.396 83.6617C254.855 84.0247 254.209 84.2062 253.457 84.2062C252.368 84.2062 251.518 83.8609 250.907 83.1703C250.349 82.524 250.07 81.6519 250.07 80.554C250.07 79.3056 250.424 78.3583 251.133 77.712C251.717 77.1719 252.469 76.9019 253.39 76.9019C254.47 76.9019 255.285 77.2516 255.834 77.951C256.365 78.6239 256.631 79.5845 256.631 80.8329H251.372C251.425 81.6474 251.673 82.2539 252.115 82.6523C252.478 82.9711 252.939 83.1304 253.496 83.1304C253.93 83.1304 254.307 83.0109 254.625 82.7719C254.891 82.5682 255.072 82.3159 255.17 82.0149ZM253.417 77.9245C252.85 77.9245 252.394 78.1015 252.049 78.4557C251.721 78.7833 251.513 79.2392 251.425 79.8236H255.329C255.285 79.1596 255.064 78.6637 254.665 78.3362C254.346 78.0617 253.93 77.9245 253.417 77.9245ZM259.992 84.007H258.451V82.4664H259.992V84.007Z" fill="white" fill-opacity="0.7"/>
<rect x="0.708681" y="1.07431" width="329.168" height="111.225" rx="10.909" stroke="white" stroke-opacity="0.2" stroke-width="0.948611"/>
</svg>
