<svg width="286" height="261" viewBox="0 0 286 261" fill="none" xmlns="http://www.w3.org/2000/svg">
<g clip-path="url(#clip0_9738_419806)">
<rect width="284.583" height="260" transform="translate(0.560547 0.844421)" fill="#1A1A1A"/>
<path d="M265.041 164.681H326.867V153.109H251.158V164.681H255.104" fill="#EBEBEB"/>
<path d="M284.402 158.659C284.402 159.364 284.192 160.053 283.801 160.639C283.409 161.225 282.853 161.682 282.201 161.952C281.55 162.222 280.834 162.292 280.142 162.155C279.451 162.017 278.816 161.678 278.317 161.179C277.819 160.681 277.479 160.046 277.342 159.355C277.204 158.663 277.275 157.947 277.545 157.295C277.814 156.644 278.271 156.088 278.857 155.696C279.444 155.304 280.133 155.095 280.837 155.095C281.782 155.097 282.687 155.473 283.355 156.141C284.023 156.809 284.399 157.715 284.402 158.659Z" fill="#E0E0E0"/>
<path d="M279.709 158.976C279.637 158.977 279.567 158.957 279.508 158.919C279.448 158.881 279.401 158.825 279.372 158.76C279.344 158.695 279.336 158.623 279.349 158.553C279.362 158.483 279.395 158.418 279.445 158.367C279.495 158.317 279.558 158.282 279.628 158.267C279.698 158.253 279.77 158.259 279.836 158.286C279.902 158.313 279.958 158.359 279.998 158.418C280.037 158.477 280.059 158.547 280.059 158.618C280.059 158.711 280.022 158.801 279.957 158.868C279.891 158.935 279.802 158.974 279.709 158.976Z" fill="white"/>
<path d="M280.799 158.976C280.728 158.977 280.658 158.958 280.598 158.919C280.538 158.881 280.491 158.826 280.463 158.76C280.435 158.695 280.427 158.623 280.44 158.553C280.452 158.483 280.486 158.418 280.536 158.368C280.585 158.317 280.649 158.282 280.719 158.267C280.788 158.253 280.861 158.26 280.927 158.286C280.993 158.313 281.049 158.359 281.089 158.418C281.128 158.477 281.15 158.547 281.15 158.618C281.15 158.711 281.113 158.801 281.047 158.868C280.982 158.935 280.893 158.974 280.799 158.976Z" fill="white"/>
<path d="M281.966 158.976C281.896 158.976 281.826 158.955 281.767 158.916C281.709 158.876 281.663 158.82 281.636 158.755C281.609 158.689 281.601 158.617 281.615 158.548C281.629 158.479 281.663 158.415 281.713 158.365C281.763 158.315 281.827 158.281 281.897 158.267C281.966 158.253 282.038 158.26 282.103 158.287C282.169 158.314 282.225 158.36 282.264 158.419C282.303 158.478 282.324 158.547 282.324 158.618C282.324 158.665 282.315 158.711 282.297 158.755C282.279 158.798 282.253 158.838 282.219 158.871C282.186 158.904 282.147 158.931 282.103 158.949C282.06 158.967 282.013 158.976 281.966 158.976Z" fill="white"/>
<path d="M308.664 142.551C308.664 142.66 300.929 142.753 291.389 142.753C281.848 142.753 274.113 142.66 274.113 142.551C274.113 142.442 281.841 142.348 291.389 142.348C300.937 142.348 308.664 142.434 308.664 142.551Z" fill="#E0E0E0"/>
<path d="M278.97 259.285C278.97 259.593 278.879 259.894 278.708 260.15C278.537 260.406 278.294 260.605 278.009 260.723C277.725 260.841 277.412 260.872 277.11 260.811C276.808 260.751 276.531 260.603 276.313 260.386C276.096 260.168 275.947 259.891 275.887 259.589C275.827 259.287 275.858 258.974 275.976 258.689C276.094 258.405 276.293 258.162 276.549 257.991C276.805 257.82 277.106 257.729 277.414 257.729C277.827 257.729 278.222 257.893 278.514 258.185C278.806 258.476 278.97 258.872 278.97 259.285Z" fill="#E0E0E0"/>
<path d="M218.398 259.285C218.398 259.593 218.307 259.894 218.136 260.15C217.965 260.406 217.721 260.605 217.437 260.723C217.153 260.841 216.84 260.872 216.538 260.811C216.236 260.751 215.959 260.603 215.741 260.386C215.523 260.168 215.375 259.891 215.315 259.589C215.255 259.287 215.286 258.974 215.404 258.689C215.521 258.405 215.721 258.162 215.977 257.991C216.233 257.82 216.534 257.729 216.841 257.729C217.254 257.729 217.65 257.893 217.942 258.185C218.234 258.476 218.398 258.872 218.398 259.285Z" fill="#E0E0E0"/>
<path d="M271.723 229.378L271.684 221.876L234.853 222.069L234.893 229.57L271.723 229.378Z" fill="#E0E0E0"/>
<path d="M276.142 248.286L276.081 236.637L235.033 236.852L235.094 248.501L276.142 248.286Z" fill="#F5F5F5"/>
<path d="M268.255 248.218C268.055 246.282 267.987 244.334 268.053 242.389C267.987 240.447 268.055 238.502 268.255 236.568C268.455 238.502 268.523 240.447 268.457 242.389C268.523 244.334 268.455 246.282 268.255 248.218Z" fill="#E0E0E0"/>
<path d="M269.982 248.218C269.777 246.282 269.71 244.334 269.78 242.389C269.71 240.447 269.777 238.501 269.982 236.568C270.177 238.502 270.242 240.447 270.177 242.389C270.242 244.334 270.177 246.281 269.982 248.218Z" fill="#E0E0E0"/>
<path d="M241.291 248.218C241.086 246.282 241.018 244.334 241.088 242.389C241.018 240.447 241.086 238.501 241.291 236.568C241.486 238.502 241.551 240.447 241.485 242.389C241.551 244.334 241.486 246.281 241.291 248.218Z" fill="#E0E0E0"/>
<path d="M243.01 248.218C242.815 246.281 242.75 244.334 242.816 242.389C242.75 240.447 242.815 238.502 243.01 236.568C243.211 238.502 243.278 240.447 243.213 242.389C243.278 244.334 243.211 246.282 243.01 248.218Z" fill="#E0E0E0"/>
<path d="M246.776 242.583C246.776 242.466 250.916 242.38 256.021 242.38C261.126 242.38 265.274 242.466 265.274 242.583C265.274 242.7 261.134 242.777 256.021 242.777C250.908 242.777 246.776 242.7 246.776 242.583Z" fill="#E0E0E0"/>
<path d="M291.556 236.572L291.517 229.07L240.858 229.335L240.898 236.837L291.556 236.572Z" fill="#EBEBEB"/>
<path d="M284.323 235.649C283.841 235.655 283.369 235.518 282.965 235.254C282.562 234.991 282.246 234.614 282.057 234.17C281.869 233.727 281.817 233.237 281.908 232.764C281.998 232.291 282.228 231.855 282.567 231.513C282.906 231.17 283.339 230.937 283.812 230.841C284.284 230.746 284.774 230.793 285.219 230.977C285.665 231.161 286.045 231.474 286.312 231.875C286.58 232.276 286.722 232.747 286.72 233.229C286.722 233.545 286.662 233.859 286.542 234.152C286.423 234.445 286.247 234.712 286.024 234.936C285.801 235.161 285.537 235.34 285.245 235.462C284.953 235.584 284.64 235.648 284.323 235.649Z" fill="#E0E0E0"/>
<path d="M277.74 233.978V232.476H243.828V233.978H277.74Z" fill="#E0E0E0"/>
<path d="M-5.04697 208.827C-6.5577 208.827 -8.00653 208.227 -9.07478 207.159C-10.143 206.09 -10.7432 204.641 -10.7432 203.131C-10.7432 201.62 -10.143 200.171 -9.07478 199.103C-8.00653 198.035 -6.5577 197.434 -5.04697 197.434C-3.53624 197.434 -2.08738 198.035 -1.01914 199.103C0.0491123 200.171 0.64925 201.62 0.64925 203.131C0.64925 204.641 0.0491123 206.09 -1.01914 207.159C-2.08738 208.227 -3.53624 208.827 -5.04697 208.827Z" fill="#F5F5F5"/>
<path d="M160.836 136.247V176.44L147.078 191.279H160.836V262.926H292.635V136.247H160.836Z" fill="#263238"/>
<path d="M292.682 136.388H160.883V145.874H292.682V136.388Z" fill="#455A64"/>
<path d="M160.922 242.934V263.066H167.793H185.084H292.682V242.934H160.922Z" fill="#455A64"/>
<path d="M179.528 141.477C179.528 141.828 179.424 142.171 179.229 142.462C179.034 142.754 178.757 142.982 178.433 143.116C178.108 143.25 177.752 143.285 177.408 143.217C177.063 143.148 176.747 142.979 176.499 142.731C176.251 142.483 176.082 142.167 176.014 141.823C175.945 141.479 175.98 141.122 176.115 140.798C176.249 140.474 176.476 140.197 176.768 140.002C177.06 139.807 177.403 139.703 177.754 139.703C178.224 139.703 178.676 139.889 179.008 140.222C179.341 140.555 179.528 141.006 179.528 141.477Z" fill="#263238"/>
<path d="M168.782 141.477C168.782 141.828 168.678 142.171 168.483 142.462C168.288 142.754 168.011 142.982 167.687 143.116C167.362 143.25 167.006 143.285 166.661 143.217C166.317 143.148 166.001 142.979 165.753 142.731C165.505 142.483 165.336 142.167 165.267 141.823C165.199 141.479 165.234 141.122 165.368 140.798C165.503 140.474 165.73 140.197 166.022 140.002C166.314 139.807 166.657 139.703 167.008 139.703C167.478 139.703 167.929 139.889 168.262 140.222C168.595 140.555 168.782 141.006 168.782 141.477Z" fill="#263238"/>
<path d="M174.151 141.477C174.151 141.828 174.047 142.171 173.852 142.462C173.657 142.754 173.38 142.982 173.056 143.116C172.732 143.25 172.375 143.285 172.031 143.217C171.686 143.148 171.37 142.979 171.122 142.731C170.874 142.483 170.705 142.167 170.637 141.823C170.568 141.479 170.603 141.122 170.738 140.798C170.872 140.474 171.099 140.197 171.391 140.002C171.683 139.807 172.026 139.703 172.377 139.703C172.847 139.703 173.299 139.889 173.631 140.222C173.964 140.555 174.151 141.006 174.151 141.477Z" fill="#263238"/>
<path d="M279.873 167.998C278.776 167.999 277.69 167.784 276.677 167.365C275.663 166.945 274.742 166.33 273.967 165.555C273.191 164.779 272.576 163.858 272.157 162.845C271.738 161.831 271.522 160.745 271.523 159.648C271.526 157.435 272.406 155.313 273.972 153.749C275.537 152.185 277.66 151.306 279.873 151.306C282.09 151.306 284.216 152.187 285.783 153.754C287.35 155.322 288.231 157.447 288.231 159.664C288.227 161.877 287.344 163.998 285.777 165.561C284.21 167.124 282.086 168 279.873 167.998Z" fill="#455A64"/>
<path d="M279.584 159.717C279.891 159.624 280.155 159.423 280.326 159.152C280.498 158.881 280.566 158.557 280.519 158.24C280.472 157.922 280.312 157.633 280.069 157.423C279.826 157.213 279.516 157.098 279.195 157.098C278.874 157.098 278.564 157.213 278.321 157.423C278.078 157.633 277.918 157.922 277.871 158.24C277.824 158.557 277.892 158.881 278.064 159.152C278.236 159.423 278.499 159.624 278.806 159.717C278.256 159.81 277.758 160.096 277.401 160.525C277.045 160.953 276.853 161.494 276.861 162.052H281.53C281.537 161.494 281.346 160.953 280.989 160.525C280.632 160.096 280.134 159.81 279.584 159.717Z" fill="#263238"/>
<path d="M282.207 160.114C282.157 160.114 282.109 160.094 282.072 160.06C282.036 160.025 282.015 159.977 282.013 159.927V157.787C282.007 157.759 282.008 157.73 282.014 157.702C282.021 157.674 282.034 157.648 282.053 157.625C282.071 157.603 282.094 157.585 282.12 157.573C282.146 157.56 282.174 157.554 282.203 157.554C282.232 157.554 282.261 157.56 282.287 157.573C282.313 157.585 282.336 157.603 282.354 157.625C282.372 157.648 282.385 157.674 282.392 157.702C282.399 157.73 282.4 157.759 282.394 157.787V159.927C282.394 159.977 282.374 160.024 282.339 160.059C282.304 160.094 282.257 160.114 282.207 160.114Z" fill="#263238"/>
<path d="M283.258 159.049H281.118C281.074 159.04 281.034 159.016 281.006 158.981C280.977 158.947 280.962 158.903 280.962 158.858C280.962 158.813 280.977 158.77 281.006 158.735C281.034 158.7 281.074 158.676 281.118 158.668H283.258C283.286 158.662 283.315 158.662 283.343 158.669C283.371 158.676 283.397 158.689 283.42 158.708C283.442 158.726 283.46 158.749 283.472 158.775C283.485 158.801 283.491 158.829 283.491 158.858C283.491 158.887 283.485 158.916 283.472 158.942C283.46 158.968 283.442 158.991 283.42 159.009C283.397 159.027 283.371 159.04 283.343 159.047C283.315 159.054 283.286 159.055 283.258 159.049Z" fill="#263238"/>
<path d="M176.306 160.215C176.306 161.009 176.071 161.785 175.629 162.446C175.188 163.106 174.561 163.621 173.827 163.925C173.094 164.228 172.286 164.308 171.507 164.153C170.729 163.998 170.013 163.616 169.451 163.054C168.89 162.493 168.507 161.777 168.353 160.998C168.198 160.219 168.277 159.412 168.581 158.678C168.885 157.945 169.4 157.317 170.06 156.876C170.72 156.435 171.497 156.199 172.291 156.199C173.356 156.199 174.377 156.623 175.13 157.376C175.883 158.129 176.306 159.15 176.306 160.215Z" fill="#455A64"/>
<path d="M200.609 160.939C200.609 161.048 195.605 161.142 189.426 161.142C183.248 161.142 178.244 161.048 178.244 160.939C178.244 160.83 183.248 160.737 189.426 160.737C195.605 160.737 200.609 160.822 200.609 160.939Z" fill="#455A64"/>
<path d="M160.883 136.387H163.28H170.283L197.005 136.34L292.658 136.255H292.83V136.426C292.83 173.28 292.83 216.679 292.83 263.104V263.307H283.118H160.883H160.813L160.766 263.252L160.712 263.198V263.128C160.712 236.055 160.712 211.893 160.751 191.481L160.891 191.621H147.133H146.806L147.008 191.411L160.813 176.509V176.579C160.813 163.685 160.859 153.631 160.875 146.791C160.875 143.383 160.875 140.784 160.875 139.009C160.875 138.138 160.875 137.453 160.875 137.033C160.875 136.613 160.875 136.371 160.875 136.371C160.875 136.371 160.875 136.605 160.875 137.056C160.875 137.507 160.875 138.169 160.875 139.048C160.875 140.815 160.875 143.422 160.875 146.83C160.875 153.654 160.875 163.693 160.937 176.556V176.595L147.195 191.45L147.101 191.232H161V191.372C161 211.784 161 235.946 161.038 263.019L160.984 262.886L160.859 262.84H283.095H292.658L292.456 263.042C292.456 216.616 292.456 173.218 292.456 136.364L292.635 136.535L197.091 136.449L170.33 136.402H163.272H161.459L160.883 136.387Z" fill="#263238"/>
<path d="M253.104 201.529C253.104 201.638 249.485 201.887 245.003 202.089C240.521 202.292 236.895 202.346 236.887 202.237C236.879 202.128 240.505 201.879 244.987 201.685C247.689 201.497 250.397 201.445 253.104 201.529Z" fill="white"/>
<path d="M213.519 172.666C214.227 168.775 215.161 164.767 217.565 161.624C219.97 158.48 224.203 156.402 227.954 157.67L232.576 160.355C231.623 171.12 229.435 181.739 226.055 192.003C225.8 193.037 225.307 193.996 224.616 194.805C223.114 196.322 220.67 196.182 218.554 195.941C215.993 195.645 213.005 195.054 211.908 192.719C211.472 191.553 211.335 190.295 211.511 189.062C211.86 183.562 212.531 178.087 213.519 172.666Z" fill="#E0E0E0"/>
<path d="M239.533 165.732L225.284 160.993C220.677 160.161 217.168 165.662 216.538 170.331C215.829 175.491 215.176 181.817 215.503 185.731C216.172 193.591 222.055 195.015 222.055 195.015C221.592 196.953 221.437 198.951 221.596 200.937C221.969 206.291 225.416 207.676 228.249 207.87C232.708 208.345 237.369 206.929 237.883 202.47L241.774 168.705C241.841 168.019 241.649 167.332 241.233 166.781C240.818 166.23 240.211 165.856 239.533 165.732Z" fill="#FFBE9D"/>
<path d="M218.546 174.853C218.524 175.113 218.604 175.372 218.77 175.574C218.935 175.776 219.173 175.905 219.433 175.935C219.559 175.954 219.688 175.948 219.812 175.917C219.937 175.886 220.053 175.831 220.156 175.754C220.258 175.677 220.344 175.58 220.408 175.47C220.472 175.359 220.514 175.237 220.53 175.11C220.552 174.849 220.471 174.591 220.306 174.389C220.14 174.187 219.902 174.057 219.643 174.028C219.516 174.009 219.388 174.016 219.264 174.047C219.14 174.079 219.024 174.135 218.922 174.211C218.82 174.288 218.734 174.384 218.669 174.494C218.605 174.604 218.563 174.726 218.546 174.853Z" fill="#263238"/>
<path d="M218.07 174.369C218.187 174.509 218.98 174.004 220.054 174.089C221.128 174.175 221.875 174.758 222 174.642C222.124 174.525 221.953 174.338 221.626 174.066C221.182 173.708 220.639 173.496 220.07 173.459C219.523 173.427 218.98 173.563 218.513 173.848C218.14 174.081 218.015 174.307 218.07 174.369Z" fill="#263238"/>
<path d="M228.281 176.183C228.257 176.444 228.336 176.703 228.502 176.906C228.668 177.108 228.907 177.237 229.168 177.265C229.294 177.283 229.422 177.277 229.545 177.245C229.668 177.213 229.784 177.158 229.886 177.081C229.987 177.004 230.072 176.908 230.136 176.798C230.2 176.688 230.241 176.566 230.257 176.44C230.279 176.179 230.199 175.921 230.033 175.719C229.867 175.517 229.629 175.387 229.37 175.358C229.244 175.339 229.116 175.346 228.993 175.378C228.869 175.409 228.754 175.465 228.652 175.542C228.551 175.619 228.466 175.715 228.402 175.825C228.338 175.935 228.297 176.057 228.281 176.183Z" fill="#263238"/>
<path d="M228.794 175.453C228.911 175.593 229.705 175.087 230.779 175.172C231.853 175.258 232.6 175.849 232.724 175.725C232.849 175.6 232.678 175.429 232.351 175.149C231.906 174.794 231.362 174.585 230.794 174.55C230.247 174.512 229.703 174.648 229.238 174.939C228.864 175.165 228.74 175.39 228.794 175.453Z" fill="#263238"/>
<path d="M224.171 182.393C223.619 182.173 223.041 182.024 222.452 181.949C222.179 181.903 221.922 181.825 221.891 181.638C221.895 181.361 221.979 181.091 222.133 180.86L223.098 178.837C224.436 175.942 225.432 173.561 225.315 173.506C224.301 175.146 223.416 176.864 222.67 178.642C222.35 179.358 222.039 180.035 221.744 180.689C221.547 181.004 221.47 181.379 221.526 181.747C221.558 181.847 221.613 181.938 221.686 182.013C221.758 182.089 221.847 182.147 221.946 182.183C222.094 182.235 222.248 182.269 222.405 182.284C222.988 182.387 223.58 182.424 224.171 182.393Z" fill="#263238"/>
<path d="M222.055 195C225.855 195.356 229.681 194.67 233.121 193.016C233.121 193.016 229.65 198.261 221.923 196.969L222.055 195Z" fill="#EB996E"/>
<path d="M228.273 172.153C228.359 172.448 229.44 172.394 230.685 172.635C231.93 172.876 232.926 173.296 233.113 173.047C233.199 172.923 233.043 172.635 232.654 172.324C232.135 171.929 231.529 171.662 230.888 171.546C230.249 171.419 229.59 171.448 228.966 171.631C228.514 171.795 228.242 172.012 228.273 172.153Z" fill="#E0E0E0"/>
<path d="M218.008 171.171C218.226 171.428 219.16 171.241 220.265 171.311C221.37 171.381 222.288 171.623 222.522 171.389C222.623 171.272 222.522 171.016 222.102 170.751C221.557 170.424 220.939 170.242 220.304 170.222C219.671 170.18 219.038 170.303 218.468 170.58C218.063 170.806 217.915 171.047 218.008 171.171Z" fill="#E0E0E0"/>
<path d="M223.845 162.923C224.455 163.899 225.199 164.785 226.055 165.554L229.946 169.445C230.857 170.38 231.823 171.258 232.841 172.075C233.777 172.759 234.748 173.393 235.751 173.974C236.786 174.604 237.308 176.215 238.35 176.837C238.584 176.977 239.339 176.892 239.588 177.071C239.533 178.814 239.51 184.354 239.494 186.557C239.494 190.035 238.218 199.311 238.218 199.311H241.183C243.518 198.961 245.953 196.284 246.436 193.988C246.895 191.84 246.786 188.852 246.926 187.093C247.284 182.572 246.405 177.997 246.109 173.475C246.082 171.641 245.783 169.821 245.222 168.075C244.183 165.686 242.522 163.619 240.413 162.091C238.139 160.15 235.454 158.751 232.561 157.998C231.117 157.635 229.615 157.566 228.145 157.796C226.674 158.026 225.265 158.55 224.001 159.336C223.589 159.554 223.277 159.922 223.129 160.363C222.771 161.422 223.285 161.92 223.845 162.923ZM239.681 177.11C239.681 177.888 239.79 177.32 239.681 177.11V177.11Z" fill="#E0E0E0"/>
<path d="M239.168 179.203C239.209 178.821 239.346 178.456 239.567 178.142C239.787 177.827 240.084 177.574 240.429 177.405C240.774 177.237 241.157 177.158 241.54 177.177C241.924 177.197 242.296 177.313 242.623 177.515C243.401 178.021 243.915 178.978 243.72 180.729C243.191 185.398 238.615 183.911 238.623 183.779C238.631 183.647 238.934 181.133 239.168 179.203Z" fill="#FFBE9D"/>
<path d="M240.249 182.168C240.249 182.168 240.319 182.23 240.451 182.308C240.541 182.362 240.641 182.398 240.746 182.413C240.85 182.428 240.956 182.421 241.058 182.393C241.381 182.235 241.657 181.994 241.857 181.695C242.056 181.396 242.173 181.048 242.194 180.689C242.249 180.29 242.214 179.883 242.093 179.499C242.067 179.348 242.004 179.206 241.911 179.085C241.817 178.965 241.695 178.869 241.556 178.806C241.465 178.771 241.365 178.77 241.272 178.801C241.18 178.832 241.102 178.894 241.05 178.977C240.972 179.102 240.988 179.195 240.965 179.203C240.941 179.211 240.871 179.109 240.965 178.923C241.002 178.809 241.079 178.712 241.183 178.65C241.251 178.609 241.326 178.581 241.405 178.569C241.484 178.557 241.564 178.561 241.642 178.58C241.831 178.64 242.002 178.748 242.138 178.892C242.274 179.036 242.371 179.213 242.42 179.405C242.572 179.831 242.617 180.288 242.552 180.736C242.53 181.154 242.384 181.556 242.133 181.891C241.883 182.226 241.538 182.48 241.144 182.619C241.014 182.643 240.88 182.636 240.753 182.6C240.626 182.563 240.51 182.498 240.412 182.409C240.241 182.284 240.225 182.175 240.249 182.168Z" fill="#EB996E"/>
<path d="M241.688 184.338C241.677 184.522 241.611 184.697 241.5 184.843C241.388 184.989 241.236 185.099 241.062 185.158C240.888 185.217 240.701 185.223 240.524 185.176C240.346 185.128 240.187 185.029 240.066 184.89C239.946 184.752 239.869 184.581 239.845 184.399C239.822 184.217 239.853 184.032 239.936 183.867C240.018 183.703 240.147 183.567 240.306 183.476C240.466 183.386 240.649 183.344 240.832 183.358C240.953 183.366 241.071 183.397 241.179 183.451C241.288 183.505 241.384 183.579 241.464 183.67C241.543 183.761 241.604 183.867 241.643 183.982C241.681 184.097 241.697 184.218 241.688 184.338Z" fill="#263238"/>
<path d="M226.957 184.563C227.145 184.852 227.261 185.181 227.294 185.523C227.328 185.865 227.278 186.211 227.15 186.53C227.022 186.849 226.819 187.133 226.557 187.357C226.296 187.58 225.985 187.738 225.65 187.816C225.393 187.884 225.121 187.87 224.872 187.777C224.67 187.644 224.497 187.471 224.363 187.269C224.23 187.067 224.138 186.84 224.094 186.602C223.977 186.221 223.852 185.824 223.728 185.458C223.678 185.331 223.678 185.189 223.728 185.061C223.774 185.005 223.833 184.959 223.898 184.927C223.964 184.895 224.036 184.877 224.109 184.875L226.918 184.408" fill="#EB996E"/>
<path d="M224.918 187.645C225.34 187.729 225.776 187.704 226.187 187.575C226.664 187.457 227.08 187.166 227.354 186.758C227.511 186.507 227.59 186.214 227.579 185.918C227.581 185.61 227.528 185.304 227.424 185.015C227.321 184.728 227.162 184.463 226.957 184.237L226.887 184.167H226.793C224.918 184.68 223.463 184.945 223.471 184.984C224.626 184.997 225.777 184.826 226.879 184.478L226.716 184.431C226.886 184.624 227.021 184.845 227.113 185.085C227.219 185.293 227.278 185.522 227.284 185.755C227.29 185.989 227.243 186.22 227.148 186.433C227.052 186.646 226.91 186.835 226.731 186.986C226.553 187.136 226.343 187.245 226.116 187.303C225.401 187.583 224.91 187.583 224.918 187.645Z" fill="#263238"/>
<path d="M234.996 165.764C237.928 167.865 240.419 170.523 242.327 173.585L239.805 177.872C235.518 177.468 235.012 177.032 232.024 173.981C229.035 170.931 222.997 164.799 222.686 160.503C226.685 161.624 231.564 163.328 234.996 165.764Z" fill="#E0E0E0"/>
<path d="M241.743 199.123C241.801 198.97 241.871 198.822 241.953 198.68C242.101 198.392 242.311 197.964 242.576 197.419C243.316 195.862 243.933 194.249 244.42 192.594C245.135 190.143 245.548 187.613 245.649 185.062C245.736 183.561 245.658 182.055 245.416 180.572C245.168 178.991 244.446 177.523 243.346 176.362C242.149 175.289 240.788 174.414 239.315 173.771C237.939 173.119 236.613 172.367 235.346 171.522C233.221 170.058 231.298 168.321 229.627 166.355C228.502 165.033 227.482 163.626 226.576 162.145C226.257 161.623 226.016 161.211 225.868 160.923C225.78 160.784 225.71 160.635 225.658 160.479C225.762 160.607 225.855 160.742 225.938 160.884C226.102 161.164 226.359 161.561 226.717 162.075C227.66 163.513 228.7 164.886 229.829 166.183C231.513 168.103 233.435 169.8 235.549 171.234C236.79 172.066 238.091 172.807 239.44 173.451C240.955 174.105 242.353 175.001 243.579 176.105C244.733 177.317 245.486 178.855 245.735 180.509C245.978 182.019 246.054 183.551 245.961 185.077C245.838 187.652 245.393 190.2 244.638 192.665C244.128 194.325 243.472 195.937 242.677 197.481C242.389 198.026 242.155 198.439 241.984 198.711C241.923 198.859 241.842 198.997 241.743 199.123Z" fill="white"/>
<path d="M245.097 174.72C244.857 173.536 244.349 172.423 243.611 171.467C242.796 170.446 241.805 169.579 240.685 168.907C239.293 168.095 237.853 167.368 236.374 166.728C233.67 165.517 231.167 163.9 228.95 161.935C228.28 161.34 227.641 160.711 227.036 160.051C226.803 159.815 226.597 159.554 226.421 159.273C226.677 159.479 226.919 159.703 227.145 159.942C227.596 160.378 228.257 161.009 229.121 161.732C231.362 163.624 233.856 165.196 236.529 166.401C238.023 167.044 239.471 167.787 240.864 168.627C242.008 169.332 243.011 170.246 243.821 171.319C244.366 172.043 244.76 172.868 244.98 173.747C245.042 173.984 245.081 174.227 245.097 174.471C245.113 174.637 245.113 174.72 245.097 174.72Z" fill="white"/>
<path d="M212.887 194.369C212.866 194.238 212.866 194.104 212.887 193.973C212.887 193.669 212.887 193.296 212.887 192.836C212.887 191.848 212.981 190.424 213.066 188.665C213.261 185.14 213.557 180.269 214.288 174.931C214.567 172.404 215.11 169.913 215.907 167.499C216.576 165.513 217.694 163.707 219.175 162.223C220.169 161.218 221.377 160.45 222.708 159.974C223.067 159.847 223.437 159.753 223.813 159.694C223.943 159.663 224.076 159.647 224.21 159.647C224.21 159.647 223.673 159.756 222.755 160.114C221.473 160.63 220.314 161.409 219.354 162.402C217.944 163.889 216.881 165.669 216.241 167.616C215.477 170.014 214.956 172.483 214.685 174.985C213.954 180.3 213.619 185.164 213.362 188.681C213.238 190.401 213.136 191.794 213.059 192.844C213.02 193.303 212.989 193.677 212.965 193.973C212.952 194.107 212.926 194.24 212.887 194.369Z" fill="white"/>
<path d="M200.639 218.259C200.639 218.259 201.487 211.52 204.732 208.143C207.977 204.766 221.564 200.564 221.564 200.564C221.564 200.564 222.124 205.365 225.377 206.525C228.832 207.754 232.731 207.303 235.26 204.361C236.796 202.473 237.875 200.254 238.411 197.879C238.411 197.879 254.636 199.373 257.282 203.824C259.928 208.275 263.352 225.512 263.352 225.512L248.185 228.726L249.158 242.733L211.876 242.951L210.724 230.578L199.744 232.134L200.639 218.259Z" fill="#455A64"/>
<path d="M245.175 229.714C245.124 229.495 245.105 229.269 245.12 229.045C245.12 228.617 245.12 227.994 245.12 227.224C245.12 225.667 245.12 223.558 245.198 221.208C245.276 218.858 245.307 216.734 245.369 215.193C245.369 214.415 245.439 213.808 245.463 213.372C245.461 213.146 245.49 212.921 245.548 212.703C245.594 212.923 245.612 213.148 245.603 213.372C245.603 213.808 245.603 214.431 245.603 215.201C245.603 216.757 245.603 218.866 245.533 221.216C245.463 223.566 245.416 225.691 245.354 227.231C245.354 228.01 245.291 228.617 245.26 229.052C245.259 229.276 245.23 229.498 245.175 229.714Z" fill="#263238"/>
<path d="M206.981 217.489C207.074 217.489 208.024 220.477 209.098 224.22C210.172 227.963 210.973 231.013 210.88 231.037C210.061 228.833 209.354 226.589 208.763 224.313C207.689 220.57 206.888 217.52 206.981 217.489Z" fill="#263238"/>
<path d="M255.594 202.758C255.594 202.82 254.87 202.96 253.765 203.381C252.328 203.925 250.995 204.715 249.828 205.715C248.663 206.727 247.685 207.936 246.941 209.287C246.365 210.322 246.163 211.03 246.077 211.007C246.083 210.83 246.12 210.657 246.186 210.493C246.329 210.038 246.508 209.596 246.723 209.17C247.426 207.752 248.403 206.488 249.597 205.449C250.791 204.41 252.179 203.617 253.68 203.116C254.13 202.96 254.594 202.845 255.065 202.774C255.239 202.738 255.418 202.733 255.594 202.758Z" fill="#263238"/>
<path d="M204.483 209.512C204.815 210.161 205.046 210.856 205.168 211.574C205.404 212.277 205.53 213.012 205.542 213.753C204.953 212.396 204.585 210.954 204.452 209.481L204.483 209.512Z" fill="#263238"/>
<path d="M245.525 212.704C245.525 212.821 236.919 213.98 226.281 215.303C215.643 216.626 206.998 217.637 206.982 217.49C206.967 217.342 215.589 216.221 226.234 214.898C236.88 213.575 245.51 212.595 245.525 212.704Z" fill="white"/>
<path d="M260.022 212.197C255.338 213.644 250.575 214.823 245.758 215.73C248.08 214.946 250.444 214.292 252.839 213.769C255.203 213.115 257.601 212.59 260.022 212.197Z" fill="white"/>
<path d="M262.473 221.582C262.473 221.69 258.785 222.578 254.186 223.566C249.587 224.554 245.836 225.255 245.813 225.122C245.789 224.99 249.501 224.126 254.1 223.146C258.699 222.165 262.45 221.473 262.473 221.582Z" fill="white"/>
<path d="M221.456 203.832C221.456 203.941 217.916 204.945 213.488 206.081C209.06 207.217 205.441 208.05 205.418 207.941C205.395 207.832 208.959 206.828 213.387 205.692C217.814 204.556 221.433 203.723 221.456 203.832Z" fill="white"/>
<path d="M244.917 226.896C244.917 227.005 237.206 227.558 227.681 228.118C218.156 228.678 210.421 229.052 210.413 228.943C210.405 228.834 218.125 228.281 227.657 227.713C237.19 227.145 244.909 226.787 244.917 226.896Z" fill="white"/>
<path d="M201.838 222.088C202.825 221.805 203.84 221.63 204.865 221.567C205.869 221.37 206.892 221.283 207.915 221.31C205.952 221.93 203.894 222.194 201.838 222.088Z" fill="white"/>
<path d="M244.365 238.336C243.977 238.409 243.584 238.45 243.19 238.46L239.984 238.671L229.409 239.379L218.841 240.204L215.635 240.453C215.245 240.499 214.852 240.515 214.46 240.499C214.839 240.393 215.227 240.325 215.619 240.297C216.398 240.196 217.464 240.064 218.81 239.916C221.51 239.628 225.245 239.27 229.377 238.974C233.51 238.678 237.253 238.484 239.968 238.39C241.322 238.336 242.42 238.313 243.182 238.305C243.577 238.277 243.973 238.287 244.365 238.336Z" fill="white"/>
<path d="M210.725 230.562L205.542 231.231L200.64 218.578L192.718 221.807C192.718 221.807 197.192 236.951 198.896 242.935H214.997L210.725 230.562Z" fill="#FFBE9D"/>
<path d="M211.277 240.421C210.311 239.396 209.419 238.304 208.607 237.153C207.963 236.203 207.388 235.207 206.888 234.173C206.46 233.286 206.164 232.546 205.969 232.033C205.882 231.765 205.772 231.505 205.643 231.255C205.673 231.539 205.738 231.819 205.837 232.087C206.068 232.837 206.343 233.573 206.662 234.29C207.136 235.354 207.699 236.377 208.343 237.348C209.146 238.524 210.041 239.635 211.02 240.671C211.738 241.358 212.385 242.117 212.95 242.935H213.354C212.753 242.026 212.057 241.183 211.277 240.421Z" fill="#EB996E"/>
<path d="M200.639 218.578C200.639 218.578 200.639 213.045 200.188 211.489L196.297 202.766C196.297 202.766 195.286 202.143 194.811 203.886C194.336 205.629 195.854 207.419 195.854 207.419L195.97 209.699L194.414 208.415L191.371 202.711C191.371 202.711 189.278 198.564 188.733 199.217C188.189 199.871 188.368 201.217 189.27 203.007L191.325 207.069C191.325 207.069 191.628 207.793 190.547 206.742C189.465 205.692 187.13 200.626 186.656 199.995C186.181 199.365 185.504 197.505 184.453 197.925C183.403 198.346 184.749 200.571 184.749 200.571L188.111 208.088C188.111 208.088 186.165 205.24 185.776 204.766C185.387 204.291 184.617 202.649 183.979 201.824C183.341 200.999 182.648 200.672 182.189 200.867C181.963 200.945 181.775 201.108 181.667 201.321C181.558 201.535 181.536 201.782 181.605 202.011L185.185 208.236C185.185 208.236 186.982 211.03 186.975 211.24C186.967 211.45 185.418 210.314 185.418 210.314L183.916 208.4C183.916 208.4 182.298 205.536 181.442 205.692C180.586 205.847 180.742 206.47 180.742 206.47L183.761 211.691L188.142 217.317L192.811 221.986L195.511 221.115L200.639 218.578Z" fill="#FFBE9D"/>
<path d="M192.033 217.667C192.169 217.094 192.263 216.511 192.313 215.924C192.442 214.547 193.084 213.27 194.111 212.344C194.624 211.917 195.264 211.673 195.932 211.652H196.149V211.411C196.087 210.337 196.15 209.317 196.087 208.64C196.117 208.268 196.064 207.893 195.932 207.543C195.863 207.902 195.829 208.267 195.83 208.632C195.751 209.577 195.72 210.525 195.737 211.473L195.947 211.232C195.178 211.238 194.434 211.513 193.846 212.01C193.204 212.529 192.715 213.212 192.43 213.986C192.205 214.603 192.064 215.247 192.01 215.901C191.915 216.486 191.923 217.084 192.033 217.667Z" fill="#EB996E"/>
<path d="M246.646 229.06L243.759 242.942H257.307C257.82 240.966 260.653 226.095 260.653 226.095L246.646 229.06Z" fill="#FFBE9D"/>
<path d="M215.455 -4.08057H85.1191V121.197H215.455V-4.08057Z" fill="#263238"/>
<path d="M215.455 -4.08057H85.1191V5.30418H215.455V-4.08057Z" fill="#455A64"/>
<path d="M215.455 101.293H85.1504V121.198H91.9438V139.773L109.056 121.198H215.455V101.293Z" fill="#455A64"/>
<rect x="143.976" y="103.409" width="14.9948" height="14.9948" rx="7.4974" fill="#27A17A"/>
<g clip-path="url(#clip1_9738_419806)">
<path d="M153.259 113.833H152.694C152.333 113.841 151.983 113.709 151.717 113.464C151.452 113.219 151.292 112.88 151.272 112.52C151.427 112.489 151.576 112.434 151.715 112.358L149.406 110.05V110.979C149.407 111.347 149.536 111.702 149.772 111.984C150.008 112.266 150.335 112.457 150.696 112.522C150.72 113.017 150.928 113.484 151.28 113.833H148.693C148.617 113.833 148.545 113.863 148.491 113.916C148.438 113.97 148.408 114.043 148.408 114.118C148.408 114.194 148.438 114.267 148.491 114.32C148.545 114.374 148.617 114.404 148.693 114.404H153.259C153.334 114.404 153.407 114.374 153.461 114.32C153.514 114.267 153.544 114.194 153.544 114.118C153.544 114.043 153.514 113.97 153.461 113.916C153.407 113.863 153.334 113.833 153.259 113.833Z" fill="white" fill-opacity="0.95"/>
<path d="M154.601 113.631L152.459 111.489C152.516 111.325 152.545 111.153 152.545 110.979V108.126C152.545 107.71 152.38 107.31 152.086 107.016C151.791 106.722 151.392 106.556 150.976 106.556C150.56 106.556 150.16 106.722 149.866 107.016C149.572 107.31 149.406 107.71 149.406 108.126V108.436L147.753 106.783C147.699 106.729 147.627 106.699 147.551 106.699C147.475 106.699 147.403 106.729 147.349 106.783C147.296 106.836 147.266 106.909 147.266 106.984C147.266 107.06 147.296 107.133 147.349 107.186L154.198 114.035C154.224 114.061 154.256 114.082 154.29 114.096C154.325 114.111 154.362 114.118 154.4 114.118C154.437 114.118 154.474 114.111 154.509 114.096C154.543 114.082 154.575 114.061 154.601 114.035C154.628 114.008 154.649 113.977 154.663 113.942C154.678 113.907 154.685 113.87 154.685 113.833C154.685 113.795 154.678 113.758 154.663 113.724C154.649 113.689 154.628 113.658 154.601 113.631Z" fill="white" fill-opacity="0.95"/>
</g>
<path d="M127.346 110.837C127.582 110.837 127.774 110.645 127.774 110.409C127.774 110.172 127.582 109.981 127.346 109.981C127.109 109.981 126.918 110.172 126.918 110.409C126.918 110.645 127.109 110.837 127.346 110.837Z" fill="black" fill-opacity="0.95"/>
<path d="M125.205 110.837C125.442 110.837 125.633 110.645 125.633 110.409C125.633 110.172 125.442 109.981 125.205 109.981C124.969 109.981 124.777 110.172 124.777 110.409C124.777 110.645 124.969 110.837 125.205 110.837Z" fill="black" fill-opacity="0.95"/>
<path d="M129.486 110.837C129.722 110.837 129.914 110.645 129.914 110.409C129.914 110.172 129.722 109.981 129.486 109.981C129.249 109.981 129.058 110.172 129.058 110.409C129.058 110.645 129.249 110.837 129.486 110.837Z" fill="black" fill-opacity="0.95"/>
<rect x="120.631" y="103.694" width="14.4241" height="14.4241" rx="7.21204" stroke="black" stroke-opacity="0.3" stroke-width="0.570713"/>
<rect x="167.605" y="103.409" width="14.9948" height="14.9948" rx="7.4974" fill="#27A17A"/>
<g clip-path="url(#clip2_9738_419806)">
<path d="M178.255 108.618C178.191 108.578 178.117 108.557 178.042 108.555C177.966 108.553 177.892 108.57 177.826 108.606L176.746 109.293V108.697C176.746 108.356 176.611 108.03 176.37 107.789C176.129 107.548 175.803 107.413 175.462 107.413H172.038C172.03 107.413 172.023 107.414 172.015 107.414L171.383 106.783C171.329 106.729 171.257 106.699 171.181 106.699C171.106 106.699 171.033 106.729 170.979 106.783C170.926 106.836 170.896 106.909 170.896 106.984C170.896 107.06 170.926 107.133 170.979 107.186L177.828 114.035C177.882 114.088 177.954 114.118 178.03 114.118C178.106 114.118 178.178 114.088 178.232 114.035C178.285 113.981 178.315 113.909 178.315 113.833C178.315 113.757 178.285 113.685 178.232 113.631L176.745 112.144C176.745 112.136 176.746 111.525 176.746 111.525L177.838 112.218C177.898 112.248 177.964 112.264 178.03 112.264C178.144 112.264 178.252 112.218 178.332 112.138C178.413 112.058 178.458 111.949 178.458 111.836V108.982C178.458 108.909 178.44 108.837 178.404 108.773C178.369 108.709 178.317 108.656 178.255 108.618Z" fill="white" fill-opacity="0.95"/>
<path d="M170.754 108.697V112.121C170.754 112.461 170.89 112.788 171.13 113.029C171.371 113.269 171.698 113.405 172.038 113.405H175.462C175.716 113.405 175.964 113.33 176.175 113.188L170.971 107.984C170.829 108.195 170.754 108.443 170.754 108.697Z" fill="white" fill-opacity="0.95"/>
</g>
<rect x="224.907" y="245.037" width="14.9948" height="14.9948" rx="7.4974" fill="#27A17A"/>
<g clip-path="url(#clip3_9738_419806)">
<path d="M234.191 255.461H233.626C233.265 255.47 232.915 255.337 232.65 255.092C232.384 254.847 232.225 254.509 232.204 254.148C232.562 254.079 232.885 253.887 233.117 253.606C233.35 253.325 233.477 252.972 233.478 252.608V249.754C233.478 249.338 233.312 248.939 233.018 248.644C232.723 248.35 232.324 248.185 231.908 248.185C231.492 248.185 231.093 248.35 230.798 248.644C230.504 248.939 230.339 249.338 230.339 249.754V252.608C230.339 252.975 230.469 253.331 230.704 253.613C230.94 253.895 231.267 254.085 231.628 254.151C231.652 254.645 231.861 255.113 232.212 255.461H229.625C229.55 255.461 229.477 255.491 229.423 255.545C229.37 255.598 229.34 255.671 229.34 255.747C229.34 255.822 229.37 255.895 229.423 255.948C229.477 256.002 229.55 256.032 229.625 256.032H234.191C234.267 256.032 234.339 256.002 234.393 255.948C234.446 255.895 234.476 255.822 234.476 255.747C234.476 255.671 234.446 255.598 234.393 255.545C234.339 255.491 234.267 255.461 234.191 255.461Z" fill="white" fill-opacity="0.95"/>
</g>
<path d="M208.277 252.465C208.514 252.465 208.705 252.273 208.705 252.037C208.705 251.801 208.514 251.609 208.277 251.609C208.041 251.609 207.849 251.801 207.849 252.037C207.849 252.273 208.041 252.465 208.277 252.465Z" fill="black" fill-opacity="0.95"/>
<path d="M206.137 252.465C206.373 252.465 206.565 252.273 206.565 252.037C206.565 251.801 206.373 251.609 206.137 251.609C205.901 251.609 205.709 251.801 205.709 252.037C205.709 252.273 205.901 252.465 206.137 252.465Z" fill="black" fill-opacity="0.95"/>
<path d="M210.417 252.465C210.654 252.465 210.845 252.273 210.845 252.037C210.845 251.801 210.654 251.609 210.417 251.609C210.181 251.609 209.989 251.801 209.989 252.037C209.989 252.273 210.181 252.465 210.417 252.465Z" fill="black" fill-opacity="0.95"/>
<rect x="201.563" y="245.322" width="14.4241" height="14.4241" rx="7.21204" stroke="black" stroke-opacity="0.3" stroke-width="0.570713"/>
<rect x="248.538" y="245.037" width="14.9948" height="14.9948" rx="7.4974" fill="#27A17A"/>
<path fill-rule="evenodd" clip-rule="evenodd" d="M258.974 250.183C259.05 250.185 259.123 250.206 259.187 250.246C259.25 250.284 259.301 250.338 259.337 250.401C259.372 250.465 259.391 250.537 259.391 250.61V253.464C259.391 253.537 259.372 253.608 259.336 253.672C259.301 253.736 259.25 253.789 259.188 253.828C259.126 253.866 259.055 253.888 258.982 253.891C258.909 253.895 258.837 253.879 258.771 253.847L257.679 253.153V253.749C257.679 254.09 257.543 254.416 257.302 254.657C257.062 254.897 256.735 255.033 256.395 255.033H252.971C252.63 255.033 252.304 254.897 252.063 254.657C251.822 254.416 251.687 254.09 251.687 253.749V250.325C251.687 249.984 251.822 249.658 252.063 249.417C252.304 249.176 252.63 249.041 252.971 249.041H256.395C256.735 249.041 257.062 249.176 257.302 249.417C257.543 249.658 257.679 249.984 257.679 250.325V250.921L258.758 250.235C258.825 250.199 258.899 250.181 258.974 250.183ZM254.112 250.896C254.112 251.211 253.856 251.466 253.541 251.466C253.226 251.466 252.97 251.211 252.97 250.896C252.97 250.58 253.226 250.325 253.541 250.325C253.856 250.325 254.112 250.58 254.112 250.896Z" fill="white" fill-opacity="0.95"/>
<path d="M253.54 251.466C253.856 251.466 254.111 251.211 254.111 250.896C254.111 250.58 253.856 250.325 253.54 250.325C253.225 250.325 252.97 250.58 252.97 250.896C252.97 251.211 253.225 251.466 253.54 251.466Z" fill="#27A17A"/>
<path d="M215.471 101.477C215.471 101.477 215.471 102.256 215.471 103.773C215.471 105.29 215.471 107.547 215.471 110.489C215.471 113.43 215.471 117.064 215.471 121.336V121.383C215.315 121.539 215.416 121.43 215.37 121.461H200.826L109.071 121.531L109.196 121.476L92.0762 140.059L91.7571 140.402V121.383L91.9439 121.578H85.0182L84.9559 121.5L84.917 121.453V121.383C84.917 92.9798 84.917 61.8608 84.917 29.3954V-4.06592H85.1193H215.455H215.619V-3.9025C215.619 28.2749 215.564 54.616 215.549 72.9186C215.549 82.0621 215.549 89.1979 215.502 94.0537C215.502 96.4738 215.502 98.3181 215.502 99.5709C215.502 98.3181 215.502 96.4582 215.502 94.0537C215.502 89.1979 215.502 82.0621 215.502 72.9186C215.502 54.616 215.455 28.2749 215.432 -3.9025L215.588 -3.74687L85.2516 -3.70018L85.4539 -3.9025V29.3954C85.4539 61.8608 85.4539 92.9798 85.4539 121.383L85.415 121.274L85.2672 121.196H92.2707V121.383C92.2707 127.834 92.2707 134.153 92.2707 139.958L91.9594 139.834C97.9124 133.382 103.679 127.118 109.079 121.266L109.126 121.212H109.204L200.958 121.29H215.58C215.58 121.29 215.673 121.212 215.525 121.36V121.305C215.525 117.033 215.525 113.399 215.525 110.458C215.525 107.516 215.525 105.267 215.525 103.742C215.525 102.217 215.471 101.477 215.471 101.477Z" fill="#263238"/>
<path d="M103.553 0.955626C103.553 1.30346 103.45 1.64348 103.257 1.93269C103.064 2.2219 102.789 2.44731 102.468 2.58042C102.146 2.71353 101.793 2.74836 101.452 2.6805C101.111 2.61264 100.797 2.44514 100.551 2.19919C100.305 1.95324 100.138 1.63987 100.07 1.29872C100.002 0.957576 100.037 0.603968 100.17 0.282614C100.303 -0.0387409 100.529 -0.313406 100.818 -0.506651C101.107 -0.699896 101.447 -0.80304 101.795 -0.80304C102.261 -0.80304 102.709 -0.617753 103.038 -0.287939C103.368 0.0418753 103.553 0.489199 103.553 0.955626Z" fill="#263238"/>
<path d="M92.9246 0.955643C92.9246 1.30381 92.8212 1.64413 92.6276 1.93351C92.434 2.22289 92.1589 2.44829 91.8371 2.58117C91.5153 2.71405 91.1613 2.74842 90.8199 2.67993C90.4786 2.61144 90.1652 2.44316 89.9196 2.19643C89.6739 1.9497 89.5071 1.63561 89.4401 1.29395C89.3731 0.952288 89.409 0.598438 89.5433 0.277222C89.6776 -0.0439934 89.9043 -0.318119 90.1945 -0.510424C90.4847 -0.70273 90.8255 -0.804563 91.1737 -0.803022C91.4043 -0.803025 91.6326 -0.75748 91.8455 -0.669004C92.0584 -0.580528 92.2518 -0.450862 92.4145 -0.287452C92.5772 -0.124043 92.706 0.0698924 92.7935 0.283219C92.8811 0.496545 92.9256 0.72506 92.9246 0.955643Z" fill="#263238"/>
<path d="M98.239 0.955626C98.239 1.30346 98.1359 1.64348 97.9426 1.93269C97.7494 2.2219 97.4747 2.44731 97.1533 2.58042C96.832 2.71353 96.4784 2.74836 96.1372 2.6805C95.7961 2.61264 95.4827 2.44514 95.2368 2.19919C94.9908 1.95324 94.8233 1.63987 94.7555 1.29872C94.6876 0.957576 94.7224 0.603968 94.8555 0.282614C94.9887 -0.0387409 95.2141 -0.313406 95.5033 -0.506651C95.7925 -0.699896 96.1325 -0.80304 96.4803 -0.80304C96.9468 -0.80304 97.3941 -0.617753 97.7239 -0.287939C98.0537 0.0418753 98.239 0.489199 98.239 0.955626Z" fill="#263238"/>
<path d="M95.1415 22.4103C97.3333 22.4103 99.1102 20.6335 99.1102 18.4416C99.1102 16.2498 97.3333 14.473 95.1415 14.473C92.9497 14.473 91.1729 16.2498 91.1729 18.4416C91.1729 20.6335 92.9497 22.4103 95.1415 22.4103Z" fill="#455A64"/>
<path d="M117.032 17.8103C114.579 18.0106 112.116 18.0781 109.655 18.0126C107.197 18.0782 104.737 18.0107 102.286 17.8103C104.737 17.6099 107.197 17.5424 109.655 17.608C112.116 17.5425 114.579 17.6101 117.032 17.8103Z" fill="#455A64"/>
<path d="M106.34 312.851L16.6638 314.96L13.9324 257.041C13.865 255.695 14.0715 254.35 14.5394 253.086C15.0074 251.823 15.727 250.667 16.6547 249.69C17.5823 248.713 18.6988 247.934 19.9363 247.402C21.1738 246.869 22.5067 246.593 23.8541 246.59H100.255C101.626 246.583 102.984 246.86 104.244 247.403C105.503 247.946 106.637 248.743 107.574 249.745C108.51 250.747 109.23 251.931 109.687 253.224C110.145 254.517 110.33 255.891 110.231 257.259L106.34 312.851Z" fill="#455A64"/>
<path d="M110.932 256.841H110.675H109.943H107.119L96.7223 256.879C87.9445 256.879 75.8205 256.794 62.436 257.105C49.0437 257.549 36.9042 257.471 28.1264 257.339C23.7375 257.269 20.1891 257.183 17.7379 257.113L14.9131 257.02L14.1738 256.981H13.9248C14.01 256.969 14.0964 256.969 14.1816 256.981H14.9131H17.7379L28.1342 257.082C36.912 257.136 49.0359 257.167 62.4204 256.724C75.8206 256.413 87.9445 256.56 96.7223 256.615L107.119 256.708H109.943H110.675C110.767 256.739 110.853 256.783 110.932 256.841Z" fill="#263238"/>
<path d="M46.6395 247.533C44.6237 247.823 42.662 248.41 40.8188 249.276C39.0372 250.264 37.4093 251.507 35.9863 252.965C36.2685 252.424 36.6424 251.937 37.0913 251.525C39.1663 249.4 41.8807 248.014 44.8186 247.58C45.4183 247.459 46.0344 247.443 46.6395 247.533Z" fill="#263238"/>
<g opacity="0.3">
<path d="M35.1377 246.593C37.7913 249.557 42.1412 250.857 46.071 251.456C53.1523 252.538 60.4127 253.114 67.4785 251.908C72.0074 251.129 76.4897 249.635 81.0731 249.954C85.6566 250.273 90.4735 252.483 94.9946 251.199C96.2091 250.849 97.3413 250.26 98.3248 249.466C99.3084 248.673 100.123 247.69 100.722 246.577C101.095 245.869 101.337 244.881 100.722 244.359C100.411 244.095 99.7337 245.005 99.329 244.974C78.085 243.355 56.3973 248.087 35.1377 246.593Z" fill="black"/>
</g>
<g opacity="0.3">
<path d="M89.8431 260.545C89.4618 262.513 90.4189 264.545 91.8118 265.992C93.2911 267.349 94.9483 268.498 96.7377 269.408C99.6247 271.081 102.496 272.995 104.302 275.797C107.725 281.12 106.457 288.1 107.904 294.255C107.904 294.255 109.118 267.681 108.862 268.35" fill="black"/>
</g>
<path d="M62.7629 84.3978C64.3357 85.9962 65.4989 87.9511 66.1533 90.096C66.8078 92.2408 66.9341 94.512 66.5215 96.7162C66.1013 98.8484 65.2142 101.23 66.4204 103.035C67.6265 104.84 70.3112 105.097 71.4707 106.926C72.8013 109.081 71.1516 111.859 71.4162 114.373C71.582 115.552 72.1613 116.633 73.0508 117.424C73.9403 118.215 75.0819 118.665 76.272 118.692C73.2427 120.614 69.743 121.667 66.1558 121.734L63.868 117.96C64.7473 119.291 64.2493 121.19 63.0898 122.31C61.8741 123.357 60.3776 124.022 58.7865 124.225C55.0371 124.909 51.1804 124.721 47.5153 123.675C43.8503 122.629 40.4751 120.754 37.6514 118.194" fill="#263238"/>
<path d="M20.1276 98.6376C20.8591 97.0812 21.9408 95.6338 22.501 93.9685C23.7072 90.4201 22.4154 86.1012 24.571 83.0741C26.1273 80.8797 28.921 80.0548 31.5745 79.5724C34.2281 79.0899 37.0217 78.7475 39.1072 77.1133C40.6636 75.9072 41.6674 74.1252 43.2082 72.9112C45.4104 71.1915 48.3986 70.8724 51.1844 71.028C54.0655 71.0932 56.8816 71.8971 59.363 73.3626C60.5882 74.1074 61.6218 75.1289 62.3813 76.345C63.1407 77.5612 63.6048 78.9383 63.7363 80.3661C63.7986 81.7668 63.464 83.1831 63.7363 84.5527C64.0476 86.0545 65.0514 87.3229 65.5962 88.7548C66.1361 90.2963 66.1485 91.9736 65.6316 93.523C65.1146 95.0724 64.0976 96.4061 62.7403 97.3147L40.2589 120.216C35.979 121.282 26.2518 118.24 23.4582 114.847C20.6645 111.454 18.2756 102.63 20.1276 98.6376Z" fill="#263238"/>
<path d="M62.5759 94.0238C62.4436 88.2108 58.8874 80.9349 53.0822 81.3162L34.8419 85.1448C33.9915 85.2029 33.1936 85.5767 32.6047 86.1929C32.0158 86.8092 31.6786 87.6233 31.6592 88.4754L31.8304 132.053H31.7059C31.7059 132.053 35.2932 144.504 47.386 141.267C49.7828 140.628 50.9734 138.084 51.5492 135.446H51.6737C51.6737 135.135 51.6738 134.839 51.7282 134.535C52.0445 132.56 52.154 130.557 52.055 128.559C52.234 125.049 52.2963 123.61 52.2963 123.641C52.2963 123.672 59.7589 122.707 61.681 113.105C62.6382 108.389 62.716 100.49 62.5759 94.0238Z" fill="#FFBE9D"/>
<path d="M47.7597 99.6878C47.7496 100.01 47.6137 100.316 47.3811 100.54C47.1484 100.764 46.8375 100.888 46.5146 100.886C46.3563 100.892 46.1984 100.867 46.0501 100.811C45.9017 100.756 45.766 100.671 45.6507 100.563C45.5355 100.454 45.4431 100.323 45.379 100.178C45.3149 100.033 45.2803 99.8773 45.2773 99.7189C45.2875 99.3955 45.4231 99.0887 45.6555 98.8635C45.8879 98.6384 46.1988 98.5126 46.5224 98.5127C46.6811 98.5075 46.8392 98.5339 46.9876 98.5904C47.136 98.6468 47.2717 98.7322 47.3868 98.8415C47.5019 98.9508 47.5941 99.0819 47.6582 99.2272C47.7222 99.3725 47.7567 99.529 47.7597 99.6878Z" fill="#263238"/>
<path d="M60.4287 99.6878C60.4185 100.01 60.2826 100.316 60.05 100.54C59.8174 100.764 59.5064 100.888 59.1836 100.886C59.0253 100.892 58.8673 100.867 58.719 100.811C58.5707 100.756 58.4349 100.671 58.3197 100.563C58.2044 100.454 58.1121 100.323 58.048 100.178C57.9838 100.033 57.9493 99.8773 57.9463 99.7189C57.9564 99.3955 58.092 99.0887 58.3245 98.8635C58.5569 98.6384 58.8678 98.5126 59.1914 98.5127C59.35 98.5075 59.5082 98.5339 59.6565 98.5904C59.8049 98.6468 59.9406 98.7322 60.0557 98.8415C60.1708 98.9508 60.2631 99.0819 60.3271 99.2272C60.3911 99.3725 60.4256 99.529 60.4287 99.6878Z" fill="#263238"/>
<path d="M61.2059 98.2466C61.0425 98.4567 59.9841 97.5929 58.529 97.6318C57.0738 97.6707 56.0388 98.5501 55.8754 98.3478C55.712 98.1454 55.9454 97.8809 56.3968 97.4762C56.9812 96.9601 57.7298 96.6683 58.5094 96.6526C59.2889 96.6369 60.0487 96.8984 60.6534 97.3906C61.1125 97.7797 61.2759 98.1532 61.2059 98.2466Z" fill="#263238"/>
<path d="M47.7287 98.2171C47.5342 98.4038 46.507 97.4389 44.9585 97.3377C43.4099 97.2366 42.2193 97.9603 42.0637 97.7502C41.908 97.5401 42.1959 97.2988 42.7173 96.972C43.4062 96.5271 44.2226 96.3219 45.04 96.388C45.8573 96.4541 46.6301 96.7879 47.2385 97.3377C47.6898 97.7579 47.8221 98.1315 47.7287 98.2171Z" fill="#263238"/>
<path d="M52.0082 107.876C52.7213 107.683 53.456 107.581 54.1948 107.573C54.5372 107.573 54.8641 107.495 54.9263 107.261C54.9741 106.91 54.9087 106.553 54.7396 106.242C54.4516 105.409 54.1559 104.53 53.8369 103.612C52.5918 99.8532 51.6969 96.7794 51.8525 96.7249C52.0082 96.6704 53.1365 99.682 54.3894 103.433C54.6851 104.359 54.973 105.238 55.2454 106.079C55.4451 106.498 55.4893 106.975 55.3699 107.425C55.3164 107.543 55.2368 107.647 55.137 107.729C55.0371 107.811 54.9199 107.869 54.794 107.899C54.6028 107.944 54.4068 107.965 54.2104 107.962C53.4755 108.02 52.7363 107.991 52.0082 107.876Z" fill="#263238"/>
<path d="M52.296 123.703C47.7405 123.596 43.304 122.227 39.4795 119.75C39.4795 119.75 42.351 126.52 52.0703 125.976L52.296 123.703Z" fill="#EB996E"/>
<path d="M48.048 108.636C48.2659 108.636 48.2115 110.083 49.4098 111.157C50.6082 112.231 52.1568 112.138 52.1568 112.34C52.1568 112.542 51.7988 112.613 51.1452 112.605C50.2969 112.58 49.4843 112.258 48.8496 111.694C48.2419 111.152 47.8658 110.397 47.799 109.585C47.7679 108.978 47.978 108.62 48.048 108.636Z" fill="#263238"/>
<path d="M48.1328 93.6888C47.985 94.0468 46.6621 93.8211 45.0902 93.9534C43.5183 94.0857 42.2265 94.4514 42.0319 94.1168C41.9463 93.9534 42.1798 93.6266 42.709 93.292C43.4054 92.8819 44.1898 92.6444 44.9968 92.5994C45.7936 92.535 46.5943 92.6631 47.3313 92.9729C47.9227 93.2219 48.1951 93.5254 48.1328 93.6888Z" fill="#263238"/>
<path d="M60.3578 94.1768C60.0777 94.4647 59.0427 94.1068 57.7743 94.0445C56.5059 93.9823 55.4398 94.1535 55.1985 93.8267C55.0974 93.671 55.2841 93.3675 55.7588 93.1029C56.4162 92.7748 57.1508 92.6322 57.8832 92.6905C58.6112 92.7293 59.3142 92.969 59.9142 93.3831C60.35 93.7099 60.4823 94.0679 60.3578 94.1768Z" fill="#263238"/>
<path d="M30.8032 86.0702C31.846 84.8095 33.519 84.2959 35.1065 83.8913C41.9458 82.1336 48.9705 81.1984 56.0315 81.1054C56.7319 82.6618 55.7047 84.4827 54.2729 85.362C52.841 86.2414 51.1602 86.4593 49.4871 86.8639C47.814 87.2686 46.1488 87.9767 45.3239 89.4319C44.499 90.887 44.8025 92.9959 44.001 94.5989C42.6314 97.3459 38.5149 97.7972 37.1609 100.56C36.1337 102.645 37.122 105.104 37.1609 107.431C37.1855 108.611 36.9581 109.783 36.4939 110.869C36.0296 111.954 35.3393 112.928 34.4688 113.726C33.5983 114.524 32.5678 115.126 31.4459 115.494C30.324 115.862 29.1366 115.986 27.9629 115.859C28.4557 107.558 28.9486 99.2576 29.4414 90.9571C29.5426 89.2529 29.6982 87.4008 30.8032 86.0702Z" fill="#263238"/>
<path d="M11.7538 104.965C13.1934 103.953 14.9443 103.136 15.6446 101.526C16.6874 99.191 15.0688 96.0783 16.5862 94.0395C17.9713 92.1563 21.3331 92.6544 22.6482 90.7167C23.6676 89.1993 22.8816 87.6663 23.3641 86.2889C23.8465 84.9115 25.9943 83.9077 27.4183 84.2423L36.7564 101.876C37.161 107.471 37.8692 110.506 36.3128 113.548C35.4646 115.229 34.4219 116.84 33.9783 118.669C33.5348 120.497 33.7293 122.645 35.1145 123.921C28.3288 123.657 22.438 119.392 17.0142 115.299L11.2713 110.973C10.6252 110.575 10.0899 110.021 9.71494 109.362C8.99902 107.735 10.3141 105.938 11.7538 104.965Z" fill="#263238"/>
<path d="M17.0225 113.609C17.247 113.708 17.4819 113.781 17.7228 113.827C18.4172 113.982 19.1333 114.016 19.8394 113.928C21.1556 113.782 22.3931 113.228 23.3784 112.343C24.3637 111.458 25.0473 110.287 25.3333 108.994C25.534 108.14 25.5631 107.253 25.4189 106.387C25.2189 105.467 24.897 104.577 24.4618 103.742C23.9987 102.88 23.6682 101.954 23.4813 100.995C23.3803 100.504 23.3901 99.9978 23.5099 99.5117C23.6297 99.0257 23.8565 98.5726 24.1739 98.1855C24.882 97.4073 26.0415 97.4073 27.1465 97.0649C27.7607 96.9543 28.3181 96.6354 28.7248 96.1621C29.1316 95.6887 29.3629 95.0897 29.3798 94.4658C29.5121 93.2285 29.1153 92.0457 29.0219 90.8707C28.9568 90.2901 29.0233 89.7023 29.2164 89.1509C29.4331 88.6134 29.8327 88.1696 30.3447 87.898C31.4516 87.4207 32.6655 87.2462 33.8621 87.3922C35.0905 87.4908 36.324 87.2794 37.4495 86.7775C38.5314 86.2729 39.4545 85.4817 40.1186 84.4897C40.6943 83.5221 41.1193 82.4725 41.3792 81.377C41.615 80.362 41.954 79.3737 42.3908 78.4277C42.8455 77.5663 43.4829 76.8147 44.2584 76.2255C45.5392 75.2471 47.0977 74.7009 48.709 74.666C50.3203 74.631 51.901 75.109 53.223 76.0309C54.1303 76.6433 54.9208 77.4128 55.5575 78.3032C56.095 79.0795 56.5415 79.915 56.8882 80.7933C56.8843 80.7287 56.8685 80.6654 56.8415 80.6066C56.8026 80.4899 56.7637 80.3109 56.6703 80.0852C56.4163 79.4256 56.0845 78.7986 55.682 78.2176C55.0515 77.2937 54.2609 76.4899 53.3475 75.8442C51.988 74.8711 50.353 74.3582 48.6814 74.3806C47.0097 74.403 45.389 74.9595 44.0561 75.9687C43.2393 76.5958 42.5677 77.3922 42.0873 78.3032C41.6297 79.267 41.275 80.2765 41.029 81.3147C40.7782 82.3751 40.3662 83.3908 39.8073 84.3262C39.1774 85.2607 38.3024 86.0037 37.2783 86.474C36.2081 86.9477 35.0363 87.1457 33.8699 87.0498C32.6053 86.8929 31.322 87.0839 30.158 87.6023C29.5625 87.9121 29.0984 88.4259 28.8507 89.0497C28.6372 89.6584 28.5627 90.3072 28.6328 90.9485C28.862 92.1098 28.9818 93.29 28.9907 94.4736C28.9589 95.0181 28.7606 95.5396 28.4227 95.9677C28.0498 96.3565 27.5708 96.6271 27.0453 96.7459C26.5162 96.8937 25.9559 96.9793 25.4111 97.1349C24.8453 97.2737 24.3267 97.5611 23.9093 97.9676C23.5565 98.396 23.3035 98.8977 23.1689 99.4361C23.0343 99.9745 23.0214 100.536 23.1311 101.08C23.3377 102.072 23.6862 103.029 24.1661 103.921C24.5929 104.729 24.912 105.59 25.1154 106.481C25.2616 107.306 25.2431 108.153 25.061 108.971C24.7535 110.393 23.9578 111.662 22.8121 112.558C21.9398 113.23 20.9069 113.662 19.8161 113.811C18.8805 113.923 17.9322 113.854 17.0225 113.609Z" fill="#455A64"/>
<path d="M9.41134 100.956C9.27813 101.11 9.17988 101.29 9.12342 101.486C8.94852 102.044 8.98169 102.646 9.2168 103.182C9.39083 103.577 9.65781 103.924 9.99497 104.194C10.3985 104.504 10.8811 104.696 11.3879 104.746C12.0077 104.801 12.6307 104.685 13.1892 104.411C13.7476 104.136 14.22 103.714 14.555 103.19C14.9511 102.59 15.1991 101.904 15.2788 101.19C15.3476 100.426 15.2763 99.6559 15.0686 98.9176C14.7029 97.3612 13.9014 95.8594 14.0804 94.1629C14.095 93.74 14.1957 93.3246 14.3763 92.9419C14.557 92.5593 14.8137 92.2175 15.1309 91.9374C15.8822 91.4543 16.7926 91.284 17.6677 91.4627C18.6406 91.6514 19.6395 91.6646 20.617 91.5016C21.1356 91.3598 21.596 91.0575 21.9321 90.6378C22.2567 90.2149 22.4851 89.7263 22.6014 89.206C22.7646 88.2082 22.8012 87.1937 22.7103 86.1867C22.6711 85.247 22.8357 84.3099 23.1927 83.4397C23.876 81.778 25.1673 80.4393 26.8035 79.6967C28.3346 79.1334 29.9813 78.957 31.597 79.1831C33.042 79.3489 34.504 79.2911 35.9314 79.0119C37.1045 78.7171 38.2057 78.1876 39.1686 77.4556C39.896 76.9101 40.5385 76.2597 41.0751 75.5257C41.5433 74.9137 41.899 74.2234 42.1257 73.4869C41.7924 74.169 41.3992 74.82 40.9506 75.4324C40.4063 76.1375 39.7613 76.7589 39.0363 77.2766C38.0863 77.9631 37.0099 78.455 35.8692 78.724C34.4647 78.9809 33.029 79.0202 31.6126 78.8407C29.9438 78.5977 28.2409 78.7715 26.6556 79.3466C24.9246 80.1172 23.5565 81.5243 22.8348 83.2763C22.4581 84.1962 22.2804 85.1854 22.3134 86.1789C22.405 87.1545 22.371 88.1379 22.2123 89.1048C22.1417 89.5643 21.945 89.9953 21.6441 90.3497C21.3433 90.7042 20.95 90.9682 20.5081 91.1125C19.5782 91.2574 18.6302 91.2389 17.7067 91.058C16.732 90.8749 15.7243 91.0786 14.8974 91.6261C14.5444 91.9398 14.2578 92.3211 14.0546 92.7475C13.8514 93.1739 13.7358 93.6367 13.7146 94.1085C13.6509 94.9828 13.762 95.8611 14.0415 96.692C14.2749 97.4702 14.555 98.2483 14.7496 98.9798C14.9528 99.6818 15.0292 100.414 14.9753 101.143C14.906 101.811 14.6822 102.453 14.3216 103.019C14.0179 103.506 13.5853 103.9 13.0717 104.157C12.5581 104.414 11.9834 104.523 11.4112 104.474C10.9419 104.441 10.4913 104.277 10.1117 103.999C9.79846 103.752 9.54785 103.435 9.38021 103.073C9.14687 102.569 9.09199 102.001 9.22459 101.462C9.30241 101.135 9.43469 100.972 9.41134 100.956Z" fill="#263238"/>
<path d="M79.8827 113.323C80.0071 113.919 79.9247 114.539 79.6493 115.082C79.4987 115.393 79.281 115.666 79.0119 115.883C78.7428 116.1 78.4289 116.254 78.0929 116.334C77.6445 116.409 77.184 116.359 76.7624 116.189C76.3409 116.018 75.9745 115.735 75.7039 115.37C75.3955 114.941 75.2493 114.417 75.2915 113.891C75.3387 113.31 75.4944 112.742 75.7506 112.218C76.2409 111.121 77.1124 109.969 77.1747 108.467C77.217 107.709 77.1004 106.951 76.8324 106.241C76.5643 105.53 76.1508 104.884 75.6183 104.343C75.053 103.775 74.3884 103.316 73.6574 102.989C72.9085 102.684 72.1241 102.475 71.3228 102.366C70.5428 102.266 69.7741 102.091 69.0272 101.845C68.3258 101.612 67.7301 101.138 67.3464 100.506C67.0196 99.8707 66.8742 99.1572 66.9262 98.4443C66.9698 97.7433 67.1112 97.0518 67.3464 96.3899C67.8656 95.1435 68.2239 93.836 68.4125 92.4991C68.4845 91.307 68.2001 90.1205 67.5954 89.0907C67.074 88.2705 66.4036 87.5552 65.6189 86.9818C65.0492 86.5455 64.5109 86.0697 64.008 85.5578C63.5953 85.1071 63.2777 84.5777 63.0742 84.0014C63.0742 84.0014 63.0742 84.0014 63.0742 84.1182C63.0956 84.2373 63.1268 84.3544 63.1676 84.4683C63.33 84.9023 63.5699 85.3031 63.8757 85.6512C64.3554 86.1836 64.8758 86.6779 65.4321 87.1297C66.1797 87.7041 66.8154 88.411 67.3075 89.2152C67.8656 90.2012 68.1201 91.3301 68.039 92.4602C67.8333 93.7584 67.4674 95.0261 66.9495 96.2343C66.7043 96.9266 66.5551 97.6492 66.506 98.382C66.4389 99.1703 66.5981 99.9613 66.9651 100.662C67.3918 101.373 68.056 101.911 68.8405 102.18C69.6007 102.429 70.3821 102.609 71.175 102.716C71.9521 102.816 72.7131 103.014 73.4395 103.308C74.1308 103.611 74.759 104.041 75.2915 104.576C75.7943 105.077 76.1874 105.676 76.446 106.337C76.7045 106.997 76.8229 107.704 76.7934 108.413C76.7545 109.782 75.9374 110.895 75.4238 112.047C75.1624 112.613 75.0068 113.222 74.9647 113.844C74.9302 114.435 75.1037 115.018 75.4549 115.494C75.7575 115.897 76.1678 116.207 76.6387 116.387C77.1095 116.568 77.6217 116.611 78.1163 116.513C78.4801 116.42 78.8181 116.245 79.1051 116.002C79.3921 115.76 79.6206 115.456 79.7738 115.113C79.9742 114.689 80.0524 114.217 79.9994 113.751C79.9831 113.603 79.9438 113.459 79.8827 113.323Z" fill="#263238"/>
<path d="M114.402 199.007L111.009 193.809L105.484 191.038L105.282 190.89C104.395 190.249 103.376 189.811 102.3 189.61C101.224 189.408 100.116 189.447 99.0568 189.723C96.8156 190.322 93.8119 191.069 91.2128 191.513L85.2676 189.887V201.458L115.235 199.567L114.402 199.007Z" fill="#FFBE9D"/>
<path d="M114.2 198.689C113.817 198.263 113.392 197.877 112.931 197.537C112.153 196.86 110.986 195.981 109.717 194.946L108.527 194.028H108.48C107.251 193.794 106.185 193.608 105.422 193.491C105.022 193.395 104.611 193.353 104.2 193.366C104.578 193.533 104.975 193.651 105.383 193.717C106.161 193.896 107.188 194.129 108.41 194.378L108.34 194.339L109.453 195.234C110.721 196.23 111.889 197.109 112.737 197.732C113.183 198.11 113.675 198.431 114.2 198.689Z" fill="#EB996E"/>
<path d="M111.866 199.699C110.492 198.732 109.052 197.863 107.555 197.1L106.504 196.524H106.465C105.19 196.402 103.907 196.381 102.629 196.462C103.886 196.707 105.161 196.85 106.442 196.89H106.364L107.415 197.474C108.84 198.327 110.328 199.071 111.866 199.699Z" fill="#EB996E"/>
<path d="M149.28 166.206C148.794 165.934 148.226 165.849 147.681 165.967C147.137 166.084 146.654 166.396 146.323 166.844L122.2 199.528L84.0151 200.041C82.4587 200.135 80.6378 203.216 82.0074 204.71L125.126 204.119L150.027 169.529C150.216 169.268 150.347 168.97 150.412 168.655C150.477 168.339 150.474 168.013 150.403 167.699C150.332 167.385 150.196 167.089 150.002 166.832C149.809 166.575 149.563 166.361 149.28 166.206Z" fill="#E0E0E0"/>
<path d="M149.28 166.206C149.347 166.239 149.412 166.275 149.474 166.315C149.655 166.431 149.815 166.575 149.949 166.743C150.221 167.071 150.398 167.467 150.461 167.888C150.524 168.309 150.471 168.739 150.307 169.132C150.001 169.672 149.66 170.192 149.287 170.689L148.011 172.478L144.86 176.906L125.265 204.251L125.219 204.329H125.125L82.7927 204.928H82.0145H81.929L81.8667 204.858C81.6806 204.646 81.5381 204.4 81.4473 204.133C81.3565 203.865 81.3192 203.583 81.3375 203.302C81.3598 202.76 81.4978 202.229 81.7422 201.745C81.9745 201.274 82.2879 200.847 82.6682 200.485C83.048 200.085 83.565 199.843 84.1156 199.808L90.0141 199.73L101.414 199.582L122.199 199.318L122.059 199.388C129.911 188.812 136.455 179.996 141.039 173.809L146.385 166.665C146.646 166.363 146.981 166.132 147.357 165.996C147.733 165.859 148.138 165.822 148.533 165.887C148.812 165.918 149.079 166.017 149.311 166.175C149.061 166.067 148.8 165.989 148.533 165.942C148.152 165.884 147.763 165.926 147.404 166.062C147.044 166.198 146.725 166.425 146.478 166.72L141.21 173.918L122.355 199.598L122.3 199.668H122.215L101.43 199.971L90.0375 200.127L84.139 200.212C83.6862 200.242 83.2624 200.446 82.9561 200.78C82.6093 201.108 82.3245 201.495 82.1157 201.924C81.8627 202.316 81.7328 202.774 81.7425 203.24C81.7522 203.706 81.9011 204.158 82.1702 204.539L82.0223 204.477H82.8005L125.133 203.924L124.993 203.994C133.125 192.758 139.926 183.349 144.704 176.758C145.895 175.116 146.969 173.646 147.895 172.362L149.194 170.587C149.567 170.111 149.911 169.612 150.221 169.093C150.391 168.714 150.453 168.296 150.4 167.885C150.348 167.473 150.184 167.083 149.926 166.759C149.738 166.545 149.52 166.359 149.28 166.206Z" fill="#263238"/>
<path d="M33.6208 128.364C31.239 128.73 29.0114 129.769 27.2009 131.36C24.8638 133.73 23.1061 136.609 22.065 139.772C20.7888 143.592 21.3646 158.681 21.3646 163.054C21.3646 167.428 22.4696 183.839 23.0221 186.571C23.5746 189.302 22.6642 193.364 21.4035 196.002C19.1313 200.741 22.6719 203.169 22.6719 203.169L69.5256 202.819L69.3389 201.076C69.012 198.025 70.117 194.928 68.9887 192.096C67.269 187.944 66.5313 183.452 66.8332 178.968C67.4324 171.186 69.7669 165.833 68.3272 161.304C66.1484 154.393 58.9347 138.682 50.2114 131.974C50.2114 131.974 43.3402 130.504 41.7838 129.959C38.2432 128.722 36.3755 128.052 33.6208 128.364Z" fill="#27A17A"/>
<path d="M88.6992 188.541L48.6779 180.184L47.6429 145.431C47.6429 145.431 46.2422 131.276 39.1453 129.961L22.0645 151.228C23.0138 161.944 22.1501 182.223 27.0759 190.051C32.0017 197.88 36.7874 204.136 48.9191 203.584C61.0508 203.031 87.781 202.766 87.781 202.766L88.6992 188.541Z" fill="#27A17A"/>
<path d="M48.7559 180.322C48.8492 180.392 47.8921 181.645 47.0828 183.435C46.2735 185.225 45.9156 186.711 45.7988 186.688C45.8374 185.491 46.1516 184.319 46.7171 183.264C47.1518 182.135 47.851 181.126 48.7559 180.322Z" fill="#263238"/>
<g opacity="0.3">
<path d="M47.3623 143.952C51.3621 156.231 50.475 175.172 58.1166 182.16L48.6774 180.183C48.8552 177.965 48.8812 175.737 48.7552 173.514C47.9771 163.803 47.8915 153.92 47.3623 143.944" fill="black"/>
</g>
<path d="M46.4755 139.562C46.7698 140.477 47.0037 141.41 47.1758 142.355C47.4017 143.492 47.5654 144.64 47.6661 145.795C47.7984 147.157 47.8217 148.736 47.884 150.503C48.1096 157.6 48.4365 167.77 48.8333 180.182L48.7088 180.027L88.7457 188.345L88.9091 188.384V188.555C88.6134 193.108 88.3022 197.893 87.9909 202.78V202.967H87.8041L82.9406 203.022C75.9837 203.115 69.1903 203.216 62.6303 203.356C59.3516 203.424 56.1352 203.509 52.981 203.613C49.8683 203.699 46.7556 203.994 43.7052 203.52C42.2151 203.311 40.7533 202.935 39.3474 202.399C37.9907 201.851 36.7031 201.146 35.511 200.298C33.2763 198.622 31.3266 196.596 29.737 194.298C28.9588 193.201 28.1807 192.112 27.5192 191.014L27.0056 190.197C26.8422 189.925 26.6944 189.629 26.5465 189.349C26.3986 189.069 26.243 188.781 26.0952 188.501C25.9473 188.221 25.8617 187.917 25.7528 187.622C24.9093 185.379 24.3093 183.051 23.963 180.68C23.3435 176.617 22.9512 172.523 22.7879 168.416C22.609 164.798 22.5311 161.685 22.4378 159.133C22.3444 156.58 22.2666 154.612 22.1965 153.273C22.1965 152.612 22.1265 152.106 22.1031 151.717C22.0798 151.328 22.1031 151.195 22.1031 151.195C22.1031 151.195 22.1031 151.367 22.1654 151.709C22.2276 152.051 22.2354 152.573 22.2977 153.265C22.3911 154.604 22.5078 156.58 22.6167 159.133C22.7257 161.685 22.8346 164.79 23.0292 168.409C23.2118 172.501 23.6222 176.579 24.2587 180.626C24.6114 182.976 25.214 185.282 26.0562 187.505L26.3986 188.369L26.8422 189.194C26.9901 189.474 27.1301 189.754 27.2936 190.026L27.8149 190.843C28.5075 191.933 29.2468 193.014 30.0249 194.104C31.5984 196.365 33.5242 198.359 35.7289 200.01C36.9008 200.84 38.1678 201.528 39.503 202.057C40.8823 202.579 42.3151 202.947 43.7752 203.154C46.7323 203.613 49.8216 203.317 52.981 203.232C56.1403 203.146 59.3542 203.037 62.6381 202.959C69.1981 202.812 75.9915 202.703 82.9484 202.617L87.8197 202.563L87.6174 202.757C87.9364 197.87 88.2477 193.084 88.5434 188.532L88.699 188.734L48.6777 180.346H48.5532V180.221C48.2108 167.77 47.9306 157.654 47.7361 150.542C47.6894 148.768 47.6816 147.196 47.5649 145.834C47.4765 144.683 47.3284 143.538 47.1213 142.402C46.9579 141.476 46.7945 140.776 46.6856 140.309C46.6311 140.083 46.5844 139.904 46.5533 139.78C46.5227 139.709 46.4967 139.636 46.4755 139.562Z" fill="#263238"/>
<path d="M63.5879 206.563C63.5879 206.563 129.904 200.252 134.822 204.766C139.74 209.279 143.833 219.1 142.199 222.376C140.565 225.652 136.868 236.717 136.868 236.717L106.341 229.753L63.5879 206.563Z" fill="#263238"/>
<path d="M106.324 236.717L94.0215 255.494L108.503 264.871L124.207 240.794L106.324 236.717Z" fill="#FFBE9D"/>
<path d="M23.7919 203.123C23.7919 203.123 18.0568 229.34 27.4804 239.993C36.9041 250.646 50.8256 250.646 65.175 248.599C79.5245 246.553 113.554 245.814 113.554 245.814C113.554 245.814 112.037 255.152 110.924 265.719C109.811 276.287 109.585 283.01 109.585 283.01L130.892 284.784C130.892 284.784 142.767 248.646 144.595 241.487C146.424 234.328 145.801 224.717 139.49 221.153C134.137 218.126 91.9286 206.423 71.7195 204.687L69.525 202.796L23.7919 203.123Z" fill="#263238"/>
<path d="M123.982 237.135C123.982 237.205 123.149 237.322 121.888 237.781C121.15 238.046 120.436 238.377 119.756 238.769C118.924 239.253 118.142 239.819 117.422 240.458C116.714 241.105 116.071 241.819 115.499 242.59C115.043 243.228 114.642 243.905 114.301 244.613C113.717 245.819 113.523 246.644 113.445 246.621C113.367 246.597 113.445 246.411 113.531 246.029C113.648 245.495 113.818 244.974 114.037 244.473C114.352 243.733 114.741 243.027 115.196 242.364C115.763 241.552 116.418 240.806 117.149 240.139C117.889 239.482 118.698 238.908 119.562 238.427C120.267 238.04 121.01 237.727 121.779 237.493C122.286 237.329 122.807 237.211 123.336 237.143C123.548 237.099 123.768 237.096 123.982 237.135Z" fill="#455A64"/>
<path d="M121.444 215.31C122.004 213.745 122.955 212.349 124.207 211.256C123.859 212 123.42 212.698 122.9 213.334C122.496 214.049 122.007 214.713 121.444 215.31Z" fill="#455A64"/>
<path d="M145.49 231.448C145.49 231.448 145.49 231.386 145.428 231.246L145.28 230.639C145.156 230.11 144.961 229.324 144.642 228.304C144.249 227.105 143.727 225.952 143.086 224.865C142.299 223.404 141.108 222.201 139.654 221.402C135.663 219.667 131.558 218.208 127.367 217.036C122.659 215.628 117.46 214.134 111.974 212.686C100.994 209.768 90.9249 207.683 83.5867 206.461C79.9215 205.839 76.9411 205.418 74.879 205.13L72.5055 204.804C72.2487 204.804 72.0464 204.741 71.8908 204.71L71.6807 204.671H71.8908L72.5133 204.726L74.8945 204.975C76.9645 205.216 79.9526 205.59 83.6334 206.181C93.2248 207.758 102.731 209.817 112.114 212.352C117.608 213.807 122.807 215.317 127.514 216.741C131.711 217.924 135.817 219.407 139.802 221.176C141.296 222.009 142.514 223.262 143.304 224.779C143.928 225.888 144.421 227.066 144.774 228.289C145.07 229.293 145.249 230.086 145.35 230.623C145.389 230.872 145.428 231.075 145.451 231.238C145.475 231.306 145.488 231.377 145.49 231.448Z" fill="#455A64"/>
<path d="M111.258 262.754L112.083 260.972C105.897 259.364 100.4 255.793 96.4182 250.794L89.3057 261.136L121.304 282.442C123.179 279.36 111.258 262.754 111.258 262.754Z" fill="#27A17A"/>
<path d="M89.3057 261.134L91.041 258.605L121.125 280.051C121.125 280.051 122.129 281.608 121.289 282.464L89.3057 261.134Z" fill="#E0E0E0"/>
<path d="M97.5622 258.957C97.4021 259.172 97.1652 259.316 96.9011 259.359C96.6371 259.403 96.3664 259.342 96.1459 259.191C96.0379 259.118 95.9458 259.023 95.8749 258.914C95.804 258.804 95.7558 258.682 95.7333 258.553C95.7108 258.425 95.7144 258.293 95.7439 258.166C95.7733 258.039 95.828 257.919 95.9047 257.813C96.0622 257.598 96.2979 257.453 96.5613 257.409C96.8246 257.365 97.0946 257.427 97.3132 257.58C97.4218 257.652 97.5147 257.746 97.5864 257.855C97.658 257.965 97.7069 258.087 97.7301 258.216C97.7534 258.344 97.7505 258.476 97.7216 258.604C97.6928 258.731 97.6386 258.851 97.5622 258.957Z" fill="#E0E0E0"/>
<path d="M110.659 262.195C110.385 262.156 110.12 262.064 109.881 261.923C109.183 261.628 108.574 261.156 108.115 260.553C107.968 260.343 107.848 260.116 107.757 259.876C107.639 259.61 107.589 259.319 107.609 259.028C107.623 258.842 107.698 258.665 107.821 258.525C107.945 258.385 108.111 258.288 108.294 258.25C108.474 258.217 108.659 258.22 108.838 258.258C109.017 258.297 109.186 258.371 109.336 258.476C109.912 258.9 110.361 259.474 110.635 260.135C110.91 260.796 110.999 261.519 110.893 262.226L110.395 262.063C110.527 261.808 110.686 261.568 110.869 261.347C111.362 260.756 112.003 260.307 112.726 260.046C113.45 259.785 114.23 259.721 114.986 259.861C115.186 259.891 115.378 259.965 115.546 260.079C115.638 260.144 115.714 260.231 115.766 260.331C115.819 260.431 115.848 260.542 115.85 260.655C115.848 260.834 115.81 261.012 115.738 261.176C115.666 261.341 115.561 261.489 115.429 261.612C115.018 262.027 114.497 262.319 113.928 262.452C113.12 262.617 112.285 262.601 111.484 262.405C111.189 262.371 110.901 262.295 110.628 262.18C110.922 262.134 111.221 262.134 111.515 262.18C112.292 262.3 113.086 262.266 113.85 262.079C114.34 261.941 114.784 261.672 115.134 261.3C115.305 261.128 115.408 260.898 115.422 260.655C115.422 260.452 115.258 260.359 114.931 260.312C114.264 260.201 113.579 260.267 112.945 260.501C112.31 260.736 111.748 261.132 111.313 261.651C111.153 261.843 111.015 262.051 110.9 262.273C110.872 262.329 110.825 262.373 110.767 262.397C110.71 262.421 110.645 262.425 110.586 262.406C110.526 262.387 110.475 262.348 110.441 262.295C110.408 262.242 110.394 262.179 110.402 262.118C110.492 261.505 110.419 260.879 110.189 260.304C109.96 259.728 109.582 259.224 109.095 258.841C108.667 258.507 108.083 258.631 108.052 259.044C108.059 259.5 108.194 259.945 108.441 260.328C108.844 260.905 109.378 261.38 109.998 261.713C110.434 262.016 110.683 262.156 110.659 262.195Z" fill="#263238"/>
<path d="M177.342 57.978C179.777 42.8121 169.456 28.5441 154.29 26.1095C139.125 23.6749 124.857 33.9956 122.422 49.1615C119.987 64.3274 130.308 78.5954 145.474 81.03C160.64 83.4646 174.908 73.1439 177.342 57.978Z" fill="#455A64"/>
<path d="M152.507 54.2088C153.863 53.6445 154.991 52.5985 155.694 51.251C156.398 49.9035 156.634 48.3391 156.362 46.8276C156.09 45.316 155.327 43.952 154.204 42.9708C153.081 41.9896 151.669 41.4528 150.211 41.4528C148.753 41.4528 147.341 41.9896 146.218 42.9708C145.095 43.952 144.331 45.316 144.059 46.8276C143.787 48.3391 144.023 49.9035 144.727 51.251C145.431 52.5985 146.558 53.6445 147.914 54.2088C138.292 55.6468 138.729 66.0116 138.729 66.0116L161.486 66.1166C161.486 66.1166 162.045 55.6387 152.507 54.2088Z" fill="#263238"/>
</g>
<defs>
<clipPath id="clip0_9738_419806">
<rect width="284.583" height="260" fill="white" transform="translate(0.560547 0.844421)"/>
</clipPath>
<clipPath id="clip1_9738_419806">
<rect width="9.1314" height="9.1314" fill="white" transform="translate(146.41 105.843)"/>
</clipPath>
<clipPath id="clip2_9738_419806">
<rect width="9.1314" height="9.1314" fill="white" transform="translate(170.04 105.843)"/>
</clipPath>
<clipPath id="clip3_9738_419806">
<rect width="9.1314" height="9.1314" fill="white" transform="translate(227.342 247.471)"/>
</clipPath>
</defs>
</svg>
