<svg width="285" height="261" viewBox="0 0 285 261" fill="none" xmlns="http://www.w3.org/2000/svg">
<g clip-path="url(#clip0_9738_481466)">
<g clip-path="url(#clip1_9738_481466)">
<rect width="284.583" height="303.556" transform="translate(0.31665 -20.9333)" fill="#1A1A1A"/>
<path d="M-0.40432 235.22C12.7245 224.472 14.4225 206.411 12.5632 190.455C12.2502 187.79 12.3166 184.953 10.8367 182.714C9.35689 180.476 6.22647 179.119 3.89289 180.447C1.99567 181.548 1.27473 183.929 0.307144 185.93C-0.993729 188.619 -3.02538 190.888 -5.55527 192.476C-7.20586 193.5 -9.2928 194.212 -11.0762 193.424C-13.5141 192.343 -14.0453 189.184 -14.2445 186.528C-14.624 181.576 -14.9971 176.621 -15.3639 171.663C-15.4263 168.993 -15.9197 166.35 -16.8248 163.837C-17.8682 161.39 -19.9078 159.198 -22.5164 158.705C-25.1251 158.212 -28.2081 159.919 -28.5117 162.566C-28.5239 163.676 -28.4605 164.785 -28.3219 165.886C-28.268 166.437 -28.3757 166.991 -28.6318 167.481C-28.8878 167.971 -29.2812 168.376 -29.7638 168.647C-30.8073 169.045 -31.9456 168.381 -32.8184 167.698C-35.816 165.251 -37.9883 161.949 -40.0278 158.658C-42.0673 155.366 -44.0689 152.017 -46.8293 149.266C-49.5898 146.515 -53.2704 144.523 -57.1407 144.618C-61.0111 144.713 -64.9288 147.417 -65.5929 151.259C-66.2569 155.1 -63.7431 158.705 -61.087 161.532C-57.131 165.708 -52.5944 169.293 -47.6167 172.175C-46.6628 172.601 -45.8688 173.318 -45.3495 174.224C-44.6191 175.951 -46.1748 177.848 -47.8918 178.579C-49.8459 179.404 -52.0467 179.375 -54.1242 179.793C-56.2016 180.21 -58.4024 181.311 -59.038 183.331C-59.9107 186.177 -57.3779 188.795 -54.9684 190.474C-50.1127 193.836 -44.7204 196.348 -39.0223 197.902C-36.9828 198.452 -34.8484 198.907 -33.1409 200.15C-31.4334 201.393 -30.295 203.698 -31.0824 205.652C-31.8697 207.606 -34.3172 208.403 -36.4231 208.194C-38.529 207.985 -40.4736 207.027 -42.5132 206.458C-46.3076 205.386 -51.0507 206.031 -53.1945 209.38C-53.8285 210.522 -54.1854 211.796 -54.2364 213.101C-54.2875 214.406 -54.0314 215.705 -53.4886 216.893C-52.3844 219.255 -50.8166 221.371 -48.8783 223.116C-42.4215 229.6 -34.3639 234.261 -25.5235 236.624C-16.7015 238.853 -8.68569 238.996 -0.40432 235.22Z" fill="#EBEBEB"/>
<path d="M0.74337 247.068C-0.62022 239.71 -2.69476 232.502 -5.45106 225.544C-8.85696 217.046 -12.7561 208.754 -17.1285 200.71L-20.5529 194.373C-21.6723 192.286 -22.7822 190.218 -23.9964 188.264C-26.3233 184.518 -28.8569 180.905 -31.5853 177.44C-34.175 174.111 -36.7647 171.037 -39.1742 168.191C-41.5837 165.346 -43.9172 162.737 -46.1654 160.441C-49.6638 156.812 -53.4413 153.463 -57.4634 150.424C-58.8863 149.343 -60.0247 148.527 -60.793 148.015L-61.6752 147.407C-61.776 147.338 -61.8805 147.275 -61.9883 147.218C-61.9883 147.218 -61.8934 147.303 -61.7037 147.445L-60.8405 148.081C-60.0816 148.631 -58.9432 149.447 -57.5583 150.547C-53.5822 153.626 -49.8436 157 -46.3741 160.641C-44.1639 162.936 -41.8493 165.554 -39.4208 168.41C-36.9924 171.265 -34.4311 174.338 -31.8319 177.668C-29.1045 181.127 -26.571 184.734 -24.243 188.473C-23.0383 190.417 -21.9379 192.476 -20.8186 194.563L-17.4225 200.909C-13.0865 208.942 -9.20377 217.211 -5.79256 225.677C-3.03302 232.61 -0.936703 239.788 0.468281 247.116" fill="#E0E0E0"/>
<path d="M-5.88721 224.937C-5.81261 224.794 -5.74918 224.645 -5.69748 224.491C-5.56467 224.159 -5.4129 223.732 -5.21369 223.211C-4.79631 222.091 -4.26508 220.45 -3.56311 218.468C-2.22556 214.417 -0.546524 208.763 1.23686 202.493C3.02025 196.223 4.64238 190.569 5.91352 186.499C6.54909 184.507 7.06134 182.876 7.44078 181.68C7.61153 181.149 7.74434 180.732 7.84869 180.371C7.90694 180.221 7.9483 180.066 7.972 179.907C7.88741 180.043 7.82047 180.19 7.77279 180.343C7.64948 180.684 7.48821 181.111 7.289 181.633C6.87161 182.752 6.34039 184.384 5.64791 186.376C4.30088 190.427 2.62183 196.08 0.84793 202.351C-0.925972 208.621 -2.52912 214.294 -3.8382 218.344C-4.46429 220.336 -4.98603 221.968 -5.35599 223.154C-5.52674 223.694 -5.65954 224.102 -5.77337 224.472C-5.82641 224.623 -5.86454 224.779 -5.88721 224.937Z" fill="#E0E0E0"/>
<path d="M344.947 245.597C344.947 245.74 254.212 245.854 142.324 245.854C30.435 245.854 -60.3281 245.759 -60.3281 245.597C-60.3281 245.436 30.3876 245.332 142.324 245.332C254.26 245.332 344.947 245.474 344.947 245.597Z" fill="#263238"/>
<path d="M39.9782 185.352L11.3396 156.58L25.7395 130.133C40.1394 111.692 70.6278 112.878 70.6278 112.878C85.669 111.855 100.779 112.783 115.582 115.638C139.801 120.381 137.846 136.375 137.846 136.375L141.091 195.73L144.572 244.061L55.2603 245.864L39.9782 185.39" fill="#27A17A"/>
<path d="M88.0916 243.037L8.09526 243.985C3.68841 244.037 -0.659147 242.967 -4.53908 240.877C-8.41901 238.786 -11.704 235.744 -14.0854 232.036C-16.4669 228.328 -17.8667 224.075 -18.1534 219.677C-18.4401 215.279 -17.6043 210.881 -15.7244 206.895L18.4826 143.461L49.6444 164.52L28.386 208.602L93.1383 209.759L88.0916 243.037Z" fill="#27A17A"/>
<path d="M135.02 126.699L199.212 225.81L161.761 228.257C161.761 228.257 139.393 193.017 139.895 193.737C140.787 195.066 135.02 126.699 135.02 126.699Z" fill="#27A17A"/>
<path d="M48.0319 170.221C48.0342 170.047 48.063 169.875 48.1172 169.709C48.2121 169.33 48.3164 168.855 48.4587 168.267C48.7528 167.025 49.1892 165.222 49.635 162.984C50.0809 160.745 50.5836 158.051 50.8967 155.053C51.282 151.804 51.282 148.522 50.8967 145.273C50.382 142.052 49.2584 138.958 47.586 136.157C46.242 133.851 44.6516 131.697 42.843 129.735C41.6238 128.393 40.3251 127.126 38.9536 125.94C38.4309 125.531 37.9305 125.094 37.4548 124.631C37.6092 124.708 37.7555 124.8 37.8912 124.906C38.1568 125.105 38.5837 125.381 39.077 125.788C40.5034 126.915 41.8476 128.142 43.0991 129.46C44.9688 131.408 46.611 133.562 47.9939 135.882C49.7251 138.726 50.8851 141.88 51.4089 145.169C51.7845 148.457 51.759 151.78 51.333 155.063C51.0126 157.734 50.5567 160.387 49.967 163.012C49.4737 165.26 49.0184 167.053 48.6295 168.286C48.4587 168.903 48.3069 169.377 48.2026 169.7C48.1626 169.879 48.1055 170.053 48.0319 170.221Z" fill="#263238"/>
<path d="M45.4516 173.636C45.3146 174.13 45.1304 174.61 44.9014 175.069C44.5219 176.017 43.9528 177.289 43.2223 178.863C41.7709 182.079 39.7125 186.5 37.3409 191.337C34.9694 196.175 32.7307 200.511 31.0706 203.669C30.2358 205.225 29.5528 206.515 29.069 207.341C28.838 207.8 28.5716 208.241 28.2722 208.659C28.4426 208.175 28.652 207.705 28.8983 207.255C29.3821 206.307 30.0082 205.035 30.7955 203.508L36.933 191.176C39.2571 186.367 41.3725 182.022 42.9472 178.768C43.6871 177.241 44.2943 175.97 44.7686 174.974C44.9584 174.51 45.1869 174.062 45.4516 173.636Z" fill="#263238"/>
<path d="M88.0916 243.037C88.0916 243.037 88.0916 242.98 88.0916 242.876C88.0916 242.771 88.0916 242.581 88.0916 242.382C88.139 241.927 88.2054 241.291 88.2813 240.485C88.471 238.796 88.7366 236.397 89.0686 233.37C89.7706 227.233 90.7761 218.601 91.9145 208.422L92.1421 208.669H68.5122L27.2382 208.602L14.7165 208.526L11.311 208.479H10.4193H10.1157C10.2165 208.467 10.3185 208.467 10.4193 208.479H11.311L14.7165 208.431L27.2382 208.356L68.5786 208.289H92.2085H92.4647V208.536C91.2125 218.705 90.1595 227.337 89.4006 233.465C89.0212 236.482 88.7082 238.882 88.452 240.57C88.3508 241.367 88.2655 242 88.1959 242.468L88.12 242.951C88.1105 242.98 88.101 243.037 88.0916 243.037Z" fill="#263238"/>
<path d="M28.9458 209.304C28.3729 208.671 27.8406 208.003 27.3522 207.303C24.7956 204.093 21.6298 201.42 18.0368 199.439C17.2694 199.067 16.5222 198.656 15.7981 198.205C16.6401 198.403 17.4487 198.722 18.1981 199.154C21.9402 201.003 25.1764 203.734 27.6273 207.113C28.1658 207.779 28.6096 208.516 28.9458 209.304Z" fill="#263238"/>
<path d="M142.419 215.584C142.349 215.314 142.305 215.037 142.286 214.759C142.219 214.18 142.134 213.393 142.02 212.397C141.802 210.348 141.508 207.379 141.195 203.707C140.54 196.356 139.791 186.187 139.127 174.955C138.463 163.723 137.998 153.535 137.733 146.165C137.6 142.475 137.505 139.524 137.467 137.428C137.467 136.432 137.467 135.645 137.42 135.056C137.405 134.781 137.405 134.506 137.42 134.231C137.472 134.503 137.501 134.779 137.505 135.056C137.505 135.635 137.581 136.432 137.638 137.428C137.742 139.534 137.884 142.503 138.065 146.146C138.416 153.516 138.937 163.685 139.601 174.927C140.265 186.168 140.967 196.318 141.499 203.679C141.783 207.312 142.011 210.319 142.172 212.387C142.248 213.336 142.305 214.171 142.352 214.749C142.4 215.025 142.422 215.304 142.419 215.584Z" fill="#263238"/>
<path d="M71.0071 161.655C71.0112 161.22 71.0461 160.786 71.1115 160.356C71.2253 159.455 71.3676 158.25 71.5478 156.77C71.9652 153.64 72.4964 149.352 73.1984 144.381L73.5589 144.609L67.4214 148.906L61.1795 153.251L60.7336 153.564L60.8095 153.023C61.5684 148.1 62.2135 143.85 62.7068 140.691C62.9534 139.24 63.1431 138.045 63.2949 137.153C63.3458 136.725 63.4347 136.303 63.5605 135.891C63.5611 136.324 63.523 136.755 63.4467 137.181C63.3328 138.073 63.1905 139.268 63.0008 140.739C62.5739 143.85 61.9763 148.109 61.2933 153.071L60.9328 152.843L67.1652 148.479L73.3122 144.201L73.7581 143.888L73.6822 144.429C72.9517 149.38 72.3162 153.668 71.8608 156.761C71.6237 158.231 71.434 159.436 71.2917 160.327C71.2367 160.778 71.1415 161.222 71.0071 161.655Z" fill="#E0E0E0"/>
<path d="M106.713 165.497C106.371 165.225 106.054 164.924 105.764 164.596C105.148 163.932 104.313 163.05 103.288 161.968L94.8173 152.786L95.2252 152.644C95.026 154.968 94.8173 157.491 94.5991 160.109C94.3809 162.727 94.1533 165.327 93.954 167.698L93.9066 168.248L93.5461 167.84L85.3027 158.544L82.9502 155.831C82.6508 155.521 82.3838 155.18 82.1533 154.816C82.4945 155.106 82.8117 155.423 83.1019 155.765L85.5494 158.383L93.9161 167.556L93.5082 167.698C93.7074 165.336 93.9161 162.775 94.1438 160.109C94.3714 157.444 94.5801 154.968 94.7793 152.644L94.8268 152.103L95.1872 152.501L103.535 161.807L105.916 164.53C106.207 164.831 106.473 165.154 106.713 165.497Z" fill="#E0E0E0"/>
<path d="M124.68 164.226C124.503 164.626 124.287 165.007 124.034 165.365L122.137 168.419L115.364 178.93L115.137 178.569L122.498 177.298L129.992 176.036L130.532 175.942L130.276 176.349L123.351 186.651L121.265 189.63C121.033 189.995 120.773 190.34 120.487 190.664C120.674 190.276 120.89 189.901 121.132 189.545L123.029 186.509L129.812 176.074L130.049 176.435L122.555 177.734L115.165 178.987L114.624 179.072L114.928 178.626L121.843 168.191L123.873 165.203C124.122 164.862 124.391 164.535 124.68 164.226Z" fill="#E0E0E0"/>
<path d="M100.784 182.61C100.606 183.006 100.39 183.384 100.139 183.739L98.2418 186.803L91.4782 197.304L91.2411 196.944L98.6213 195.673L106.125 194.401L106.665 194.316L106.352 194.762L99.4276 205.073L97.3881 208.033C97.1616 208.398 96.9012 208.741 96.6102 209.058C96.8001 208.67 97.0156 208.296 97.2553 207.938C97.7486 207.179 98.3936 206.164 99.1525 204.912L105.935 194.477L106.172 194.838L98.6782 196.137L91.2885 197.38L90.7478 197.475L91.0514 197.02L97.9667 186.585C98.8015 185.352 99.4845 184.346 100.006 183.597C100.241 183.25 100.501 182.92 100.784 182.61Z" fill="#E0E0E0"/>
<path d="M152.417 164.017C152.229 164.409 152.013 164.786 151.772 165.146L149.875 168.21L143.111 178.711L142.874 178.351L150.254 177.08L157.758 175.809L158.298 175.723L157.995 176.169L151.06 186.481C150.226 187.695 149.543 188.691 149.021 189.431C148.796 189.8 148.536 190.147 148.243 190.465C148.434 190.077 148.653 189.703 148.898 189.345L150.795 186.319L157.577 175.885L157.815 176.245L150.321 177.535L142.931 178.787L142.4 178.882L142.694 178.427L149.609 167.992L151.649 165.004C151.872 164.651 152.129 164.321 152.417 164.017Z" fill="#E0E0E0"/>
<path d="M182.203 211.771C181.864 211.513 181.547 211.227 181.255 210.917L178.656 208.412L169.729 199.666L170.128 199.505C170.052 201.839 169.976 204.362 169.89 206.99C169.805 209.617 169.701 212.226 169.615 214.578V215.129L169.226 214.74L160.537 205.87L158.052 203.281C157.743 202.987 157.458 202.67 157.198 202.332C157.536 202.591 157.853 202.877 158.147 203.186L160.727 205.681L169.549 214.427L169.141 214.588C169.217 212.216 169.302 209.655 169.388 206.999C169.473 204.343 169.577 201.848 169.663 199.515V198.974L170.042 199.353L178.836 208.232L181.35 210.831C181.66 211.12 181.946 211.434 182.203 211.771Z" fill="#E0E0E0"/>
<path d="M31.5164 148.783C31.3307 149.175 31.1151 149.553 30.8713 149.912L28.9741 152.976L22.2105 163.486L21.9733 163.126L29.3535 161.845L36.857 160.584L37.3977 160.489L37.0942 160.944L30.1598 171.246L28.1298 174.206C27.8994 174.568 27.6392 174.911 27.352 175.23C27.5338 174.842 27.7496 174.47 27.997 174.12L29.8942 171.085C31.6112 168.457 33.9638 164.852 36.6768 160.65L36.914 161.01L29.4199 162.31L22.0302 163.562L21.499 163.647L21.7931 163.202C24.5725 159.028 26.963 155.423 28.7085 152.767L30.748 149.779C30.9775 149.427 31.2344 149.094 31.5164 148.783Z" fill="#E0E0E0"/>
<path d="M-5.9917 219.72C-5.67209 220.008 -5.37993 220.326 -5.11898 220.669L-2.80437 223.448L5.05962 233.152L4.64223 233.266C4.98373 230.961 5.3442 228.457 5.73314 225.848C6.12207 223.239 6.50151 220.669 6.8525 218.325L6.92839 217.785L7.26989 218.221L14.9157 228.011L17.088 230.857C17.364 231.186 17.6115 231.538 17.8279 231.91C17.5164 231.616 17.2278 231.299 16.9647 230.961L14.688 228.191L6.95684 218.506L7.37424 218.401C7.03274 220.744 6.66277 223.287 6.27384 225.924C5.88491 228.561 5.51496 231.027 5.16397 233.333L5.08808 233.873L4.74658 233.446L-2.99408 223.638L-5.20435 220.792C-5.49059 220.453 -5.75364 220.095 -5.9917 219.72Z" fill="#E0E0E0"/>
<path d="M79.668 173.788C79.2431 173.879 78.8117 173.936 78.3778 173.959L74.7731 174.272L62.3084 175.221L62.4601 174.822L67.9242 179.945L73.4546 185.162L73.853 185.541H73.3028L60.9044 186.224L57.3187 186.376C56.8894 186.413 56.4578 186.413 56.0286 186.376C56.451 186.292 56.879 186.238 57.3092 186.215L60.8855 185.93L73.2743 185.077L73.132 185.475L67.5827 180.277L62.1376 175.135L61.7392 174.756H62.2799L74.7542 174.006L78.3589 173.826C78.7937 173.78 79.2313 173.768 79.668 173.788Z" fill="#E0E0E0"/>
<path d="M58.6467 221.598C58.9632 221.896 59.261 222.213 59.5384 222.547L61.9005 225.279L69.9731 234.822L69.5558 234.936C69.8498 232.621 70.1724 230.117 70.5044 227.508C70.8364 224.899 71.1779 222.31 71.453 219.967L71.5289 219.416L71.8704 219.843L79.7249 229.472L81.9541 232.317C82.2304 232.648 82.484 232.996 82.713 233.361C82.3931 233.07 82.098 232.753 81.8308 232.412L79.4972 229.69L71.5289 220.204L71.9368 220.08C71.6427 222.433 71.3202 224.975 70.9882 227.622C70.6561 230.268 70.3241 232.744 70.0395 235.059L69.9637 235.6L69.6222 235.182L61.6823 225.525L59.4246 222.68C59.1303 222.346 58.8697 221.983 58.6467 221.598Z" fill="#E0E0E0"/>
<path d="M21.0724 186.538C20.6479 186.631 20.2164 186.688 19.7823 186.708L16.187 187.012L3.72229 187.96L3.86458 187.553L9.33807 192.685L14.8685 197.902L15.2669 198.281H14.7167L2.31835 198.964L-1.2674 199.116C-1.6872 199.152 -2.10926 199.152 -2.52905 199.116C-2.10766 199.025 -1.67917 198.971 -1.24843 198.955L2.32784 198.67L14.7167 197.807L14.5744 198.215L9.02503 193.017L3.57052 187.875L3.18158 187.496H3.72229L16.1965 186.737L19.8013 186.566C20.2237 186.525 20.6486 186.515 21.0724 186.538Z" fill="#E0E0E0"/>
<path d="M53.3535 220.526C52.9288 220.616 52.4972 220.67 52.0634 220.688L48.4587 221.001L35.9939 221.949L36.1457 221.541L41.6097 226.673L47.1401 231.891L47.5385 232.27H46.9978L34.59 232.944L31.0042 233.105C30.575 233.142 30.1433 233.142 29.7141 233.105C30.1355 233.014 30.564 232.96 30.9947 232.944L34.571 232.659L46.9599 231.796L46.8176 232.204L41.2682 227.005L35.8232 221.883L35.4247 221.513H35.9655L48.4397 220.754L52.0539 220.583C52.4845 220.525 52.9195 220.506 53.3535 220.526Z" fill="#E0E0E0"/>
<path d="M126.216 134.051C125.791 134.142 125.36 134.199 124.926 134.222L121.321 134.525L108.866 135.474L109.008 135.075L114.472 140.198L120.003 145.415L120.401 145.795H119.861L107.453 146.478L103.867 146.629C103.438 146.667 103.006 146.667 102.577 146.629C102.998 146.539 103.427 146.485 103.858 146.468L107.434 146.184L119.832 145.33L119.68 145.728L114.15 140.539L108.705 135.398L108.307 135.018H108.847L121.321 134.26L124.936 134.089C125.361 134.044 125.789 134.031 126.216 134.051Z" fill="#E0E0E0"/>
<path d="M90.7763 220.526C90.7763 220.526 106.732 215.925 112.016 214.578C114.074 214.057 122.887 218.705 128.977 222.575C128.977 222.575 137.363 227.546 136.689 229.073C135.94 230.762 132.895 230.42 127.914 228.125C127.914 228.125 129.641 233.124 126.254 233.01C126.254 233.01 127.933 238.417 124.765 238.977C121.597 239.536 120.857 232.64 118.068 232.27C115.279 231.9 109.53 231.521 109.53 231.521C109.53 231.521 104.721 239.489 100.993 240.058C97.2648 240.627 88.6609 239.612 88.6609 239.612L90.7763 220.526Z" fill="#FFBE9D"/>
<path d="M118.011 221.627C119.573 222.322 121.066 223.164 122.469 224.14C123.959 224.983 125.363 225.968 126.662 227.081C123.607 225.551 120.709 223.724 118.011 221.627Z" fill="#EB996E"/>
<path d="M117.072 224.729C118.894 225.302 120.665 226.029 122.365 226.901C124.122 227.615 125.817 228.475 127.431 229.472C125.607 228.904 123.836 228.181 122.137 227.309C120.377 226.598 118.682 225.735 117.072 224.729Z" fill="#EB996E"/>
<path d="M118.779 232.137C121.189 232.128 123.589 232.448 125.913 233.086C123.503 233.093 121.104 232.774 118.779 232.137Z" fill="#EB996E"/>
<path d="M70.0111 55.8758C70.199 56.4905 70.2016 57.1469 70.0188 57.7632C69.836 58.3794 69.4757 58.9281 68.983 59.3409C68.4903 59.7537 67.8869 60.0123 67.2482 60.0843C66.6095 60.1564 65.9637 60.0388 65.3914 59.7462C63.2286 58.6553 62.9535 55.6671 63.3803 53.2861C63.8072 50.9051 64.6135 48.3533 63.6175 46.1431C62.8491 44.4545 61.189 43.3826 59.8989 42.0546C58.7605 40.9002 57.905 39.4977 57.3997 37.9572C56.8944 36.4166 56.7531 34.7799 56.9867 33.1756C57.2601 31.576 57.9699 30.0829 59.0378 28.861C60.1057 27.6391 61.4902 26.7358 63.0388 26.2507C66.2167 25.3685 70.1344 26.3456 72.5249 24.0404C74.2419 22.3709 74.3463 19.6484 75.6743 17.6563C77.7328 14.5638 82.0869 14.0705 85.7676 14.5733C89.4482 15.0761 93.1857 16.2618 96.7904 15.3606C99.7975 14.6112 102.264 12.5148 105.091 11.2247C108.172 9.81636 111.616 9.40611 114.941 10.0513C118.267 10.6965 121.308 12.3649 123.638 14.8232C125.969 17.2815 127.473 20.4067 127.941 23.7619C128.408 27.1171 127.815 30.5344 126.245 33.536C125.198 35.7326 123.416 37.4943 121.208 38.5162" fill="#263238"/>
<path d="M88.3193 134.241C90.7383 134.236 93.1323 133.751 95.3626 132.814C97.5928 131.877 99.615 130.507 101.312 128.783C103.009 127.059 104.346 125.015 105.247 122.77C106.148 120.525 106.595 118.124 106.561 115.705L106.324 98.2693C106.324 98.2693 120.97 96.7989 121.938 82.2852C122.906 67.7714 122.213 34.276 122.213 34.276C114.154 30.2779 105.175 28.5016 96.2003 29.1302C87.226 29.7589 78.5818 32.7697 71.1589 37.8522L68.9202 39.3985L70.0111 116.179C70.0685 120.994 72.0237 125.592 75.4517 128.974C78.8798 132.356 83.5038 134.248 88.3193 134.241Z" fill="#FFBE9D"/>
<path d="M118.381 60.6189C117.851 60.558 117.362 60.3044 117.008 59.9064C116.653 59.5085 116.457 58.994 116.457 58.4608C116.457 57.9277 116.653 57.4131 117.008 57.0152C117.362 56.6172 117.851 56.3636 118.381 56.3027C118.496 56.2742 118.617 56.2742 118.732 56.3027C119.262 56.3636 119.75 56.6172 120.105 57.0152C120.46 57.4131 120.656 57.9277 120.656 58.4608C120.656 58.994 120.46 59.5085 120.105 59.9064C119.75 60.3044 119.262 60.558 118.732 60.6189C118.616 60.6378 118.497 60.6378 118.381 60.6189Z" fill="#263238"/>
<path d="M121.227 55.9327C120.99 56.1794 119.624 54.9841 117.622 54.8798C115.62 54.7754 114.112 55.7146 113.913 55.4489C113.714 55.1833 114.055 54.8893 114.719 54.4434C115.607 53.8741 116.653 53.6046 117.705 53.6746C118.757 53.7446 119.759 54.1504 120.563 54.8323C121.16 55.3636 121.35 55.8758 121.227 55.9327Z" fill="#263238"/>
<path d="M98.0901 56.426C98.4342 56.6643 98.6999 56.9993 98.8536 57.3887C99.0073 57.778 99.042 58.2042 98.9533 58.6133C98.8647 59.0224 98.6566 59.396 98.3555 59.6868C98.0545 59.9776 97.6739 60.1726 97.262 60.247C96.8501 60.3214 96.4253 60.2719 96.0415 60.1048C95.6577 59.9378 95.3321 59.6606 95.1059 59.3083C94.8798 58.9561 94.7631 58.5447 94.7709 58.1262C94.7786 57.7077 94.9103 57.3009 95.1494 56.9573C95.4693 56.4974 95.9586 56.1832 96.5099 56.0836C97.0612 55.984 97.6295 56.1071 98.0901 56.426Z" fill="#263238"/>
<path d="M99.4086 56.5114C99.1619 56.758 97.7959 55.5628 95.8038 55.4584C93.8118 55.3541 92.294 56.2932 92.0853 56.0276C91.9809 55.9043 92.2371 55.4679 92.8916 55.0221C93.7789 54.4527 94.8255 54.1832 95.8774 54.2532C96.9294 54.3233 97.931 54.7291 98.735 55.411C99.3327 55.9422 99.5224 56.4071 99.4086 56.5114Z" fill="#263238"/>
<path d="M106.561 73.4536C106.561 73.3018 107.804 73.1121 109.834 72.9413C110.356 72.9413 110.782 72.818 110.83 72.5429C110.868 72.0199 110.767 71.4961 110.536 71.0251C110.09 69.6686 109.644 68.3026 109.17 66.8702C107.273 60.9604 106.03 56.094 106.324 55.9991C106.618 55.9043 108.383 60.6189 110.251 66.5287C110.688 67.9706 111.114 69.3746 111.522 70.7026C111.824 71.3932 111.884 72.165 111.693 72.8939C111.608 73.0907 111.478 73.2647 111.313 73.4016C111.149 73.5384 110.954 73.6343 110.745 73.6813C110.449 73.7473 110.145 73.7696 109.843 73.7477C107.794 73.7097 106.561 73.6149 106.561 73.4536Z" fill="#263238"/>
<path d="M99.9207 75.3129C102.97 76.878 106.219 78.0175 109.578 78.6994C108.841 79.7109 107.784 80.4434 106.578 80.7776C105.373 81.1117 104.089 81.0279 102.937 80.5397C98.6591 78.7089 99.9207 75.3129 99.9207 75.3129Z" fill="white"/>
<path d="M106.381 98.0606C99.6657 97.8211 93.1737 95.5888 87.7312 91.6479C87.7312 91.6479 91.6395 102.339 106.201 101.827L106.381 98.0606Z" fill="#EB996E"/>
<path d="M122.336 37.9471C122.336 37.9471 113.562 42.4056 101.941 36.8846C94.3524 33.2609 85.4639 31.5819 83.5477 33.1471C81.6315 34.7123 81.3754 42.4909 73.9383 44.9099C73.9383 44.9099 74.7446 59.7651 68.8063 59.3478C62.868 58.9304 66.1312 35.8507 66.1312 35.8507L80.4837 28.4894L96.2401 25.1978L111.181 27.0096L122.773 29.9408L122.336 37.9471Z" fill="#263238"/>
<path d="M69.8877 54.5762C69.6506 54.4529 60.0696 51.0758 59.8514 61.0268C59.6332 70.9777 69.6601 69.1469 69.679 68.8623C69.698 68.5777 69.8877 54.5762 69.8877 54.5762Z" fill="#FFBE9D"/>
<path d="M66.7193 65.0204C66.7193 65.0204 66.5391 65.1437 66.245 65.2671C65.8284 65.4363 65.3621 65.4363 64.9454 65.2671C63.902 64.8592 63.0482 63.1706 63.0482 61.3778C63.047 60.5231 63.2315 59.6783 63.5889 58.9019C63.6911 58.5938 63.866 58.3148 64.0988 58.0886C64.3316 57.8623 64.6155 57.6955 64.9265 57.6023C65.1272 57.5658 65.3344 57.595 65.5172 57.6855C65.7001 57.7761 65.8489 57.9232 65.9415 58.1051C66.0648 58.3802 65.9984 58.5794 66.0458 58.5983C66.0933 58.6173 66.264 58.4371 66.1976 58.0292C66.1455 57.781 66.0119 57.5573 65.8182 57.3936C65.5495 57.1825 65.2095 57.0838 64.8696 57.1185C64.4588 57.1894 64.0731 57.3644 63.7493 57.6268C63.4254 57.8891 63.1743 58.2302 63.0198 58.6173C62.5816 59.4714 62.354 60.4179 62.3557 61.3778C62.3557 63.3793 63.3613 65.286 64.7842 65.7319C65.0503 65.8131 65.3309 65.8348 65.6064 65.7955C65.8818 65.7561 66.1451 65.6567 66.3778 65.5042C66.7193 65.2671 66.7193 65.0394 66.7193 65.0204Z" fill="#EB996E"/>
<path d="M64.8223 23.4333C65.9573 23.1003 67.1697 23.144 68.2779 23.5579C69.3861 23.9717 70.3303 24.7334 70.9693 25.7289C70.0848 25.0591 69.1307 24.4866 68.1234 24.0214C67.0465 23.7112 65.9401 23.5141 64.8223 23.4333Z" fill="#263238"/>
<path d="M70.8079 17.476C70.9881 17.476 70.713 19.5724 71.0545 22.0578C71.3497 23.552 71.8177 25.0068 72.449 26.393C72.449 26.393 72.0316 26.042 71.6142 25.3021C71.0786 24.3173 70.7251 23.244 70.5707 22.1337C70.2944 20.5833 70.3755 18.9903 70.8079 17.476Z" fill="#263238"/>
<path d="M111.684 51.1327C111.627 51.0189 112.053 50.6679 112.86 50.3454C115 49.5176 117.377 49.5414 119.5 50.4118C120.297 50.7533 120.724 51.1043 120.667 51.2181C120.544 51.4837 118.627 50.7343 116.17 50.7343C113.714 50.7343 111.797 51.4268 111.684 51.1327Z" fill="#263238"/>
<path d="M89.486 49.0648C89.4291 48.951 89.856 48.6095 90.6623 48.2775C91.7237 47.8672 92.854 47.6643 93.9919 47.6798C95.1347 47.6796 96.2663 47.9053 97.3215 48.3439C98.1184 48.6854 98.5358 49.0364 98.4883 49.1597C98.4409 49.283 96.4488 48.6759 93.9824 48.6664C91.516 48.6569 89.6188 49.3304 89.486 49.0648Z" fill="#263238"/>
<path d="M109.966 52.7264C109.988 52.9219 109.988 53.1191 109.966 53.3146C109.966 53.7319 109.967 54.2632 110.014 54.9177C110.061 55.5722 110.014 56.4545 110.071 57.4031C110.035 58.4978 110.196 59.5902 110.545 60.6283C111.003 61.975 111.794 63.1836 112.846 64.1409C113.898 65.0982 115.176 65.7729 116.559 66.1018C117.353 66.2958 118.172 66.3662 118.988 66.3105C119.836 66.2724 120.672 66.0962 121.464 65.7888C123.151 65.1565 124.589 63.9951 125.562 62.4781C126.483 61.0295 126.945 59.3369 126.89 57.6212C126.89 55.9232 126.89 54.2916 126.89 52.7264L127.117 52.9541L114.785 52.8402L111.209 52.7738H110.261H109.91C110.316 52.7287 110.725 52.7097 111.133 52.7169L114.653 52.6505L127.117 52.5367H127.43V52.7738C127.43 54.339 127.43 55.9707 127.43 57.6687C127.494 59.4779 127.008 61.2639 126.036 62.7912C125.005 64.3972 123.48 65.6255 121.691 66.2915C120.851 66.6144 119.963 66.7971 119.064 66.8323C118.206 66.8832 117.346 66.8033 116.512 66.5951C115.061 66.2444 113.724 65.5261 112.631 64.5093C111.538 63.4926 110.725 62.2116 110.27 60.7896C109.929 59.7046 109.788 58.5669 109.853 57.4315C109.853 56.4829 109.853 55.6007 109.9 54.8798C109.948 54.1588 109.9 53.713 109.948 53.2956C109.939 53.1056 109.945 52.9153 109.966 52.7264Z" fill="#263238"/>
<path d="M86.7162 52.2331C86.7162 52.2331 86.7162 52.4513 86.7162 52.8213V54.4244C86.7162 55.1264 86.7162 55.9612 86.7637 56.9193C86.7388 58.0134 86.8991 59.1039 87.238 60.1445C87.675 61.3936 88.3921 62.5261 89.3344 63.4552C90.4225 64.5127 91.7761 65.2567 93.2521 65.6085C94.8842 66.0018 96.597 65.8927 98.1659 65.2955C99.8486 64.6639 101.283 63.5062 102.254 61.9943C103.179 60.5468 103.645 58.8541 103.592 57.1375C103.592 55.4394 103.592 53.7983 103.592 52.2331L103.82 52.4608L91.4877 52.347L87.921 52.29H86.9723H86.6214C87.0245 52.2451 87.43 52.2261 87.8356 52.2331L91.3549 52.1762L103.82 52.0624H104.047V52.29C104.047 53.8553 104.047 55.4964 104.047 57.1944C104.105 59.0041 103.615 60.7892 102.643 62.3169C101.612 63.9173 100.092 65.1418 98.3082 65.8078C97.4676 66.1298 96.5801 66.3124 95.6806 66.3485C94.8198 66.3992 93.9562 66.3193 93.1193 66.1113C91.5693 65.7296 90.1525 64.9327 89.0213 63.8062C88.0428 62.8231 87.3086 61.6242 86.8775 60.3058C86.5368 59.2208 86.3954 58.0831 86.4601 56.9477C86.4601 55.9991 86.4601 55.1169 86.517 54.396C86.5739 53.675 86.517 53.2292 86.517 52.8118C86.5517 52.6094 86.6189 52.414 86.7162 52.2331Z" fill="#263238"/>
<path d="M110.175 53.4189C108.006 53.7481 105.799 53.7481 103.63 53.4189C105.798 53.0775 108.007 53.0775 110.175 53.4189Z" fill="#263238"/>
<path d="M68.6167 53.5422C71.6326 53.2908 74.6598 53.199 77.6854 53.2672C80.7132 53.1813 83.7435 53.2541 86.7636 53.4853C83.7484 53.7485 80.7206 53.8404 77.6949 53.7604C74.6671 53.8572 71.6363 53.7843 68.6167 53.5422Z" fill="#263238"/>
<path d="M166.2 232.555C168.332 236.511 171.56 239.768 175.498 241.933C179.436 244.099 183.915 245.082 188.398 244.763C193.694 244.393 198.705 242.227 202.604 238.624C206.504 235.022 209.058 230.197 209.846 224.947L215.348 161.968L193.312 156.523L184.309 205.851C184.309 205.851 179.604 226.521 166.2 232.555Z" fill="#FFBE9D"/>
<path d="M193.112 161.086L193.843 150.035C193.843 150.035 196.964 125.238 196.964 122.81C196.964 120.021 198.301 119.338 199.335 119.414C200.938 119.518 202.077 121.501 202.181 123.901C202.181 124.726 202.105 137.836 202.105 137.836C202.863 136.597 203.71 135.414 204.638 134.298C206.535 131.841 211.126 130.437 215.803 130.588C220.48 130.74 221.76 131.196 221.789 133.007C221.772 133.354 221.679 133.692 221.514 133.997C221.35 134.302 221.12 134.567 220.84 134.772C219.977 135.491 218.88 135.869 217.757 135.834C210.273 135.701 208.271 139.695 208.271 139.695L208.176 141.146C208.176 141.146 212.72 137.893 216.344 139.249C216.879 139.447 217.369 139.75 217.786 140.141C218.806 140.145 219.808 140.416 220.691 140.926C221.574 141.437 222.309 142.17 222.822 143.052C223.335 143.934 223.608 144.934 223.615 145.955C223.622 146.975 223.362 147.979 222.861 148.868C222.666 149.324 222.336 149.709 221.915 149.972C221.495 150.235 221.004 150.363 220.508 150.338C220.006 150.188 219.552 149.91 219.19 149.532C218.977 149.352 218.752 149.187 218.516 149.039L217.681 153.052C217.681 153.052 215.319 161.968 214.731 165.972" fill="#FFBE9D"/>
<path d="M195.266 160.223C196.632 160.602 198.045 159.597 198.785 158.383C199.525 157.168 199.838 155.736 200.483 154.465C202.437 150.671 207.123 148.868 208.916 144.979C209.163 144.438 209.296 143.698 208.821 143.338C208.347 142.977 207.759 143.271 207.275 143.537L194.943 150.367" fill="#FFBE9D"/>
<path d="M194.934 150.348C195.318 150.007 195.741 149.714 196.195 149.475C197.03 148.954 198.254 148.233 199.772 147.35L205.131 144.286L206.677 143.414C207.254 142.958 207.987 142.75 208.717 142.835C208.942 142.908 209.14 143.048 209.284 143.236C209.428 143.424 209.512 143.651 209.523 143.888C209.548 144.278 209.48 144.668 209.324 145.026C209.039 145.659 208.682 146.258 208.262 146.81C206.554 149.029 204.344 150.424 202.75 152.046C201.975 152.78 201.316 153.628 200.796 154.56C200.331 155.433 200.037 156.343 199.677 157.169C199.455 157.857 199.086 158.489 198.594 159.02C198.102 159.551 197.501 159.968 196.831 160.242C195.816 160.546 195.247 160.242 195.285 160.185C195.776 160.2 196.266 160.12 196.726 159.948C197.32 159.645 197.844 159.222 198.265 158.706C198.686 158.19 198.996 157.592 199.174 156.95C199.478 156.031 199.829 155.129 200.227 154.247C200.75 153.237 201.432 152.318 202.247 151.524C203.879 149.817 206.042 148.384 207.635 146.326C208.011 145.829 208.329 145.291 208.584 144.723C208.821 144.182 208.783 143.641 208.48 143.584C208.176 143.527 207.579 143.784 207.057 144.078L205.482 144.931L200.047 147.891C198.491 148.716 197.201 149.361 196.347 149.788C195.905 150.041 195.429 150.229 194.934 150.348Z" fill="#EB996E"/>
<path d="M208.006 141.251C208.089 140.353 208.385 139.488 208.869 138.728C209.431 137.947 210.229 137.368 211.145 137.077C212.293 136.7 213.494 136.507 214.703 136.508C215.943 136.52 217.182 136.412 218.402 136.185C219.424 135.977 220.373 135.502 221.153 134.81C221.413 134.57 221.614 134.275 221.742 133.946C221.87 133.618 221.922 133.264 221.893 132.913C221.879 132.654 221.794 132.404 221.647 132.192C221.599 132.192 221.647 132.467 221.694 132.922C221.69 133.24 221.616 133.553 221.478 133.84C221.341 134.126 221.142 134.38 220.897 134.582C220.139 135.179 219.247 135.583 218.298 135.758C217.104 135.955 215.894 136.044 214.684 136.024C213.43 136.01 212.183 136.206 210.994 136.603C209.999 136.949 209.148 137.616 208.575 138.5C208.203 139.094 207.988 139.773 207.949 140.473C207.895 140.732 207.914 141.002 208.006 141.251Z" fill="#EB996E"/>
<path d="M202.115 122.971C202.034 123.839 202.034 124.712 202.115 125.58C202.115 127.363 202.115 129.498 202.181 131.85C202.247 134.203 202.181 136.337 202.181 138.12C202.124 138.99 202.143 139.863 202.238 140.729C202.445 139.878 202.551 139.006 202.551 138.13C202.665 136.527 202.741 134.335 202.731 131.85C202.722 129.365 202.627 127.164 202.513 125.561C202.474 124.686 202.34 123.818 202.115 122.971Z" fill="#EB996E"/>
<path d="M210.965 144.163C211.23 144.099 211.485 144 211.724 143.869C212.033 143.711 212.373 143.621 212.719 143.604C213.066 143.588 213.412 143.646 213.735 143.774C213.933 143.882 214.1 144.039 214.22 144.23C214.34 144.421 214.408 144.64 214.418 144.865C214.448 145.431 214.407 145.998 214.295 146.554C214.138 147.252 214.25 147.983 214.608 148.603C214.834 148.921 215.133 149.181 215.479 149.362C215.825 149.544 216.209 149.641 216.6 149.646C216.984 149.643 217.363 149.563 217.716 149.41C218.068 149.256 218.385 149.034 218.649 148.754C219.143 148.258 219.474 147.623 219.598 146.933C219.746 145.817 219.73 144.686 219.55 143.575C219.452 142.824 219.224 142.095 218.877 141.422C218.611 140.947 218.364 140.767 218.345 140.786C218.326 140.805 218.497 141.042 218.696 141.507C218.957 142.189 219.119 142.904 219.18 143.632C219.305 144.701 219.289 145.782 219.133 146.848C219.012 147.451 218.699 147.999 218.241 148.409C217.782 148.82 217.203 149.071 216.59 149.124C216.282 149.122 215.978 149.049 215.703 148.909C215.428 148.769 215.189 148.566 215.006 148.318C214.72 147.798 214.629 147.192 214.75 146.61C214.856 146.013 214.881 145.403 214.826 144.799C214.799 144.51 214.697 144.233 214.53 143.995C214.364 143.758 214.139 143.567 213.877 143.442C213.508 143.302 213.111 143.251 212.719 143.294C212.326 143.337 211.95 143.472 211.62 143.689C211.174 143.954 210.908 144.097 210.965 144.163Z" fill="#EB996E"/>
<path d="M218.431 148.356C218.364 148.604 218.391 148.867 218.507 149.096C218.64 149.421 218.846 149.712 219.109 149.945C219.372 150.179 219.685 150.349 220.024 150.443C220.535 150.553 221.066 150.528 221.565 150.372C222.064 150.216 222.513 149.933 222.87 149.551C223.725 148.612 224.184 147.378 224.151 146.108C224.151 144.853 223.76 143.629 223.032 142.607C222.437 141.774 221.627 141.118 220.688 140.71C220.073 140.432 219.409 140.275 218.734 140.245C218.26 140.245 218.004 140.245 218.004 140.321C218.879 140.434 219.733 140.677 220.537 141.042C221.379 141.461 222.103 142.083 222.643 142.854C223.273 143.811 223.603 144.934 223.591 146.079C223.623 147.217 223.231 148.326 222.491 149.191C222.19 149.531 221.808 149.789 221.379 149.94C220.951 150.091 220.491 150.13 220.043 150.054C219.745 149.987 219.464 149.857 219.22 149.672C218.976 149.487 218.775 149.252 218.63 148.982C218.497 148.622 218.497 148.356 218.431 148.356Z" fill="#EB996E"/>
<path d="M209.419 157.121C209.012 156.992 208.574 156.992 208.167 157.121C207.099 157.355 206.138 157.935 205.435 158.772L205.871 158.904C205.813 158.317 205.718 157.734 205.587 157.159C205.209 155.12 204.273 153.225 202.883 151.686C203.812 153.465 204.55 155.338 205.084 157.273C205.217 157.861 205.312 158.43 205.378 158.961L205.454 159.55L205.824 159.085C206.453 158.309 207.293 157.733 208.243 157.425C208.954 157.206 209.419 157.188 209.419 157.121Z" fill="#EB996E"/>
<path d="M209.656 134.819C209.533 134.876 210.036 135.768 211.193 136.309C212.35 136.849 213.375 136.536 213.327 136.403C213.28 136.271 212.379 136.28 211.43 135.834C210.481 135.388 209.779 134.724 209.656 134.819Z" fill="#EB996E"/>
<path d="M189.318 167.29L217.008 169.273C217.008 169.273 212.748 218.268 211.923 225.867C211.098 233.465 206.232 244.924 189.318 244.924C172.404 244.924 169.255 239.166 161.732 227.309C170.602 221.162 184.689 202.806 184.689 202.806L189.318 167.29Z" fill="#27A17A"/>
<path d="M202.371 174.832C202.228 175.245 202.057 175.647 201.858 176.036L200.312 179.3L194.848 190.579L194.573 190.247L201.754 188.112L209.049 185.968L209.58 185.817L209.324 186.3L203.632 197.352L201.953 200.53C201.768 200.918 201.549 201.289 201.299 201.639C201.444 201.234 201.615 200.838 201.811 200.454C202.209 199.638 202.76 198.556 203.367 197.219L208.878 186.092L209.153 186.424L201.868 188.587L194.678 190.692L194.156 190.844L194.402 190.36L200.066 179.195C200.758 177.877 201.318 176.795 201.735 175.989C201.914 175.586 202.127 175.199 202.371 174.832Z" fill="#E0E0E0"/>
<path d="M199.753 221.959C199.328 222.05 198.896 222.107 198.463 222.129L194.858 222.442L182.393 223.391L182.545 222.983L188.009 228.106L193.539 233.323L193.938 233.702H193.387L180.989 234.385L177.403 234.537C176.974 234.574 176.543 234.574 176.113 234.537C176.536 234.454 176.964 234.403 177.394 234.385L180.97 234.091L193.359 233.238L193.217 233.646L187.667 228.438L182.222 223.296L181.824 222.926H182.365L194.839 222.177L198.453 221.997C198.885 221.951 199.319 221.938 199.753 221.959Z" fill="#E0E0E0"/>
<path d="M170.421 164.236L138.937 242.098H82.1626V245.617H251.271L285.867 164.236H170.421Z" fill="#263238"/>
<path d="M218.554 210.205C217.416 214.123 214.095 216.599 211.136 215.745C208.176 214.892 206.706 211.002 207.844 207.084C208.982 203.167 212.312 200.691 215.272 201.545C218.231 202.398 219.702 206.288 218.554 210.205Z" fill="#FAFAFA"/>
<rect x="188.142" y="48.2856" width="59.7625" height="59.7625" rx="29.8813" fill="#27A17A"/>
<path d="M228.413 88.558H207.87C207.622 88.558 207.385 88.6564 207.21 88.8315C207.034 89.0067 206.936 89.2442 206.936 89.4918C206.936 89.7395 207.034 89.977 207.21 90.1521C207.385 90.3272 207.622 90.4256 207.87 90.4256H228.413C228.661 90.4256 228.898 90.3272 229.073 90.1521C229.249 89.977 229.347 89.7395 229.347 89.4918C229.347 89.2442 229.249 89.0067 229.073 88.8315C228.898 88.6564 228.661 88.558 228.413 88.558Z" fill="white" fill-opacity="0.95"/>
<path d="M217.481 82.6808C217.568 82.7675 217.671 82.8363 217.784 82.8833C217.897 82.9302 218.019 82.9544 218.142 82.9544C218.264 82.9544 218.386 82.9302 218.499 82.8833C218.612 82.8363 218.715 82.7675 218.802 82.6808L224.404 77.0781C224.491 76.9914 224.56 76.8884 224.607 76.7752C224.654 76.6619 224.678 76.5405 224.678 76.4179C224.678 76.2952 224.654 76.1738 224.607 76.0606C224.56 75.9473 224.491 75.8443 224.404 75.7576C224.318 75.6709 224.215 75.6022 224.102 75.5552C223.988 75.5083 223.867 75.4842 223.744 75.4842C223.622 75.4842 223.5 75.5083 223.387 75.5552C223.274 75.6022 223.171 75.6709 223.084 75.7576L219.075 79.7664V67.08C219.075 66.8323 218.977 66.5948 218.802 66.4197C218.627 66.2446 218.389 66.1462 218.142 66.1462C217.894 66.1462 217.656 66.2446 217.481 66.4197C217.306 66.5948 217.208 66.8323 217.208 67.08V79.7664L213.199 75.7576C213.024 75.5838 212.787 75.4865 212.54 75.487C212.293 75.4875 212.056 75.5859 211.881 75.7605C211.707 75.9351 211.608 76.1718 211.608 76.4187C211.607 76.6656 211.705 76.9027 211.879 77.0781L217.481 82.6808Z" fill="white" fill-opacity="0.95"/>
</g>
</g>
<defs>
<clipPath id="clip0_9738_481466">
<rect width="284.583" height="260" fill="white" transform="translate(0.31665 0.844421)"/>
</clipPath>
<clipPath id="clip1_9738_481466">
<rect width="284.583" height="303.556" fill="white" transform="translate(0.31665 -20.9333)"/>
</clipPath>
</defs>
</svg>
