<svg width="285" height="261" viewBox="0 0 285 261" fill="none" xmlns="http://www.w3.org/2000/svg">
<g clip-path="url(#clip0_9738_420266)">
<rect width="284.583" height="260" transform="translate(0.293945 0.844421)" fill="#1A1A1A"/>
<path d="M229.149 114.791L208.424 111.941C208.424 109.516 209.151 100.118 209.151 100.118C209.151 100.118 200.566 98.2743 200.954 89.6035C201.342 80.9328 203.973 61.1537 203.973 61.1537C209.014 59.3186 214.454 58.8624 219.73 59.8324C225.007 60.8024 229.929 63.1634 233.987 66.6715L235.2 67.7386L229.149 114.791Z" fill="#FFBE9D"/>
<path d="M206.06 76.1409C206.237 75.9851 206.365 75.781 206.428 75.5537C206.491 75.3264 206.486 75.0856 206.414 74.861C206.342 74.6363 206.206 74.4375 206.023 74.2889C205.84 74.1402 205.618 74.0482 205.383 74.0241C205.148 74 204.912 74.0448 204.702 74.1531C204.493 74.2614 204.319 74.4285 204.203 74.6338C204.087 74.8392 204.034 75.0739 204.049 75.3093C204.064 75.5447 204.148 75.7704 204.29 75.959C204.39 76.0926 204.517 76.204 204.662 76.2862C204.808 76.3685 204.969 76.4197 205.135 76.4368C205.301 76.4539 205.469 76.4364 205.628 76.3855C205.788 76.3346 205.935 76.2513 206.06 76.1409Z" fill="#263238"/>
<path d="M203.137 74.0433C203.258 74.2009 204.143 73.5946 205.332 73.6552C206.52 73.7158 207.357 74.3828 207.503 74.2373C207.648 74.0918 207.503 73.8977 207.09 73.5946C206.602 73.1972 205.999 72.9673 205.37 72.9389C204.741 72.9105 204.12 73.0851 203.598 73.4369C203.21 73.7037 203.064 73.9705 203.137 74.0433Z" fill="#263238"/>
<path d="M217.752 75.8764C217.549 75.9969 217.386 76.1738 217.283 76.3854C217.179 76.597 217.14 76.8343 217.169 77.0681C217.198 77.3018 217.294 77.5221 217.447 77.7019C217.599 77.8817 217.8 78.0133 218.026 78.0806C218.252 78.1478 218.492 78.1478 218.718 78.0806C218.944 78.0134 219.145 77.8819 219.298 77.7021C219.45 77.5224 219.546 77.3021 219.576 77.0683C219.605 76.8346 219.565 76.5973 219.462 76.3857C219.388 76.2351 219.284 76.1013 219.156 75.993C219.028 75.8846 218.879 75.8039 218.718 75.7561C218.558 75.7082 218.389 75.6942 218.223 75.7149C218.056 75.7356 217.896 75.7906 217.752 75.8764Z" fill="#263238"/>
<path d="M216.029 75.8359C216.15 75.9936 217.035 75.3872 218.236 75.4478C219.436 75.5085 220.249 76.1755 220.394 76.0299C220.54 75.8844 220.394 75.6904 219.982 75.3751C219.494 74.9769 218.89 74.7472 218.26 74.7202C217.633 74.6995 217.014 74.8731 216.489 75.2174C216.101 75.4963 215.956 75.7632 216.029 75.8359Z" fill="#263238"/>
<path d="M210.654 85.3455C210.052 85.0731 209.408 84.901 208.75 84.8362C208.435 84.7756 208.205 84.6907 208.18 84.5209C208.196 84.2106 208.292 83.9098 208.459 83.6478L209.538 81.2224C210.564 79.2316 211.377 77.1382 211.964 74.977C210.762 76.8652 209.751 78.8678 208.944 80.9556L207.913 83.381C207.69 83.7699 207.605 84.2229 207.671 84.6664C207.709 84.7888 207.774 84.9007 207.863 84.9934C207.951 85.086 208.06 85.1567 208.18 85.2C208.348 85.2573 208.524 85.29 208.702 85.297C209.345 85.4264 210.005 85.4428 210.654 85.3455Z" fill="#263238"/>
<path d="M214.476 86.9343C212.568 87.6627 210.568 88.1238 208.534 88.3047C208.903 88.9545 209.482 89.4596 210.176 89.7372C210.87 90.0148 211.638 90.0485 212.354 89.8327C214.997 88.9838 214.476 86.9343 214.476 86.9343Z" fill="white"/>
<path d="M209.139 99.9837C213.133 100.291 217.127 99.4001 220.611 97.4249C220.611 97.4249 217.592 103.488 208.994 102.276L209.139 99.9837Z" fill="#EB996E"/>
<path d="M203.67 63.3225C203.67 63.3225 208.521 66.5361 215.797 64.038C220.563 62.3887 225.911 61.9885 226.942 63.0436C227.973 64.0986 227.609 68.719 231.853 70.6472C231.853 70.6472 230.398 79.3907 233.939 79.5363C237.48 79.6818 237.08 65.7964 237.08 65.7964L229.064 60.4848L219.957 57.4894L210.983 57.5743L203.913 58.5445L203.67 63.3225Z" fill="#263238"/>
<path d="M233.635 76.6383C233.793 76.6383 239.699 75.2195 239.165 81.1253C238.632 87.0311 232.811 85.2849 232.811 85.1151C232.811 84.9453 233.635 76.6383 233.635 76.6383Z" fill="#FFBE9D"/>
<path d="M234.825 83.0402C234.825 83.0402 234.922 83.1251 235.079 83.2221C235.319 83.3446 235.597 83.3706 235.856 83.2949C236.256 83.0864 236.595 82.7761 236.838 82.395C237.081 82.0139 237.219 81.5756 237.238 81.1242C237.291 80.6174 237.238 80.1051 237.08 79.6204C237.04 79.4312 236.956 79.2543 236.833 79.1046C236.711 78.9548 236.554 78.8364 236.377 78.7594C236.262 78.7174 236.135 78.7175 236.02 78.7596C235.904 78.8018 235.808 78.8833 235.746 78.9898C235.649 79.1475 235.674 79.2687 235.637 79.2809C235.601 79.293 235.528 79.1717 235.637 78.9292C235.683 78.7846 235.777 78.6603 235.904 78.5775C236.078 78.471 236.287 78.4362 236.486 78.4805C236.725 78.5477 236.942 78.6758 237.117 78.8522C237.291 79.0287 237.416 79.2474 237.481 79.487C237.685 80.0238 237.76 80.6014 237.699 81.1727C237.683 81.7032 237.509 82.217 237.2 82.6488C236.892 83.0806 236.462 83.411 235.965 83.5981C235.803 83.6318 235.635 83.6275 235.475 83.5854C235.315 83.5433 235.167 83.4646 235.043 83.3555C234.825 83.1857 234.801 83.0524 234.825 83.0402Z" fill="#EB996E"/>
<path d="M209.043 72.4306C208.824 72.7702 207.709 72.4306 206.35 72.2972C204.992 72.1639 203.84 72.2972 203.695 71.8849C203.549 71.4726 204.774 70.6722 206.496 70.9026C208.218 71.133 209.261 72.1275 209.043 72.4306Z" fill="#263238"/>
<path d="M222.322 73.218C222.104 73.5575 220.988 73.218 219.642 73.0846C218.296 72.9512 217.12 73.0846 216.986 72.6844C216.853 72.2842 218.066 71.4717 219.775 71.7021C221.485 71.9325 222.54 72.8905 222.322 73.218Z" fill="#263238"/>
<path d="M229.063 64.4025C229.952 65.9282 231.032 67.3342 232.277 68.5863C233.544 69.8392 235.249 70.5484 237.031 70.563C237.916 70.549 238.774 70.2535 239.481 69.7194C240.187 69.1852 240.705 68.4401 240.96 67.5919C241.045 67.17 241.04 66.7348 240.945 66.315C240.85 65.8952 240.667 65.5003 240.408 65.1565C240.149 64.8127 239.82 64.5277 239.443 64.3204C239.065 64.1131 238.648 63.9882 238.219 63.9538C238.508 64.0147 238.807 64.0053 239.091 63.9266C239.376 63.8478 239.637 63.702 239.853 63.5013C240.069 63.3006 240.234 63.0509 240.334 62.7733C240.434 62.4956 240.465 62.1981 240.426 61.9057C240.387 61.6133 240.278 61.3345 240.109 61.0928C239.94 60.8512 239.715 60.6537 239.454 60.5169C239.192 60.3801 238.902 60.3081 238.607 60.3069C238.312 60.3056 238.021 60.3752 237.758 60.5098C239.286 60.5098 239.893 58.2057 238.886 57.0536C238.323 56.543 237.637 56.1865 236.896 56.0186C236.154 55.8508 235.382 55.8773 234.654 56.0956C233.2 56.5425 231.711 56.867 230.203 57.0657C227.778 57.0657 225.644 55.7318 223.837 54.1674C222.161 52.4621 220.274 50.9787 218.222 49.7532C215.51 48.581 212.486 48.3421 209.624 49.0741C207.22 49.513 204.976 50.5846 203.124 52.1786C202.202 52.9805 201.473 53.9806 200.992 55.1042C200.511 56.2278 200.29 57.4456 200.347 58.6665C200.438 59.8821 200.91 61.0379 201.696 61.9697C202.482 62.9016 203.542 63.5619 204.725 63.8568C208.141 64.7271 211.752 64.4194 214.972 62.9837C219.956 60.5583 229.088 62.729 229.088 62.729L229.063 64.4025Z" fill="#263238"/>
<path d="M253.463 122.419C253.463 122.419 244.974 114.5 239.347 112.099C236.451 110.874 233.383 110.104 230.252 109.819C222.91 111.704 215.165 111.281 208.072 108.606C206.798 108.703 204.87 108.752 202.311 108.958C197.997 109.292 193.793 110.486 189.949 112.471C186.104 114.456 182.695 117.191 179.925 120.515L162.317 141.677L180.071 159.431L184.06 152.882C184.06 152.882 178.142 203.548 177.9 210.728L243.398 217.531L243.761 159.443L253.463 122.419Z" fill="#455A64"/>
<path d="M246.66 178.639C246.66 178.639 246.527 178.481 246.248 178.251L245.035 177.22L240.33 173.582C236.34 170.489 230.81 166.306 224.674 161.613L222.988 160.4L223.049 160.836C226.569 155.846 229.808 150.664 232.751 145.314C233.878 143.374 234.812 141.785 235.503 140.584C235.878 140.032 236.202 139.448 236.474 138.838C236.347 138.956 236.237 139.091 236.146 139.238C235.952 139.517 235.661 139.917 235.309 140.451C234.594 141.518 233.599 143.095 232.387 145.084C229.961 149.013 226.808 154.652 222.54 160.448L222.358 160.691L222.6 160.885L224.298 162.098C230.434 166.742 236.001 170.926 240.063 173.921L244.914 177.45L246.236 178.384C246.368 178.483 246.51 178.569 246.66 178.639Z" fill="#263238"/>
<path d="M255.233 123.933C254.971 123.723 254.67 123.567 254.348 123.472C253.486 123.153 252.575 122.989 251.656 122.987C248.593 123.05 245.664 124.257 243.446 126.37C241.316 128.487 239.601 130.983 238.389 133.731C237.81 134.819 237.346 135.966 237.007 137.151C237.675 136.123 238.271 135.049 238.789 133.937C240.085 131.305 241.806 128.904 243.883 126.831C245.999 124.82 248.755 123.618 251.668 123.435C252.873 123.449 254.071 123.616 255.233 123.933Z" fill="#263238"/>
<path d="M209.298 109.891C210.275 110.431 211.319 110.838 212.403 111.103C217.61 112.653 223.131 112.82 228.422 111.588C229.525 111.385 230.594 111.03 231.6 110.533C230.502 110.681 229.413 110.887 228.337 111.152C225.721 111.621 223.064 111.824 220.406 111.758C217.748 111.665 215.107 111.3 212.524 110.667C211.463 110.35 210.387 110.091 209.298 109.891Z" fill="#263238"/>
<path d="M175.79 206.688L186.207 427.908L219.969 428.575L214.366 248.769L252.335 429.957H284.436L241.567 213.127" fill="#263238"/>
<path d="M227.804 216.485C227.727 216.77 227.702 217.065 227.731 217.359C227.755 218.177 227.869 218.99 228.07 219.784C228.721 222.386 230.168 224.72 232.209 226.46C234.251 228.199 236.785 229.257 239.458 229.485C240.264 229.572 241.077 229.572 241.883 229.485C242.18 229.469 242.472 229.399 242.744 229.279C242.744 229.158 241.531 229.352 239.53 229.085C236.983 228.76 234.586 227.698 232.632 226.031C230.679 224.364 229.253 222.164 228.531 219.699C227.925 217.722 227.925 216.473 227.804 216.485Z" fill="#455A64"/>
<path d="M204.52 214.268C204.439 214.667 204.414 215.075 204.447 215.481C204.447 216.293 204.447 217.458 204.447 218.901C204.52 221.799 204.653 225.789 204.835 230.191C204.799 232.295 205.04 234.395 205.55 236.436C205.848 237.265 206.307 238.027 206.9 238.679C207.493 239.33 208.209 239.858 209.007 240.232C210.045 240.758 211.139 241.165 212.269 241.445C212.663 241.566 213.07 241.64 213.481 241.663C213.098 241.459 212.691 241.304 212.269 241.202C211.196 240.861 210.157 240.423 209.164 239.892C207.689 239.135 206.57 237.828 206.048 236.254C205.583 234.268 205.367 232.231 205.405 230.191C205.223 225.789 205.017 221.799 204.835 218.913C204.738 217.47 204.653 216.305 204.58 215.493C204.604 215.084 204.584 214.673 204.52 214.268Z" fill="#455A64"/>
<path d="M211.152 217.166C211.152 217.166 211.055 216.996 210.764 216.875C210.329 216.721 209.854 216.721 209.418 216.875C209.086 216.982 208.782 217.163 208.53 217.405C208.278 217.646 208.084 217.942 207.963 218.27C207.85 218.695 207.861 219.145 207.996 219.564C208.13 219.984 208.382 220.356 208.721 220.637C209.061 220.918 209.474 221.095 209.911 221.148C210.348 221.202 210.792 221.129 211.189 220.938C211.489 220.755 211.744 220.506 211.933 220.209C212.122 219.913 212.241 219.577 212.28 219.228C212.355 218.775 212.264 218.31 212.025 217.918C211.856 217.639 211.686 217.554 211.662 217.579C211.872 218.076 211.935 218.623 211.844 219.155C211.785 219.421 211.672 219.671 211.511 219.89C211.35 220.11 211.145 220.293 210.91 220.428C210.616 220.558 210.292 220.6 209.975 220.549C209.658 220.497 209.364 220.354 209.127 220.137C208.874 219.944 208.682 219.683 208.573 219.384C208.463 219.086 208.441 218.762 208.509 218.452C208.59 218.185 208.728 217.94 208.912 217.731C209.096 217.521 209.322 217.354 209.576 217.239C210.085 217.072 210.63 217.047 211.152 217.166Z" fill="#455A64"/>
<path d="M239.153 268.379C240.014 266.864 240.536 265.18 240.681 263.443C241.033 261.736 241.004 259.972 240.596 258.277C240.402 258.277 240.463 260.581 240.062 263.358C239.662 266.135 238.971 268.318 239.153 268.379Z" fill="#455A64"/>
<path d="M226.638 244.317C227.058 242.58 227.058 240.767 226.638 239.03C226.217 240.767 226.217 242.58 226.638 244.317Z" fill="#455A64"/>
<path d="M196.951 255.534C198.005 254.762 198.816 253.704 199.289 252.486C199.762 251.267 199.876 249.939 199.619 248.658C199.425 248.658 199.449 250.356 198.697 252.296C197.945 254.236 196.817 255.401 196.951 255.534Z" fill="#455A64"/>
<path d="M185.747 239.987C185.811 238.982 185.667 237.975 185.322 237.028C185.184 236.029 184.837 235.071 184.304 234.215C184.364 236.22 184.856 238.189 185.747 239.987Z" fill="#455A64"/>
<path d="M85.8219 121.033L173.141 128.688L165.137 219.981L77.8187 212.326L85.8219 121.033Z" fill="#FF725E"/>
<path d="M127.3 124.673L199.627 131.014L191.624 222.307L119.297 215.966L127.3 124.673Z" fill="#FF725E"/>
<path d="M171.122 131.417L162.767 219.762L151.343 218.767L160.851 130.52L171.122 131.417Z" fill="#FAFAFA"/>
<path d="M195.157 181.149C195.157 181.089 194.478 181.149 193.265 180.943C191.575 180.699 189.936 180.179 188.414 179.403C186.146 178.262 184.212 176.553 182.8 174.443C181.107 171.836 180.346 168.733 180.641 165.639C180.893 162.541 182.218 159.629 184.388 157.405C186.206 155.636 188.476 154.402 190.949 153.839C192.619 153.453 194.348 153.388 196.042 153.645C197.255 153.839 197.886 154.082 197.91 154.021C197.934 153.96 197.764 153.924 197.461 153.815C197.016 153.641 196.558 153.503 196.091 153.403C194.362 153.05 192.58 153.05 190.852 153.403C187.961 153.946 185.33 155.429 183.369 157.622C181.408 159.816 180.227 162.596 180.01 165.53C179.704 168.763 180.518 172.004 182.315 174.71C183.805 176.874 185.837 178.609 188.208 179.742C189.796 180.506 191.51 180.974 193.265 181.125C193.738 181.153 194.212 181.153 194.684 181.125C194.987 181.149 195.157 181.149 195.157 181.149Z" fill="#FAFAFA"/>
<path d="M119.703 163.408C119.817 162.36 119.991 161.319 120.225 160.291C120.968 157.515 122.62 155.068 124.918 153.342C126.605 152.077 128.581 151.253 130.667 150.946C132.753 150.639 134.883 150.858 136.863 151.584C138.004 151.991 139.076 152.572 140.04 153.306C141.065 154.044 141.962 154.945 142.696 155.974C144.279 158.127 145.133 160.729 145.133 163.402C145.133 166.074 144.279 168.676 142.696 170.829C141.966 171.864 141.068 172.77 140.04 173.509C139.076 174.244 138.004 174.825 136.863 175.231C134.883 175.959 132.752 176.178 130.665 175.869C128.578 175.559 126.602 174.732 124.918 173.461C122.619 171.741 120.966 169.298 120.225 166.524C119.992 165.496 119.818 164.456 119.703 163.408C119.62 164.475 119.715 165.549 119.982 166.585C120.566 169.009 121.836 171.214 123.64 172.935C125.445 174.655 127.707 175.819 130.157 176.287C132.467 176.732 134.855 176.548 137.069 175.753C138.266 175.334 139.391 174.732 140.404 173.97C141.48 173.199 142.422 172.257 143.193 171.181C144.87 168.927 145.776 166.193 145.776 163.383C145.776 160.574 144.87 157.84 143.193 155.586C142.422 154.51 141.48 153.568 140.404 152.797C139.391 152.034 138.266 151.433 137.069 151.014C134.855 150.219 132.467 150.035 130.157 150.48C127.707 150.948 125.445 152.111 123.64 153.832C121.836 155.553 120.566 157.758 119.982 160.182C119.709 161.234 119.615 162.324 119.703 163.408Z" fill="#FAFAFA"/>
<path d="M81.9515 149.402C83.8981 149.595 85.7971 150.12 87.5663 150.954C89.6561 152.018 91.4109 153.639 92.6366 155.638C93.8622 157.637 94.5109 159.936 94.5109 162.281C94.5109 164.625 93.8622 166.925 92.6366 168.924C91.4109 170.923 89.6561 172.544 87.5663 173.607C85.7998 174.449 83.8994 174.974 81.9515 175.159C81.9515 175.159 82.0971 175.159 82.3639 175.159C82.7678 175.181 83.1726 175.181 83.5766 175.159C85.0421 175.019 86.4688 174.607 87.7846 173.947C89.7736 173.008 91.4863 171.571 92.7567 169.775C93.5005 168.717 94.0886 167.557 94.503 166.331C94.9305 165.002 95.1554 163.616 95.1699 162.22C95.1542 159.513 94.3076 156.875 92.7445 154.665C91.4737 152.87 89.7612 151.433 87.7725 150.493C86.4523 149.844 85.0277 149.434 83.5644 149.281C83.1608 149.251 82.7554 149.251 82.3518 149.281C82.1092 149.365 81.9515 149.378 81.9515 149.402Z" fill="#FAFAFA"/>
<path d="M89.179 198.77C89.2925 197.722 89.4666 196.682 89.7005 195.654C90.444 192.875 92.1014 190.427 94.4058 188.705C96.0901 187.439 98.0644 186.615 100.149 186.308C102.233 186.001 104.361 186.221 106.339 186.946C107.483 187.356 108.558 187.936 109.528 188.668C110.547 189.41 111.439 190.311 112.172 191.336C113.758 193.488 114.614 196.091 114.614 198.764C114.614 201.437 113.758 204.04 112.172 206.192C111.435 207.221 110.539 208.126 109.516 208.872C108.546 209.604 107.471 210.185 106.327 210.594C104.666 211.195 102.898 211.443 101.136 211.324C99.3742 211.205 97.6562 210.721 96.0914 209.902C94.5267 209.083 93.1494 207.947 92.0471 206.568C90.9447 205.188 90.1415 203.594 89.6884 201.887C89.4555 200.859 89.2814 199.818 89.1669 198.77C89.0921 199.837 89.1862 200.91 89.4458 201.947C90.0291 204.372 91.2992 206.576 93.1038 208.297C94.9085 210.018 97.171 211.182 99.6204 211.649C101.931 212.095 104.318 211.91 106.533 211.115C107.731 210.699 108.856 210.098 109.868 209.333C110.944 208.558 111.89 207.616 112.669 206.544C114.339 204.287 115.24 201.553 115.24 198.746C115.24 195.938 114.339 193.205 112.669 190.948C111.116 188.855 108.982 187.265 106.533 186.376C104.318 185.582 101.931 185.397 99.6204 185.843C97.171 186.31 94.9085 187.474 93.1038 189.195C91.2992 190.915 90.0291 193.12 89.4458 195.544C89.1851 196.599 89.0951 197.688 89.179 198.77Z" fill="#FAFAFA"/>
<path d="M148.334 217.955C148.762 216.049 149.517 214.231 150.566 212.583C151.89 210.645 153.722 209.108 155.861 208.141C157.999 207.175 160.363 206.815 162.693 207.102C165.252 207.434 167.652 208.528 169.581 210.242C171.155 211.648 172.355 213.424 173.074 215.409C173.679 217.267 173.962 219.215 173.91 221.169C173.91 221.169 173.91 221.035 174.007 220.769C174.074 220.368 174.115 219.962 174.129 219.556C174.175 218.087 173.961 216.621 173.498 215.227C172.807 213.14 171.592 211.265 169.969 209.782C169.015 208.904 167.936 208.173 166.767 207.611C165.504 207.015 164.16 206.606 162.778 206.398C160.091 206.081 157.372 206.589 154.98 207.853C153.045 208.895 151.408 210.415 150.226 212.268C149.426 213.497 148.854 214.861 148.541 216.294C148.419 216.803 148.407 217.203 148.359 217.507C148.31 217.81 148.31 217.955 148.334 217.955Z" fill="#FAFAFA"/>
<path d="M103.598 124.637C103.704 123.588 103.878 122.547 104.119 121.52C104.856 118.747 106.499 116.301 108.788 114.571C110.474 113.305 112.451 112.48 114.537 112.173C116.624 111.866 118.754 112.086 120.733 112.813C123.065 113.675 125.093 115.201 126.566 117.203C128.149 119.356 129.003 121.958 129.003 124.631C129.003 127.303 128.149 129.905 126.566 132.059C125.836 133.093 124.939 133.999 123.911 134.739C122.947 135.473 121.875 136.054 120.733 136.461C118.753 137.19 116.622 137.411 114.535 137.101C112.447 136.792 110.471 135.963 108.788 134.69C106.489 132.971 104.836 130.527 104.095 127.753C103.855 126.727 103.68 125.686 103.574 124.637C103.491 125.704 103.585 126.778 103.853 127.814C104.436 130.236 105.705 132.439 107.507 134.159C109.309 135.88 111.568 137.045 114.015 137.516C116.325 137.962 118.713 137.778 120.927 136.982C123.382 136.102 125.518 134.51 127.064 132.41C128.733 130.153 129.635 127.42 129.635 124.613C129.635 121.805 128.733 119.072 127.064 116.815C126.288 115.743 125.347 114.801 124.274 114.026C123.253 113.268 122.12 112.675 120.915 112.267C118.85 111.524 116.63 111.313 114.462 111.655C112.294 111.996 110.246 112.878 108.509 114.22C106.158 116.032 104.508 118.603 103.84 121.496C103.589 122.523 103.507 123.584 103.598 124.637Z" fill="#FAFAFA"/>
<path d="M158.957 127.596C159.07 126.548 159.245 125.507 159.478 124.479C160.231 121.704 161.887 119.259 164.184 117.53C165.87 116.264 167.846 115.439 169.933 115.132C172.019 114.825 174.149 115.045 176.129 115.772C177.27 116.179 178.342 116.759 179.306 117.494C180.326 118.239 181.222 119.139 181.962 120.162C183.545 122.315 184.399 124.917 184.399 127.59C184.399 130.262 183.545 132.864 181.962 135.017C180.493 137.027 178.464 138.559 176.129 139.419C174.011 140.19 171.726 140.387 169.507 139.989C167.574 139.636 165.751 138.834 164.184 137.649C161.886 135.926 160.229 133.484 159.478 130.712C159.246 129.684 159.071 128.644 158.957 127.596C158.883 128.663 158.981 129.736 159.248 130.773C159.915 133.662 161.56 136.233 163.905 138.049C165.652 139.377 167.705 140.244 169.875 140.57C172.045 140.896 174.262 140.672 176.323 139.917C177.524 139.5 178.654 138.899 179.67 138.134C180.739 137.356 181.681 136.414 182.459 135.345C184.129 133.088 185.03 130.355 185.03 127.547C185.03 124.74 184.129 122.006 182.459 119.749C181.684 118.677 180.742 117.735 179.67 116.96C178.654 116.196 177.524 115.594 176.323 115.178C174.108 114.382 171.721 114.198 169.41 114.644C166.964 115.115 164.705 116.28 162.903 118C161.101 119.721 159.832 121.924 159.248 124.346C158.974 125.406 158.875 126.504 158.957 127.596Z" fill="#FAFAFA"/>
<path d="M108.146 125.888L99.4384 214.209L87.1174 213.129L96.1883 124.845L108.146 125.888Z" fill="#E0E0E0"/>
<path d="M143.144 101.596C143.144 101.159 141.931 100.686 139.748 100.189C137.565 99.6918 134.352 99.1825 130.507 98.4428C128.591 98.0668 126.518 97.6302 124.347 97.0481C123.267 96.745 122.152 96.4297 121.024 96.0537C119.919 95.7097 118.834 95.3049 117.774 94.841C117.125 94.6167 116.565 94.192 116.173 93.6283C116.142 93.4845 116.142 93.3356 116.173 93.1918C116.244 92.7361 116.362 92.289 116.525 91.8578C117.4 89.2108 118.461 86.6293 119.702 84.1329C120.304 83.0034 121.015 81.9352 121.824 80.9435C122.212 80.4948 122.649 80.0219 123.037 79.6581C123.411 79.3338 123.817 79.0493 124.25 78.8092C124.5 78.6375 124.784 78.5188 125.082 78.4604C125.38 78.402 125.687 78.4052 125.984 78.4697C126.853 78.7851 127.644 79.2858 128.3 79.937C131.626 82.8211 134.518 86.1704 136.886 89.8811C140.936 96.3084 142.04 101.183 142.95 101.026C143.362 101.026 143.629 99.6554 143.447 97.3149C143.089 94.0085 142.187 90.7838 140.779 87.771C138.688 83.2373 135.782 79.1267 132.205 75.6441C130.965 74.348 129.447 73.3489 127.767 72.7215C126.682 72.3592 125.531 72.2392 124.395 72.3698C123.318 72.5048 122.275 72.8335 121.315 73.34C120.443 73.7906 119.629 74.3443 118.89 74.9892C118.228 75.5758 117.604 76.2036 117.022 76.8689C115.903 78.1903 114.931 79.6298 114.124 81.1618C112.713 83.9855 111.552 86.9275 110.655 89.9539C110.35 90.8723 110.162 91.8258 110.098 92.7916C110.008 94.0518 110.273 95.3119 110.862 96.4297C111.412 97.4387 112.193 98.3031 113.141 98.9521C113.876 99.4388 114.661 99.8454 115.482 100.165C116.803 100.66 118.156 101.065 119.532 101.377C120.818 101.705 122.067 101.947 123.28 102.154C128.693 103.024 134.196 103.187 139.651 102.639C141.87 102.384 143.131 102.032 143.144 101.596Z" fill="#E0E0E0"/>
<path d="M141.605 102.13C141.605 102.567 143.048 102.882 145.595 103.052C149.178 103.257 152.771 103.229 156.351 102.967C161.762 102.625 167.122 101.723 172.347 100.275C174.073 99.8348 175.73 99.1573 177.27 98.2619C178.329 97.6403 179.236 96.7911 179.926 95.7759C180.733 94.5333 181.101 93.0559 180.969 91.5799C180.855 90.493 180.603 89.4252 180.217 88.4027C179.926 87.6144 179.635 86.814 179.332 85.9773C178.701 84.26 177.947 82.5902 177.076 80.981C176.144 79.2547 174.985 77.6601 173.632 76.2393C172.946 75.527 172.208 74.8663 171.425 74.2626C170.587 73.6193 169.675 73.0779 168.709 72.6498C166.654 71.7125 164.345 71.4863 162.148 72.007C160.287 72.5282 158.557 73.4328 157.067 74.6628C152.745 78.1381 149.053 82.3304 146.152 87.0566C144.18 90.2185 142.768 93.6976 141.981 97.3402C141.484 99.9233 141.653 101.403 142.054 101.488C142.999 101.718 144.479 96.3216 149.827 89.5911C152.94 85.6994 156.567 82.2482 160.608 79.3317C161.488 78.6489 162.5 78.1536 163.579 77.8765C164.493 77.7088 165.437 77.854 166.259 78.2888C166.774 78.5343 167.258 78.8396 167.702 79.1983C168.226 79.6166 168.716 80.0748 169.169 80.5687C170.119 81.6191 170.934 82.7842 171.595 84.037C172.331 85.3989 172.976 86.8088 173.523 88.2571L174.396 90.5128C174.611 91.0058 174.766 91.5229 174.857 92.0529C174.857 92.3561 174.857 92.2954 174.857 92.441C174.662 92.7283 174.405 92.9686 174.105 93.1443C173.034 93.8075 171.88 94.3254 170.673 94.6844C165.827 96.2949 160.875 97.5713 155.854 98.5044C151.513 99.3533 147.935 99.9839 145.473 100.566C143.012 101.148 141.532 101.694 141.605 102.13Z" fill="#FAFAFA"/>
<path d="M75.0381 92.5507L181.348 101.87L178.699 132.084L72.3895 122.764L75.0381 92.5507Z" fill="#FF725E"/>
<path d="M114.138 95.9752L210.239 104.4L207.591 134.614L111.489 126.189L114.138 95.9752Z" fill="#FF725E"/>
<path d="M180.75 101.803L177.646 132.132L166.452 131.004L169.642 100.833L180.75 101.803Z" fill="#FAFAFA"/>
<path d="M101.1 94.9738L97.6192 124.988L85.286 123.909L88.3663 93.7005L101.1 94.9738Z" fill="#E0E0E0"/>
<path d="M159.601 100.83C159.197 102.746 158.462 104.576 157.43 106.239C156.271 107.998 154.691 109.44 152.834 110.435C151.239 111.295 149.478 111.803 147.67 111.926C145.862 112.048 144.048 111.782 142.352 111.146C140.655 110.509 139.114 109.517 137.833 108.236C136.551 106.954 135.559 105.413 134.923 103.717C134.291 101.863 133.979 99.9148 134.001 97.9564C134.001 97.9564 134.001 98.1019 133.916 98.3687C133.854 98.7703 133.818 99.1753 133.807 99.5814C133.774 101.05 134.008 102.513 134.498 103.899C135.223 105.985 136.477 107.849 138.136 109.307C139.109 110.165 140.199 110.88 141.374 111.429C142.647 111.993 143.995 112.369 145.376 112.545C148.069 112.838 150.787 112.296 153.161 110.993C155.082 109.926 156.698 108.385 157.855 106.518C158.637 105.277 159.187 103.905 159.48 102.468C159.563 102.068 159.62 101.662 159.649 101.255C159.625 100.976 159.625 100.843 159.601 100.83Z" fill="#FAFAFA"/>
<path d="M148.021 128.917C148.427 127.008 149.157 125.183 150.18 123.52C151.343 121.757 152.926 120.311 154.788 119.312C157.058 118.086 159.649 117.583 162.214 117.871C164.778 118.159 167.193 119.225 169.134 120.925C170.73 122.307 171.956 124.067 172.699 126.043C173.338 127.89 173.646 129.836 173.609 131.791C173.609 131.791 173.669 131.658 173.706 131.391C173.768 130.99 173.801 130.584 173.803 130.178C173.834 128.71 173.604 127.248 173.124 125.861C172.394 123.78 171.141 121.922 169.486 120.464C168.519 119.604 167.432 118.889 166.26 118.342C164.986 117.769 163.633 117.393 162.246 117.227C159.557 116.929 156.841 117.472 154.472 118.779C152.549 119.846 150.929 121.386 149.767 123.254C148.991 124.498 148.441 125.869 148.142 127.304C148.062 127.704 148.009 128.109 147.985 128.517C147.997 128.771 147.997 128.917 148.021 128.917Z" fill="#FAFAFA"/>
<path d="M96.0679 110.811C96.1831 109.768 96.3572 108.731 96.5893 107.707C97.3397 104.931 98.9957 102.485 101.295 100.758C102.862 99.5727 104.685 98.7711 106.618 98.4176C108.838 98.0243 111.122 98.2251 113.24 98.9997C114.381 99.402 115.453 99.9788 116.417 100.71C117.437 101.459 118.333 102.363 119.073 103.39C120.656 105.543 121.509 108.145 121.509 110.817C121.509 113.49 120.656 116.092 119.073 118.245C118.333 119.268 117.436 120.168 116.417 120.913C115.456 121.652 114.383 122.233 113.24 122.635C111.123 123.412 108.837 123.609 106.618 123.205C104.685 122.861 102.86 122.063 101.295 120.877C98.9957 119.149 97.3397 116.704 96.5893 113.928C96.3554 112.9 96.1813 111.859 96.0679 110.811C95.9941 111.879 96.0923 112.952 96.3589 113.989C97.0197 116.881 98.666 119.453 101.016 121.265C102.752 122.614 104.801 123.5 106.973 123.842C109.145 124.183 111.368 123.968 113.434 123.217C114.635 122.801 115.765 122.199 116.781 121.435C117.853 120.659 118.795 119.718 119.57 118.645C121.239 116.39 122.14 113.659 122.14 110.854C122.14 108.048 121.239 105.317 119.57 103.062C118.795 101.986 117.853 101.041 116.781 100.261C115.759 99.5052 114.631 98.9045 113.434 98.4782C111.218 97.6885 108.832 97.5043 106.521 97.9446C104.519 98.3332 102.637 99.1891 101.028 100.443C98.6721 102.251 97.0209 104.824 96.3589 107.719C96.1001 108.728 96.0019 109.772 96.0679 110.811Z" fill="#FAFAFA"/>
<path d="M179.635 116.876C179.748 115.828 179.922 114.788 180.156 113.76C180.776 111.422 182.048 109.308 183.824 107.666C185.6 106.023 187.806 104.919 190.185 104.483C192.399 104.079 194.681 104.276 196.794 105.053C197.936 105.459 199.007 106.04 199.971 106.775C200.997 107.513 201.894 108.414 202.627 109.442C204.21 111.595 205.064 114.198 205.064 116.87C205.064 119.543 204.21 122.145 202.627 124.298C201.894 125.33 200.997 126.236 199.971 126.978C199.004 127.708 197.933 128.288 196.794 128.7C194.675 129.465 192.392 129.661 190.173 129.27C187.799 128.825 185.599 127.717 183.826 126.076C182.054 124.435 180.782 122.326 180.156 119.993C179.924 118.965 179.75 117.924 179.635 116.876C179.552 117.94 179.646 119.009 179.913 120.041C180.575 122.936 182.227 125.51 184.582 127.318C186.195 128.573 188.081 129.429 190.088 129.816C192.395 130.256 194.777 130.071 196.988 129.282C198.188 128.861 199.316 128.26 200.335 127.5C201.411 126.723 202.353 125.777 203.124 124.698C204.801 122.446 205.706 119.714 205.706 116.907C205.706 114.099 204.801 111.367 203.124 109.115C201.579 107.015 199.442 105.424 196.988 104.543C194.778 103.75 192.396 103.561 190.088 103.997C188.081 104.384 186.195 105.24 184.582 106.496C182.227 108.304 180.575 110.877 179.913 113.772C179.654 114.785 179.56 115.833 179.635 116.876Z" fill="#FAFAFA"/>
<g opacity="0.3">
<path d="M85.5533 123.911L127.052 127.549L199.377 133.891L126.166 137.638L119.303 215.954L77.8163 212.316L85.5533 123.911Z" fill="black"/>
</g>
<g opacity="0.4">
<path d="M75.0389 92.5615L114.132 95.9885L111.483 126.202L72.3903 122.775L75.0389 92.5615Z" fill="black"/>
</g>
<path d="M155.49 179.937C156.045 181.094 156.759 182.167 157.612 183.126C158.266 183.922 159.049 184.602 159.929 185.139L161.141 185.83C162.883 186.803 164.861 187.269 166.853 187.176C175.621 186.8 202.094 185.551 207.163 184.327C213.227 182.847 239.736 146.733 239.736 146.733L256.714 158.678C256.714 158.678 237.929 191.773 222.37 202.844C212.487 209.878 160.777 202.02 160.741 202.008C156.769 202.717 152.761 203.21 148.735 203.487C143.072 203.633 143.06 203.135 143.145 202.469C143.4 200.686 153.089 201.826 151.149 200.383C149.208 198.94 139.143 200.383 139.483 198.515C139.931 196.09 150.045 197.484 150.918 197.545C151.791 197.606 151.888 196.332 151.1 196.332C149.972 196.332 138.149 195.932 138.573 193.567C138.803 192.245 141.12 192.888 141.12 192.888C141.12 192.888 152.155 194.101 152.313 192.888C152.471 191.676 146.019 190.839 143.824 190.681C141.629 190.523 140.841 189.468 141.702 188.535C142.296 187.916 149.039 188.219 151.209 188.425C153.38 188.632 159.322 189.287 156.654 186.582C153.986 183.878 153.016 180.786 153.271 179.755C153.382 179.546 153.552 179.374 153.76 179.26C153.968 179.147 154.204 179.097 154.44 179.116C154.676 179.136 154.901 179.224 155.088 179.369C155.275 179.515 155.414 179.712 155.49 179.937Z" fill="#FFBE9D"/>
<path d="M253.463 122.417C253.463 122.417 267.7 137.357 258.641 159.04L246.66 178.637L222.345 160.229L253.463 122.417Z" fill="#455A64"/>
<path d="M79.9011 125.256C80.6166 123.861 81.9627 123 83.1754 123.873C83.3877 124.221 83.5089 124.617 83.528 125.024C83.5471 125.431 83.4634 125.836 83.2845 126.202L77.1119 139.238L82.4842 130.216C83.1875 128.821 84.6428 128.13 85.4431 129.064C85.6258 129.412 85.7213 129.799 85.7213 130.192C85.7213 130.584 85.6258 130.972 85.4431 131.319L80.1679 142.124L84.1455 135.467C84.9944 133.939 85.7827 133.623 86.5709 134.084C87.3592 134.545 87.1894 135.77 86.8984 136.376L83.1875 144.38C83.4786 146.054 84.5943 151.389 82.4114 153.973C82.2901 154.106 82.4963 154.615 82.4114 154.773L83.1147 155.864L81.4291 165.918C77.0755 163.419 73.4011 146.405 73.1707 142.294C72.9712 139.963 73.4159 137.623 74.4561 135.527L79.9011 125.256Z" fill="#FFBE9D"/>
</g>
<defs>
<clipPath id="clip0_9738_420266">
<rect width="284.583" height="260" fill="white" transform="translate(0.293945 0.844421)"/>
</clipPath>
</defs>
</svg>
