<svg width="286" height="261" viewBox="0 0 286 261" fill="none" xmlns="http://www.w3.org/2000/svg">
<g clip-path="url(#clip0_9738_436413)">
<g clip-path="url(#clip1_9738_436413)">
<rect width="284.583" height="303.556" transform="translate(0.855469 -21.4111)" fill="#1A1A1A"/>
<path d="M0.134254 234.742C13.263 223.995 14.9611 205.933 13.1018 189.977C12.7887 187.312 12.8551 184.475 11.3753 182.237C9.89546 179.998 6.76505 178.641 4.43147 179.97C2.53424 181.07 1.8133 183.451 0.845718 185.452C-0.455154 188.141 -2.4868 190.41 -5.0167 191.998C-6.66728 193.022 -8.75423 193.734 -10.5376 192.947C-12.9755 191.865 -13.5068 188.706 -13.706 186.05C-14.0854 181.098 -14.4585 176.143 -14.8253 171.185C-14.8878 168.515 -15.3811 165.872 -16.2862 163.359C-17.3297 160.912 -19.3692 158.721 -21.9779 158.227C-24.5865 157.734 -27.6695 159.442 -27.9731 162.088C-27.9853 163.198 -27.9219 164.307 -27.7834 165.408C-27.7295 165.959 -27.8371 166.513 -28.0932 167.003C-28.3493 167.494 -28.7427 167.899 -29.2253 168.169C-30.2687 168.567 -31.4071 167.903 -32.2798 167.22C-35.2774 164.773 -37.4497 161.472 -39.4892 158.18C-41.5287 154.888 -43.5303 151.54 -46.2908 148.789C-49.0512 146.038 -52.7318 144.046 -56.6022 144.14C-60.4725 144.235 -64.3903 146.939 -65.0543 150.781C-65.7183 154.623 -63.2045 158.227 -60.5484 161.054C-56.5924 165.23 -52.0558 168.815 -47.0781 171.698C-46.1242 172.123 -45.3302 172.84 -44.8109 173.747C-44.0805 175.473 -45.6362 177.37 -47.3532 178.101C-49.3074 178.926 -51.5081 178.898 -53.5856 179.315C-55.663 179.732 -57.8638 180.833 -58.4994 182.853C-59.3721 185.699 -56.8393 188.317 -54.4298 189.996C-49.5741 193.359 -44.1818 195.87 -38.4837 197.424C-36.4442 197.974 -34.3098 198.429 -32.6023 199.672C-30.8948 200.915 -29.7565 203.22 -30.5438 205.174C-31.3312 207.128 -33.7786 207.925 -35.8845 207.716C-37.9904 207.508 -39.9351 206.55 -41.9746 205.98C-45.769 204.908 -50.5121 205.554 -52.6559 208.902C-53.2899 210.044 -53.6468 211.319 -53.6979 212.624C-53.7489 213.929 -53.4928 215.227 -52.95 216.415C-51.8458 218.777 -50.278 220.894 -48.3398 222.638C-41.8829 229.122 -33.8253 233.783 -24.985 236.146C-16.1629 238.376 -8.14712 238.518 0.134254 234.742Z" fill="#EBEBEB"/>
<path d="M1.28194 246.591C-0.081646 239.233 -2.15618 232.024 -4.91248 225.067C-8.31839 216.568 -12.2175 208.276 -16.5899 200.232L-20.0144 193.895C-21.1337 191.808 -22.2436 189.74 -23.4578 187.786C-25.7848 184.04 -28.3183 180.427 -31.0467 176.963C-33.6364 173.633 -36.2261 170.56 -38.6356 167.714C-41.0451 164.868 -43.3787 162.259 -45.6269 159.964C-49.1252 156.334 -52.9028 152.985 -56.9248 149.946C-58.3477 148.865 -59.4861 148.049 -60.2545 147.537L-61.1367 146.93C-61.2374 146.861 -61.3419 146.797 -61.4497 146.74C-61.4497 146.74 -61.3548 146.825 -61.1651 146.968L-60.3019 147.603C-59.543 148.153 -58.4047 148.969 -57.0197 150.07C-53.0436 153.148 -49.305 156.522 -45.8356 160.163C-43.6253 162.458 -41.3107 165.077 -38.8822 167.932C-36.4538 170.787 -33.8926 173.861 -31.2934 177.19C-28.5659 180.649 -26.0324 184.256 -23.7045 187.995C-22.4997 189.94 -21.3993 191.998 -20.28 194.085L-16.884 200.431C-12.5479 208.464 -8.6652 216.733 -5.25399 225.2C-2.49445 232.132 -0.398129 239.31 1.00686 246.638" fill="#E0E0E0"/>
<path d="M-5.34863 224.459C-5.27404 224.316 -5.2106 224.167 -5.15891 224.013C-5.0261 223.681 -4.87433 223.255 -4.67512 222.733C-4.25773 221.614 -3.7265 219.972 -3.02453 217.99C-1.68699 213.939 -0.00794983 208.286 1.77544 202.015C3.55883 195.745 5.18095 190.091 6.45209 186.022C7.08766 184.03 7.59991 182.398 7.97936 181.203C8.15011 180.671 8.28291 180.254 8.38726 179.894C8.44552 179.744 8.48688 179.588 8.51058 179.429C8.42598 179.565 8.35904 179.712 8.31137 179.865C8.18805 180.207 8.02678 180.634 7.82758 181.155C7.41019 182.275 6.87897 183.906 6.18648 185.898C4.83945 189.949 3.16041 195.603 1.3865 201.873C-0.387398 208.143 -1.99055 213.816 -3.29963 217.866C-3.92571 219.859 -4.44745 221.49 -4.81741 222.676C-4.98816 223.217 -5.12096 223.625 -5.2348 223.995C-5.28783 224.145 -5.32596 224.301 -5.34863 224.459Z" fill="#E0E0E0"/>
<path d="M345.486 245.12C345.486 245.262 254.751 245.376 142.862 245.376C30.9736 245.376 -59.7896 245.281 -59.7896 245.12C-59.7896 244.958 30.9261 244.854 142.862 244.854C254.798 244.854 345.486 244.996 345.486 245.12Z" fill="#263238"/>
<path d="M40.5165 184.874L11.8779 156.103L26.2778 129.655C40.6778 111.214 71.1661 112.4 71.1661 112.4C86.2074 111.378 101.318 112.306 116.121 115.161C140.339 119.904 138.385 135.897 138.385 135.897L141.629 195.252L145.11 243.584L55.7986 245.386L40.5165 184.912" fill="#FF725E"/>
<path d="M88.6302 242.559L8.63383 243.508C4.22699 243.559 -0.120573 242.489 -4.0005 240.399C-7.88043 238.309 -11.1654 235.267 -13.5469 231.558C-15.9283 227.85 -17.3282 223.597 -17.6148 219.199C-17.9015 214.802 -17.0657 210.403 -15.1858 206.417L19.0211 142.983L50.183 164.042L28.9246 208.124L93.6768 209.282L88.6302 242.559Z" fill="#FF725E"/>
<path d="M135.558 126.221L199.751 225.332L162.299 227.78C162.299 227.78 139.931 192.539 140.434 193.26C141.326 194.588 135.558 126.221 135.558 126.221Z" fill="#FF725E"/>
<path d="M48.5702 169.744C48.5725 169.57 48.6013 169.397 48.6556 169.231C48.7504 168.852 48.8548 168.378 48.9971 167.789C49.2911 166.547 49.7275 164.744 50.1733 162.506C50.6192 160.267 51.122 157.573 51.435 154.575C51.8203 151.327 51.8203 148.044 51.435 144.795C50.9203 141.574 49.7967 138.48 48.1243 135.679C46.7803 133.373 45.19 131.22 43.3813 129.257C42.1622 127.915 40.8634 126.648 39.492 125.462C38.9692 125.053 38.4689 124.616 37.9932 124.153C38.1476 124.23 38.2938 124.322 38.4295 124.428C38.6951 124.628 39.122 124.903 39.6153 125.311C41.0418 126.437 42.3859 127.664 43.6374 128.982C45.5072 130.93 47.1493 133.085 48.5322 135.404C50.2634 138.248 51.4234 141.403 51.9472 144.691C52.3229 147.98 52.2974 151.302 51.8713 154.585C51.551 157.256 51.095 159.909 50.5053 162.534C50.0121 164.782 49.5567 166.575 49.1678 167.808C48.9971 168.425 48.8453 168.899 48.7409 169.222C48.701 169.401 48.6438 169.576 48.5702 169.744Z" fill="#263238"/>
<path d="M45.9904 173.159C45.8534 173.653 45.6692 174.132 45.4402 174.591C45.0607 175.54 44.4916 176.811 43.7611 178.385C42.3098 181.601 40.2513 186.022 37.8798 190.86C35.5082 195.698 33.2695 200.033 31.6094 203.192C30.7747 204.747 30.0917 206.037 29.6079 206.863C29.3769 207.322 29.1105 207.763 28.811 208.181C28.9814 207.697 29.1908 207.228 29.4371 206.777C29.9209 205.829 30.547 204.558 31.3343 203.03L37.4719 190.698C39.796 185.889 41.9114 181.544 43.4861 178.291C44.226 176.763 44.8331 175.492 45.3074 174.496C45.4972 174.032 45.7257 173.585 45.9904 173.159Z" fill="#263238"/>
<path d="M88.6301 242.559C88.6301 242.559 88.6301 242.502 88.6301 242.398C88.6301 242.293 88.6301 242.104 88.6301 241.904C88.6776 241.449 88.744 240.814 88.8198 240.007C89.0096 238.319 89.2752 235.919 89.6072 232.893C90.3092 226.755 91.3147 218.123 92.453 207.944L92.6807 208.191H69.0508L27.7767 208.124L15.2551 208.049L11.8495 208.001H10.9579H10.6543C10.7551 207.989 10.857 207.989 10.9579 208.001H11.8495L15.2551 207.954L27.7767 207.878L69.1172 207.811H92.7471H93.0032V208.058C91.7511 218.227 90.6981 226.859 89.9392 232.988C89.5598 236.004 89.2467 238.404 88.9906 240.093C88.8894 240.889 88.804 241.522 88.7345 241.99L88.6586 242.474C88.6491 242.502 88.6396 242.559 88.6301 242.559Z" fill="#263238"/>
<path d="M29.4842 208.826C28.9112 208.194 28.3789 207.525 27.8905 206.825C25.334 203.615 22.1682 200.943 18.5751 198.961C17.8078 198.589 17.0605 198.178 16.3364 197.728C17.1785 197.925 17.9871 198.245 18.7364 198.676C22.4786 200.525 25.7147 203.257 28.1656 206.635C28.7042 207.301 29.1479 208.039 29.4842 208.826Z" fill="#263238"/>
<path d="M142.957 215.106C142.888 214.836 142.843 214.559 142.824 214.281C142.758 213.702 142.673 212.915 142.559 211.919C142.341 209.87 142.047 206.901 141.734 203.23C141.079 195.878 140.33 185.709 139.666 174.477C139.002 163.246 138.537 153.058 138.271 145.687C138.138 141.997 138.043 139.047 138.006 136.95C138.006 135.954 138.006 135.167 137.958 134.579C137.944 134.304 137.944 134.028 137.958 133.753C138.011 134.025 138.039 134.302 138.043 134.579C138.043 135.157 138.119 135.954 138.176 136.95C138.281 139.056 138.423 142.025 138.603 145.668C138.954 153.039 139.476 163.208 140.14 174.449C140.804 185.69 141.506 195.84 142.037 203.201C142.322 206.834 142.549 209.841 142.711 211.909C142.787 212.858 142.843 213.693 142.891 214.271C142.938 214.547 142.96 214.826 142.957 215.106Z" fill="#263238"/>
<path d="M71.5459 161.178C71.55 160.743 71.5849 160.308 71.6503 159.878C71.7641 158.977 71.9064 157.772 72.0866 156.292C72.504 153.162 73.0352 148.874 73.7372 143.903L74.0977 144.131L67.9602 148.428L61.7183 152.773L61.2725 153.086L61.3484 152.545C62.1072 147.622 62.7523 143.372 63.2456 140.213C63.4922 138.762 63.6819 137.567 63.8337 136.675C63.8846 136.247 63.9735 135.825 64.0993 135.413C64.1 135.846 64.0619 136.278 63.9855 136.703C63.8717 137.595 63.7294 138.79 63.5396 140.261C63.1128 143.372 62.5151 147.631 61.8321 152.593L61.4717 152.365L67.704 148.001L73.851 143.723L74.2969 143.41L74.221 143.951C73.4906 148.903 72.855 153.19 72.3997 156.283C72.1625 157.753 71.9728 158.958 71.8305 159.85C71.7755 160.3 71.6803 160.744 71.5459 161.178Z" fill="#E0E0E0"/>
<path d="M107.251 165.02C106.91 164.747 106.592 164.446 106.303 164.118C105.686 163.454 104.851 162.572 103.827 161.491L95.3558 152.308L95.7638 152.166C95.5645 154.49 95.3558 157.013 95.1377 159.631C94.9195 162.25 94.6918 164.849 94.4926 167.22L94.4452 167.771L94.0847 167.363L85.8413 158.066L83.4887 155.353C83.1894 155.043 82.9224 154.703 82.6919 154.338C83.0331 154.628 83.3503 154.946 83.6405 155.287L86.0879 157.905L94.4547 167.078L94.0468 167.22C94.246 164.858 94.4547 162.297 94.6823 159.631C94.91 156.966 95.1187 154.49 95.3179 152.166L95.3653 151.625L95.7258 152.024L104.074 161.329L106.455 164.052C106.745 164.353 107.012 164.677 107.251 165.02Z" fill="#E0E0E0"/>
<path d="M125.218 163.748C125.042 164.148 124.826 164.53 124.573 164.887L122.676 167.941L115.903 178.452L115.675 178.091L123.037 176.82L130.531 175.559L131.071 175.464L130.815 175.872L123.89 186.174L121.803 189.152C121.572 189.517 121.312 189.863 121.025 190.186C121.213 189.798 121.428 189.424 121.671 189.067L123.568 186.031L130.35 175.597L130.587 175.957L123.093 177.257L115.704 178.509L115.163 178.594L115.467 178.148L122.382 167.714L124.412 164.725C124.661 164.384 124.93 164.058 125.218 163.748Z" fill="#E0E0E0"/>
<path d="M101.322 182.132C101.144 182.529 100.928 182.907 100.677 183.261L98.7802 186.325L92.0166 196.826L91.7794 196.466L99.1596 195.195L106.663 193.924L107.204 193.838L106.891 194.284L99.9659 204.596L97.9264 207.555C97.6999 207.92 97.4395 208.263 97.1485 208.58C97.3384 208.193 97.5539 207.819 97.7936 207.46C98.2869 206.701 98.9319 205.686 99.6908 204.434L106.473 194L106.711 194.36L99.2165 195.66L91.8268 196.902L91.2861 196.997L91.5897 196.542L98.5051 186.107C99.3398 184.874 100.023 183.868 100.545 183.119C100.78 182.772 101.04 182.442 101.322 182.132Z" fill="#E0E0E0"/>
<path d="M152.955 163.54C152.767 163.931 152.552 164.308 152.31 164.669L150.413 167.733L143.649 178.234L143.412 177.873L150.792 176.602L158.296 175.331L158.837 175.246L158.533 175.691L151.599 186.003C150.764 187.217 150.081 188.213 149.559 188.953C149.335 189.322 149.074 189.669 148.781 189.987C148.973 189.599 149.192 189.225 149.436 188.868L151.333 185.842L158.116 175.407L158.353 175.767L150.859 177.057L143.469 178.31L142.938 178.404L143.232 177.949L150.147 167.514L152.187 164.526C152.41 164.173 152.668 163.843 152.955 163.54Z" fill="#E0E0E0"/>
<path d="M182.742 211.293C182.403 211.035 182.085 210.749 181.793 210.439L179.194 207.935L170.267 199.189L170.666 199.027C170.59 201.361 170.514 203.884 170.429 206.512C170.343 209.139 170.239 211.748 170.154 214.101V214.651L169.765 214.262L161.075 205.392L158.59 202.803C158.281 202.509 157.996 202.192 157.736 201.854C158.074 202.114 158.391 202.399 158.685 202.708L161.265 205.203L170.087 213.949L169.679 214.11C169.755 211.739 169.841 209.177 169.926 206.521C170.011 203.865 170.116 201.37 170.201 199.037V198.496L170.581 198.875L179.374 207.754L181.888 210.354C182.198 210.642 182.484 210.956 182.742 211.293Z" fill="#E0E0E0"/>
<path d="M32.0549 148.305C31.8693 148.697 31.6537 149.075 31.4099 149.434L29.5127 152.498L22.7491 163.008L22.5119 162.648L29.8921 161.367L37.3956 160.106L37.9363 160.011L37.6328 160.466L30.6984 170.768L28.6684 173.728C28.438 174.09 28.1778 174.433 27.8905 174.752C28.0723 174.364 28.2882 173.993 28.5356 173.642L30.4328 170.607C32.1498 167.979 34.5023 164.374 37.2154 160.172L37.4525 160.533L29.9585 161.832L22.5688 163.084L22.0376 163.17L22.3317 162.724C25.1111 158.55 27.5016 154.945 29.247 152.289L31.2866 149.301C31.5161 148.949 31.773 148.616 32.0549 148.305Z" fill="#E0E0E0"/>
<path d="M-5.45312 219.242C-5.13351 219.531 -4.84135 219.848 -4.5804 220.191L-2.26579 222.97L5.5982 232.674L5.18081 232.788C5.52231 230.483 5.88278 227.979 6.27171 225.37C6.66064 222.761 7.04008 220.191 7.39107 217.848L7.46696 217.307L7.80846 217.743L15.4543 227.533L17.6266 230.379C17.9026 230.708 18.1501 231.061 18.3665 231.432C18.055 231.138 17.7664 230.821 17.5033 230.483L15.2266 227.713L7.49542 218.028L7.91281 217.924C7.57131 220.267 7.20135 222.809 6.81242 225.446C6.42349 228.083 6.05353 230.55 5.70254 232.855L5.62665 233.395L5.28515 232.969L-2.45551 223.16L-4.66578 220.314C-4.95202 219.975 -5.21506 219.617 -5.45312 219.242Z" fill="#E0E0E0"/>
<path d="M80.2068 173.31C79.7819 173.401 79.3505 173.459 78.9167 173.481L75.3119 173.794L62.8472 174.743L62.999 174.344L68.463 179.467L73.9934 184.684L74.3918 185.064H73.8416L61.4432 185.747L57.8575 185.898C57.4283 185.936 56.9966 185.936 56.5674 185.898C56.9898 185.814 57.4178 185.76 57.848 185.737L61.4243 185.453L73.8131 184.599L73.6708 184.997L68.1215 179.799L62.6764 174.657L62.278 174.278H62.8187L75.293 173.529L78.8977 173.348C79.3325 173.303 79.7701 173.29 80.2068 173.31Z" fill="#E0E0E0"/>
<path d="M59.1855 221.12C59.5021 221.418 59.7998 221.735 60.0772 222.069L62.4393 224.801L70.512 234.344L70.0946 234.458C70.3886 232.143 70.7112 229.639 71.0432 227.03C71.3752 224.422 71.7167 221.832 71.9918 219.489L72.0677 218.939L72.4092 219.365L80.2637 228.994L82.4929 231.84C82.7693 232.17 83.0228 232.519 83.2518 232.883C82.9319 232.592 82.6368 232.275 82.3696 231.935L80.036 229.212L72.0677 219.726L72.4756 219.603C72.1815 221.955 71.859 224.497 71.527 227.144C71.195 229.791 70.8629 232.267 70.5784 234.581L70.5025 235.122L70.161 234.705L62.2211 225.048L59.9634 222.202C59.6691 221.868 59.4086 221.506 59.1855 221.12Z" fill="#E0E0E0"/>
<path d="M21.6107 186.06C21.1863 186.153 20.7547 186.21 20.3206 186.23L16.7254 186.534L4.26062 187.483L4.40291 187.075L9.8764 192.207L15.4068 197.424L15.8052 197.804H15.255L2.85668 198.487L-0.729068 198.638C-1.14887 198.674 -1.57093 198.674 -1.99072 198.638C-1.56933 198.548 -1.14084 198.494 -0.710099 198.477L2.86617 198.192L15.255 197.329L15.1127 197.737L9.56336 192.539L4.10885 187.397L3.71991 187.018H4.26062L16.7349 186.259L20.3396 186.088C20.762 186.047 21.1869 186.037 21.6107 186.06Z" fill="#E0E0E0"/>
<path d="M53.8923 220.048C53.4676 220.139 53.036 220.193 52.6022 220.21L48.9975 220.523L36.5327 221.471L36.6845 221.064L42.1485 226.195L47.6789 231.413L48.0773 231.792H47.5366L35.1288 232.466L31.543 232.627C31.1138 232.664 30.6822 232.664 30.2529 232.627C30.6743 232.536 31.1028 232.482 31.5335 232.466L35.1098 232.181L47.4987 231.318L47.3564 231.726L41.807 226.527L36.362 221.405L35.9636 221.035H36.5043L48.9785 220.276L52.5927 220.105C53.0233 220.047 53.4583 220.028 53.8923 220.048Z" fill="#E0E0E0"/>
<path d="M126.755 133.573C126.33 133.664 125.899 133.721 125.465 133.744L121.86 134.047L109.405 134.996L109.547 134.598L115.011 139.72L120.542 144.937L120.94 145.317H120.399L107.992 146L104.406 146.152C103.977 146.189 103.545 146.189 103.116 146.152C103.537 146.061 103.966 146.007 104.396 145.99L107.973 145.706L120.371 144.852L120.219 145.25L114.689 140.062L109.244 134.92L108.845 134.541H109.386L121.86 133.782L125.474 133.611C125.9 133.566 126.328 133.554 126.755 133.573Z" fill="#E0E0E0"/>
<path d="M91.3146 220.048C91.3146 220.048 107.27 215.448 112.554 214.101C114.613 213.579 123.425 218.227 129.515 222.097C129.515 222.097 137.901 227.068 137.227 228.595C136.478 230.284 133.433 229.942 128.453 227.647C128.453 227.647 130.179 232.646 126.793 232.532C126.793 232.532 128.472 237.939 125.303 238.499C122.135 239.059 121.395 232.162 118.606 231.792C115.817 231.422 110.069 231.043 110.069 231.043C110.069 231.043 105.259 239.011 101.531 239.58C97.8031 240.15 89.1992 239.135 89.1992 239.135L91.3146 220.048Z" fill="#FFBE9D"/>
<path d="M118.549 221.149C120.111 221.844 121.604 222.686 123.008 223.663C124.497 224.505 125.901 225.49 127.201 226.603C124.145 225.073 121.248 223.246 118.549 221.149Z" fill="#EB996E"/>
<path d="M117.61 224.251C119.433 224.824 121.204 225.551 122.904 226.423C124.661 227.137 126.355 227.997 127.969 228.994C126.146 228.426 124.375 227.703 122.676 226.831C120.915 226.121 119.22 225.257 117.61 224.251Z" fill="#EB996E"/>
<path d="M119.318 231.659C121.728 231.651 124.128 231.97 126.451 232.608C124.042 232.615 121.642 232.296 119.318 231.659Z" fill="#EB996E"/>
<path d="M70.5495 55.398C70.7373 56.0128 70.74 56.6692 70.5571 57.2854C70.3743 57.9016 70.014 58.4504 69.5213 58.8631C69.0286 59.2759 68.4253 59.5345 67.7865 59.6065C67.1478 59.6786 66.502 59.561 65.9297 59.2684C63.7669 58.1775 63.4918 55.1893 63.9187 52.8083C64.3455 50.4273 65.1519 47.8756 64.1558 45.6653C63.3874 43.9768 61.7274 42.9048 60.4373 41.5768C59.2988 40.4224 58.4434 39.0199 57.9381 37.4794C57.4328 35.9388 57.2914 34.3022 57.525 32.6978C57.7984 31.0982 58.5082 29.6051 59.5761 28.3832C60.644 27.1613 62.0286 26.258 63.5772 25.7729C66.755 24.8907 70.6728 25.8678 73.0633 23.5627C74.7803 21.8931 74.8846 19.1706 76.2127 17.1785C78.2712 14.086 82.6253 13.5928 86.3059 14.0955C89.9865 14.5983 93.724 15.784 97.3287 14.8829C100.336 14.1334 102.802 12.037 105.629 10.7469C108.71 9.33857 112.154 8.92833 115.48 9.57353C118.805 10.2187 121.846 11.8871 124.177 14.3454C126.507 16.8037 128.012 19.9289 128.479 23.2841C128.946 26.6393 128.353 30.0566 126.783 33.0582C125.736 35.2549 123.954 37.0165 121.746 38.0385" fill="#263238"/>
<path d="M88.8581 133.763C91.2771 133.758 93.6711 133.273 95.9014 132.336C98.1317 131.399 100.154 130.029 101.851 128.305C103.547 126.581 104.885 124.537 105.786 122.292C106.687 120.047 107.134 117.646 107.1 115.227L106.863 97.7915C106.863 97.7915 121.509 96.3211 122.477 81.8074C123.444 67.2936 122.752 33.7982 122.752 33.7982C114.693 29.8001 105.713 28.0238 96.7391 28.6525C87.7649 29.2811 79.1206 32.2919 71.6977 37.3744L69.459 38.9207L70.5499 115.701C70.6074 120.516 72.5625 125.114 75.9905 128.496C79.4186 131.878 84.0426 133.771 88.8581 133.763Z" fill="#FFBE9D"/>
<path d="M118.919 60.1411C118.39 60.0802 117.901 59.8266 117.546 59.4286C117.191 59.0307 116.995 58.5162 116.995 57.983C116.995 57.4499 117.191 56.9353 117.546 56.5374C117.901 56.1394 118.39 55.8858 118.919 55.8249C119.034 55.7964 119.155 55.7964 119.27 55.8249C119.8 55.8858 120.289 56.1394 120.643 56.5374C120.998 56.9353 121.194 57.4499 121.194 57.983C121.194 58.5162 120.998 59.0307 120.643 59.4286C120.289 59.8266 119.8 60.0802 119.27 60.1411C119.154 60.1601 119.035 60.1601 118.919 60.1411Z" fill="#263238"/>
<path d="M121.765 55.4549C121.528 55.7016 120.162 54.5063 118.161 54.402C116.159 54.2976 114.651 55.2368 114.452 54.9712C114.252 54.7056 114.594 54.4115 115.258 53.9656C116.145 53.3963 117.192 53.1268 118.244 53.1968C119.296 53.2668 120.297 53.6726 121.101 54.3546C121.699 54.8858 121.889 55.398 121.765 55.4549Z" fill="#263238"/>
<path d="M98.6286 55.9483C98.9728 56.1865 99.2385 56.5215 99.3922 56.9109C99.5459 57.3003 99.5806 57.7265 99.4919 58.1355C99.4032 58.5446 99.1952 58.9182 98.8941 59.209C98.593 59.4999 98.2125 59.6948 97.8005 59.7692C97.3886 59.8436 96.9639 59.7941 96.5801 59.6271C96.1963 59.46 95.8707 59.1828 95.6445 58.8306C95.4183 58.4783 95.3017 58.0669 95.3094 57.6484C95.3172 57.2299 95.4489 56.8231 95.6879 56.4795C96.0079 56.0196 96.4971 55.7054 97.0484 55.6058C97.5997 55.5062 98.168 55.6294 98.6286 55.9483Z" fill="#263238"/>
<path d="M99.9474 56.0336C99.7007 56.2803 98.3347 55.085 96.3427 54.9807C94.3506 54.8763 92.8328 55.8154 92.6241 55.5498C92.5198 55.4265 92.7759 54.9902 93.4304 54.5443C94.3177 53.9749 95.3643 53.7054 96.4163 53.7755C97.4682 53.8455 98.4699 54.2513 99.2739 54.9332C99.8715 55.4645 100.061 55.9293 99.9474 56.0336Z" fill="#263238"/>
<path d="M107.099 72.9758C107.099 72.824 108.342 72.6343 110.372 72.4636C110.894 72.4636 111.321 72.3402 111.368 72.0651C111.406 71.5421 111.305 71.0183 111.074 70.5474C110.628 69.1908 110.182 67.8248 109.708 66.3924C107.811 60.4826 106.568 55.6162 106.862 55.5214C107.156 55.4265 108.921 60.1411 110.79 66.0509C111.226 67.4928 111.653 68.8968 112.061 70.2248C112.362 70.9154 112.422 71.6872 112.231 72.4161C112.147 72.613 112.017 72.7869 111.852 72.9238C111.687 73.0606 111.492 73.1565 111.283 73.2035C110.987 73.2695 110.684 73.2918 110.382 73.2699C108.333 73.2319 107.099 73.1371 107.099 72.9758Z" fill="#263238"/>
<path d="M100.459 74.8351C103.508 76.4003 106.757 77.5397 110.116 78.2216C109.38 79.2331 108.323 79.9656 107.117 80.2998C105.911 80.6339 104.628 80.5501 103.476 80.0619C99.1976 78.2311 100.459 74.8351 100.459 74.8351Z" fill="white"/>
<path d="M106.919 97.5828C100.204 97.3433 93.712 95.1111 88.2695 91.1702C88.2695 91.1702 92.1778 101.861 106.739 101.349L106.919 97.5828Z" fill="#EB996E"/>
<path d="M122.875 37.4693C122.875 37.4693 114.101 41.9278 102.48 36.4069C94.8912 32.7832 86.0027 31.1041 84.0865 32.6693C82.1703 34.2345 81.9142 42.0132 74.4771 44.4321C74.4771 44.4321 75.2834 59.2874 69.3451 58.87C63.4068 58.4526 66.67 35.3729 66.67 35.3729L81.0225 28.0117L96.7789 24.72L111.72 26.5318L123.312 29.463L122.875 37.4693Z" fill="#263238"/>
<path d="M70.4265 54.0985C70.1894 53.9751 60.6084 50.5981 60.3902 60.549C60.172 70.4999 70.1989 68.6691 70.2178 68.3845C70.2368 68.0999 70.4265 54.0985 70.4265 54.0985Z" fill="#FFBE9D"/>
<path d="M67.2582 64.5427C67.2582 64.5427 67.0779 64.666 66.7839 64.7893C66.3672 64.9586 65.9009 64.9586 65.4843 64.7893C64.4408 64.3814 63.587 62.6929 63.587 60.9C63.5858 60.0453 63.7703 59.2005 64.1277 58.4241C64.2299 58.116 64.4048 57.837 64.6376 57.6108C64.8704 57.3845 65.1543 57.2178 65.4653 57.1245C65.666 57.088 65.8732 57.1172 66.0561 57.2078C66.2389 57.2983 66.3877 57.4455 66.4803 57.6273C66.6036 57.9024 66.5372 58.1016 66.5846 58.1205C66.6321 58.1395 66.8028 57.9593 66.7364 57.5514C66.6843 57.3032 66.5507 57.0795 66.357 56.9158C66.0884 56.7047 65.7483 56.6061 65.4084 56.6407C64.9976 56.7116 64.6119 56.8866 64.2881 57.149C63.9642 57.4114 63.7131 57.7524 63.5586 58.1395C63.1205 58.9936 62.8928 59.9401 62.8945 60.9C62.8945 62.9016 63.9001 64.8083 65.323 65.2541C65.5891 65.3353 65.8698 65.357 66.1452 65.3177C66.4206 65.2784 66.684 65.1789 66.9167 65.0264C67.2582 64.7893 67.2582 64.5616 67.2582 64.5427Z" fill="#EB996E"/>
<path d="M65.3608 22.9555C66.4959 22.6225 67.7083 22.6662 68.8165 23.0801C69.9246 23.4939 70.8689 24.2557 71.5078 25.2511C70.6234 24.5813 69.6693 24.0088 68.662 23.5436C67.585 23.2334 66.4787 23.0363 65.3608 22.9555Z" fill="#263238"/>
<path d="M71.3465 16.9982C71.5267 16.9982 71.2516 19.0947 71.5931 21.58C71.8883 23.0742 72.3563 24.5291 72.9876 25.9152C72.9876 25.9152 72.5702 25.5642 72.1528 24.8243C71.6172 23.8395 71.2637 22.7662 71.1093 21.6559C70.833 20.1055 70.9141 18.5125 71.3465 16.9982Z" fill="#263238"/>
<path d="M112.222 50.655C112.165 50.5411 112.592 50.1901 113.399 49.8676C115.539 49.0398 117.915 49.0636 120.039 49.934C120.836 50.2755 121.263 50.6265 121.206 50.7403C121.082 51.0059 119.166 50.2565 116.709 50.2565C114.252 50.2565 112.336 50.949 112.222 50.655Z" fill="#263238"/>
<path d="M90.0246 48.587C89.9677 48.4732 90.3945 48.1317 91.2009 47.7997C92.2623 47.3894 93.3926 47.1865 94.5305 47.2021C95.6733 47.2018 96.8048 47.4275 97.8601 47.8661C98.6569 48.2076 99.0743 48.5586 99.0269 48.6819C98.9795 48.8052 96.9874 48.1981 94.521 48.1886C92.0546 48.1791 90.1574 48.8527 90.0246 48.587Z" fill="#263238"/>
<path d="M110.505 52.2486C110.526 52.4441 110.526 52.6413 110.505 52.8368C110.505 53.2542 110.505 53.7854 110.553 54.4399C110.6 55.0945 110.553 55.9767 110.609 56.9253C110.574 58.0201 110.734 59.1124 111.084 60.1505C111.541 61.4972 112.333 62.7058 113.385 63.6631C114.437 64.6204 115.714 65.2951 117.098 65.624C117.892 65.818 118.711 65.8884 119.526 65.8327C120.375 65.7946 121.211 65.6184 122.002 65.311C123.69 64.6787 125.127 63.5173 126.1 62.0004C127.021 60.5517 127.484 58.8591 127.428 57.1435C127.428 55.4454 127.428 53.8138 127.428 52.2486L127.656 52.4763L115.324 52.3625L111.748 52.2961H110.799H110.448C110.854 52.2509 111.263 52.2319 111.672 52.2391L115.191 52.1727L127.656 52.0589H127.969V52.2961C127.969 53.8613 127.969 55.4929 127.969 57.1909C128.033 59.0001 127.546 60.7861 126.575 62.3134C125.543 63.9195 124.019 65.1477 122.23 65.8138C121.39 66.1366 120.502 66.3193 119.602 66.3545C118.745 66.4054 117.884 66.3255 117.05 66.1173C115.599 65.7666 114.263 65.0483 113.17 64.0316C112.077 63.0148 111.263 61.7338 110.809 60.3118C110.468 59.2268 110.327 58.0891 110.391 56.9537C110.391 56.0051 110.391 55.1229 110.439 54.402C110.486 53.681 110.439 53.2352 110.486 52.8178C110.477 52.6279 110.484 52.4375 110.505 52.2486Z" fill="#263238"/>
<path d="M87.2548 51.7554C87.2548 51.7554 87.2548 51.9735 87.2548 52.3435V53.9466C87.2548 54.6486 87.2548 55.4834 87.3022 56.4415C87.2773 57.5356 87.4377 58.6261 87.7765 59.6668C88.2135 60.9158 88.9307 62.0483 89.873 62.9774C90.9611 64.035 92.3147 64.7789 93.7907 65.1308C95.4228 65.524 97.1356 65.4149 98.7045 64.8177C100.387 64.1862 101.821 63.0284 102.793 61.5166C103.717 60.069 104.183 58.3763 104.131 56.6597C104.131 54.9617 104.131 53.3206 104.131 51.7554L104.358 51.983L92.0263 51.8692L88.4595 51.8123H87.5109H87.1599C87.563 51.7674 87.9686 51.7483 88.3741 51.7554L91.8935 51.6984L104.358 51.5846H104.586V51.8123C104.586 53.3775 104.586 55.0186 104.586 56.7166C104.643 58.5264 104.154 60.3114 103.182 61.8391C102.151 63.4396 100.63 64.664 98.8468 65.33C98.0062 65.652 97.1186 65.8346 96.2192 65.8707C95.3583 65.9214 94.4948 65.8415 93.6579 65.6335C92.1078 65.2518 90.6911 64.4549 89.5599 63.3284C88.5814 62.3453 87.8471 61.1464 87.4161 59.828C87.0754 58.743 86.9339 57.6053 86.9987 56.47C86.9987 55.5213 86.9987 54.6391 87.0556 53.9182C87.1125 53.1972 87.0556 52.7514 87.0556 52.334C87.0902 52.1316 87.1575 51.9362 87.2548 51.7554Z" fill="#263238"/>
<path d="M110.714 52.9411C108.544 53.2703 106.338 53.2703 104.168 52.9411C106.337 52.5997 108.545 52.5997 110.714 52.9411Z" fill="#263238"/>
<path d="M69.1553 53.0645C72.1712 52.813 75.1983 52.7212 78.224 52.7894C81.2518 52.7035 84.282 52.7763 87.3022 53.0075C84.2869 53.2707 81.2592 53.3626 78.2335 53.2826C75.2057 53.3794 72.1749 53.3066 69.1553 53.0645Z" fill="#263238"/>
<path d="M166.739 232.077C168.871 236.033 172.099 239.29 176.037 241.456C179.975 243.621 184.454 244.604 188.937 244.286C194.233 243.915 199.244 241.75 203.143 238.147C207.043 234.544 209.597 229.719 210.385 224.469L215.887 161.491L193.851 156.046L184.848 205.374C184.848 205.374 180.143 226.044 166.739 232.077Z" fill="#FFBE9D"/>
<path d="M193.651 160.608L194.381 149.557C194.381 149.557 197.502 124.76 197.502 122.332C197.502 119.543 198.84 118.86 199.874 118.936C201.477 119.04 202.615 121.023 202.72 123.423C202.72 124.248 202.644 137.358 202.644 137.358C203.402 136.119 204.248 134.937 205.177 133.82C207.074 131.363 211.665 129.959 216.342 130.111C221.018 130.262 222.299 130.718 222.327 132.53C222.311 132.876 222.217 133.214 222.053 133.519C221.889 133.825 221.658 134.089 221.379 134.294C220.516 135.013 219.419 135.391 218.296 135.356C210.811 135.224 208.81 139.217 208.81 139.217L208.715 140.669C208.715 140.669 213.259 137.415 216.882 138.771C217.418 138.97 217.908 139.273 218.324 139.663C219.345 139.667 220.346 139.938 221.23 140.449C222.113 140.959 222.848 141.692 223.36 142.574C223.873 143.456 224.147 144.457 224.154 145.477C224.16 146.497 223.9 147.502 223.399 148.39C223.204 148.846 222.874 149.232 222.454 149.495C222.033 149.757 221.542 149.885 221.047 149.861C220.545 149.71 220.091 149.432 219.728 149.054C219.516 148.874 219.291 148.709 219.055 148.561L218.22 152.574C218.22 152.574 215.858 161.491 215.27 165.494" fill="#FFBE9D"/>
<path d="M195.804 159.745C197.17 160.125 198.584 159.119 199.324 157.905C200.064 156.691 200.377 155.258 201.022 153.987C202.976 150.193 207.662 148.39 209.455 144.501C209.702 143.96 209.834 143.22 209.36 142.86C208.886 142.5 208.298 142.794 207.814 143.059L195.482 149.889" fill="#FFBE9D"/>
<path d="M195.472 149.87C195.856 149.53 196.28 149.237 196.734 148.998C197.569 148.476 198.792 147.755 200.31 146.873L205.67 143.809L207.216 142.936C207.792 142.48 208.526 142.272 209.255 142.357C209.481 142.43 209.679 142.57 209.823 142.758C209.967 142.946 210.05 143.174 210.062 143.41C210.086 143.8 210.018 144.19 209.863 144.549C209.577 145.181 209.221 145.78 208.8 146.332C207.093 148.552 204.882 149.946 203.289 151.568C202.514 152.302 201.855 153.15 201.335 154.082C200.87 154.955 200.576 155.865 200.215 156.691C199.994 157.38 199.624 158.012 199.133 158.543C198.641 159.073 198.039 159.49 197.369 159.764C196.354 160.068 195.785 159.764 195.823 159.707C196.315 159.722 196.804 159.642 197.265 159.47C197.858 159.167 198.382 158.744 198.804 158.228C199.225 157.712 199.534 157.114 199.712 156.473C200.016 155.554 200.368 154.651 200.765 153.769C201.289 152.759 201.971 151.84 202.786 151.046C204.418 149.339 206.58 147.907 208.174 145.848C208.549 145.351 208.868 144.813 209.123 144.245C209.36 143.704 209.322 143.164 209.018 143.107C208.715 143.05 208.117 143.306 207.595 143.6L206.021 144.454L200.585 147.413C199.029 148.239 197.739 148.884 196.886 149.311C196.443 149.563 195.967 149.751 195.472 149.87Z" fill="#EB996E"/>
<path d="M208.544 140.773C208.628 139.875 208.924 139.011 209.407 138.25C209.969 137.469 210.768 136.891 211.684 136.599C212.832 136.222 214.033 136.03 215.241 136.03C216.482 136.042 217.721 135.934 218.941 135.707C219.963 135.499 220.912 135.024 221.692 134.332C221.951 134.093 222.152 133.797 222.281 133.469C222.409 133.14 222.461 132.786 222.432 132.435C222.418 132.176 222.333 131.927 222.185 131.714C222.138 131.714 222.185 131.989 222.233 132.444C222.228 132.762 222.155 133.075 222.017 133.362C221.879 133.649 221.681 133.902 221.436 134.104C220.677 134.701 219.785 135.105 218.837 135.281C217.642 135.477 216.433 135.566 215.222 135.546C213.969 135.532 212.722 135.728 211.532 136.125C210.538 136.471 209.687 137.139 209.113 138.022C208.742 138.617 208.526 139.295 208.487 139.995C208.433 140.255 208.453 140.524 208.544 140.773Z" fill="#EB996E"/>
<path d="M202.653 122.493C202.573 123.361 202.573 124.234 202.653 125.102C202.653 126.885 202.653 129.02 202.72 131.372C202.786 133.725 202.72 135.859 202.72 137.643C202.663 138.512 202.682 139.385 202.777 140.251C202.984 139.4 203.089 138.528 203.09 137.652C203.203 136.049 203.279 133.858 203.27 131.372C203.26 128.887 203.165 126.686 203.052 125.083C203.012 124.208 202.879 123.34 202.653 122.493Z" fill="#EB996E"/>
<path d="M211.504 143.685C211.769 143.622 212.024 143.523 212.263 143.391C212.572 143.233 212.911 143.143 213.258 143.126C213.605 143.11 213.951 143.168 214.274 143.296C214.472 143.404 214.639 143.561 214.758 143.752C214.878 143.943 214.946 144.162 214.957 144.387C214.987 144.953 214.946 145.52 214.833 146.076C214.676 146.774 214.788 147.505 215.146 148.125C215.373 148.443 215.672 148.703 216.018 148.885C216.364 149.066 216.748 149.163 217.138 149.168C217.523 149.166 217.902 149.085 218.254 148.932C218.606 148.779 218.924 148.556 219.187 148.277C219.682 147.78 220.013 147.145 220.136 146.455C220.285 145.34 220.269 144.208 220.089 143.097C219.99 142.346 219.763 141.617 219.415 140.944C219.15 140.469 218.903 140.289 218.884 140.308C218.865 140.327 219.036 140.564 219.235 141.029C219.495 141.711 219.658 142.427 219.719 143.154C219.843 144.223 219.827 145.305 219.671 146.37C219.551 146.973 219.238 147.521 218.779 147.932C218.321 148.342 217.742 148.593 217.129 148.647C216.82 148.645 216.517 148.571 216.241 148.431C215.966 148.291 215.728 148.089 215.545 147.84C215.258 147.32 215.167 146.714 215.289 146.133C215.394 145.535 215.42 144.925 215.365 144.321C215.337 144.032 215.235 143.755 215.069 143.518C214.903 143.28 214.678 143.089 214.416 142.964C214.047 142.824 213.65 142.773 213.257 142.816C212.865 142.859 212.488 142.994 212.158 143.211C211.712 143.477 211.447 143.619 211.504 143.685Z" fill="#EB996E"/>
<path d="M218.969 147.878C218.903 148.126 218.93 148.389 219.045 148.618C219.179 148.943 219.385 149.234 219.648 149.468C219.911 149.701 220.224 149.871 220.563 149.965C221.074 150.075 221.605 150.05 222.103 149.894C222.602 149.738 223.052 149.455 223.409 149.073C224.264 148.134 224.723 146.9 224.689 145.63C224.689 144.375 224.298 143.152 223.57 142.13C222.976 141.296 222.166 140.64 221.227 140.232C220.611 139.955 219.948 139.797 219.273 139.768C218.799 139.768 218.542 139.768 218.542 139.843C219.418 139.956 220.272 140.199 221.075 140.564C221.918 140.983 222.642 141.606 223.181 142.376C223.812 143.333 224.142 144.456 224.13 145.601C224.161 146.739 223.769 147.848 223.029 148.713C222.729 149.053 222.346 149.311 221.918 149.462C221.489 149.614 221.03 149.653 220.582 149.576C220.283 149.509 220.003 149.379 219.759 149.194C219.515 149.009 219.314 148.774 219.169 148.504C219.036 148.144 219.036 147.878 218.969 147.878Z" fill="#EB996E"/>
<path d="M209.958 156.643C209.55 156.515 209.113 156.515 208.706 156.643C207.638 156.877 206.677 157.457 205.974 158.294L206.41 158.427C206.352 157.839 206.257 157.256 206.125 156.681C205.748 154.642 204.812 152.747 203.422 151.208C204.351 152.987 205.089 154.86 205.623 156.795C205.755 157.383 205.85 157.952 205.917 158.484L205.993 159.072L206.363 158.607C206.992 157.832 207.832 157.255 208.782 156.947C209.493 156.729 209.958 156.71 209.958 156.643Z" fill="#EB996E"/>
<path d="M210.195 134.341C210.072 134.398 210.574 135.29 211.732 135.831C212.889 136.371 213.913 136.058 213.866 135.926C213.819 135.793 212.917 135.802 211.969 135.356C211.02 134.911 210.318 134.247 210.195 134.341Z" fill="#EB996E"/>
<path d="M189.856 166.812L217.546 168.795C217.546 168.795 213.287 217.791 212.462 225.389C211.636 232.987 206.77 244.447 189.856 244.447C172.942 244.447 169.793 238.688 162.271 226.831C171.14 220.684 185.227 202.328 185.227 202.328L189.856 166.812Z" fill="#FF725E"/>
<path d="M202.909 174.354C202.767 174.767 202.596 175.17 202.397 175.559L200.851 178.822L195.387 190.101L195.112 189.769L202.293 187.634L209.588 185.491L210.119 185.339L209.863 185.823L204.171 196.874L202.492 200.052C202.306 200.44 202.087 200.811 201.837 201.162C201.983 200.756 202.154 200.36 202.35 199.976C202.748 199.16 203.298 198.079 203.905 196.741L209.417 185.614L209.692 185.946L202.407 188.109L195.216 190.215L194.694 190.366L194.941 189.883L200.604 178.717C201.297 177.399 201.856 176.318 202.274 175.511C202.453 175.108 202.665 174.721 202.909 174.354Z" fill="#E0E0E0"/>
<path d="M200.291 221.481C199.866 221.572 199.435 221.629 199.001 221.652L195.396 221.965L182.932 222.913L183.083 222.505L188.547 227.628L194.078 232.845L194.476 233.225H193.926L181.528 233.908L177.942 234.059C177.513 234.097 177.081 234.097 176.652 234.059C177.074 233.976 177.502 233.925 177.932 233.908L181.509 233.614L193.898 232.76L193.755 233.168L188.206 227.96L182.761 222.818L182.362 222.448H182.903L195.377 221.699L198.992 221.519C199.423 221.473 199.858 221.46 200.291 221.481Z" fill="#E0E0E0"/>
<path d="M170.96 163.758L139.476 241.62H82.7012V245.139H251.81L286.406 163.758H170.96Z" fill="#263238"/>
<path d="M219.092 209.728C217.954 213.645 214.634 216.121 211.674 215.268C208.715 214.414 207.244 210.525 208.383 206.607C209.521 202.689 212.851 200.213 215.81 201.067C218.77 201.921 220.24 205.81 219.092 209.728Z" fill="#FAFAFA"/>
<rect x="188.681" y="47.8079" width="59.7625" height="59.7625" rx="29.8813" fill="#FF725E"/>
<path d="M228.952 88.0802H208.409C208.161 88.0802 207.924 88.1786 207.749 88.3538C207.573 88.5289 207.475 88.7664 207.475 89.014C207.475 89.2617 207.573 89.4992 207.749 89.6743C207.924 89.8494 208.161 89.9478 208.409 89.9478H228.952C229.2 89.9478 229.437 89.8494 229.613 89.6743C229.788 89.4992 229.886 89.2617 229.886 89.014C229.886 88.7664 229.788 88.5289 229.613 88.3538C229.437 88.1786 229.2 88.0802 228.952 88.0802Z" fill="white" fill-opacity="0.95"/>
<path d="M218.02 82.203C218.107 82.2898 218.21 82.3586 218.323 82.4055C218.437 82.4524 218.558 82.4766 218.681 82.4766C218.803 82.4766 218.925 82.4524 219.038 82.4055C219.151 82.3586 219.254 82.2898 219.341 82.203L224.944 76.6003C225.03 76.5136 225.099 76.4107 225.146 76.2974C225.193 76.1841 225.217 76.0627 225.217 75.9401C225.217 75.8175 225.193 75.696 225.146 75.5828C225.099 75.4695 225.03 75.3666 224.944 75.2799C224.857 75.1932 224.754 75.1244 224.641 75.0775C224.527 75.0305 224.406 75.0064 224.283 75.0064C224.161 75.0064 224.039 75.0305 223.926 75.0775C223.813 75.1244 223.71 75.1932 223.623 75.2799L219.614 79.2886V66.6022C219.614 66.3545 219.516 66.117 219.341 65.9419C219.166 65.7668 218.928 65.6684 218.681 65.6684C218.433 65.6684 218.195 65.7668 218.02 65.9419C217.845 66.117 217.747 66.3545 217.747 66.6022V79.2886L213.738 75.2798C213.563 75.106 213.326 75.0087 213.079 75.0092C212.832 75.0097 212.595 75.1081 212.42 75.2827C212.246 75.4573 212.148 75.694 212.147 75.9409C212.146 76.1879 212.244 76.4249 212.418 76.6003L218.02 82.203Z" fill="white" fill-opacity="0.95"/>
</g>
</g>
<defs>
<clipPath id="clip0_9738_436413">
<rect width="284.583" height="260" fill="white" transform="translate(0.855469 0.366638)"/>
</clipPath>
<clipPath id="clip1_9738_436413">
<rect width="284.583" height="303.556" fill="white" transform="translate(0.855469 -21.4111)"/>
</clipPath>
</defs>
</svg>
