<svg width="285" height="261" viewBox="0 0 285 261" fill="none" xmlns="http://www.w3.org/2000/svg">
<g clip-path="url(#clip0_9738_481586)">
<rect width="284.583" height="260" transform="translate(0.0498047 0.844421)" fill="#1A1A1A"/>
<path d="M264.53 164.681H326.355V153.109H250.647V164.681H254.592" fill="#EBEBEB"/>
<path d="M283.891 158.659C283.891 159.364 283.682 160.053 283.29 160.639C282.899 161.225 282.342 161.682 281.691 161.952C281.039 162.222 280.323 162.292 279.631 162.155C278.94 162.017 278.305 161.678 277.807 161.179C277.308 160.681 276.969 160.046 276.831 159.355C276.694 158.663 276.764 157.947 277.034 157.295C277.304 156.644 277.761 156.088 278.347 155.696C278.933 155.304 279.622 155.095 280.327 155.095C281.271 155.097 282.177 155.473 282.845 156.141C283.513 156.809 283.889 157.715 283.891 158.659Z" fill="#E0E0E0"/>
<path d="M279.198 158.976C279.127 158.977 279.057 158.957 278.997 158.919C278.937 158.881 278.89 158.825 278.862 158.76C278.833 158.695 278.825 158.623 278.838 158.553C278.851 158.483 278.884 158.418 278.934 158.367C278.984 158.317 279.048 158.282 279.117 158.267C279.187 158.253 279.259 158.259 279.325 158.286C279.391 158.313 279.447 158.359 279.487 158.418C279.527 158.477 279.548 158.547 279.548 158.618C279.548 158.711 279.511 158.801 279.446 158.868C279.38 158.935 279.291 158.974 279.198 158.976Z" fill="white"/>
<path d="M280.288 158.976C280.217 158.977 280.147 158.958 280.087 158.919C280.027 158.881 279.98 158.826 279.952 158.76C279.924 158.695 279.915 158.623 279.928 158.553C279.941 158.483 279.975 158.418 280.024 158.368C280.074 158.317 280.138 158.282 280.208 158.267C280.277 158.253 280.35 158.26 280.415 158.286C280.481 158.313 280.538 158.359 280.577 158.418C280.617 158.477 280.638 158.547 280.638 158.618C280.638 158.711 280.602 158.801 280.536 158.868C280.471 158.935 280.382 158.974 280.288 158.976Z" fill="white"/>
<path d="M281.455 158.976C281.384 158.976 281.315 158.955 281.256 158.916C281.197 158.876 281.152 158.82 281.124 158.755C281.097 158.689 281.09 158.617 281.104 158.548C281.118 158.479 281.152 158.415 281.202 158.365C281.252 158.315 281.316 158.281 281.385 158.267C281.455 158.253 281.527 158.26 281.592 158.287C281.658 158.314 281.713 158.36 281.753 158.419C281.792 158.478 281.813 158.547 281.813 158.618C281.813 158.665 281.804 158.711 281.786 158.755C281.768 158.798 281.741 158.838 281.708 158.871C281.675 158.904 281.636 158.931 281.592 158.949C281.549 158.967 281.502 158.976 281.455 158.976Z" fill="white"/>
<path d="M308.153 142.551C308.153 142.66 300.418 142.753 290.878 142.753C281.338 142.753 273.603 142.66 273.603 142.551C273.603 142.442 281.33 142.348 290.878 142.348C300.426 142.348 308.153 142.434 308.153 142.551Z" fill="#E0E0E0"/>
<path d="M278.459 259.285C278.459 259.593 278.368 259.894 278.197 260.15C278.026 260.406 277.782 260.605 277.498 260.723C277.214 260.841 276.901 260.872 276.599 260.811C276.297 260.751 276.02 260.603 275.802 260.386C275.584 260.168 275.436 259.891 275.376 259.589C275.316 259.287 275.347 258.974 275.465 258.689C275.582 258.405 275.782 258.162 276.038 257.991C276.294 257.82 276.595 257.729 276.903 257.729C277.315 257.729 277.711 257.893 278.003 258.185C278.295 258.476 278.459 258.872 278.459 259.285Z" fill="#E0E0E0"/>
<path d="M217.887 259.285C217.887 259.593 217.795 259.894 217.624 260.15C217.453 260.406 217.21 260.605 216.926 260.723C216.641 260.841 216.329 260.872 216.027 260.811C215.725 260.751 215.447 260.603 215.23 260.386C215.012 260.168 214.864 259.891 214.804 259.589C214.744 259.287 214.775 258.974 214.892 258.689C215.01 258.405 215.21 258.162 215.466 257.991C215.722 257.82 216.022 257.729 216.33 257.729C216.743 257.729 217.139 257.893 217.431 258.185C217.723 258.476 217.887 258.872 217.887 259.285Z" fill="#E0E0E0"/>
<path d="M271.212 229.378L271.173 221.876L234.343 222.069L234.382 229.57L271.212 229.378Z" fill="#E0E0E0"/>
<path d="M275.631 248.286L275.57 236.637L234.522 236.852L234.583 248.501L275.631 248.286Z" fill="#F5F5F5"/>
<path d="M267.744 248.218C267.543 246.282 267.476 244.334 267.541 242.389C267.476 240.447 267.543 238.502 267.744 236.568C267.944 238.502 268.011 240.447 267.946 242.389C268.012 244.334 267.944 246.282 267.744 248.218Z" fill="#E0E0E0"/>
<path d="M269.471 248.218C269.266 246.282 269.199 244.334 269.269 242.389C269.199 240.447 269.266 238.501 269.471 236.568C269.666 238.502 269.731 240.447 269.666 242.389C269.731 244.334 269.666 246.281 269.471 248.218Z" fill="#E0E0E0"/>
<path d="M240.779 248.218C240.575 246.282 240.507 244.334 240.577 242.389C240.507 240.447 240.575 238.501 240.779 236.568C240.975 238.502 241.039 240.447 240.974 242.389C241.04 244.334 240.975 246.281 240.779 248.218Z" fill="#E0E0E0"/>
<path d="M242.499 248.218C242.304 246.281 242.239 244.334 242.305 242.389C242.239 240.447 242.304 238.502 242.499 236.568C242.699 238.502 242.767 240.447 242.701 242.389C242.767 244.334 242.699 246.282 242.499 248.218Z" fill="#E0E0E0"/>
<path d="M246.265 242.583C246.265 242.466 250.405 242.38 255.51 242.38C260.615 242.38 264.762 242.466 264.762 242.583C264.762 242.7 260.622 242.777 255.51 242.777C250.397 242.777 246.265 242.7 246.265 242.583Z" fill="#E0E0E0"/>
<path d="M291.045 236.572L291.006 229.07L240.348 229.335L240.387 236.837L291.045 236.572Z" fill="#EBEBEB"/>
<path d="M283.813 235.649C283.331 235.655 282.858 235.518 282.454 235.254C282.051 234.991 281.735 234.614 281.547 234.17C281.358 233.727 281.306 233.237 281.397 232.764C281.488 232.291 281.717 231.855 282.056 231.513C282.395 231.17 282.829 230.937 283.301 230.841C283.773 230.746 284.263 230.793 284.709 230.977C285.154 231.161 285.534 231.474 285.802 231.875C286.069 232.276 286.211 232.747 286.209 233.229C286.211 233.545 286.151 233.859 286.031 234.152C285.912 234.445 285.736 234.712 285.513 234.936C285.291 235.161 285.026 235.34 284.734 235.462C284.442 235.584 284.129 235.648 283.813 235.649Z" fill="#E0E0E0"/>
<path d="M277.229 233.978V232.476H243.317V233.978H277.229Z" fill="#E0E0E0"/>
<path d="M-5.55771 208.827C-7.06844 208.827 -8.51727 208.227 -9.58552 207.159C-10.6538 206.09 -11.2539 204.641 -11.2539 203.131C-11.2539 201.62 -10.6538 200.171 -9.58552 199.103C-8.51727 198.035 -7.06844 197.434 -5.55771 197.434C-4.04698 197.434 -2.59812 198.035 -1.52988 199.103C-0.46163 200.171 0.138508 201.62 0.138508 203.131C0.138508 204.641 -0.46163 206.09 -1.52988 207.159C-2.59812 208.227 -4.04698 208.827 -5.55771 208.827Z" fill="#F5F5F5"/>
<path d="M160.326 136.247V176.44L146.568 191.279H160.326V262.926H292.125V136.247H160.326Z" fill="#263238"/>
<path d="M292.171 136.388H160.373V145.874H292.171V136.388Z" fill="#455A64"/>
<path d="M160.412 242.934V263.066H167.283H184.574H292.172V242.934H160.412Z" fill="#455A64"/>
<path d="M179.017 141.477C179.017 141.828 178.913 142.171 178.718 142.462C178.523 142.754 178.246 142.982 177.922 143.116C177.598 143.25 177.241 143.285 176.897 143.217C176.553 143.148 176.237 142.979 175.988 142.731C175.74 142.483 175.571 142.167 175.503 141.823C175.434 141.479 175.47 141.122 175.604 140.798C175.738 140.474 175.965 140.197 176.257 140.002C176.549 139.807 176.892 139.703 177.243 139.703C177.714 139.703 178.165 139.889 178.498 140.222C178.83 140.555 179.017 141.006 179.017 141.477Z" fill="#263238"/>
<path d="M168.272 141.477C168.272 141.828 168.168 142.171 167.973 142.462C167.778 142.754 167.501 142.982 167.176 143.116C166.852 143.25 166.495 143.285 166.151 143.217C165.807 143.148 165.491 142.979 165.243 142.731C164.995 142.483 164.826 142.167 164.757 141.823C164.689 141.479 164.724 141.122 164.858 140.798C164.992 140.474 165.22 140.197 165.512 140.002C165.803 139.807 166.146 139.703 166.497 139.703C166.968 139.703 167.419 139.889 167.752 140.222C168.085 140.555 168.272 141.006 168.272 141.477Z" fill="#263238"/>
<path d="M173.641 141.477C173.641 141.828 173.537 142.171 173.342 142.462C173.147 142.754 172.87 142.982 172.545 143.116C172.221 143.25 171.865 143.285 171.52 143.217C171.176 143.148 170.86 142.979 170.612 142.731C170.364 142.483 170.195 142.167 170.126 141.823C170.058 141.479 170.093 141.122 170.227 140.798C170.362 140.474 170.589 140.197 170.881 140.002C171.173 139.807 171.516 139.703 171.867 139.703C172.337 139.703 172.788 139.889 173.121 140.222C173.454 140.555 173.641 141.006 173.641 141.477Z" fill="#263238"/>
<path d="M279.362 167.998C278.266 167.999 277.179 167.784 276.166 167.365C275.152 166.945 274.232 166.33 273.456 165.555C272.68 164.779 272.065 163.858 271.646 162.845C271.227 161.831 271.012 160.745 271.013 159.648C271.015 157.435 271.895 155.313 273.461 153.749C275.027 152.185 277.149 151.306 279.362 151.306C281.579 151.306 283.705 152.187 285.272 153.754C286.839 155.322 287.72 157.447 287.72 159.664C287.716 161.877 286.833 163.998 285.266 165.561C283.699 167.124 281.576 168 279.362 167.998Z" fill="#455A64"/>
<path d="M279.074 159.717C279.381 159.624 279.645 159.423 279.816 159.152C279.988 158.881 280.056 158.557 280.009 158.24C279.962 157.922 279.802 157.633 279.559 157.423C279.316 157.213 279.006 157.098 278.685 157.098C278.364 157.098 278.054 157.213 277.811 157.423C277.568 157.633 277.409 157.922 277.361 158.24C277.314 158.557 277.383 158.881 277.554 159.152C277.726 159.423 277.989 159.624 278.296 159.717C277.747 159.81 277.248 160.096 276.892 160.525C276.535 160.953 276.343 161.494 276.351 162.052H281.02C281.028 161.494 280.836 160.953 280.479 160.525C280.122 160.096 279.624 159.81 279.074 159.717Z" fill="#263238"/>
<path d="M281.697 160.114C281.647 160.114 281.598 160.094 281.562 160.06C281.526 160.025 281.504 159.977 281.502 159.927V157.787C281.497 157.759 281.497 157.73 281.504 157.702C281.511 157.674 281.524 157.648 281.542 157.625C281.561 157.603 281.584 157.585 281.61 157.573C281.636 157.56 281.664 157.554 281.693 157.554C281.722 157.554 281.75 157.56 281.776 157.573C281.802 157.585 281.825 157.603 281.844 157.625C281.862 157.648 281.875 157.674 281.882 157.702C281.889 157.73 281.889 157.759 281.884 157.787V159.927C281.884 159.977 281.864 160.024 281.829 160.059C281.794 160.094 281.746 160.114 281.697 160.114Z" fill="#263238"/>
<path d="M282.747 159.049H280.607C280.564 159.04 280.524 159.016 280.496 158.981C280.467 158.947 280.452 158.903 280.452 158.858C280.452 158.813 280.467 158.77 280.496 158.735C280.524 158.7 280.564 158.676 280.607 158.668H282.747C282.776 158.662 282.805 158.662 282.833 158.669C282.861 158.676 282.887 158.689 282.909 158.708C282.932 158.726 282.95 158.749 282.962 158.775C282.974 158.801 282.981 158.829 282.981 158.858C282.981 158.887 282.974 158.916 282.962 158.942C282.95 158.968 282.932 158.991 282.909 159.009C282.887 159.027 282.861 159.04 282.833 159.047C282.805 159.054 282.776 159.055 282.747 159.049Z" fill="#263238"/>
<path d="M175.796 160.215C175.796 161.009 175.56 161.785 175.119 162.446C174.678 163.106 174.051 163.621 173.317 163.925C172.583 164.228 171.776 164.308 170.997 164.153C170.218 163.998 169.503 163.616 168.941 163.054C168.38 162.493 167.997 161.777 167.842 160.998C167.687 160.219 167.767 159.412 168.071 158.678C168.375 157.945 168.889 157.317 169.55 156.876C170.21 156.435 170.986 156.199 171.781 156.199C172.845 156.199 173.867 156.623 174.62 157.376C175.373 158.129 175.796 159.15 175.796 160.215Z" fill="#455A64"/>
<path d="M200.099 160.939C200.099 161.048 195.095 161.142 188.916 161.142C182.738 161.142 177.734 161.048 177.734 160.939C177.734 160.83 182.738 160.737 188.916 160.737C195.095 160.737 200.099 160.822 200.099 160.939Z" fill="#455A64"/>
<path d="M160.373 136.387H162.769H169.773L196.495 136.34L292.148 136.255H292.319V136.426C292.319 173.28 292.319 216.679 292.319 263.104V263.307H282.608H160.373H160.302L160.256 263.252L160.201 263.198V263.128C160.201 236.055 160.201 211.893 160.24 191.481L160.38 191.621H146.622H146.295L146.498 191.411L160.302 176.509V176.579C160.302 163.685 160.349 153.631 160.365 146.791C160.365 143.383 160.365 140.784 160.365 139.009C160.365 138.138 160.365 137.453 160.365 137.033C160.365 136.613 160.365 136.371 160.365 136.371C160.365 136.371 160.365 136.605 160.365 137.056C160.365 137.507 160.365 138.169 160.365 139.048C160.365 140.815 160.365 143.422 160.365 146.83C160.365 153.654 160.365 163.693 160.427 176.556V176.595L146.684 191.45L146.591 191.232H160.489V191.372C160.489 211.784 160.489 235.946 160.528 263.019L160.474 262.886L160.349 262.84H282.584H292.148L291.946 263.042C291.946 216.616 291.946 173.218 291.946 136.364L292.125 136.535L196.581 136.449L169.82 136.402H162.762H160.948L160.373 136.387Z" fill="#263238"/>
<path d="M252.594 201.529C252.594 201.638 248.975 201.887 244.493 202.089C240.011 202.292 236.384 202.346 236.376 202.237C236.369 202.128 239.995 201.879 244.477 201.685C247.178 201.497 249.887 201.445 252.594 201.529Z" fill="white"/>
<path d="M213.008 172.666C213.716 168.775 214.65 164.767 217.055 161.624C219.459 158.48 223.692 156.402 227.443 157.67L232.065 160.355C231.113 171.12 228.925 181.739 225.544 192.003C225.29 193.037 224.797 193.996 224.105 194.805C222.603 196.322 220.159 196.182 218.043 195.941C215.483 195.645 212.494 195.054 211.397 192.719C210.961 191.553 210.824 190.295 211 189.062C211.35 183.562 212.02 178.087 213.008 172.666Z" fill="#E0E0E0"/>
<path d="M239.022 165.732L224.774 160.993C220.167 160.161 216.658 165.662 216.027 170.331C215.319 175.491 214.666 181.817 214.992 185.731C215.662 193.591 221.545 195.015 221.545 195.015C221.082 196.953 220.927 198.951 221.085 200.937C221.459 206.291 224.906 207.676 227.739 207.87C232.198 208.345 236.859 206.929 237.373 202.47L241.263 168.705C241.331 168.019 241.138 167.332 240.723 166.781C240.308 166.23 239.701 165.856 239.022 165.732Z" fill="#FFBE9D"/>
<path d="M218.035 174.853C218.013 175.113 218.093 175.372 218.259 175.574C218.425 175.776 218.662 175.905 218.922 175.935C219.048 175.954 219.177 175.948 219.302 175.917C219.426 175.886 219.543 175.831 219.645 175.754C219.747 175.677 219.833 175.58 219.897 175.47C219.962 175.359 220.003 175.237 220.019 175.11C220.041 174.849 219.961 174.591 219.795 174.389C219.629 174.187 219.392 174.057 219.132 174.028C219.006 174.009 218.877 174.016 218.753 174.047C218.629 174.079 218.513 174.135 218.411 174.211C218.309 174.288 218.223 174.384 218.159 174.494C218.094 174.604 218.052 174.726 218.035 174.853Z" fill="#263238"/>
<path d="M217.56 174.369C217.677 174.509 218.47 174.004 219.544 174.089C220.618 174.175 221.365 174.758 221.49 174.642C221.614 174.525 221.443 174.338 221.116 174.066C220.673 173.708 220.129 173.496 219.56 173.459C219.014 173.427 218.471 173.563 218.004 173.848C217.63 174.081 217.506 174.307 217.56 174.369Z" fill="#263238"/>
<path d="M227.77 176.183C227.746 176.444 227.825 176.703 227.992 176.906C228.158 177.108 228.397 177.237 228.657 177.265C228.783 177.283 228.911 177.277 229.034 177.245C229.158 177.213 229.273 177.158 229.375 177.081C229.476 177.004 229.561 176.908 229.625 176.798C229.689 176.688 229.73 176.566 229.746 176.44C229.768 176.179 229.688 175.921 229.522 175.719C229.357 175.517 229.119 175.387 228.859 175.358C228.733 175.339 228.605 175.346 228.482 175.378C228.359 175.409 228.243 175.465 228.141 175.542C228.04 175.619 227.955 175.715 227.891 175.825C227.827 175.935 227.786 176.057 227.77 176.183Z" fill="#263238"/>
<path d="M228.284 175.453C228.4 175.593 229.194 175.087 230.268 175.172C231.342 175.258 232.089 175.849 232.213 175.725C232.338 175.6 232.167 175.429 231.84 175.149C231.395 174.794 230.852 174.585 230.284 174.55C229.737 174.512 229.192 174.648 228.727 174.939C228.354 175.165 228.229 175.39 228.284 175.453Z" fill="#263238"/>
<path d="M223.661 182.393C223.109 182.173 222.531 182.024 221.941 181.949C221.669 181.903 221.412 181.825 221.381 181.638C221.385 181.361 221.469 181.091 221.622 180.86L222.587 178.837C223.926 175.942 224.922 173.561 224.805 173.506C223.79 175.146 222.906 176.864 222.159 178.642C221.84 179.358 221.529 180.035 221.233 180.689C221.037 181.004 220.959 181.379 221.015 181.747C221.048 181.847 221.103 181.938 221.175 182.013C221.248 182.089 221.337 182.147 221.436 182.183C221.584 182.235 221.738 182.269 221.895 182.284C222.477 182.387 223.07 182.424 223.661 182.393Z" fill="#263238"/>
<path d="M221.545 195C225.345 195.356 229.171 194.67 232.61 193.016C232.61 193.016 229.14 198.261 221.413 196.969L221.545 195Z" fill="#EB996E"/>
<path d="M227.763 172.153C227.848 172.448 228.93 172.394 230.175 172.635C231.42 172.876 232.416 173.296 232.603 173.047C232.688 172.923 232.533 172.635 232.144 172.324C231.624 171.929 231.019 171.662 230.377 171.546C229.739 171.419 229.08 171.448 228.455 171.631C228.004 171.795 227.732 172.012 227.763 172.153Z" fill="#E0E0E0"/>
<path d="M217.498 171.171C217.716 171.428 218.649 171.241 219.754 171.311C220.859 171.381 221.778 171.623 222.011 171.389C222.112 171.272 222.011 171.016 221.591 170.751C221.047 170.424 220.428 170.242 219.793 170.222C219.16 170.18 218.527 170.303 217.957 170.58C217.552 170.806 217.404 171.047 217.498 171.171Z" fill="#E0E0E0"/>
<path d="M223.335 162.923C223.944 163.899 224.688 164.785 225.545 165.554L229.436 169.445C230.346 170.38 231.313 171.258 232.33 172.075C233.266 172.759 234.238 173.393 235.241 173.974C236.276 174.604 236.797 176.215 237.84 176.837C238.073 176.977 238.828 176.892 239.077 177.071C239.023 178.814 238.999 184.354 238.984 186.557C238.984 190.035 237.707 199.311 237.707 199.311H240.672C243.007 198.961 245.442 196.284 245.925 193.988C246.384 191.84 246.275 188.852 246.415 187.093C246.773 182.572 245.894 177.997 245.598 173.475C245.571 171.641 245.272 169.821 244.711 168.075C243.672 165.686 242.012 163.619 239.902 162.091C237.628 160.15 234.943 158.751 232.05 157.998C230.607 157.635 229.105 157.566 227.634 157.796C226.163 158.026 224.754 158.55 223.49 159.336C223.079 159.554 222.767 159.922 222.619 160.363C222.261 161.422 222.774 161.92 223.335 162.923ZM239.17 177.11C239.17 177.888 239.279 177.32 239.17 177.11V177.11Z" fill="#E0E0E0"/>
<path d="M238.657 179.203C238.698 178.821 238.836 178.456 239.056 178.142C239.277 177.827 239.573 177.574 239.918 177.405C240.264 177.237 240.646 177.158 241.029 177.177C241.413 177.197 241.786 177.313 242.112 177.515C242.89 178.021 243.404 178.978 243.209 180.729C242.68 185.398 238.105 183.911 238.112 183.779C238.12 183.647 238.424 181.133 238.657 179.203Z" fill="#FFBE9D"/>
<path d="M239.739 182.168C239.739 182.168 239.809 182.23 239.941 182.308C240.031 182.362 240.131 182.398 240.235 182.413C240.34 182.428 240.446 182.421 240.548 182.393C240.871 182.235 241.147 181.994 241.346 181.695C241.546 181.396 241.663 181.048 241.684 180.689C241.739 180.29 241.704 179.883 241.583 179.499C241.557 179.348 241.494 179.206 241.401 179.085C241.307 178.965 241.185 178.869 241.046 178.806C240.955 178.771 240.854 178.77 240.762 178.801C240.67 178.832 240.591 178.894 240.54 178.977C240.462 179.102 240.478 179.195 240.454 179.203C240.431 179.211 240.361 179.109 240.454 178.923C240.492 178.809 240.569 178.712 240.672 178.65C240.74 178.609 240.816 178.581 240.895 178.569C240.974 178.557 241.054 178.561 241.131 178.58C241.321 178.64 241.491 178.748 241.627 178.892C241.764 179.036 241.861 179.213 241.91 179.405C242.061 179.831 242.107 180.288 242.042 180.736C242.02 181.154 241.874 181.556 241.623 181.891C241.373 182.226 241.028 182.48 240.633 182.619C240.504 182.643 240.37 182.636 240.243 182.6C240.116 182.563 239.999 182.498 239.902 182.409C239.731 182.284 239.715 182.175 239.739 182.168Z" fill="#EB996E"/>
<path d="M241.178 184.338C241.167 184.522 241.101 184.697 240.99 184.843C240.878 184.989 240.726 185.099 240.552 185.158C240.378 185.217 240.191 185.223 240.013 185.176C239.836 185.128 239.677 185.029 239.556 184.89C239.435 184.752 239.358 184.581 239.335 184.399C239.312 184.217 239.343 184.032 239.425 183.867C239.507 183.703 239.636 183.567 239.796 183.476C239.956 183.386 240.139 183.344 240.322 183.358C240.443 183.366 240.561 183.397 240.669 183.451C240.777 183.505 240.874 183.579 240.954 183.67C241.033 183.761 241.094 183.867 241.132 183.982C241.171 184.097 241.186 184.218 241.178 184.338Z" fill="#263238"/>
<path d="M226.447 184.563C226.635 184.852 226.75 185.181 226.784 185.523C226.818 185.865 226.768 186.211 226.64 186.53C226.512 186.849 226.308 187.133 226.047 187.357C225.786 187.58 225.475 187.738 225.14 187.816C224.883 187.884 224.611 187.87 224.362 187.777C224.16 187.644 223.987 187.471 223.853 187.269C223.719 187.067 223.628 186.84 223.583 186.602C223.467 186.221 223.342 185.824 223.218 185.458C223.168 185.331 223.168 185.189 223.218 185.061C223.264 185.005 223.322 184.959 223.388 184.927C223.454 184.895 223.526 184.877 223.599 184.875L226.408 184.408" fill="#EB996E"/>
<path d="M224.408 187.645C224.83 187.729 225.266 187.704 225.676 187.575C226.153 187.457 226.57 187.166 226.844 186.758C227.001 186.507 227.08 186.214 227.069 185.918C227.071 185.61 227.018 185.304 226.914 185.015C226.81 184.728 226.652 184.463 226.447 184.237L226.377 184.167H226.283C224.408 184.68 222.953 184.945 222.96 184.984C224.116 184.997 225.267 184.826 226.369 184.478L226.205 184.431C226.376 184.624 226.511 184.845 226.602 185.085C226.709 185.293 226.767 185.522 226.774 185.755C226.78 185.989 226.733 186.22 226.637 186.433C226.542 186.646 226.399 186.835 226.221 186.986C226.042 187.136 225.832 187.245 225.606 187.303C224.89 187.583 224.4 187.583 224.408 187.645Z" fill="#263238"/>
<path d="M234.485 165.764C237.418 167.865 239.908 170.523 241.816 173.585L239.295 177.872C235.007 177.468 234.501 177.032 231.513 173.981C228.525 170.931 222.486 164.799 222.175 160.503C226.175 161.624 231.054 163.328 234.485 165.764Z" fill="#E0E0E0"/>
<path d="M241.233 199.123C241.29 198.97 241.361 198.822 241.443 198.68C241.591 198.392 241.801 197.964 242.065 197.419C242.806 195.862 243.422 194.249 243.91 192.594C244.624 190.143 245.037 187.613 245.139 185.062C245.226 183.561 245.148 182.055 244.906 180.572C244.658 178.991 243.936 177.523 242.836 176.362C241.639 175.289 240.278 174.414 238.805 173.771C237.429 173.119 236.102 172.367 234.836 171.522C232.711 170.058 230.788 168.321 229.117 166.355C227.991 165.033 226.971 163.626 226.066 162.145C225.747 161.623 225.506 161.211 225.358 160.923C225.27 160.784 225.199 160.635 225.148 160.479C225.251 160.607 225.345 160.742 225.428 160.884C225.591 161.164 225.848 161.561 226.206 162.075C227.15 163.513 228.19 164.886 229.319 166.183C231.003 168.103 232.925 169.8 235.038 171.234C236.28 172.066 237.581 172.807 238.929 173.451C240.445 174.105 241.843 175.001 243.069 176.105C244.223 177.317 244.976 178.855 245.225 180.509C245.468 182.019 245.543 183.551 245.45 185.077C245.327 187.652 244.883 190.2 244.128 192.665C243.618 194.325 242.962 195.937 242.167 197.481C241.879 198.026 241.645 198.439 241.474 198.711C241.413 198.859 241.331 198.997 241.233 199.123Z" fill="white"/>
<path d="M244.586 174.72C244.346 173.536 243.838 172.423 243.1 171.467C242.285 170.446 241.294 169.579 240.174 168.907C238.782 168.095 237.342 167.368 235.863 166.728C233.159 165.517 230.656 163.9 228.439 161.935C227.77 161.34 227.131 160.711 226.525 160.051C226.293 159.815 226.086 159.554 225.91 159.273C226.167 159.479 226.409 159.703 226.634 159.942C227.085 160.378 227.747 161.009 228.61 161.732C230.852 163.624 233.345 165.196 236.019 166.401C237.512 167.044 238.961 167.787 240.353 168.627C241.498 169.332 242.501 170.246 243.31 171.319C243.855 172.043 244.25 172.868 244.47 173.747C244.531 173.984 244.571 174.227 244.586 174.471C244.602 174.637 244.602 174.72 244.586 174.72Z" fill="white"/>
<path d="M212.377 194.369C212.355 194.238 212.355 194.104 212.377 193.973C212.377 193.669 212.377 193.296 212.377 192.836C212.377 191.848 212.471 190.424 212.556 188.665C212.751 185.14 213.046 180.269 213.778 174.931C214.057 172.404 214.599 169.913 215.396 167.499C216.066 165.513 217.184 163.707 218.665 162.223C219.659 161.218 220.867 160.45 222.198 159.974C222.557 159.847 222.926 159.753 223.303 159.694C223.433 159.663 223.566 159.647 223.7 159.647C223.7 159.647 223.163 159.756 222.244 160.114C220.963 160.63 219.804 161.409 218.844 162.402C217.434 163.889 216.37 165.669 215.731 167.616C214.967 170.014 214.446 172.483 214.175 174.985C213.443 180.3 213.109 185.164 212.852 188.681C212.727 190.401 212.626 191.794 212.548 192.844C212.509 193.303 212.478 193.677 212.455 193.973C212.442 194.107 212.416 194.24 212.377 194.369Z" fill="white"/>
<path d="M200.129 218.259C200.129 218.259 200.977 211.52 204.222 208.143C207.467 204.766 221.054 200.564 221.054 200.564C221.054 200.564 221.615 205.365 224.867 206.525C228.322 207.754 232.221 207.303 234.75 204.361C236.287 202.473 237.365 200.254 237.902 197.879C237.902 197.879 254.127 199.373 256.772 203.824C259.418 208.275 262.842 225.512 262.842 225.512L247.676 228.726L248.648 242.733L211.366 242.951L210.214 230.578L199.234 232.134L200.129 218.259Z" fill="#455A64"/>
<path d="M244.664 229.714C244.613 229.495 244.595 229.269 244.61 229.045C244.61 228.617 244.61 227.994 244.61 227.224C244.61 225.667 244.61 223.558 244.687 221.208C244.765 218.858 244.796 216.734 244.859 215.193C244.859 214.415 244.929 213.808 244.952 213.372C244.951 213.146 244.979 212.921 245.038 212.703C245.083 212.923 245.101 213.148 245.092 213.372C245.092 213.808 245.092 214.431 245.092 215.201C245.092 216.757 245.092 218.866 245.022 221.216C244.952 223.566 244.905 225.691 244.843 227.231C244.843 228.01 244.781 228.617 244.75 229.052C244.748 229.276 244.72 229.498 244.664 229.714Z" fill="#263238"/>
<path d="M206.471 217.489C206.565 217.489 207.514 220.477 208.588 224.22C209.662 227.963 210.463 231.013 210.37 231.037C209.551 228.833 208.844 226.589 208.253 224.313C207.179 220.57 206.378 217.52 206.471 217.489Z" fill="#263238"/>
<path d="M255.084 202.758C255.084 202.82 254.36 202.96 253.255 203.381C251.818 203.925 250.485 204.715 249.318 205.715C248.153 206.727 247.175 207.936 246.431 209.287C245.855 210.322 245.652 211.03 245.567 211.007C245.572 210.83 245.609 210.657 245.676 210.493C245.818 210.038 245.998 209.596 246.213 209.17C246.916 207.752 247.893 206.488 249.087 205.449C250.281 204.41 251.668 203.617 253.17 203.116C253.62 202.96 254.084 202.845 254.555 202.774C254.729 202.738 254.908 202.733 255.084 202.758Z" fill="#263238"/>
<path d="M203.973 209.512C204.305 210.161 204.536 210.856 204.658 211.574C204.894 212.277 205.019 213.012 205.031 213.753C204.443 212.396 204.075 210.954 203.942 209.481L203.973 209.512Z" fill="#263238"/>
<path d="M245.015 212.704C245.015 212.821 236.408 213.98 225.771 215.303C215.133 216.626 206.488 217.637 206.472 217.49C206.457 217.342 215.079 216.221 225.724 214.898C236.37 213.575 244.999 212.595 245.015 212.704Z" fill="white"/>
<path d="M259.511 212.197C254.828 213.644 250.065 214.823 245.248 215.73C247.57 214.946 249.934 214.292 252.329 213.769C254.693 213.115 257.091 212.59 259.511 212.197Z" fill="white"/>
<path d="M261.963 221.582C261.963 221.69 258.274 222.578 253.675 223.566C249.076 224.554 245.326 225.255 245.302 225.122C245.279 224.99 248.991 224.126 253.59 223.146C258.189 222.165 261.94 221.473 261.963 221.582Z" fill="white"/>
<path d="M220.945 203.832C220.945 203.941 217.405 204.945 212.977 206.081C208.549 207.217 204.931 208.05 204.907 207.941C204.884 207.832 208.448 206.828 212.876 205.692C217.304 204.556 220.922 203.723 220.945 203.832Z" fill="white"/>
<path d="M244.407 226.896C244.407 227.005 236.696 227.558 227.171 228.118C217.646 228.678 209.911 229.052 209.903 228.943C209.896 228.834 217.615 228.281 227.148 227.713C236.68 227.145 244.4 226.787 244.407 226.896Z" fill="white"/>
<path d="M201.328 222.088C202.315 221.805 203.33 221.63 204.355 221.567C205.359 221.37 206.382 221.283 207.405 221.31C205.442 221.93 203.384 222.194 201.328 222.088Z" fill="white"/>
<path d="M243.855 238.336C243.467 238.409 243.074 238.45 242.68 238.46L239.474 238.671L228.898 239.379L218.331 240.204L215.125 240.453C214.735 240.499 214.342 240.515 213.95 240.499C214.328 240.393 214.717 240.325 215.109 240.297C215.887 240.196 216.953 240.064 218.3 239.916C221 239.628 224.735 239.27 228.867 238.974C232.999 238.678 236.742 238.484 239.458 238.39C240.812 238.336 241.909 238.313 242.672 238.305C243.066 238.277 243.462 238.287 243.855 238.336Z" fill="white"/>
<path d="M210.214 230.562L205.032 231.231L200.129 218.578L192.208 221.807C192.208 221.807 196.682 236.951 198.386 242.935H214.487L210.214 230.562Z" fill="#FFBE9D"/>
<path d="M210.766 240.421C209.801 239.396 208.909 238.304 208.097 237.153C207.453 236.203 206.878 235.207 206.377 234.173C205.949 233.286 205.654 232.546 205.459 232.033C205.371 231.765 205.262 231.505 205.132 231.255C205.163 231.539 205.228 231.819 205.327 232.087C205.558 232.837 205.833 233.573 206.152 234.29C206.626 235.354 207.188 236.377 207.833 237.348C208.636 238.524 209.531 239.635 210.51 240.671C211.228 241.358 211.875 242.117 212.439 242.935H212.844C212.243 242.026 211.546 241.183 210.766 240.421Z" fill="#EB996E"/>
<path d="M200.129 218.578C200.129 218.578 200.129 213.045 199.678 211.489L195.787 202.766C195.787 202.766 194.775 202.143 194.301 203.886C193.826 205.629 195.343 207.419 195.343 207.419L195.46 209.699L193.904 208.415L190.861 202.711C190.861 202.711 188.768 198.564 188.223 199.217C187.678 199.871 187.857 201.217 188.76 203.007L190.814 207.069C190.814 207.069 191.118 207.793 190.036 206.742C188.955 205.692 186.62 200.626 186.145 199.995C185.671 199.365 184.994 197.505 183.943 197.925C182.893 198.346 184.239 200.571 184.239 200.571L187.601 208.088C187.601 208.088 185.655 205.24 185.266 204.766C184.877 204.291 184.107 202.649 183.468 201.824C182.83 200.999 182.138 200.672 181.679 200.867C181.452 200.945 181.265 201.108 181.156 201.321C181.048 201.535 181.026 201.782 181.095 202.011L184.675 208.236C184.675 208.236 186.472 211.03 186.464 211.24C186.457 211.45 184.908 210.314 184.908 210.314L183.406 208.4C183.406 208.4 181.788 205.536 180.932 205.692C180.076 205.847 180.231 206.47 180.231 206.47L183.251 211.691L187.632 217.317L192.301 221.986L195.001 221.115L200.129 218.578Z" fill="#FFBE9D"/>
<path d="M191.523 217.667C191.659 217.094 191.753 216.511 191.803 215.924C191.932 214.547 192.573 213.27 193.6 212.344C194.113 211.917 194.754 211.673 195.421 211.652H195.639V211.411C195.577 210.337 195.639 209.317 195.577 208.64C195.607 208.268 195.554 207.893 195.421 207.543C195.353 207.902 195.319 208.267 195.32 208.632C195.241 209.577 195.21 210.525 195.227 211.473L195.437 211.232C194.667 211.238 193.924 211.513 193.336 212.01C192.694 212.529 192.204 213.212 191.92 213.986C191.695 214.603 191.554 215.247 191.499 215.901C191.405 216.486 191.413 217.084 191.523 217.667Z" fill="#EB996E"/>
<path d="M246.135 229.06L243.248 242.942H256.796C257.31 240.966 260.142 226.095 260.142 226.095L246.135 229.06Z" fill="#FFBE9D"/>
<path d="M214.945 -4.08057H84.6089V121.197H214.945V-4.08057Z" fill="#263238"/>
<path d="M214.945 -4.08057H84.6089V5.30418H214.945V-4.08057Z" fill="#455A64"/>
<path d="M214.945 101.293H84.6401V121.198H91.4336V139.773L108.546 121.198H214.945V101.293Z" fill="#455A64"/>
<rect x="143.465" y="103.409" width="14.9948" height="14.9948" rx="7.4974" fill="#FF725E"/>
<g clip-path="url(#clip1_9738_481586)">
<path d="M152.749 113.833H152.184C151.823 113.841 151.472 113.709 151.207 113.464C150.942 113.219 150.782 112.88 150.762 112.52C150.917 112.489 151.066 112.434 151.204 112.358L148.896 110.05V110.979C148.897 111.347 149.026 111.702 149.262 111.984C149.498 112.266 149.825 112.457 150.186 112.522C150.21 113.017 150.418 113.484 150.77 113.833H148.183C148.107 113.833 148.035 113.863 147.981 113.916C147.928 113.97 147.897 114.043 147.897 114.118C147.897 114.194 147.928 114.267 147.981 114.32C148.035 114.374 148.107 114.404 148.183 114.404H152.749C152.824 114.404 152.897 114.374 152.95 114.32C153.004 114.267 153.034 114.194 153.034 114.118C153.034 114.043 153.004 113.97 152.95 113.916C152.897 113.863 152.824 113.833 152.749 113.833Z" fill="white" fill-opacity="0.95"/>
<path d="M154.091 113.631L151.949 111.489C152.006 111.325 152.035 111.153 152.035 110.979V108.126C152.035 107.71 151.87 107.31 151.575 107.016C151.281 106.722 150.882 106.556 150.466 106.556C150.049 106.556 149.65 106.722 149.356 107.016C149.062 107.31 148.896 107.71 148.896 108.126V108.436L147.242 106.783C147.189 106.729 147.116 106.699 147.041 106.699C146.965 106.699 146.892 106.729 146.839 106.783C146.785 106.836 146.755 106.909 146.755 106.984C146.755 107.06 146.785 107.133 146.839 107.186L153.688 114.035C153.714 114.061 153.746 114.082 153.78 114.096C153.815 114.111 153.852 114.118 153.889 114.118C153.927 114.118 153.964 114.111 153.999 114.096C154.033 114.082 154.065 114.061 154.091 114.035C154.118 114.008 154.139 113.977 154.153 113.942C154.167 113.907 154.175 113.87 154.175 113.833C154.175 113.795 154.167 113.758 154.153 113.724C154.139 113.689 154.118 113.658 154.091 113.631Z" fill="white" fill-opacity="0.95"/>
</g>
<path d="M126.835 110.837C127.071 110.837 127.263 110.645 127.263 110.409C127.263 110.172 127.071 109.981 126.835 109.981C126.598 109.981 126.407 110.172 126.407 110.409C126.407 110.645 126.598 110.837 126.835 110.837Z" fill="black" fill-opacity="0.95"/>
<path d="M124.695 110.837C124.931 110.837 125.123 110.645 125.123 110.409C125.123 110.172 124.931 109.981 124.695 109.981C124.458 109.981 124.267 110.172 124.267 110.409C124.267 110.645 124.458 110.837 124.695 110.837Z" fill="black" fill-opacity="0.95"/>
<path d="M128.975 110.837C129.211 110.837 129.403 110.645 129.403 110.409C129.403 110.172 129.211 109.981 128.975 109.981C128.739 109.981 128.547 110.172 128.547 110.409C128.547 110.645 128.739 110.837 128.975 110.837Z" fill="black" fill-opacity="0.95"/>
<rect x="120.12" y="103.694" width="14.4241" height="14.4241" rx="7.21204" stroke="black" stroke-opacity="0.3" stroke-width="0.570713"/>
<rect x="167.095" y="103.409" width="14.9948" height="14.9948" rx="7.4974" fill="#FF725E"/>
<g clip-path="url(#clip2_9738_481586)">
<path d="M177.744 108.618C177.68 108.578 177.606 108.557 177.531 108.555C177.456 108.553 177.381 108.57 177.315 108.606L176.236 109.293V108.697C176.235 108.356 176.1 108.03 175.859 107.789C175.618 107.548 175.292 107.413 174.952 107.413H171.527C171.519 107.413 171.512 107.414 171.504 107.414L170.872 106.783C170.819 106.729 170.746 106.699 170.671 106.699C170.595 106.699 170.522 106.729 170.469 106.783C170.415 106.836 170.385 106.909 170.385 106.984C170.385 107.06 170.415 107.133 170.469 107.186L177.317 114.035C177.371 114.088 177.444 114.118 177.519 114.118C177.595 114.118 177.667 114.088 177.721 114.035C177.774 113.981 177.805 113.909 177.805 113.833C177.805 113.757 177.774 113.685 177.721 113.631L176.234 112.144C176.234 112.136 176.236 111.525 176.236 111.525L177.327 112.218C177.387 112.248 177.453 112.264 177.519 112.264C177.633 112.264 177.742 112.218 177.822 112.138C177.902 112.058 177.947 111.949 177.947 111.836V108.982C177.947 108.909 177.929 108.837 177.893 108.773C177.858 108.709 177.806 108.656 177.744 108.618Z" fill="white" fill-opacity="0.95"/>
<path d="M170.243 108.697V112.121C170.244 112.461 170.379 112.788 170.62 113.029C170.86 113.269 171.187 113.405 171.527 113.405H174.952C175.205 113.405 175.454 113.33 175.664 113.188L170.46 107.984C170.319 108.195 170.243 108.443 170.243 108.697Z" fill="white" fill-opacity="0.95"/>
</g>
<rect x="224.397" y="245.037" width="14.9948" height="14.9948" rx="7.4974" fill="#FF725E"/>
<g clip-path="url(#clip3_9738_481586)">
<path d="M233.681 255.461H233.116C232.755 255.47 232.405 255.337 232.139 255.092C231.874 254.847 231.714 254.509 231.694 254.148C232.052 254.079 232.375 253.887 232.607 253.606C232.839 253.325 232.967 252.972 232.967 252.608V249.754C232.967 249.338 232.802 248.939 232.508 248.644C232.213 248.35 231.814 248.185 231.398 248.185C230.982 248.185 230.582 248.35 230.288 248.644C229.994 248.939 229.828 249.338 229.828 249.754V252.608C229.829 252.975 229.958 253.331 230.194 253.613C230.43 253.895 230.757 254.085 231.118 254.151C231.142 254.645 231.35 255.113 231.702 255.461H229.115C229.039 255.461 228.967 255.491 228.913 255.545C228.86 255.598 228.83 255.671 228.83 255.747C228.83 255.822 228.86 255.895 228.913 255.948C228.967 256.002 229.039 256.032 229.115 256.032H233.681C233.756 256.032 233.829 256.002 233.882 255.948C233.936 255.895 233.966 255.822 233.966 255.747C233.966 255.671 233.936 255.598 233.882 255.545C233.829 255.491 233.756 255.461 233.681 255.461Z" fill="white" fill-opacity="0.95"/>
</g>
<path d="M207.767 252.465C208.003 252.465 208.195 252.273 208.195 252.037C208.195 251.801 208.003 251.609 207.767 251.609C207.531 251.609 207.339 251.801 207.339 252.037C207.339 252.273 207.531 252.465 207.767 252.465Z" fill="black" fill-opacity="0.95"/>
<path d="M205.627 252.465C205.863 252.465 206.055 252.273 206.055 252.037C206.055 251.801 205.863 251.609 205.627 251.609C205.39 251.609 205.199 251.801 205.199 252.037C205.199 252.273 205.39 252.465 205.627 252.465Z" fill="black" fill-opacity="0.95"/>
<path d="M209.907 252.465C210.144 252.465 210.335 252.273 210.335 252.037C210.335 251.801 210.144 251.609 209.907 251.609C209.671 251.609 209.479 251.801 209.479 252.037C209.479 252.273 209.671 252.465 209.907 252.465Z" fill="black" fill-opacity="0.95"/>
<rect x="201.052" y="245.322" width="14.4241" height="14.4241" rx="7.21204" stroke="black" stroke-opacity="0.3" stroke-width="0.570713"/>
<rect x="248.027" y="245.037" width="14.9948" height="14.9948" rx="7.4974" fill="#FF725E"/>
<path fill-rule="evenodd" clip-rule="evenodd" d="M258.463 250.183C258.539 250.185 258.612 250.206 258.676 250.246C258.739 250.284 258.79 250.338 258.826 250.401C258.861 250.465 258.88 250.537 258.879 250.61V253.464C258.879 253.537 258.861 253.608 258.825 253.672C258.79 253.736 258.738 253.789 258.676 253.828C258.614 253.866 258.544 253.888 258.471 253.891C258.398 253.895 258.325 253.879 258.26 253.847L257.168 253.153V253.749C257.167 254.09 257.032 254.416 256.791 254.657C256.551 254.897 256.224 255.033 255.884 255.033H252.459C252.119 255.033 251.793 254.897 251.552 254.657C251.311 254.416 251.176 254.09 251.175 253.749V250.325C251.176 249.984 251.311 249.658 251.552 249.417C251.793 249.176 252.119 249.041 252.459 249.041H255.884C256.224 249.041 256.551 249.176 256.791 249.417C257.032 249.658 257.167 249.984 257.168 250.325V250.921L258.247 250.235C258.313 250.199 258.388 250.181 258.463 250.183ZM253.601 250.896C253.601 251.211 253.345 251.466 253.03 251.466C252.715 251.466 252.459 251.211 252.459 250.896C252.459 250.58 252.715 250.325 253.03 250.325C253.345 250.325 253.601 250.58 253.601 250.896Z" fill="white" fill-opacity="0.95"/>
<path d="M253.03 251.466C253.345 251.466 253.6 251.211 253.6 250.896C253.6 250.58 253.345 250.325 253.03 250.325C252.715 250.325 252.459 250.58 252.459 250.896C252.459 251.211 252.715 251.466 253.03 251.466Z" fill="#FF725E"/>
<path d="M214.961 101.477C214.961 101.477 214.961 102.256 214.961 103.773C214.961 105.29 214.961 107.547 214.961 110.489C214.961 113.43 214.961 117.064 214.961 121.336V121.383C214.805 121.539 214.906 121.43 214.859 121.461H200.315L108.561 121.531L108.686 121.476L91.5659 140.059L91.2469 140.402V121.383L91.4336 121.578H84.5079L84.4456 121.5L84.4067 121.453V121.383C84.4067 92.9798 84.4067 61.8608 84.4067 29.3954V-4.06592H84.6091H214.945H215.108V-3.9025C215.108 28.2749 215.054 54.616 215.038 72.9186C215.038 82.0621 215.038 89.1979 214.992 94.0537C214.992 96.4738 214.992 98.3181 214.992 99.5709C214.992 98.3181 214.992 96.4582 214.992 94.0537C214.992 89.1979 214.992 82.0621 214.992 72.9186C214.992 54.616 214.945 28.2749 214.922 -3.9025L215.077 -3.74687L84.7413 -3.70018L84.9437 -3.9025V29.3954C84.9437 61.8608 84.9437 92.9798 84.9437 121.383L84.9048 121.274L84.7569 121.196H91.7605V121.383C91.7605 127.834 91.7605 134.153 91.7605 139.958L91.4492 139.834C97.4022 133.382 103.168 127.118 108.569 121.266L108.616 121.212H108.693L200.448 121.29H215.069C215.069 121.29 215.163 121.212 215.015 121.36V121.305C215.015 117.033 215.015 113.399 215.015 110.458C215.015 107.516 215.015 105.267 215.015 103.742C215.015 102.217 214.961 101.477 214.961 101.477Z" fill="#263238"/>
<path d="M103.044 0.955626C103.044 1.30346 102.941 1.64348 102.747 1.93269C102.554 2.2219 102.279 2.44731 101.958 2.58042C101.637 2.71353 101.283 2.74836 100.942 2.6805C100.601 2.61264 100.287 2.44514 100.041 2.19919C99.7955 1.95324 99.628 1.63987 99.5602 1.29872C99.4923 0.957576 99.5271 0.603968 99.6602 0.282614C99.7933 -0.0387409 100.019 -0.313406 100.308 -0.506651C100.597 -0.699896 100.937 -0.80304 101.285 -0.80304C101.751 -0.80304 102.199 -0.617753 102.529 -0.287939C102.858 0.0418753 103.044 0.489199 103.044 0.955626Z" fill="#263238"/>
<path d="M92.4143 0.955643C92.4143 1.30381 92.311 1.64413 92.1174 1.93351C91.9238 2.22289 91.6487 2.44829 91.3268 2.58117C91.005 2.71405 90.651 2.74842 90.3097 2.67993C89.9683 2.61144 89.655 2.44316 89.4093 2.19643C89.1637 1.9497 88.9968 1.63561 88.9298 1.29395C88.8628 0.952288 88.8988 0.598438 89.0331 0.277222C89.1674 -0.0439934 89.394 -0.318119 89.6842 -0.510424C89.9745 -0.70273 90.3153 -0.804563 90.6634 -0.803022C90.894 -0.803025 91.1223 -0.75748 91.3353 -0.669004C91.5482 -0.580528 91.7415 -0.450862 91.9042 -0.287452C92.0669 -0.124043 92.1957 0.0698924 92.2833 0.283219C92.3708 0.496545 92.4153 0.72506 92.4143 0.955643Z" fill="#263238"/>
<path d="M97.7288 0.955626C97.7288 1.30346 97.6256 1.64348 97.4324 1.93269C97.2391 2.2219 96.9644 2.44731 96.6431 2.58042C96.3217 2.71353 95.9681 2.74836 95.627 2.6805C95.2858 2.61264 94.9725 2.44514 94.7265 2.19919C94.4806 1.95324 94.3131 1.63987 94.2452 1.29872C94.1774 0.957576 94.2122 0.603968 94.3453 0.282614C94.4784 -0.0387409 94.7038 -0.313406 94.993 -0.506651C95.2822 -0.699896 95.6222 -0.80304 95.9701 -0.80304C96.4365 -0.80304 96.8838 -0.617753 97.2137 -0.287939C97.5435 0.0418753 97.7288 0.489199 97.7288 0.955626Z" fill="#263238"/>
<path d="M94.6313 22.4103C96.8231 22.4103 98.5999 20.6335 98.5999 18.4416C98.5999 16.2498 96.8231 14.473 94.6313 14.473C92.4394 14.473 90.6626 16.2498 90.6626 18.4416C90.6626 20.6335 92.4394 22.4103 94.6313 22.4103Z" fill="#455A64"/>
<path d="M116.522 17.8103C114.068 18.0106 111.606 18.0781 109.145 18.0126C106.686 18.0782 104.226 18.0107 101.775 17.8103C104.226 17.6099 106.686 17.5424 109.145 17.608C111.606 17.5425 114.068 17.6101 116.522 17.8103Z" fill="#455A64"/>
<path d="M105.829 312.851L16.153 314.96L13.4216 257.041C13.3542 255.695 13.5607 254.35 14.0287 253.086C14.4966 251.823 15.2162 250.667 16.1439 249.69C17.0716 248.713 18.188 247.934 19.4256 247.402C20.6631 246.869 21.9959 246.593 23.3433 246.59H99.7442C101.116 246.583 102.474 246.86 103.733 247.403C104.993 247.946 106.126 248.743 107.063 249.745C108 250.747 108.719 251.931 109.177 253.224C109.634 254.517 109.819 255.891 109.72 257.259L105.829 312.851Z" fill="#455A64"/>
<path d="M110.42 256.841H110.164H109.432H106.607L96.211 256.879C87.4333 256.879 75.3093 256.794 61.9248 257.105C48.5324 257.549 36.393 257.471 27.6152 257.339C23.2263 257.269 19.6779 257.183 17.2266 257.113L14.4019 257.02L13.6626 256.981H13.4136C13.4988 256.969 13.5852 256.969 13.6704 256.981H14.4019H17.2266L27.623 257.082C36.4008 257.136 48.5247 257.167 61.9092 256.724C75.3093 256.413 87.4333 256.56 96.211 256.615L106.607 256.708H109.432H110.164C110.256 256.739 110.342 256.783 110.42 256.841Z" fill="#263238"/>
<path d="M46.1283 247.533C44.1124 247.823 42.1508 248.41 40.3075 249.276C38.526 250.264 36.8981 251.507 35.4751 252.965C35.7572 252.424 36.1312 251.937 36.5801 251.525C38.6551 249.4 41.3695 248.014 44.3073 247.58C44.9071 247.459 45.5232 247.443 46.1283 247.533Z" fill="#263238"/>
<g opacity="0.3">
<path d="M34.627 246.593C37.2805 249.557 41.6305 250.857 45.5602 251.456C52.6416 252.538 59.902 253.114 66.9677 251.908C71.4967 251.129 75.979 249.635 80.5624 249.954C85.1458 250.273 89.9627 252.483 94.4839 251.199C95.6983 250.849 96.8306 250.26 97.8141 249.466C98.7976 248.673 99.6126 247.69 100.211 246.577C100.585 245.869 100.826 244.881 100.211 244.359C99.8999 244.095 99.2229 245.005 98.8183 244.974C77.5742 243.355 55.8866 248.087 34.627 246.593Z" fill="black"/>
</g>
<g opacity="0.3">
<path d="M89.3323 260.545C88.951 262.513 89.9082 264.545 91.3011 265.992C92.7803 267.349 94.4375 268.498 96.2269 269.408C99.114 271.081 101.985 272.995 103.791 275.797C107.215 281.12 105.946 288.1 107.394 294.255C107.394 294.255 108.608 267.681 108.351 268.35" fill="black"/>
</g>
<path d="M62.2527 84.3978C63.8255 85.9962 64.9886 87.9511 65.6431 90.096C66.2975 92.2408 66.4238 94.512 66.0112 96.7162C65.591 98.8484 64.7039 101.23 65.9101 103.035C67.1163 104.84 69.8009 105.097 70.9604 106.926C72.2911 109.081 70.6414 111.859 70.9059 114.373C71.0717 115.552 71.6511 116.633 72.5405 117.424C73.43 118.215 74.5717 118.665 75.7617 118.692C72.7325 120.614 69.2328 121.667 65.6455 121.734L63.3577 117.96C64.237 119.291 63.739 121.19 62.5795 122.31C61.3638 123.357 59.8673 124.022 58.2762 124.225C54.5268 124.909 50.6702 124.721 47.0051 123.675C43.34 122.629 39.9649 120.754 37.1411 118.194" fill="#263238"/>
<path d="M19.6164 98.6376C20.3479 97.0812 21.4295 95.6338 21.9898 93.9685C23.196 90.4201 21.9042 86.1012 24.0598 83.0741C25.6161 80.8797 28.4097 80.0548 31.0633 79.5724C33.7169 79.0899 36.5105 78.7475 38.596 77.1133C40.1523 75.9072 41.1562 74.1252 42.6969 72.9112C44.8992 71.1915 47.8873 70.8724 50.6732 71.028C53.5543 71.0932 56.3704 71.8971 58.8518 73.3626C60.0769 74.1074 61.1106 75.1289 61.87 76.345C62.6295 77.5612 63.0935 78.9383 63.2251 80.3661C63.2874 81.7668 62.9527 83.1831 63.2251 84.5527C63.5364 86.0545 64.5402 87.3229 65.0849 88.7548C65.6248 90.2963 65.6373 91.9736 65.1203 93.523C64.6034 95.0724 63.5864 96.4061 62.229 97.3147L39.7477 120.216C35.4677 121.282 25.7406 118.24 22.9469 114.847C20.1533 111.454 17.7643 102.63 19.6164 98.6376Z" fill="#263238"/>
<path d="M62.0647 94.0238C61.9324 88.2108 58.3762 80.9349 52.571 81.3162L34.3307 85.1448C33.4803 85.2029 32.6823 85.5767 32.0934 86.1929C31.5046 86.8092 31.1673 87.6233 31.1479 88.4754L31.3191 132.053H31.1946C31.1946 132.053 34.782 144.504 46.8748 141.267C49.2716 140.628 50.4622 138.084 51.038 135.446H51.1625C51.1625 135.135 51.1625 134.839 51.217 134.535C51.5333 132.56 51.6428 130.557 51.5438 128.559C51.7228 125.049 51.785 123.61 51.785 123.641C51.785 123.672 59.2477 122.707 61.1698 113.105C62.1269 108.389 62.2048 100.49 62.0647 94.0238Z" fill="#FFBE9D"/>
<path d="M47.2495 99.6878C47.2393 100.01 47.1034 100.316 46.8708 100.54C46.6382 100.764 46.3272 100.888 46.0044 100.886C45.8461 100.892 45.6881 100.867 45.5398 100.811C45.3915 100.756 45.2557 100.671 45.1405 100.563C45.0252 100.454 44.9329 100.323 44.8688 100.178C44.8046 100.033 44.7701 99.8773 44.7671 99.7189C44.7772 99.3955 44.9128 99.0887 45.1453 98.8635C45.3777 98.6384 45.6886 98.5126 46.0122 98.5127C46.1708 98.5075 46.329 98.5339 46.4773 98.5904C46.6257 98.6468 46.7614 98.7322 46.8765 98.8415C46.9916 98.9508 47.0839 99.0819 47.1479 99.2272C47.2119 99.3725 47.2464 99.529 47.2495 99.6878Z" fill="#263238"/>
<path d="M59.9174 99.6878C59.9073 100.01 59.7714 100.316 59.5388 100.54C59.3061 100.764 58.9952 100.888 58.6723 100.886C58.5141 100.892 58.3561 100.867 58.2078 100.811C58.0594 100.756 57.9237 100.671 57.8084 100.563C57.6932 100.454 57.6008 100.323 57.5367 100.178C57.4726 100.033 57.438 99.8773 57.4351 99.7189C57.4452 99.3955 57.5808 99.0887 57.8132 98.8635C58.0456 98.6384 58.3566 98.5126 58.6801 98.5127C58.8388 98.5075 58.9969 98.5339 59.1453 98.5904C59.2937 98.6468 59.4294 98.7322 59.5445 98.8415C59.6596 98.9508 59.7519 99.0819 59.8159 99.2272C59.8799 99.3725 59.9144 99.529 59.9174 99.6878Z" fill="#263238"/>
<path d="M60.6956 98.2466C60.5322 98.4567 59.4739 97.5929 58.0187 97.6318C56.5635 97.6707 55.5286 98.5501 55.3651 98.3478C55.2017 98.1454 55.4352 97.8809 55.8865 97.4762C56.471 96.9601 57.2196 96.6683 57.9991 96.6526C58.7786 96.6369 59.5384 96.8984 60.1431 97.3906C60.6022 97.7797 60.7656 98.1532 60.6956 98.2466Z" fill="#263238"/>
<path d="M47.218 98.2171C47.0235 98.4038 45.9963 97.4389 44.4477 97.3377C42.8991 97.2366 41.7085 97.9603 41.5529 97.7502C41.3973 97.5401 41.6852 97.2988 42.2066 96.972C42.8955 96.5271 43.7118 96.3219 44.5292 96.388C45.3466 96.4541 46.1193 96.7879 46.7277 97.3377C47.1791 97.7579 47.3114 98.1315 47.218 98.2171Z" fill="#263238"/>
<path d="M51.4979 107.876C52.2111 107.683 52.9458 107.581 53.6846 107.573C54.027 107.573 54.3538 107.495 54.4161 107.261C54.4638 106.91 54.3984 106.553 54.2293 106.242C53.9414 105.409 53.6457 104.53 53.3266 103.612C52.0815 99.8532 51.1867 96.7794 51.3423 96.7249C51.4979 96.6704 52.6263 99.682 53.8791 103.433C54.1748 104.359 54.4628 105.238 54.7351 106.079C54.9349 106.498 54.979 106.975 54.8596 107.425C54.8062 107.543 54.7265 107.647 54.6267 107.729C54.5269 107.811 54.4096 107.869 54.2838 107.899C54.0925 107.944 53.8965 107.965 53.7002 107.962C52.9653 108.02 52.226 107.991 51.4979 107.876Z" fill="#263238"/>
<path d="M51.7852 123.703C47.2298 123.596 42.7933 122.227 38.9688 119.75C38.9688 119.75 41.8402 126.52 51.5596 125.976L51.7852 123.703Z" fill="#EB996E"/>
<path d="M47.5368 108.636C47.7547 108.636 47.7002 110.083 48.8986 111.157C50.097 112.231 51.6456 112.138 51.6456 112.34C51.6456 112.542 51.2876 112.613 50.6339 112.605C49.7856 112.58 48.9731 112.258 48.3383 111.694C47.7306 111.152 47.3545 110.397 47.2878 109.585C47.2567 108.978 47.4668 108.62 47.5368 108.636Z" fill="#263238"/>
<path d="M47.6221 93.6888C47.4742 94.0468 46.1513 93.8211 44.5794 93.9534C43.0075 94.0857 41.7157 94.4514 41.5212 94.1168C41.4356 93.9534 41.6691 93.6266 42.1982 93.292C42.8947 92.8819 43.6791 92.6444 44.486 92.5994C45.2829 92.535 46.0836 92.6631 46.8206 92.9729C47.412 93.2219 47.6843 93.5254 47.6221 93.6888Z" fill="#263238"/>
<path d="M59.8476 94.1768C59.5674 94.4647 58.5324 94.1068 57.264 94.0445C55.9956 93.9823 54.9295 94.1535 54.6883 93.8267C54.5871 93.671 54.7739 93.3675 55.2486 93.1029C55.906 92.7748 56.6405 92.6322 57.373 92.6905C58.101 92.7293 58.804 92.969 59.404 93.3831C59.8398 93.7099 59.9721 94.0679 59.8476 94.1768Z" fill="#263238"/>
<path d="M30.2925 86.0702C31.3352 84.8095 33.0083 84.2959 34.5958 83.8913C41.4351 82.1336 48.4598 81.1984 55.5208 81.1054C56.2211 82.6618 55.194 84.4827 53.7621 85.362C52.3303 86.2414 50.6494 86.4593 48.9764 86.8639C47.3033 87.2686 45.638 87.9767 44.8131 89.4319C43.9883 90.887 44.2918 92.9959 43.4903 94.5989C42.1207 97.3459 38.0042 97.7972 36.6501 100.56C35.623 102.645 36.6112 105.104 36.6501 107.431C36.6747 108.611 36.4474 109.783 35.9831 110.869C35.5189 111.954 34.8285 112.928 33.9581 113.726C33.0876 114.524 32.057 115.126 30.9351 115.494C29.8133 115.862 28.6259 115.986 27.4521 115.859C27.945 107.558 28.4378 99.2576 28.9307 90.9571C29.0318 89.2529 29.1875 87.4008 30.2925 86.0702Z" fill="#263238"/>
<path d="M11.243 104.965C12.6826 103.953 14.4335 103.136 15.1339 101.526C16.1766 99.191 14.558 96.0783 16.0755 94.0395C17.4606 92.1563 20.8223 92.6544 22.1374 90.7167C23.1568 89.1993 22.3709 87.6663 22.8533 86.2889C23.3358 84.9115 25.4835 83.9077 26.9076 84.2423L36.2456 101.876C36.6503 107.471 37.3584 110.506 35.8021 113.548C34.9539 115.229 33.9111 116.84 33.4676 118.669C33.024 120.497 33.2186 122.645 34.6037 123.921C27.8181 123.657 21.9273 119.392 16.5034 115.299L10.7605 110.973C10.1144 110.575 9.57911 110.021 9.20419 109.362C8.48828 107.735 9.8034 105.938 11.243 104.965Z" fill="#263238"/>
<path d="M16.5112 113.609C16.7357 113.708 16.9707 113.781 17.2116 113.827C17.906 113.982 18.6221 114.016 19.3282 113.928C20.6444 113.782 21.8819 113.228 22.8672 112.343C23.8525 111.458 24.5361 110.287 24.8221 108.994C25.0227 108.14 25.0519 107.253 24.9077 106.387C24.7077 105.467 24.3858 104.577 23.9505 103.742C23.4875 102.88 23.157 101.954 22.97 100.995C22.8691 100.504 22.8788 99.9978 22.9987 99.5117C23.1185 99.0257 23.3453 98.5726 23.6626 98.1855C24.3708 97.4073 25.5302 97.4073 26.6352 97.0649C27.2495 96.9543 27.8068 96.6354 28.2136 96.1621C28.6204 95.6887 28.8517 95.0897 28.8686 94.4658C29.0009 93.2285 28.604 92.0457 28.5106 90.8707C28.4456 90.2901 28.512 89.7023 28.7052 89.1509C28.9219 88.6134 29.3215 88.1696 29.8335 87.898C30.9404 87.4207 32.1543 87.2462 33.3508 87.3922C34.5792 87.4908 35.8127 87.2794 36.9382 86.7775C38.0202 86.2729 38.9432 85.4817 39.6073 84.4897C40.183 83.5221 40.6081 82.4725 40.868 81.377C41.1038 80.362 41.4427 79.3737 41.8796 78.4277C42.3343 77.5663 42.9717 76.8147 43.7472 76.2255C45.0279 75.2471 46.5864 74.7009 48.1977 74.666C49.8091 74.631 51.3898 75.109 52.7117 76.0309C53.619 76.6433 54.4096 77.4128 55.0463 78.3032C55.5838 79.0795 56.0303 79.915 56.3769 80.7933C56.3731 80.7287 56.3573 80.6654 56.3303 80.6066C56.2913 80.4899 56.2524 80.3109 56.1591 80.0852C55.9051 79.4256 55.5733 78.7986 55.1708 78.2176C54.5403 77.2937 53.7496 76.4899 52.8363 75.8442C51.4768 74.8711 49.8418 74.3582 48.1701 74.3806C46.4985 74.403 44.8778 74.9595 43.5449 75.9687C42.728 76.5958 42.0564 77.3922 41.5761 78.3032C41.1184 79.267 40.7637 80.2765 40.5178 81.3147C40.267 82.3751 39.8549 83.3908 39.2961 84.3262C38.6661 85.2607 37.7912 86.0037 36.767 86.474C35.6969 86.9477 34.525 87.1457 33.3586 87.0498C32.0941 86.8929 30.8108 87.0839 29.6468 87.6023C29.0513 87.9121 28.5872 88.4259 28.3394 89.0497C28.1259 89.6584 28.0515 90.3072 28.1216 90.9485C28.3508 92.1098 28.4706 93.29 28.4795 94.4736C28.4477 95.0181 28.2494 95.5396 27.9114 95.9677C27.5386 96.3565 27.0596 96.6271 26.5341 96.7459C26.0049 96.8937 25.4446 96.9793 24.8999 97.1349C24.334 97.2737 23.8155 97.5611 23.398 97.9676C23.0452 98.396 22.7923 98.8977 22.6577 99.4361C22.5231 99.9745 22.5102 100.536 22.6199 101.08C22.8264 102.072 23.175 103.029 23.6548 103.921C24.0816 104.729 24.4008 105.59 24.6042 106.481C24.7504 107.306 24.7319 108.153 24.5497 108.971C24.2422 110.393 23.4466 111.662 22.3008 112.558C21.4286 113.23 20.3957 113.662 19.3049 113.811C18.3693 113.923 17.421 113.854 16.5112 113.609Z" fill="#455A64"/>
<path d="M8.9006 100.956C8.76738 101.11 8.66914 101.29 8.61268 101.486C8.43777 102.044 8.47094 102.646 8.70606 103.182C8.88009 103.577 9.14707 103.924 9.48423 104.194C9.88774 104.504 10.3703 104.696 10.8772 104.746C11.4969 104.801 12.12 104.685 12.6784 104.411C13.2369 104.136 13.7093 103.714 14.0443 103.19C14.4403 102.59 14.6884 101.904 14.768 101.19C14.8368 100.426 14.7656 99.6559 14.5579 98.9176C14.1922 97.3612 13.3906 95.8594 13.5696 94.1629C13.5843 93.74 13.685 93.3246 13.8656 92.9419C14.0462 92.5593 14.303 92.2175 14.6202 91.9374C15.3715 91.4543 16.2818 91.284 17.157 91.4627C18.1299 91.6514 19.1287 91.6646 20.1063 91.5016C20.6249 91.3598 21.0853 91.0575 21.4214 90.6378C21.7459 90.2149 21.9743 89.7263 22.0906 89.206C22.2538 88.2082 22.2904 87.1937 22.1995 86.1867C22.1604 85.247 22.325 84.3099 22.682 83.4397C23.3653 81.778 24.6566 80.4393 26.2927 79.6967C27.8239 79.1334 29.4705 78.957 31.0863 79.1831C32.5313 79.3489 33.9932 79.2911 35.4207 79.0119C36.5938 78.7171 37.695 78.1876 38.6579 77.4556C39.3853 76.9101 40.0278 76.2597 40.5644 75.5257C41.0325 74.9137 41.3883 74.2234 41.6149 73.4869C41.2817 74.169 40.8885 74.82 40.4399 75.4324C39.8955 76.1375 39.2505 76.7589 38.5256 77.2766C37.5755 77.9631 36.4992 78.455 35.3584 78.724C33.9539 78.9809 32.5183 79.0202 31.1018 78.8407C29.4331 78.5977 27.7301 78.7715 26.1449 79.3466C24.4139 80.1172 23.0457 81.5243 22.3241 83.2763C21.9474 84.1962 21.7697 85.1854 21.8027 86.1789C21.8942 87.1545 21.8603 88.1379 21.7015 89.1048C21.6309 89.5643 21.4343 89.9953 21.1334 90.3497C20.8325 90.7042 20.4393 90.9682 19.9973 91.1125C19.0675 91.2574 18.1194 91.2389 17.1959 91.058C16.2213 90.8749 15.2136 91.0786 14.3867 91.6261C14.0336 91.9398 13.747 92.3211 13.5439 92.7475C13.3407 93.1739 13.2251 93.6367 13.2039 94.1085C13.1401 94.9828 13.2513 95.8611 13.5307 96.692C13.7642 97.4702 14.0443 98.2483 14.2388 98.9798C14.442 99.6818 14.5185 100.414 14.4645 101.143C14.3953 101.811 14.1715 102.453 13.8109 103.019C13.5072 103.506 13.0746 103.9 12.561 104.157C12.0473 104.414 11.4726 104.523 10.9005 104.474C10.4312 104.441 9.9806 104.277 9.60095 103.999C9.28772 103.752 9.03711 103.435 8.86947 103.073C8.63612 102.569 8.58125 102.001 8.71385 101.462C8.79166 101.135 8.92395 100.972 8.9006 100.956Z" fill="#263238"/>
<path d="M79.372 113.323C79.4963 113.919 79.414 114.539 79.1385 115.082C78.988 115.393 78.7703 115.666 78.5012 115.883C78.232 116.1 77.9182 116.254 77.5822 116.334C77.1337 116.409 76.6733 116.359 76.2517 116.189C75.8301 116.018 75.4638 115.735 75.1932 115.37C74.8847 114.941 74.7386 114.417 74.7808 113.891C74.8279 113.31 74.9837 112.742 75.2399 112.218C75.7301 111.121 76.6017 109.969 76.6639 108.467C76.7062 107.709 76.5896 106.951 76.3216 106.241C76.0536 105.53 75.6401 104.884 75.1076 104.343C74.5423 103.775 73.8776 103.316 73.1466 102.989C72.3978 102.684 71.6134 102.475 70.8121 102.366C70.0321 102.266 69.2634 102.091 68.5165 101.845C67.8151 101.612 67.2193 101.138 66.8357 100.506C66.5088 99.8707 66.3634 99.1572 66.4154 98.4443C66.459 97.7433 66.6005 97.0518 66.8357 96.3899C67.3549 95.1435 67.7131 93.836 67.9017 92.4991C67.9738 91.307 67.6893 90.1205 67.0847 89.0907C66.5633 88.2705 65.8929 87.5552 65.1081 86.9818C64.5384 86.5455 64.0002 86.0697 63.4973 85.5578C63.0845 85.1071 62.7669 84.5777 62.5635 84.0014C62.5635 84.0014 62.5635 84.0014 62.5635 84.1182C62.5849 84.2373 62.6161 84.3544 62.6569 84.4683C62.8192 84.9023 63.0592 85.3031 63.365 85.6512C63.8447 86.1836 64.365 86.6779 64.9213 87.1297C65.6689 87.7041 66.3046 88.411 66.7967 89.2152C67.3549 90.2012 67.6094 91.3301 67.5282 92.4602C67.3226 93.7584 66.9566 95.0261 66.4388 96.2343C66.1936 96.9266 66.0444 97.6492 65.9952 98.382C65.9281 99.1703 66.0874 99.9613 66.4543 100.662C66.881 101.373 67.5453 101.911 68.3297 102.18C69.09 102.429 69.8714 102.609 70.6642 102.716C71.4413 102.816 72.2024 103.014 72.9287 103.308C73.62 103.611 74.2482 104.041 74.7808 104.576C75.2835 105.077 75.6767 105.676 75.9352 106.337C76.1938 106.997 76.3121 107.704 76.2826 108.413C76.2437 109.782 75.4266 110.895 74.9131 112.047C74.6517 112.613 74.4961 113.222 74.4539 113.844C74.4195 114.435 74.5929 115.018 74.9442 115.494C75.2468 115.897 75.6571 116.207 76.1279 116.387C76.5988 116.568 77.111 116.611 77.6055 116.513C77.9694 116.42 78.3074 116.245 78.5943 116.002C78.8813 115.76 79.1099 115.456 79.263 115.113C79.4635 114.689 79.5416 114.217 79.4887 113.751C79.4724 113.603 79.433 113.459 79.372 113.323Z" fill="#263238"/>
<path d="M113.892 199.007L110.499 193.809L104.974 191.038L104.771 190.89C103.884 190.249 102.866 189.811 101.789 189.61C100.713 189.408 99.6056 189.447 98.546 189.723C96.3049 190.322 93.3011 191.069 90.7021 191.513L84.7568 189.887V201.458L114.724 199.567L113.892 199.007Z" fill="#FFBE9D"/>
<path d="M113.688 198.689C113.306 198.263 112.881 197.877 112.42 197.537C111.642 196.86 110.475 195.981 109.206 194.946L108.016 194.028H107.969C106.739 193.794 105.673 193.608 104.911 193.491C104.511 193.395 104.1 193.353 103.689 193.366C104.067 193.533 104.464 193.651 104.872 193.717C105.65 193.896 106.677 194.129 107.899 194.378L107.829 194.339L108.942 195.234C110.21 196.23 111.377 197.109 112.226 197.732C112.672 198.11 113.164 198.431 113.688 198.689Z" fill="#EB996E"/>
<path d="M111.355 199.699C109.981 198.732 108.541 197.863 107.044 197.1L105.993 196.524H105.955C104.679 196.402 103.397 196.381 102.118 196.462C103.376 196.707 104.651 196.85 105.931 196.89H105.853L106.904 197.474C108.329 198.327 109.817 199.071 111.355 199.699Z" fill="#EB996E"/>
<path d="M148.769 166.206C148.283 165.934 147.714 165.849 147.17 165.967C146.626 166.084 146.143 166.396 145.812 166.844L121.689 199.528L83.5038 200.041C81.9475 200.135 80.1266 203.216 81.4962 204.71L124.615 204.119L149.516 169.529C149.705 169.268 149.836 168.97 149.901 168.655C149.965 168.339 149.962 168.013 149.892 167.699C149.821 167.385 149.684 167.089 149.491 166.832C149.297 166.575 149.051 166.361 148.769 166.206Z" fill="#E0E0E0"/>
<path d="M148.769 166.206C148.836 166.239 148.901 166.275 148.963 166.315C149.144 166.431 149.305 166.575 149.438 166.743C149.71 167.071 149.887 167.467 149.95 167.888C150.013 168.309 149.96 168.739 149.796 169.132C149.49 169.672 149.15 170.192 148.777 170.689L147.501 172.478L144.349 176.906L124.755 204.251L124.708 204.329H124.615L82.282 204.928H81.5038H81.4182L81.3559 204.858C81.1699 204.646 81.0274 204.4 80.9366 204.133C80.8458 203.865 80.8085 203.583 80.8268 203.302C80.849 202.76 80.987 202.229 81.2315 201.745C81.4637 201.274 81.7772 200.847 82.1575 200.485C82.5372 200.085 83.0543 199.843 83.6049 199.808L89.5034 199.73L100.904 199.582L121.689 199.318L121.549 199.388C129.4 188.812 135.945 179.996 140.528 173.809L145.874 166.665C146.135 166.363 146.47 166.132 146.846 165.996C147.222 165.859 147.627 165.822 148.022 165.887C148.301 165.918 148.568 166.017 148.8 166.175C148.551 166.067 148.289 165.989 148.022 165.942C147.641 165.884 147.253 165.926 146.893 166.062C146.533 166.198 146.214 166.425 145.968 166.72L140.699 173.918L121.844 199.598L121.79 199.668H121.704L100.919 199.971L89.5267 200.127L83.6282 200.212C83.1754 200.242 82.7516 200.446 82.4454 200.78C82.0985 201.108 81.8138 201.495 81.605 201.924C81.352 202.316 81.222 202.774 81.2317 203.24C81.2414 203.706 81.3904 204.158 81.6594 204.539L81.5116 204.477H82.2898L124.622 203.924L124.482 203.994C132.614 192.758 139.415 183.349 144.193 176.758C145.384 175.116 146.458 173.646 147.384 172.362L148.683 170.587C149.057 170.111 149.4 169.612 149.711 169.093C149.88 168.714 149.942 168.296 149.89 167.885C149.838 167.473 149.673 167.083 149.415 166.759C149.227 166.545 149.009 166.359 148.769 166.206Z" fill="#263238"/>
<path d="M33.1101 128.364C30.7282 128.73 28.5007 129.769 26.6901 131.36C24.353 133.73 22.5954 136.609 21.5542 139.772C20.278 143.592 20.8539 158.681 20.8539 163.054C20.8539 167.428 21.9589 183.839 22.5114 186.571C23.0639 189.302 22.1534 193.364 20.8928 196.002C18.6205 200.741 22.1612 203.169 22.1612 203.169L69.0149 202.819L68.8281 201.076C68.5013 198.025 69.6063 194.928 68.4779 192.096C66.7582 187.944 66.0206 183.452 66.3224 178.968C66.9216 171.186 69.2561 165.833 67.8165 161.304C65.6376 154.393 58.424 138.682 49.7007 131.974C49.7007 131.974 42.8294 130.504 41.2731 129.959C37.7324 128.722 35.8648 128.052 33.1101 128.364Z" fill="#FF725E"/>
<path d="M88.1885 188.541L48.1672 180.184L47.1322 145.431C47.1322 145.431 45.7315 131.276 38.6346 129.961L21.5537 151.228C22.5031 161.944 21.6393 182.223 26.5651 190.051C31.491 197.88 36.2767 204.136 48.4084 203.584C60.5401 203.031 87.2703 202.766 87.2703 202.766L88.1885 188.541Z" fill="#FF725E"/>
<path d="M48.2456 180.322C48.339 180.392 47.3819 181.645 46.5726 183.435C45.7633 185.225 45.4053 186.711 45.2886 186.688C45.3272 185.491 45.6414 184.319 46.2068 183.264C46.6416 182.135 47.3407 181.126 48.2456 180.322Z" fill="#263238"/>
<g opacity="0.3">
<path d="M46.8511 143.952C50.8509 156.231 49.9638 175.172 57.6054 182.16L48.1662 180.183C48.344 177.965 48.37 175.737 48.244 173.514C47.4658 163.803 47.3802 153.92 46.8511 143.944" fill="black"/>
</g>
<path d="M45.9652 139.562C46.2595 140.477 46.4935 141.41 46.6656 142.355C46.8915 143.492 47.0551 144.64 47.1558 145.795C47.2881 147.157 47.3115 148.736 47.3737 150.503C47.5994 157.6 47.9262 167.77 48.3231 180.182L48.1986 180.027L88.2355 188.345L88.3989 188.384V188.555C88.1032 193.108 87.7919 197.893 87.4807 202.78V202.967H87.2939L82.4303 203.022C75.4735 203.115 68.68 203.216 62.12 203.356C58.8413 203.424 55.6249 203.509 52.4707 203.613C49.358 203.699 46.2454 203.994 43.1949 203.52C41.7049 203.311 40.243 202.935 38.8372 202.399C37.4805 201.851 36.1929 201.146 35.0008 200.298C32.7661 198.622 30.8164 196.596 29.2268 194.298C28.4486 193.201 27.6704 192.112 27.009 191.014L26.4954 190.197C26.3319 189.925 26.1841 189.629 26.0362 189.349C25.8884 189.069 25.7328 188.781 25.5849 188.501C25.4371 188.221 25.3515 187.917 25.2425 187.622C24.3991 185.379 23.7991 183.051 23.4527 180.68C22.8333 176.617 22.441 172.523 22.2777 168.416C22.0987 164.798 22.0209 161.685 21.9275 159.133C21.8341 156.58 21.7563 154.612 21.6863 153.273C21.6863 152.612 21.6162 152.106 21.5929 151.717C21.5696 151.328 21.5929 151.195 21.5929 151.195C21.5929 151.195 21.5929 151.367 21.6551 151.709C21.7174 152.051 21.7252 152.573 21.7874 153.265C21.8808 154.604 21.9975 156.58 22.1065 159.133C22.2154 161.685 22.3244 164.79 22.5189 168.409C22.7015 172.501 23.112 176.579 23.7484 180.626C24.1011 182.976 24.7037 185.282 25.546 187.505L25.8884 188.369L26.332 189.194C26.4798 189.474 26.6199 189.754 26.7833 190.026L27.3047 190.843C27.9972 191.933 28.7365 193.014 29.5147 194.104C31.0882 196.365 33.0139 198.359 35.2187 200.01C36.3905 200.84 37.6576 201.528 38.9928 202.057C40.3721 202.579 41.8049 202.947 43.265 203.154C46.222 203.613 49.3113 203.317 52.4707 203.232C55.6301 203.146 58.8439 203.037 62.1278 202.959C68.6878 202.812 75.4813 202.703 82.4381 202.617L87.3095 202.563L87.1071 202.757C87.4262 197.87 87.7374 193.084 88.0331 188.532L88.1888 188.734L48.1674 180.346H48.0429V180.221C47.7005 167.77 47.4204 157.654 47.2259 150.542C47.1792 148.768 47.1714 147.196 47.0547 145.834C46.9662 144.683 46.8182 143.538 46.6111 142.402C46.4477 141.476 46.2843 140.776 46.1753 140.309C46.1208 140.083 46.0742 139.904 46.043 139.78C46.0124 139.709 45.9864 139.636 45.9652 139.562Z" fill="#263238"/>
<path d="M63.0767 206.563C63.0767 206.563 129.392 200.252 134.31 204.766C139.229 209.279 143.322 219.1 141.688 222.376C140.053 225.652 136.357 236.717 136.357 236.717L105.829 229.753L63.0767 206.563Z" fill="#263238"/>
<path d="M105.814 236.717L93.5112 255.494L107.993 264.871L123.696 240.794L105.814 236.717Z" fill="#FFBE9D"/>
<path d="M23.2812 203.123C23.2812 203.123 17.546 229.34 26.9697 239.993C36.3933 250.646 50.3148 250.646 64.6643 248.599C79.0138 246.553 113.043 245.814 113.043 245.814C113.043 245.814 111.526 255.152 110.413 265.719C109.3 276.287 109.075 283.01 109.075 283.01L130.381 284.784C130.381 284.784 142.256 248.646 144.084 241.487C145.913 234.328 145.291 224.717 138.98 221.153C133.626 218.126 91.4178 206.423 71.2087 204.687L69.0143 202.796L23.2812 203.123Z" fill="#263238"/>
<path d="M123.47 237.135C123.47 237.205 122.638 237.322 121.377 237.781C120.638 238.046 119.925 238.377 119.245 238.769C118.413 239.253 117.631 239.819 116.91 240.458C116.203 241.105 115.559 241.819 114.988 242.59C114.531 243.228 114.13 243.905 113.79 244.613C113.206 245.819 113.012 246.644 112.934 246.621C112.856 246.597 112.934 246.411 113.019 246.029C113.137 245.495 113.307 244.974 113.525 244.473C113.841 243.733 114.23 243.027 114.685 242.364C115.252 241.552 115.907 240.806 116.638 240.139C117.378 239.482 118.187 238.908 119.05 238.427C119.755 238.04 120.499 237.727 121.268 237.493C121.775 237.329 122.296 237.211 122.824 237.143C123.037 237.099 123.257 237.096 123.47 237.135Z" fill="#455A64"/>
<path d="M120.934 215.31C121.493 213.745 122.444 212.349 123.696 211.256C123.348 212 122.909 212.698 122.389 213.334C121.985 214.049 121.497 214.713 120.934 215.31Z" fill="#455A64"/>
<path d="M144.979 231.448C144.979 231.448 144.979 231.386 144.917 231.246L144.769 230.639C144.644 230.11 144.45 229.324 144.131 228.304C143.738 227.105 143.216 225.952 142.574 224.865C141.788 223.404 140.596 222.201 139.143 221.402C135.152 219.667 131.046 218.208 126.855 217.036C122.147 215.628 116.949 214.134 111.463 212.686C100.483 209.768 90.4136 207.683 83.0755 206.461C79.4103 205.839 76.4299 205.418 74.3677 205.13L71.9943 204.804C71.7375 204.804 71.5352 204.741 71.3796 204.71L71.1694 204.671H71.3796L72.0021 204.726L74.3833 204.975C76.4532 205.216 79.4414 205.59 83.1222 206.181C92.7136 207.758 102.219 209.817 111.603 212.352C117.097 213.807 122.295 215.317 127.003 216.741C131.199 217.924 135.306 219.407 139.291 221.176C140.785 222.009 142.003 223.262 142.792 224.779C143.417 225.888 143.91 227.066 144.263 228.289C144.559 229.293 144.738 230.086 144.839 230.623C144.878 230.872 144.917 231.075 144.94 231.238C144.963 231.306 144.976 231.377 144.979 231.448Z" fill="#455A64"/>
<path d="M110.747 262.754L111.572 260.972C105.386 259.364 99.8896 255.793 95.9074 250.794L88.7949 261.136L120.793 282.442C122.669 279.36 110.747 262.754 110.747 262.754Z" fill="#FF725E"/>
<path d="M88.7949 261.134L90.5303 258.605L120.614 280.051C120.614 280.051 121.618 281.608 120.778 282.464L88.7949 261.134Z" fill="#E0E0E0"/>
<path d="M97.0515 258.957C96.8914 259.172 96.6545 259.316 96.3904 259.359C96.1263 259.403 95.8557 259.342 95.6352 259.191C95.5272 259.118 95.435 259.023 95.3641 258.914C95.2932 258.804 95.2451 258.682 95.2226 258.553C95.2001 258.425 95.2037 258.293 95.2331 258.166C95.2626 258.039 95.3173 257.919 95.394 257.813C95.5514 257.598 95.7872 257.453 96.0505 257.409C96.3139 257.365 96.5839 257.427 96.8025 257.58C96.9111 257.652 97.004 257.746 97.0756 257.855C97.1472 257.965 97.1961 258.087 97.2194 258.216C97.2426 258.344 97.2397 258.476 97.2109 258.604C97.182 258.731 97.1278 258.851 97.0515 258.957Z" fill="#E0E0E0"/>
<path d="M110.148 262.195C109.874 262.156 109.609 262.064 109.37 261.923C108.672 261.628 108.063 261.156 107.604 260.553C107.457 260.343 107.337 260.116 107.246 259.876C107.129 259.61 107.078 259.319 107.098 259.028C107.113 258.842 107.187 258.665 107.311 258.525C107.434 258.385 107.6 258.288 107.783 258.25C107.963 258.217 108.148 258.22 108.327 258.258C108.506 258.297 108.675 258.371 108.826 258.476C109.401 258.9 109.85 259.474 110.125 260.135C110.399 260.796 110.488 261.519 110.382 262.226L109.884 262.063C110.016 261.808 110.176 261.568 110.359 261.347C110.851 260.756 111.492 260.307 112.215 260.046C112.939 259.785 113.719 259.721 114.475 259.861C114.676 259.891 114.867 259.965 115.035 260.079C115.127 260.144 115.203 260.231 115.256 260.331C115.308 260.431 115.337 260.542 115.339 260.655C115.338 260.834 115.3 261.012 115.227 261.176C115.155 261.341 115.05 261.489 114.919 261.612C114.507 262.027 113.986 262.319 113.417 262.452C112.609 262.617 111.774 262.601 110.973 262.405C110.679 262.371 110.39 262.295 110.117 262.18C110.411 262.134 110.711 262.134 111.004 262.18C111.782 262.3 112.575 262.266 113.339 262.079C113.83 261.941 114.273 261.672 114.623 261.3C114.795 261.128 114.897 260.898 114.911 260.655C114.911 260.452 114.747 260.359 114.421 260.312C113.753 260.201 113.068 260.267 112.434 260.501C111.799 260.736 111.237 261.132 110.802 261.651C110.643 261.843 110.504 262.051 110.39 262.273C110.361 262.329 110.314 262.373 110.257 262.397C110.199 262.421 110.135 262.425 110.075 262.406C110.015 262.387 109.964 262.348 109.931 262.295C109.897 262.242 109.883 262.179 109.892 262.118C109.982 261.505 109.908 260.879 109.678 260.304C109.449 259.728 109.071 259.224 108.584 258.841C108.156 258.507 107.573 258.631 107.542 259.044C107.549 259.5 107.683 259.945 107.931 260.328C108.334 260.905 108.867 261.38 109.487 261.713C109.923 262.016 110.172 262.156 110.148 262.195Z" fill="#263238"/>
<path d="M176.831 57.978C179.266 42.8121 168.945 28.5441 153.779 26.1095C138.613 23.6749 124.345 33.9956 121.911 49.1615C119.476 64.3274 129.797 78.5954 144.963 81.03C160.129 83.4646 174.397 73.1439 176.831 57.978Z" fill="#455A64"/>
<path d="M151.996 54.2088C153.352 53.6445 154.479 52.5985 155.183 51.251C155.887 49.9035 156.123 48.3391 155.851 46.8276C155.579 45.316 154.815 43.952 153.693 42.9708C152.57 41.9896 151.157 41.4528 149.699 41.4528C148.242 41.4528 146.829 41.9896 145.706 42.9708C144.583 43.952 143.82 45.316 143.548 46.8276C143.276 48.3391 143.512 49.9035 144.216 51.251C144.92 52.5985 146.047 53.6445 147.403 54.2088C137.781 55.6468 138.217 66.0116 138.217 66.0116L160.975 66.1166C160.975 66.1166 161.534 55.6387 151.996 54.2088Z" fill="#263238"/>
</g>
<defs>
<clipPath id="clip0_9738_481586">
<rect width="284.583" height="260" fill="white" transform="translate(0.0498047 0.844421)"/>
</clipPath>
<clipPath id="clip1_9738_481586">
<rect width="9.1314" height="9.1314" fill="white" transform="translate(145.899 105.843)"/>
</clipPath>
<clipPath id="clip2_9738_481586">
<rect width="9.1314" height="9.1314" fill="white" transform="translate(169.529 105.843)"/>
</clipPath>
<clipPath id="clip3_9738_481586">
<rect width="9.1314" height="9.1314" fill="white" transform="translate(226.832 247.471)"/>
</clipPath>
</defs>
</svg>
