<svg width="24" height="24" viewBox="0 0 24 24" fill="none" xmlns="http://www.w3.org/2000/svg">
<path d="M3.07886 5.65521C3.07886 4.18173 4.27335 2.98724 5.74683 2.98724H15.3515C16.825 2.98724 18.0195 4.18173 18.0195 5.65521V8.34817C17.6009 8.10604 17.1149 7.96745 16.5966 7.96745C15.0249 7.96745 13.7507 9.24158 13.7507 10.8133C13.7507 11.791 14.2438 12.6535 14.9948 13.1659C13.7588 13.5281 12.8883 14.304 12.3058 15.2104C11.7422 16.0875 11.4505 17.0791 11.3298 17.9279H6.74386L5.12636 20.3541C4.96289 20.5993 4.6316 20.6656 4.3864 20.5021C4.14119 20.3386 4.07494 20.0073 4.2384 19.7621L5.47067 17.9138C4.12695 17.7756 3.07886 16.6401 3.07886 15.2599V5.65521ZM6.08127 12.3059C6.41445 12.5142 6.85339 12.4129 7.06167 12.0797L8.23721 10.1991L9.41233 12.0796C9.54233 12.2877 9.77033 12.4141 10.0156 12.4141C10.261 12.4141 10.489 12.2877 10.619 12.0797L12.3976 9.23384C12.6059 8.90064 12.5046 8.4617 12.1714 8.25345C11.8382 8.0452 11.3993 8.14649 11.191 8.47969L10.0157 10.3601L8.84065 8.47974C8.71065 8.27171 8.48266 8.14533 8.23735 8.14531C7.99205 8.14529 7.76404 8.27164 7.63401 8.47965L5.85509 11.3255C5.64682 11.6587 5.74808 12.0976 6.08127 12.3059ZM16.5966 9.03464C15.6142 9.03464 14.8179 9.83097 14.8179 10.8133C14.8179 11.7956 15.6142 12.5919 16.5966 12.5919C17.5789 12.5919 18.3752 11.7956 18.3752 10.8133C18.3752 9.83097 17.5789 9.03464 16.5966 9.03464ZM13.2036 15.7874C12.552 16.8012 12.3278 18.039 12.3278 18.8617C12.3278 19.2266 12.8649 20.7737 16.5966 20.7737C20.3282 20.7737 20.8653 19.2266 20.8653 18.8617C20.8653 18.039 20.6411 16.8012 19.9896 15.7874C19.3565 14.8023 18.3167 14.0148 16.5966 14.0148C14.8764 14.0148 13.8366 14.8023 13.2036 15.7874Z" fill="white" fill-opacity="0.95"/>
</svg>
