<svg width="24" height="24" viewBox="0 0 24 24" fill="none" xmlns="http://www.w3.org/2000/svg">
<path d="M6.4582 1.92432C6.23422 1.92432 6.04228 2.0845 6.00221 2.30487C5.85413 3.11935 5.74871 3.69608 5.62398 4.13051C5.50078 4.55957 5.3734 4.79297 5.21575 4.95062C5.05811 5.10827 4.8247 5.23565 4.39564 5.35884C3.96121 5.48358 3.38449 5.58899 2.57001 5.73708C2.34964 5.77715 2.18945 5.96908 2.18945 6.19307C2.18945 6.41705 2.34964 6.60899 2.57001 6.64905C3.38448 6.79714 3.96121 6.90256 4.39564 7.02729C4.8247 7.15049 5.05811 7.27787 5.21575 7.43552C5.3734 7.59317 5.50078 7.82657 5.62398 8.25563C5.74871 8.69006 5.85413 9.26678 6.00221 10.0813C6.04228 10.3016 6.23422 10.4618 6.4582 10.4618C6.68219 10.4618 6.87412 10.3016 6.91419 10.0813C7.06228 9.26678 7.16769 8.69006 7.29243 8.25563C7.41563 7.82657 7.54301 7.59317 7.70065 7.43552C7.8583 7.27787 8.09171 7.15049 8.52077 7.02729C8.9552 6.90256 9.53192 6.79714 10.3464 6.64905C10.5668 6.60899 10.727 6.41705 10.727 6.19307C10.727 5.96908 10.5668 5.77715 10.3464 5.73708C9.53192 5.58899 8.9552 5.48358 8.52077 5.35884C8.09171 5.23564 7.8583 5.10826 7.70065 4.95062C7.54301 4.79297 7.41563 4.55956 7.29243 4.1305C7.16769 3.69607 7.06228 3.11935 6.91419 2.30487C6.87412 2.0845 6.68219 1.92432 6.4582 1.92432Z" fill="white" fill-opacity="0.95"/>
<path d="M13.9285 5.48161C14.211 5.48161 14.453 5.68359 14.5035 5.96148C14.7979 7.58056 15.0116 8.7519 15.2664 9.63949C15.5193 10.5203 15.7943 11.0501 16.168 11.4238C16.5418 11.7976 17.0716 12.0726 17.9524 12.3255C18.84 12.5803 20.0113 12.794 21.6304 13.0884C21.9083 13.1389 22.1103 13.3809 22.1103 13.6634C22.1103 13.9458 21.9083 14.1878 21.6304 14.2384C20.0113 14.5327 18.84 14.7464 17.9524 15.0013C17.0716 15.2542 16.5418 15.5292 16.168 15.9029C15.7943 16.2766 15.5193 16.8065 15.2664 17.6873C15.0116 18.5749 14.7979 19.7462 14.5035 21.3653C14.453 21.6432 14.211 21.8451 13.9285 21.8451C13.6461 21.8451 13.4041 21.6432 13.3535 21.3653C13.0592 19.7462 12.8455 18.5749 12.5906 17.6873C12.3377 16.8065 12.0627 16.2766 11.689 15.9029C11.3152 15.5292 10.7854 15.2542 9.90463 15.0013C9.01704 14.7464 7.8457 14.5327 6.22661 14.2384C5.94873 14.1878 5.74674 13.9458 5.74674 13.6634C5.74674 13.3809 5.94873 13.1389 6.22661 13.0884C7.8457 12.794 9.01704 12.5803 9.90463 12.3255C10.7854 12.0726 11.3152 11.7976 11.689 11.4239C12.0627 11.0501 12.3377 10.5203 12.5906 9.63951C12.8455 8.75191 13.0592 7.58057 13.3535 5.96148C13.4041 5.6836 13.6461 5.48161 13.9285 5.48161Z" fill="white" fill-opacity="0.95"/>
</svg>
