<svg width="16" height="16" viewBox="0 0 16 16" xmlns="http://www.w3.org/2000/svg">
<style>
path {
  fill: #000;
}
@media (prefers-color-scheme: dark) {
  path {
      fill: #fff;
  }
}</style>
<path fill="#000000" stroke="none" d="
M 2 4.25
Q 1.7 4.15 1.35 4.2 1.05 4.25 0.8 4.35 0.6 4.45 0.45 4.65 0.3 4.8 0.2 5.05 0.1 5.2 0.05 5.4 0 5.7 0.05 6.05 0.1 6.5 0.2 6.95 0.45 8.05 0.75 9.1 0.8 9.35 0.85 9.55 0.95 9.85 1.1 10.2 1.25 10.6 1.4 11 1.55 11.3 1.75 11.6 2 12.1 2.35 12.55 2.7 13 3.2 13.25 3.85 13.65 4.6 13.8 4.9 13.85 5.2 13.85 5.55 13.85 5.8 13.8 5.95 13.8 6.05 13.75 6.25 13.7 6.45 13.6 6.6 13.55 6.7 13.5 6.75 13.45 6.8 13.45 6.9 13.4 6.95 13.35 7.4 13.1 7.7 12.75 7.6 12.55 7.45 12.35 7.35 12.2 7.3 12.05 7.15 11.85 7.05 11.55 6.95 11.35 6.85 11.1 6.8 11.05 6.8 10.95 6.75 10.85 6.7 10.7 6.4 10 6.2 9.25
L 6.2 9.3
Q 6.05 9.7 5.9 10.05 5.85 10.2 5.75 10.35 5.6 10.75 5.2 10.85 5.1 10.85 5.05 10.85 4.8 10.8 4.6 10.55 4.4 10.25 4.2 9.9 4.05 9.6 3.9 9.2 3.8 8.85 3.7 8.5 3.55 8.15 3.5 7.8 3.35 7.4 3.3 7.05 3.2 6.65 3.15 6.3 3.05 5.9 3 5.55 2.9 5.15 2.7 4.8 2.6 4.6 2.4 4.45 2.25 4.3 2 4.25
M 11.25 2.45
Q 10.85 2.4 10.5 2.45 10 2.5 9.6 2.7 9 3 8.5 3.45 8.4 3.5 8.35 3.55 8.6 3.9 8.8 4.25 8.95 4.55 9.1 4.9 9.3 5.25 9.4 5.6 9.5 6 9.6 6.4 9.7 6.75 9.8 7.15 9.8 7.2 9.85 7.3 9.9 7 9.95 6.75 10.05 6.4 10.25 6.1 10.3 5.95 10.4 5.8 10.5 5.65 10.6 5.55 10.65 5.5 10.7 5.5 10.8 5.4 10.9 5.4 11.05 5.4 11.15 5.45 11.35 5.6 11.45 5.75 11.8 6.15 12 6.65 12.05 6.75 12.15 6.8 12.4 7.15 12.8 7.25 12.9 7.3 13.1 7.3 13.45 7.35 13.8 7.2 14.1 7.05 14.35 6.8 14.55 6.55 14.65 6.2 14.75 5.65 14.5 5.1 14.15 4.3 13.6 3.65 13.3 3.35 12.95 3.1 12.7 2.9 12.45 2.8 12.2 2.65 11.95 2.6 11.6 2.5 11.25 2.45
M 15.5 4.5
Q 15.35 4.4 15.2 4.35 15.15 4.3 15.05 4.25
L 15 4.25
Q 14.9 4.2 14.8 4.2 14.7 4.15 14.6 4.15 14.9 4.7 15.15 5.3 15.2 5.5 15.2 5.75 15.2 6.15 15.05 6.55 15 6.8 14.8 7 14.75 7.15 14.6 7.25 14.5 7.35 14.4 7.45 14.35 7.5 14.25 7.5 14.2 7.55 14.15 7.6 13.55 7.95 12.8 7.8 12.75 7.8 12.65 7.75 12.4 8.75 12 9.65 11.8 10.2 11.45 10.6 11.4 10.65 11.3 10.75 11.2 10.8 11.05 10.85 11 10.85 10.95 10.85 10.9 10.85 10.85 10.85 10.8 10.85 10.75 10.85
L 10.7 10.8
Q 10.35 10.6 10.25 10.25 10.2 10.1 10.15 10 9.7 8.75 9.4 7.5 9.35 7.25 9.3 7.05 8.95 5.85 8.45 4.7 8.4 4.5 8.3 4.35 8.15 4.1 8 3.9 7.9 3.75 7.8 3.65 7.75 3.55 7.65 3.5
L 7.6 3.45
Q 7.5 3.35 7.35 3.25 7.25 3.15 7.1 3.05 6.95 2.95 6.8 2.85 6.55 2.7 6.25 2.6 6.1 2.55 5.95 2.5 5.3 2.4 4.65 2.45 4.35 2.5 4.1 2.6 3.7 2.75 3.3 2.95 3.15 3.05 3 3.2 2.7 3.45 2.45 3.75 2.4 3.8 2.35 3.85 2.7 4 2.95 4.3 3.2 4.6 3.35 4.95 3.5 5.3 3.55 5.7 3.65 6.05 3.7 6.4 3.75 6.8 3.8 7.2
L 3.8 7.25
Q 4.2 6.5 4.65 5.75 4.7 5.65 4.75 5.6 4.95 5.4 5.25 5.45 5.3 5.45 5.4 5.5 5.5 5.55 5.6 5.6 5.65 5.7 5.7 5.75 5.75 5.9 5.85 6.05 5.9 6.15 5.9 6.2 5.95 6.35 6 6.45 6.3 7.35 6.55 8.25 6.8 9.35 7.1 10.45 7.25 10.9 7.45 11.35 7.65 11.75 7.9 12.1 8.1 12.4 8.35 12.75 8.5 12.9 8.65 13.05 8.75 13.1 8.85 13.2 9 13.25 9.15 13.35 9.25 13.4 9.4 13.5 9.45 13.5 9.55 13.55 9.7 13.65 9.9 13.7 10.05 13.75 10.2 13.8 10.45 13.85 10.65 13.85 11 13.85 11.3 13.85 11.5 13.8 11.7 13.75 12.15 13.7 12.55 13.5 12.75 13.4 12.9 13.25 13.1 13.15 13.25 13 13.45 12.8 13.65 12.6 13.95 12.15 14.25 11.7 14.6 11.15 14.85 10.5 15.25 9.5 15.5 8.45 15.8 7.25 16 6 16.05 5.75 16 5.5 16 5.35 15.95 5.2 15.9 5.05 15.8 4.9 15.75 4.8 15.65 4.7 15.6 4.6 15.5 4.5 Z"/>
</svg>